G04*
G04 #@! TF.GenerationSoftware,Altium Limited,Altium Designer,23.10.1 (27)*
G04*
G04 Layer_Color=65535*
%FSLAX25Y25*%
%MOIN*%
G70*
G04*
G04 #@! TF.SameCoordinates,63F36303-5D97-42AD-868C-FB7FB63341C3*
G04*
G04*
G04 #@! TF.FilePolarity,Positive*
G04*
G01*
G75*
%ADD10C,0.00787*%
%ADD11C,0.00591*%
D10*
X11929Y-98701D02*
X21929D01*
X11929Y-38701D02*
X21929D01*
Y-98701D02*
Y-38701D01*
X11929Y-98701D02*
Y-38701D01*
X-5000Y-98701D02*
X5000D01*
X-5000Y-38701D02*
X5000Y-38701D01*
X5000Y-98701D01*
X-5000D02*
Y-38701D01*
X-21929Y-98701D02*
X-11929Y-98701D01*
X-21929Y-38701D02*
X-11929D01*
Y-98701D02*
Y-38701D01*
X-21929D02*
X-21929Y-98701D01*
X-19291Y-29921D02*
X19291Y-29921D01*
X-19291Y-29921D02*
X-19291Y-13386D01*
X19291Y-29921D02*
Y-13386D01*
X-13780Y-7106D02*
X13780D01*
X-19291Y2362D02*
X19291D01*
X-19291D02*
X-19291Y18898D01*
X19291Y2362D02*
Y18898D01*
X-13780Y25177D02*
X13780D01*
X-31988Y28543D02*
X-30512Y28543D01*
X-31988Y28543D02*
Y29528D01*
Y-28543D02*
X-30512D01*
X-31988Y-29528D02*
Y-28543D01*
X-30512D02*
X-28445D01*
X-38878Y-29528D02*
X-31988D01*
X-30512Y28543D02*
X-28445D01*
X-38878Y29528D02*
X-31988Y29528D01*
X-28445Y-28543D02*
Y28543D01*
X-43406Y-26673D02*
Y26673D01*
X30512Y-28543D02*
X31988D01*
Y-29528D02*
Y-28543D01*
X30512Y28543D02*
X31988D01*
Y29528D01*
X28445Y28543D02*
X30512D01*
X31988Y29528D02*
X38878D01*
X28445Y-28543D02*
X30512D01*
X31988Y-29528D02*
X38878D01*
X28445Y-28543D02*
Y28543D01*
X43406Y-26673D02*
Y26673D01*
D11*
X-41142Y-52954D02*
Y-56102D01*
Y-54528D01*
X-39043D01*
Y-52954D01*
Y-56102D01*
X-37993Y-52954D02*
Y-55578D01*
X-37468Y-56102D01*
X-36419D01*
X-35894Y-55578D01*
Y-52954D01*
X-34845D02*
Y-56102D01*
X-33270D01*
X-32746Y-55578D01*
Y-55053D01*
X-33270Y-54528D01*
X-34845D01*
X-33270D01*
X-32746Y-54003D01*
Y-53478D01*
X-33270Y-52954D01*
X-34845D01*
X-28547Y-54003D02*
X-27498Y-56102D01*
X-26448Y-54003D01*
X-25399Y-56102D02*
X-24349D01*
X-24874D01*
Y-52954D01*
X-25399Y-53478D01*
X-39961Y-61221D02*
X-38911D01*
X-39436D01*
Y-58072D01*
X-39961Y-58597D01*
X-37337Y-61221D02*
X-36287D01*
X-36812D01*
Y-58072D01*
X-37337Y-58597D01*
X-34713Y-61221D02*
X-32614Y-59121D01*
X-29465Y-61221D02*
X-31564D01*
X-29465Y-59121D01*
Y-58597D01*
X-29990Y-58072D01*
X-31040D01*
X-31564Y-58597D01*
X-28416D02*
X-27891Y-58072D01*
X-26842D01*
X-26317Y-58597D01*
Y-59121D01*
X-26842Y-59646D01*
X-27366D01*
X-26842D01*
X-26317Y-60171D01*
Y-60696D01*
X-26842Y-61221D01*
X-27891D01*
X-28416Y-60696D01*
X-10433Y-51772D02*
X-7284D01*
X-8334Y-52821D01*
X-7284Y-53871D01*
X-10433D01*
X-8859Y-54920D02*
Y-57019D01*
X-7284Y-58069D02*
X-10433D01*
Y-60168D01*
X6496Y-51772D02*
X9645D01*
X8595Y-52821D01*
X9645Y-53871D01*
X6496D01*
X8070Y-54920D02*
Y-57019D01*
X6496Y-58069D02*
X9645D01*
Y-59643D01*
X9120Y-60168D01*
X8070D01*
X7546Y-59643D01*
Y-58069D01*
Y-59118D02*
X6496Y-60168D01*
X26574Y-51772D02*
X23425D01*
Y-53871D01*
X26574Y-57019D02*
Y-54920D01*
X23425D01*
Y-57019D01*
X24999Y-54920D02*
Y-55970D01*
X26574Y-58069D02*
X23425D01*
Y-59643D01*
X23950Y-60168D01*
X26049D01*
X26574Y-59643D01*
Y-58069D01*
X18636Y-35826D02*
Y-32678D01*
X20210D01*
X20735Y-33202D01*
Y-34252D01*
X20210Y-34777D01*
X18636D01*
X19686D02*
X20735Y-35826D01*
X23359D02*
Y-32678D01*
X21785Y-34252D01*
X23884D01*
X-12860Y-35826D02*
Y-32678D01*
X-11286D01*
X-10761Y-33202D01*
Y-34252D01*
X-11286Y-34777D01*
X-12860D01*
X-11811D02*
X-10761Y-35826D01*
X-9712Y-33202D02*
X-9187Y-32678D01*
X-8137D01*
X-7612Y-33202D01*
Y-33727D01*
X-8137Y-34252D01*
X-8662D01*
X-8137D01*
X-7612Y-34777D01*
Y-35302D01*
X-8137Y-35826D01*
X-9187D01*
X-9712Y-35302D01*
X22835Y-76904D02*
X25984D01*
Y-78478D01*
X25459Y-79003D01*
X24409D01*
X23885Y-78478D01*
Y-76904D01*
X25984Y-82151D02*
Y-80052D01*
X24409D01*
X24934Y-81102D01*
Y-81627D01*
X24409Y-82151D01*
X23360D01*
X22835Y-81627D01*
Y-80577D01*
X23360Y-80052D01*
X5906Y-91864D02*
X9055D01*
Y-93439D01*
X8530Y-93963D01*
X7480D01*
X6955Y-93439D01*
Y-91864D01*
X9055Y-97112D02*
X8530Y-96062D01*
X7480Y-95013D01*
X6431D01*
X5906Y-95538D01*
Y-96587D01*
X6431Y-97112D01*
X6955D01*
X7480Y-96587D01*
Y-95013D01*
X-11023Y-91864D02*
X-7875D01*
Y-93439D01*
X-8399Y-93963D01*
X-9449D01*
X-9974Y-93439D01*
Y-91864D01*
X-7875Y-95013D02*
Y-97112D01*
X-8399D01*
X-10498Y-95013D01*
X-11023D01*
X38058Y-68110D02*
Y-64961D01*
X39633D01*
X40157Y-65486D01*
Y-66535D01*
X39633Y-67060D01*
X38058D01*
X39108D02*
X40157Y-68110D01*
X41207D02*
X42257D01*
X41732D01*
Y-64961D01*
X41207Y-65486D01*
X37927Y-75196D02*
Y-72048D01*
X39502D01*
X40026Y-72572D01*
Y-73622D01*
X39502Y-74147D01*
X37927D01*
X38977D02*
X40026Y-75196D01*
X43175D02*
X41076D01*
X43175Y-73097D01*
Y-72572D01*
X42650Y-72048D01*
X41601D01*
X41076Y-72572D01*
X-42781Y-68110D02*
Y-64961D01*
X-41207D01*
X-40682Y-65486D01*
Y-66535D01*
X-41207Y-67060D01*
X-42781D01*
X-41732D02*
X-40682Y-68110D01*
X-37534Y-64961D02*
X-39633D01*
Y-66535D01*
X-38583Y-66011D01*
X-38058D01*
X-37534Y-66535D01*
Y-67585D01*
X-38058Y-68110D01*
X-39108D01*
X-39633Y-67585D01*
X-42781Y-75196D02*
Y-72048D01*
X-41207D01*
X-40682Y-72572D01*
Y-73622D01*
X-41207Y-74147D01*
X-42781D01*
X-41732D02*
X-40682Y-75196D01*
X-37534Y-72048D02*
X-38583Y-72572D01*
X-39633Y-73622D01*
Y-74672D01*
X-39108Y-75196D01*
X-38058D01*
X-37534Y-74672D01*
Y-74147D01*
X-38058Y-73622D01*
X-39633D01*
X-5184Y-2166D02*
X-7283D01*
Y-5315D01*
X-5184D01*
X-7283Y-3741D02*
X-6234D01*
X-2036Y-2691D02*
X-2561Y-2166D01*
X-3610D01*
X-4135Y-2691D01*
Y-3216D01*
X-3610Y-3741D01*
X-2561D01*
X-2036Y-4265D01*
Y-4790D01*
X-2561Y-5315D01*
X-3610D01*
X-4135Y-4790D01*
X-986Y-2166D02*
X1113D01*
X63D01*
Y-5315D01*
X3737Y-2166D02*
X2687D01*
X2162Y-2691D01*
Y-4790D01*
X2687Y-5315D01*
X3737D01*
X4261Y-4790D01*
Y-2691D01*
X3737Y-2166D01*
X5311Y-5315D02*
Y-2166D01*
X6885D01*
X7410Y-2691D01*
Y-3741D01*
X6885Y-4265D01*
X5311D01*
X-10433Y28149D02*
X-8334D01*
X-4136Y26575D02*
Y29723D01*
X-2562D01*
X-2037Y29199D01*
Y28149D01*
X-2562Y27624D01*
X-4136D01*
X-987Y29723D02*
Y26575D01*
X62Y27624D01*
X1112Y26575D01*
Y29723D01*
X2161Y26575D02*
Y29723D01*
X3736D01*
X4260Y29199D01*
Y28149D01*
X3736Y27624D01*
X2161D01*
X3211D02*
X4260Y26575D01*
X8459Y28149D02*
X10558D01*
X9508Y29199D02*
Y27100D01*
X-2624Y-12992D02*
Y-9843D01*
X-1049D01*
X-525Y-10368D01*
Y-11417D01*
X-1049Y-11942D01*
X-2624D01*
X2099Y-12992D02*
Y-9843D01*
X525Y-11417D01*
X2624D01*
X-2230Y19686D02*
Y22834D01*
X-656D01*
X-131Y22309D01*
Y21260D01*
X-656Y20735D01*
X-2230D01*
X919Y22309D02*
X1443Y22834D01*
X2493D01*
X3018Y22309D01*
Y21785D01*
X2493Y21260D01*
X1968D01*
X2493D01*
X3018Y20735D01*
Y20210D01*
X2493Y19686D01*
X1443D01*
X919Y20210D01*
X-26640Y25985D02*
Y29133D01*
X-25065D01*
X-24541Y28609D01*
Y27559D01*
X-25065Y27034D01*
X-26640D01*
X-21392Y25985D02*
X-23491D01*
X-21392Y28084D01*
Y28609D01*
X-21917Y29133D01*
X-22966D01*
X-23491Y28609D01*
X22310Y25985D02*
Y29133D01*
X23885D01*
X24409Y28609D01*
Y27559D01*
X23885Y27034D01*
X22310D01*
X25459Y25985D02*
X26509D01*
X25984D01*
Y29133D01*
X25459Y28609D01*
M02*
