G04*
G04 #@! TF.GenerationSoftware,Altium Limited,Altium Designer,23.10.1 (27)*
G04*
G04 Layer_Color=8421504*
%FSLAX25Y25*%
%MOIN*%
G70*
G04*
G04 #@! TF.SameCoordinates,63F36303-5D97-42AD-868C-FB7FB63341C3*
G04*
G04*
G04 #@! TF.FilePolarity,Positive*
G04*
G01*
G75*
%ADD12R,0.03150X0.03150*%
%ADD13R,0.03150X0.01181*%
%ADD14R,0.03150X0.01575*%
D12*
X14961Y-34252D02*
D03*
X8661D02*
D03*
X2362D02*
D03*
X-3937D02*
D03*
X34646Y-66535D02*
D03*
X28346D02*
D03*
X34646Y-73622D02*
D03*
X28346D02*
D03*
X-34646Y-66535D02*
D03*
X-28346D02*
D03*
X-34646Y-73622D02*
D03*
X-28346D02*
D03*
D13*
X-31496Y22638D02*
D03*
Y20669D02*
D03*
Y18701D02*
D03*
Y14764D02*
D03*
Y12795D02*
D03*
Y10827D02*
D03*
Y6890D02*
D03*
Y4921D02*
D03*
Y2953D02*
D03*
Y984D02*
D03*
Y-984D02*
D03*
Y-2953D02*
D03*
Y-4921D02*
D03*
Y-6890D02*
D03*
Y-10827D02*
D03*
Y-12795D02*
D03*
Y-14764D02*
D03*
Y-18701D02*
D03*
Y-20669D02*
D03*
Y-22638D02*
D03*
Y24606D02*
D03*
Y16732D02*
D03*
Y8858D02*
D03*
Y-8858D02*
D03*
Y-16732D02*
D03*
Y-24606D02*
D03*
X31496Y-22638D02*
D03*
Y-20669D02*
D03*
Y-18701D02*
D03*
Y-14764D02*
D03*
Y-12795D02*
D03*
Y-10827D02*
D03*
Y-6890D02*
D03*
Y-4921D02*
D03*
Y-2953D02*
D03*
Y-984D02*
D03*
Y984D02*
D03*
Y2953D02*
D03*
Y4921D02*
D03*
Y6890D02*
D03*
Y10827D02*
D03*
Y12795D02*
D03*
Y14764D02*
D03*
Y18701D02*
D03*
Y20669D02*
D03*
Y22638D02*
D03*
Y-24606D02*
D03*
Y-16732D02*
D03*
Y-8858D02*
D03*
Y8858D02*
D03*
Y16732D02*
D03*
Y24606D02*
D03*
D14*
X-41339Y28543D02*
D03*
Y-28543D02*
D03*
X41339Y-28543D02*
D03*
Y28543D02*
D03*
M02*
