G04*
G04 #@! TF.GenerationSoftware,Altium Limited,Altium Designer,23.10.1 (27)*
G04*
G04 Layer_Color=8388736*
%FSLAX25Y25*%
%MOIN*%
G70*
G04*
G04 #@! TF.SameCoordinates,63F36303-5D97-42AD-868C-FB7FB63341C3*
G04*
G04*
G04 #@! TF.FilePolarity,Negative*
G04*
G01*
G75*
%ADD15R,0.03701X0.03701*%
%ADD16R,0.03701X0.01732*%
%ADD17R,0.03701X0.02126*%
%ADD18C,0.19685*%
%ADD19R,0.06457X0.06457*%
%ADD20C,0.06457*%
%ADD21C,0.06850*%
%ADD22C,0.05551*%
D15*
X14961Y-34252D02*
D03*
X8661D02*
D03*
X2362D02*
D03*
X-3937D02*
D03*
X34646Y-66535D02*
D03*
X28346D02*
D03*
X34646Y-73622D02*
D03*
X28346D02*
D03*
X-34646Y-66535D02*
D03*
X-28346D02*
D03*
X-34646Y-73622D02*
D03*
X-28346D02*
D03*
D16*
X-31496Y22638D02*
D03*
Y20669D02*
D03*
Y18701D02*
D03*
Y14764D02*
D03*
Y12795D02*
D03*
Y10827D02*
D03*
Y6890D02*
D03*
Y4921D02*
D03*
Y2953D02*
D03*
Y984D02*
D03*
Y-984D02*
D03*
Y-2953D02*
D03*
Y-4921D02*
D03*
Y-6890D02*
D03*
Y-10827D02*
D03*
Y-12795D02*
D03*
Y-14764D02*
D03*
Y-18701D02*
D03*
Y-20669D02*
D03*
Y-22638D02*
D03*
Y24606D02*
D03*
Y16732D02*
D03*
Y8858D02*
D03*
Y-8858D02*
D03*
Y-16732D02*
D03*
Y-24606D02*
D03*
X31496Y-22638D02*
D03*
Y-20669D02*
D03*
Y-18701D02*
D03*
Y-14764D02*
D03*
Y-12795D02*
D03*
Y-10827D02*
D03*
Y-6890D02*
D03*
Y-4921D02*
D03*
Y-2953D02*
D03*
Y-984D02*
D03*
Y984D02*
D03*
Y2953D02*
D03*
Y4921D02*
D03*
Y6890D02*
D03*
Y10827D02*
D03*
Y12795D02*
D03*
Y14764D02*
D03*
Y18701D02*
D03*
Y20669D02*
D03*
Y22638D02*
D03*
Y-24606D02*
D03*
Y-16732D02*
D03*
Y-8858D02*
D03*
Y8858D02*
D03*
Y16732D02*
D03*
Y24606D02*
D03*
D17*
X-41339Y28543D02*
D03*
Y-28543D02*
D03*
X41339Y-28543D02*
D03*
Y28543D02*
D03*
D18*
X32677Y-41339D02*
D03*
Y-88583D02*
D03*
X-32677D02*
D03*
Y-41339D02*
D03*
D19*
X16929Y-43701D02*
D03*
X0D02*
D03*
X-16929Y-43701D02*
D03*
D20*
X16929Y-53701D02*
D03*
X16929Y-63701D02*
D03*
X16929Y-73701D02*
D03*
X16929Y-83701D02*
D03*
Y-93701D02*
D03*
X0Y-53701D02*
D03*
Y-63701D02*
D03*
Y-73701D02*
D03*
Y-83701D02*
D03*
Y-93701D02*
D03*
X-16929Y-53701D02*
D03*
X-16929Y-63701D02*
D03*
X-16929Y-73701D02*
D03*
Y-83701D02*
D03*
X-16929Y-93701D02*
D03*
D21*
X5906Y-17323D02*
D03*
X-5906D02*
D03*
X5906Y14961D02*
D03*
X-5906D02*
D03*
D22*
X17717Y-9606D02*
D03*
X-17717D02*
D03*
X17717Y22677D02*
D03*
X-17717D02*
D03*
M02*
