M48
;Layer_Color=9474304
;FILE_FORMAT=2:5
INCH,LZ
;TYPE=PLATED
T01F00S00C0.01181
T02F00S00C0.01575
T04F00S00C0.03543
T05F00S00C0.03937
;TYPE=NON_PLATED
T06F00S00C0.10236
%
T01
X-0027559Y-0026772
X-0021654
X-0016437Y-002126
X-0008268Y-0022047
X-0001181Y-0025984
X0001575Y-0027953
X0004724Y-0025591
X0009055Y-002126
X0007874Y-0012598
X0004331
X0013386Y-0011516
X0016831Y-0014862
X0019542Y-0010379
X001626Y-0005896
X0018012Y0000295
X-002126Y-0005807
X-0025591Y-0014173
X-0023622Y-0016929
X-0032776Y-002126
X0037008Y-0005118
X0037106Y0009055
X0040157Y0013169
X0039415Y0017269
X0037303Y0034252
X0033169Y0034154
X0033071Y0038189
Y0042913
Y0047638
X0037303Y0046752
X0048327Y0043602
X0050197Y0038189
X0051575Y0031496
X0056299Y0030315
X0054035Y0002992
X0047933Y0058268
X0048031Y0062303
X0041732Y0056496
X0033906Y0060386
X0029665Y0052301
X0028346Y0047638
X0023622
Y0042913
X0028346
X0028346Y0038189
X0023622
X0018183Y0033179
X0011152Y0032677
X0006004Y0040748
X0000689Y0040551
X-0003347Y0042815
X-0004331Y0048031
X-0000492Y0046358
X0004281Y0053396
X000374Y0059547
X-0004724Y005689
X001378Y0056693
X0017658Y006012
X0020374Y0070669
X0028839Y0074213
X002209Y0084831
X001688Y0085065
X001378
X0016339Y0080835
X0012205Y0077559
X0009449Y0074016
X-000689Y008248
X-0017323Y0073622
X-0016929Y0069685
X-001378
X-0020472Y0072441
X-0028346Y0070866
Y0074803
Y007874
Y0048425
X-0034646Y0049213
X-0040551
X-0019685Y0048425
X0011024Y0050098
X001813Y0047047
X0017421Y0025098
X0022047Y0025197
X0025197
X0028693Y0024653
X002628Y0011417
X0027756Y0007677
X0022982Y0007726
X0021063Y0011417
X0016437Y0011417
X0011319Y0011417
X0006299Y0010827
X0002756Y0012205
X000549Y0018037
Y0020919
X-0002953Y0032087
X0017618Y0003543
X-0053543Y0068898
X-0055593Y0071074
X-0056693Y0085433
X-0061811
T02
X-0018858Y0006398
X-0018858Y0009744
X-0018858Y0013091
Y0016437
Y0019783
Y002313
X-0018858Y0026476
X-0018858Y0029823
X-0013543Y0029823
Y0026476
Y002313
Y0019783
Y0016437
Y0013091
Y0009744
Y0006398
T04
X0055118Y0036378
Y0046378
Y0056378
Y0066378
Y0076378
Y0086378
X-0001417Y0086614
X-0011417
X-0021417
X-0031417
T05
X-0044094Y0057874
X-0034095
X-0024094
T06
X0Y0
X0048425Y-0015748
M30
