G04*
G04 #@! TF.GenerationSoftware,Altium Limited,Altium Designer,23.10.1 (27)*
G04*
G04 Layer_Color=65535*
%FSLAX25Y25*%
%MOIN*%
G70*
G04*
G04 #@! TF.SameCoordinates,51DF8756-C7FE-4A26-B6EC-ED2339CC954E*
G04*
G04*
G04 #@! TF.FilePolarity,Positive*
G04*
G01*
G75*
%ADD10C,0.00787*%
%ADD11C,0.00492*%
D10*
X-221654Y8661D02*
X-220472Y7480D01*
Y7480D02*
Y7480D01*
X-221654Y6299D02*
X-220472Y7480D01*
X-224410D02*
X-220472D01*
X-219685Y37008D02*
X-215748D01*
X-206299Y11417D02*
Y27953D01*
X-229134Y11417D02*
Y27953D01*
Y11417D02*
X-206299D01*
X-211417Y4724D02*
X-209055Y11417D01*
X-218504Y4724D02*
X-211417D01*
X-219109Y11417D02*
X-218504Y4724D01*
X-202067Y52067D02*
X-188091D01*
X-203937Y37106D02*
X-186221D01*
X-185236Y40650D02*
X-185236Y47539D01*
X-186221Y37106D02*
Y39173D01*
X-204921Y40650D02*
X-204921Y47539D01*
X-203937Y37106D02*
Y39173D01*
X-204921Y40650D02*
X-203937D01*
Y39173D02*
Y40650D01*
X-186221D02*
X-185236D01*
X-186221D02*
X-186221Y39173D01*
X-165748Y11417D02*
Y34252D01*
Y24227D02*
X-159055Y23622D01*
X-159055Y16535D01*
X-165748Y14173D02*
X-159055Y16535D01*
X-182283Y11417D02*
X-165748D01*
X-182283Y34252D02*
X-165748Y34252D01*
X-191339Y20866D02*
Y24803D01*
X-162205Y30104D02*
X-162205Y26378D01*
X-161024Y27559D01*
X-163386D02*
X-162205Y26378D01*
D11*
X-225853Y22704D02*
X-226377Y22179D01*
Y21129D01*
X-225853Y20605D01*
X-225328D01*
X-224803Y21129D01*
Y22179D01*
X-224278Y22704D01*
X-223754D01*
X-223229Y22179D01*
Y21129D01*
X-223754Y20605D01*
X-223229Y25852D02*
Y23753D01*
X-225328Y25852D01*
X-225853D01*
X-226377Y25327D01*
Y24278D01*
X-225853Y23753D01*
X-175197Y17191D02*
X-175722Y17716D01*
X-176771D01*
X-177296Y17191D01*
Y16667D01*
X-176771Y16142D01*
X-175722D01*
X-175197Y15617D01*
Y15092D01*
X-175722Y14567D01*
X-176771D01*
X-177296Y15092D01*
X-174147Y14567D02*
X-173098D01*
X-173623D01*
Y17716D01*
X-174147Y17191D01*
X-198293Y45670D02*
Y48818D01*
X-196719D01*
X-196194Y48294D01*
Y47244D01*
X-196719Y46719D01*
X-198293D01*
X-193045Y45670D02*
X-195144D01*
X-193045Y47769D01*
Y48294D01*
X-193570Y48818D01*
X-194620D01*
X-195144Y48294D01*
M02*
