G04*
G04 #@! TF.GenerationSoftware,Altium Limited,Altium Designer,23.10.1 (27)*
G04*
G04 Layer_Color=32896*
%FSLAX25Y25*%
%MOIN*%
G70*
G04*
G04 #@! TF.SameCoordinates,51DF8756-C7FE-4A26-B6EC-ED2339CC954E*
G04*
G04*
G04 #@! TF.FilePolarity,Positive*
G04*
G01*
G75*
%ADD10C,0.00787*%
%ADD11C,0.00492*%
D10*
X-210728Y28445D02*
X-196752D01*
X-212598Y13484D02*
X-194882D01*
X-213583Y17028D02*
Y23917D01*
X-212598Y13484D02*
Y15551D01*
X-193898Y17028D02*
Y23917D01*
X-194882Y13484D02*
Y15551D01*
Y17028D02*
X-193898D01*
X-194882Y15551D02*
Y17028D01*
X-213583Y17028D02*
X-212598D01*
Y15551D02*
Y17028D01*
X-185827Y40550D02*
X-187401Y37402D01*
X-188975Y40550D01*
X-190550Y37402D02*
X-192124D01*
X-191337D01*
Y42125D01*
X-190550Y41337D01*
X-185433Y44882D02*
X-187007D01*
X-186220D01*
Y49605D01*
X-185433D01*
X-190156Y44882D02*
X-191730D01*
X-192517Y45669D01*
Y47243D01*
X-191730Y48030D01*
X-190156D01*
X-189369Y47243D01*
Y45669D01*
X-190156Y44882D01*
X-194092Y48030D02*
Y45669D01*
X-194879Y44882D01*
X-195666Y45669D01*
X-196453Y44882D01*
X-197240Y45669D01*
Y48030D01*
X-201176Y44882D02*
X-199602D01*
X-198815Y45669D01*
Y47243D01*
X-199602Y48030D01*
X-201176D01*
X-201963Y47243D01*
Y46456D01*
X-198815D01*
X-203537Y48030D02*
Y44882D01*
Y46456D01*
X-204325Y47243D01*
X-205112Y48030D01*
X-205899D01*
D11*
X-201444Y22048D02*
Y25196D01*
X-203018D01*
X-203543Y24672D01*
Y23622D01*
X-203018Y23097D01*
X-201444D01*
X-204593Y22048D02*
X-205642D01*
X-205118D01*
Y25196D01*
X-204593Y24672D01*
M02*
