G04*
G04 #@! TF.GenerationSoftware,Altium Limited,Altium Designer,23.10.1 (27)*
G04*
G04 Layer_Physical_Order=2*
G04 Layer_Color=16711680*
%FSLAX25Y25*%
%MOIN*%
G70*
G04*
G04 #@! TF.SameCoordinates,51DF8756-C7FE-4A26-B6EC-ED2339CC954E*
G04*
G04*
G04 #@! TF.FilePolarity,Positive*
G04*
G01*
G75*
%ADD10C,0.00787*%
%ADD14R,0.01575X0.03150*%
%ADD15R,0.01181X0.03150*%
%ADD25C,0.03937*%
%ADD26C,0.02362*%
D10*
X-204331Y20440D02*
Y20866D01*
X-204724Y16535D02*
Y20046D01*
X-204331Y20440D01*
X-202165Y19969D02*
Y23425D01*
X-200787Y24803D01*
Y31890D01*
X-203937Y35039D02*
X-200787Y31890D01*
X-198819Y39764D02*
X-192913Y45669D01*
X-198819Y22441D02*
Y39764D01*
X-200787Y20472D02*
X-198819Y22441D01*
X-200787Y16535D02*
Y20472D01*
X-197244Y36614D02*
X-188583Y45276D01*
X-197244Y20866D02*
Y36614D01*
X-198819Y19291D02*
X-197244Y20866D01*
X-198819Y16535D02*
Y19291D01*
X-208661Y25197D02*
X-208661Y25197D01*
Y16535D02*
Y25197D01*
X-202756Y19379D02*
X-202165Y19969D01*
X-202756Y16535D02*
Y19379D01*
X-206693Y22835D02*
X-203937Y25591D01*
X-206693Y16535D02*
Y22835D01*
D14*
X-212598Y26378D02*
D03*
X-194882D02*
D03*
D15*
X-200787Y16535D02*
D03*
X-202756D02*
D03*
X-204724D02*
D03*
X-198819D02*
D03*
X-206693D02*
D03*
X-208661D02*
D03*
D25*
X-226378Y15354D02*
D03*
X-217717D02*
D03*
Y25197D02*
D03*
X-175394Y44094D02*
D03*
X-170374Y60728D02*
D03*
X-179528Y22835D02*
D03*
X-169685Y22835D02*
D03*
Y31496D02*
D03*
D26*
X-208661Y25197D02*
D03*
X-203937Y25591D02*
D03*
X-204331Y20866D02*
D03*
X-203937Y35039D02*
D03*
X-192913Y45669D02*
D03*
X-188583Y45276D02*
D03*
M02*
