G04*
G04 #@! TF.GenerationSoftware,Altium Limited,Altium Designer,23.10.1 (27)*
G04*
G04 Layer_Color=32896*
%FSLAX25Y25*%
%MOIN*%
G70*
G04*
G04 #@! TF.SameCoordinates,75E589B0-4E0D-4890-912C-9D4B5755E1C0*
G04*
G04*
G04 #@! TF.FilePolarity,Positive*
G04*
G01*
G75*
%ADD20C,0.00394*%
D20*
X269980Y-235236D02*
G03*
X256201Y-221457I-13780J0D01*
G01*
X170374D02*
G03*
X142815Y-249016I0J-27559D01*
G01*
X115256Y-359252D02*
G03*
X142815Y-331693I0J27559D01*
G01*
X139665Y-201772D02*
G03*
X155413Y-186024I0J15748D01*
G01*
X170079Y84646D02*
G03*
X142520Y57087I0J-27559D01*
G01*
X114961Y-44488D02*
G03*
X142520Y-16929I0J27559D01*
G01*
X256201Y-238091D02*
Y-220866D01*
X170374Y-250295D02*
Y-220866D01*
X142224Y-249016D02*
X174311D01*
X108268Y-331693D02*
X123228D01*
X115256Y-359842D02*
Y-326673D01*
X248622Y-384055D02*
X269390D01*
X248622Y-235236D02*
X269390D01*
X249016Y-384055D02*
Y-315648D01*
Y-305218D02*
Y-235236D01*
Y-384055D02*
X250066Y-380906D01*
X247966D02*
X249016Y-384055D01*
X247966Y-238386D02*
X249016Y-235236D01*
X250066Y-238386D01*
X256201Y-220866D02*
Y-207972D01*
X170374Y-220866D02*
Y-207972D01*
X217551Y-208366D02*
X256201D01*
X170374D02*
X207449D01*
X253051Y-207316D02*
X256201Y-208366D01*
X253051Y-209416D02*
X256201Y-208366D01*
X170374D02*
X173524Y-209416D01*
X170374Y-208366D02*
X173524Y-207316D01*
X123228Y-249016D02*
X142224D01*
X123228Y-331693D02*
X142224D01*
X123622Y-286091D02*
Y-249016D01*
Y-331693D02*
Y-296193D01*
X122572Y-252165D02*
X123622Y-249016D01*
X124672Y-252165D01*
X123622Y-331693D02*
X124672Y-328543D01*
X122572D02*
X123622Y-331693D01*
X269980Y-384055D02*
Y-235236D01*
X170374Y-221457D02*
X256201D01*
X142815Y-331693D02*
Y-249016D01*
X-98Y-359252D02*
X115256D01*
Y-376575D02*
Y-359842D01*
X-98Y-376575D02*
Y-359842D01*
X62006Y-376181D02*
X115256D01*
X-98D02*
X51576D01*
X112106Y-375131D02*
X115256Y-376181D01*
X112106Y-377231D02*
X115256Y-376181D01*
X-98D02*
X3051Y-377231D01*
X-98Y-376181D02*
X3051Y-375131D01*
X139665Y-193504D02*
Y-182382D01*
X-98Y-201181D02*
Y-182382D01*
X74211Y-182776D02*
X139665D01*
X-98D02*
X63781D01*
X136516Y-181726D02*
X139665Y-182776D01*
X136516Y-183826D02*
X139665Y-182776D01*
X-98D02*
X3051Y-183826D01*
X-98Y-182776D02*
X3051Y-181726D01*
X138091Y-186024D02*
X141634D01*
X139665Y-194095D02*
Y-184449D01*
X155413Y-186024D02*
Y-176181D01*
X-98Y-201772D02*
X139665D01*
X771654Y-96653D02*
Y-90551D01*
X0Y-96653D02*
Y-90551D01*
X391074Y-90945D02*
X771654D01*
X0D02*
X379004D01*
X768504Y-89895D02*
X771654Y-90945D01*
X768504Y-91995D02*
X771654Y-90945D01*
X0D02*
X3150Y-91995D01*
X0Y-90945D02*
X3150Y-89895D01*
X170079Y51181D02*
Y84055D01*
X142520Y57087D02*
X173819D01*
X109449Y-16929D02*
X144882D01*
X114961Y-42126D02*
Y-14567D01*
X170079Y72835D02*
Y84055D01*
X142520Y57677D02*
Y73622D01*
X159743Y73228D02*
X170079D01*
X142520D02*
X151281D01*
X166929Y74278D02*
X170079Y73228D01*
X166929Y72179D02*
X170079Y73228D01*
X142520D02*
X145669Y72179D01*
X142520Y73228D02*
X145669Y74278D01*
X142520Y-32677D02*
Y-17520D01*
X114961Y-43898D02*
Y-31890D01*
X132184Y-32283D02*
X142520D01*
X114961D02*
X123722D01*
X139370Y-31234D02*
X142520Y-32283D01*
X139370Y-33333D02*
X142520Y-32283D01*
X114961D02*
X118110Y-33333D01*
X114961Y-32283D02*
X118110Y-31234D01*
X229528Y75197D02*
Y84055D01*
X170079Y75197D02*
Y84055D01*
X203903Y75590D02*
X229528D01*
X170079D02*
X194129D01*
X226378Y76640D02*
X229528Y75590D01*
X226378Y74541D02*
X229528Y75590D01*
X170079D02*
X173228Y74541D01*
X170079Y75590D02*
X173228Y76640D01*
X143110Y57087D02*
X151969D01*
X143110Y-16929D02*
X151969D01*
X151575Y24342D02*
Y57087D01*
Y-16929D02*
Y14240D01*
X150525Y53937D02*
X151575Y57087D01*
X152625Y53937D01*
X151575Y-16929D02*
X152625Y-13780D01*
X150525D02*
X151575Y-16929D01*
X114961Y-56299D02*
Y-45079D01*
X0Y-56299D02*
Y-45079D01*
X61908Y-55905D02*
X114961D01*
X0D02*
X51478D01*
X111811Y-54856D02*
X114961Y-55905D01*
X111811Y-56955D02*
X114961Y-55905D01*
X0D02*
X3150Y-56955D01*
X0Y-55905D02*
X3150Y-54856D01*
X430315Y85236D02*
Y94095D01*
X229528Y86811D02*
Y94095D01*
X334185Y93701D02*
X430315D01*
X229528D02*
X324083D01*
X427165Y94751D02*
X430315Y93701D01*
X427165Y92651D02*
X430315Y93701D01*
X229528D02*
X232677Y92651D01*
X229528Y93701D02*
X232677Y94751D01*
X170079Y84646D02*
X229528D01*
X229528Y86221D02*
Y91732D01*
X229528Y84646D02*
X430315D01*
X142520Y-16929D02*
Y57087D01*
X0Y-44488D02*
X114961D01*
X33120Y65010D02*
X42864Y74754D01*
X40994Y36860D02*
X50738Y46604D01*
X35039Y54429D02*
X48819D01*
X19882Y73819D02*
X41339D01*
X19882Y37795D02*
X41339D01*
X20276Y59087D02*
Y73819D01*
Y37795D02*
Y50953D01*
X19226Y70669D02*
X20276Y73819D01*
X21326Y70669D01*
X20276Y37795D02*
X21326Y40945D01*
X19226D02*
X20276Y37795D01*
X-98Y74410D02*
Y85925D01*
X41929Y74410D02*
Y85925D01*
X-98Y85532D02*
X15077D01*
X25179D02*
X41929D01*
X-98D02*
X3051Y84482D01*
X-98Y85532D02*
X3051Y86581D01*
X38780D02*
X41929Y85532D01*
X38780Y84482D02*
X41929Y85532D01*
Y37795D02*
X83957D01*
X41929D02*
Y73819D01*
X-98D02*
X41929D01*
X248753Y-314861D02*
X248426Y-314533D01*
Y-313877D01*
X248753Y-313549D01*
X249081D01*
X249410Y-313877D01*
Y-314205D01*
Y-313877D01*
X249737Y-313549D01*
X250065D01*
X250393Y-313877D01*
Y-314533D01*
X250065Y-314861D01*
X248426Y-312893D02*
Y-311581D01*
X248753D01*
X250065Y-312893D01*
X250393D01*
Y-310925D02*
X250065D01*
Y-310597D01*
X250393D01*
Y-310925D01*
X248753Y-309285D02*
X248426Y-308957D01*
Y-308301D01*
X248753Y-307973D01*
X249081D01*
X249410Y-308301D01*
X249737Y-307973D01*
X250065D01*
X250393Y-308301D01*
Y-308957D01*
X250065Y-309285D01*
X249737D01*
X249410Y-308957D01*
X249081Y-309285D01*
X248753D01*
X249410Y-308957D02*
Y-308301D01*
X248753Y-307317D02*
X248426Y-306989D01*
Y-306333D01*
X248753Y-306005D01*
X250065D01*
X250393Y-306333D01*
Y-306989D01*
X250065Y-307317D01*
X248753D01*
X209548Y-209744D02*
X208236D01*
X209548Y-208432D01*
Y-208104D01*
X209220Y-207776D01*
X208564D01*
X208236Y-208104D01*
X210204Y-209744D02*
X210860D01*
X210532D01*
Y-207776D01*
X210204Y-208104D01*
X211844Y-209744D02*
Y-209416D01*
X212172D01*
Y-209744D01*
X211844D01*
X213484Y-208104D02*
X213812Y-207776D01*
X214468D01*
X214796Y-208104D01*
Y-208432D01*
X214468Y-208760D01*
X214796Y-209088D01*
Y-209416D01*
X214468Y-209744D01*
X213812D01*
X213484Y-209416D01*
Y-209088D01*
X213812Y-208760D01*
X213484Y-208432D01*
Y-208104D01*
X213812Y-208760D02*
X214468D01*
X215452Y-208104D02*
X215780Y-207776D01*
X216436D01*
X216764Y-208104D01*
Y-209416D01*
X216436Y-209744D01*
X215780D01*
X215452Y-209416D01*
Y-208104D01*
X125000Y-294093D02*
Y-295405D01*
X123688Y-294093D01*
X123360D01*
X123032Y-294422D01*
Y-295077D01*
X123360Y-295405D01*
X125000Y-293438D02*
Y-292782D01*
Y-293110D01*
X123032D01*
X123360Y-293438D01*
X125000Y-291798D02*
X124672D01*
Y-291470D01*
X125000D01*
Y-291798D01*
X123360Y-290158D02*
X123032Y-289830D01*
Y-289174D01*
X123360Y-288846D01*
X124672D01*
X125000Y-289174D01*
Y-289830D01*
X124672Y-290158D01*
X123360D01*
Y-288190D02*
X123032Y-287862D01*
Y-287206D01*
X123360Y-286878D01*
X124672D01*
X125000Y-287206D01*
Y-287862D01*
X124672Y-288190D01*
X123360D01*
X53676Y-377559D02*
X52364D01*
X53676Y-376247D01*
Y-375919D01*
X53348Y-375591D01*
X52692D01*
X52364Y-375919D01*
X54331Y-377231D02*
X54659Y-377559D01*
X55315D01*
X55643Y-377231D01*
Y-375919D01*
X55315Y-375591D01*
X54659D01*
X54331Y-375919D01*
Y-376247D01*
X54659Y-376575D01*
X55643D01*
X56299Y-377559D02*
Y-377231D01*
X56627D01*
Y-377559D01*
X56299D01*
X57939Y-375919D02*
X58267Y-375591D01*
X58923D01*
X59251Y-375919D01*
Y-376247D01*
X58923Y-376575D01*
X58595D01*
X58923D01*
X59251Y-376903D01*
Y-377231D01*
X58923Y-377559D01*
X58267D01*
X57939Y-377231D01*
X59907Y-375919D02*
X60235Y-375591D01*
X60891D01*
X61219Y-375919D01*
Y-377231D01*
X60891Y-377559D01*
X60235D01*
X59907Y-377231D01*
Y-375919D01*
X64568Y-182513D02*
X64896Y-182185D01*
X65552D01*
X65880Y-182513D01*
Y-182841D01*
X65552Y-183169D01*
X65224D01*
X65552D01*
X65880Y-183497D01*
Y-183825D01*
X65552Y-184153D01*
X64896D01*
X64568Y-183825D01*
X67848Y-182185D02*
X66536D01*
Y-183169D01*
X67192Y-182841D01*
X67520D01*
X67848Y-183169D01*
Y-183825D01*
X67520Y-184153D01*
X66864D01*
X66536Y-183825D01*
X68504Y-184153D02*
Y-183825D01*
X68832D01*
Y-184153D01*
X68504D01*
X71456Y-182185D02*
X70144D01*
Y-183169D01*
X70800Y-182841D01*
X71128D01*
X71456Y-183169D01*
Y-183825D01*
X71128Y-184153D01*
X70472D01*
X70144Y-183825D01*
X72112Y-182513D02*
X72440Y-182185D01*
X73096D01*
X73424Y-182513D01*
Y-183825D01*
X73096Y-184153D01*
X72440D01*
X72112Y-183825D01*
Y-182513D01*
X379792Y-92322D02*
X380448D01*
X380120D01*
Y-90355D01*
X379792Y-90683D01*
X381432Y-91995D02*
X381760Y-92322D01*
X382416D01*
X382744Y-91995D01*
Y-90683D01*
X382416Y-90355D01*
X381760D01*
X381432Y-90683D01*
Y-91011D01*
X381760Y-91339D01*
X382744D01*
X384711Y-90355D02*
X384055Y-90683D01*
X383400Y-91339D01*
Y-91995D01*
X383728Y-92322D01*
X384383D01*
X384711Y-91995D01*
Y-91667D01*
X384383Y-91339D01*
X383400D01*
X385367Y-92322D02*
Y-91995D01*
X385695D01*
Y-92322D01*
X385367D01*
X387007Y-90683D02*
X387335Y-90355D01*
X387991D01*
X388319Y-90683D01*
Y-91995D01*
X387991Y-92322D01*
X387335D01*
X387007Y-91995D01*
Y-90683D01*
X388975D02*
X389303Y-90355D01*
X389959D01*
X390287Y-90683D01*
Y-91995D01*
X389959Y-92322D01*
X389303D01*
X388975Y-91995D01*
Y-90683D01*
X152068Y73819D02*
X153380D01*
Y73491D01*
X152068Y72179D01*
Y71851D01*
X154036D02*
Y72179D01*
X154364D01*
Y71851D01*
X154036D01*
X155676Y73491D02*
X156004Y73819D01*
X156660D01*
X156988Y73491D01*
Y72179D01*
X156660Y71851D01*
X156004D01*
X155676Y72179D01*
Y73491D01*
X157644D02*
X157972Y73819D01*
X158628D01*
X158956Y73491D01*
Y72179D01*
X158628Y71851D01*
X157972D01*
X157644Y72179D01*
Y73491D01*
X124509Y-31693D02*
X125821D01*
Y-32021D01*
X124509Y-33333D01*
Y-33661D01*
X126477D02*
Y-33333D01*
X126805D01*
Y-33661D01*
X126477D01*
X128117Y-32021D02*
X128445Y-31693D01*
X129101D01*
X129429Y-32021D01*
Y-33333D01*
X129101Y-33661D01*
X128445D01*
X128117Y-33333D01*
Y-32021D01*
X130085D02*
X130413Y-31693D01*
X131069D01*
X131396Y-32021D01*
Y-33333D01*
X131069Y-33661D01*
X130413D01*
X130085Y-33333D01*
Y-32021D01*
X194916Y74213D02*
X195572D01*
X195244D01*
Y76181D01*
X194916Y75853D01*
X197868Y76181D02*
X196556D01*
Y75197D01*
X197212Y75525D01*
X197540D01*
X197868Y75197D01*
Y74541D01*
X197540Y74213D01*
X196884D01*
X196556Y74541D01*
X198524Y74213D02*
Y74541D01*
X198852D01*
Y74213D01*
X198524D01*
X200164D02*
X200820D01*
X200492D01*
Y76181D01*
X200164Y75853D01*
X201804D02*
X202132Y76181D01*
X202787D01*
X203116Y75853D01*
Y74541D01*
X202787Y74213D01*
X202132D01*
X201804Y74541D01*
Y75853D01*
X152952Y15028D02*
Y15684D01*
Y15356D01*
X150985D01*
X151312Y15028D01*
Y16668D02*
X150985Y16996D01*
Y17651D01*
X151312Y17979D01*
X151640D01*
X151969Y17651D01*
X152296Y17979D01*
X152624D01*
X152952Y17651D01*
Y16996D01*
X152624Y16668D01*
X152296D01*
X151969Y16996D01*
X151640Y16668D01*
X151312D01*
X151969Y16996D02*
Y17651D01*
X152952Y18635D02*
X152624D01*
Y18963D01*
X152952D01*
Y18635D01*
X151312Y20275D02*
X150985Y20603D01*
Y21259D01*
X151312Y21587D01*
X151640D01*
X151969Y21259D01*
X152296Y21587D01*
X152624D01*
X152952Y21259D01*
Y20603D01*
X152624Y20275D01*
X152296D01*
X151969Y20603D01*
X151640Y20275D01*
X151312D01*
X151969Y20603D02*
Y21259D01*
X151312Y22243D02*
X150985Y22571D01*
Y23227D01*
X151312Y23555D01*
X152624D01*
X152952Y23227D01*
Y22571D01*
X152624Y22243D01*
X151312D01*
X53577Y-57283D02*
X52265D01*
X53577Y-55971D01*
Y-55643D01*
X53249Y-55315D01*
X52593D01*
X52265Y-55643D01*
X54233Y-56955D02*
X54561Y-57283D01*
X55217D01*
X55545Y-56955D01*
Y-55643D01*
X55217Y-55315D01*
X54561D01*
X54233Y-55643D01*
Y-55971D01*
X54561Y-56299D01*
X55545D01*
X56201Y-57283D02*
Y-56955D01*
X56529D01*
Y-57283D01*
X56201D01*
X59153D02*
X57841D01*
X59153Y-55971D01*
Y-55643D01*
X58825Y-55315D01*
X58169D01*
X57841Y-55643D01*
X59809D02*
X60137Y-55315D01*
X60793D01*
X61121Y-55643D01*
Y-56955D01*
X60793Y-57283D01*
X60137D01*
X59809Y-56955D01*
Y-55643D01*
X326182Y94291D02*
X324870D01*
Y93307D01*
X325526Y93635D01*
X325854D01*
X326182Y93307D01*
Y92651D01*
X325854Y92323D01*
X325198D01*
X324870Y92651D01*
X326838Y92323D02*
X327494D01*
X327166D01*
Y94291D01*
X326838Y93963D01*
X328478Y92323D02*
Y92651D01*
X328806D01*
Y92323D01*
X328478D01*
X330118Y93963D02*
X330446Y94291D01*
X331102D01*
X331430Y93963D01*
Y92651D01*
X331102Y92323D01*
X330446D01*
X330118Y92651D01*
Y93963D01*
X332086D02*
X332414Y94291D01*
X333070D01*
X333398Y93963D01*
Y92651D01*
X333070Y92323D01*
X332414D01*
X332086Y92651D01*
Y93963D01*
X223622Y98293D02*
Y96325D01*
X224606D01*
X224934Y96653D01*
Y96981D01*
Y97309D01*
X224606Y97637D01*
X223622D01*
X226574Y96325D02*
X225918D01*
X225590Y96653D01*
Y97309D01*
X225918Y97637D01*
X226574D01*
X226902Y97309D01*
Y96981D01*
X225590D01*
X227558Y96325D02*
Y97637D01*
X228542D01*
X228870Y97309D01*
Y96325D01*
X230837Y98293D02*
Y96325D01*
X229854D01*
X229526Y96653D01*
Y97309D01*
X229854Y97637D01*
X230837D01*
X233461Y95669D02*
Y97637D01*
X234445D01*
X234773Y97309D01*
Y96653D01*
X234445Y96325D01*
X233461D01*
X235757D02*
X236413D01*
X236741Y96653D01*
Y97309D01*
X236413Y97637D01*
X235757D01*
X235429Y97309D01*
Y96653D01*
X235757Y96325D01*
X237397D02*
X238053D01*
X237725D01*
Y97637D01*
X237397D01*
X239037Y96325D02*
Y97637D01*
X240021D01*
X240349Y97309D01*
Y96325D01*
X241333Y97965D02*
Y97637D01*
X241005D01*
X241661D01*
X241333D01*
Y96653D01*
X241661Y96325D01*
X21325Y51740D02*
X21653Y52068D01*
Y52724D01*
X21325Y53052D01*
X20013D01*
X19685Y52724D01*
Y52068D01*
X20013Y51740D01*
X20341D01*
X20669Y52068D01*
Y53052D01*
X21653Y53708D02*
X21325D01*
Y54036D01*
X21653D01*
Y53708D01*
Y55348D02*
Y56004D01*
Y55676D01*
X19685D01*
X20013Y55348D01*
X19685Y58299D02*
Y56988D01*
X20669D01*
X20341Y57644D01*
Y57972D01*
X20669Y58299D01*
X21325D01*
X21653Y57972D01*
Y57315D01*
X21325Y56988D01*
X15864Y84154D02*
X16520D01*
X16192D01*
Y86122D01*
X15864Y85794D01*
X17504D02*
X17832Y86122D01*
X18488D01*
X18816Y85794D01*
Y84482D01*
X18488Y84154D01*
X17832D01*
X17504Y84482D01*
Y85794D01*
X19472Y84154D02*
Y84482D01*
X19800D01*
Y84154D01*
X19472D01*
X22424Y86122D02*
X21768Y85794D01*
X21112Y85138D01*
Y84482D01*
X21440Y84154D01*
X22096D01*
X22424Y84482D01*
Y84810D01*
X22096Y85138D01*
X21112D01*
X23080Y85794D02*
X23408Y86122D01*
X24064D01*
X24392Y85794D01*
Y85466D01*
X24064Y85138D01*
X24392Y84810D01*
Y84482D01*
X24064Y84154D01*
X23408D01*
X23080Y84482D01*
Y84810D01*
X23408Y85138D01*
X23080Y85466D01*
Y85794D01*
X23408Y85138D02*
X24064D01*
M02*
