G04*
G04 #@! TF.GenerationSoftware,Altium Limited,Altium Designer,23.10.1 (27)*
G04*
G04 Layer_Color=8421504*
%FSLAX25Y25*%
%MOIN*%
G70*
G04*
G04 #@! TF.SameCoordinates,75E589B0-4E0D-4890-912C-9D4B5755E1C0*
G04*
G04*
G04 #@! TF.FilePolarity,Positive*
G04*
G01*
G75*
%ADD12R,0.05906X0.01181*%
%ADD13R,0.01181X0.05906*%
D12*
X2953Y-364173D02*
D03*
Y-362205D02*
D03*
Y-360236D02*
D03*
Y-358268D02*
D03*
Y-356299D02*
D03*
Y-354331D02*
D03*
Y-206693D02*
D03*
Y-204724D02*
D03*
Y-202756D02*
D03*
Y-200787D02*
D03*
X2953Y-198819D02*
D03*
Y-196850D02*
D03*
X768701Y-137795D02*
D03*
Y-139764D02*
D03*
Y-141732D02*
D03*
Y-143701D02*
D03*
Y-145669D02*
D03*
Y-147638D02*
D03*
Y-135827D02*
D03*
Y-133858D02*
D03*
Y-131890D02*
D03*
Y-129921D02*
D03*
Y-127953D02*
D03*
Y-125984D02*
D03*
Y-124016D02*
D03*
X768701Y-122047D02*
D03*
X768701Y-120079D02*
D03*
Y-118110D02*
D03*
Y-116142D02*
D03*
Y-114173D02*
D03*
Y-112205D02*
D03*
Y-110236D02*
D03*
Y-108268D02*
D03*
Y-106299D02*
D03*
Y-104331D02*
D03*
Y-102362D02*
D03*
Y-100394D02*
D03*
Y-98425D02*
D03*
X2953Y-108268D02*
D03*
Y-106299D02*
D03*
Y-104331D02*
D03*
Y-102362D02*
D03*
Y-100394D02*
D03*
Y-98425D02*
D03*
Y-110236D02*
D03*
Y-112205D02*
D03*
Y-114173D02*
D03*
Y-116142D02*
D03*
Y-118110D02*
D03*
Y-120079D02*
D03*
Y-122047D02*
D03*
Y-124016D02*
D03*
Y-125984D02*
D03*
Y-127953D02*
D03*
Y-129921D02*
D03*
Y-131890D02*
D03*
Y-133858D02*
D03*
Y-135827D02*
D03*
Y-137795D02*
D03*
Y-139764D02*
D03*
Y-141732D02*
D03*
Y-143701D02*
D03*
Y-145669D02*
D03*
Y-147638D02*
D03*
Y68898D02*
D03*
Y70866D02*
D03*
Y72835D02*
D03*
Y74803D02*
D03*
Y76772D02*
D03*
Y78740D02*
D03*
X81004Y32874D02*
D03*
Y34843D02*
D03*
Y36811D02*
D03*
Y38780D02*
D03*
Y40748D02*
D03*
Y42717D02*
D03*
X2953Y108268D02*
D03*
Y110236D02*
D03*
Y112205D02*
D03*
Y114173D02*
D03*
Y116142D02*
D03*
Y118110D02*
D03*
X237205Y108268D02*
D03*
Y110236D02*
D03*
Y112205D02*
D03*
Y114173D02*
D03*
Y116142D02*
D03*
Y118110D02*
D03*
X2953Y-49409D02*
D03*
Y-47441D02*
D03*
Y-45472D02*
D03*
Y-43504D02*
D03*
Y-41535D02*
D03*
Y-39567D02*
D03*
X427362Y79724D02*
D03*
Y81693D02*
D03*
Y83661D02*
D03*
Y85630D02*
D03*
Y87598D02*
D03*
Y89567D02*
D03*
X2953Y-80709D02*
D03*
Y-78740D02*
D03*
Y-76772D02*
D03*
Y-74803D02*
D03*
Y-72835D02*
D03*
Y-70866D02*
D03*
X402559Y-80709D02*
D03*
Y-78740D02*
D03*
Y-76772D02*
D03*
Y-74803D02*
D03*
Y-72835D02*
D03*
Y-70866D02*
D03*
D13*
X274902Y-381102D02*
D03*
X272933D02*
D03*
X270965D02*
D03*
X268996D02*
D03*
X267028D02*
D03*
X265059D02*
D03*
X150492Y-179134D02*
D03*
X152461D02*
D03*
X154429D02*
D03*
X156398D02*
D03*
X158366D02*
D03*
X160335D02*
D03*
M02*
