G04*
G04 #@! TF.GenerationSoftware,Altium Limited,Altium Designer,23.10.1 (27)*
G04*
G04 Layer_Physical_Order=1*
G04 Layer_Color=255*
%FSLAX25Y25*%
%MOIN*%
G70*
G04*
G04 #@! TF.SameCoordinates,75E589B0-4E0D-4890-912C-9D4B5755E1C0*
G04*
G04*
G04 #@! TF.FilePolarity,Positive*
G04*
G01*
G75*
%ADD10C,0.01181*%
%ADD12R,0.05906X0.01181*%
%ADD13R,0.01181X0.05906*%
%ADD17C,0.01000*%
D10*
X265059Y-235236D02*
G03*
X256201Y-226378I-8858J0D01*
G01*
X274902Y-235236D02*
G03*
X256201Y-216535I-18701J0D01*
G01*
X272933Y-235236D02*
G03*
X256201Y-218504I-16732J0D01*
G01*
X270965Y-235236D02*
G03*
X256201Y-220472I-14764J0D01*
G01*
X268996Y-235236D02*
G03*
X256201Y-222441I-12795J0D01*
G01*
X267028Y-235236D02*
G03*
X256201Y-224410I-10827J0D01*
G01*
X170374Y-226378D02*
G03*
X147736Y-249016I0J-22638D01*
G01*
X170374Y-216535D02*
G03*
X137894Y-249016I0J-32480D01*
G01*
X170374Y-222441D02*
G03*
X143799Y-249016I0J-26575D01*
G01*
X170374Y-218504D02*
G03*
X139862Y-249016I0J-30512D01*
G01*
X170374Y-220472D02*
G03*
X141831Y-249016I0J-28543D01*
G01*
X170374Y-224410D02*
G03*
X145768Y-249016I0J-24606D01*
G01*
X115256Y-354331D02*
G03*
X137894Y-331693I0J22638D01*
G01*
X115256Y-356299D02*
G03*
X139862Y-331693I0J24606D01*
G01*
X115256Y-360236D02*
G03*
X143799Y-331693I0J28543D01*
G01*
X115256Y-362205D02*
G03*
X145768Y-331693I0J30512D01*
G01*
X115256Y-364173D02*
G03*
X147736Y-331693I0J32480D01*
G01*
X115256Y-358268D02*
G03*
X141831Y-331693I0J26575D01*
G01*
X139665Y-206693D02*
G03*
X160335Y-186024I0J20669D01*
G01*
X139665Y-204724D02*
G03*
X158366Y-186024I0J18701D01*
G01*
X139665Y-202756D02*
G03*
X156398Y-186024I0J16732D01*
G01*
X139665Y-200787D02*
G03*
X154429Y-186024I0J14764D01*
G01*
X139665Y-198819D02*
G03*
X152461Y-186024I0J12795D01*
G01*
X139665Y-196850D02*
G03*
X150492Y-186024I0J10827D01*
G01*
X170079Y85630D02*
G03*
X141535Y57087I0J-28543D01*
G01*
X114961Y-43504D02*
G03*
X141535Y-16929I0J26575D01*
G01*
X170079Y89567D02*
G03*
X137598Y57087I0J-32480D01*
G01*
X114961Y-39567D02*
G03*
X137598Y-16929I0J22638D01*
G01*
X170079Y79724D02*
G03*
X147441Y57087I0J-22638D01*
G01*
X114961Y-49409D02*
G03*
X147441Y-16929I0J32480D01*
G01*
X170079Y81693D02*
G03*
X145473Y57087I0J-24606D01*
G01*
X114961Y-47441D02*
G03*
X145473Y-16929I0J30512D01*
G01*
X170079Y83661D02*
G03*
X143504Y57087I0J-26575D01*
G01*
X114961Y-45472D02*
G03*
X143504Y-16929I0J28543D01*
G01*
X170079Y87598D02*
G03*
X139567Y57087I0J-30512D01*
G01*
X114961Y-41535D02*
G03*
X139567Y-16929I0J24606D01*
G01*
X274902Y-381102D02*
Y-235236D01*
X272933Y-381102D02*
Y-235236D01*
X270965Y-381102D02*
Y-235236D01*
X268996Y-381102D02*
Y-235236D01*
X267028Y-381102D02*
Y-235236D01*
X265059Y-235236D02*
X265059Y-235236D01*
X265059Y-381102D02*
Y-235236D01*
X170374Y-226378D02*
X256201D01*
X170374Y-224410D02*
X256201D01*
X170374Y-222441D02*
X256201D01*
X170374Y-220472D02*
X256201D01*
X170374Y-218504D02*
X256201D01*
X170374Y-216535D02*
X256201D01*
X147736Y-331693D02*
Y-249016D01*
X145768Y-331693D02*
Y-249016D01*
X143799Y-331693D02*
Y-249016D01*
X141831Y-331693D02*
Y-249016D01*
X139862Y-331693D02*
Y-249016D01*
X137894Y-331693D02*
Y-249016D01*
X2953Y-364173D02*
X115256D01*
X2953Y-362205D02*
X115256D01*
X2953Y-360236D02*
X115256D01*
X2953Y-358268D02*
X115256D01*
X2953Y-356299D02*
X115256D01*
Y-354331D02*
X115256Y-354331D01*
X2953Y-354331D02*
X115256D01*
X764157Y-104543D02*
Y-104118D01*
Y-102165D01*
Y-104543D02*
Y-104118D01*
X759744Y-102165D02*
X764157D01*
X759738Y-102165D02*
X764157D01*
Y-104118D02*
Y-102165D01*
X763356D02*
X764157Y-102967D01*
Y-106512D02*
Y-106087D01*
X756675Y-102165D02*
X764157Y-109648D01*
Y-106512D02*
Y-106087D01*
Y-106512D02*
Y-106087D01*
Y-104543D02*
Y-104118D01*
X760015Y-102165D02*
X764157Y-106307D01*
Y-106087D02*
Y-104543D01*
Y-106087D02*
Y-104543D01*
X616424Y-118307D02*
X632566Y-102165D01*
X616368D02*
X632510Y-118307D01*
X753334Y-102165D02*
X764157Y-112989D01*
X749993Y-102165D02*
X764157Y-116329D01*
X609743Y-118307D02*
X625884Y-102165D01*
X609687D02*
X625828Y-118307D01*
X613083D02*
X629225Y-102165D01*
X613027D02*
X629169Y-118307D01*
X626446D02*
X642588Y-102165D01*
X626390D02*
X642532Y-118307D01*
X629786D02*
X645928Y-102165D01*
X629731D02*
X645872Y-118307D01*
X619765D02*
X635906Y-102165D01*
X619709D02*
X635850Y-118307D01*
X623105D02*
X639247Y-102165D01*
X623049D02*
X639191Y-118307D01*
X764157Y-113961D02*
Y-112417D01*
Y-114386D02*
Y-113961D01*
Y-114386D02*
Y-113961D01*
Y-116354D02*
Y-115929D01*
Y-116354D02*
Y-115929D01*
Y-114386D01*
Y-113961D01*
Y-116354D02*
Y-115929D01*
Y-114386D01*
Y-110024D02*
Y-108480D01*
Y-108055D01*
Y-110449D02*
Y-110024D01*
Y-108480D01*
Y-108055D02*
Y-106512D01*
Y-108055D02*
Y-106512D01*
Y-108480D02*
Y-108055D01*
Y-108480D02*
Y-108055D01*
Y-112417D02*
Y-111992D01*
Y-112417D02*
Y-111992D01*
Y-113961D02*
Y-112417D01*
Y-111992D01*
Y-110449D02*
Y-110024D01*
Y-110449D02*
Y-110024D01*
Y-111992D02*
Y-110449D01*
Y-111992D02*
Y-110449D01*
X536192Y-102165D02*
X552334Y-118307D01*
X536248D02*
X552390Y-102165D01*
X532907Y-118307D02*
X549049Y-102165D01*
X539589Y-118307D02*
X555730Y-102165D01*
X539533D02*
X555675Y-118307D01*
X529511Y-102165D02*
X545653Y-118307D01*
X526226D02*
X542368Y-102165D01*
X532852D02*
X548993Y-118307D01*
X529567D02*
X545708Y-102165D01*
X549611Y-118307D02*
X565752Y-102165D01*
X549555D02*
X565697Y-118307D01*
X552951D02*
X569093Y-102165D01*
X552895D02*
X569037Y-118307D01*
X542929D02*
X559071Y-102165D01*
X542873D02*
X559015Y-118307D01*
X546270D02*
X562412Y-102165D01*
X546214D02*
X562356Y-118307D01*
X509467Y-102165D02*
X525609Y-118307D01*
X506182D02*
X522324Y-102165D01*
X512808D02*
X528949Y-118307D01*
X509523D02*
X525665Y-102165D01*
X502786D02*
X518927Y-118307D01*
X469435D02*
X485577Y-102165D01*
X506126D02*
X522268Y-118307D01*
X502841D02*
X518983Y-102165D01*
X522830D02*
X538971Y-118307D01*
X519545D02*
X535686Y-102165D01*
X526170D02*
X542312Y-118307D01*
X522885D02*
X539027Y-102165D01*
X516148D02*
X532290Y-118307D01*
X512863D02*
X529005Y-102165D01*
X519489D02*
X535631Y-118307D01*
X516204D02*
X532346Y-102165D01*
X589699Y-118307D02*
X605840Y-102165D01*
X589643D02*
X605785Y-118307D01*
X593039D02*
X609181Y-102165D01*
X592983D02*
X609125Y-118307D01*
X583017D02*
X599159Y-102165D01*
X582961D02*
X599103Y-118307D01*
X586358D02*
X602500Y-102165D01*
X586302D02*
X602444Y-118307D01*
X603061D02*
X619203Y-102165D01*
X603005D02*
X619147Y-118307D01*
X606402D02*
X622544Y-102165D01*
X606346D02*
X622488Y-118307D01*
X596380D02*
X612522Y-102165D01*
X596324D02*
X612466Y-118307D01*
X599721D02*
X615862Y-102165D01*
X599665D02*
X615806Y-118307D01*
X562973D02*
X579115Y-102165D01*
X562918D02*
X579059Y-118307D01*
X566314D02*
X582456Y-102165D01*
X566258D02*
X582400Y-118307D01*
X556292D02*
X572434Y-102165D01*
X556236D02*
X572378Y-118307D01*
X559633D02*
X575774Y-102165D01*
X559577D02*
X575718Y-118307D01*
X576336D02*
X592478Y-102165D01*
X576280D02*
X592422Y-118307D01*
X579677D02*
X595818Y-102165D01*
X579621D02*
X595762Y-118307D01*
X569655D02*
X585796Y-102165D01*
X569599D02*
X585741Y-118307D01*
X572995D02*
X589137Y-102165D01*
X572939D02*
X589081Y-118307D01*
X689918D02*
X706060Y-102165D01*
X693203D02*
X709345Y-118307D01*
X689863Y-102165D02*
X706004Y-118307D01*
X696544Y-102165D02*
X712686Y-118307D01*
X693259D02*
X709401Y-102165D01*
X683237Y-118307D02*
X699379Y-102165D01*
X683181D02*
X699323Y-118307D01*
X686578D02*
X702719Y-102165D01*
X686522D02*
X702664Y-118307D01*
X706566Y-102165D02*
X722708Y-118307D01*
X703281D02*
X719423Y-102165D01*
X709906D02*
X726048Y-118307D01*
X706622D02*
X722763Y-102165D01*
X699885D02*
X716026Y-118307D01*
X696600D02*
X712741Y-102165D01*
X703225D02*
X719367Y-118307D01*
X699940D02*
X716082Y-102165D01*
X663193Y-118307D02*
X679335Y-102165D01*
X663137D02*
X679279Y-118307D01*
X666534D02*
X682676Y-102165D01*
X666478D02*
X682620Y-118307D01*
X656512D02*
X672653Y-102165D01*
X656456D02*
X672598Y-118307D01*
X659853D02*
X675994Y-102165D01*
X659797D02*
X675938Y-118307D01*
X676556D02*
X692697Y-102165D01*
X676500D02*
X692642Y-118307D01*
X679896D02*
X696038Y-102165D01*
X679841D02*
X695982Y-118307D01*
X669874D02*
X686016Y-102165D01*
X669819D02*
X685960Y-118307D01*
X673215D02*
X689357Y-102165D01*
X673159D02*
X689301Y-118307D01*
X746653Y-102165D02*
X762794Y-118307D01*
X743369D02*
X759511Y-102165D01*
X750050Y-118307D02*
X764157Y-104200D01*
X746710Y-118307D02*
X762851Y-102165D01*
X739972Y-102165D02*
X756114Y-118307D01*
X736688D02*
X752829Y-102165D01*
X743313D02*
X759455Y-118307D01*
X740028D02*
X756170Y-102165D01*
X764157Y-118307D02*
Y-116354D01*
X760072Y-118307D02*
X764157Y-114222D01*
Y-118307D02*
Y-116354D01*
X763413Y-118307D02*
X764157Y-117562D01*
X756732Y-118307D02*
X764157Y-110881D01*
X753391Y-118307D02*
X764157Y-107541D01*
X759744Y-118307D02*
X764157D01*
X759744D02*
X764157D01*
X719929Y-102165D02*
X736070Y-118307D01*
X716644D02*
X732785Y-102165D01*
X723269D02*
X739411Y-118307D01*
X719984D02*
X736126Y-102165D01*
X713247D02*
X729389Y-118307D01*
X709962D02*
X726104Y-102165D01*
X716588D02*
X732730Y-118307D01*
X713303D02*
X729445Y-102165D01*
X733291D02*
X749433Y-118307D01*
X730006D02*
X746148Y-102165D01*
X736632D02*
X752774Y-118307D01*
X733347D02*
X749489Y-102165D01*
X726610D02*
X742752Y-118307D01*
X723325D02*
X739467Y-102165D01*
X729951D02*
X746092Y-118307D01*
X726666D02*
X742807Y-102165D01*
X452676D02*
X468817Y-118307D01*
X449391D02*
X465533Y-102165D01*
X456016D02*
X472158Y-118307D01*
X452732D02*
X468873Y-102165D01*
X445994D02*
X462136Y-118307D01*
X442710D02*
X458851Y-102165D01*
X449335D02*
X465477Y-118307D01*
X446050D02*
X462192Y-102165D01*
X466038D02*
X482180Y-118307D01*
X462753D02*
X478895Y-102165D01*
X469379D02*
X485521Y-118307D01*
X466094D02*
X482236Y-102165D01*
X459357D02*
X475499Y-118307D01*
X456072D02*
X472214Y-102165D01*
X462698D02*
X478839Y-118307D01*
X459413D02*
X475555Y-102165D01*
X425950D02*
X442092Y-118307D01*
X422666D02*
X438807Y-102165D01*
X429291D02*
X445433Y-118307D01*
X426006D02*
X442148Y-102165D01*
X419269D02*
X435411Y-118307D01*
X415984D02*
X432126Y-102165D01*
X422610D02*
X438752Y-118307D01*
X419325D02*
X435467Y-102165D01*
X439313D02*
X455455Y-118307D01*
X436028D02*
X452170Y-102165D01*
X442654D02*
X458795Y-118307D01*
X439369D02*
X455511Y-102165D01*
X432632D02*
X448773Y-118307D01*
X429347D02*
X445489Y-102165D01*
X435972D02*
X452114Y-118307D01*
X432688D02*
X448829Y-102165D01*
X636468Y-118307D02*
X652610Y-102165D01*
X636412D02*
X652554Y-118307D01*
X639809D02*
X655950Y-102165D01*
X639753D02*
X655894Y-118307D01*
X499501D02*
X515642Y-102165D01*
X499445D02*
X515587Y-118307D01*
X633127D02*
X649269Y-102165D01*
X633071D02*
X649213Y-118307D01*
X649830D02*
X665972Y-102165D01*
X649775D02*
X665916Y-118307D01*
X653171D02*
X669313Y-102165D01*
X653115D02*
X669257Y-118307D01*
X643149D02*
X659291Y-102165D01*
X643093D02*
X659235Y-118307D01*
X646490D02*
X662632Y-102165D01*
X646434D02*
X662576Y-118307D01*
X479457D02*
X495599Y-102165D01*
X479401D02*
X495543Y-118307D01*
X482797D02*
X498939Y-102165D01*
X482742D02*
X498883Y-118307D01*
X472776D02*
X488917Y-102165D01*
X472720D02*
X488861Y-118307D01*
X476116D02*
X492258Y-102165D01*
X476060D02*
X492202Y-118307D01*
X492819D02*
X508961Y-102165D01*
X492764D02*
X508905Y-118307D01*
X496160D02*
X512302Y-102165D01*
X496104D02*
X512246Y-118307D01*
X486138D02*
X502280Y-102165D01*
X486082D02*
X502224Y-118307D01*
X489479D02*
X505620Y-102165D01*
X489423D02*
X505565Y-118307D01*
X131972Y-102165D02*
X148114Y-118307D01*
X132028D02*
X148170Y-102165D01*
X128688Y-118307D02*
X144829Y-102165D01*
X135369Y-118307D02*
X151511Y-102165D01*
X135313D02*
X151455Y-118307D01*
X125291Y-102165D02*
X141433Y-118307D01*
X122006D02*
X138148Y-102165D01*
X128632D02*
X144773Y-118307D01*
X125347D02*
X141489Y-102165D01*
X145391Y-118307D02*
X161532Y-102165D01*
X145335D02*
X161477Y-118307D01*
X148732D02*
X164873Y-102165D01*
X148676D02*
X164817Y-118307D01*
X138709D02*
X154851Y-102165D01*
X138654D02*
X154795Y-118307D01*
X142050D02*
X158192Y-102165D01*
X141994D02*
X158136Y-118307D01*
X105247Y-102165D02*
X121389Y-118307D01*
X101962D02*
X118104Y-102165D01*
X108588D02*
X124729Y-118307D01*
X105303D02*
X121445Y-102165D01*
X98566D02*
X114708Y-118307D01*
X95281D02*
X111423Y-102165D01*
X101906D02*
X118048Y-118307D01*
X98622D02*
X114763Y-102165D01*
X118610D02*
X134751Y-118307D01*
X115325D02*
X131467Y-102165D01*
X121950D02*
X138092Y-118307D01*
X118666D02*
X134807Y-102165D01*
X111928D02*
X128070Y-118307D01*
X108644D02*
X124785Y-102165D01*
X115269D02*
X131411Y-118307D01*
X111984D02*
X128126Y-102165D01*
X182138Y-118307D02*
X198280Y-102165D01*
X182082D02*
X198224Y-118307D01*
X185479D02*
X201621Y-102165D01*
X185423D02*
X201565Y-118307D01*
X175457D02*
X191598Y-102165D01*
X175401D02*
X191543Y-118307D01*
X178797D02*
X194939Y-102165D01*
X178742D02*
X194883Y-118307D01*
X195501D02*
X211643Y-102165D01*
X195445D02*
X211587Y-118307D01*
X198841D02*
X214983Y-102165D01*
X198785D02*
X214927Y-118307D01*
X188819D02*
X204961Y-102165D01*
X188764D02*
X204905Y-118307D01*
X192160D02*
X208302Y-102165D01*
X192104D02*
X208246Y-118307D01*
X158753D02*
X174895Y-102165D01*
X158698D02*
X174839Y-118307D01*
X7382D02*
X759744D01*
X7382Y-102165D02*
X759738D01*
X152072Y-118307D02*
X168214Y-102165D01*
X152016D02*
X168158Y-118307D01*
X155413D02*
X171555Y-102165D01*
X155357D02*
X171499Y-118307D01*
X168775D02*
X184917Y-102165D01*
X168720D02*
X184861Y-118307D01*
X172116D02*
X188258Y-102165D01*
X172060D02*
X188202Y-118307D01*
X162094D02*
X178236Y-102165D01*
X162038D02*
X178180Y-118307D01*
X165435D02*
X181577Y-102165D01*
X165379D02*
X181521Y-118307D01*
X31752Y-102165D02*
X47894Y-118307D01*
X31808D02*
X47950Y-102165D01*
X28468Y-118307D02*
X44609Y-102165D01*
X35149Y-118307D02*
X51291Y-102165D01*
X35093D02*
X51235Y-118307D01*
X25071Y-102165D02*
X41213Y-118307D01*
X21786D02*
X37928Y-102165D01*
X28412D02*
X44554Y-118307D01*
X25127D02*
X41269Y-102165D01*
X91884D02*
X108026Y-118307D01*
X88600D02*
X104741Y-102165D01*
X95225D02*
X111367Y-118307D01*
X91940D02*
X108082Y-102165D01*
X38490Y-118307D02*
X54631Y-102165D01*
X38434D02*
X54576Y-118307D01*
X88544Y-102165D02*
X104685Y-118307D01*
X41774Y-102165D02*
X57916Y-118307D01*
X7382Y-116008D02*
X21225Y-102165D01*
X7382Y-112668D02*
X17884Y-102165D01*
X8424Y-118307D02*
X24566Y-102165D01*
X8368D02*
X24510Y-118307D01*
X7382Y-102646D02*
X7862Y-102165D01*
X7382Y-118307D02*
Y-102165D01*
Y-109327D02*
X14544Y-102165D01*
X7382Y-105986D02*
X11203Y-102165D01*
X18390D02*
X34532Y-118307D01*
X15105D02*
X31247Y-102165D01*
X21731D02*
X37872Y-118307D01*
X18446D02*
X34587Y-102165D01*
X11709D02*
X27850Y-118307D01*
X8424D02*
X24566Y-102165D01*
X15049D02*
X31191Y-118307D01*
X11764D02*
X27906Y-102165D01*
X68556Y-118307D02*
X84697Y-102165D01*
X68500D02*
X84641Y-118307D01*
X71896D02*
X88038Y-102165D01*
X71840D02*
X87982Y-118307D01*
X61874D02*
X78016Y-102165D01*
X61818D02*
X77960Y-118307D01*
X65215D02*
X81357Y-102165D01*
X65159D02*
X81301Y-118307D01*
X81918D02*
X98060Y-102165D01*
X81862D02*
X98004Y-118307D01*
X85259D02*
X101401Y-102165D01*
X85203D02*
X101345Y-118307D01*
X75237D02*
X91379Y-102165D01*
X75181D02*
X91323Y-118307D01*
X78578D02*
X94719Y-102165D01*
X78522D02*
X94664Y-118307D01*
X45115Y-102165D02*
X61257Y-118307D01*
X41830D02*
X57972Y-102165D01*
X45171Y-118307D02*
X61313Y-102165D01*
X7382Y-104520D02*
X21169Y-118307D01*
X7382Y-111201D02*
X14488Y-118307D01*
X7382Y-107861D02*
X17828Y-118307D01*
X7382Y-117883D02*
X7806Y-118307D01*
X7382Y-114542D02*
X11147Y-118307D01*
X55193D02*
X71335Y-102165D01*
X55137D02*
X71279Y-118307D01*
X58534D02*
X74675Y-102165D01*
X58478D02*
X74620Y-118307D01*
X48512D02*
X64653Y-102165D01*
X48456D02*
X64598Y-118307D01*
X51852D02*
X67994Y-102165D01*
X51797D02*
X67938Y-118307D01*
X342490D02*
X358631Y-102165D01*
X345775D02*
X361916Y-118307D01*
X342434Y-102165D02*
X358576Y-118307D01*
X349115Y-102165D02*
X365257Y-118307D01*
X345830D02*
X361972Y-102165D01*
X335808Y-118307D02*
X351950Y-102165D01*
X335753D02*
X351894Y-118307D01*
X339149D02*
X355291Y-102165D01*
X339093D02*
X355235Y-118307D01*
X359137Y-102165D02*
X375279Y-118307D01*
X355852D02*
X371994Y-102165D01*
X362478D02*
X378620Y-118307D01*
X359193D02*
X375335Y-102165D01*
X352456D02*
X368598Y-118307D01*
X349171D02*
X365313Y-102165D01*
X355797D02*
X371938Y-118307D01*
X352512D02*
X368653Y-102165D01*
X315764Y-118307D02*
X331906Y-102165D01*
X315709D02*
X331850Y-118307D01*
X319105D02*
X335247Y-102165D01*
X319049D02*
X335191Y-118307D01*
X309083D02*
X325225Y-102165D01*
X309027D02*
X325169Y-118307D01*
X312424D02*
X328566Y-102165D01*
X312368D02*
X328510Y-118307D01*
X329127D02*
X345269Y-102165D01*
X329071D02*
X345213Y-118307D01*
X332468D02*
X348609Y-102165D01*
X332412D02*
X348554Y-118307D01*
X322446D02*
X338587Y-102165D01*
X322390D02*
X338532Y-118307D01*
X325786D02*
X341928Y-102165D01*
X325731D02*
X341872Y-118307D01*
X399225Y-102165D02*
X415367Y-118307D01*
X395940D02*
X412082Y-102165D01*
X402566D02*
X418708Y-118307D01*
X399281D02*
X415423Y-102165D01*
X392544D02*
X408686Y-118307D01*
X389259D02*
X405401Y-102165D01*
X395884D02*
X412026Y-118307D01*
X392600D02*
X408741Y-102165D01*
X412588D02*
X428729Y-118307D01*
X409303D02*
X425445Y-102165D01*
X415928D02*
X432070Y-118307D01*
X412644D02*
X428785Y-102165D01*
X405906D02*
X422048Y-118307D01*
X402622D02*
X418763Y-102165D01*
X409247D02*
X425389Y-118307D01*
X405962D02*
X422104Y-102165D01*
X372500D02*
X388642Y-118307D01*
X369215D02*
X385357Y-102165D01*
X375840D02*
X391982Y-118307D01*
X372556D02*
X388697Y-102165D01*
X365819D02*
X381960Y-118307D01*
X362534D02*
X378676Y-102165D01*
X369159D02*
X385301Y-118307D01*
X365874D02*
X382016Y-102165D01*
X385862D02*
X402004Y-118307D01*
X382578D02*
X398719Y-102165D01*
X389203D02*
X405345Y-118307D01*
X385918D02*
X402060Y-102165D01*
X379181D02*
X395323Y-118307D01*
X375896D02*
X392038Y-102165D01*
X382522D02*
X398664Y-118307D01*
X379237D02*
X395379Y-102165D01*
X235589Y-118307D02*
X251730Y-102165D01*
X235533D02*
X251675Y-118307D01*
X238929D02*
X255071Y-102165D01*
X238874D02*
X255015Y-118307D01*
X228907D02*
X245049Y-102165D01*
X228852D02*
X244993Y-118307D01*
X232248D02*
X248390Y-102165D01*
X232192D02*
X248334Y-118307D01*
X248951D02*
X265093Y-102165D01*
X248895D02*
X265037Y-118307D01*
X252292D02*
X268434Y-102165D01*
X252236D02*
X268378Y-118307D01*
X242270D02*
X258412Y-102165D01*
X242214D02*
X258356Y-118307D01*
X245611D02*
X261752Y-102165D01*
X245555D02*
X261697Y-118307D01*
X208863D02*
X225005Y-102165D01*
X208807D02*
X224949Y-118307D01*
X212204D02*
X228346Y-102165D01*
X212148D02*
X228290Y-118307D01*
X202182D02*
X218324Y-102165D01*
X202126D02*
X218268Y-118307D01*
X205523D02*
X221664Y-102165D01*
X205467D02*
X221609Y-118307D01*
X222226D02*
X238368Y-102165D01*
X222170D02*
X238312Y-118307D01*
X225567D02*
X241708Y-102165D01*
X225511D02*
X241653Y-118307D01*
X215545D02*
X231686Y-102165D01*
X215489D02*
X231631Y-118307D01*
X218885D02*
X235027Y-102165D01*
X218829D02*
X234971Y-118307D01*
X289039D02*
X305181Y-102165D01*
X288983D02*
X305125Y-118307D01*
X292380D02*
X308522Y-102165D01*
X292324D02*
X308466Y-118307D01*
X282358D02*
X298500Y-102165D01*
X282302D02*
X298444Y-118307D01*
X285699D02*
X301840Y-102165D01*
X285643D02*
X301784Y-118307D01*
X302402D02*
X318544Y-102165D01*
X302346D02*
X318488Y-118307D01*
X305743D02*
X321884Y-102165D01*
X305687D02*
X321828Y-118307D01*
X295721D02*
X311862Y-102165D01*
X295665D02*
X311806Y-118307D01*
X299061D02*
X315203Y-102165D01*
X299005D02*
X315147Y-118307D01*
X262314D02*
X278456Y-102165D01*
X262258D02*
X278400Y-118307D01*
X265655D02*
X281796Y-102165D01*
X265599D02*
X281740Y-118307D01*
X255633D02*
X271774Y-102165D01*
X255577D02*
X271719Y-118307D01*
X258973D02*
X275115Y-102165D01*
X258917D02*
X275059Y-118307D01*
X275676D02*
X291818Y-102165D01*
X275621D02*
X291762Y-118307D01*
X279017D02*
X295159Y-102165D01*
X278961D02*
X295103Y-118307D01*
X268995D02*
X285137Y-102165D01*
X268939D02*
X285081Y-118307D01*
X272336D02*
X288478Y-102165D01*
X272280D02*
X288422Y-118307D01*
X764157Y-130134D02*
Y-129709D01*
Y-130134D02*
Y-129709D01*
Y-130134D02*
Y-129709D01*
X762221Y-127756D02*
X764157Y-129692D01*
X759744Y-127756D02*
X764157D01*
Y-129709D02*
Y-127756D01*
Y-129709D02*
Y-127756D01*
X758881D02*
X764157Y-133033D01*
X755540Y-127756D02*
X764157Y-136373D01*
Y-132102D02*
Y-131677D01*
X752199Y-127756D02*
X764157Y-139714D01*
Y-131677D02*
Y-130134D01*
Y-131677D02*
Y-130134D01*
Y-132102D02*
Y-131677D01*
Y-132102D02*
Y-131677D01*
X611893Y-127756D02*
X628034Y-143898D01*
X610877D02*
X627019Y-127756D01*
X748859D02*
X764157Y-143055D01*
X614218Y-143898D02*
X630360Y-127756D01*
X605211D02*
X621353Y-143898D01*
X604196D02*
X620338Y-127756D01*
X608552D02*
X624694Y-143898D01*
X607537D02*
X623678Y-127756D01*
X624240Y-143898D02*
X640382Y-127756D01*
X621915D02*
X638056Y-143898D01*
X627580D02*
X643722Y-127756D01*
X625255D02*
X641397Y-143898D01*
X617559D02*
X633700Y-127756D01*
X615233D02*
X631375Y-143898D01*
X620899D02*
X637041Y-127756D01*
X618574D02*
X634716Y-143898D01*
X764157Y-139551D02*
Y-138008D01*
Y-139976D02*
Y-139551D01*
Y-139976D02*
Y-139551D01*
Y-141945D02*
Y-141520D01*
Y-141945D02*
Y-141520D01*
Y-139976D01*
Y-139551D01*
Y-141945D02*
Y-141520D01*
Y-139976D01*
Y-135614D02*
Y-134071D01*
Y-133646D01*
Y-136039D02*
Y-135614D01*
Y-134071D01*
Y-133646D02*
Y-132102D01*
Y-133646D02*
Y-132102D01*
Y-134071D02*
Y-133646D01*
Y-134071D02*
Y-133646D01*
Y-138008D02*
Y-137583D01*
Y-138008D02*
Y-137583D01*
Y-139551D02*
Y-138008D01*
Y-137583D01*
Y-136039D02*
Y-135614D01*
Y-136039D02*
Y-135614D01*
Y-137583D02*
Y-136039D01*
Y-137583D02*
Y-136039D01*
X531717Y-127756D02*
X547859Y-143898D01*
X530701D02*
X546843Y-127756D01*
X535057D02*
X551199Y-143898D01*
X534042D02*
X550184Y-127756D01*
X525035D02*
X541177Y-143898D01*
X524020D02*
X540162Y-127756D01*
X528376D02*
X544518Y-143898D01*
X527361D02*
X543503Y-127756D01*
X545080D02*
X561221Y-143898D01*
X544064D02*
X560206Y-127756D01*
X548420D02*
X564562Y-143898D01*
X547405D02*
X563546Y-127756D01*
X538398D02*
X554540Y-143898D01*
X537383D02*
X553524Y-127756D01*
X541739D02*
X557881Y-143898D01*
X540723D02*
X556865Y-127756D01*
X504992D02*
X521133Y-143898D01*
X503976D02*
X520118Y-127756D01*
X508332D02*
X524474Y-143898D01*
X507317D02*
X523458Y-127756D01*
X498310D02*
X514452Y-143898D01*
X468244Y-127756D02*
X484386Y-143898D01*
X501651Y-127756D02*
X517793Y-143898D01*
X500635D02*
X516777Y-127756D01*
X518354D02*
X534496Y-143898D01*
X517339D02*
X533481Y-127756D01*
X521695D02*
X537837Y-143898D01*
X520679D02*
X536821Y-127756D01*
X511673D02*
X527815Y-143898D01*
X510657D02*
X526799Y-127756D01*
X515014D02*
X531155Y-143898D01*
X513998D02*
X530140Y-127756D01*
X585167D02*
X601309Y-143898D01*
X584152D02*
X600294Y-127756D01*
X588508D02*
X604650Y-143898D01*
X587493D02*
X603634Y-127756D01*
X578486D02*
X594628Y-143898D01*
X577471D02*
X593612Y-127756D01*
X581827D02*
X597968Y-143898D01*
X580811D02*
X596953Y-127756D01*
X598530D02*
X614672Y-143898D01*
X597515D02*
X613656Y-127756D01*
X601871D02*
X618012Y-143898D01*
X600855D02*
X616997Y-127756D01*
X591849D02*
X607991Y-143898D01*
X590833D02*
X606975Y-127756D01*
X595189D02*
X611331Y-143898D01*
X594174D02*
X610316Y-127756D01*
X558442D02*
X574584Y-143898D01*
X557427D02*
X573568Y-127756D01*
X561783D02*
X577924Y-143898D01*
X560767D02*
X576909Y-127756D01*
X551761D02*
X567903Y-143898D01*
X550745D02*
X566887Y-127756D01*
X555101D02*
X571243Y-143898D01*
X554086D02*
X570228Y-127756D01*
X571805D02*
X587947Y-143898D01*
X570789D02*
X586931Y-127756D01*
X575145D02*
X591287Y-143898D01*
X574130D02*
X590272Y-127756D01*
X565123D02*
X581265Y-143898D01*
X564108D02*
X580250Y-127756D01*
X568464D02*
X584606Y-143898D01*
X567449D02*
X583590Y-127756D01*
X688728D02*
X704870Y-143898D01*
X687712D02*
X703854Y-127756D01*
X692068D02*
X708210Y-143898D01*
X691053D02*
X707195Y-127756D01*
X682047D02*
X698188Y-143898D01*
X681031D02*
X697173Y-127756D01*
X685387D02*
X701529Y-143898D01*
X684372D02*
X700514Y-127756D01*
X702091D02*
X718232Y-143898D01*
X701075D02*
X717217Y-127756D01*
X705431D02*
X721573Y-143898D01*
X704416D02*
X720557Y-127756D01*
X695409D02*
X711551Y-143898D01*
X694394D02*
X710535Y-127756D01*
X698750D02*
X714892Y-143898D01*
X697734D02*
X713876Y-127756D01*
X662003D02*
X678144Y-143898D01*
X660987D02*
X677129Y-127756D01*
X665343D02*
X681485Y-143898D01*
X664328D02*
X680470Y-127756D01*
X655321D02*
X671463Y-143898D01*
X654306D02*
X670447Y-127756D01*
X658662D02*
X674804Y-143898D01*
X657647D02*
X673788Y-127756D01*
X675365D02*
X691507Y-143898D01*
X674350D02*
X690491Y-127756D01*
X678706D02*
X694848Y-143898D01*
X677690D02*
X693832Y-127756D01*
X668684D02*
X684826Y-143898D01*
X667668D02*
X683810Y-127756D01*
X672025D02*
X688166Y-143898D01*
X671009D02*
X687151Y-127756D01*
X742177D02*
X758319Y-143898D01*
X741163D02*
X757305Y-127756D01*
X745518D02*
X761660Y-143898D01*
X744504D02*
X760645Y-127756D01*
X735497D02*
X751639Y-143898D01*
X734482D02*
X750623Y-127756D01*
X738838D02*
X754980Y-143898D01*
X737822D02*
X753964Y-127756D01*
X764157Y-143898D02*
Y-141945D01*
X761207Y-143898D02*
X764157Y-140947D01*
Y-143898D02*
Y-141945D01*
X759744Y-143898D02*
X764157D01*
X751185Y-143898D02*
X764157Y-130925D01*
X747844Y-143898D02*
X763986Y-127756D01*
X757866Y-143898D02*
X764157Y-137606D01*
X754526Y-143898D02*
X764157Y-134266D01*
X715453Y-127756D02*
X731595Y-143898D01*
X714438D02*
X730579Y-127756D01*
X718794D02*
X734936Y-143898D01*
X717778D02*
X733920Y-127756D01*
X708772D02*
X724914Y-143898D01*
X707756D02*
X723898Y-127756D01*
X712113D02*
X728254Y-143898D01*
X711097D02*
X727239Y-127756D01*
X728816D02*
X744957Y-143898D01*
X727800D02*
X743942Y-127756D01*
X732157D02*
X748298Y-143898D01*
X731141D02*
X747283Y-127756D01*
X722134D02*
X738276Y-143898D01*
X721119D02*
X737261Y-127756D01*
X725475D02*
X741617Y-143898D01*
X724460D02*
X740601Y-127756D01*
X450526Y-143898D02*
X466667Y-127756D01*
X448200D02*
X464342Y-143898D01*
X453866D02*
X470008Y-127756D01*
X451541D02*
X467683Y-143898D01*
X443844D02*
X459986Y-127756D01*
X441519D02*
X457661Y-143898D01*
X447185D02*
X463327Y-127756D01*
X444860D02*
X461001Y-143898D01*
X463888D02*
X480030Y-127756D01*
X461563D02*
X477705Y-143898D01*
X467229D02*
X483371Y-127756D01*
X464904D02*
X481045Y-143898D01*
X457207D02*
X473349Y-127756D01*
X454882D02*
X471023Y-143898D01*
X460547D02*
X476689Y-127756D01*
X458222D02*
X474364Y-143898D01*
X423800D02*
X439942Y-127756D01*
X421475D02*
X437617Y-143898D01*
X427141D02*
X443283Y-127756D01*
X424816D02*
X440957Y-143898D01*
X417119D02*
X433261Y-127756D01*
X414794D02*
X430935Y-143898D01*
X420460D02*
X436601Y-127756D01*
X418134D02*
X434276Y-143898D01*
X437163D02*
X453305Y-127756D01*
X434838D02*
X450979Y-143898D01*
X440504D02*
X456645Y-127756D01*
X438178D02*
X454320Y-143898D01*
X430482D02*
X446623Y-127756D01*
X428156D02*
X444298Y-143898D01*
X433822D02*
X449964Y-127756D01*
X431497D02*
X447639Y-143898D01*
X635277Y-127756D02*
X651419Y-143898D01*
X634262D02*
X650404Y-127756D01*
X638618D02*
X654760Y-143898D01*
X637603D02*
X653744Y-127756D01*
X628596D02*
X644738Y-143898D01*
X497295D02*
X513437Y-127756D01*
X631937D02*
X648078Y-143898D01*
X630921D02*
X647063Y-127756D01*
X648640D02*
X664782Y-143898D01*
X647624D02*
X663766Y-127756D01*
X651981D02*
X668122Y-143898D01*
X650965D02*
X667107Y-127756D01*
X641959D02*
X658100Y-143898D01*
X640943D02*
X657085Y-127756D01*
X645299D02*
X661441Y-143898D01*
X644284D02*
X660426Y-127756D01*
X478266D02*
X494408Y-143898D01*
X477251D02*
X493393Y-127756D01*
X481607D02*
X497749Y-143898D01*
X480591D02*
X496733Y-127756D01*
X471585D02*
X487727Y-143898D01*
X470570D02*
X486711Y-127756D01*
X474926D02*
X491067Y-143898D01*
X473910D02*
X490052Y-127756D01*
X491629D02*
X507771Y-143898D01*
X490614D02*
X506755Y-127756D01*
X494970D02*
X511111Y-143898D01*
X493954D02*
X510096Y-127756D01*
X484948D02*
X501089Y-143898D01*
X483932D02*
X500074Y-127756D01*
X488288D02*
X504430Y-143898D01*
X487273D02*
X503414Y-127756D01*
X130838D02*
X146979Y-143898D01*
X133163D02*
X149305Y-127756D01*
X129822Y-143898D02*
X145964Y-127756D01*
X136504Y-143898D02*
X152645Y-127756D01*
X134178D02*
X150320Y-143898D01*
X124156Y-127756D02*
X140298Y-143898D01*
X123141D02*
X139283Y-127756D01*
X127497D02*
X143639Y-143898D01*
X126481D02*
X142623Y-127756D01*
X146526Y-143898D02*
X162667Y-127756D01*
X144200D02*
X160342Y-143898D01*
X149866D02*
X166008Y-127756D01*
X147541D02*
X163683Y-143898D01*
X139844D02*
X155986Y-127756D01*
X137519D02*
X153661Y-143898D01*
X143185D02*
X159327Y-127756D01*
X140860D02*
X157001Y-143898D01*
X104112Y-127756D02*
X120254Y-143898D01*
X103097D02*
X119239Y-127756D01*
X107453D02*
X123595Y-143898D01*
X106438D02*
X122579Y-127756D01*
X97431D02*
X113573Y-143898D01*
X96416D02*
X112557Y-127756D01*
X100772D02*
X116913Y-143898D01*
X99756D02*
X115898Y-127756D01*
X117475D02*
X133617Y-143898D01*
X116460D02*
X132601Y-127756D01*
X120816D02*
X136957Y-143898D01*
X119800D02*
X135942Y-127756D01*
X110794D02*
X126935Y-143898D01*
X109778D02*
X125920Y-127756D01*
X114134D02*
X130276Y-143898D01*
X113119D02*
X129261Y-127756D01*
X183273Y-143898D02*
X199415Y-127756D01*
X180948D02*
X197089Y-143898D01*
X186613D02*
X202755Y-127756D01*
X184288D02*
X200430Y-143898D01*
X176591D02*
X192733Y-127756D01*
X174266D02*
X190408Y-143898D01*
X179932D02*
X196074Y-127756D01*
X177607D02*
X193749Y-143898D01*
X196635D02*
X212777Y-127756D01*
X194310D02*
X210452Y-143898D01*
X199976D02*
X216118Y-127756D01*
X197651D02*
X213793Y-143898D01*
X189954D02*
X206096Y-127756D01*
X187629D02*
X203771Y-143898D01*
X193295D02*
X209436Y-127756D01*
X190970D02*
X207111Y-143898D01*
X159888D02*
X176030Y-127756D01*
X157563D02*
X173705Y-143898D01*
X7382D02*
X764157D01*
X7382Y-127756D02*
X759744D01*
X153207Y-143898D02*
X169349Y-127756D01*
X150882D02*
X167023Y-143898D01*
X156547D02*
X172689Y-127756D01*
X154222D02*
X170364Y-143898D01*
X169910D02*
X186052Y-127756D01*
X167585D02*
X183727Y-143898D01*
X173251D02*
X189392Y-127756D01*
X170926D02*
X187067Y-143898D01*
X163229D02*
X179370Y-127756D01*
X160904D02*
X177045Y-143898D01*
X166569D02*
X182711Y-127756D01*
X164244D02*
X180386Y-143898D01*
X32943D02*
X49085Y-127756D01*
X30618D02*
X46760Y-143898D01*
X36284D02*
X52425Y-127756D01*
X33959D02*
X50100Y-143898D01*
X26262D02*
X42404Y-127756D01*
X23936D02*
X40078Y-143898D01*
X29602D02*
X45744Y-127756D01*
X27277D02*
X43419Y-143898D01*
X90750Y-127756D02*
X106892Y-143898D01*
X89734D02*
X105876Y-127756D01*
X94090D02*
X110232Y-143898D01*
X93075D02*
X109217Y-127756D01*
X39624Y-143898D02*
X55766Y-127756D01*
X37299D02*
X53441Y-143898D01*
X87409Y-127756D02*
X103551Y-143898D01*
X40640Y-127756D02*
X56782Y-143898D01*
X7382Y-142734D02*
X22359Y-127756D01*
X7382Y-139393D02*
X19019Y-127756D01*
X10574D02*
X26716Y-143898D01*
X9558D02*
X25700Y-127756D01*
X7382Y-129371D02*
X8997Y-127756D01*
X7382Y-143898D02*
Y-127756D01*
Y-136052D02*
X15678Y-127756D01*
X7382Y-132712D02*
X12337Y-127756D01*
X19580Y-143898D02*
X35722Y-127756D01*
X17255D02*
X33397Y-143898D01*
X22921D02*
X39063Y-127756D01*
X20596D02*
X36738Y-143898D01*
X12899D02*
X29041Y-127756D01*
X12899Y-143898D02*
X29041Y-127756D01*
X16240Y-143898D02*
X32381Y-127756D01*
X13915D02*
X30056Y-143898D01*
X69690D02*
X85832Y-127756D01*
X67365D02*
X83507Y-143898D01*
X73031D02*
X89173Y-127756D01*
X70706D02*
X86848Y-143898D01*
X63009D02*
X79151Y-127756D01*
X60684D02*
X76825Y-143898D01*
X66350D02*
X82491Y-127756D01*
X64025D02*
X80166Y-143898D01*
X83053D02*
X99195Y-127756D01*
X80728D02*
X96869Y-143898D01*
X86394D02*
X102535Y-127756D01*
X84068D02*
X100210Y-143898D01*
X76372D02*
X92513Y-127756D01*
X74046D02*
X90188Y-143898D01*
X79712D02*
X95854Y-127756D01*
X77387D02*
X93529Y-143898D01*
X43981Y-127756D02*
X60122Y-143898D01*
X42965D02*
X59107Y-127756D01*
X46306Y-143898D02*
X62447Y-127756D01*
X7382Y-127905D02*
X23375Y-143898D01*
X7382Y-134586D02*
X16694Y-143898D01*
X7382Y-131245D02*
X20034Y-143898D01*
X7382Y-141267D02*
X10012Y-143898D01*
X7382Y-137926D02*
X13353Y-143898D01*
X56328D02*
X72469Y-127756D01*
X54002D02*
X70144Y-143898D01*
X59668D02*
X75810Y-127756D01*
X57343D02*
X73485Y-143898D01*
X49646D02*
X65788Y-127756D01*
X47321D02*
X63463Y-143898D01*
X52987D02*
X69129Y-127756D01*
X50662D02*
X66803Y-143898D01*
X343624D02*
X359766Y-127756D01*
X341299D02*
X357441Y-143898D01*
X346965D02*
X363107Y-127756D01*
X344640D02*
X360782Y-143898D01*
X336943D02*
X353085Y-127756D01*
X334618D02*
X350760Y-143898D01*
X340284D02*
X356425Y-127756D01*
X337959D02*
X354100Y-143898D01*
X356987D02*
X373129Y-127756D01*
X354662D02*
X370804Y-143898D01*
X360328D02*
X376469Y-127756D01*
X358002D02*
X374144Y-143898D01*
X350306D02*
X366447Y-127756D01*
X347980D02*
X364122Y-143898D01*
X353646D02*
X369788Y-127756D01*
X351321D02*
X367463Y-143898D01*
X316899D02*
X333041Y-127756D01*
X314574D02*
X330716Y-143898D01*
X320240D02*
X336382Y-127756D01*
X317915D02*
X334056Y-143898D01*
X310218D02*
X326360Y-127756D01*
X307893D02*
X324034Y-143898D01*
X313559D02*
X329700Y-127756D01*
X311233D02*
X327375Y-143898D01*
X330262D02*
X346404Y-127756D01*
X327937D02*
X344078Y-143898D01*
X333602D02*
X349744Y-127756D01*
X331277D02*
X347419Y-143898D01*
X323581D02*
X339722Y-127756D01*
X321255D02*
X337397Y-143898D01*
X326921D02*
X343063Y-127756D01*
X324596D02*
X340738Y-143898D01*
X397075D02*
X413217Y-127756D01*
X394750D02*
X410891Y-143898D01*
X400416D02*
X416557Y-127756D01*
X398091D02*
X414232Y-143898D01*
X390394D02*
X406535Y-127756D01*
X388069D02*
X404210Y-143898D01*
X393734D02*
X409876Y-127756D01*
X391409D02*
X407551Y-143898D01*
X410438D02*
X426579Y-127756D01*
X408112D02*
X424254Y-143898D01*
X413778D02*
X429920Y-127756D01*
X411453D02*
X427595Y-143898D01*
X403756D02*
X419898Y-127756D01*
X401431D02*
X417573Y-143898D01*
X407097D02*
X423239Y-127756D01*
X404772D02*
X420914Y-143898D01*
X370350D02*
X386491Y-127756D01*
X368024D02*
X384166Y-143898D01*
X373690D02*
X389832Y-127756D01*
X371365D02*
X387507Y-143898D01*
X363668D02*
X379810Y-127756D01*
X361343D02*
X377485Y-143898D01*
X367009D02*
X383151Y-127756D01*
X364684D02*
X380826Y-143898D01*
X383712D02*
X399854Y-127756D01*
X381387D02*
X397529Y-143898D01*
X387053D02*
X403195Y-127756D01*
X384728D02*
X400870Y-143898D01*
X377031D02*
X393173Y-127756D01*
X374706D02*
X390848Y-143898D01*
X380372D02*
X396513Y-127756D01*
X378046D02*
X394188Y-143898D01*
X236723D02*
X252865Y-127756D01*
X234398D02*
X250540Y-143898D01*
X240064D02*
X256206Y-127756D01*
X237739D02*
X253881Y-143898D01*
X230042D02*
X246184Y-127756D01*
X227717D02*
X243859Y-143898D01*
X233383D02*
X249524Y-127756D01*
X231058D02*
X247199Y-143898D01*
X250086D02*
X266228Y-127756D01*
X247761D02*
X263902Y-143898D01*
X253427D02*
X269568Y-127756D01*
X251101D02*
X267243Y-143898D01*
X243405D02*
X259546Y-127756D01*
X241079D02*
X257221Y-143898D01*
X246745D02*
X262887Y-127756D01*
X244420D02*
X260562Y-143898D01*
X209998D02*
X226140Y-127756D01*
X207673D02*
X223815Y-143898D01*
X213339D02*
X229480Y-127756D01*
X211014D02*
X227155Y-143898D01*
X203317D02*
X219458Y-127756D01*
X200992D02*
X217133Y-143898D01*
X206657D02*
X222799Y-127756D01*
X204332D02*
X220474Y-143898D01*
X223361D02*
X239502Y-127756D01*
X221036D02*
X237177Y-143898D01*
X226701D02*
X242843Y-127756D01*
X224376D02*
X240518Y-143898D01*
X216679D02*
X232821Y-127756D01*
X214354D02*
X230496Y-143898D01*
X220020D02*
X236162Y-127756D01*
X217695D02*
X233837Y-143898D01*
X290174D02*
X306316Y-127756D01*
X287849D02*
X303990Y-143898D01*
X293514D02*
X309656Y-127756D01*
X291189D02*
X307331Y-143898D01*
X283493D02*
X299634Y-127756D01*
X281167D02*
X297309Y-143898D01*
X286833D02*
X302975Y-127756D01*
X284508D02*
X300650Y-143898D01*
X303537D02*
X319678Y-127756D01*
X301211D02*
X317353Y-143898D01*
X306877D02*
X323019Y-127756D01*
X304552D02*
X320694Y-143898D01*
X296855D02*
X312997Y-127756D01*
X294530D02*
X310672Y-143898D01*
X300196D02*
X316338Y-127756D01*
X297871D02*
X314012Y-143898D01*
X263449D02*
X279590Y-127756D01*
X261123D02*
X277265Y-143898D01*
X266789D02*
X282931Y-127756D01*
X264464D02*
X280606Y-143898D01*
X256767D02*
X272909Y-127756D01*
X254442D02*
X270584Y-143898D01*
X260108D02*
X276250Y-127756D01*
X257783D02*
X273924Y-143898D01*
X276811D02*
X292953Y-127756D01*
X274486D02*
X290628Y-143898D01*
X280152D02*
X296294Y-127756D01*
X277827D02*
X293968Y-143898D01*
X270130D02*
X286272Y-127756D01*
X267805D02*
X283946Y-143898D01*
X273471D02*
X289612Y-127756D01*
X271145D02*
X287287Y-143898D01*
X160335Y-186024D02*
X160335Y-186024D01*
Y-179134D01*
X158366Y-186024D02*
X158366Y-186024D01*
Y-179134D01*
X156398Y-186024D02*
X156398Y-186024D01*
Y-179134D01*
X154429Y-186024D02*
X154429Y-186024D01*
Y-179134D01*
X152461Y-186024D02*
Y-179134D01*
X152461Y-186024D02*
X152461Y-186024D01*
X150492Y-186024D02*
X150492Y-186024D01*
Y-179134D01*
X2953Y-206693D02*
X139665D01*
X2953Y-204724D02*
X139665D01*
X2953Y-202756D02*
X139665D01*
X2953Y-200787D02*
X139665D01*
X2953Y-198819D02*
X139665D01*
X2953Y-196850D02*
X139665D01*
X764222Y-124016D02*
X768701D01*
X759744D02*
X764222D01*
X2953D02*
X759744D01*
X764222Y-122047D02*
X768701D01*
X759744D02*
X764222D01*
X2953D02*
X759744D01*
X764222Y-125984D02*
X768701D01*
X759744D02*
X764222D01*
X2953D02*
X759744D01*
X759744Y-120079D02*
X764222D01*
X2953D02*
X759744D01*
X764222Y-98425D02*
X768701D01*
X759744D02*
X764222D01*
X2953D02*
X759744D01*
X764222Y-147638D02*
X768701D01*
X759744D02*
X764222D01*
X2953D02*
X759744D01*
Y-145669D02*
X768701D01*
X759744Y-120079D02*
X768701Y-120079D01*
X759744Y-100394D02*
X768701D01*
X762402Y-143701D02*
X768701D01*
X762402Y-141732D02*
X768701D01*
X762402Y-139764D02*
X768701D01*
X762402Y-137795D02*
X768701D01*
X762402Y-135827D02*
X768701D01*
X762402Y-133858D02*
X768701Y-133858D01*
X762402Y-131890D02*
X768701Y-131890D01*
X762402Y-129921D02*
X768701D01*
X762402Y-127953D02*
X768701D01*
X762402Y-118110D02*
X768701Y-118110D01*
X762402Y-116142D02*
X768701Y-116142D01*
X762402Y-114173D02*
X768701Y-114173D01*
X762402Y-112205D02*
X768701Y-112205D01*
X762402Y-110236D02*
X768701D01*
X762402Y-108268D02*
X768701D01*
X762402Y-106299D02*
X768701D01*
X762402Y-104331D02*
X768701Y-104331D01*
X762402Y-102362D02*
X768701D01*
X2953Y-143701D02*
X9252D01*
X2953Y-141732D02*
X9252D01*
X2953Y-139764D02*
X9252D01*
X2953Y-137795D02*
X9252D01*
X2953Y-135827D02*
X9252D01*
X2953Y-133858D02*
X9252D01*
X2953Y-131890D02*
X9252D01*
X2953Y-129921D02*
X9252D01*
X2953Y-127953D02*
X9252D01*
X2953Y-118110D02*
X9252D01*
X2953Y-116142D02*
X9252D01*
X2953Y-114173D02*
X9252D01*
X2953Y-112205D02*
X9252D01*
X2953Y-110236D02*
X9252D01*
X2953Y-108268D02*
X9252D01*
X2953Y-106299D02*
X9252D01*
X2953Y-104331D02*
X9252D01*
X2953Y-102362D02*
X9252D01*
X2953Y-145669D02*
X764222D01*
X2953Y-100394D02*
X764222D01*
X2953Y-70866D02*
X402559D01*
X2953Y-72835D02*
X402559D01*
X2953Y-74803D02*
X402559D01*
X2953Y-76772D02*
X402559D01*
X2953Y-78740D02*
X402559D01*
X2953Y-80709D02*
X402559D01*
X170079Y85630D02*
X425984D01*
X141535Y-16929D02*
Y57087D01*
X2953Y-43504D02*
X114961D01*
X170079Y89567D02*
X425984D01*
X137598Y-16929D02*
Y57087D01*
X2953Y-39567D02*
X114961D01*
X170079Y79724D02*
X425984D01*
X147441Y-16929D02*
Y57087D01*
X2953Y-49409D02*
X114961D01*
X170079Y81693D02*
X425984D01*
X145473Y-16929D02*
Y57087D01*
X2953Y-47441D02*
X114961D01*
X170079Y83661D02*
X425984D01*
X143504Y-16929D02*
Y57087D01*
X2953Y-45472D02*
X114961D01*
X170079Y87598D02*
X425984D01*
X139567Y-16929D02*
Y57087D01*
X2953Y-41535D02*
X114961D01*
X2953Y78740D02*
X36220D01*
X47047Y67913D01*
Y47441D02*
Y67913D01*
X35335Y76772D02*
X44980Y67126D01*
X2953Y76772D02*
X35335D01*
X34449Y74803D02*
X42913Y66339D01*
X2953Y74803D02*
X34449D01*
X33465Y72835D02*
X40846Y65453D01*
X2953Y72835D02*
X33465D01*
X2953Y70866D02*
X32579D01*
X38976Y64468D01*
X44980Y46752D02*
Y67126D01*
X42913Y46063D02*
Y66339D01*
X47047Y47441D02*
X51772Y42717D01*
X81004D01*
X50984Y40748D02*
X81004D01*
X44980Y46752D02*
X50984Y40748D01*
X40846Y45374D02*
Y65453D01*
X42913Y46063D02*
X50197Y38780D01*
X81004D01*
X49409Y36811D02*
X81004D01*
X40846Y45374D02*
X49409Y36811D01*
X31791Y68898D02*
X37106Y63583D01*
X2953Y68898D02*
X31791D01*
X38976Y44488D02*
Y64468D01*
X37106Y43602D02*
Y63583D01*
X38976Y44488D02*
X48622Y34843D01*
X81004D01*
X47835Y32874D02*
X81004D01*
X37106Y43602D02*
X47835Y32874D01*
X2953Y116142D02*
X237205D01*
X2953Y114173D02*
X237205D01*
X2953Y112205D02*
X237205D01*
X2953Y110236D02*
X237205D01*
X2953Y108268D02*
X237205D01*
X2953Y118110D02*
X237205D01*
D12*
X2953Y-364173D02*
D03*
Y-362205D02*
D03*
Y-360236D02*
D03*
Y-358268D02*
D03*
Y-356299D02*
D03*
Y-354331D02*
D03*
Y-206693D02*
D03*
Y-204724D02*
D03*
Y-202756D02*
D03*
Y-200787D02*
D03*
X2953Y-198819D02*
D03*
Y-196850D02*
D03*
X768701Y-137795D02*
D03*
Y-139764D02*
D03*
Y-141732D02*
D03*
Y-143701D02*
D03*
Y-145669D02*
D03*
Y-147638D02*
D03*
Y-135827D02*
D03*
Y-133858D02*
D03*
Y-131890D02*
D03*
Y-129921D02*
D03*
Y-127953D02*
D03*
Y-125984D02*
D03*
Y-124016D02*
D03*
X768701Y-122047D02*
D03*
X768701Y-120079D02*
D03*
Y-118110D02*
D03*
Y-116142D02*
D03*
Y-114173D02*
D03*
Y-112205D02*
D03*
Y-110236D02*
D03*
Y-108268D02*
D03*
Y-106299D02*
D03*
Y-104331D02*
D03*
Y-102362D02*
D03*
Y-100394D02*
D03*
Y-98425D02*
D03*
X2953Y-108268D02*
D03*
Y-106299D02*
D03*
Y-104331D02*
D03*
Y-102362D02*
D03*
Y-100394D02*
D03*
Y-98425D02*
D03*
Y-110236D02*
D03*
Y-112205D02*
D03*
Y-114173D02*
D03*
Y-116142D02*
D03*
Y-118110D02*
D03*
Y-120079D02*
D03*
Y-122047D02*
D03*
Y-124016D02*
D03*
Y-125984D02*
D03*
Y-127953D02*
D03*
Y-129921D02*
D03*
Y-131890D02*
D03*
Y-133858D02*
D03*
Y-135827D02*
D03*
Y-137795D02*
D03*
Y-139764D02*
D03*
Y-141732D02*
D03*
Y-143701D02*
D03*
Y-145669D02*
D03*
Y-147638D02*
D03*
Y68898D02*
D03*
Y70866D02*
D03*
Y72835D02*
D03*
Y74803D02*
D03*
Y76772D02*
D03*
Y78740D02*
D03*
X81004Y32874D02*
D03*
Y34843D02*
D03*
Y36811D02*
D03*
Y38780D02*
D03*
Y40748D02*
D03*
Y42717D02*
D03*
X2953Y108268D02*
D03*
Y110236D02*
D03*
Y112205D02*
D03*
Y114173D02*
D03*
Y116142D02*
D03*
Y118110D02*
D03*
X237205Y108268D02*
D03*
Y110236D02*
D03*
Y112205D02*
D03*
Y114173D02*
D03*
Y116142D02*
D03*
Y118110D02*
D03*
X2953Y-49409D02*
D03*
Y-47441D02*
D03*
Y-45472D02*
D03*
Y-43504D02*
D03*
Y-41535D02*
D03*
Y-39567D02*
D03*
X427362Y79724D02*
D03*
Y81693D02*
D03*
Y83661D02*
D03*
Y85630D02*
D03*
Y87598D02*
D03*
Y89567D02*
D03*
X2953Y-80709D02*
D03*
Y-78740D02*
D03*
Y-76772D02*
D03*
Y-74803D02*
D03*
Y-72835D02*
D03*
Y-70866D02*
D03*
X402559Y-80709D02*
D03*
Y-78740D02*
D03*
Y-76772D02*
D03*
Y-74803D02*
D03*
Y-72835D02*
D03*
Y-70866D02*
D03*
D13*
X274902Y-381102D02*
D03*
X272933D02*
D03*
X270965D02*
D03*
X268996D02*
D03*
X267028D02*
D03*
X265059D02*
D03*
X150492Y-179134D02*
D03*
X152461D02*
D03*
X154429D02*
D03*
X156398D02*
D03*
X158366D02*
D03*
X160335D02*
D03*
D17*
X764748Y-102362D02*
X768701D01*
X764748Y-104331D02*
X768701D01*
X764748Y-110236D02*
X768701D01*
X764748Y-108268D02*
X768701D01*
X764748Y-114173D02*
X768701D01*
X764748Y-112205D02*
X768701D01*
X764748Y-106299D02*
X768701D01*
X764748Y-118110D02*
X768701D01*
X764748Y-116142D02*
X768701D01*
X764748Y-127953D02*
X768701D01*
X764748Y-129921D02*
X768701D01*
X764748Y-135827D02*
X768701D01*
X764748Y-133858D02*
X768701D01*
X764748Y-139764D02*
X768701D01*
X764748Y-137795D02*
X768701D01*
X764748Y-131890D02*
X768701D01*
X764748Y-143701D02*
X768701D01*
X764748Y-141732D02*
X768701D01*
M02*
