G04*
G04 #@! TF.GenerationSoftware,Altium Limited,Altium Designer,23.10.1 (27)*
G04*
G04 Layer_Color=8388736*
%FSLAX25Y25*%
%MOIN*%
G70*
G04*
G04 #@! TF.SameCoordinates,75E589B0-4E0D-4890-912C-9D4B5755E1C0*
G04*
G04*
G04 #@! TF.FilePolarity,Positive*
G04*
G01*
G75*
%ADD11C,0.00787*%
%ADD17C,0.01000*%
%ADD18C,0.01500*%
%ADD19C,0.00197*%
G36*
X9843Y-366142D02*
Y-352362D01*
X787Y-352362D01*
X631D01*
X341Y-352482D01*
X120Y-352704D01*
X0Y-352993D01*
Y-353150D01*
X0D01*
Y-365354D01*
Y-365511D01*
X120Y-365800D01*
X341Y-366022D01*
X631Y-366142D01*
X787D01*
X787Y-366142D01*
X9843Y-366142D01*
D02*
G37*
G36*
Y-208661D02*
Y-194882D01*
X787Y-194882D01*
X631D01*
X341Y-195002D01*
X120Y-195223D01*
X0Y-195513D01*
Y-195669D01*
X0D01*
Y-207874D01*
Y-208031D01*
X120Y-208320D01*
X341Y-208541D01*
X631Y-208661D01*
X787D01*
Y-208661D01*
X9843D01*
D02*
G37*
G36*
Y-149606D02*
Y-96457D01*
X787Y-96457D01*
X631Y-96457D01*
X341Y-96577D01*
X120Y-96798D01*
X0Y-97088D01*
X0Y-97244D01*
X0Y-97244D01*
X0Y-148819D01*
X-0Y-148976D01*
X120Y-149265D01*
X341Y-149486D01*
X631Y-149606D01*
X787Y-149606D01*
D01*
X9843D01*
D02*
G37*
G36*
Y-82677D02*
Y-68898D01*
X787Y-68898D01*
X631D01*
X341Y-69017D01*
X120Y-69239D01*
X0Y-69528D01*
Y-69685D01*
X0D01*
Y-81890D01*
Y-82046D01*
X120Y-82336D01*
X341Y-82557D01*
X631Y-82677D01*
X787D01*
Y-82677D01*
X9843D01*
D02*
G37*
G36*
Y-51378D02*
Y-37598D01*
X787Y-37598D01*
X631D01*
X341Y-37718D01*
X120Y-37940D01*
X0Y-38229D01*
Y-38386D01*
X0D01*
Y-50590D01*
Y-50747D01*
X120Y-51037D01*
X341Y-51258D01*
X631Y-51378D01*
X787D01*
Y-51378D01*
X9843D01*
D02*
G37*
G36*
Y66929D02*
Y80709D01*
X787Y80709D01*
X631D01*
X341Y80589D01*
X120Y80367D01*
X0Y80078D01*
Y79921D01*
X0D01*
Y67716D01*
Y67560D01*
X120Y67270D01*
X341Y67049D01*
X631Y66929D01*
X787D01*
Y66929D01*
X9843D01*
D02*
G37*
G36*
Y106299D02*
Y120079D01*
X787Y120079D01*
X631D01*
X341Y119959D01*
X120Y119737D01*
X0Y119448D01*
Y119291D01*
X0D01*
Y107087D01*
Y106930D01*
X120Y106641D01*
X341Y106419D01*
X631Y106299D01*
X787D01*
Y106299D01*
X9843D01*
D02*
G37*
G36*
X276870Y-374213D02*
X263090D01*
X263091Y-383268D01*
Y-383424D01*
X263210Y-383714D01*
X263432Y-383935D01*
X263721Y-384055D01*
X263878D01*
Y-384055D01*
X276083D01*
X276239D01*
X276529Y-383935D01*
X276750Y-383714D01*
X276870Y-383424D01*
Y-383268D01*
X276870Y-383268D01*
X276870Y-374213D01*
D02*
G37*
G36*
X148524Y-186024D02*
X162303D01*
X162303Y-176969D01*
Y-176812D01*
X162183Y-176523D01*
X161962Y-176301D01*
X161672Y-176181D01*
X161516D01*
Y-176181D01*
X149311D01*
X149154D01*
X148865Y-176301D01*
X148644Y-176523D01*
X148524Y-176812D01*
Y-176969D01*
X148524D01*
Y-186024D01*
D02*
G37*
G36*
X74114Y44685D02*
Y30906D01*
X83169Y30906D01*
X83326D01*
X83615Y31025D01*
X83837Y31247D01*
X83957Y31536D01*
Y31693D01*
X83957D01*
Y43898D01*
Y44054D01*
X83837Y44344D01*
X83615Y44565D01*
X83326Y44685D01*
X83169D01*
Y44685D01*
X74114D01*
D02*
G37*
G36*
X230315Y120079D02*
Y106299D01*
X239370Y106299D01*
X239527D01*
X239816Y106419D01*
X240038Y106641D01*
X240158Y106930D01*
Y107087D01*
X240158D01*
Y119291D01*
Y119448D01*
X240038Y119737D01*
X239816Y119959D01*
X239527Y120079D01*
X239370D01*
Y120079D01*
X230315D01*
D02*
G37*
G36*
X395669Y-68898D02*
Y-82677D01*
X404724Y-82677D01*
X404881D01*
X405170Y-82557D01*
X405392Y-82336D01*
X405512Y-82046D01*
Y-81890D01*
X405512D01*
Y-69685D01*
Y-69528D01*
X405392Y-69239D01*
X405170Y-69017D01*
X404881Y-68898D01*
X404724D01*
Y-68898D01*
X395669D01*
D02*
G37*
G36*
X420472Y91535D02*
Y77756D01*
X429528Y77756D01*
X429684D01*
X429974Y77876D01*
X430195Y78097D01*
X430315Y78387D01*
Y78543D01*
X430315D01*
Y90748D01*
Y90905D01*
X430195Y91194D01*
X429974Y91416D01*
X429684Y91535D01*
X429528D01*
Y91535D01*
X420472D01*
D02*
G37*
G36*
X761811Y-96457D02*
Y-149606D01*
X770866Y-149606D01*
X771023Y-149606D01*
X771312Y-149486D01*
X771534Y-149265D01*
X771654Y-148976D01*
X771653Y-148819D01*
X771654Y-148819D01*
X771654Y-97244D01*
X771654Y-97088D01*
X771534Y-96798D01*
X771312Y-96576D01*
X771023Y-96457D01*
X770866Y-96457D01*
X770866Y-96457D01*
X761811Y-96457D01*
D02*
G37*
D11*
X369093Y67616D02*
X367126D01*
X366142Y66632D01*
Y62696D01*
X367126Y61713D01*
X369093D01*
X370077Y62696D01*
Y66632D01*
X369093Y67616D01*
X372045D02*
Y61713D01*
Y63680D01*
X375981Y67616D01*
X373029Y64664D01*
X375981Y61713D01*
X384837Y66632D02*
Y65648D01*
X383853D01*
X385820D01*
X384837D01*
Y62696D01*
X385820Y61713D01*
X389756D02*
X391724D01*
X392708Y62696D01*
Y64664D01*
X391724Y65648D01*
X389756D01*
X388772Y64664D01*
Y62696D01*
X389756Y61713D01*
X400579D02*
X403531D01*
X404515Y62696D01*
X403531Y63680D01*
X401563D01*
X400579Y64664D01*
X401563Y65648D01*
X404515D01*
X406483D02*
Y62696D01*
X407467Y61713D01*
X410419D01*
Y65648D01*
X412387Y67616D02*
Y61713D01*
X415338D01*
X416322Y62696D01*
Y63680D01*
Y64664D01*
X415338Y65648D01*
X412387D01*
X418290Y61713D02*
X421242D01*
X422226Y62696D01*
X421242Y63680D01*
X419274D01*
X418290Y64664D01*
X419274Y65648D01*
X422226D01*
X425178Y66632D02*
Y65648D01*
X424194D01*
X426162D01*
X425178D01*
Y62696D01*
X426162Y61713D01*
X429113D02*
X431081D01*
X430097D01*
Y65648D01*
X429113D01*
X435017Y66632D02*
Y65648D01*
X434033D01*
X436001D01*
X435017D01*
Y62696D01*
X436001Y61713D01*
X438953Y65648D02*
Y62696D01*
X439937Y61713D01*
X442888D01*
Y65648D01*
X445840Y66632D02*
Y65648D01*
X444856D01*
X446824D01*
X445840D01*
Y62696D01*
X446824Y61713D01*
X452728D02*
X450760D01*
X449776Y62696D01*
Y64664D01*
X450760Y65648D01*
X452728D01*
X453712Y64664D01*
Y63680D01*
X449776D01*
X462567Y61713D02*
Y66632D01*
Y64664D01*
X461583D01*
X463551D01*
X462567D01*
Y66632D01*
X463551Y67616D01*
X467487Y61713D02*
X469455D01*
X470439Y62696D01*
Y64664D01*
X469455Y65648D01*
X467487D01*
X466503Y64664D01*
Y62696D01*
X467487Y61713D01*
X472406Y65648D02*
Y61713D01*
Y63680D01*
X473390Y64664D01*
X474374Y65648D01*
X475358D01*
X484214Y61713D02*
X487165D01*
X488149Y62696D01*
X487165Y63680D01*
X485198D01*
X484214Y64664D01*
X485198Y65648D01*
X488149D01*
X491101Y66632D02*
Y65648D01*
X490117D01*
X492085D01*
X491101D01*
Y62696D01*
X492085Y61713D01*
X496021Y65648D02*
X497989D01*
X498973Y64664D01*
Y61713D01*
X496021D01*
X495037Y62696D01*
X496021Y63680D01*
X498973D01*
X500941Y61713D02*
Y65648D01*
X503892D01*
X504876Y64664D01*
Y61713D01*
X510780Y67616D02*
Y61713D01*
X507828D01*
X506844Y62696D01*
Y64664D01*
X507828Y65648D01*
X510780D01*
X513732D02*
X515700D01*
X516684Y64664D01*
Y61713D01*
X513732D01*
X512748Y62696D01*
X513732Y63680D01*
X516684D01*
X518651Y65648D02*
Y61713D01*
Y63680D01*
X519635Y64664D01*
X520619Y65648D01*
X521603D01*
X528491Y67616D02*
Y61713D01*
X525539D01*
X524555Y62696D01*
Y64664D01*
X525539Y65648D01*
X528491D01*
X536362Y61713D02*
X538330D01*
X537346D01*
Y67616D01*
X536362Y66632D01*
X541282Y64664D02*
X545218D01*
X547186Y61713D02*
X550137D01*
X551121Y62696D01*
X550137Y63680D01*
X548169D01*
X547186Y64664D01*
X548169Y65648D01*
X551121D01*
X553089Y61713D02*
X555057D01*
X554073D01*
Y65648D01*
X553089D01*
X561944Y67616D02*
Y61713D01*
X558993D01*
X558009Y62696D01*
Y64664D01*
X558993Y65648D01*
X561944D01*
X566864Y61713D02*
X564896D01*
X563912Y62696D01*
Y64664D01*
X564896Y65648D01*
X566864D01*
X567848Y64664D01*
Y63680D01*
X563912D01*
X573752Y67616D02*
Y61713D01*
X570800D01*
X569816Y62696D01*
Y64664D01*
X570800Y65648D01*
X573752D01*
X585559Y67616D02*
X581623D01*
Y64664D01*
X583591D01*
X581623D01*
Y61713D01*
X587527D02*
Y67616D01*
X590479D01*
X591463Y66632D01*
Y64664D01*
X590479Y63680D01*
X587527D01*
X597366Y66632D02*
X596382Y67616D01*
X594414D01*
X593430Y66632D01*
Y62696D01*
X594414Y61713D01*
X596382D01*
X597366Y62696D01*
X605238Y61713D02*
X608189D01*
X609173Y62696D01*
X608189Y63680D01*
X606221D01*
X605238Y64664D01*
X606221Y65648D01*
X609173D01*
X612125Y66632D02*
Y65648D01*
X611141D01*
X613109D01*
X612125D01*
Y62696D01*
X613109Y61713D01*
X617045Y65648D02*
X619013D01*
X619997Y64664D01*
Y61713D01*
X617045D01*
X616061Y62696D01*
X617045Y63680D01*
X619997D01*
X625900Y65648D02*
X622948D01*
X621964Y64664D01*
Y62696D01*
X622948Y61713D01*
X625900D01*
X627868D02*
Y67616D01*
Y63680D02*
X630820Y65648D01*
X627868Y63680D02*
X630820Y61713D01*
X639675Y65648D02*
Y62696D01*
X640659Y61713D01*
X641643Y62696D01*
X642627Y61713D01*
X643611Y62696D01*
Y65648D01*
X645579Y61713D02*
X647547D01*
X646563D01*
Y65648D01*
X645579D01*
X651482Y66632D02*
Y65648D01*
X650498D01*
X652466D01*
X651482D01*
Y62696D01*
X652466Y61713D01*
X655418Y67616D02*
Y61713D01*
Y64664D01*
X656402Y65648D01*
X658370D01*
X659354Y64664D01*
Y61713D01*
X667225D02*
X670177D01*
X671161Y62696D01*
X670177Y63680D01*
X668209D01*
X667225Y64664D01*
X668209Y65648D01*
X671161D01*
X674113Y66632D02*
Y65648D01*
X673129D01*
X675097D01*
X674113D01*
Y62696D01*
X675097Y61713D01*
X678049D02*
X680017D01*
X679033D01*
Y65648D01*
X678049D01*
X683952Y61713D02*
Y66632D01*
Y64664D01*
X682968D01*
X684936D01*
X683952D01*
Y66632D01*
X684936Y67616D01*
X688872Y61713D02*
Y66632D01*
Y64664D01*
X687888D01*
X689856D01*
X688872D01*
Y66632D01*
X689856Y67616D01*
X695759Y61713D02*
X693792D01*
X692808Y62696D01*
Y64664D01*
X693792Y65648D01*
X695759D01*
X696743Y64664D01*
Y63680D01*
X692808D01*
X698711Y61713D02*
Y65648D01*
X701663D01*
X702647Y64664D01*
Y61713D01*
X707567D02*
X705599D01*
X704615Y62696D01*
Y64664D01*
X705599Y65648D01*
X707567D01*
X708551Y64664D01*
Y63680D01*
X704615D01*
X710519Y65648D02*
Y61713D01*
Y63680D01*
X711502Y64664D01*
X712486Y65648D01*
X713470D01*
X436417Y-48819D02*
X434449Y-46851D01*
Y-44883D01*
X436417Y-42915D01*
X439368Y-48819D02*
Y-44883D01*
X442320D01*
X443304Y-45867D01*
Y-48819D01*
X446256D02*
X448224D01*
X449208Y-47835D01*
Y-45867D01*
X448224Y-44883D01*
X446256D01*
X445272Y-45867D01*
Y-47835D01*
X446256Y-48819D01*
X451176D02*
Y-44883D01*
X454128D01*
X455111Y-45867D01*
Y-48819D01*
X457079Y-45867D02*
X461015D01*
X462983Y-48819D02*
X465935D01*
X466919Y-47835D01*
X465935Y-46851D01*
X463967D01*
X462983Y-45867D01*
X463967Y-44883D01*
X466919D01*
X469870Y-43899D02*
Y-44883D01*
X468887D01*
X470854D01*
X469870D01*
Y-47835D01*
X470854Y-48819D01*
X473806D02*
X475774D01*
X474790D01*
Y-44883D01*
X473806D01*
X479710Y-48819D02*
Y-43899D01*
Y-45867D01*
X478726D01*
X480694D01*
X479710D01*
Y-43899D01*
X480694Y-42915D01*
X484629Y-48819D02*
Y-43899D01*
Y-45867D01*
X483645D01*
X485613D01*
X484629D01*
Y-43899D01*
X485613Y-42915D01*
X491517Y-48819D02*
X489549D01*
X488565Y-47835D01*
Y-45867D01*
X489549Y-44883D01*
X491517D01*
X492501Y-45867D01*
Y-46851D01*
X488565D01*
X494469Y-48819D02*
Y-44883D01*
X497421D01*
X498405Y-45867D01*
Y-48819D01*
X503324D02*
X501356D01*
X500372Y-47835D01*
Y-45867D01*
X501356Y-44883D01*
X503324D01*
X504308Y-45867D01*
Y-46851D01*
X500372D01*
X506276Y-44883D02*
Y-48819D01*
Y-46851D01*
X507260Y-45867D01*
X508244Y-44883D01*
X509228D01*
X519067D02*
X521035D01*
X522019Y-45867D01*
Y-48819D01*
X519067D01*
X518083Y-47835D01*
X519067Y-46851D01*
X522019D01*
X523987Y-44883D02*
Y-48819D01*
Y-46851D01*
X524971Y-45867D01*
X525955Y-44883D01*
X526939D01*
X532842Y-48819D02*
X530874D01*
X529890Y-47835D01*
Y-45867D01*
X530874Y-44883D01*
X532842D01*
X533826Y-45867D01*
Y-46851D01*
X529890D01*
X536778Y-44883D02*
X538746D01*
X539730Y-45867D01*
Y-48819D01*
X536778D01*
X535794Y-47835D01*
X536778Y-46851D01*
X539730D01*
X541698Y-48819D02*
X543665Y-46851D01*
Y-44883D01*
X541698Y-42915D01*
X296752Y-59056D02*
Y-53152D01*
X299704D01*
X300688Y-54136D01*
Y-56104D01*
X299704Y-57088D01*
X296752D01*
X302656Y-59056D02*
X304623D01*
X303640D01*
Y-53152D01*
X302656D01*
X310527Y-59056D02*
X308559D01*
X307575Y-58072D01*
Y-56104D01*
X308559Y-55120D01*
X310527D01*
X311511Y-56104D01*
Y-57088D01*
X307575D01*
X314463Y-55120D02*
X316431D01*
X317415Y-56104D01*
Y-59056D01*
X314463D01*
X313479Y-58072D01*
X314463Y-57088D01*
X317415D01*
X319382Y-59056D02*
X322334D01*
X323318Y-58072D01*
X322334Y-57088D01*
X320366D01*
X319382Y-56104D01*
X320366Y-55120D01*
X323318D01*
X328238Y-59056D02*
X326270D01*
X325286Y-58072D01*
Y-56104D01*
X326270Y-55120D01*
X328238D01*
X329222Y-56104D01*
Y-57088D01*
X325286D01*
X337093Y-61024D02*
Y-55120D01*
X340045D01*
X341029Y-56104D01*
Y-58072D01*
X340045Y-59056D01*
X337093D01*
X343981Y-55120D02*
X345949D01*
X346933Y-56104D01*
Y-59056D01*
X343981D01*
X342997Y-58072D01*
X343981Y-57088D01*
X346933D01*
X348900Y-59056D02*
Y-55120D01*
X351852D01*
X352836Y-56104D01*
Y-59056D01*
X357756D02*
X355788D01*
X354804Y-58072D01*
Y-56104D01*
X355788Y-55120D01*
X357756D01*
X358740Y-56104D01*
Y-57088D01*
X354804D01*
X360708Y-59056D02*
X362675D01*
X361692D01*
Y-53152D01*
X360708D01*
X365627Y-59056D02*
X367595D01*
X366611D01*
Y-55120D01*
X365627D01*
X370547D02*
X374483D01*
X370547Y-59056D01*
X374483D01*
X379402D02*
X377434D01*
X376451Y-58072D01*
Y-56104D01*
X377434Y-55120D01*
X379402D01*
X380386Y-56104D01*
Y-57088D01*
X376451D01*
X388258Y-53152D02*
Y-59056D01*
X391210D01*
X392194Y-58072D01*
Y-57088D01*
Y-56104D01*
X391210Y-55120D01*
X388258D01*
X395145Y-59056D02*
X397113D01*
X398097Y-58072D01*
Y-56104D01*
X397113Y-55120D01*
X395145D01*
X394161Y-56104D01*
Y-58072D01*
X395145Y-59056D01*
X401049Y-55120D02*
X403017D01*
X404001Y-56104D01*
Y-59056D01*
X401049D01*
X400065Y-58072D01*
X401049Y-57088D01*
X404001D01*
X405969Y-55120D02*
Y-59056D01*
Y-57088D01*
X406952Y-56104D01*
X407936Y-55120D01*
X408920D01*
X415808Y-53152D02*
Y-59056D01*
X412856D01*
X411872Y-58072D01*
Y-56104D01*
X412856Y-55120D01*
X415808D01*
X417776Y-59056D02*
X420728D01*
X421711Y-58072D01*
X420728Y-57088D01*
X418760D01*
X417776Y-56104D01*
X418760Y-55120D01*
X421711D01*
X430567Y-54136D02*
Y-55120D01*
X429583D01*
X431551D01*
X430567D01*
Y-58072D01*
X431551Y-59056D01*
X435487D02*
X437454D01*
X438438Y-58072D01*
Y-56104D01*
X437454Y-55120D01*
X435487D01*
X434503Y-56104D01*
Y-58072D01*
X435487Y-59056D01*
X447294D02*
X449262D01*
X450246Y-58072D01*
Y-56104D01*
X449262Y-55120D01*
X447294D01*
X446310Y-56104D01*
Y-58072D01*
X447294Y-59056D01*
X452213Y-61024D02*
Y-55120D01*
X455165D01*
X456149Y-56104D01*
Y-58072D01*
X455165Y-59056D01*
X452213D01*
X459101Y-54136D02*
Y-55120D01*
X458117D01*
X460085D01*
X459101D01*
Y-58072D01*
X460085Y-59056D01*
X463037D02*
X465005D01*
X464021D01*
Y-55120D01*
X463037D01*
X467956Y-59056D02*
Y-55120D01*
X468940D01*
X469924Y-56104D01*
Y-59056D01*
Y-56104D01*
X470908Y-55120D01*
X471892Y-56104D01*
Y-59056D01*
X473860D02*
X475828D01*
X474844D01*
Y-55120D01*
X473860D01*
X478780D02*
X482715D01*
X478780Y-59056D01*
X482715D01*
X487635D02*
X485667D01*
X484683Y-58072D01*
Y-56104D01*
X485667Y-55120D01*
X487635D01*
X488619Y-56104D01*
Y-57088D01*
X484683D01*
X500426Y-55120D02*
X497474D01*
X496490Y-56104D01*
Y-58072D01*
X497474Y-59056D01*
X500426D01*
X503378D02*
X505346D01*
X506330Y-58072D01*
Y-56104D01*
X505346Y-55120D01*
X503378D01*
X502394Y-56104D01*
Y-58072D01*
X503378Y-59056D01*
X508298D02*
X511249D01*
X512233Y-58072D01*
X511249Y-57088D01*
X509282D01*
X508298Y-56104D01*
X509282Y-55120D01*
X512233D01*
X515185Y-54136D02*
Y-55120D01*
X514201D01*
X516169D01*
X515185D01*
Y-58072D01*
X516169Y-59056D01*
D17*
X598756Y-43313D02*
X599756Y-42313D01*
X601755D01*
X602755Y-43313D01*
Y-47311D01*
X601755Y-48311D01*
X599756D01*
X598756Y-47311D01*
Y-43313D01*
X604754Y-48311D02*
Y-47311D01*
X605754D01*
Y-48311D01*
X604754D01*
X609753D02*
X611752D01*
X610752D01*
Y-42313D01*
X609753Y-43313D01*
X614751Y-48311D02*
X616750D01*
X615751D01*
Y-42313D01*
X614751Y-43313D01*
X619749D02*
X620749Y-42313D01*
X622748D01*
X623748Y-43313D01*
Y-47311D01*
X622748Y-48311D01*
X620749D01*
X619749Y-47311D01*
Y-43313D01*
X625747Y-48311D02*
Y-44312D01*
X626747D01*
X627747Y-45312D01*
Y-48311D01*
Y-45312D01*
X628746Y-44312D01*
X629746Y-45312D01*
Y-48311D01*
X631745D02*
Y-44312D01*
X632745D01*
X633745Y-45312D01*
Y-48311D01*
Y-45312D01*
X634745Y-44312D01*
X635744Y-45312D01*
Y-48311D01*
X295841Y-42313D02*
X299839D01*
X297840D01*
Y-48311D01*
X302838D02*
X304838D01*
X305837Y-47311D01*
Y-45312D01*
X304838Y-44312D01*
X302838D01*
X301839Y-45312D01*
Y-47311D01*
X302838Y-48311D01*
X308836Y-43313D02*
Y-44312D01*
X307837D01*
X309836D01*
X308836D01*
Y-47311D01*
X309836Y-48311D01*
X313835Y-44312D02*
X315834D01*
X316834Y-45312D01*
Y-48311D01*
X313835D01*
X312835Y-47311D01*
X313835Y-46312D01*
X316834D01*
X318833Y-48311D02*
X320832D01*
X319833D01*
Y-42313D01*
X318833D01*
X329830D02*
Y-48311D01*
X332829D01*
X333828Y-47311D01*
Y-46312D01*
Y-45312D01*
X332829Y-44312D01*
X329830D01*
X336827Y-48311D02*
X338827D01*
X339826Y-47311D01*
Y-45312D01*
X338827Y-44312D01*
X336827D01*
X335828Y-45312D01*
Y-47311D01*
X336827Y-48311D01*
X342825Y-44312D02*
X344825D01*
X345824Y-45312D01*
Y-48311D01*
X342825D01*
X341826Y-47311D01*
X342825Y-46312D01*
X345824D01*
X347824Y-44312D02*
Y-48311D01*
Y-46312D01*
X348823Y-45312D01*
X349823Y-44312D01*
X350823D01*
X357821Y-42313D02*
Y-48311D01*
X354821D01*
X353822Y-47311D01*
Y-45312D01*
X354821Y-44312D01*
X357821D01*
X366818Y-43313D02*
Y-44312D01*
X365818D01*
X367817D01*
X366818D01*
Y-47311D01*
X367817Y-48311D01*
X370816Y-42313D02*
Y-48311D01*
Y-45312D01*
X371816Y-44312D01*
X373815D01*
X374815Y-45312D01*
Y-48311D01*
X376814D02*
X378814D01*
X377814D01*
Y-44312D01*
X376814D01*
X385811D02*
X382812D01*
X381813Y-45312D01*
Y-47311D01*
X382812Y-48311D01*
X385811D01*
X387811D02*
Y-42313D01*
Y-46312D02*
X390810Y-44312D01*
X387811Y-46312D02*
X390810Y-48311D01*
X393809D02*
Y-44312D01*
X396808D01*
X397808Y-45312D01*
Y-48311D01*
X402806D02*
X400807D01*
X399807Y-47311D01*
Y-45312D01*
X400807Y-44312D01*
X402806D01*
X403806Y-45312D01*
Y-46312D01*
X399807D01*
X405805Y-48311D02*
X408804D01*
X409804Y-47311D01*
X408804Y-46312D01*
X406805D01*
X405805Y-45312D01*
X406805Y-44312D01*
X409804D01*
X411803Y-48311D02*
X414802D01*
X415802Y-47311D01*
X414802Y-46312D01*
X412803D01*
X411803Y-45312D01*
X412803Y-44312D01*
X415802D01*
X417801D02*
X418801D01*
Y-45312D01*
X417801D01*
Y-44312D01*
Y-47311D02*
X418801D01*
Y-48311D01*
X417801D01*
Y-47311D01*
X666739Y23689D02*
Y29687D01*
X663740Y26688D01*
X667738D01*
X666739Y-311D02*
Y5687D01*
X663740Y2688D01*
X667738D01*
X669738Y-311D02*
Y689D01*
X670737D01*
Y-311D01*
X669738D01*
X674736Y4687D02*
X675736Y5687D01*
X677735D01*
X678735Y4687D01*
Y3688D01*
X677735Y2688D01*
X678735Y1688D01*
Y689D01*
X677735Y-311D01*
X675736D01*
X674736Y689D01*
Y1688D01*
X675736Y2688D01*
X674736Y3688D01*
Y4687D01*
X675736Y2688D02*
X677735D01*
X666739Y-24311D02*
Y-18313D01*
X663740Y-21312D01*
X667738D01*
Y52687D02*
X666739Y53687D01*
X664739D01*
X663740Y52687D01*
Y48689D01*
X664739Y47689D01*
X666739D01*
X667738Y48689D01*
X670737Y47689D02*
X672737D01*
X673736Y48689D01*
Y50688D01*
X672737Y51688D01*
X670737D01*
X669738Y50688D01*
Y48689D01*
X670737Y47689D01*
X675736D02*
Y51688D01*
X678735D01*
X679735Y50688D01*
Y47689D01*
X681734D02*
X684733D01*
X685733Y48689D01*
X684733Y49688D01*
X682733D01*
X681734Y50688D01*
X682733Y51688D01*
X685733D01*
X688732Y52687D02*
Y51688D01*
X687732D01*
X689731D01*
X688732D01*
Y48689D01*
X689731Y47689D01*
X693730Y51688D02*
X695729D01*
X696729Y50688D01*
Y47689D01*
X693730D01*
X692730Y48689D01*
X693730Y49688D01*
X696729D01*
X698728Y47689D02*
Y51688D01*
X701727D01*
X702727Y50688D01*
Y47689D01*
X705726Y52687D02*
Y51688D01*
X704726D01*
X706726D01*
X705726D01*
Y48689D01*
X706726Y47689D01*
X598756Y28687D02*
X599756Y29687D01*
X601755D01*
X602755Y28687D01*
Y24689D01*
X601755Y23689D01*
X599756D01*
X598756Y24689D01*
Y28687D01*
X604754Y23689D02*
Y24689D01*
X605754D01*
Y23689D01*
X604754D01*
X609753Y28687D02*
X610752Y29687D01*
X612752D01*
X613751Y28687D01*
Y24689D01*
X612752Y23689D01*
X610752D01*
X609753Y24689D01*
Y28687D01*
X615751Y23689D02*
X617750D01*
X616750D01*
Y29687D01*
X615751Y28687D01*
X624748Y23689D02*
X620749D01*
X624748Y27688D01*
Y28687D01*
X623748Y29687D01*
X621749D01*
X620749Y28687D01*
X626747Y23689D02*
Y27688D01*
X627747D01*
X628746Y26688D01*
Y23689D01*
Y26688D01*
X629746Y27688D01*
X630746Y26688D01*
Y23689D01*
X632745D02*
Y27688D01*
X633745D01*
X634745Y26688D01*
Y23689D01*
Y26688D01*
X635744Y27688D01*
X636744Y26688D01*
Y23689D01*
X598756Y16687D02*
X599756Y17687D01*
X601755D01*
X602755Y16687D01*
Y12689D01*
X601755Y11689D01*
X599756D01*
X598756Y12689D01*
Y16687D01*
X604754Y11689D02*
Y12689D01*
X605754D01*
Y11689D01*
X604754D01*
X609753Y16687D02*
X610752Y17687D01*
X612752D01*
X613751Y16687D01*
Y12689D01*
X612752Y11689D01*
X610752D01*
X609753Y12689D01*
Y16687D01*
X615751D02*
X616750Y17687D01*
X618750D01*
X619749Y16687D01*
Y15688D01*
X618750Y14688D01*
X617750D01*
X618750D01*
X619749Y13688D01*
Y12689D01*
X618750Y11689D01*
X616750D01*
X615751Y12689D01*
X625747Y17687D02*
X623748Y16687D01*
X621749Y14688D01*
Y12689D01*
X622748Y11689D01*
X624748D01*
X625747Y12689D01*
Y13688D01*
X624748Y14688D01*
X621749D01*
X627747Y11689D02*
Y15688D01*
X628746D01*
X629746Y14688D01*
Y11689D01*
Y14688D01*
X630746Y15688D01*
X631745Y14688D01*
Y11689D01*
X633745D02*
Y15688D01*
X634745D01*
X635744Y14688D01*
Y11689D01*
Y14688D01*
X636744Y15688D01*
X637744Y14688D01*
Y11689D01*
X598756Y4687D02*
X599756Y5687D01*
X601755D01*
X602755Y4687D01*
Y689D01*
X601755Y-311D01*
X599756D01*
X598756Y689D01*
Y4687D01*
X604754Y-311D02*
Y689D01*
X605754D01*
Y-311D01*
X604754D01*
X609753Y4687D02*
X610752Y5687D01*
X612752D01*
X613751Y4687D01*
Y689D01*
X612752Y-311D01*
X610752D01*
X609753Y689D01*
Y4687D01*
X615751Y-311D02*
X617750D01*
X616750D01*
Y5687D01*
X615751Y4687D01*
X624748Y5687D02*
X620749D01*
Y2688D01*
X622748Y3688D01*
X623748D01*
X624748Y2688D01*
Y689D01*
X623748Y-311D01*
X621749D01*
X620749Y689D01*
X626747Y-311D02*
Y3688D01*
X627747D01*
X628746Y2688D01*
Y-311D01*
Y2688D01*
X629746Y3688D01*
X630746Y2688D01*
Y-311D01*
X632745D02*
Y3688D01*
X633745D01*
X634745Y2688D01*
Y-311D01*
Y2688D01*
X635744Y3688D01*
X636744Y2688D01*
Y-311D01*
X598756Y-7313D02*
X599756Y-6313D01*
X601755D01*
X602755Y-7313D01*
Y-11311D01*
X601755Y-12311D01*
X599756D01*
X598756Y-11311D01*
Y-7313D01*
X604754Y-12311D02*
Y-11311D01*
X605754D01*
Y-12311D01*
X604754D01*
X609753Y-7313D02*
X610752Y-6313D01*
X612752D01*
X613751Y-7313D01*
Y-11311D01*
X612752Y-12311D01*
X610752D01*
X609753Y-11311D01*
Y-7313D01*
X615751D02*
X616750Y-6313D01*
X618750D01*
X619749Y-7313D01*
Y-8312D01*
X618750Y-9312D01*
X617750D01*
X618750D01*
X619749Y-10312D01*
Y-11311D01*
X618750Y-12311D01*
X616750D01*
X615751Y-11311D01*
X625747Y-6313D02*
X623748Y-7313D01*
X621749Y-9312D01*
Y-11311D01*
X622748Y-12311D01*
X624748D01*
X625747Y-11311D01*
Y-10312D01*
X624748Y-9312D01*
X621749D01*
X627747Y-12311D02*
Y-8312D01*
X628746D01*
X629746Y-9312D01*
Y-12311D01*
Y-9312D01*
X630746Y-8312D01*
X631745Y-9312D01*
Y-12311D01*
X633745D02*
Y-8312D01*
X634745D01*
X635744Y-9312D01*
Y-12311D01*
Y-9312D01*
X636744Y-8312D01*
X637744Y-9312D01*
Y-12311D01*
X598756Y-19313D02*
X599756Y-18313D01*
X601755D01*
X602755Y-19313D01*
Y-23311D01*
X601755Y-24311D01*
X599756D01*
X598756Y-23311D01*
Y-19313D01*
X604754Y-24311D02*
Y-23311D01*
X605754D01*
Y-24311D01*
X604754D01*
X609753Y-19313D02*
X610752Y-18313D01*
X612752D01*
X613751Y-19313D01*
Y-23311D01*
X612752Y-24311D01*
X610752D01*
X609753Y-23311D01*
Y-19313D01*
X615751Y-24311D02*
X617750D01*
X616750D01*
Y-18313D01*
X615751Y-19313D01*
X624748Y-24311D02*
X620749D01*
X624748Y-20312D01*
Y-19313D01*
X623748Y-18313D01*
X621749D01*
X620749Y-19313D01*
X626747Y-24311D02*
Y-20312D01*
X627747D01*
X628746Y-21312D01*
Y-24311D01*
Y-21312D01*
X629746Y-20312D01*
X630746Y-21312D01*
Y-24311D01*
X632745D02*
Y-20312D01*
X633745D01*
X634745Y-21312D01*
Y-24311D01*
Y-21312D01*
X635744Y-20312D01*
X636744Y-21312D01*
Y-24311D01*
X598756Y53687D02*
X602755D01*
X600756D01*
Y47689D01*
X604754Y53687D02*
Y47689D01*
Y50688D01*
X605754Y51688D01*
X607753D01*
X608753Y50688D01*
Y47689D01*
X610752D02*
X612752D01*
X611752D01*
Y51688D01*
X610752D01*
X619749D02*
X616750D01*
X615751Y50688D01*
Y48689D01*
X616750Y47689D01*
X619749D01*
X621749D02*
Y53687D01*
Y49688D02*
X624748Y51688D01*
X621749Y49688D02*
X624748Y47689D01*
X627747D02*
Y51688D01*
X630746D01*
X631745Y50688D01*
Y47689D01*
X636744D02*
X634745D01*
X633745Y48689D01*
Y50688D01*
X634745Y51688D01*
X636744D01*
X637744Y50688D01*
Y49688D01*
X633745D01*
X639743Y47689D02*
X642742D01*
X643742Y48689D01*
X642742Y49688D01*
X640743D01*
X639743Y50688D01*
X640743Y51688D01*
X643742D01*
X645741Y47689D02*
X648740D01*
X649740Y48689D01*
X648740Y49688D01*
X646741D01*
X645741Y50688D01*
X646741Y51688D01*
X649740D01*
X546768Y29687D02*
X542770D01*
Y26688D01*
X544769D01*
X542770D01*
Y23689D01*
X552767Y28687D02*
X551767Y29687D01*
X549767D01*
X548768Y28687D01*
Y24689D01*
X549767Y23689D01*
X551767D01*
X552767Y24689D01*
X554766Y26688D02*
X558765D01*
X560764Y28687D02*
X561764Y29687D01*
X563763D01*
X564763Y28687D01*
Y24689D01*
X563763Y23689D01*
X561764D01*
X560764Y24689D01*
Y28687D01*
X566762D02*
X567762Y29687D01*
X569761D01*
X570761Y28687D01*
Y24689D01*
X569761Y23689D01*
X567762D01*
X566762Y24689D01*
Y28687D01*
X572760Y23689D02*
X574759D01*
X573760D01*
Y29687D01*
X572760Y28687D01*
X542770Y-311D02*
Y5687D01*
X545769D01*
X546768Y4687D01*
Y2688D01*
X545769Y1688D01*
X542770D01*
X548768Y5687D02*
X550767D01*
X549767D01*
Y-311D01*
X548768D01*
X550767D01*
X546768Y-18313D02*
X542770D01*
Y-21312D01*
X544769D01*
X542770D01*
Y-24311D01*
X552767Y-19313D02*
X551767Y-18313D01*
X549767D01*
X548768Y-19313D01*
Y-23311D01*
X549767Y-24311D01*
X551767D01*
X552767Y-23311D01*
X554766Y-21312D02*
X558765D01*
X560764Y-19313D02*
X561764Y-18313D01*
X563763D01*
X564763Y-19313D01*
Y-23311D01*
X563763Y-24311D01*
X561764D01*
X560764Y-23311D01*
Y-19313D01*
X566762D02*
X567762Y-18313D01*
X569761D01*
X570761Y-19313D01*
Y-23311D01*
X569761Y-24311D01*
X567762D01*
X566762Y-23311D01*
Y-19313D01*
X572760Y-24311D02*
X574759D01*
X573760D01*
Y-18313D01*
X572760Y-19313D01*
X542770Y47689D02*
Y53687D01*
X544769Y51688D01*
X546768Y53687D01*
Y47689D01*
X549767Y51688D02*
X551767D01*
X552767Y50688D01*
Y47689D01*
X549767D01*
X548768Y48689D01*
X549767Y49688D01*
X552767D01*
X555765Y52687D02*
Y51688D01*
X554766D01*
X556765D01*
X555765D01*
Y48689D01*
X556765Y47689D01*
X562763D02*
X560764D01*
X559764Y48689D01*
Y50688D01*
X560764Y51688D01*
X562763D01*
X563763Y50688D01*
Y49688D01*
X559764D01*
X565762Y51688D02*
Y47689D01*
Y49688D01*
X566762Y50688D01*
X567762Y51688D01*
X568761D01*
X571760Y47689D02*
X573760D01*
X572760D01*
Y51688D01*
X571760D01*
X577758D02*
X579758D01*
X580757Y50688D01*
Y47689D01*
X577758D01*
X576759Y48689D01*
X577758Y49688D01*
X580757D01*
X582757Y47689D02*
X584756D01*
X583756D01*
Y53687D01*
X582757D01*
X336832Y41687D02*
X340830D01*
X338831D01*
Y35689D01*
X343830D02*
X345829D01*
X346829Y36689D01*
Y38688D01*
X345829Y39688D01*
X343830D01*
X342830Y38688D01*
Y36689D01*
X343830Y35689D01*
X348828Y33690D02*
Y39688D01*
X351827D01*
X352827Y38688D01*
Y36689D01*
X351827Y35689D01*
X348828D01*
X363823Y41687D02*
X361824D01*
X360824Y40687D01*
Y36689D01*
X361824Y35689D01*
X363823D01*
X364823Y36689D01*
Y40687D01*
X363823Y41687D01*
X366822Y39688D02*
X368822Y35689D01*
X370821Y39688D01*
X375819Y35689D02*
X373820D01*
X372820Y36689D01*
Y38688D01*
X373820Y39688D01*
X375819D01*
X376819Y38688D01*
Y37688D01*
X372820D01*
X378818Y39688D02*
Y35689D01*
Y37688D01*
X379818Y38688D01*
X380818Y39688D01*
X381817D01*
X384816Y35689D02*
X386816D01*
X385816D01*
Y41687D01*
X384816D01*
X390814Y39688D02*
X392814D01*
X393813Y38688D01*
Y35689D01*
X390814D01*
X389815Y36689D01*
X390814Y37688D01*
X393813D01*
X395813Y39688D02*
Y36689D01*
X396812Y35689D01*
X399812D01*
Y34689D01*
X398812Y33690D01*
X397812D01*
X399812Y35689D02*
Y39688D01*
X336832Y29687D02*
Y23689D01*
X339831D01*
X340830Y24689D01*
Y25688D01*
X339831Y26688D01*
X336832D01*
X339831D01*
X340830Y27688D01*
Y28687D01*
X339831Y29687D01*
X336832D01*
X343830Y23689D02*
X345829D01*
X346829Y24689D01*
Y26688D01*
X345829Y27688D01*
X343830D01*
X342830Y26688D01*
Y24689D01*
X343830Y23689D01*
X349828Y27688D02*
X351827D01*
X352827Y26688D01*
Y23689D01*
X349828D01*
X348828Y24689D01*
X349828Y25688D01*
X352827D01*
X354826Y27688D02*
Y23689D01*
Y25688D01*
X355826Y26688D01*
X356825Y27688D01*
X357825D01*
X364823Y29687D02*
Y23689D01*
X361824D01*
X360824Y24689D01*
Y26688D01*
X361824Y27688D01*
X364823D01*
X372820Y29687D02*
Y23689D01*
X376819D01*
X379818Y27688D02*
X381817D01*
X382817Y26688D01*
Y23689D01*
X379818D01*
X378818Y24689D01*
X379818Y25688D01*
X382817D01*
X384816Y27688D02*
Y24689D01*
X385816Y23689D01*
X388815D01*
Y22689D01*
X387815Y21690D01*
X386816D01*
X388815Y23689D02*
Y27688D01*
X393813Y23689D02*
X391814D01*
X390814Y24689D01*
Y26688D01*
X391814Y27688D01*
X393813D01*
X394813Y26688D01*
Y25688D01*
X390814D01*
X396812Y27688D02*
Y23689D01*
Y25688D01*
X397812Y26688D01*
X398812Y27688D01*
X399812D01*
X412807Y28687D02*
X411808Y29687D01*
X409808D01*
X408809Y28687D01*
Y27688D01*
X409808Y26688D01*
X411808D01*
X412807Y25688D01*
Y24689D01*
X411808Y23689D01*
X409808D01*
X408809Y24689D01*
X415806Y28687D02*
Y27688D01*
X414807D01*
X416806D01*
X415806D01*
Y24689D01*
X416806Y23689D01*
X420805Y27688D02*
X422804D01*
X423804Y26688D01*
Y23689D01*
X420805D01*
X419805Y24689D01*
X420805Y25688D01*
X423804D01*
X429802Y27688D02*
X426803D01*
X425803Y26688D01*
Y24689D01*
X426803Y23689D01*
X429802D01*
X431801D02*
Y29687D01*
Y25688D02*
X434800Y27688D01*
X431801Y25688D02*
X434800Y23689D01*
X443797Y29687D02*
X447796D01*
X445797D01*
Y23689D01*
X450795D02*
X452794D01*
X453794Y24689D01*
Y26688D01*
X452794Y27688D01*
X450795D01*
X449795Y26688D01*
Y24689D01*
X450795Y23689D01*
X455793Y21690D02*
Y27688D01*
X458792D01*
X459792Y26688D01*
Y24689D01*
X458792Y23689D01*
X455793D01*
X471788Y28687D02*
X470788Y29687D01*
X468789D01*
X467790Y28687D01*
Y24689D01*
X468789Y23689D01*
X470788D01*
X471788Y24689D01*
X474787Y23689D02*
X476787D01*
X477786Y24689D01*
Y26688D01*
X476787Y27688D01*
X474787D01*
X473787Y26688D01*
Y24689D01*
X474787Y23689D01*
X479786Y27688D02*
X481785Y23689D01*
X483784Y27688D01*
X488783Y23689D02*
X486783D01*
X485784Y24689D01*
Y26688D01*
X486783Y27688D01*
X488783D01*
X489782Y26688D01*
Y25688D01*
X485784D01*
X491782Y27688D02*
Y23689D01*
Y25688D01*
X492781Y26688D01*
X493781Y27688D01*
X494781D01*
X497780Y23689D02*
X499779D01*
X498779D01*
Y29687D01*
X497780D01*
X503778Y27688D02*
X505777D01*
X506777Y26688D01*
Y23689D01*
X503778D01*
X502778Y24689D01*
X503778Y25688D01*
X506777D01*
X508776Y27688D02*
Y24689D01*
X509776Y23689D01*
X512775D01*
Y22689D01*
X511775Y21690D01*
X510776D01*
X512775Y23689D02*
Y27688D01*
X336832Y17687D02*
X340830D01*
X338831D01*
Y11689D01*
X343830D02*
X345829D01*
X346829Y12689D01*
Y14688D01*
X345829Y15688D01*
X343830D01*
X342830Y14688D01*
Y12689D01*
X343830Y11689D01*
X348828Y9690D02*
Y15688D01*
X351827D01*
X352827Y14688D01*
Y12689D01*
X351827Y11689D01*
X348828D01*
X360824Y17687D02*
Y11689D01*
X364823D01*
X367822Y15688D02*
X369821D01*
X370821Y14688D01*
Y11689D01*
X367822D01*
X366822Y12689D01*
X367822Y13688D01*
X370821D01*
X372820Y15688D02*
Y12689D01*
X373820Y11689D01*
X376819D01*
Y10689D01*
X375819Y9690D01*
X374819D01*
X376819Y11689D02*
Y15688D01*
X381817Y11689D02*
X379818D01*
X378818Y12689D01*
Y14688D01*
X379818Y15688D01*
X381817D01*
X382817Y14688D01*
Y13688D01*
X378818D01*
X384816Y15688D02*
Y11689D01*
Y13688D01*
X385816Y14688D01*
X386816Y15688D01*
X387815D01*
X336832Y5687D02*
Y-311D01*
X339831D01*
X340830Y689D01*
Y4687D01*
X339831Y5687D01*
X336832D01*
X342830Y-311D02*
X344829D01*
X343830D01*
Y3688D01*
X342830D01*
X350827Y-311D02*
X348828D01*
X347828Y689D01*
Y2688D01*
X348828Y3688D01*
X350827D01*
X351827Y2688D01*
Y1688D01*
X347828D01*
X353826Y-311D02*
X355826D01*
X354826D01*
Y5687D01*
X353826D01*
X361824Y-311D02*
X359824D01*
X358825Y689D01*
Y2688D01*
X359824Y3688D01*
X361824D01*
X362823Y2688D01*
Y1688D01*
X358825D01*
X368822Y3688D02*
X365822D01*
X364823Y2688D01*
Y689D01*
X365822Y-311D01*
X368822D01*
X371820Y4687D02*
Y3688D01*
X370821D01*
X372820D01*
X371820D01*
Y689D01*
X372820Y-311D01*
X375819Y3688D02*
Y-311D01*
Y1688D01*
X376819Y2688D01*
X377819Y3688D01*
X378818D01*
X381817Y-311D02*
X383817D01*
X382817D01*
Y3688D01*
X381817D01*
X390814D02*
X387815D01*
X386816Y2688D01*
Y689D01*
X387815Y-311D01*
X390814D01*
X398812D02*
X400811D01*
X399811D01*
Y5687D01*
X398812Y4687D01*
X336832Y-6313D02*
Y-12311D01*
X339831D01*
X340830Y-11311D01*
Y-10312D01*
X339831Y-9312D01*
X336832D01*
X339831D01*
X340830Y-8312D01*
Y-7313D01*
X339831Y-6313D01*
X336832D01*
X343830Y-12311D02*
X345829D01*
X346829Y-11311D01*
Y-9312D01*
X345829Y-8312D01*
X343830D01*
X342830Y-9312D01*
Y-11311D01*
X343830Y-12311D01*
X349828Y-7313D02*
Y-8312D01*
X348828D01*
X350827D01*
X349828D01*
Y-11311D01*
X350827Y-12311D01*
X354826Y-7313D02*
Y-8312D01*
X353826D01*
X355826D01*
X354826D01*
Y-11311D01*
X355826Y-12311D01*
X359824D02*
X361824D01*
X362823Y-11311D01*
Y-9312D01*
X361824Y-8312D01*
X359824D01*
X358825Y-9312D01*
Y-11311D01*
X359824Y-12311D01*
X364823D02*
Y-8312D01*
X365822D01*
X366822Y-9312D01*
Y-12311D01*
Y-9312D01*
X367822Y-8312D01*
X368822Y-9312D01*
Y-12311D01*
X376819Y-6313D02*
Y-12311D01*
X380818D01*
X383817Y-8312D02*
X385816D01*
X386816Y-9312D01*
Y-12311D01*
X383817D01*
X382817Y-11311D01*
X383817Y-10312D01*
X386816D01*
X388815Y-8312D02*
Y-11311D01*
X389815Y-12311D01*
X392814D01*
Y-13311D01*
X391814Y-14310D01*
X390814D01*
X392814Y-12311D02*
Y-8312D01*
X397812Y-12311D02*
X395813D01*
X394813Y-11311D01*
Y-9312D01*
X395813Y-8312D01*
X397812D01*
X398812Y-9312D01*
Y-10312D01*
X394813D01*
X400811Y-8312D02*
Y-12311D01*
Y-10312D01*
X401811Y-9312D01*
X402810Y-8312D01*
X403810D01*
X336832Y-18313D02*
Y-24311D01*
X339831D01*
X340830Y-23311D01*
Y-22312D01*
X339831Y-21312D01*
X336832D01*
X339831D01*
X340830Y-20312D01*
Y-19313D01*
X339831Y-18313D01*
X336832D01*
X343830Y-24311D02*
X345829D01*
X346829Y-23311D01*
Y-21312D01*
X345829Y-20312D01*
X343830D01*
X342830Y-21312D01*
Y-23311D01*
X343830Y-24311D01*
X349828Y-20312D02*
X351827D01*
X352827Y-21312D01*
Y-24311D01*
X349828D01*
X348828Y-23311D01*
X349828Y-22312D01*
X352827D01*
X354826Y-20312D02*
Y-24311D01*
Y-22312D01*
X355826Y-21312D01*
X356825Y-20312D01*
X357825D01*
X364823Y-18313D02*
Y-24311D01*
X361824D01*
X360824Y-23311D01*
Y-21312D01*
X361824Y-20312D01*
X364823D01*
X372820Y-18313D02*
Y-24311D01*
X376819D01*
X379818Y-20312D02*
X381817D01*
X382817Y-21312D01*
Y-24311D01*
X379818D01*
X378818Y-23311D01*
X379818Y-22312D01*
X382817D01*
X384816Y-20312D02*
Y-23311D01*
X385816Y-24311D01*
X388815D01*
Y-25311D01*
X387815Y-26310D01*
X386816D01*
X388815Y-24311D02*
Y-20312D01*
X393813Y-24311D02*
X391814D01*
X390814Y-23311D01*
Y-21312D01*
X391814Y-20312D01*
X393813D01*
X394813Y-21312D01*
Y-22312D01*
X390814D01*
X396812Y-20312D02*
Y-24311D01*
Y-22312D01*
X397812Y-21312D01*
X398812Y-20312D01*
X399812D01*
X412807Y-19313D02*
X411808Y-18313D01*
X409808D01*
X408809Y-19313D01*
Y-20312D01*
X409808Y-21312D01*
X411808D01*
X412807Y-22312D01*
Y-23311D01*
X411808Y-24311D01*
X409808D01*
X408809Y-23311D01*
X415806Y-19313D02*
Y-20312D01*
X414807D01*
X416806D01*
X415806D01*
Y-23311D01*
X416806Y-24311D01*
X420805Y-20312D02*
X422804D01*
X423804Y-21312D01*
Y-24311D01*
X420805D01*
X419805Y-23311D01*
X420805Y-22312D01*
X423804D01*
X429802Y-20312D02*
X426803D01*
X425803Y-21312D01*
Y-23311D01*
X426803Y-24311D01*
X429802D01*
X431801D02*
Y-18313D01*
Y-22312D02*
X434800Y-20312D01*
X431801Y-22312D02*
X434800Y-24311D01*
X443797Y-18313D02*
Y-24311D01*
X446796D01*
X447796Y-23311D01*
Y-22312D01*
X446796Y-21312D01*
X443797D01*
X446796D01*
X447796Y-20312D01*
Y-19313D01*
X446796Y-18313D01*
X443797D01*
X450795Y-24311D02*
X452794D01*
X453794Y-23311D01*
Y-21312D01*
X452794Y-20312D01*
X450795D01*
X449795Y-21312D01*
Y-23311D01*
X450795Y-24311D01*
X456793Y-19313D02*
Y-20312D01*
X455793D01*
X457793D01*
X456793D01*
Y-23311D01*
X457793Y-24311D01*
X461791Y-19313D02*
Y-20312D01*
X460792D01*
X462791D01*
X461791D01*
Y-23311D01*
X462791Y-24311D01*
X466790D02*
X468789D01*
X469789Y-23311D01*
Y-21312D01*
X468789Y-20312D01*
X466790D01*
X465790Y-21312D01*
Y-23311D01*
X466790Y-24311D01*
X471788D02*
Y-20312D01*
X472788D01*
X473787Y-21312D01*
Y-24311D01*
Y-21312D01*
X474787Y-20312D01*
X475787Y-21312D01*
Y-24311D01*
X487783Y-19313D02*
X486783Y-18313D01*
X484784D01*
X483784Y-19313D01*
Y-23311D01*
X484784Y-24311D01*
X486783D01*
X487783Y-23311D01*
X490782Y-24311D02*
X492781D01*
X493781Y-23311D01*
Y-21312D01*
X492781Y-20312D01*
X490782D01*
X489782Y-21312D01*
Y-23311D01*
X490782Y-24311D01*
X495780Y-20312D02*
X497780Y-24311D01*
X499779Y-20312D01*
X504777Y-24311D02*
X502778D01*
X501779Y-23311D01*
Y-21312D01*
X502778Y-20312D01*
X504777D01*
X505777Y-21312D01*
Y-22312D01*
X501779D01*
X507776Y-20312D02*
Y-24311D01*
Y-22312D01*
X508776Y-21312D01*
X509776Y-20312D01*
X510776D01*
X513775Y-24311D02*
X515774D01*
X514774D01*
Y-18313D01*
X513775D01*
X519773Y-20312D02*
X521772D01*
X522772Y-21312D01*
Y-24311D01*
X519773D01*
X518773Y-23311D01*
X519773Y-22312D01*
X522772D01*
X524771Y-20312D02*
Y-23311D01*
X525771Y-24311D01*
X528770D01*
Y-25311D01*
X527770Y-26310D01*
X526770D01*
X528770Y-24311D02*
Y-20312D01*
X336832Y-30313D02*
Y-36311D01*
X339831D01*
X340830Y-35311D01*
Y-34312D01*
X339831Y-33312D01*
X336832D01*
X339831D01*
X340830Y-32312D01*
Y-31313D01*
X339831Y-30313D01*
X336832D01*
X343830Y-36311D02*
X345829D01*
X346829Y-35311D01*
Y-33312D01*
X345829Y-32312D01*
X343830D01*
X342830Y-33312D01*
Y-35311D01*
X343830Y-36311D01*
X349828Y-31313D02*
Y-32312D01*
X348828D01*
X350827D01*
X349828D01*
Y-35311D01*
X350827Y-36311D01*
X354826Y-31313D02*
Y-32312D01*
X353826D01*
X355826D01*
X354826D01*
Y-35311D01*
X355826Y-36311D01*
X359824D02*
X361824D01*
X362823Y-35311D01*
Y-33312D01*
X361824Y-32312D01*
X359824D01*
X358825Y-33312D01*
Y-35311D01*
X359824Y-36311D01*
X364823D02*
Y-32312D01*
X365822D01*
X366822Y-33312D01*
Y-36311D01*
Y-33312D01*
X367822Y-32312D01*
X368822Y-33312D01*
Y-36311D01*
X379818Y-30313D02*
X377819D01*
X376819Y-31313D01*
Y-35311D01*
X377819Y-36311D01*
X379818D01*
X380818Y-35311D01*
Y-31313D01*
X379818Y-30313D01*
X382817Y-32312D02*
X384816Y-36311D01*
X386816Y-32312D01*
X391814Y-36311D02*
X389815D01*
X388815Y-35311D01*
Y-33312D01*
X389815Y-32312D01*
X391814D01*
X392814Y-33312D01*
Y-34312D01*
X388815D01*
X394813Y-32312D02*
Y-36311D01*
Y-34312D01*
X395813Y-33312D01*
X396812Y-32312D01*
X397812D01*
X400811Y-36311D02*
X402810D01*
X401811D01*
Y-30313D01*
X400811D01*
X406809Y-32312D02*
X408809D01*
X409808Y-33312D01*
Y-36311D01*
X406809D01*
X405809Y-35311D01*
X406809Y-34312D01*
X409808D01*
X411808Y-32312D02*
Y-35311D01*
X412807Y-36311D01*
X415806D01*
Y-37311D01*
X414807Y-38310D01*
X413807D01*
X415806Y-36311D02*
Y-32312D01*
X336832Y47689D02*
Y53687D01*
X340830Y47689D01*
Y53687D01*
X343830Y51688D02*
X345829D01*
X346829Y50688D01*
Y47689D01*
X343830D01*
X342830Y48689D01*
X343830Y49688D01*
X346829D01*
X348828Y47689D02*
Y51688D01*
X349828D01*
X350827Y50688D01*
Y47689D01*
Y50688D01*
X351827Y51688D01*
X352827Y50688D01*
Y47689D01*
X357825D02*
X355826D01*
X354826Y48689D01*
Y50688D01*
X355826Y51688D01*
X357825D01*
X358825Y50688D01*
Y49688D01*
X354826D01*
X295841Y11689D02*
X297840D01*
X296840D01*
Y17687D01*
X295841Y16687D01*
X299839Y-12311D02*
X295841D01*
X299839Y-8312D01*
Y-7313D01*
X298840Y-6313D01*
X296840D01*
X295841Y-7313D01*
Y53687D02*
Y47689D01*
X299839D01*
X302838Y51688D02*
X304838D01*
X305837Y50688D01*
Y47689D01*
X302838D01*
X301839Y48689D01*
X302838Y49688D01*
X305837D01*
X307837Y51688D02*
Y48689D01*
X308836Y47689D01*
X311835D01*
Y46689D01*
X310836Y45690D01*
X309836D01*
X311835Y47689D02*
Y51688D01*
X316834Y47689D02*
X314834D01*
X313835Y48689D01*
Y50688D01*
X314834Y51688D01*
X316834D01*
X317833Y50688D01*
Y49688D01*
X313835D01*
X319833Y51688D02*
Y47689D01*
Y49688D01*
X320832Y50688D01*
X321832Y51688D01*
X322832D01*
D18*
X713726Y-39311D02*
Y56689D01*
X656740Y32689D02*
X713726D01*
X656740Y20689D02*
X713726D01*
X656740Y8689D02*
X713726D01*
X656740Y-3311D02*
X713726D01*
X656740Y-15311D02*
X713726D01*
X656740Y-27311D02*
X713726D01*
X656740Y-39311D02*
X713726D01*
X656740D02*
Y56689D01*
X591756Y32689D02*
X656740D01*
X591756Y20689D02*
X656740D01*
X591756Y8689D02*
X656740D01*
X591756Y-3311D02*
X656740D01*
X591756Y-15311D02*
X656740D01*
X591756Y-27311D02*
X656740D01*
X591756Y-39311D02*
X656740D01*
X591756D02*
Y56689D01*
X535770Y32689D02*
X591756D01*
X535770Y20689D02*
X591756D01*
X535770Y8689D02*
X591756D01*
X535770Y-3311D02*
X591756D01*
X535770Y-15311D02*
X591756D01*
X535770Y-27311D02*
X591756D01*
X535770Y-39311D02*
X591756D01*
X535770D02*
Y56689D01*
X329832Y32689D02*
X535770D01*
X329832Y20689D02*
X535770D01*
X329832Y8689D02*
X535770D01*
X329832Y-3311D02*
X535770D01*
X329832Y-15311D02*
X535770D01*
X329832Y-27311D02*
X535770D01*
X329832Y-39311D02*
X535770D01*
X329832D02*
Y56689D01*
X288841Y32689D02*
X329832D01*
X288841Y20689D02*
X329832D01*
X288841Y8689D02*
X329832D01*
X288841Y-3311D02*
X329832D01*
X288841Y-15311D02*
X329832D01*
X288841Y-27311D02*
X329832D01*
X288841Y-39311D02*
X329832D01*
X288841D02*
Y56689D01*
X713726D01*
X288841Y44689D02*
X713726D01*
D19*
X413870Y-66328D02*
X414854D01*
Y-66820D01*
X414690Y-66984D01*
X414362D01*
X414198Y-66820D01*
Y-66328D01*
X414854Y-67312D02*
Y-67640D01*
Y-67476D01*
X413870D01*
Y-67312D01*
Y-67640D01*
Y-69116D02*
Y-69608D01*
X414034Y-69772D01*
X414198Y-69608D01*
Y-69280D01*
X414362Y-69116D01*
X414526Y-69280D01*
Y-69772D01*
X414690Y-70264D02*
X414526D01*
Y-70100D01*
Y-70428D01*
Y-70264D01*
X414034D01*
X413870Y-70428D01*
Y-70920D02*
Y-71248D01*
Y-71084D01*
X414526D01*
Y-70920D01*
X413870Y-71904D02*
X414690D01*
X414362D01*
Y-71740D01*
Y-72068D01*
Y-71904D01*
X414690D01*
X414854Y-72068D01*
X413870Y-72724D02*
X414690D01*
X414362D01*
Y-72560D01*
Y-72888D01*
Y-72724D01*
X414690D01*
X414854Y-72888D01*
X413870Y-73380D02*
Y-73708D01*
Y-73544D01*
X414526D01*
Y-73380D01*
X413870Y-74200D02*
X414526D01*
Y-74692D01*
X414362Y-74856D01*
X413870D01*
Y-75675D02*
Y-75348D01*
X414034Y-75183D01*
X414362D01*
X414526Y-75348D01*
Y-75675D01*
X414362Y-75840D01*
X414198D01*
Y-75183D01*
X414526Y-76167D02*
X413870D01*
X414198D01*
X414362Y-76331D01*
X414526Y-76495D01*
Y-76659D01*
X414690Y-78299D02*
X414526D01*
Y-78135D01*
Y-78463D01*
Y-78299D01*
X414034D01*
X413870Y-78463D01*
Y-79119D02*
Y-79447D01*
X414034Y-79611D01*
X414362D01*
X414526Y-79447D01*
Y-79119D01*
X414362Y-78955D01*
X414034D01*
X413870Y-79119D01*
X414690Y-80923D02*
X414854Y-81087D01*
Y-81415D01*
X414690Y-81579D01*
X414034D01*
X413870Y-81415D01*
Y-81087D01*
X414034Y-80923D01*
X414690D01*
X413870Y-81907D02*
X414034D01*
Y-82071D01*
X413870D01*
Y-81907D01*
X414690Y-82727D02*
X414854Y-82891D01*
Y-83219D01*
X414690Y-83383D01*
X414526D01*
X414362Y-83219D01*
Y-83055D01*
Y-83219D01*
X414198Y-83383D01*
X414034D01*
X413870Y-83219D01*
Y-82891D01*
X414034Y-82727D01*
X413870Y-83711D02*
X414526D01*
Y-83875D01*
X414362Y-84039D01*
X413870D01*
X414362D01*
X414526Y-84203D01*
X414362Y-84367D01*
X413870D01*
Y-84695D02*
X414526D01*
Y-84859D01*
X414362Y-85023D01*
X413870D01*
X414362D01*
X414526Y-85187D01*
X414362Y-85351D01*
X413870D01*
X412709Y-64196D02*
Y-64852D01*
X413037Y-64524D02*
X412381D01*
X412217Y-65180D02*
X412873Y-65836D01*
X412709Y-66164D02*
Y-66820D01*
X413037Y-67148D02*
X413201Y-67312D01*
Y-67640D01*
X413037Y-67804D01*
X412381D01*
X412217Y-67640D01*
Y-67312D01*
X412381Y-67148D01*
X413037D01*
X412217Y-68132D02*
X412381D01*
Y-68296D01*
X412217D01*
Y-68132D01*
X413037Y-68952D02*
X413201Y-69116D01*
Y-69444D01*
X413037Y-69608D01*
X412381D01*
X412217Y-69444D01*
Y-69116D01*
X412381Y-68952D01*
X413037D01*
Y-69936D02*
X413201Y-70100D01*
Y-70428D01*
X413037Y-70592D01*
X412873D01*
X412709Y-70428D01*
Y-70264D01*
Y-70428D01*
X412545Y-70592D01*
X412381D01*
X412217Y-70428D01*
Y-70100D01*
X412381Y-69936D01*
X412217Y-70920D02*
X412873D01*
Y-71084D01*
X412709Y-71248D01*
X412217D01*
X412709D01*
X412873Y-71412D01*
X412709Y-71576D01*
X412217D01*
Y-71904D02*
X412873D01*
Y-72068D01*
X412709Y-72232D01*
X412217D01*
X412709D01*
X412873Y-72396D01*
X412709Y-72560D01*
X412217D01*
X413037Y-74036D02*
X412873D01*
Y-73872D01*
Y-74200D01*
Y-74036D01*
X412381D01*
X412217Y-74200D01*
Y-74856D02*
Y-75183D01*
X412381Y-75348D01*
X412709D01*
X412873Y-75183D01*
Y-74856D01*
X412709Y-74692D01*
X412381D01*
X412217Y-74856D01*
X413037Y-75840D02*
X412873D01*
Y-75675D01*
Y-76003D01*
Y-75840D01*
X412381D01*
X412217Y-76003D01*
X412873Y-76659D02*
Y-76987D01*
X412709Y-77151D01*
X412217D01*
Y-76659D01*
X412381Y-76495D01*
X412545Y-76659D01*
Y-77151D01*
X412217Y-77479D02*
Y-77807D01*
Y-77643D01*
X413201D01*
Y-77479D01*
X413037Y-79447D02*
X412873D01*
Y-79283D01*
Y-79611D01*
Y-79447D01*
X412381D01*
X412217Y-79611D01*
X413201Y-80103D02*
X412217D01*
X412709D01*
X412873Y-80267D01*
Y-80595D01*
X412709Y-80759D01*
X412217D01*
Y-81087D02*
Y-81415D01*
Y-81251D01*
X412873D01*
Y-81087D01*
Y-82563D02*
Y-82071D01*
X412709Y-81907D01*
X412381D01*
X412217Y-82071D01*
Y-82563D01*
Y-82891D02*
X413201D01*
X412545D02*
X412873Y-83383D01*
X412545Y-82891D02*
X412217Y-83383D01*
Y-83875D02*
X412873D01*
Y-84367D01*
X412709Y-84531D01*
X412217D01*
Y-85351D02*
Y-85023D01*
X412381Y-84859D01*
X412709D01*
X412873Y-85023D01*
Y-85351D01*
X412709Y-85515D01*
X412545D01*
Y-84859D01*
X412217Y-85843D02*
Y-86335D01*
X412381Y-86499D01*
X412545Y-86335D01*
Y-86007D01*
X412709Y-85843D01*
X412873Y-86007D01*
Y-86499D01*
X412217Y-86827D02*
Y-87319D01*
X412381Y-87483D01*
X412545Y-87319D01*
Y-86991D01*
X412709Y-86827D01*
X412873Y-86991D01*
Y-87483D01*
X411220Y-68460D02*
X410728D01*
X410564Y-68624D01*
X410728Y-68788D01*
X410564Y-68952D01*
X410728Y-69116D01*
X411220D01*
X410564Y-69444D02*
Y-69772D01*
Y-69608D01*
X411220D01*
Y-69444D01*
X411384Y-70428D02*
X411220D01*
Y-70264D01*
Y-70592D01*
Y-70428D01*
X410728D01*
X410564Y-70592D01*
X411548Y-71084D02*
X410564D01*
X411056D01*
X411220Y-71248D01*
Y-71576D01*
X411056Y-71740D01*
X410564D01*
Y-72232D02*
Y-72560D01*
X410728Y-72724D01*
X411056D01*
X411220Y-72560D01*
Y-72232D01*
X411056Y-72068D01*
X410728D01*
X410564Y-72232D01*
X411220Y-73052D02*
X410728D01*
X410564Y-73216D01*
Y-73708D01*
X411220D01*
X411384Y-74200D02*
X411220D01*
Y-74036D01*
Y-74364D01*
Y-74200D01*
X410728D01*
X410564Y-74364D01*
X411220Y-76495D02*
Y-76003D01*
X411056Y-75840D01*
X410728D01*
X410564Y-76003D01*
Y-76495D01*
Y-76987D02*
Y-77315D01*
X410728Y-77479D01*
X411056D01*
X411220Y-77315D01*
Y-76987D01*
X411056Y-76823D01*
X410728D01*
X410564Y-76987D01*
X411220Y-77807D02*
X410564Y-78135D01*
X411220Y-78463D01*
X410564Y-79283D02*
Y-78955D01*
X410728Y-78791D01*
X411056D01*
X411220Y-78955D01*
Y-79283D01*
X411056Y-79447D01*
X410892D01*
Y-78791D01*
X411220Y-79775D02*
X410564D01*
X410892D01*
X411056Y-79939D01*
X411220Y-80103D01*
Y-80267D01*
X410564Y-80759D02*
Y-81087D01*
Y-80923D01*
X411548D01*
Y-80759D01*
X411220Y-81743D02*
Y-82071D01*
X411056Y-82235D01*
X410564D01*
Y-81743D01*
X410728Y-81579D01*
X410892Y-81743D01*
Y-82235D01*
X411220Y-82563D02*
X410728D01*
X410564Y-82727D01*
Y-83219D01*
X410400D01*
X410236Y-83055D01*
Y-82891D01*
X410564Y-83219D02*
X411220D01*
X279440Y-392414D02*
Y-393398D01*
X278948D01*
X278784Y-393234D01*
Y-392906D01*
X278948Y-392742D01*
X279440D01*
X278456Y-393398D02*
X278128D01*
X278292D01*
Y-392414D01*
X278456D01*
X278128D01*
X276652D02*
X276160D01*
X275996Y-392578D01*
X276160Y-392742D01*
X276488D01*
X276652Y-392906D01*
X276488Y-393070D01*
X275996D01*
X275504Y-393234D02*
Y-393070D01*
X275668D01*
X275340D01*
X275504D01*
Y-392578D01*
X275340Y-392414D01*
X274848D02*
X274520D01*
X274684D01*
Y-393070D01*
X274848D01*
X273864Y-392414D02*
Y-393234D01*
Y-392906D01*
X274028D01*
X273700D01*
X273864D01*
Y-393234D01*
X273700Y-393398D01*
X273044Y-392414D02*
Y-393234D01*
Y-392906D01*
X273208D01*
X272880D01*
X273044D01*
Y-393234D01*
X272880Y-393398D01*
X272388Y-392414D02*
X272060D01*
X272224D01*
Y-393070D01*
X272388D01*
X271568Y-392414D02*
Y-393070D01*
X271076D01*
X270912Y-392906D01*
Y-392414D01*
X270092D02*
X270420D01*
X270584Y-392578D01*
Y-392906D01*
X270420Y-393070D01*
X270092D01*
X269928Y-392906D01*
Y-392742D01*
X270584D01*
X269600Y-393070D02*
Y-392414D01*
Y-392742D01*
X269436Y-392906D01*
X269272Y-393070D01*
X269108D01*
X267468Y-393234D02*
Y-393070D01*
X267632D01*
X267304D01*
X267468D01*
Y-392578D01*
X267304Y-392414D01*
X266649D02*
X266320D01*
X266157Y-392578D01*
Y-392906D01*
X266320Y-393070D01*
X266649D01*
X266812Y-392906D01*
Y-392578D01*
X266649Y-392414D01*
X264845Y-393234D02*
X264681Y-393398D01*
X264353D01*
X264189Y-393234D01*
Y-392578D01*
X264353Y-392414D01*
X264681D01*
X264845Y-392578D01*
Y-393234D01*
X263861Y-392414D02*
Y-392578D01*
X263697D01*
Y-392414D01*
X263861D01*
X263041Y-393234D02*
X262877Y-393398D01*
X262549D01*
X262385Y-393234D01*
Y-393070D01*
X262549Y-392906D01*
X262713D01*
X262549D01*
X262385Y-392742D01*
Y-392578D01*
X262549Y-392414D01*
X262877D01*
X263041Y-392578D01*
X262057Y-392414D02*
Y-393070D01*
X261893D01*
X261729Y-392906D01*
Y-392414D01*
Y-392906D01*
X261565Y-393070D01*
X261401Y-392906D01*
Y-392414D01*
X261073D02*
Y-393070D01*
X260909D01*
X260745Y-392906D01*
Y-392414D01*
Y-392906D01*
X260581Y-393070D01*
X260417Y-392906D01*
Y-392414D01*
X281571Y-391253D02*
X280915D01*
X281243Y-391581D02*
Y-390925D01*
X280588Y-390761D02*
X279931Y-391417D01*
X279604Y-391253D02*
X278948D01*
X278620Y-391581D02*
X278456Y-391744D01*
X278128D01*
X277964Y-391581D01*
Y-390925D01*
X278128Y-390761D01*
X278456D01*
X278620Y-390925D01*
Y-391581D01*
X277636Y-390761D02*
Y-390925D01*
X277472D01*
Y-390761D01*
X277636D01*
X276816Y-391581D02*
X276652Y-391744D01*
X276324D01*
X276160Y-391581D01*
Y-390925D01*
X276324Y-390761D01*
X276652D01*
X276816Y-390925D01*
Y-391581D01*
X275832D02*
X275668Y-391744D01*
X275340D01*
X275176Y-391581D01*
Y-391417D01*
X275340Y-391253D01*
X275504D01*
X275340D01*
X275176Y-391089D01*
Y-390925D01*
X275340Y-390761D01*
X275668D01*
X275832Y-390925D01*
X274848Y-390761D02*
Y-391417D01*
X274684D01*
X274520Y-391253D01*
Y-390761D01*
Y-391253D01*
X274356Y-391417D01*
X274192Y-391253D01*
Y-390761D01*
X273864D02*
Y-391417D01*
X273700D01*
X273536Y-391253D01*
Y-390761D01*
Y-391253D01*
X273372Y-391417D01*
X273208Y-391253D01*
Y-390761D01*
X271732Y-391581D02*
Y-391417D01*
X271896D01*
X271568D01*
X271732D01*
Y-390925D01*
X271568Y-390761D01*
X270912D02*
X270584D01*
X270420Y-390925D01*
Y-391253D01*
X270584Y-391417D01*
X270912D01*
X271076Y-391253D01*
Y-390925D01*
X270912Y-390761D01*
X269928Y-391581D02*
Y-391417D01*
X270092D01*
X269764D01*
X269928D01*
Y-390925D01*
X269764Y-390761D01*
X269108Y-391417D02*
X268780D01*
X268616Y-391253D01*
Y-390761D01*
X269108D01*
X269272Y-390925D01*
X269108Y-391089D01*
X268616D01*
X268288Y-390761D02*
X267960D01*
X268124D01*
Y-391744D01*
X268288D01*
X266320Y-391581D02*
Y-391417D01*
X266484D01*
X266157D01*
X266320D01*
Y-390925D01*
X266157Y-390761D01*
X265665Y-391744D02*
Y-390761D01*
Y-391253D01*
X265501Y-391417D01*
X265173D01*
X265009Y-391253D01*
Y-390761D01*
X264681D02*
X264353D01*
X264517D01*
Y-391417D01*
X264681D01*
X263205D02*
X263697D01*
X263861Y-391253D01*
Y-390925D01*
X263697Y-390761D01*
X263205D01*
X262877D02*
Y-391744D01*
Y-391089D02*
X262385Y-391417D01*
X262877Y-391089D02*
X262385Y-390761D01*
X261893D02*
Y-391417D01*
X261401D01*
X261237Y-391253D01*
Y-390761D01*
X260417D02*
X260745D01*
X260909Y-390925D01*
Y-391253D01*
X260745Y-391417D01*
X260417D01*
X260253Y-391253D01*
Y-391089D01*
X260909D01*
X259925Y-390761D02*
X259433D01*
X259269Y-390925D01*
X259433Y-391089D01*
X259761D01*
X259925Y-391253D01*
X259761Y-391417D01*
X259269D01*
X258941Y-390761D02*
X258449D01*
X258285Y-390925D01*
X258449Y-391089D01*
X258777D01*
X258941Y-391253D01*
X258777Y-391417D01*
X258285D01*
X277308Y-389763D02*
Y-389271D01*
X277144Y-389107D01*
X276980Y-389271D01*
X276816Y-389107D01*
X276652Y-389271D01*
Y-389763D01*
X276324Y-389107D02*
X275996D01*
X276160D01*
Y-389763D01*
X276324D01*
X275340Y-389927D02*
Y-389763D01*
X275504D01*
X275176D01*
X275340D01*
Y-389271D01*
X275176Y-389107D01*
X274684Y-390091D02*
Y-389107D01*
Y-389599D01*
X274520Y-389763D01*
X274192D01*
X274028Y-389599D01*
Y-389107D01*
X273536D02*
X273208D01*
X273044Y-389271D01*
Y-389599D01*
X273208Y-389763D01*
X273536D01*
X273700Y-389599D01*
Y-389271D01*
X273536Y-389107D01*
X272716Y-389763D02*
Y-389271D01*
X272552Y-389107D01*
X272060D01*
Y-389763D01*
X271568Y-389927D02*
Y-389763D01*
X271732D01*
X271404D01*
X271568D01*
Y-389271D01*
X271404Y-389107D01*
X269272Y-389763D02*
X269764D01*
X269928Y-389599D01*
Y-389271D01*
X269764Y-389107D01*
X269272D01*
X268780D02*
X268452D01*
X268288Y-389271D01*
Y-389599D01*
X268452Y-389763D01*
X268780D01*
X268944Y-389599D01*
Y-389271D01*
X268780Y-389107D01*
X267960Y-389763D02*
X267632Y-389107D01*
X267304Y-389763D01*
X266484Y-389107D02*
X266812D01*
X266976Y-389271D01*
Y-389599D01*
X266812Y-389763D01*
X266484D01*
X266320Y-389599D01*
Y-389436D01*
X266976D01*
X265992Y-389763D02*
Y-389107D01*
Y-389436D01*
X265828Y-389599D01*
X265665Y-389763D01*
X265501D01*
X265009Y-389107D02*
X264681D01*
X264845D01*
Y-390091D01*
X265009D01*
X264025Y-389763D02*
X263697D01*
X263533Y-389599D01*
Y-389107D01*
X264025D01*
X264189Y-389271D01*
X264025Y-389436D01*
X263533D01*
X263205Y-389763D02*
Y-389271D01*
X263041Y-389107D01*
X262549D01*
Y-388944D01*
X262713Y-388779D01*
X262877D01*
X262549Y-389107D02*
Y-389763D01*
X-8359Y-211231D02*
X-9343D01*
Y-210739D01*
X-9179Y-210575D01*
X-8851D01*
X-8687Y-210739D01*
Y-211231D01*
X-9343Y-210247D02*
Y-209919D01*
Y-210083D01*
X-8359D01*
Y-210247D01*
Y-209919D01*
Y-208443D02*
Y-207951D01*
X-8523Y-207787D01*
X-8687Y-207951D01*
Y-208279D01*
X-8851Y-208443D01*
X-9015Y-208279D01*
Y-207787D01*
X-9179Y-207295D02*
X-9015D01*
Y-207459D01*
Y-207131D01*
Y-207295D01*
X-8523D01*
X-8359Y-207131D01*
Y-206639D02*
Y-206311D01*
Y-206475D01*
X-9015D01*
Y-206639D01*
X-8359Y-205655D02*
X-9179D01*
X-8851D01*
Y-205819D01*
Y-205491D01*
Y-205655D01*
X-9179D01*
X-9343Y-205491D01*
X-8359Y-204835D02*
X-9179D01*
X-8851D01*
Y-204999D01*
Y-204671D01*
Y-204835D01*
X-9179D01*
X-9343Y-204671D01*
X-8359Y-204179D02*
Y-203851D01*
Y-204015D01*
X-9015D01*
Y-204179D01*
X-8359Y-203360D02*
X-9015D01*
Y-202868D01*
X-8851Y-202703D01*
X-8359D01*
Y-201884D02*
Y-202211D01*
X-8523Y-202376D01*
X-8851D01*
X-9015Y-202211D01*
Y-201884D01*
X-8851Y-201720D01*
X-8687D01*
Y-202376D01*
X-9015Y-201392D02*
X-8359D01*
X-8687D01*
X-8851Y-201228D01*
X-9015Y-201064D01*
Y-200900D01*
X-9179Y-199260D02*
X-9015D01*
Y-199424D01*
Y-199096D01*
Y-199260D01*
X-8523D01*
X-8359Y-199096D01*
Y-198440D02*
Y-198112D01*
X-8523Y-197948D01*
X-8851D01*
X-9015Y-198112D01*
Y-198440D01*
X-8851Y-198604D01*
X-8523D01*
X-8359Y-198440D01*
X-9179Y-196636D02*
X-9343Y-196472D01*
Y-196144D01*
X-9179Y-195980D01*
X-8523D01*
X-8359Y-196144D01*
Y-196472D01*
X-8523Y-196636D01*
X-9179D01*
X-8359Y-195652D02*
X-8523D01*
Y-195488D01*
X-8359D01*
Y-195652D01*
X-9179Y-194832D02*
X-9343Y-194668D01*
Y-194340D01*
X-9179Y-194176D01*
X-9015D01*
X-8851Y-194340D01*
Y-194504D01*
Y-194340D01*
X-8687Y-194176D01*
X-8523D01*
X-8359Y-194340D01*
Y-194668D01*
X-8523Y-194832D01*
X-8359Y-193848D02*
X-9015D01*
Y-193684D01*
X-8851Y-193520D01*
X-8359D01*
X-8851D01*
X-9015Y-193356D01*
X-8851Y-193192D01*
X-8359D01*
Y-192864D02*
X-9015D01*
Y-192700D01*
X-8851Y-192536D01*
X-8359D01*
X-8851D01*
X-9015Y-192372D01*
X-8851Y-192208D01*
X-8359D01*
X-7198Y-213363D02*
Y-212707D01*
X-7525Y-213035D02*
X-6870D01*
X-6706Y-212379D02*
X-7361Y-211723D01*
X-7198Y-211395D02*
Y-210739D01*
X-7525Y-210411D02*
X-7689Y-210247D01*
Y-209919D01*
X-7525Y-209755D01*
X-6870D01*
X-6706Y-209919D01*
Y-210247D01*
X-6870Y-210411D01*
X-7525D01*
X-6706Y-209427D02*
X-6870D01*
Y-209263D01*
X-6706D01*
Y-209427D01*
X-7525Y-208607D02*
X-7689Y-208443D01*
Y-208115D01*
X-7525Y-207951D01*
X-6870D01*
X-6706Y-208115D01*
Y-208443D01*
X-6870Y-208607D01*
X-7525D01*
Y-207623D02*
X-7689Y-207459D01*
Y-207131D01*
X-7525Y-206967D01*
X-7361D01*
X-7198Y-207131D01*
Y-207295D01*
Y-207131D01*
X-7034Y-206967D01*
X-6870D01*
X-6706Y-207131D01*
Y-207459D01*
X-6870Y-207623D01*
X-6706Y-206639D02*
X-7361D01*
Y-206475D01*
X-7198Y-206311D01*
X-6706D01*
X-7198D01*
X-7361Y-206147D01*
X-7198Y-205983D01*
X-6706D01*
Y-205655D02*
X-7361D01*
Y-205491D01*
X-7198Y-205327D01*
X-6706D01*
X-7198D01*
X-7361Y-205163D01*
X-7198Y-204999D01*
X-6706D01*
X-7525Y-203523D02*
X-7361D01*
Y-203687D01*
Y-203359D01*
Y-203523D01*
X-6870D01*
X-6706Y-203359D01*
Y-202703D02*
Y-202376D01*
X-6870Y-202211D01*
X-7198D01*
X-7361Y-202376D01*
Y-202703D01*
X-7198Y-202868D01*
X-6870D01*
X-6706Y-202703D01*
X-7525Y-201720D02*
X-7361D01*
Y-201884D01*
Y-201556D01*
Y-201720D01*
X-6870D01*
X-6706Y-201556D01*
X-7361Y-200900D02*
Y-200572D01*
X-7198Y-200408D01*
X-6706D01*
Y-200900D01*
X-6870Y-201064D01*
X-7034Y-200900D01*
Y-200408D01*
X-6706Y-200080D02*
Y-199752D01*
Y-199916D01*
X-7689D01*
Y-200080D01*
X-7525Y-198112D02*
X-7361D01*
Y-198276D01*
Y-197948D01*
Y-198112D01*
X-6870D01*
X-6706Y-197948D01*
X-7689Y-197456D02*
X-6706D01*
X-7198D01*
X-7361Y-197292D01*
Y-196964D01*
X-7198Y-196800D01*
X-6706D01*
Y-196472D02*
Y-196144D01*
Y-196308D01*
X-7361D01*
Y-196472D01*
Y-194996D02*
Y-195488D01*
X-7198Y-195652D01*
X-6870D01*
X-6706Y-195488D01*
Y-194996D01*
Y-194668D02*
X-7689D01*
X-7034D02*
X-7361Y-194176D01*
X-7034Y-194668D02*
X-6706Y-194176D01*
Y-193684D02*
X-7361D01*
Y-193192D01*
X-7198Y-193028D01*
X-6706D01*
Y-192208D02*
Y-192536D01*
X-6870Y-192700D01*
X-7198D01*
X-7361Y-192536D01*
Y-192208D01*
X-7198Y-192044D01*
X-7034D01*
Y-192700D01*
X-6706Y-191716D02*
Y-191224D01*
X-6870Y-191060D01*
X-7034Y-191224D01*
Y-191552D01*
X-7198Y-191716D01*
X-7361Y-191552D01*
Y-191060D01*
X-6706Y-190732D02*
Y-190240D01*
X-6870Y-190076D01*
X-7034Y-190240D01*
Y-190568D01*
X-7198Y-190732D01*
X-7361Y-190568D01*
Y-190076D01*
X-5708Y-209099D02*
X-5216D01*
X-5052Y-208935D01*
X-5216Y-208771D01*
X-5052Y-208607D01*
X-5216Y-208443D01*
X-5708D01*
X-5052Y-208115D02*
Y-207787D01*
Y-207951D01*
X-5708D01*
Y-208115D01*
X-5872Y-207131D02*
X-5708D01*
Y-207295D01*
Y-206967D01*
Y-207131D01*
X-5216D01*
X-5052Y-206967D01*
X-6036Y-206475D02*
X-5052D01*
X-5544D01*
X-5708Y-206311D01*
Y-205983D01*
X-5544Y-205819D01*
X-5052D01*
Y-205327D02*
Y-204999D01*
X-5216Y-204835D01*
X-5544D01*
X-5708Y-204999D01*
Y-205327D01*
X-5544Y-205491D01*
X-5216D01*
X-5052Y-205327D01*
X-5708Y-204507D02*
X-5216D01*
X-5052Y-204343D01*
Y-203851D01*
X-5708D01*
X-5872Y-203360D02*
X-5708D01*
Y-203523D01*
Y-203196D01*
Y-203360D01*
X-5216D01*
X-5052Y-203196D01*
X-5708Y-201064D02*
Y-201556D01*
X-5544Y-201720D01*
X-5216D01*
X-5052Y-201556D01*
Y-201064D01*
Y-200572D02*
Y-200244D01*
X-5216Y-200080D01*
X-5544D01*
X-5708Y-200244D01*
Y-200572D01*
X-5544Y-200736D01*
X-5216D01*
X-5052Y-200572D01*
X-5708Y-199752D02*
X-5052Y-199424D01*
X-5708Y-199096D01*
X-5052Y-198276D02*
Y-198604D01*
X-5216Y-198768D01*
X-5544D01*
X-5708Y-198604D01*
Y-198276D01*
X-5544Y-198112D01*
X-5380D01*
Y-198768D01*
X-5708Y-197784D02*
X-5052D01*
X-5380D01*
X-5544Y-197620D01*
X-5708Y-197456D01*
Y-197292D01*
X-5052Y-196800D02*
Y-196472D01*
Y-196636D01*
X-6036D01*
Y-196800D01*
X-5708Y-195816D02*
Y-195488D01*
X-5544Y-195324D01*
X-5052D01*
Y-195816D01*
X-5216Y-195980D01*
X-5380Y-195816D01*
Y-195324D01*
X-5708Y-194996D02*
X-5216D01*
X-5052Y-194832D01*
Y-194340D01*
X-4888D01*
X-4724Y-194504D01*
Y-194668D01*
X-5052Y-194340D02*
X-5708D01*
X-8162Y-134459D02*
X-9146D01*
Y-133967D01*
X-8982Y-133803D01*
X-8654D01*
X-8490Y-133967D01*
Y-134459D01*
X-9146Y-133475D02*
Y-133147D01*
Y-133311D01*
X-8162D01*
Y-133475D01*
Y-133147D01*
Y-131671D02*
Y-131179D01*
X-8326Y-131016D01*
X-8490Y-131179D01*
Y-131507D01*
X-8654Y-131671D01*
X-8818Y-131507D01*
Y-131016D01*
X-8982Y-130524D02*
X-8818D01*
Y-130687D01*
Y-130359D01*
Y-130524D01*
X-8326D01*
X-8162Y-130359D01*
Y-129868D02*
Y-129540D01*
Y-129704D01*
X-8818D01*
Y-129868D01*
X-8162Y-128884D02*
X-8982D01*
X-8654D01*
Y-129048D01*
Y-128720D01*
Y-128884D01*
X-8982D01*
X-9146Y-128720D01*
X-8162Y-128064D02*
X-8982D01*
X-8654D01*
Y-128228D01*
Y-127900D01*
Y-128064D01*
X-8982D01*
X-9146Y-127900D01*
X-8162Y-127408D02*
Y-127080D01*
Y-127244D01*
X-8818D01*
Y-127408D01*
X-8162Y-126588D02*
X-8818D01*
Y-126096D01*
X-8654Y-125932D01*
X-8162D01*
Y-125112D02*
Y-125440D01*
X-8326Y-125604D01*
X-8654D01*
X-8818Y-125440D01*
Y-125112D01*
X-8654Y-124948D01*
X-8490D01*
Y-125604D01*
X-8818Y-124620D02*
X-8162D01*
X-8490D01*
X-8654Y-124456D01*
X-8818Y-124292D01*
Y-124128D01*
X-8982Y-122488D02*
X-8818D01*
Y-122652D01*
Y-122324D01*
Y-122488D01*
X-8326D01*
X-8162Y-122324D01*
Y-121668D02*
Y-121340D01*
X-8326Y-121176D01*
X-8654D01*
X-8818Y-121340D01*
Y-121668D01*
X-8654Y-121832D01*
X-8326D01*
X-8162Y-121668D01*
X-8982Y-119864D02*
X-9146Y-119700D01*
Y-119372D01*
X-8982Y-119208D01*
X-8326D01*
X-8162Y-119372D01*
Y-119700D01*
X-8326Y-119864D01*
X-8982D01*
X-8162Y-118880D02*
X-8326D01*
Y-118716D01*
X-8162D01*
Y-118880D01*
X-8982Y-118060D02*
X-9146Y-117896D01*
Y-117569D01*
X-8982Y-117404D01*
X-8818D01*
X-8654Y-117569D01*
Y-117732D01*
Y-117569D01*
X-8490Y-117404D01*
X-8326D01*
X-8162Y-117569D01*
Y-117896D01*
X-8326Y-118060D01*
X-8162Y-117077D02*
X-8818D01*
Y-116912D01*
X-8654Y-116748D01*
X-8162D01*
X-8654D01*
X-8818Y-116585D01*
X-8654Y-116420D01*
X-8162D01*
Y-116093D02*
X-8818D01*
Y-115929D01*
X-8654Y-115765D01*
X-8162D01*
X-8654D01*
X-8818Y-115601D01*
X-8654Y-115437D01*
X-8162D01*
X-7001Y-136591D02*
Y-135935D01*
X-7329Y-136263D02*
X-6673D01*
X-6509Y-135607D02*
X-7165Y-134951D01*
X-7001Y-134623D02*
Y-133967D01*
X-7329Y-133639D02*
X-7493Y-133475D01*
Y-133147D01*
X-7329Y-132983D01*
X-6673D01*
X-6509Y-133147D01*
Y-133475D01*
X-6673Y-133639D01*
X-7329D01*
X-6509Y-132655D02*
X-6673D01*
Y-132491D01*
X-6509D01*
Y-132655D01*
X-7329Y-131835D02*
X-7493Y-131671D01*
Y-131343D01*
X-7329Y-131179D01*
X-6673D01*
X-6509Y-131343D01*
Y-131671D01*
X-6673Y-131835D01*
X-7329D01*
Y-130851D02*
X-7493Y-130687D01*
Y-130359D01*
X-7329Y-130196D01*
X-7165D01*
X-7001Y-130359D01*
Y-130524D01*
Y-130359D01*
X-6837Y-130196D01*
X-6673D01*
X-6509Y-130359D01*
Y-130687D01*
X-6673Y-130851D01*
X-6509Y-129868D02*
X-7165D01*
Y-129704D01*
X-7001Y-129540D01*
X-6509D01*
X-7001D01*
X-7165Y-129376D01*
X-7001Y-129212D01*
X-6509D01*
Y-128884D02*
X-7165D01*
Y-128720D01*
X-7001Y-128556D01*
X-6509D01*
X-7001D01*
X-7165Y-128392D01*
X-7001Y-128228D01*
X-6509D01*
X-7329Y-126752D02*
X-7165D01*
Y-126916D01*
Y-126588D01*
Y-126752D01*
X-6673D01*
X-6509Y-126588D01*
Y-125932D02*
Y-125604D01*
X-6673Y-125440D01*
X-7001D01*
X-7165Y-125604D01*
Y-125932D01*
X-7001Y-126096D01*
X-6673D01*
X-6509Y-125932D01*
X-7329Y-124948D02*
X-7165D01*
Y-125112D01*
Y-124784D01*
Y-124948D01*
X-6673D01*
X-6509Y-124784D01*
X-7165Y-124128D02*
Y-123800D01*
X-7001Y-123636D01*
X-6509D01*
Y-124128D01*
X-6673Y-124292D01*
X-6837Y-124128D01*
Y-123636D01*
X-6509Y-123308D02*
Y-122980D01*
Y-123144D01*
X-7493D01*
Y-123308D01*
X-7329Y-121340D02*
X-7165D01*
Y-121504D01*
Y-121176D01*
Y-121340D01*
X-6673D01*
X-6509Y-121176D01*
X-7493Y-120684D02*
X-6509D01*
X-7001D01*
X-7165Y-120520D01*
Y-120192D01*
X-7001Y-120028D01*
X-6509D01*
Y-119700D02*
Y-119372D01*
Y-119536D01*
X-7165D01*
Y-119700D01*
Y-118224D02*
Y-118716D01*
X-7001Y-118880D01*
X-6673D01*
X-6509Y-118716D01*
Y-118224D01*
Y-117896D02*
X-7493D01*
X-6837D02*
X-7165Y-117404D01*
X-6837Y-117896D02*
X-6509Y-117404D01*
Y-116912D02*
X-7165D01*
Y-116420D01*
X-7001Y-116256D01*
X-6509D01*
Y-115437D02*
Y-115765D01*
X-6673Y-115929D01*
X-7001D01*
X-7165Y-115765D01*
Y-115437D01*
X-7001Y-115273D01*
X-6837D01*
Y-115929D01*
X-6509Y-114945D02*
Y-114453D01*
X-6673Y-114289D01*
X-6837Y-114453D01*
Y-114781D01*
X-7001Y-114945D01*
X-7165Y-114781D01*
Y-114289D01*
X-6509Y-113961D02*
Y-113469D01*
X-6673Y-113305D01*
X-6837Y-113469D01*
Y-113797D01*
X-7001Y-113961D01*
X-7165Y-113797D01*
Y-113305D01*
X-5511Y-132327D02*
X-5020D01*
X-4856Y-132163D01*
X-5020Y-131999D01*
X-4856Y-131835D01*
X-5020Y-131672D01*
X-5511D01*
X-4856Y-131343D02*
Y-131016D01*
Y-131179D01*
X-5511D01*
Y-131343D01*
X-5675Y-130359D02*
X-5511D01*
Y-130524D01*
Y-130196D01*
Y-130359D01*
X-5020D01*
X-4856Y-130196D01*
X-5839Y-129704D02*
X-4856D01*
X-5347D01*
X-5511Y-129540D01*
Y-129212D01*
X-5347Y-129048D01*
X-4856D01*
Y-128556D02*
Y-128228D01*
X-5020Y-128064D01*
X-5347D01*
X-5511Y-128228D01*
Y-128556D01*
X-5347Y-128720D01*
X-5020D01*
X-4856Y-128556D01*
X-5511Y-127736D02*
X-5020D01*
X-4856Y-127572D01*
Y-127080D01*
X-5511D01*
X-5675Y-126588D02*
X-5511D01*
Y-126752D01*
Y-126424D01*
Y-126588D01*
X-5020D01*
X-4856Y-126424D01*
X-5511Y-124292D02*
Y-124784D01*
X-5347Y-124948D01*
X-5020D01*
X-4856Y-124784D01*
Y-124292D01*
Y-123800D02*
Y-123472D01*
X-5020Y-123308D01*
X-5347D01*
X-5511Y-123472D01*
Y-123800D01*
X-5347Y-123964D01*
X-5020D01*
X-4856Y-123800D01*
X-5511Y-122980D02*
X-4856Y-122652D01*
X-5511Y-122324D01*
X-4856Y-121504D02*
Y-121832D01*
X-5020Y-121996D01*
X-5347D01*
X-5511Y-121832D01*
Y-121504D01*
X-5347Y-121340D01*
X-5184D01*
Y-121996D01*
X-5511Y-121012D02*
X-4856D01*
X-5184D01*
X-5347Y-120848D01*
X-5511Y-120684D01*
Y-120520D01*
X-4856Y-120028D02*
Y-119700D01*
Y-119864D01*
X-5839D01*
Y-120028D01*
X-5511Y-119044D02*
Y-118716D01*
X-5347Y-118552D01*
X-4856D01*
Y-119044D01*
X-5020Y-119208D01*
X-5184Y-119044D01*
Y-118552D01*
X-5511Y-118224D02*
X-5020D01*
X-4856Y-118060D01*
Y-117569D01*
X-4691D01*
X-4528Y-117732D01*
Y-117896D01*
X-4856Y-117569D02*
X-5511D01*
X779815Y-111604D02*
X780799D01*
Y-112096D01*
X780635Y-112260D01*
X780307D01*
X780143Y-112096D01*
Y-111604D01*
X780799Y-112588D02*
Y-112916D01*
Y-112752D01*
X779815D01*
Y-112588D01*
Y-112916D01*
Y-114392D02*
Y-114883D01*
X779979Y-115048D01*
X780143Y-114883D01*
Y-114556D01*
X780307Y-114392D01*
X780471Y-114556D01*
Y-115048D01*
X780635Y-115540D02*
X780471D01*
Y-115375D01*
Y-115703D01*
Y-115540D01*
X779979D01*
X779815Y-115703D01*
Y-116195D02*
Y-116523D01*
Y-116359D01*
X780471D01*
Y-116195D01*
X779815Y-117179D02*
X780635D01*
X780307D01*
Y-117015D01*
Y-117343D01*
Y-117179D01*
X780635D01*
X780799Y-117343D01*
X779815Y-117999D02*
X780635D01*
X780307D01*
Y-117835D01*
Y-118163D01*
Y-117999D01*
X780635D01*
X780799Y-118163D01*
X779815Y-118655D02*
Y-118983D01*
Y-118819D01*
X780471D01*
Y-118655D01*
X779815Y-119475D02*
X780471D01*
Y-119967D01*
X780307Y-120131D01*
X779815D01*
Y-120951D02*
Y-120623D01*
X779979Y-120459D01*
X780307D01*
X780471Y-120623D01*
Y-120951D01*
X780307Y-121115D01*
X780143D01*
Y-120459D01*
X780471Y-121443D02*
X779815D01*
X780143D01*
X780307Y-121607D01*
X780471Y-121771D01*
Y-121935D01*
X780635Y-123575D02*
X780471D01*
Y-123411D01*
Y-123739D01*
Y-123575D01*
X779979D01*
X779815Y-123739D01*
Y-124395D02*
Y-124723D01*
X779979Y-124887D01*
X780307D01*
X780471Y-124723D01*
Y-124395D01*
X780307Y-124231D01*
X779979D01*
X779815Y-124395D01*
X780635Y-126199D02*
X780799Y-126363D01*
Y-126691D01*
X780635Y-126855D01*
X779979D01*
X779815Y-126691D01*
Y-126363D01*
X779979Y-126199D01*
X780635D01*
X779815Y-127183D02*
X779979D01*
Y-127347D01*
X779815D01*
Y-127183D01*
X780635Y-128003D02*
X780799Y-128167D01*
Y-128495D01*
X780635Y-128658D01*
X780471D01*
X780307Y-128495D01*
Y-128331D01*
Y-128495D01*
X780143Y-128658D01*
X779979D01*
X779815Y-128495D01*
Y-128167D01*
X779979Y-128003D01*
X779815Y-128987D02*
X780471D01*
Y-129150D01*
X780307Y-129314D01*
X779815D01*
X780307D01*
X780471Y-129479D01*
X780307Y-129642D01*
X779815D01*
Y-129970D02*
X780471D01*
Y-130134D01*
X780307Y-130298D01*
X779815D01*
X780307D01*
X780471Y-130462D01*
X780307Y-130626D01*
X779815D01*
X778654Y-109472D02*
Y-110128D01*
X778982Y-109800D02*
X778326D01*
X778162Y-110456D02*
X778818Y-111112D01*
X778654Y-111440D02*
Y-112096D01*
X778982Y-112424D02*
X779146Y-112588D01*
Y-112916D01*
X778982Y-113080D01*
X778326D01*
X778162Y-112916D01*
Y-112588D01*
X778326Y-112424D01*
X778982D01*
X778162Y-113408D02*
X778326D01*
Y-113572D01*
X778162D01*
Y-113408D01*
X778982Y-114227D02*
X779146Y-114392D01*
Y-114719D01*
X778982Y-114883D01*
X778326D01*
X778162Y-114719D01*
Y-114392D01*
X778326Y-114227D01*
X778982D01*
Y-115211D02*
X779146Y-115375D01*
Y-115703D01*
X778982Y-115867D01*
X778818D01*
X778654Y-115703D01*
Y-115540D01*
Y-115703D01*
X778490Y-115867D01*
X778326D01*
X778162Y-115703D01*
Y-115375D01*
X778326Y-115211D01*
X778162Y-116195D02*
X778818D01*
Y-116359D01*
X778654Y-116523D01*
X778162D01*
X778654D01*
X778818Y-116687D01*
X778654Y-116851D01*
X778162D01*
Y-117179D02*
X778818D01*
Y-117343D01*
X778654Y-117507D01*
X778162D01*
X778654D01*
X778818Y-117671D01*
X778654Y-117835D01*
X778162D01*
X778982Y-119311D02*
X778818D01*
Y-119147D01*
Y-119475D01*
Y-119311D01*
X778326D01*
X778162Y-119475D01*
Y-120131D02*
Y-120459D01*
X778326Y-120623D01*
X778654D01*
X778818Y-120459D01*
Y-120131D01*
X778654Y-119967D01*
X778326D01*
X778162Y-120131D01*
X778982Y-121115D02*
X778818D01*
Y-120951D01*
Y-121279D01*
Y-121115D01*
X778326D01*
X778162Y-121279D01*
X778818Y-121935D02*
Y-122263D01*
X778654Y-122427D01*
X778162D01*
Y-121935D01*
X778326Y-121771D01*
X778490Y-121935D01*
Y-122427D01*
X778162Y-122755D02*
Y-123083D01*
Y-122919D01*
X779146D01*
Y-122755D01*
X778982Y-124723D02*
X778818D01*
Y-124559D01*
Y-124887D01*
Y-124723D01*
X778326D01*
X778162Y-124887D01*
X779146Y-125379D02*
X778162D01*
X778654D01*
X778818Y-125543D01*
Y-125871D01*
X778654Y-126035D01*
X778162D01*
Y-126363D02*
Y-126691D01*
Y-126527D01*
X778818D01*
Y-126363D01*
Y-127839D02*
Y-127347D01*
X778654Y-127183D01*
X778326D01*
X778162Y-127347D01*
Y-127839D01*
Y-128167D02*
X779146D01*
X778490D02*
X778818Y-128658D01*
X778490Y-128167D02*
X778162Y-128658D01*
Y-129150D02*
X778818D01*
Y-129642D01*
X778654Y-129806D01*
X778162D01*
Y-130626D02*
Y-130298D01*
X778326Y-130134D01*
X778654D01*
X778818Y-130298D01*
Y-130626D01*
X778654Y-130790D01*
X778490D01*
Y-130134D01*
X778162Y-131118D02*
Y-131610D01*
X778326Y-131774D01*
X778490Y-131610D01*
Y-131282D01*
X778654Y-131118D01*
X778818Y-131282D01*
Y-131774D01*
X778162Y-132102D02*
Y-132594D01*
X778326Y-132758D01*
X778490Y-132594D01*
Y-132266D01*
X778654Y-132102D01*
X778818Y-132266D01*
Y-132758D01*
X777165Y-113736D02*
X776673D01*
X776509Y-113900D01*
X776673Y-114064D01*
X776509Y-114227D01*
X776673Y-114392D01*
X777165D01*
X776509Y-114719D02*
Y-115048D01*
Y-114883D01*
X777165D01*
Y-114719D01*
X777329Y-115703D02*
X777165D01*
Y-115540D01*
Y-115867D01*
Y-115703D01*
X776673D01*
X776509Y-115867D01*
X777493Y-116359D02*
X776509D01*
X777001D01*
X777165Y-116523D01*
Y-116851D01*
X777001Y-117015D01*
X776509D01*
Y-117507D02*
Y-117835D01*
X776673Y-117999D01*
X777001D01*
X777165Y-117835D01*
Y-117507D01*
X777001Y-117343D01*
X776673D01*
X776509Y-117507D01*
X777165Y-118327D02*
X776673D01*
X776509Y-118491D01*
Y-118983D01*
X777165D01*
X777329Y-119475D02*
X777165D01*
Y-119311D01*
Y-119639D01*
Y-119475D01*
X776673D01*
X776509Y-119639D01*
X777165Y-121771D02*
Y-121279D01*
X777001Y-121115D01*
X776673D01*
X776509Y-121279D01*
Y-121771D01*
Y-122263D02*
Y-122591D01*
X776673Y-122755D01*
X777001D01*
X777165Y-122591D01*
Y-122263D01*
X777001Y-122099D01*
X776673D01*
X776509Y-122263D01*
X777165Y-123083D02*
X776509Y-123411D01*
X777165Y-123739D01*
X776509Y-124559D02*
Y-124231D01*
X776673Y-124067D01*
X777001D01*
X777165Y-124231D01*
Y-124559D01*
X777001Y-124723D01*
X776837D01*
Y-124067D01*
X777165Y-125051D02*
X776509D01*
X776837D01*
X777001Y-125215D01*
X777165Y-125379D01*
Y-125543D01*
X776509Y-126035D02*
Y-126363D01*
Y-126199D01*
X777493D01*
Y-126035D01*
X777165Y-127019D02*
Y-127347D01*
X777001Y-127511D01*
X776509D01*
Y-127019D01*
X776673Y-126855D01*
X776837Y-127019D01*
Y-127511D01*
X777165Y-127839D02*
X776673D01*
X776509Y-128003D01*
Y-128495D01*
X776345D01*
X776181Y-128331D01*
Y-128167D01*
X776509Y-128495D02*
X777165D01*
X438674Y94105D02*
X439657D01*
Y93613D01*
X439494Y93449D01*
X439166D01*
X439002Y93613D01*
Y94105D01*
X439657Y93121D02*
Y92793D01*
Y92957D01*
X438674D01*
Y93121D01*
Y92793D01*
Y91317D02*
Y90825D01*
X438838Y90661D01*
X439002Y90825D01*
Y91153D01*
X439166Y91317D01*
X439329Y91153D01*
Y90661D01*
X439494Y90169D02*
X439329D01*
Y90333D01*
Y90005D01*
Y90169D01*
X438838D01*
X438674Y90005D01*
Y89513D02*
Y89185D01*
Y89349D01*
X439329D01*
Y89513D01*
X438674Y88529D02*
X439494D01*
X439166D01*
Y88693D01*
Y88365D01*
Y88529D01*
X439494D01*
X439657Y88365D01*
X438674Y87709D02*
X439494D01*
X439166D01*
Y87873D01*
Y87545D01*
Y87709D01*
X439494D01*
X439657Y87545D01*
X438674Y87053D02*
Y86725D01*
Y86889D01*
X439329D01*
Y87053D01*
X438674Y86234D02*
X439329D01*
Y85742D01*
X439166Y85577D01*
X438674D01*
Y84758D02*
Y85086D01*
X438838Y85250D01*
X439166D01*
X439329Y85086D01*
Y84758D01*
X439166Y84594D01*
X439002D01*
Y85250D01*
X439329Y84266D02*
X438674D01*
X439002D01*
X439166Y84102D01*
X439329Y83938D01*
Y83774D01*
X439494Y82134D02*
X439329D01*
Y82298D01*
Y81970D01*
Y82134D01*
X438838D01*
X438674Y81970D01*
Y81314D02*
Y80986D01*
X438838Y80822D01*
X439166D01*
X439329Y80986D01*
Y81314D01*
X439166Y81478D01*
X438838D01*
X438674Y81314D01*
X439494Y79510D02*
X439657Y79346D01*
Y79018D01*
X439494Y78854D01*
X438838D01*
X438674Y79018D01*
Y79346D01*
X438838Y79510D01*
X439494D01*
X438674Y78526D02*
X438838D01*
Y78362D01*
X438674D01*
Y78526D01*
X439494Y77706D02*
X439657Y77542D01*
Y77214D01*
X439494Y77050D01*
X439329D01*
X439166Y77214D01*
Y77378D01*
Y77214D01*
X439002Y77050D01*
X438838D01*
X438674Y77214D01*
Y77542D01*
X438838Y77706D01*
X438674Y76722D02*
X439329D01*
Y76558D01*
X439166Y76394D01*
X438674D01*
X439166D01*
X439329Y76230D01*
X439166Y76066D01*
X438674D01*
Y75738D02*
X439329D01*
Y75574D01*
X439166Y75410D01*
X438674D01*
X439166D01*
X439329Y75246D01*
X439166Y75082D01*
X438674D01*
X437512Y96237D02*
Y95581D01*
X437840Y95909D02*
X437184D01*
X437020Y95253D02*
X437676Y94597D01*
X437512Y94269D02*
Y93613D01*
X437840Y93285D02*
X438004Y93121D01*
Y92793D01*
X437840Y92629D01*
X437184D01*
X437020Y92793D01*
Y93121D01*
X437184Y93285D01*
X437840D01*
X437020Y92301D02*
X437184D01*
Y92137D01*
X437020D01*
Y92301D01*
X437840Y91481D02*
X438004Y91317D01*
Y90989D01*
X437840Y90825D01*
X437184D01*
X437020Y90989D01*
Y91317D01*
X437184Y91481D01*
X437840D01*
Y90497D02*
X438004Y90333D01*
Y90005D01*
X437840Y89841D01*
X437676D01*
X437512Y90005D01*
Y90169D01*
Y90005D01*
X437348Y89841D01*
X437184D01*
X437020Y90005D01*
Y90333D01*
X437184Y90497D01*
X437020Y89513D02*
X437676D01*
Y89349D01*
X437512Y89185D01*
X437020D01*
X437512D01*
X437676Y89021D01*
X437512Y88857D01*
X437020D01*
Y88529D02*
X437676D01*
Y88365D01*
X437512Y88201D01*
X437020D01*
X437512D01*
X437676Y88037D01*
X437512Y87873D01*
X437020D01*
X437840Y86397D02*
X437676D01*
Y86562D01*
Y86234D01*
Y86397D01*
X437184D01*
X437020Y86234D01*
Y85577D02*
Y85250D01*
X437184Y85086D01*
X437512D01*
X437676Y85250D01*
Y85577D01*
X437512Y85742D01*
X437184D01*
X437020Y85577D01*
X437840Y84594D02*
X437676D01*
Y84758D01*
Y84430D01*
Y84594D01*
X437184D01*
X437020Y84430D01*
X437676Y83774D02*
Y83446D01*
X437512Y83282D01*
X437020D01*
Y83774D01*
X437184Y83938D01*
X437348Y83774D01*
Y83282D01*
X437020Y82954D02*
Y82626D01*
Y82790D01*
X438004D01*
Y82954D01*
X437840Y80986D02*
X437676D01*
Y81150D01*
Y80822D01*
Y80986D01*
X437184D01*
X437020Y80822D01*
X438004Y80330D02*
X437020D01*
X437512D01*
X437676Y80166D01*
Y79838D01*
X437512Y79674D01*
X437020D01*
Y79346D02*
Y79018D01*
Y79182D01*
X437676D01*
Y79346D01*
Y77870D02*
Y78362D01*
X437512Y78526D01*
X437184D01*
X437020Y78362D01*
Y77870D01*
Y77542D02*
X438004D01*
X437348D02*
X437676Y77050D01*
X437348Y77542D02*
X437020Y77050D01*
Y76558D02*
X437676D01*
Y76066D01*
X437512Y75902D01*
X437020D01*
Y75082D02*
Y75410D01*
X437184Y75574D01*
X437512D01*
X437676Y75410D01*
Y75082D01*
X437512Y74918D01*
X437348D01*
Y75574D01*
X437020Y74590D02*
Y74098D01*
X437184Y73934D01*
X437348Y74098D01*
Y74426D01*
X437512Y74590D01*
X437676Y74426D01*
Y73934D01*
X437020Y73606D02*
Y73114D01*
X437184Y72950D01*
X437348Y73114D01*
Y73442D01*
X437512Y73606D01*
X437676Y73442D01*
Y72950D01*
X436023Y91973D02*
X435531D01*
X435367Y91809D01*
X435531Y91645D01*
X435367Y91481D01*
X435531Y91317D01*
X436023D01*
X435367Y90989D02*
Y90661D01*
Y90825D01*
X436023D01*
Y90989D01*
X436187Y90005D02*
X436023D01*
Y90169D01*
Y89841D01*
Y90005D01*
X435531D01*
X435367Y89841D01*
X436351Y89349D02*
X435367D01*
X435859D01*
X436023Y89185D01*
Y88857D01*
X435859Y88693D01*
X435367D01*
Y88201D02*
Y87873D01*
X435531Y87709D01*
X435859D01*
X436023Y87873D01*
Y88201D01*
X435859Y88365D01*
X435531D01*
X435367Y88201D01*
X436023Y87381D02*
X435531D01*
X435367Y87217D01*
Y86725D01*
X436023D01*
X436187Y86234D02*
X436023D01*
Y86397D01*
Y86070D01*
Y86234D01*
X435531D01*
X435367Y86070D01*
X436023Y83938D02*
Y84430D01*
X435859Y84594D01*
X435531D01*
X435367Y84430D01*
Y83938D01*
Y83446D02*
Y83118D01*
X435531Y82954D01*
X435859D01*
X436023Y83118D01*
Y83446D01*
X435859Y83610D01*
X435531D01*
X435367Y83446D01*
X436023Y82626D02*
X435367Y82298D01*
X436023Y81970D01*
X435367Y81150D02*
Y81478D01*
X435531Y81642D01*
X435859D01*
X436023Y81478D01*
Y81150D01*
X435859Y80986D01*
X435695D01*
Y81642D01*
X436023Y80658D02*
X435367D01*
X435695D01*
X435859Y80494D01*
X436023Y80330D01*
Y80166D01*
X435367Y79674D02*
Y79346D01*
Y79510D01*
X436351D01*
Y79674D01*
X436023Y78690D02*
Y78362D01*
X435859Y78198D01*
X435367D01*
Y78690D01*
X435531Y78854D01*
X435695Y78690D01*
Y78198D01*
X436023Y77870D02*
X435531D01*
X435367Y77706D01*
Y77214D01*
X435203D01*
X435039Y77378D01*
Y77542D01*
X435367Y77214D02*
X436023D01*
X-8359Y-368711D02*
X-9343D01*
Y-368219D01*
X-9179Y-368055D01*
X-8851D01*
X-8687Y-368219D01*
Y-368711D01*
X-9343Y-367727D02*
Y-367399D01*
Y-367563D01*
X-8359D01*
Y-367727D01*
Y-367399D01*
Y-365923D02*
Y-365431D01*
X-8523Y-365267D01*
X-8687Y-365431D01*
Y-365759D01*
X-8851Y-365923D01*
X-9015Y-365759D01*
Y-365267D01*
X-9179Y-364775D02*
X-9015D01*
Y-364939D01*
Y-364612D01*
Y-364775D01*
X-8523D01*
X-8359Y-364612D01*
Y-364120D02*
Y-363792D01*
Y-363955D01*
X-9015D01*
Y-364120D01*
X-8359Y-363136D02*
X-9179D01*
X-8851D01*
Y-363300D01*
Y-362972D01*
Y-363136D01*
X-9179D01*
X-9343Y-362972D01*
X-8359Y-362316D02*
X-9179D01*
X-8851D01*
Y-362480D01*
Y-362152D01*
Y-362316D01*
X-9179D01*
X-9343Y-362152D01*
X-8359Y-361660D02*
Y-361332D01*
Y-361496D01*
X-9015D01*
Y-361660D01*
X-8359Y-360840D02*
X-9015D01*
Y-360348D01*
X-8851Y-360184D01*
X-8359D01*
Y-359364D02*
Y-359692D01*
X-8523Y-359856D01*
X-8851D01*
X-9015Y-359692D01*
Y-359364D01*
X-8851Y-359200D01*
X-8687D01*
Y-359856D01*
X-9015Y-358872D02*
X-8359D01*
X-8687D01*
X-8851Y-358708D01*
X-9015Y-358544D01*
Y-358380D01*
X-9179Y-356740D02*
X-9015D01*
Y-356904D01*
Y-356576D01*
Y-356740D01*
X-8523D01*
X-8359Y-356576D01*
Y-355920D02*
Y-355592D01*
X-8523Y-355428D01*
X-8851D01*
X-9015Y-355592D01*
Y-355920D01*
X-8851Y-356084D01*
X-8523D01*
X-8359Y-355920D01*
X-9179Y-354116D02*
X-9343Y-353952D01*
Y-353624D01*
X-9179Y-353460D01*
X-8523D01*
X-8359Y-353624D01*
Y-353952D01*
X-8523Y-354116D01*
X-9179D01*
X-8359Y-353132D02*
X-8523D01*
Y-352968D01*
X-8359D01*
Y-353132D01*
X-9179Y-352312D02*
X-9343Y-352148D01*
Y-351820D01*
X-9179Y-351656D01*
X-9015D01*
X-8851Y-351820D01*
Y-351984D01*
Y-351820D01*
X-8687Y-351656D01*
X-8523D01*
X-8359Y-351820D01*
Y-352148D01*
X-8523Y-352312D01*
X-8359Y-351328D02*
X-9015D01*
Y-351165D01*
X-8851Y-351000D01*
X-8359D01*
X-8851D01*
X-9015Y-350836D01*
X-8851Y-350673D01*
X-8359D01*
Y-350344D02*
X-9015D01*
Y-350181D01*
X-8851Y-350017D01*
X-8359D01*
X-8851D01*
X-9015Y-349853D01*
X-8851Y-349689D01*
X-8359D01*
X-7198Y-370843D02*
Y-370187D01*
X-7525Y-370515D02*
X-6870D01*
X-6706Y-369859D02*
X-7361Y-369203D01*
X-7198Y-368875D02*
Y-368219D01*
X-7525Y-367891D02*
X-7689Y-367727D01*
Y-367399D01*
X-7525Y-367235D01*
X-6870D01*
X-6706Y-367399D01*
Y-367727D01*
X-6870Y-367891D01*
X-7525D01*
X-6706Y-366907D02*
X-6870D01*
Y-366743D01*
X-6706D01*
Y-366907D01*
X-7525Y-366087D02*
X-7689Y-365923D01*
Y-365595D01*
X-7525Y-365431D01*
X-6870D01*
X-6706Y-365595D01*
Y-365923D01*
X-6870Y-366087D01*
X-7525D01*
Y-365104D02*
X-7689Y-364939D01*
Y-364612D01*
X-7525Y-364447D01*
X-7361D01*
X-7198Y-364612D01*
Y-364775D01*
Y-364612D01*
X-7034Y-364447D01*
X-6870D01*
X-6706Y-364612D01*
Y-364939D01*
X-6870Y-365104D01*
X-6706Y-364120D02*
X-7361D01*
Y-363955D01*
X-7198Y-363792D01*
X-6706D01*
X-7198D01*
X-7361Y-363628D01*
X-7198Y-363464D01*
X-6706D01*
Y-363136D02*
X-7361D01*
Y-362972D01*
X-7198Y-362808D01*
X-6706D01*
X-7198D01*
X-7361Y-362644D01*
X-7198Y-362480D01*
X-6706D01*
X-7525Y-361004D02*
X-7361D01*
Y-361168D01*
Y-360840D01*
Y-361004D01*
X-6870D01*
X-6706Y-360840D01*
Y-360184D02*
Y-359856D01*
X-6870Y-359692D01*
X-7198D01*
X-7361Y-359856D01*
Y-360184D01*
X-7198Y-360348D01*
X-6870D01*
X-6706Y-360184D01*
X-7525Y-359200D02*
X-7361D01*
Y-359364D01*
Y-359036D01*
Y-359200D01*
X-6870D01*
X-6706Y-359036D01*
X-7361Y-358380D02*
Y-358052D01*
X-7198Y-357888D01*
X-6706D01*
Y-358380D01*
X-6870Y-358544D01*
X-7034Y-358380D01*
Y-357888D01*
X-6706Y-357560D02*
Y-357232D01*
Y-357396D01*
X-7689D01*
Y-357560D01*
X-7525Y-355592D02*
X-7361D01*
Y-355756D01*
Y-355428D01*
Y-355592D01*
X-6870D01*
X-6706Y-355428D01*
X-7689Y-354936D02*
X-6706D01*
X-7198D01*
X-7361Y-354772D01*
Y-354444D01*
X-7198Y-354280D01*
X-6706D01*
Y-353952D02*
Y-353624D01*
Y-353788D01*
X-7361D01*
Y-353952D01*
Y-352476D02*
Y-352968D01*
X-7198Y-353132D01*
X-6870D01*
X-6706Y-352968D01*
Y-352476D01*
Y-352148D02*
X-7689D01*
X-7034D02*
X-7361Y-351656D01*
X-7034Y-352148D02*
X-6706Y-351656D01*
Y-351165D02*
X-7361D01*
Y-350673D01*
X-7198Y-350508D01*
X-6706D01*
Y-349689D02*
Y-350017D01*
X-6870Y-350181D01*
X-7198D01*
X-7361Y-350017D01*
Y-349689D01*
X-7198Y-349525D01*
X-7034D01*
Y-350181D01*
X-6706Y-349197D02*
Y-348705D01*
X-6870Y-348541D01*
X-7034Y-348705D01*
Y-349033D01*
X-7198Y-349197D01*
X-7361Y-349033D01*
Y-348541D01*
X-6706Y-348213D02*
Y-347721D01*
X-6870Y-347557D01*
X-7034Y-347721D01*
Y-348049D01*
X-7198Y-348213D01*
X-7361Y-348049D01*
Y-347557D01*
X-5708Y-366579D02*
X-5216D01*
X-5052Y-366415D01*
X-5216Y-366251D01*
X-5052Y-366087D01*
X-5216Y-365923D01*
X-5708D01*
X-5052Y-365595D02*
Y-365267D01*
Y-365431D01*
X-5708D01*
Y-365595D01*
X-5872Y-364612D02*
X-5708D01*
Y-364775D01*
Y-364447D01*
Y-364612D01*
X-5216D01*
X-5052Y-364447D01*
X-6036Y-363956D02*
X-5052D01*
X-5544D01*
X-5708Y-363792D01*
Y-363464D01*
X-5544Y-363300D01*
X-5052D01*
Y-362808D02*
Y-362480D01*
X-5216Y-362316D01*
X-5544D01*
X-5708Y-362480D01*
Y-362808D01*
X-5544Y-362972D01*
X-5216D01*
X-5052Y-362808D01*
X-5708Y-361988D02*
X-5216D01*
X-5052Y-361824D01*
Y-361332D01*
X-5708D01*
X-5872Y-360840D02*
X-5708D01*
Y-361004D01*
Y-360676D01*
Y-360840D01*
X-5216D01*
X-5052Y-360676D01*
X-5708Y-358544D02*
Y-359036D01*
X-5544Y-359200D01*
X-5216D01*
X-5052Y-359036D01*
Y-358544D01*
Y-358052D02*
Y-357724D01*
X-5216Y-357560D01*
X-5544D01*
X-5708Y-357724D01*
Y-358052D01*
X-5544Y-358216D01*
X-5216D01*
X-5052Y-358052D01*
X-5708Y-357232D02*
X-5052Y-356904D01*
X-5708Y-356576D01*
X-5052Y-355756D02*
Y-356084D01*
X-5216Y-356248D01*
X-5544D01*
X-5708Y-356084D01*
Y-355756D01*
X-5544Y-355592D01*
X-5380D01*
Y-356248D01*
X-5708Y-355264D02*
X-5052D01*
X-5380D01*
X-5544Y-355100D01*
X-5708Y-354936D01*
Y-354772D01*
X-5052Y-354280D02*
Y-353952D01*
Y-354116D01*
X-6036D01*
Y-354280D01*
X-5708Y-353296D02*
Y-352968D01*
X-5544Y-352804D01*
X-5052D01*
Y-353296D01*
X-5216Y-353460D01*
X-5380Y-353296D01*
Y-352804D01*
X-5708Y-352476D02*
X-5216D01*
X-5052Y-352312D01*
Y-351820D01*
X-4888D01*
X-4724Y-351984D01*
Y-352148D01*
X-5052Y-351820D02*
X-5708D01*
X-8359Y103730D02*
X-9343D01*
Y104222D01*
X-9179Y104386D01*
X-8851D01*
X-8687Y104222D01*
Y103730D01*
X-9343Y104714D02*
Y105042D01*
Y104878D01*
X-8359D01*
Y104714D01*
Y105042D01*
Y106518D02*
Y107009D01*
X-8523Y107174D01*
X-8687Y107009D01*
Y106682D01*
X-8851Y106518D01*
X-9015Y106682D01*
Y107174D01*
X-9179Y107666D02*
X-9015D01*
Y107501D01*
Y107829D01*
Y107666D01*
X-8523D01*
X-8359Y107829D01*
Y108321D02*
Y108649D01*
Y108485D01*
X-9015D01*
Y108321D01*
X-8359Y109305D02*
X-9179D01*
X-8851D01*
Y109141D01*
Y109469D01*
Y109305D01*
X-9179D01*
X-9343Y109469D01*
X-8359Y110125D02*
X-9179D01*
X-8851D01*
Y109961D01*
Y110289D01*
Y110125D01*
X-9179D01*
X-9343Y110289D01*
X-8359Y110781D02*
Y111109D01*
Y110945D01*
X-9015D01*
Y110781D01*
X-8359Y111601D02*
X-9015D01*
Y112093D01*
X-8851Y112257D01*
X-8359D01*
Y113077D02*
Y112749D01*
X-8523Y112585D01*
X-8851D01*
X-9015Y112749D01*
Y113077D01*
X-8851Y113241D01*
X-8687D01*
Y112585D01*
X-9015Y113569D02*
X-8359D01*
X-8687D01*
X-8851Y113733D01*
X-9015Y113897D01*
Y114061D01*
X-9179Y115701D02*
X-9015D01*
Y115537D01*
Y115865D01*
Y115701D01*
X-8523D01*
X-8359Y115865D01*
Y116521D02*
Y116849D01*
X-8523Y117013D01*
X-8851D01*
X-9015Y116849D01*
Y116521D01*
X-8851Y116357D01*
X-8523D01*
X-8359Y116521D01*
X-9179Y118325D02*
X-9343Y118489D01*
Y118817D01*
X-9179Y118981D01*
X-8523D01*
X-8359Y118817D01*
Y118489D01*
X-8523Y118325D01*
X-9179D01*
X-8359Y119309D02*
X-8523D01*
Y119473D01*
X-8359D01*
Y119309D01*
X-9179Y120129D02*
X-9343Y120293D01*
Y120621D01*
X-9179Y120784D01*
X-9015D01*
X-8851Y120621D01*
Y120457D01*
Y120621D01*
X-8687Y120784D01*
X-8523D01*
X-8359Y120621D01*
Y120293D01*
X-8523Y120129D01*
X-8359Y121113D02*
X-9015D01*
Y121276D01*
X-8851Y121440D01*
X-8359D01*
X-8851D01*
X-9015Y121605D01*
X-8851Y121768D01*
X-8359D01*
Y122096D02*
X-9015D01*
Y122260D01*
X-8851Y122424D01*
X-8359D01*
X-8851D01*
X-9015Y122588D01*
X-8851Y122752D01*
X-8359D01*
X-7198Y101598D02*
Y102254D01*
X-7525Y101926D02*
X-6870D01*
X-6706Y102582D02*
X-7361Y103238D01*
X-7198Y103566D02*
Y104222D01*
X-7525Y104550D02*
X-7689Y104714D01*
Y105042D01*
X-7525Y105206D01*
X-6870D01*
X-6706Y105042D01*
Y104714D01*
X-6870Y104550D01*
X-7525D01*
X-6706Y105534D02*
X-6870D01*
Y105698D01*
X-6706D01*
Y105534D01*
X-7525Y106353D02*
X-7689Y106518D01*
Y106845D01*
X-7525Y107009D01*
X-6870D01*
X-6706Y106845D01*
Y106518D01*
X-6870Y106353D01*
X-7525D01*
Y107337D02*
X-7689Y107501D01*
Y107829D01*
X-7525Y107993D01*
X-7361D01*
X-7198Y107829D01*
Y107666D01*
Y107829D01*
X-7034Y107993D01*
X-6870D01*
X-6706Y107829D01*
Y107501D01*
X-6870Y107337D01*
X-6706Y108321D02*
X-7361D01*
Y108485D01*
X-7198Y108649D01*
X-6706D01*
X-7198D01*
X-7361Y108813D01*
X-7198Y108977D01*
X-6706D01*
Y109305D02*
X-7361D01*
Y109469D01*
X-7198Y109633D01*
X-6706D01*
X-7198D01*
X-7361Y109797D01*
X-7198Y109961D01*
X-6706D01*
X-7525Y111437D02*
X-7361D01*
Y111273D01*
Y111601D01*
Y111437D01*
X-6870D01*
X-6706Y111601D01*
Y112257D02*
Y112585D01*
X-6870Y112749D01*
X-7198D01*
X-7361Y112585D01*
Y112257D01*
X-7198Y112093D01*
X-6870D01*
X-6706Y112257D01*
X-7525Y113241D02*
X-7361D01*
Y113077D01*
Y113405D01*
Y113241D01*
X-6870D01*
X-6706Y113405D01*
X-7361Y114061D02*
Y114389D01*
X-7198Y114553D01*
X-6706D01*
Y114061D01*
X-6870Y113897D01*
X-7034Y114061D01*
Y114553D01*
X-6706Y114881D02*
Y115209D01*
Y115045D01*
X-7689D01*
Y114881D01*
X-7525Y116849D02*
X-7361D01*
Y116685D01*
Y117013D01*
Y116849D01*
X-6870D01*
X-6706Y117013D01*
X-7689Y117505D02*
X-6706D01*
X-7198D01*
X-7361Y117669D01*
Y117997D01*
X-7198Y118161D01*
X-6706D01*
Y118489D02*
Y118817D01*
Y118653D01*
X-7361D01*
Y118489D01*
Y119965D02*
Y119473D01*
X-7198Y119309D01*
X-6870D01*
X-6706Y119473D01*
Y119965D01*
Y120293D02*
X-7689D01*
X-7034D02*
X-7361Y120784D01*
X-7034Y120293D02*
X-6706Y120784D01*
Y121276D02*
X-7361D01*
Y121768D01*
X-7198Y121932D01*
X-6706D01*
Y122752D02*
Y122424D01*
X-6870Y122260D01*
X-7198D01*
X-7361Y122424D01*
Y122752D01*
X-7198Y122916D01*
X-7034D01*
Y122260D01*
X-6706Y123244D02*
Y123736D01*
X-6870Y123900D01*
X-7034Y123736D01*
Y123408D01*
X-7198Y123244D01*
X-7361Y123408D01*
Y123900D01*
X-6706Y124228D02*
Y124720D01*
X-6870Y124884D01*
X-7034Y124720D01*
Y124392D01*
X-7198Y124228D01*
X-7361Y124392D01*
Y124884D01*
X-5708Y105862D02*
X-5216D01*
X-5052Y106026D01*
X-5216Y106190D01*
X-5052Y106353D01*
X-5216Y106518D01*
X-5708D01*
X-5052Y106845D02*
Y107174D01*
Y107009D01*
X-5708D01*
Y106845D01*
X-5872Y107829D02*
X-5708D01*
Y107666D01*
Y107993D01*
Y107829D01*
X-5216D01*
X-5052Y107993D01*
X-6036Y108485D02*
X-5052D01*
X-5544D01*
X-5708Y108649D01*
Y108977D01*
X-5544Y109141D01*
X-5052D01*
Y109633D02*
Y109961D01*
X-5216Y110125D01*
X-5544D01*
X-5708Y109961D01*
Y109633D01*
X-5544Y109469D01*
X-5216D01*
X-5052Y109633D01*
X-5708Y110453D02*
X-5216D01*
X-5052Y110617D01*
Y111109D01*
X-5708D01*
X-5872Y111601D02*
X-5708D01*
Y111437D01*
Y111765D01*
Y111601D01*
X-5216D01*
X-5052Y111765D01*
X-5708Y113897D02*
Y113405D01*
X-5544Y113241D01*
X-5216D01*
X-5052Y113405D01*
Y113897D01*
Y114389D02*
Y114717D01*
X-5216Y114881D01*
X-5544D01*
X-5708Y114717D01*
Y114389D01*
X-5544Y114225D01*
X-5216D01*
X-5052Y114389D01*
X-5708Y115209D02*
X-5052Y115537D01*
X-5708Y115865D01*
X-5052Y116685D02*
Y116357D01*
X-5216Y116193D01*
X-5544D01*
X-5708Y116357D01*
Y116685D01*
X-5544Y116849D01*
X-5380D01*
Y116193D01*
X-5708Y117177D02*
X-5052D01*
X-5380D01*
X-5544Y117341D01*
X-5708Y117505D01*
Y117669D01*
X-5052Y118161D02*
Y118489D01*
Y118325D01*
X-6036D01*
Y118161D01*
X-5708Y119145D02*
Y119473D01*
X-5544Y119637D01*
X-5052D01*
Y119145D01*
X-5216Y118981D01*
X-5380Y119145D01*
Y119637D01*
X-5708Y119965D02*
X-5216D01*
X-5052Y120129D01*
Y120621D01*
X-4888D01*
X-4724Y120457D01*
Y120293D01*
X-5052Y120621D02*
X-5708D01*
X-8359Y64360D02*
X-9343D01*
Y64852D01*
X-9179Y65016D01*
X-8851D01*
X-8687Y64852D01*
Y64360D01*
X-9343Y65344D02*
Y65672D01*
Y65508D01*
X-8359D01*
Y65344D01*
Y65672D01*
Y67147D02*
Y67639D01*
X-8523Y67803D01*
X-8687Y67639D01*
Y67312D01*
X-8851Y67147D01*
X-9015Y67312D01*
Y67803D01*
X-9179Y68295D02*
X-9015D01*
Y68131D01*
Y68459D01*
Y68295D01*
X-8523D01*
X-8359Y68459D01*
Y68951D02*
Y69279D01*
Y69115D01*
X-9015D01*
Y68951D01*
X-8359Y69935D02*
X-9179D01*
X-8851D01*
Y69771D01*
Y70099D01*
Y69935D01*
X-9179D01*
X-9343Y70099D01*
X-8359Y70755D02*
X-9179D01*
X-8851D01*
Y70591D01*
Y70919D01*
Y70755D01*
X-9179D01*
X-9343Y70919D01*
X-8359Y71411D02*
Y71739D01*
Y71575D01*
X-9015D01*
Y71411D01*
X-8359Y72231D02*
X-9015D01*
Y72723D01*
X-8851Y72887D01*
X-8359D01*
Y73707D02*
Y73379D01*
X-8523Y73215D01*
X-8851D01*
X-9015Y73379D01*
Y73707D01*
X-8851Y73871D01*
X-8687D01*
Y73215D01*
X-9015Y74199D02*
X-8359D01*
X-8687D01*
X-8851Y74363D01*
X-9015Y74527D01*
Y74691D01*
X-9179Y76331D02*
X-9015D01*
Y76167D01*
Y76495D01*
Y76331D01*
X-8523D01*
X-8359Y76495D01*
Y77151D02*
Y77479D01*
X-8523Y77643D01*
X-8851D01*
X-9015Y77479D01*
Y77151D01*
X-8851Y76987D01*
X-8523D01*
X-8359Y77151D01*
X-9179Y78955D02*
X-9343Y79119D01*
Y79447D01*
X-9179Y79611D01*
X-8523D01*
X-8359Y79447D01*
Y79119D01*
X-8523Y78955D01*
X-9179D01*
X-8359Y79939D02*
X-8523D01*
Y80102D01*
X-8359D01*
Y79939D01*
X-9179Y80759D02*
X-9343Y80923D01*
Y81251D01*
X-9179Y81414D01*
X-9015D01*
X-8851Y81251D01*
Y81086D01*
Y81251D01*
X-8687Y81414D01*
X-8523D01*
X-8359Y81251D01*
Y80923D01*
X-8523Y80759D01*
X-8359Y81742D02*
X-9015D01*
Y81906D01*
X-8851Y82070D01*
X-8359D01*
X-8851D01*
X-9015Y82234D01*
X-8851Y82398D01*
X-8359D01*
Y82726D02*
X-9015D01*
Y82890D01*
X-8851Y83054D01*
X-8359D01*
X-8851D01*
X-9015Y83218D01*
X-8851Y83382D01*
X-8359D01*
X-7198Y62228D02*
Y62884D01*
X-7525Y62556D02*
X-6870D01*
X-6706Y63212D02*
X-7361Y63868D01*
X-7198Y64196D02*
Y64852D01*
X-7525Y65180D02*
X-7689Y65344D01*
Y65672D01*
X-7525Y65836D01*
X-6870D01*
X-6706Y65672D01*
Y65344D01*
X-6870Y65180D01*
X-7525D01*
X-6706Y66163D02*
X-6870D01*
Y66328D01*
X-6706D01*
Y66163D01*
X-7525Y66983D02*
X-7689Y67147D01*
Y67475D01*
X-7525Y67639D01*
X-6870D01*
X-6706Y67475D01*
Y67147D01*
X-6870Y66983D01*
X-7525D01*
Y67967D02*
X-7689Y68131D01*
Y68459D01*
X-7525Y68623D01*
X-7361D01*
X-7198Y68459D01*
Y68295D01*
Y68459D01*
X-7034Y68623D01*
X-6870D01*
X-6706Y68459D01*
Y68131D01*
X-6870Y67967D01*
X-6706Y68951D02*
X-7361D01*
Y69115D01*
X-7198Y69279D01*
X-6706D01*
X-7198D01*
X-7361Y69443D01*
X-7198Y69607D01*
X-6706D01*
Y69935D02*
X-7361D01*
Y70099D01*
X-7198Y70263D01*
X-6706D01*
X-7198D01*
X-7361Y70427D01*
X-7198Y70591D01*
X-6706D01*
X-7525Y72067D02*
X-7361D01*
Y71903D01*
Y72231D01*
Y72067D01*
X-6870D01*
X-6706Y72231D01*
Y72887D02*
Y73215D01*
X-6870Y73379D01*
X-7198D01*
X-7361Y73215D01*
Y72887D01*
X-7198Y72723D01*
X-6870D01*
X-6706Y72887D01*
X-7525Y73871D02*
X-7361D01*
Y73707D01*
Y74035D01*
Y73871D01*
X-6870D01*
X-6706Y74035D01*
X-7361Y74691D02*
Y75019D01*
X-7198Y75183D01*
X-6706D01*
Y74691D01*
X-6870Y74527D01*
X-7034Y74691D01*
Y75183D01*
X-6706Y75511D02*
Y75839D01*
Y75675D01*
X-7689D01*
Y75511D01*
X-7525Y77479D02*
X-7361D01*
Y77315D01*
Y77643D01*
Y77479D01*
X-6870D01*
X-6706Y77643D01*
X-7689Y78135D02*
X-6706D01*
X-7198D01*
X-7361Y78299D01*
Y78627D01*
X-7198Y78791D01*
X-6706D01*
Y79119D02*
Y79447D01*
Y79283D01*
X-7361D01*
Y79119D01*
Y80594D02*
Y80102D01*
X-7198Y79939D01*
X-6870D01*
X-6706Y80102D01*
Y80594D01*
Y80923D02*
X-7689D01*
X-7034D02*
X-7361Y81414D01*
X-7034Y80923D02*
X-6706Y81414D01*
Y81906D02*
X-7361D01*
Y82398D01*
X-7198Y82562D01*
X-6706D01*
Y83382D02*
Y83054D01*
X-6870Y82890D01*
X-7198D01*
X-7361Y83054D01*
Y83382D01*
X-7198Y83546D01*
X-7034D01*
Y82890D01*
X-6706Y83874D02*
Y84366D01*
X-6870Y84530D01*
X-7034Y84366D01*
Y84038D01*
X-7198Y83874D01*
X-7361Y84038D01*
Y84530D01*
X-6706Y84858D02*
Y85350D01*
X-6870Y85514D01*
X-7034Y85350D01*
Y85022D01*
X-7198Y84858D01*
X-7361Y85022D01*
Y85514D01*
X-5708Y66492D02*
X-5216D01*
X-5052Y66655D01*
X-5216Y66820D01*
X-5052Y66983D01*
X-5216Y67147D01*
X-5708D01*
X-5052Y67475D02*
Y67803D01*
Y67639D01*
X-5708D01*
Y67475D01*
X-5872Y68459D02*
X-5708D01*
Y68295D01*
Y68623D01*
Y68459D01*
X-5216D01*
X-5052Y68623D01*
X-6036Y69115D02*
X-5052D01*
X-5544D01*
X-5708Y69279D01*
Y69607D01*
X-5544Y69771D01*
X-5052D01*
Y70263D02*
Y70591D01*
X-5216Y70755D01*
X-5544D01*
X-5708Y70591D01*
Y70263D01*
X-5544Y70099D01*
X-5216D01*
X-5052Y70263D01*
X-5708Y71083D02*
X-5216D01*
X-5052Y71247D01*
Y71739D01*
X-5708D01*
X-5872Y72231D02*
X-5708D01*
Y72067D01*
Y72395D01*
Y72231D01*
X-5216D01*
X-5052Y72395D01*
X-5708Y74527D02*
Y74035D01*
X-5544Y73871D01*
X-5216D01*
X-5052Y74035D01*
Y74527D01*
Y75019D02*
Y75347D01*
X-5216Y75511D01*
X-5544D01*
X-5708Y75347D01*
Y75019D01*
X-5544Y74855D01*
X-5216D01*
X-5052Y75019D01*
X-5708Y75839D02*
X-5052Y76167D01*
X-5708Y76495D01*
X-5052Y77315D02*
Y76987D01*
X-5216Y76823D01*
X-5544D01*
X-5708Y76987D01*
Y77315D01*
X-5544Y77479D01*
X-5380D01*
Y76823D01*
X-5708Y77807D02*
X-5052D01*
X-5380D01*
X-5544Y77971D01*
X-5708Y78135D01*
Y78299D01*
X-5052Y78791D02*
Y79119D01*
Y78955D01*
X-6036D01*
Y78791D01*
X-5708Y79774D02*
Y80102D01*
X-5544Y80266D01*
X-5052D01*
Y79774D01*
X-5216Y79611D01*
X-5380Y79774D01*
Y80266D01*
X-5708Y80594D02*
X-5216D01*
X-5052Y80759D01*
Y81250D01*
X-4888D01*
X-4724Y81086D01*
Y80923D01*
X-5052Y81250D02*
X-5708D01*
X-8359Y-53947D02*
X-9343D01*
Y-53456D01*
X-9179Y-53291D01*
X-8851D01*
X-8687Y-53456D01*
Y-53947D01*
X-9343Y-52964D02*
Y-52636D01*
Y-52799D01*
X-8359D01*
Y-52964D01*
Y-52636D01*
Y-51160D02*
Y-50668D01*
X-8523Y-50504D01*
X-8687Y-50668D01*
Y-50996D01*
X-8851Y-51160D01*
X-9015Y-50996D01*
Y-50504D01*
X-9179Y-50012D02*
X-9015D01*
Y-50176D01*
Y-49848D01*
Y-50012D01*
X-8523D01*
X-8359Y-49848D01*
Y-49356D02*
Y-49028D01*
Y-49192D01*
X-9015D01*
Y-49356D01*
X-8359Y-48372D02*
X-9179D01*
X-8851D01*
Y-48536D01*
Y-48208D01*
Y-48372D01*
X-9179D01*
X-9343Y-48208D01*
X-8359Y-47552D02*
X-9179D01*
X-8851D01*
Y-47716D01*
Y-47388D01*
Y-47552D01*
X-9179D01*
X-9343Y-47388D01*
X-8359Y-46896D02*
Y-46568D01*
Y-46732D01*
X-9015D01*
Y-46896D01*
X-8359Y-46076D02*
X-9015D01*
Y-45584D01*
X-8851Y-45420D01*
X-8359D01*
Y-44600D02*
Y-44928D01*
X-8523Y-45092D01*
X-8851D01*
X-9015Y-44928D01*
Y-44600D01*
X-8851Y-44436D01*
X-8687D01*
Y-45092D01*
X-9015Y-44108D02*
X-8359D01*
X-8687D01*
X-8851Y-43944D01*
X-9015Y-43780D01*
Y-43616D01*
X-9179Y-41976D02*
X-9015D01*
Y-42140D01*
Y-41812D01*
Y-41976D01*
X-8523D01*
X-8359Y-41812D01*
Y-41156D02*
Y-40828D01*
X-8523Y-40664D01*
X-8851D01*
X-9015Y-40828D01*
Y-41156D01*
X-8851Y-41320D01*
X-8523D01*
X-8359Y-41156D01*
X-9179Y-39353D02*
X-9343Y-39189D01*
Y-38860D01*
X-9179Y-38697D01*
X-8523D01*
X-8359Y-38860D01*
Y-39189D01*
X-8523Y-39353D01*
X-9179D01*
X-8359Y-38368D02*
X-8523D01*
Y-38205D01*
X-8359D01*
Y-38368D01*
X-9179Y-37549D02*
X-9343Y-37385D01*
Y-37057D01*
X-9179Y-36893D01*
X-9015D01*
X-8851Y-37057D01*
Y-37221D01*
Y-37057D01*
X-8687Y-36893D01*
X-8523D01*
X-8359Y-37057D01*
Y-37385D01*
X-8523Y-37549D01*
X-8359Y-36565D02*
X-9015D01*
Y-36401D01*
X-8851Y-36237D01*
X-8359D01*
X-8851D01*
X-9015Y-36073D01*
X-8851Y-35909D01*
X-8359D01*
Y-35581D02*
X-9015D01*
Y-35417D01*
X-8851Y-35253D01*
X-8359D01*
X-8851D01*
X-9015Y-35089D01*
X-8851Y-34925D01*
X-8359D01*
X-7198Y-56079D02*
Y-55423D01*
X-7525Y-55751D02*
X-6870D01*
X-6706Y-55095D02*
X-7361Y-54439D01*
X-7198Y-54111D02*
Y-53456D01*
X-7525Y-53127D02*
X-7689Y-52964D01*
Y-52636D01*
X-7525Y-52472D01*
X-6870D01*
X-6706Y-52636D01*
Y-52964D01*
X-6870Y-53127D01*
X-7525D01*
X-6706Y-52144D02*
X-6870D01*
Y-51980D01*
X-6706D01*
Y-52144D01*
X-7525Y-51324D02*
X-7689Y-51160D01*
Y-50832D01*
X-7525Y-50668D01*
X-6870D01*
X-6706Y-50832D01*
Y-51160D01*
X-6870Y-51324D01*
X-7525D01*
Y-50340D02*
X-7689Y-50176D01*
Y-49848D01*
X-7525Y-49684D01*
X-7361D01*
X-7198Y-49848D01*
Y-50012D01*
Y-49848D01*
X-7034Y-49684D01*
X-6870D01*
X-6706Y-49848D01*
Y-50176D01*
X-6870Y-50340D01*
X-6706Y-49356D02*
X-7361D01*
Y-49192D01*
X-7198Y-49028D01*
X-6706D01*
X-7198D01*
X-7361Y-48864D01*
X-7198Y-48700D01*
X-6706D01*
Y-48372D02*
X-7361D01*
Y-48208D01*
X-7198Y-48044D01*
X-6706D01*
X-7198D01*
X-7361Y-47880D01*
X-7198Y-47716D01*
X-6706D01*
X-7525Y-46240D02*
X-7361D01*
Y-46404D01*
Y-46076D01*
Y-46240D01*
X-6870D01*
X-6706Y-46076D01*
Y-45420D02*
Y-45092D01*
X-6870Y-44928D01*
X-7198D01*
X-7361Y-45092D01*
Y-45420D01*
X-7198Y-45584D01*
X-6870D01*
X-6706Y-45420D01*
X-7525Y-44436D02*
X-7361D01*
Y-44600D01*
Y-44272D01*
Y-44436D01*
X-6870D01*
X-6706Y-44272D01*
X-7361Y-43616D02*
Y-43288D01*
X-7198Y-43124D01*
X-6706D01*
Y-43616D01*
X-6870Y-43780D01*
X-7034Y-43616D01*
Y-43124D01*
X-6706Y-42796D02*
Y-42468D01*
Y-42632D01*
X-7689D01*
Y-42796D01*
X-7525Y-40828D02*
X-7361D01*
Y-40992D01*
Y-40664D01*
Y-40828D01*
X-6870D01*
X-6706Y-40664D01*
X-7689Y-40172D02*
X-6706D01*
X-7198D01*
X-7361Y-40008D01*
Y-39680D01*
X-7198Y-39516D01*
X-6706D01*
Y-39189D02*
Y-38860D01*
Y-39024D01*
X-7361D01*
Y-39189D01*
Y-37713D02*
Y-38205D01*
X-7198Y-38368D01*
X-6870D01*
X-6706Y-38205D01*
Y-37713D01*
Y-37385D02*
X-7689D01*
X-7034D02*
X-7361Y-36893D01*
X-7034Y-37385D02*
X-6706Y-36893D01*
Y-36401D02*
X-7361D01*
Y-35909D01*
X-7198Y-35745D01*
X-6706D01*
Y-34925D02*
Y-35253D01*
X-6870Y-35417D01*
X-7198D01*
X-7361Y-35253D01*
Y-34925D01*
X-7198Y-34761D01*
X-7034D01*
Y-35417D01*
X-6706Y-34433D02*
Y-33941D01*
X-6870Y-33777D01*
X-7034Y-33941D01*
Y-34269D01*
X-7198Y-34433D01*
X-7361Y-34269D01*
Y-33777D01*
X-6706Y-33449D02*
Y-32957D01*
X-6870Y-32793D01*
X-7034Y-32957D01*
Y-33285D01*
X-7198Y-33449D01*
X-7361Y-33285D01*
Y-32793D01*
X-5708Y-51816D02*
X-5216D01*
X-5052Y-51652D01*
X-5216Y-51488D01*
X-5052Y-51324D01*
X-5216Y-51160D01*
X-5708D01*
X-5052Y-50832D02*
Y-50504D01*
Y-50668D01*
X-5708D01*
Y-50832D01*
X-5872Y-49848D02*
X-5708D01*
Y-50012D01*
Y-49684D01*
Y-49848D01*
X-5216D01*
X-5052Y-49684D01*
X-6036Y-49192D02*
X-5052D01*
X-5544D01*
X-5708Y-49028D01*
Y-48700D01*
X-5544Y-48536D01*
X-5052D01*
Y-48044D02*
Y-47716D01*
X-5216Y-47552D01*
X-5544D01*
X-5708Y-47716D01*
Y-48044D01*
X-5544Y-48208D01*
X-5216D01*
X-5052Y-48044D01*
X-5708Y-47224D02*
X-5216D01*
X-5052Y-47060D01*
Y-46568D01*
X-5708D01*
X-5872Y-46076D02*
X-5708D01*
Y-46240D01*
Y-45912D01*
Y-46076D01*
X-5216D01*
X-5052Y-45912D01*
X-5708Y-43780D02*
Y-44272D01*
X-5544Y-44436D01*
X-5216D01*
X-5052Y-44272D01*
Y-43780D01*
Y-43288D02*
Y-42960D01*
X-5216Y-42796D01*
X-5544D01*
X-5708Y-42960D01*
Y-43288D01*
X-5544Y-43452D01*
X-5216D01*
X-5052Y-43288D01*
X-5708Y-42468D02*
X-5052Y-42140D01*
X-5708Y-41812D01*
X-5052Y-40992D02*
Y-41320D01*
X-5216Y-41484D01*
X-5544D01*
X-5708Y-41320D01*
Y-40992D01*
X-5544Y-40828D01*
X-5380D01*
Y-41484D01*
X-5708Y-40500D02*
X-5052D01*
X-5380D01*
X-5544Y-40336D01*
X-5708Y-40172D01*
Y-40008D01*
X-5052Y-39516D02*
Y-39189D01*
Y-39353D01*
X-6036D01*
Y-39516D01*
X-5708Y-38533D02*
Y-38205D01*
X-5544Y-38041D01*
X-5052D01*
Y-38533D01*
X-5216Y-38697D01*
X-5380Y-38533D01*
Y-38041D01*
X-5708Y-37713D02*
X-5216D01*
X-5052Y-37549D01*
Y-37057D01*
X-4888D01*
X-4724Y-37221D01*
Y-37385D01*
X-5052Y-37057D02*
X-5708D01*
X248516Y122648D02*
X249500D01*
Y122156D01*
X249336Y121992D01*
X249008D01*
X248844Y122156D01*
Y122648D01*
X249500Y121664D02*
Y121336D01*
Y121500D01*
X248516D01*
Y121664D01*
Y121336D01*
Y119860D02*
Y119369D01*
X248680Y119204D01*
X248844Y119369D01*
Y119696D01*
X249008Y119860D01*
X249172Y119696D01*
Y119204D01*
X249336Y118712D02*
X249172D01*
Y118877D01*
Y118549D01*
Y118712D01*
X248680D01*
X248516Y118549D01*
Y118056D02*
Y117729D01*
Y117893D01*
X249172D01*
Y118056D01*
X248516Y117073D02*
X249336D01*
X249008D01*
Y117237D01*
Y116909D01*
Y117073D01*
X249336D01*
X249500Y116909D01*
X248516Y116253D02*
X249336D01*
X249008D01*
Y116417D01*
Y116089D01*
Y116253D01*
X249336D01*
X249500Y116089D01*
X248516Y115597D02*
Y115269D01*
Y115433D01*
X249172D01*
Y115597D01*
X248516Y114777D02*
X249172D01*
Y114285D01*
X249008Y114121D01*
X248516D01*
Y113301D02*
Y113629D01*
X248680Y113793D01*
X249008D01*
X249172Y113629D01*
Y113301D01*
X249008Y113137D01*
X248844D01*
Y113793D01*
X249172Y112809D02*
X248516D01*
X248844D01*
X249008Y112645D01*
X249172Y112481D01*
Y112317D01*
X249336Y110677D02*
X249172D01*
Y110841D01*
Y110513D01*
Y110677D01*
X248680D01*
X248516Y110513D01*
Y109857D02*
Y109529D01*
X248680Y109365D01*
X249008D01*
X249172Y109529D01*
Y109857D01*
X249008Y110021D01*
X248680D01*
X248516Y109857D01*
X249336Y108053D02*
X249500Y107889D01*
Y107561D01*
X249336Y107397D01*
X248680D01*
X248516Y107561D01*
Y107889D01*
X248680Y108053D01*
X249336D01*
X248516Y107069D02*
X248680D01*
Y106905D01*
X248516D01*
Y107069D01*
X249336Y106249D02*
X249500Y106085D01*
Y105757D01*
X249336Y105594D01*
X249172D01*
X249008Y105757D01*
Y105921D01*
Y105757D01*
X248844Y105594D01*
X248680D01*
X248516Y105757D01*
Y106085D01*
X248680Y106249D01*
X248516Y105265D02*
X249172D01*
Y105102D01*
X249008Y104938D01*
X248516D01*
X249008D01*
X249172Y104773D01*
X249008Y104610D01*
X248516D01*
Y104281D02*
X249172D01*
Y104118D01*
X249008Y103954D01*
X248516D01*
X249008D01*
X249172Y103790D01*
X249008Y103626D01*
X248516D01*
X247355Y124780D02*
Y124124D01*
X247683Y124452D02*
X247027D01*
X246863Y123796D02*
X247519Y123140D01*
X247355Y122812D02*
Y122156D01*
X247683Y121828D02*
X247847Y121664D01*
Y121336D01*
X247683Y121172D01*
X247027D01*
X246863Y121336D01*
Y121664D01*
X247027Y121828D01*
X247683D01*
X246863Y120844D02*
X247027D01*
Y120680D01*
X246863D01*
Y120844D01*
X247683Y120024D02*
X247847Y119860D01*
Y119532D01*
X247683Y119369D01*
X247027D01*
X246863Y119532D01*
Y119860D01*
X247027Y120024D01*
X247683D01*
Y119041D02*
X247847Y118877D01*
Y118549D01*
X247683Y118385D01*
X247519D01*
X247355Y118549D01*
Y118712D01*
Y118549D01*
X247191Y118385D01*
X247027D01*
X246863Y118549D01*
Y118877D01*
X247027Y119041D01*
X246863Y118056D02*
X247519D01*
Y117893D01*
X247355Y117729D01*
X246863D01*
X247355D01*
X247519Y117565D01*
X247355Y117401D01*
X246863D01*
Y117073D02*
X247519D01*
Y116909D01*
X247355Y116745D01*
X246863D01*
X247355D01*
X247519Y116581D01*
X247355Y116417D01*
X246863D01*
X247683Y114941D02*
X247519D01*
Y115105D01*
Y114777D01*
Y114941D01*
X247027D01*
X246863Y114777D01*
Y114121D02*
Y113793D01*
X247027Y113629D01*
X247355D01*
X247519Y113793D01*
Y114121D01*
X247355Y114285D01*
X247027D01*
X246863Y114121D01*
X247683Y113137D02*
X247519D01*
Y113301D01*
Y112973D01*
Y113137D01*
X247027D01*
X246863Y112973D01*
X247519Y112317D02*
Y111989D01*
X247355Y111825D01*
X246863D01*
Y112317D01*
X247027Y112481D01*
X247191Y112317D01*
Y111825D01*
X246863Y111497D02*
Y111169D01*
Y111333D01*
X247847D01*
Y111497D01*
X247683Y109529D02*
X247519D01*
Y109693D01*
Y109365D01*
Y109529D01*
X247027D01*
X246863Y109365D01*
X247847Y108873D02*
X246863D01*
X247355D01*
X247519Y108709D01*
Y108381D01*
X247355Y108217D01*
X246863D01*
Y107889D02*
Y107561D01*
Y107725D01*
X247519D01*
Y107889D01*
Y106413D02*
Y106905D01*
X247355Y107069D01*
X247027D01*
X246863Y106905D01*
Y106413D01*
Y106085D02*
X247847D01*
X247191D02*
X247519Y105593D01*
X247191Y106085D02*
X246863Y105593D01*
Y105102D02*
X247519D01*
Y104610D01*
X247355Y104446D01*
X246863D01*
Y103626D02*
Y103954D01*
X247027Y104118D01*
X247355D01*
X247519Y103954D01*
Y103626D01*
X247355Y103462D01*
X247191D01*
Y104118D01*
X246863Y103134D02*
Y102642D01*
X247027Y102478D01*
X247191Y102642D01*
Y102970D01*
X247355Y103134D01*
X247519Y102970D01*
Y102478D01*
X246863Y102150D02*
Y101658D01*
X247027Y101494D01*
X247191Y101658D01*
Y101986D01*
X247355Y102150D01*
X247519Y101986D01*
Y101494D01*
X245866Y120516D02*
X245374D01*
X245210Y120352D01*
X245374Y120188D01*
X245210Y120024D01*
X245374Y119860D01*
X245866D01*
X245210Y119532D02*
Y119204D01*
Y119369D01*
X245866D01*
Y119532D01*
X246030Y118549D02*
X245866D01*
Y118712D01*
Y118385D01*
Y118549D01*
X245374D01*
X245210Y118385D01*
X246194Y117893D02*
X245210D01*
X245702D01*
X245866Y117729D01*
Y117401D01*
X245702Y117237D01*
X245210D01*
Y116745D02*
Y116417D01*
X245374Y116253D01*
X245702D01*
X245866Y116417D01*
Y116745D01*
X245702Y116909D01*
X245374D01*
X245210Y116745D01*
X245866Y115925D02*
X245374D01*
X245210Y115761D01*
Y115269D01*
X245866D01*
X246030Y114777D02*
X245866D01*
Y114941D01*
Y114613D01*
Y114777D01*
X245374D01*
X245210Y114613D01*
X245866Y112481D02*
Y112973D01*
X245702Y113137D01*
X245374D01*
X245210Y112973D01*
Y112481D01*
Y111989D02*
Y111661D01*
X245374Y111497D01*
X245702D01*
X245866Y111661D01*
Y111989D01*
X245702Y112153D01*
X245374D01*
X245210Y111989D01*
X245866Y111169D02*
X245210Y110841D01*
X245866Y110513D01*
X245210Y109693D02*
Y110021D01*
X245374Y110185D01*
X245702D01*
X245866Y110021D01*
Y109693D01*
X245702Y109529D01*
X245538D01*
Y110185D01*
X245866Y109201D02*
X245210D01*
X245538D01*
X245702Y109037D01*
X245866Y108873D01*
Y108709D01*
X245210Y108217D02*
Y107889D01*
Y108053D01*
X246194D01*
Y108217D01*
X245866Y107233D02*
Y106905D01*
X245702Y106741D01*
X245210D01*
Y107233D01*
X245374Y107397D01*
X245538Y107233D01*
Y106741D01*
X245866Y106413D02*
X245374D01*
X245210Y106249D01*
Y105757D01*
X245046D01*
X244882Y105921D01*
Y106085D01*
X245210Y105757D02*
X245866D01*
X92315Y47254D02*
X93299D01*
Y46762D01*
X93135Y46599D01*
X92807D01*
X92643Y46762D01*
Y47254D01*
X93299Y46271D02*
Y45943D01*
Y46107D01*
X92315D01*
Y46271D01*
Y45943D01*
Y44467D02*
Y43975D01*
X92479Y43811D01*
X92643Y43975D01*
Y44303D01*
X92807Y44467D01*
X92971Y44303D01*
Y43811D01*
X93135Y43319D02*
X92971D01*
Y43483D01*
Y43155D01*
Y43319D01*
X92479D01*
X92315Y43155D01*
Y42663D02*
Y42335D01*
Y42499D01*
X92971D01*
Y42663D01*
X92315Y41679D02*
X93135D01*
X92807D01*
Y41843D01*
Y41515D01*
Y41679D01*
X93135D01*
X93299Y41515D01*
X92315Y40859D02*
X93135D01*
X92807D01*
Y41023D01*
Y40695D01*
Y40859D01*
X93135D01*
X93299Y40695D01*
X92315Y40203D02*
Y39875D01*
Y40039D01*
X92971D01*
Y40203D01*
X92315Y39383D02*
X92971D01*
Y38891D01*
X92807Y38727D01*
X92315D01*
Y37907D02*
Y38235D01*
X92479Y38399D01*
X92807D01*
X92971Y38235D01*
Y37907D01*
X92807Y37743D01*
X92643D01*
Y38399D01*
X92971Y37415D02*
X92315D01*
X92643D01*
X92807Y37251D01*
X92971Y37087D01*
Y36923D01*
X93135Y35283D02*
X92971D01*
Y35447D01*
Y35119D01*
Y35283D01*
X92479D01*
X92315Y35119D01*
Y34463D02*
Y34135D01*
X92479Y33972D01*
X92807D01*
X92971Y34135D01*
Y34463D01*
X92807Y34627D01*
X92479D01*
X92315Y34463D01*
X93135Y32660D02*
X93299Y32496D01*
Y32168D01*
X93135Y32004D01*
X92479D01*
X92315Y32168D01*
Y32496D01*
X92479Y32660D01*
X93135D01*
X92315Y31676D02*
X92479D01*
Y31512D01*
X92315D01*
Y31676D01*
X93135Y30856D02*
X93299Y30692D01*
Y30364D01*
X93135Y30200D01*
X92971D01*
X92807Y30364D01*
Y30528D01*
Y30364D01*
X92643Y30200D01*
X92479D01*
X92315Y30364D01*
Y30692D01*
X92479Y30856D01*
X92315Y29872D02*
X92971D01*
Y29708D01*
X92807Y29544D01*
X92315D01*
X92807D01*
X92971Y29380D01*
X92807Y29216D01*
X92315D01*
Y28888D02*
X92971D01*
Y28724D01*
X92807Y28560D01*
X92315D01*
X92807D01*
X92971Y28396D01*
X92807Y28232D01*
X92315D01*
X91154Y49386D02*
Y48730D01*
X91482Y49058D02*
X90826D01*
X90662Y48402D02*
X91318Y47747D01*
X91154Y47418D02*
Y46763D01*
X91482Y46435D02*
X91646Y46271D01*
Y45943D01*
X91482Y45779D01*
X90826D01*
X90662Y45943D01*
Y46271D01*
X90826Y46435D01*
X91482D01*
X90662Y45451D02*
X90826D01*
Y45287D01*
X90662D01*
Y45451D01*
X91482Y44631D02*
X91646Y44467D01*
Y44139D01*
X91482Y43975D01*
X90826D01*
X90662Y44139D01*
Y44467D01*
X90826Y44631D01*
X91482D01*
Y43647D02*
X91646Y43483D01*
Y43155D01*
X91482Y42991D01*
X91318D01*
X91154Y43155D01*
Y43319D01*
Y43155D01*
X90990Y42991D01*
X90826D01*
X90662Y43155D01*
Y43483D01*
X90826Y43647D01*
X90662Y42663D02*
X91318D01*
Y42499D01*
X91154Y42335D01*
X90662D01*
X91154D01*
X91318Y42171D01*
X91154Y42007D01*
X90662D01*
Y41679D02*
X91318D01*
Y41515D01*
X91154Y41351D01*
X90662D01*
X91154D01*
X91318Y41187D01*
X91154Y41023D01*
X90662D01*
X91482Y39547D02*
X91318D01*
Y39711D01*
Y39383D01*
Y39547D01*
X90826D01*
X90662Y39383D01*
Y38727D02*
Y38399D01*
X90826Y38235D01*
X91154D01*
X91318Y38399D01*
Y38727D01*
X91154Y38891D01*
X90826D01*
X90662Y38727D01*
X91482Y37743D02*
X91318D01*
Y37907D01*
Y37579D01*
Y37743D01*
X90826D01*
X90662Y37579D01*
X91318Y36923D02*
Y36595D01*
X91154Y36431D01*
X90662D01*
Y36923D01*
X90826Y37087D01*
X90990Y36923D01*
Y36431D01*
X90662Y36103D02*
Y35775D01*
Y35939D01*
X91646D01*
Y36103D01*
X91482Y34135D02*
X91318D01*
Y34299D01*
Y33972D01*
Y34135D01*
X90826D01*
X90662Y33972D01*
X91646Y33479D02*
X90662D01*
X91154D01*
X91318Y33316D01*
Y32987D01*
X91154Y32824D01*
X90662D01*
Y32496D02*
Y32168D01*
Y32332D01*
X91318D01*
Y32496D01*
Y31020D02*
Y31512D01*
X91154Y31676D01*
X90826D01*
X90662Y31512D01*
Y31020D01*
Y30692D02*
X91646D01*
X90990D02*
X91318Y30200D01*
X90990Y30692D02*
X90662Y30200D01*
Y29708D02*
X91318D01*
Y29216D01*
X91154Y29052D01*
X90662D01*
Y28232D02*
Y28560D01*
X90826Y28724D01*
X91154D01*
X91318Y28560D01*
Y28232D01*
X91154Y28068D01*
X90990D01*
Y28724D01*
X90662Y27740D02*
Y27248D01*
X90826Y27084D01*
X90990Y27248D01*
Y27576D01*
X91154Y27740D01*
X91318Y27576D01*
Y27084D01*
X90662Y26756D02*
Y26264D01*
X90826Y26100D01*
X90990Y26264D01*
Y26592D01*
X91154Y26756D01*
X91318Y26592D01*
Y26100D01*
X89665Y45123D02*
X89173D01*
X89009Y44959D01*
X89173Y44795D01*
X89009Y44631D01*
X89173Y44467D01*
X89665D01*
X89009Y44139D02*
Y43811D01*
Y43975D01*
X89665D01*
Y44139D01*
X89829Y43155D02*
X89665D01*
Y43319D01*
Y42991D01*
Y43155D01*
X89173D01*
X89009Y42991D01*
X89993Y42499D02*
X89009D01*
X89501D01*
X89665Y42335D01*
Y42007D01*
X89501Y41843D01*
X89009D01*
Y41351D02*
Y41023D01*
X89173Y40859D01*
X89501D01*
X89665Y41023D01*
Y41351D01*
X89501Y41515D01*
X89173D01*
X89009Y41351D01*
X89665Y40531D02*
X89173D01*
X89009Y40367D01*
Y39875D01*
X89665D01*
X89829Y39383D02*
X89665D01*
Y39547D01*
Y39219D01*
Y39383D01*
X89173D01*
X89009Y39219D01*
X89665Y37087D02*
Y37579D01*
X89501Y37743D01*
X89173D01*
X89009Y37579D01*
Y37087D01*
Y36595D02*
Y36267D01*
X89173Y36103D01*
X89501D01*
X89665Y36267D01*
Y36595D01*
X89501Y36759D01*
X89173D01*
X89009Y36595D01*
X89665Y35775D02*
X89009Y35447D01*
X89665Y35119D01*
X89009Y34299D02*
Y34627D01*
X89173Y34791D01*
X89501D01*
X89665Y34627D01*
Y34299D01*
X89501Y34135D01*
X89337D01*
Y34791D01*
X89665Y33808D02*
X89009D01*
X89337D01*
X89501Y33643D01*
X89665Y33479D01*
Y33316D01*
X89009Y32824D02*
Y32496D01*
Y32660D01*
X89993D01*
Y32824D01*
X89665Y31840D02*
Y31512D01*
X89501Y31348D01*
X89009D01*
Y31840D01*
X89173Y32004D01*
X89337Y31840D01*
Y31348D01*
X89665Y31020D02*
X89173D01*
X89009Y30856D01*
Y30364D01*
X88845D01*
X88681Y30528D01*
Y30692D01*
X89009Y30364D02*
X89665D01*
X145954Y-167823D02*
Y-166839D01*
X146446D01*
X146610Y-167002D01*
Y-167331D01*
X146446Y-167494D01*
X145954D01*
X146938Y-166839D02*
X147266D01*
X147102D01*
Y-167823D01*
X146938D01*
X147266D01*
X148742D02*
X149234D01*
X149398Y-167658D01*
X149234Y-167494D01*
X148906D01*
X148742Y-167331D01*
X148906Y-167166D01*
X149398D01*
X149890Y-167002D02*
Y-167166D01*
X149726D01*
X150054D01*
X149890D01*
Y-167658D01*
X150054Y-167823D01*
X150546D02*
X150874D01*
X150710D01*
Y-167166D01*
X150546D01*
X151530Y-167823D02*
Y-167002D01*
Y-167331D01*
X151366D01*
X151694D01*
X151530D01*
Y-167002D01*
X151694Y-166839D01*
X152350Y-167823D02*
Y-167002D01*
Y-167331D01*
X152186D01*
X152514D01*
X152350D01*
Y-167002D01*
X152514Y-166839D01*
X153006Y-167823D02*
X153334D01*
X153170D01*
Y-167166D01*
X153006D01*
X153826Y-167823D02*
Y-167166D01*
X154318D01*
X154481Y-167331D01*
Y-167823D01*
X155301D02*
X154973D01*
X154809Y-167658D01*
Y-167331D01*
X154973Y-167166D01*
X155301D01*
X155465Y-167331D01*
Y-167494D01*
X154809D01*
X155793Y-167166D02*
Y-167823D01*
Y-167494D01*
X155957Y-167331D01*
X156121Y-167166D01*
X156285D01*
X157925Y-167002D02*
Y-167166D01*
X157761D01*
X158089D01*
X157925D01*
Y-167658D01*
X158089Y-167823D01*
X158745D02*
X159073D01*
X159237Y-167658D01*
Y-167331D01*
X159073Y-167166D01*
X158745D01*
X158581Y-167331D01*
Y-167658D01*
X158745Y-167823D01*
X160549Y-167002D02*
X160713Y-166839D01*
X161041D01*
X161205Y-167002D01*
Y-167658D01*
X161041Y-167823D01*
X160713D01*
X160549Y-167658D01*
Y-167002D01*
X161533Y-167823D02*
Y-167658D01*
X161697D01*
Y-167823D01*
X161533D01*
X162353Y-167002D02*
X162517Y-166839D01*
X162845D01*
X163009Y-167002D01*
Y-167166D01*
X162845Y-167331D01*
X162681D01*
X162845D01*
X163009Y-167494D01*
Y-167658D01*
X162845Y-167823D01*
X162517D01*
X162353Y-167658D01*
X163337Y-167823D02*
Y-167166D01*
X163501D01*
X163665Y-167331D01*
Y-167823D01*
Y-167331D01*
X163829Y-167166D01*
X163993Y-167331D01*
Y-167823D01*
X164321D02*
Y-167166D01*
X164485D01*
X164649Y-167331D01*
Y-167823D01*
Y-167331D01*
X164813Y-167166D01*
X164977Y-167331D01*
Y-167823D01*
X143822Y-168984D02*
X144478D01*
X144150Y-168656D02*
Y-169312D01*
X144806Y-169476D02*
X145462Y-168820D01*
X145790Y-168984D02*
X146446D01*
X146774Y-168656D02*
X146938Y-168492D01*
X147266D01*
X147430Y-168656D01*
Y-169312D01*
X147266Y-169476D01*
X146938D01*
X146774Y-169312D01*
Y-168656D01*
X147758Y-169476D02*
Y-169312D01*
X147922D01*
Y-169476D01*
X147758D01*
X148578Y-168656D02*
X148742Y-168492D01*
X149070D01*
X149234Y-168656D01*
Y-169312D01*
X149070Y-169476D01*
X148742D01*
X148578Y-169312D01*
Y-168656D01*
X149562D02*
X149726Y-168492D01*
X150054D01*
X150218Y-168656D01*
Y-168820D01*
X150054Y-168984D01*
X149890D01*
X150054D01*
X150218Y-169148D01*
Y-169312D01*
X150054Y-169476D01*
X149726D01*
X149562Y-169312D01*
X150546Y-169476D02*
Y-168820D01*
X150710D01*
X150874Y-168984D01*
Y-169476D01*
Y-168984D01*
X151038Y-168820D01*
X151202Y-168984D01*
Y-169476D01*
X151530D02*
Y-168820D01*
X151694D01*
X151858Y-168984D01*
Y-169476D01*
Y-168984D01*
X152022Y-168820D01*
X152186Y-168984D01*
Y-169476D01*
X153662Y-168656D02*
Y-168820D01*
X153498D01*
X153826D01*
X153662D01*
Y-169312D01*
X153826Y-169476D01*
X154481D02*
X154809D01*
X154973Y-169312D01*
Y-168984D01*
X154809Y-168820D01*
X154481D01*
X154318Y-168984D01*
Y-169312D01*
X154481Y-169476D01*
X155465Y-168656D02*
Y-168820D01*
X155301D01*
X155630D01*
X155465D01*
Y-169312D01*
X155630Y-169476D01*
X156285Y-168820D02*
X156613D01*
X156777Y-168984D01*
Y-169476D01*
X156285D01*
X156121Y-169312D01*
X156285Y-169148D01*
X156777D01*
X157105Y-169476D02*
X157433D01*
X157269D01*
Y-168492D01*
X157105D01*
X159073Y-168656D02*
Y-168820D01*
X158909D01*
X159237D01*
X159073D01*
Y-169312D01*
X159237Y-169476D01*
X159729Y-168492D02*
Y-169476D01*
Y-168984D01*
X159893Y-168820D01*
X160221D01*
X160385Y-168984D01*
Y-169476D01*
X160713D02*
X161041D01*
X160877D01*
Y-168820D01*
X160713D01*
X162189D02*
X161697D01*
X161533Y-168984D01*
Y-169312D01*
X161697Y-169476D01*
X162189D01*
X162517D02*
Y-168492D01*
Y-169148D02*
X163009Y-168820D01*
X162517Y-169148D02*
X163009Y-169476D01*
X163501D02*
Y-168820D01*
X163993D01*
X164157Y-168984D01*
Y-169476D01*
X164977D02*
X164649D01*
X164485Y-169312D01*
Y-168984D01*
X164649Y-168820D01*
X164977D01*
X165141Y-168984D01*
Y-169148D01*
X164485D01*
X165469Y-169476D02*
X165961D01*
X166125Y-169312D01*
X165961Y-169148D01*
X165633D01*
X165469Y-168984D01*
X165633Y-168820D01*
X166125D01*
X166453Y-169476D02*
X166945D01*
X167109Y-169312D01*
X166945Y-169148D01*
X166617D01*
X166453Y-168984D01*
X166617Y-168820D01*
X167109D01*
X148086Y-170473D02*
Y-170965D01*
X148250Y-171129D01*
X148414Y-170965D01*
X148578Y-171129D01*
X148742Y-170965D01*
Y-170473D01*
X149070Y-171129D02*
X149398D01*
X149234D01*
Y-170473D01*
X149070D01*
X150054Y-170309D02*
Y-170473D01*
X149890D01*
X150218D01*
X150054D01*
Y-170965D01*
X150218Y-171129D01*
X150710Y-170145D02*
Y-171129D01*
Y-170637D01*
X150874Y-170473D01*
X151202D01*
X151366Y-170637D01*
Y-171129D01*
X151858D02*
X152186D01*
X152350Y-170965D01*
Y-170637D01*
X152186Y-170473D01*
X151858D01*
X151694Y-170637D01*
Y-170965D01*
X151858Y-171129D01*
X152678Y-170473D02*
Y-170965D01*
X152842Y-171129D01*
X153334D01*
Y-170473D01*
X153826Y-170309D02*
Y-170473D01*
X153662D01*
X153990D01*
X153826D01*
Y-170965D01*
X153990Y-171129D01*
X156121Y-170473D02*
X155629D01*
X155465Y-170637D01*
Y-170965D01*
X155629Y-171129D01*
X156121D01*
X156613D02*
X156941D01*
X157105Y-170965D01*
Y-170637D01*
X156941Y-170473D01*
X156613D01*
X156449Y-170637D01*
Y-170965D01*
X156613Y-171129D01*
X157433Y-170473D02*
X157761Y-171129D01*
X158089Y-170473D01*
X158909Y-171129D02*
X158581D01*
X158417Y-170965D01*
Y-170637D01*
X158581Y-170473D01*
X158909D01*
X159073Y-170637D01*
Y-170801D01*
X158417D01*
X159401Y-170473D02*
Y-171129D01*
Y-170801D01*
X159565Y-170637D01*
X159729Y-170473D01*
X159893D01*
X160385Y-171129D02*
X160713D01*
X160549D01*
Y-170145D01*
X160385D01*
X161369Y-170473D02*
X161697D01*
X161861Y-170637D01*
Y-171129D01*
X161369D01*
X161205Y-170965D01*
X161369Y-170801D01*
X161861D01*
X162189Y-170473D02*
Y-170965D01*
X162353Y-171129D01*
X162845D01*
Y-171293D01*
X162681Y-171457D01*
X162517D01*
X162845Y-171129D02*
Y-170473D01*
X-8359Y-85247D02*
X-9343D01*
Y-84755D01*
X-9179Y-84591D01*
X-8851D01*
X-8687Y-84755D01*
Y-85247D01*
X-9343Y-84263D02*
Y-83935D01*
Y-84099D01*
X-8359D01*
Y-84263D01*
Y-83935D01*
Y-82459D02*
Y-81967D01*
X-8523Y-81803D01*
X-8687Y-81967D01*
Y-82295D01*
X-8851Y-82459D01*
X-9015Y-82295D01*
Y-81803D01*
X-9179Y-81311D02*
X-9015D01*
Y-81475D01*
Y-81147D01*
Y-81311D01*
X-8523D01*
X-8359Y-81147D01*
Y-80655D02*
Y-80327D01*
Y-80491D01*
X-9015D01*
Y-80655D01*
X-8359Y-79671D02*
X-9179D01*
X-8851D01*
Y-79835D01*
Y-79507D01*
Y-79671D01*
X-9179D01*
X-9343Y-79507D01*
X-8359Y-78851D02*
X-9179D01*
X-8851D01*
Y-79015D01*
Y-78687D01*
Y-78851D01*
X-9179D01*
X-9343Y-78687D01*
X-8359Y-78195D02*
Y-77867D01*
Y-78031D01*
X-9015D01*
Y-78195D01*
X-8359Y-77375D02*
X-9015D01*
Y-76883D01*
X-8851Y-76719D01*
X-8359D01*
Y-75899D02*
Y-76227D01*
X-8523Y-76391D01*
X-8851D01*
X-9015Y-76227D01*
Y-75899D01*
X-8851Y-75735D01*
X-8687D01*
Y-76391D01*
X-9015Y-75407D02*
X-8359D01*
X-8687D01*
X-8851Y-75243D01*
X-9015Y-75079D01*
Y-74915D01*
X-9179Y-73276D02*
X-9015D01*
Y-73440D01*
Y-73111D01*
Y-73276D01*
X-8523D01*
X-8359Y-73111D01*
Y-72456D02*
Y-72128D01*
X-8523Y-71964D01*
X-8851D01*
X-9015Y-72128D01*
Y-72456D01*
X-8851Y-72620D01*
X-8523D01*
X-8359Y-72456D01*
X-9179Y-70652D02*
X-9343Y-70488D01*
Y-70160D01*
X-9179Y-69996D01*
X-8523D01*
X-8359Y-70160D01*
Y-70488D01*
X-8523Y-70652D01*
X-9179D01*
X-8359Y-69668D02*
X-8523D01*
Y-69504D01*
X-8359D01*
Y-69668D01*
X-9179Y-68848D02*
X-9343Y-68684D01*
Y-68356D01*
X-9179Y-68192D01*
X-9015D01*
X-8851Y-68356D01*
Y-68520D01*
Y-68356D01*
X-8687Y-68192D01*
X-8523D01*
X-8359Y-68356D01*
Y-68684D01*
X-8523Y-68848D01*
X-8359Y-67864D02*
X-9015D01*
Y-67700D01*
X-8851Y-67536D01*
X-8359D01*
X-8851D01*
X-9015Y-67372D01*
X-8851Y-67208D01*
X-8359D01*
Y-66880D02*
X-9015D01*
Y-66716D01*
X-8851Y-66552D01*
X-8359D01*
X-8851D01*
X-9015Y-66388D01*
X-8851Y-66224D01*
X-8359D01*
X-7198Y-87379D02*
Y-86722D01*
X-7525Y-87050D02*
X-6870D01*
X-6706Y-86395D02*
X-7361Y-85739D01*
X-7198Y-85411D02*
Y-84755D01*
X-7525Y-84427D02*
X-7689Y-84263D01*
Y-83935D01*
X-7525Y-83771D01*
X-6870D01*
X-6706Y-83935D01*
Y-84263D01*
X-6870Y-84427D01*
X-7525D01*
X-6706Y-83443D02*
X-6870D01*
Y-83279D01*
X-6706D01*
Y-83443D01*
X-7525Y-82623D02*
X-7689Y-82459D01*
Y-82131D01*
X-7525Y-81967D01*
X-6870D01*
X-6706Y-82131D01*
Y-82459D01*
X-6870Y-82623D01*
X-7525D01*
Y-81639D02*
X-7689Y-81475D01*
Y-81147D01*
X-7525Y-80983D01*
X-7361D01*
X-7198Y-81147D01*
Y-81311D01*
Y-81147D01*
X-7034Y-80983D01*
X-6870D01*
X-6706Y-81147D01*
Y-81475D01*
X-6870Y-81639D01*
X-6706Y-80655D02*
X-7361D01*
Y-80491D01*
X-7198Y-80327D01*
X-6706D01*
X-7198D01*
X-7361Y-80163D01*
X-7198Y-79999D01*
X-6706D01*
Y-79671D02*
X-7361D01*
Y-79507D01*
X-7198Y-79343D01*
X-6706D01*
X-7198D01*
X-7361Y-79179D01*
X-7198Y-79015D01*
X-6706D01*
X-7525Y-77539D02*
X-7361D01*
Y-77703D01*
Y-77375D01*
Y-77539D01*
X-6870D01*
X-6706Y-77375D01*
Y-76719D02*
Y-76391D01*
X-6870Y-76227D01*
X-7198D01*
X-7361Y-76391D01*
Y-76719D01*
X-7198Y-76883D01*
X-6870D01*
X-6706Y-76719D01*
X-7525Y-75735D02*
X-7361D01*
Y-75899D01*
Y-75571D01*
Y-75735D01*
X-6870D01*
X-6706Y-75571D01*
X-7361Y-74915D02*
Y-74587D01*
X-7198Y-74423D01*
X-6706D01*
Y-74915D01*
X-6870Y-75079D01*
X-7034Y-74915D01*
Y-74423D01*
X-6706Y-74095D02*
Y-73768D01*
Y-73931D01*
X-7689D01*
Y-74095D01*
X-7525Y-72128D02*
X-7361D01*
Y-72292D01*
Y-71964D01*
Y-72128D01*
X-6870D01*
X-6706Y-71964D01*
X-7689Y-71472D02*
X-6706D01*
X-7198D01*
X-7361Y-71308D01*
Y-70980D01*
X-7198Y-70816D01*
X-6706D01*
Y-70488D02*
Y-70160D01*
Y-70324D01*
X-7361D01*
Y-70488D01*
Y-69012D02*
Y-69504D01*
X-7198Y-69668D01*
X-6870D01*
X-6706Y-69504D01*
Y-69012D01*
Y-68684D02*
X-7689D01*
X-7034D02*
X-7361Y-68192D01*
X-7034Y-68684D02*
X-6706Y-68192D01*
Y-67700D02*
X-7361D01*
Y-67208D01*
X-7198Y-67044D01*
X-6706D01*
Y-66224D02*
Y-66552D01*
X-6870Y-66716D01*
X-7198D01*
X-7361Y-66552D01*
Y-66224D01*
X-7198Y-66060D01*
X-7034D01*
Y-66716D01*
X-6706Y-65732D02*
Y-65240D01*
X-6870Y-65076D01*
X-7034Y-65240D01*
Y-65568D01*
X-7198Y-65732D01*
X-7361Y-65568D01*
Y-65076D01*
X-6706Y-64748D02*
Y-64256D01*
X-6870Y-64092D01*
X-7034Y-64256D01*
Y-64584D01*
X-7198Y-64748D01*
X-7361Y-64584D01*
Y-64092D01*
X-5708Y-83115D02*
X-5216D01*
X-5052Y-82951D01*
X-5216Y-82787D01*
X-5052Y-82623D01*
X-5216Y-82459D01*
X-5708D01*
X-5052Y-82131D02*
Y-81803D01*
Y-81967D01*
X-5708D01*
Y-82131D01*
X-5872Y-81147D02*
X-5708D01*
Y-81311D01*
Y-80983D01*
Y-81147D01*
X-5216D01*
X-5052Y-80983D01*
X-6036Y-80491D02*
X-5052D01*
X-5544D01*
X-5708Y-80327D01*
Y-79999D01*
X-5544Y-79835D01*
X-5052D01*
Y-79343D02*
Y-79015D01*
X-5216Y-78851D01*
X-5544D01*
X-5708Y-79015D01*
Y-79343D01*
X-5544Y-79507D01*
X-5216D01*
X-5052Y-79343D01*
X-5708Y-78523D02*
X-5216D01*
X-5052Y-78359D01*
Y-77867D01*
X-5708D01*
X-5872Y-77375D02*
X-5708D01*
Y-77539D01*
Y-77211D01*
Y-77375D01*
X-5216D01*
X-5052Y-77211D01*
X-5708Y-75079D02*
Y-75571D01*
X-5544Y-75735D01*
X-5216D01*
X-5052Y-75571D01*
Y-75079D01*
Y-74587D02*
Y-74259D01*
X-5216Y-74095D01*
X-5544D01*
X-5708Y-74259D01*
Y-74587D01*
X-5544Y-74751D01*
X-5216D01*
X-5052Y-74587D01*
X-5708Y-73768D02*
X-5052Y-73440D01*
X-5708Y-73111D01*
X-5052Y-72292D02*
Y-72620D01*
X-5216Y-72783D01*
X-5544D01*
X-5708Y-72620D01*
Y-72292D01*
X-5544Y-72128D01*
X-5380D01*
Y-72783D01*
X-5708Y-71800D02*
X-5052D01*
X-5380D01*
X-5544Y-71636D01*
X-5708Y-71472D01*
Y-71308D01*
X-5052Y-70816D02*
Y-70488D01*
Y-70652D01*
X-6036D01*
Y-70816D01*
X-5708Y-69832D02*
Y-69504D01*
X-5544Y-69340D01*
X-5052D01*
Y-69832D01*
X-5216Y-69996D01*
X-5380Y-69832D01*
Y-69340D01*
X-5708Y-69012D02*
X-5216D01*
X-5052Y-68848D01*
Y-68356D01*
X-4888D01*
X-4724Y-68520D01*
Y-68684D01*
X-5052Y-68356D02*
X-5708D01*
M02*
