G04*
G04 #@! TF.GenerationSoftware,Altium Limited,Altium Designer,23.10.1 (27)*
G04*
G04 Layer_Color=32896*
%FSLAX25Y25*%
%MOIN*%
G70*
G04*
G04 #@! TF.SameCoordinates,13E47035-5D8A-42FE-96CF-1707A3A9F588*
G04*
G04*
G04 #@! TF.FilePolarity,Positive*
G04*
G01*
G75*
%ADD11C,0.00787*%
%ADD14C,0.00492*%
G36*
X-30112Y-18175D02*
X-29984Y-18188D01*
X-29864Y-18210D01*
X-29749Y-18237D01*
X-29642Y-18270D01*
X-29544Y-18308D01*
X-29454Y-18347D01*
X-29372Y-18388D01*
X-29301Y-18429D01*
X-29236Y-18470D01*
X-29181Y-18508D01*
X-29135Y-18541D01*
X-29099Y-18568D01*
X-29074Y-18590D01*
X-29058Y-18603D01*
X-29053Y-18609D01*
X-28971Y-18693D01*
X-28900Y-18778D01*
X-28834Y-18868D01*
X-28777Y-18958D01*
X-28725Y-19046D01*
X-28681Y-19133D01*
X-28643Y-19218D01*
X-28610Y-19297D01*
X-28583Y-19373D01*
X-28561Y-19441D01*
X-28542Y-19504D01*
X-28528Y-19556D01*
X-28523Y-19581D01*
X-28518Y-19600D01*
X-28515Y-19619D01*
X-28512Y-19633D01*
X-28509Y-19643D01*
X-28507Y-19652D01*
Y-19657D01*
Y-19660D01*
X-29309Y-19862D01*
X-29323Y-19774D01*
X-29339Y-19693D01*
X-29358Y-19613D01*
X-29383Y-19542D01*
X-29410Y-19477D01*
X-29438Y-19414D01*
X-29470Y-19357D01*
X-29503Y-19302D01*
X-29539Y-19253D01*
X-29574Y-19209D01*
X-29612Y-19168D01*
X-29651Y-19130D01*
X-29691Y-19097D01*
X-29730Y-19067D01*
X-29771Y-19040D01*
X-29812Y-19015D01*
X-29850Y-18994D01*
X-29888Y-18977D01*
X-29965Y-18947D01*
X-30033Y-18925D01*
X-30095Y-18909D01*
X-30123Y-18906D01*
X-30147Y-18901D01*
X-30169Y-18898D01*
X-30186D01*
X-30202Y-18895D01*
X-30221D01*
X-30287Y-18898D01*
X-30349Y-18906D01*
X-30410Y-18917D01*
X-30464Y-18931D01*
X-30516Y-18950D01*
X-30565Y-18969D01*
X-30609Y-18991D01*
X-30650Y-19013D01*
X-30685Y-19035D01*
X-30718Y-19057D01*
X-30745Y-19076D01*
X-30767Y-19095D01*
X-30786Y-19108D01*
X-30797Y-19119D01*
X-30805Y-19128D01*
X-30808Y-19130D01*
X-30849Y-19174D01*
X-30885Y-19220D01*
X-30915Y-19269D01*
X-30942Y-19319D01*
X-30964Y-19368D01*
X-30983Y-19414D01*
X-30996Y-19460D01*
X-31010Y-19504D01*
X-31018Y-19548D01*
X-31026Y-19586D01*
X-31029Y-19619D01*
X-31035Y-19649D01*
Y-19673D01*
X-31037Y-19690D01*
Y-19703D01*
Y-19706D01*
X-31035Y-19761D01*
X-31026Y-19815D01*
X-31016Y-19870D01*
X-31002Y-19925D01*
X-30964Y-20028D01*
X-30944Y-20077D01*
X-30923Y-20124D01*
X-30901Y-20168D01*
X-30882Y-20209D01*
X-30863Y-20244D01*
X-30843Y-20274D01*
X-30830Y-20299D01*
X-30819Y-20315D01*
X-30811Y-20329D01*
X-30808Y-20331D01*
X-30762Y-20397D01*
X-30704Y-20462D01*
X-30641Y-20528D01*
X-30573Y-20596D01*
X-30502Y-20662D01*
X-30429Y-20727D01*
X-30355Y-20787D01*
X-30281Y-20847D01*
X-30210Y-20902D01*
X-30145Y-20951D01*
X-30082Y-20998D01*
X-30030Y-21036D01*
X-29986Y-21066D01*
X-29967Y-21079D01*
X-29954Y-21090D01*
X-29940Y-21099D01*
X-29932Y-21104D01*
X-29926Y-21109D01*
X-29923D01*
X-28507Y-22051D01*
Y-22859D01*
X-31914D01*
Y-22139D01*
X-29506D01*
X-29653Y-22054D01*
X-29792Y-21975D01*
X-29926Y-21896D01*
X-30055Y-21819D01*
X-30175Y-21745D01*
X-30289Y-21675D01*
X-30396Y-21606D01*
X-30500Y-21541D01*
X-30595Y-21478D01*
X-30685Y-21418D01*
X-30770Y-21361D01*
X-30849Y-21306D01*
X-30925Y-21254D01*
X-30994Y-21205D01*
X-31056Y-21159D01*
X-31117Y-21112D01*
X-31171Y-21071D01*
X-31220Y-21033D01*
X-31267Y-20998D01*
X-31308Y-20962D01*
X-31343Y-20932D01*
X-31376Y-20905D01*
X-31406Y-20877D01*
X-31433Y-20855D01*
X-31455Y-20834D01*
X-31471Y-20817D01*
X-31488Y-20801D01*
X-31499Y-20790D01*
X-31510Y-20779D01*
X-31515Y-20774D01*
X-31521Y-20768D01*
X-31592Y-20678D01*
X-31654Y-20588D01*
X-31709Y-20498D01*
X-31755Y-20405D01*
X-31796Y-20315D01*
X-31829Y-20228D01*
X-31856Y-20143D01*
X-31876Y-20064D01*
X-31895Y-19990D01*
X-31905Y-19922D01*
X-31914Y-19862D01*
X-31922Y-19810D01*
X-31925Y-19766D01*
Y-19750D01*
X-31927Y-19736D01*
Y-19723D01*
Y-19714D01*
Y-19712D01*
Y-19709D01*
X-31922Y-19586D01*
X-31908Y-19469D01*
X-31886Y-19357D01*
X-31856Y-19253D01*
X-31821Y-19155D01*
X-31783Y-19065D01*
X-31742Y-18980D01*
X-31698Y-18904D01*
X-31654Y-18835D01*
X-31613Y-18775D01*
X-31575Y-18723D01*
X-31540Y-18683D01*
X-31512Y-18647D01*
X-31488Y-18622D01*
X-31474Y-18609D01*
X-31469Y-18603D01*
X-31379Y-18527D01*
X-31286Y-18459D01*
X-31187Y-18401D01*
X-31087Y-18352D01*
X-30983Y-18311D01*
X-30882Y-18276D01*
X-30784Y-18246D01*
X-30688Y-18224D01*
X-30598Y-18205D01*
X-30513Y-18191D01*
X-30439Y-18183D01*
X-30407Y-18180D01*
X-30374Y-18175D01*
X-30347D01*
X-30322Y-18172D01*
X-30300D01*
X-30281Y-18169D01*
X-30248D01*
X-30112Y-18175D01*
D02*
G37*
G36*
X-26369Y-22859D02*
X-27011D01*
X-28171Y-19441D01*
X-27565D01*
X-26787Y-21759D01*
X-25987Y-19441D01*
X-25181D01*
X-26369Y-22859D01*
D02*
G37*
G36*
X3500Y-18172D02*
X3579Y-18177D01*
X3655Y-18186D01*
X3729Y-18196D01*
X3803Y-18213D01*
X3871Y-18229D01*
X4005Y-18273D01*
X4128Y-18322D01*
X4242Y-18379D01*
X4343Y-18437D01*
X4439Y-18499D01*
X4521Y-18562D01*
X4595Y-18620D01*
X4655Y-18677D01*
X4682Y-18702D01*
X4707Y-18726D01*
X4728Y-18748D01*
X4747Y-18770D01*
X4764Y-18786D01*
X4775Y-18803D01*
X4786Y-18813D01*
X4794Y-18822D01*
X4797Y-18827D01*
X4799Y-18830D01*
X4846Y-18893D01*
X4887Y-18958D01*
X4928Y-19024D01*
X4963Y-19092D01*
X5031Y-19234D01*
X5089Y-19376D01*
X5138Y-19521D01*
X5176Y-19662D01*
X5209Y-19802D01*
X5236Y-19936D01*
X5258Y-20061D01*
X5266Y-20121D01*
X5272Y-20178D01*
X5280Y-20230D01*
X5283Y-20282D01*
X5288Y-20329D01*
X5291Y-20372D01*
X5294Y-20411D01*
X5296Y-20446D01*
Y-20476D01*
X5299Y-20501D01*
Y-20520D01*
Y-20536D01*
Y-20544D01*
Y-20547D01*
X5296Y-20670D01*
X5291Y-20787D01*
X5280Y-20902D01*
X5266Y-21014D01*
X5250Y-21118D01*
X5231Y-21216D01*
X5212Y-21309D01*
X5192Y-21396D01*
X5173Y-21473D01*
X5154Y-21543D01*
X5135Y-21604D01*
X5119Y-21655D01*
X5105Y-21696D01*
X5100Y-21713D01*
X5094Y-21726D01*
X5091Y-21737D01*
X5089Y-21745D01*
X5086Y-21748D01*
Y-21751D01*
X5042Y-21849D01*
X4999Y-21945D01*
X4950Y-22032D01*
X4900Y-22114D01*
X4848Y-22190D01*
X4799Y-22262D01*
X4747Y-22327D01*
X4701Y-22387D01*
X4655Y-22439D01*
X4614Y-22483D01*
X4575Y-22524D01*
X4543Y-22556D01*
X4515Y-22581D01*
X4494Y-22600D01*
X4483Y-22611D01*
X4477Y-22614D01*
X4401Y-22668D01*
X4319Y-22717D01*
X4237Y-22761D01*
X4150Y-22797D01*
X4065Y-22827D01*
X3980Y-22854D01*
X3896Y-22873D01*
X3816Y-22889D01*
X3740Y-22903D01*
X3672Y-22914D01*
X3609Y-22919D01*
X3554Y-22925D01*
X3533Y-22928D01*
X3511D01*
X3494Y-22930D01*
X3451D01*
X3311Y-22925D01*
X3183Y-22911D01*
X3058Y-22889D01*
X2943Y-22859D01*
X2834Y-22827D01*
X2736Y-22788D01*
X2643Y-22747D01*
X2561Y-22706D01*
X2487Y-22666D01*
X2421Y-22625D01*
X2367Y-22586D01*
X2321Y-22554D01*
X2282Y-22524D01*
X2258Y-22502D01*
X2241Y-22488D01*
X2236Y-22483D01*
X2154Y-22395D01*
X2080Y-22305D01*
X2015Y-22210D01*
X1957Y-22114D01*
X1905Y-22018D01*
X1862Y-21926D01*
X1826Y-21833D01*
X1794Y-21743D01*
X1769Y-21661D01*
X1747Y-21585D01*
X1731Y-21516D01*
X1717Y-21456D01*
X1712Y-21432D01*
X1709Y-21407D01*
X1704Y-21388D01*
Y-21372D01*
X1701Y-21358D01*
X1698Y-21350D01*
Y-21344D01*
Y-21341D01*
X2471Y-21257D01*
X2479Y-21331D01*
X2492Y-21402D01*
X2512Y-21467D01*
X2531Y-21533D01*
X2555Y-21593D01*
X2580Y-21650D01*
X2604Y-21702D01*
X2629Y-21751D01*
X2656Y-21795D01*
X2681Y-21833D01*
X2703Y-21866D01*
X2722Y-21893D01*
X2738Y-21915D01*
X2752Y-21931D01*
X2760Y-21942D01*
X2763Y-21945D01*
X2812Y-21994D01*
X2864Y-22040D01*
X2916Y-22079D01*
X2967Y-22111D01*
X3022Y-22139D01*
X3071Y-22161D01*
X3123Y-22180D01*
X3170Y-22196D01*
X3216Y-22207D01*
X3257Y-22215D01*
X3292Y-22223D01*
X3325Y-22226D01*
X3350Y-22229D01*
X3369Y-22231D01*
X3385D01*
X3470Y-22226D01*
X3546Y-22212D01*
X3623Y-22190D01*
X3691Y-22163D01*
X3757Y-22133D01*
X3816Y-22095D01*
X3874Y-22057D01*
X3923Y-22016D01*
X3967Y-21978D01*
X4008Y-21939D01*
X4040Y-21901D01*
X4068Y-21868D01*
X4090Y-21841D01*
X4106Y-21822D01*
X4117Y-21808D01*
X4120Y-21803D01*
X4169Y-21718D01*
X4212Y-21625D01*
X4248Y-21527D01*
X4281Y-21423D01*
X4308Y-21320D01*
X4330Y-21213D01*
X4349Y-21109D01*
X4363Y-21008D01*
X4374Y-20910D01*
X4384Y-20823D01*
X4390Y-20741D01*
X4393Y-20705D01*
Y-20673D01*
X4395Y-20640D01*
Y-20613D01*
X4398Y-20591D01*
Y-20572D01*
Y-20555D01*
Y-20542D01*
Y-20536D01*
Y-20533D01*
X4395Y-20383D01*
X4387Y-20241D01*
X4374Y-20110D01*
X4357Y-19990D01*
X4338Y-19875D01*
X4316Y-19772D01*
X4292Y-19679D01*
X4267Y-19594D01*
X4245Y-19521D01*
X4221Y-19455D01*
X4199Y-19400D01*
X4180Y-19357D01*
X4163Y-19321D01*
X4150Y-19294D01*
X4141Y-19280D01*
X4139Y-19275D01*
X4087Y-19198D01*
X4032Y-19130D01*
X3975Y-19073D01*
X3915Y-19021D01*
X3855Y-18980D01*
X3795Y-18945D01*
X3735Y-18914D01*
X3677Y-18893D01*
X3623Y-18874D01*
X3574Y-18860D01*
X3530Y-18852D01*
X3489Y-18844D01*
X3456Y-18841D01*
X3434Y-18838D01*
X3413D01*
X3344Y-18841D01*
X3281Y-18849D01*
X3221Y-18863D01*
X3161Y-18882D01*
X3107Y-18906D01*
X3055Y-18934D01*
X3006Y-18966D01*
X2957Y-19002D01*
X2913Y-19040D01*
X2872Y-19081D01*
X2793Y-19168D01*
X2727Y-19264D01*
X2667Y-19360D01*
X2618Y-19458D01*
X2577Y-19553D01*
X2542Y-19641D01*
X2528Y-19682D01*
X2514Y-19720D01*
X2503Y-19755D01*
X2495Y-19788D01*
X2487Y-19815D01*
X2482Y-19840D01*
X2476Y-19859D01*
X2473Y-19873D01*
X2471Y-19881D01*
Y-19884D01*
X1698Y-19805D01*
X1725Y-19660D01*
X1758Y-19526D01*
X1796Y-19400D01*
X1840Y-19283D01*
X1886Y-19174D01*
X1933Y-19073D01*
X1982Y-18983D01*
X2031Y-18904D01*
X2080Y-18830D01*
X2124Y-18767D01*
X2168Y-18715D01*
X2203Y-18672D01*
X2233Y-18636D01*
X2258Y-18611D01*
X2271Y-18598D01*
X2277Y-18592D01*
X2364Y-18519D01*
X2457Y-18453D01*
X2553Y-18396D01*
X2648Y-18347D01*
X2744Y-18306D01*
X2839Y-18273D01*
X2929Y-18246D01*
X3019Y-18221D01*
X3101Y-18205D01*
X3178Y-18191D01*
X3246Y-18183D01*
X3303Y-18175D01*
X3328D01*
X3352Y-18172D01*
X3371D01*
X3388Y-18169D01*
X3418D01*
X3500Y-18172D01*
D02*
G37*
G36*
X-6538Y-18551D02*
X-6467Y-19441D01*
X-5995D01*
Y-20039D01*
X-6421D01*
Y-21811D01*
Y-21893D01*
X-6426Y-21967D01*
X-6432Y-22038D01*
X-6437Y-22103D01*
X-6446Y-22163D01*
X-6454Y-22218D01*
X-6462Y-22267D01*
X-6473Y-22311D01*
X-6484Y-22349D01*
X-6492Y-22382D01*
X-6500Y-22412D01*
X-6508Y-22433D01*
X-6516Y-22453D01*
X-6519Y-22464D01*
X-6525Y-22472D01*
Y-22474D01*
X-6547Y-22513D01*
X-6568Y-22551D01*
X-6620Y-22616D01*
X-6675Y-22674D01*
X-6727Y-22723D01*
X-6776Y-22761D01*
X-6798Y-22775D01*
X-6817Y-22788D01*
X-6831Y-22797D01*
X-6841Y-22805D01*
X-6850Y-22807D01*
X-6852Y-22810D01*
X-6896Y-22832D01*
X-6940Y-22851D01*
X-7030Y-22881D01*
X-7120Y-22903D01*
X-7204Y-22917D01*
X-7243Y-22922D01*
X-7278Y-22928D01*
X-7308Y-22930D01*
X-7335D01*
X-7357Y-22933D01*
X-7426D01*
X-7464Y-22930D01*
X-7551Y-22922D01*
X-7638Y-22908D01*
X-7726Y-22895D01*
X-7767Y-22889D01*
X-7802Y-22884D01*
X-7835Y-22876D01*
X-7865Y-22870D01*
X-7890Y-22865D01*
X-7906Y-22862D01*
X-7920Y-22859D01*
X-7923D01*
Y-22259D01*
X-7884Y-22262D01*
X-7816D01*
X-7789Y-22264D01*
X-7729D01*
X-7671Y-22262D01*
X-7617Y-22259D01*
X-7568Y-22253D01*
X-7524Y-22245D01*
X-7483Y-22237D01*
X-7445Y-22229D01*
X-7415Y-22218D01*
X-7385Y-22207D01*
X-7360Y-22196D01*
X-7341Y-22185D01*
X-7325Y-22177D01*
X-7311Y-22169D01*
X-7300Y-22161D01*
X-7292Y-22155D01*
X-7289Y-22150D01*
X-7286D01*
X-7267Y-22125D01*
X-7248Y-22098D01*
X-7235Y-22065D01*
X-7221Y-22032D01*
X-7199Y-21959D01*
X-7185Y-21885D01*
X-7183Y-21852D01*
X-7177Y-21819D01*
X-7174Y-21789D01*
Y-21762D01*
X-7172Y-21740D01*
Y-21724D01*
Y-21713D01*
Y-21710D01*
Y-20039D01*
X-7857D01*
Y-19441D01*
X-7172D01*
Y-18494D01*
X-6538Y-18551D01*
D02*
G37*
G36*
X-19263Y-19373D02*
X-19195Y-19376D01*
X-19066Y-19392D01*
X-18944Y-19417D01*
X-18832Y-19450D01*
X-18725Y-19488D01*
X-18627Y-19532D01*
X-18539Y-19578D01*
X-18458Y-19624D01*
X-18386Y-19671D01*
X-18324Y-19717D01*
X-18272Y-19761D01*
X-18225Y-19799D01*
X-18193Y-19832D01*
X-18165Y-19856D01*
X-18152Y-19873D01*
X-18146Y-19875D01*
Y-19878D01*
X-18070Y-19976D01*
X-18002Y-20080D01*
X-17944Y-20184D01*
X-17895Y-20293D01*
X-17852Y-20400D01*
X-17816Y-20506D01*
X-17789Y-20610D01*
X-17764Y-20711D01*
X-17745Y-20804D01*
X-17731Y-20888D01*
X-17723Y-20965D01*
X-17720Y-21000D01*
X-17718Y-21033D01*
X-17715Y-21060D01*
X-17712Y-21088D01*
Y-21109D01*
X-17709Y-21126D01*
Y-21142D01*
Y-21153D01*
Y-21159D01*
Y-21161D01*
X-17715Y-21312D01*
X-17729Y-21451D01*
X-17751Y-21585D01*
X-17778Y-21707D01*
X-17810Y-21822D01*
X-17846Y-21928D01*
X-17884Y-22027D01*
X-17925Y-22114D01*
X-17966Y-22193D01*
X-18004Y-22262D01*
X-18040Y-22319D01*
X-18073Y-22368D01*
X-18100Y-22406D01*
X-18122Y-22433D01*
X-18130Y-22442D01*
X-18135Y-22450D01*
X-18141Y-22453D01*
Y-22455D01*
X-18182Y-22499D01*
X-18225Y-22540D01*
X-18316Y-22611D01*
X-18408Y-22677D01*
X-18504Y-22731D01*
X-18599Y-22775D01*
X-18695Y-22813D01*
X-18788Y-22846D01*
X-18878Y-22870D01*
X-18963Y-22889D01*
X-19039Y-22906D01*
X-19110Y-22917D01*
X-19170Y-22922D01*
X-19195Y-22925D01*
X-19219Y-22928D01*
X-19238D01*
X-19257Y-22930D01*
X-19287D01*
X-19397Y-22928D01*
X-19500Y-22917D01*
X-19599Y-22903D01*
X-19692Y-22884D01*
X-19779Y-22859D01*
X-19861Y-22835D01*
X-19934Y-22807D01*
X-20003Y-22780D01*
X-20063Y-22753D01*
X-20117Y-22726D01*
X-20164Y-22698D01*
X-20202Y-22677D01*
X-20232Y-22657D01*
X-20254Y-22644D01*
X-20267Y-22633D01*
X-20273Y-22630D01*
X-20344Y-22573D01*
X-20410Y-22510D01*
X-20467Y-22447D01*
X-20521Y-22384D01*
X-20571Y-22319D01*
X-20612Y-22256D01*
X-20650Y-22193D01*
X-20685Y-22136D01*
X-20712Y-22079D01*
X-20737Y-22029D01*
X-20756Y-21983D01*
X-20773Y-21942D01*
X-20786Y-21909D01*
X-20794Y-21885D01*
X-20797Y-21871D01*
X-20800Y-21866D01*
X-20104Y-21770D01*
X-20085Y-21822D01*
X-20063Y-21868D01*
X-20038Y-21912D01*
X-20014Y-21953D01*
X-19986Y-21991D01*
X-19956Y-22029D01*
X-19899Y-22092D01*
X-19836Y-22147D01*
X-19771Y-22190D01*
X-19705Y-22229D01*
X-19642Y-22256D01*
X-19580Y-22281D01*
X-19522Y-22297D01*
X-19470Y-22311D01*
X-19424Y-22319D01*
X-19386Y-22324D01*
X-19356Y-22327D01*
X-19331D01*
X-19276Y-22324D01*
X-19225Y-22322D01*
X-19175Y-22313D01*
X-19129Y-22302D01*
X-19085Y-22291D01*
X-19047Y-22278D01*
X-19009Y-22264D01*
X-18976Y-22248D01*
X-18944Y-22234D01*
X-18919Y-22221D01*
X-18894Y-22207D01*
X-18875Y-22196D01*
X-18859Y-22185D01*
X-18848Y-22177D01*
X-18843Y-22174D01*
X-18840Y-22171D01*
X-18804Y-22141D01*
X-18771Y-22111D01*
X-18742Y-22079D01*
X-18717Y-22049D01*
X-18670Y-21986D01*
X-18635Y-21928D01*
X-18608Y-21879D01*
X-18599Y-21858D01*
X-18591Y-21841D01*
X-18586Y-21825D01*
X-18580Y-21814D01*
X-18578Y-21808D01*
Y-21806D01*
X-18567Y-21765D01*
X-18556Y-21721D01*
X-18539Y-21628D01*
X-18529Y-21535D01*
X-18520Y-21448D01*
X-18518Y-21404D01*
X-18515Y-21369D01*
Y-21333D01*
X-18512Y-21303D01*
Y-21279D01*
Y-21262D01*
Y-21249D01*
Y-21246D01*
X-20857D01*
X-20860Y-21159D01*
X-20854Y-21014D01*
X-20843Y-20877D01*
X-20824Y-20749D01*
X-20797Y-20626D01*
X-20767Y-20512D01*
X-20734Y-20405D01*
X-20699Y-20310D01*
X-20661Y-20220D01*
X-20622Y-20143D01*
X-20587Y-20072D01*
X-20554Y-20012D01*
X-20524Y-19963D01*
X-20500Y-19925D01*
X-20489Y-19908D01*
X-20478Y-19895D01*
X-20472Y-19886D01*
X-20467Y-19878D01*
X-20461Y-19875D01*
Y-19873D01*
X-20423Y-19826D01*
X-20382Y-19785D01*
X-20341Y-19744D01*
X-20298Y-19706D01*
X-20210Y-19641D01*
X-20117Y-19583D01*
X-20022Y-19534D01*
X-19929Y-19493D01*
X-19836Y-19460D01*
X-19746Y-19433D01*
X-19661Y-19411D01*
X-19585Y-19398D01*
X-19514Y-19387D01*
X-19451Y-19379D01*
X-19424Y-19376D01*
X-19402Y-19373D01*
X-19380D01*
X-19364Y-19370D01*
X-19331D01*
X-19263Y-19373D01*
D02*
G37*
G36*
X18504Y-22859D02*
X15662D01*
Y-22106D01*
X17628D01*
Y-18240D01*
X18504D01*
Y-22859D01*
D02*
G37*
G36*
X15048D02*
X12045D01*
Y-22144D01*
X14215D01*
Y-20850D01*
X12495D01*
Y-20178D01*
X14215D01*
Y-18925D01*
X12077D01*
Y-18240D01*
X15048D01*
Y-22859D01*
D02*
G37*
G36*
X11351D02*
X9836D01*
X9735Y-22857D01*
X9637Y-22851D01*
X9541Y-22843D01*
X9448Y-22832D01*
X9358Y-22816D01*
X9274Y-22799D01*
X9189Y-22777D01*
X9110Y-22756D01*
X9034Y-22734D01*
X8960Y-22706D01*
X8889Y-22679D01*
X8821Y-22652D01*
X8755Y-22622D01*
X8695Y-22592D01*
X8635Y-22562D01*
X8580Y-22529D01*
X8529Y-22499D01*
X8479Y-22469D01*
X8436Y-22439D01*
X8395Y-22409D01*
X8354Y-22382D01*
X8318Y-22354D01*
X8288Y-22327D01*
X8258Y-22305D01*
X8234Y-22283D01*
X8212Y-22262D01*
X8193Y-22245D01*
X8176Y-22229D01*
X8165Y-22218D01*
X8155Y-22210D01*
X8152Y-22204D01*
X8149Y-22201D01*
X8095Y-22139D01*
X8045Y-22073D01*
X7999Y-22008D01*
X7955Y-21942D01*
X7914Y-21874D01*
X7876Y-21806D01*
X7841Y-21735D01*
X7808Y-21666D01*
X7750Y-21527D01*
X7704Y-21391D01*
X7663Y-21260D01*
X7633Y-21131D01*
X7609Y-21014D01*
X7598Y-20956D01*
X7589Y-20905D01*
X7584Y-20853D01*
X7579Y-20806D01*
X7573Y-20763D01*
X7568Y-20722D01*
X7565Y-20686D01*
X7562Y-20653D01*
Y-20626D01*
X7559Y-20602D01*
Y-20583D01*
Y-20569D01*
Y-20561D01*
Y-20558D01*
X7562Y-20468D01*
X7565Y-20378D01*
X7573Y-20290D01*
X7584Y-20206D01*
X7611Y-20042D01*
X7649Y-19886D01*
X7693Y-19739D01*
X7739Y-19605D01*
X7767Y-19540D01*
X7791Y-19480D01*
X7819Y-19420D01*
X7846Y-19365D01*
X7873Y-19313D01*
X7901Y-19261D01*
X7925Y-19215D01*
X7953Y-19171D01*
X7977Y-19130D01*
X7999Y-19095D01*
X8021Y-19059D01*
X8043Y-19029D01*
X8062Y-19002D01*
X8081Y-18977D01*
X8095Y-18956D01*
X8108Y-18939D01*
X8119Y-18925D01*
X8127Y-18917D01*
X8130Y-18912D01*
X8133Y-18909D01*
X8187Y-18849D01*
X8245Y-18792D01*
X8302Y-18737D01*
X8362Y-18688D01*
X8422Y-18642D01*
X8485Y-18598D01*
X8548Y-18560D01*
X8610Y-18521D01*
X8673Y-18489D01*
X8736Y-18459D01*
X8862Y-18404D01*
X8987Y-18360D01*
X9105Y-18325D01*
X9217Y-18295D01*
X9318Y-18276D01*
X9367Y-18268D01*
X9410Y-18259D01*
X9454Y-18254D01*
X9492Y-18251D01*
X9525Y-18248D01*
X9558Y-18246D01*
X9582Y-18243D01*
X9607Y-18240D01*
X11351D01*
Y-22859D01*
D02*
G37*
G36*
X-4262Y-19373D02*
X-4204Y-19381D01*
X-4144Y-19392D01*
X-4090Y-19409D01*
X-4035Y-19428D01*
X-3980Y-19450D01*
X-3931Y-19477D01*
X-3882Y-19504D01*
X-3789Y-19570D01*
X-3705Y-19643D01*
X-3625Y-19720D01*
X-3557Y-19802D01*
X-3494Y-19881D01*
X-3440Y-19960D01*
X-3393Y-20034D01*
X-3355Y-20099D01*
X-3339Y-20127D01*
X-3325Y-20154D01*
X-3314Y-20176D01*
X-3303Y-20195D01*
X-3298Y-20211D01*
X-3292Y-20222D01*
X-3287Y-20230D01*
Y-19441D01*
X-2583D01*
Y-22859D01*
X-3355D01*
Y-21104D01*
X-3358Y-21008D01*
X-3366Y-20916D01*
X-3377Y-20834D01*
X-3391Y-20754D01*
X-3407Y-20684D01*
X-3426Y-20618D01*
X-3448Y-20561D01*
X-3470Y-20506D01*
X-3489Y-20460D01*
X-3511Y-20422D01*
X-3530Y-20386D01*
X-3546Y-20359D01*
X-3560Y-20337D01*
X-3571Y-20321D01*
X-3579Y-20312D01*
X-3582Y-20310D01*
X-3625Y-20263D01*
X-3669Y-20222D01*
X-3715Y-20187D01*
X-3759Y-20157D01*
X-3806Y-20129D01*
X-3849Y-20110D01*
X-3890Y-20091D01*
X-3931Y-20077D01*
X-3969Y-20067D01*
X-4005Y-20058D01*
X-4035Y-20053D01*
X-4059Y-20048D01*
X-4081D01*
X-4098Y-20045D01*
X-4111D01*
X-4152Y-20048D01*
X-4191Y-20053D01*
X-4226Y-20061D01*
X-4262Y-20072D01*
X-4327Y-20099D01*
X-4382Y-20129D01*
X-4403Y-20146D01*
X-4425Y-20162D01*
X-4442Y-20176D01*
X-4458Y-20189D01*
X-4469Y-20200D01*
X-4477Y-20209D01*
X-4483Y-20214D01*
X-4485Y-20217D01*
X-4513Y-20249D01*
X-4537Y-20288D01*
X-4556Y-20326D01*
X-4575Y-20367D01*
X-4592Y-20411D01*
X-4603Y-20451D01*
X-4622Y-20533D01*
X-4627Y-20572D01*
X-4633Y-20607D01*
X-4636Y-20640D01*
X-4638Y-20670D01*
X-4641Y-20692D01*
Y-20711D01*
Y-20722D01*
Y-20725D01*
Y-22859D01*
X-5414D01*
Y-20653D01*
X-5411Y-20525D01*
X-5400Y-20405D01*
X-5384Y-20296D01*
X-5364Y-20195D01*
X-5340Y-20105D01*
X-5313Y-20023D01*
X-5283Y-19949D01*
X-5255Y-19886D01*
X-5225Y-19829D01*
X-5195Y-19783D01*
X-5168Y-19742D01*
X-5143Y-19709D01*
X-5124Y-19684D01*
X-5108Y-19668D01*
X-5097Y-19657D01*
X-5094Y-19654D01*
X-5034Y-19605D01*
X-4969Y-19561D01*
X-4906Y-19523D01*
X-4840Y-19490D01*
X-4775Y-19463D01*
X-4709Y-19439D01*
X-4649Y-19420D01*
X-4589Y-19406D01*
X-4535Y-19395D01*
X-4483Y-19384D01*
X-4439Y-19379D01*
X-4401Y-19376D01*
X-4368Y-19373D01*
X-4343Y-19370D01*
X-4324D01*
X-4262Y-19373D01*
D02*
G37*
G36*
X-10164Y-19343D02*
X-10115Y-19349D01*
X-10063Y-19360D01*
X-10016Y-19376D01*
X-9924Y-19411D01*
X-9883Y-19431D01*
X-9844Y-19450D01*
X-9809Y-19471D01*
X-9776Y-19490D01*
X-9746Y-19510D01*
X-9724Y-19526D01*
X-9705Y-19540D01*
X-9689Y-19551D01*
X-9681Y-19559D01*
X-9678Y-19561D01*
X-9631Y-19605D01*
X-9585Y-19654D01*
X-9544Y-19706D01*
X-9506Y-19763D01*
X-9468Y-19821D01*
X-9435Y-19878D01*
X-9405Y-19936D01*
X-9377Y-19990D01*
X-9353Y-20045D01*
X-9331Y-20094D01*
X-9312Y-20140D01*
X-9298Y-20178D01*
X-9287Y-20211D01*
X-9279Y-20236D01*
X-9274Y-20252D01*
X-9271Y-20255D01*
Y-19441D01*
X-8572D01*
Y-22859D01*
X-9345D01*
Y-21276D01*
X-9347Y-21210D01*
X-9353Y-21145D01*
X-9361Y-21079D01*
X-9375Y-21014D01*
X-9388Y-20951D01*
X-9405Y-20891D01*
X-9424Y-20834D01*
X-9440Y-20782D01*
X-9459Y-20730D01*
X-9476Y-20686D01*
X-9492Y-20648D01*
X-9506Y-20613D01*
X-9520Y-20585D01*
X-9528Y-20566D01*
X-9533Y-20555D01*
X-9536Y-20550D01*
X-9577Y-20484D01*
X-9623Y-20424D01*
X-9678Y-20375D01*
X-9738Y-20331D01*
X-9801Y-20296D01*
X-9866Y-20266D01*
X-9932Y-20241D01*
X-9997Y-20220D01*
X-10060Y-20206D01*
X-10120Y-20192D01*
X-10175Y-20184D01*
X-10221Y-20178D01*
X-10262Y-20176D01*
X-10278Y-20173D01*
X-10317D01*
Y-19343D01*
X-10276Y-19340D01*
X-10216D01*
X-10164Y-19343D01*
D02*
G37*
G36*
X-14535Y-22859D02*
X-15307D01*
Y-18240D01*
X-14535D01*
Y-22859D01*
D02*
G37*
G36*
X-16230D02*
X-17002D01*
Y-18240D01*
X-16230D01*
Y-22859D01*
D02*
G37*
G36*
X-23156Y-19343D02*
X-23107Y-19349D01*
X-23055Y-19360D01*
X-23008Y-19376D01*
X-22916Y-19411D01*
X-22875Y-19431D01*
X-22836Y-19450D01*
X-22801Y-19471D01*
X-22768Y-19490D01*
X-22738Y-19510D01*
X-22716Y-19526D01*
X-22697Y-19540D01*
X-22681Y-19551D01*
X-22673Y-19559D01*
X-22670Y-19561D01*
X-22624Y-19605D01*
X-22577Y-19654D01*
X-22536Y-19706D01*
X-22498Y-19764D01*
X-22460Y-19821D01*
X-22427Y-19878D01*
X-22397Y-19936D01*
X-22370Y-19990D01*
X-22345Y-20045D01*
X-22323Y-20094D01*
X-22304Y-20140D01*
X-22290Y-20178D01*
X-22279Y-20211D01*
X-22271Y-20236D01*
X-22266Y-20252D01*
X-22263Y-20255D01*
Y-19441D01*
X-21564D01*
Y-22859D01*
X-22337D01*
Y-21276D01*
X-22340Y-21211D01*
X-22345Y-21145D01*
X-22353Y-21079D01*
X-22367Y-21014D01*
X-22380Y-20951D01*
X-22397Y-20891D01*
X-22416Y-20834D01*
X-22432Y-20782D01*
X-22452Y-20730D01*
X-22468Y-20686D01*
X-22484Y-20648D01*
X-22498Y-20613D01*
X-22512Y-20585D01*
X-22520Y-20566D01*
X-22525Y-20555D01*
X-22528Y-20550D01*
X-22569Y-20484D01*
X-22615Y-20424D01*
X-22670Y-20375D01*
X-22730Y-20331D01*
X-22793Y-20296D01*
X-22858Y-20266D01*
X-22924Y-20241D01*
X-22989Y-20220D01*
X-23052Y-20206D01*
X-23112Y-20192D01*
X-23167Y-20184D01*
X-23213Y-20178D01*
X-23254Y-20176D01*
X-23270Y-20173D01*
X-23309D01*
Y-19343D01*
X-23268Y-19340D01*
X-23208D01*
X-23156Y-19343D01*
D02*
G37*
G36*
X-175Y-19376D02*
X-49Y-19392D01*
X71Y-19417D01*
X180Y-19450D01*
X284Y-19488D01*
X382Y-19532D01*
X470Y-19575D01*
X549Y-19622D01*
X620Y-19671D01*
X683Y-19714D01*
X734Y-19758D01*
X781Y-19796D01*
X814Y-19829D01*
X838Y-19854D01*
X855Y-19870D01*
X857Y-19873D01*
X860Y-19875D01*
X936Y-19971D01*
X1005Y-20075D01*
X1065Y-20178D01*
X1117Y-20285D01*
X1158Y-20391D01*
X1193Y-20495D01*
X1223Y-20596D01*
X1248Y-20695D01*
X1264Y-20785D01*
X1278Y-20869D01*
X1289Y-20946D01*
X1291Y-20978D01*
X1294Y-21011D01*
X1297Y-21038D01*
X1299Y-21063D01*
Y-21085D01*
X1302Y-21104D01*
Y-21118D01*
Y-21128D01*
Y-21134D01*
Y-21137D01*
X1297Y-21268D01*
X1286Y-21393D01*
X1264Y-21513D01*
X1239Y-21628D01*
X1209Y-21740D01*
X1177Y-21841D01*
X1141Y-21937D01*
X1103Y-22027D01*
X1065Y-22106D01*
X1029Y-22177D01*
X996Y-22240D01*
X966Y-22291D01*
X953Y-22313D01*
X939Y-22332D01*
X931Y-22349D01*
X920Y-22363D01*
X915Y-22373D01*
X909Y-22382D01*
X904Y-22384D01*
Y-22387D01*
X865Y-22436D01*
X824Y-22483D01*
X783Y-22526D01*
X740Y-22567D01*
X693Y-22603D01*
X647Y-22638D01*
X554Y-22701D01*
X456Y-22753D01*
X360Y-22797D01*
X265Y-22835D01*
X175Y-22862D01*
X87Y-22884D01*
X6Y-22900D01*
X-65Y-22914D01*
X-98Y-22919D01*
X-128Y-22922D01*
X-158Y-22925D01*
X-180Y-22928D01*
X-202D01*
X-221Y-22930D01*
X-254D01*
X-319Y-22928D01*
X-382Y-22925D01*
X-505Y-22908D01*
X-622Y-22884D01*
X-732Y-22854D01*
X-835Y-22816D01*
X-931Y-22775D01*
X-1018Y-22731D01*
X-1100Y-22685D01*
X-1171Y-22638D01*
X-1234Y-22595D01*
X-1289Y-22554D01*
X-1335Y-22515D01*
X-1371Y-22485D01*
X-1395Y-22461D01*
X-1411Y-22444D01*
X-1417Y-22439D01*
X-1499Y-22343D01*
X-1567Y-22242D01*
X-1630Y-22136D01*
X-1682Y-22027D01*
X-1725Y-21920D01*
X-1764Y-21811D01*
X-1794Y-21705D01*
X-1818Y-21604D01*
X-1837Y-21508D01*
X-1851Y-21418D01*
X-1862Y-21339D01*
X-1865Y-21303D01*
X-1867Y-21271D01*
X-1870Y-21240D01*
X-1873Y-21216D01*
Y-21191D01*
X-1876Y-21172D01*
Y-21156D01*
Y-21145D01*
Y-21139D01*
Y-21137D01*
X-1870Y-20992D01*
X-1856Y-20855D01*
X-1835Y-20727D01*
X-1807Y-20604D01*
X-1772Y-20492D01*
X-1736Y-20389D01*
X-1695Y-20290D01*
X-1654Y-20203D01*
X-1613Y-20127D01*
X-1572Y-20058D01*
X-1537Y-19998D01*
X-1501Y-19949D01*
X-1474Y-19911D01*
X-1452Y-19884D01*
X-1444Y-19875D01*
X-1439Y-19867D01*
X-1433Y-19862D01*
X-1392Y-19818D01*
X-1349Y-19774D01*
X-1259Y-19701D01*
X-1166Y-19635D01*
X-1073Y-19578D01*
X-977Y-19529D01*
X-884Y-19490D01*
X-792Y-19458D01*
X-704Y-19431D01*
X-622Y-19411D01*
X-546Y-19395D01*
X-478Y-19384D01*
X-420Y-19379D01*
X-396Y-19376D01*
X-371Y-19373D01*
X-352D01*
X-336Y-19370D01*
X-237D01*
X-175Y-19376D01*
D02*
G37*
G36*
X-12129Y-19376D02*
X-12004Y-19392D01*
X-11884Y-19417D01*
X-11774Y-19450D01*
X-11671Y-19488D01*
X-11573Y-19532D01*
X-11485Y-19575D01*
X-11406Y-19622D01*
X-11335Y-19671D01*
X-11272Y-19714D01*
X-11220Y-19758D01*
X-11174Y-19796D01*
X-11141Y-19829D01*
X-11117Y-19854D01*
X-11100Y-19870D01*
X-11097Y-19873D01*
X-11095Y-19875D01*
X-11018Y-19971D01*
X-10950Y-20075D01*
X-10890Y-20178D01*
X-10838Y-20285D01*
X-10797Y-20391D01*
X-10762Y-20495D01*
X-10732Y-20596D01*
X-10707Y-20695D01*
X-10691Y-20785D01*
X-10677Y-20869D01*
X-10666Y-20946D01*
X-10663Y-20978D01*
X-10661Y-21011D01*
X-10658Y-21038D01*
X-10655Y-21063D01*
Y-21085D01*
X-10652Y-21104D01*
Y-21118D01*
Y-21129D01*
Y-21134D01*
Y-21137D01*
X-10658Y-21268D01*
X-10669Y-21393D01*
X-10691Y-21513D01*
X-10715Y-21628D01*
X-10745Y-21740D01*
X-10778Y-21841D01*
X-10813Y-21937D01*
X-10852Y-22027D01*
X-10890Y-22106D01*
X-10926Y-22177D01*
X-10958Y-22240D01*
X-10988Y-22291D01*
X-11002Y-22313D01*
X-11016Y-22332D01*
X-11024Y-22349D01*
X-11035Y-22363D01*
X-11040Y-22373D01*
X-11046Y-22382D01*
X-11051Y-22384D01*
Y-22387D01*
X-11089Y-22436D01*
X-11130Y-22483D01*
X-11171Y-22526D01*
X-11215Y-22567D01*
X-11261Y-22603D01*
X-11308Y-22638D01*
X-11400Y-22701D01*
X-11499Y-22753D01*
X-11594Y-22797D01*
X-11690Y-22835D01*
X-11780Y-22862D01*
X-11867Y-22884D01*
X-11949Y-22900D01*
X-12020Y-22914D01*
X-12053Y-22919D01*
X-12083Y-22922D01*
X-12113Y-22925D01*
X-12135Y-22928D01*
X-12157D01*
X-12176Y-22930D01*
X-12209D01*
X-12274Y-22928D01*
X-12337Y-22925D01*
X-12460Y-22908D01*
X-12577Y-22884D01*
X-12686Y-22854D01*
X-12790Y-22816D01*
X-12886Y-22775D01*
X-12973Y-22731D01*
X-13055Y-22685D01*
X-13126Y-22638D01*
X-13189Y-22595D01*
X-13243Y-22554D01*
X-13290Y-22515D01*
X-13325Y-22485D01*
X-13350Y-22461D01*
X-13366Y-22444D01*
X-13372Y-22439D01*
X-13453Y-22343D01*
X-13522Y-22242D01*
X-13585Y-22136D01*
X-13636Y-22027D01*
X-13680Y-21920D01*
X-13718Y-21811D01*
X-13748Y-21705D01*
X-13773Y-21604D01*
X-13792Y-21508D01*
X-13806Y-21418D01*
X-13816Y-21339D01*
X-13819Y-21303D01*
X-13822Y-21271D01*
X-13825Y-21240D01*
X-13827Y-21216D01*
Y-21191D01*
X-13830Y-21172D01*
Y-21156D01*
Y-21145D01*
Y-21139D01*
Y-21137D01*
X-13825Y-20992D01*
X-13811Y-20855D01*
X-13789Y-20727D01*
X-13762Y-20604D01*
X-13726Y-20493D01*
X-13691Y-20389D01*
X-13650Y-20290D01*
X-13609Y-20203D01*
X-13568Y-20127D01*
X-13527Y-20058D01*
X-13492Y-19998D01*
X-13456Y-19949D01*
X-13429Y-19911D01*
X-13407Y-19884D01*
X-13399Y-19875D01*
X-13393Y-19867D01*
X-13388Y-19862D01*
X-13347Y-19818D01*
X-13303Y-19774D01*
X-13213Y-19701D01*
X-13120Y-19635D01*
X-13028Y-19578D01*
X-12932Y-19529D01*
X-12839Y-19490D01*
X-12746Y-19458D01*
X-12659Y-19431D01*
X-12577Y-19411D01*
X-12501Y-19395D01*
X-12432Y-19384D01*
X-12375Y-19379D01*
X-12350Y-19376D01*
X-12326Y-19373D01*
X-12307D01*
X-12291Y-19370D01*
X-12192D01*
X-12129Y-19376D01*
D02*
G37*
G36*
X24785Y87375D02*
X24861Y87342D01*
X24935Y87307D01*
X25000Y87268D01*
X25062Y87225D01*
X25117Y87182D01*
X25166Y87139D01*
X25209Y87096D01*
X25250Y87055D01*
X25283Y87016D01*
X25312Y86981D01*
X25334Y86949D01*
X25353Y86924D01*
X25365Y86903D01*
X25373Y86891D01*
X25375Y86889D01*
Y86887D01*
X25412Y86813D01*
X25447Y86737D01*
X25476Y86659D01*
X25500Y86582D01*
X25521Y86506D01*
X25537Y86430D01*
X25552Y86358D01*
X25564Y86291D01*
X25572Y86225D01*
X25578Y86168D01*
X25584Y86114D01*
X25586Y86092D01*
Y86069D01*
X25589Y86051D01*
Y86032D01*
X25591Y86018D01*
Y85983D01*
X25586Y85870D01*
X25578Y85764D01*
X25564Y85663D01*
X25545Y85569D01*
X25523Y85481D01*
X25498Y85397D01*
X25472Y85323D01*
X25443Y85253D01*
X25416Y85192D01*
X25390Y85138D01*
X25365Y85093D01*
X25343Y85054D01*
X25334Y85038D01*
X25324Y85024D01*
X25316Y85011D01*
X25310Y85003D01*
X25306Y84995D01*
X25302Y84989D01*
X25297Y84987D01*
Y84985D01*
X25269Y84950D01*
X25240Y84917D01*
X25209Y84886D01*
X25179Y84857D01*
X25115Y84806D01*
X25047Y84761D01*
X24982Y84724D01*
X24914Y84693D01*
X24848Y84667D01*
X24785Y84646D01*
X24725Y84632D01*
X24670Y84620D01*
X24621Y84611D01*
X24578Y84605D01*
X24559Y84603D01*
X24543Y84601D01*
X24529D01*
X24516Y84599D01*
X24506D01*
X24500D01*
X24496D01*
X24494D01*
X24434Y84601D01*
X24377Y84607D01*
X24322Y84616D01*
X24268Y84628D01*
X24219Y84642D01*
X24170Y84657D01*
X24125Y84675D01*
X24084Y84692D01*
X24047Y84708D01*
X24014Y84724D01*
X23983Y84741D01*
X23959Y84755D01*
X23940Y84767D01*
X23926Y84776D01*
X23916Y84782D01*
X23914Y84784D01*
X23889Y84802D01*
X23866Y84823D01*
X23821Y84868D01*
X23778Y84917D01*
X23739Y84972D01*
X23705Y85032D01*
X23672Y85091D01*
X23641Y85151D01*
X23614Y85210D01*
X23592Y85268D01*
X23571Y85323D01*
X23553Y85372D01*
X23539Y85415D01*
X23532Y85434D01*
X23528Y85450D01*
X23524Y85466D01*
X23520Y85479D01*
X23518Y85487D01*
X23516Y85495D01*
X23514Y85499D01*
Y85501D01*
X23366Y86092D01*
X23354Y86135D01*
X23342Y86178D01*
X23329Y86215D01*
X23315Y86251D01*
X23299Y86284D01*
X23284Y86315D01*
X23268Y86344D01*
X23252Y86370D01*
X23235Y86395D01*
X23217Y86418D01*
X23182Y86457D01*
X23147Y86489D01*
X23114Y86514D01*
X23081Y86534D01*
X23051Y86551D01*
X23022Y86561D01*
X22999Y86567D01*
X22979Y86571D01*
X22963Y86575D01*
X22954D01*
X22950D01*
X22915Y86573D01*
X22883Y86569D01*
X22852Y86561D01*
X22823Y86551D01*
X22794Y86541D01*
X22770Y86526D01*
X22745Y86512D01*
X22725Y86497D01*
X22706Y86483D01*
X22688Y86471D01*
X22673Y86457D01*
X22663Y86446D01*
X22653Y86436D01*
X22647Y86428D01*
X22643Y86424D01*
X22641Y86422D01*
X22618Y86391D01*
X22600Y86358D01*
X22583Y86323D01*
X22569Y86286D01*
X22557Y86250D01*
X22548Y86213D01*
X22532Y86141D01*
X22528Y86106D01*
X22524Y86075D01*
X22522Y86046D01*
X22520Y86022D01*
X22518Y86004D01*
Y85975D01*
X22520Y85928D01*
X22522Y85885D01*
X22528Y85842D01*
X22534Y85803D01*
X22555Y85729D01*
X22579Y85661D01*
X22608Y85602D01*
X22643Y85550D01*
X22678Y85503D01*
X22714Y85464D01*
X22751Y85431D01*
X22786Y85403D01*
X22819Y85380D01*
X22850Y85362D01*
X22874Y85350D01*
X22895Y85339D01*
X22907Y85335D01*
X22909Y85333D01*
X22911D01*
X22764Y84739D01*
X22698Y84759D01*
X22637Y84786D01*
X22581Y84816D01*
X22528Y84849D01*
X22477Y84886D01*
X22432Y84923D01*
X22390Y84962D01*
X22354Y84999D01*
X22321Y85036D01*
X22292Y85071D01*
X22267Y85103D01*
X22249Y85130D01*
X22233Y85155D01*
X22220Y85171D01*
X22214Y85184D01*
X22212Y85185D01*
Y85188D01*
X22177Y85255D01*
X22147Y85323D01*
X22120Y85393D01*
X22097Y85460D01*
X22079Y85530D01*
X22062Y85596D01*
X22050Y85659D01*
X22040Y85719D01*
X22032Y85776D01*
X22026Y85827D01*
X22021Y85872D01*
X22017Y85911D01*
Y85944D01*
X22015Y85956D01*
Y85987D01*
X22019Y86085D01*
X22028Y86180D01*
X22042Y86268D01*
X22058Y86352D01*
X22081Y86432D01*
X22104Y86504D01*
X22130Y86571D01*
X22155Y86633D01*
X22181Y86686D01*
X22208Y86735D01*
X22231Y86776D01*
X22253Y86809D01*
X22270Y86838D01*
X22284Y86856D01*
X22292Y86869D01*
X22296Y86873D01*
X22352Y86934D01*
X22409Y86988D01*
X22468Y87033D01*
X22532Y87074D01*
X22593Y87106D01*
X22655Y87135D01*
X22716Y87158D01*
X22774Y87176D01*
X22829Y87190D01*
X22880Y87201D01*
X22926Y87209D01*
X22964Y87213D01*
X22997Y87217D01*
X23012D01*
X23022Y87219D01*
X23030D01*
X23036D01*
X23040D01*
X23042D01*
X23086Y87217D01*
X23129Y87215D01*
X23211Y87203D01*
X23247Y87197D01*
X23284Y87188D01*
X23319Y87178D01*
X23350Y87170D01*
X23379Y87160D01*
X23405Y87151D01*
X23428Y87143D01*
X23446Y87135D01*
X23463Y87129D01*
X23473Y87125D01*
X23481Y87123D01*
X23483Y87121D01*
X23520Y87102D01*
X23555Y87082D01*
X23588Y87059D01*
X23618Y87039D01*
X23647Y87016D01*
X23674Y86996D01*
X23698Y86973D01*
X23719Y86953D01*
X23737Y86934D01*
X23754Y86916D01*
X23768Y86901D01*
X23780Y86887D01*
X23789Y86877D01*
X23795Y86866D01*
X23799Y86862D01*
X23801Y86860D01*
X23821Y86828D01*
X23842Y86791D01*
X23860Y86754D01*
X23879Y86713D01*
X23914Y86629D01*
X23944Y86547D01*
X23957Y86508D01*
X23967Y86473D01*
X23977Y86440D01*
X23985Y86411D01*
X23994Y86389D01*
X23998Y86370D01*
X24000Y86360D01*
X24002Y86356D01*
X24176Y85692D01*
X24188Y85645D01*
X24203Y85600D01*
X24219Y85561D01*
X24233Y85526D01*
X24250Y85493D01*
X24266Y85464D01*
X24281Y85440D01*
X24295Y85419D01*
X24309Y85401D01*
X24324Y85384D01*
X24334Y85372D01*
X24344Y85362D01*
X24352Y85354D01*
X24359Y85350D01*
X24363Y85345D01*
X24365D01*
X24410Y85319D01*
X24457Y85298D01*
X24500Y85284D01*
X24541Y85274D01*
X24576Y85268D01*
X24590Y85265D01*
X24602D01*
X24613Y85263D01*
X24621D01*
X24625D01*
X24627D01*
X24664Y85265D01*
X24697Y85272D01*
X24730Y85280D01*
X24762Y85292D01*
X24791Y85304D01*
X24818Y85321D01*
X24842Y85337D01*
X24865Y85354D01*
X24885Y85370D01*
X24904Y85386D01*
X24920Y85403D01*
X24933Y85415D01*
X24943Y85427D01*
X24951Y85436D01*
X24955Y85442D01*
X24957Y85444D01*
X24980Y85479D01*
X25000Y85518D01*
X25019Y85557D01*
X25033Y85600D01*
X25045Y85641D01*
X25056Y85684D01*
X25066Y85725D01*
X25072Y85766D01*
X25078Y85805D01*
X25082Y85839D01*
X25084Y85872D01*
X25086Y85899D01*
X25088Y85922D01*
Y85954D01*
X25086Y86020D01*
X25082Y86083D01*
X25076Y86143D01*
X25066Y86200D01*
X25054Y86254D01*
X25041Y86303D01*
X25025Y86350D01*
X25008Y86393D01*
X24988Y86434D01*
X24969Y86473D01*
X24947Y86508D01*
X24924Y86541D01*
X24902Y86571D01*
X24877Y86598D01*
X24855Y86625D01*
X24830Y86647D01*
X24805Y86668D01*
X24781Y86688D01*
X24736Y86719D01*
X24691Y86746D01*
X24652Y86764D01*
X24619Y86778D01*
X24607Y86782D01*
X24594Y86787D01*
X24584Y86789D01*
X24578Y86791D01*
X24574Y86793D01*
X24572D01*
X24701Y87402D01*
X24785Y87375D01*
D02*
G37*
G36*
X25537Y83443D02*
Y82799D01*
X22985Y82172D01*
X25537Y81479D01*
Y80823D01*
X22069Y79896D01*
Y80448D01*
X24598Y81106D01*
X22069Y81797D01*
Y82430D01*
X24598Y83056D01*
X22069Y83728D01*
Y84390D01*
X25537Y83443D01*
D02*
G37*
G36*
Y75766D02*
X24996D01*
Y77574D01*
X24933Y77463D01*
X24873Y77359D01*
X24814Y77258D01*
X24756Y77162D01*
X24701Y77072D01*
X24648Y76986D01*
X24596Y76906D01*
X24547Y76828D01*
X24500Y76756D01*
X24455Y76688D01*
X24412Y76625D01*
X24371Y76565D01*
X24332Y76508D01*
X24295Y76457D01*
X24260Y76410D01*
X24225Y76364D01*
X24194Y76323D01*
X24166Y76287D01*
X24139Y76252D01*
X24113Y76221D01*
X24090Y76194D01*
X24069Y76170D01*
X24049Y76147D01*
X24033Y76127D01*
X24016Y76110D01*
X24004Y76098D01*
X23992Y76086D01*
X23983Y76077D01*
X23975Y76069D01*
X23971Y76065D01*
X23967Y76061D01*
X23899Y76008D01*
X23832Y75960D01*
X23764Y75920D01*
X23694Y75885D01*
X23627Y75854D01*
X23561Y75829D01*
X23497Y75809D01*
X23438Y75795D01*
X23383Y75780D01*
X23332Y75772D01*
X23286Y75766D01*
X23247Y75760D01*
X23215Y75758D01*
X23202D01*
X23192Y75756D01*
X23182D01*
X23176D01*
X23174D01*
X23171D01*
X23079Y75760D01*
X22991Y75770D01*
X22907Y75786D01*
X22829Y75809D01*
X22755Y75836D01*
X22688Y75864D01*
X22624Y75895D01*
X22567Y75928D01*
X22515Y75960D01*
X22470Y75991D01*
X22432Y76020D01*
X22401Y76047D01*
X22374Y76067D01*
X22356Y76086D01*
X22345Y76096D01*
X22341Y76100D01*
X22284Y76168D01*
X22233Y76237D01*
X22190Y76311D01*
X22153Y76387D01*
X22122Y76465D01*
X22095Y76541D01*
X22073Y76614D01*
X22056Y76686D01*
X22042Y76754D01*
X22032Y76817D01*
X22026Y76873D01*
X22024Y76897D01*
X22019Y76922D01*
Y76942D01*
X22017Y76961D01*
Y76977D01*
X22015Y76992D01*
Y77016D01*
X22019Y77119D01*
X22030Y77215D01*
X22046Y77305D01*
X22067Y77391D01*
X22091Y77471D01*
X22120Y77545D01*
X22149Y77613D01*
X22179Y77674D01*
X22210Y77728D01*
X22241Y77777D01*
X22270Y77818D01*
X22294Y77853D01*
X22315Y77879D01*
X22331Y77898D01*
X22341Y77910D01*
X22345Y77914D01*
X22409Y77976D01*
X22472Y78029D01*
X22540Y78078D01*
X22608Y78121D01*
X22673Y78160D01*
X22739Y78193D01*
X22803Y78222D01*
X22862Y78246D01*
X22919Y78267D01*
X22971Y78283D01*
X23018Y78298D01*
X23057Y78308D01*
X23075Y78312D01*
X23089Y78316D01*
X23104Y78318D01*
X23114Y78320D01*
X23122Y78322D01*
X23129Y78324D01*
X23133D01*
X23135D01*
X23286Y77722D01*
X23221Y77711D01*
X23159Y77699D01*
X23100Y77685D01*
X23046Y77666D01*
X22997Y77646D01*
X22950Y77625D01*
X22907Y77601D01*
X22866Y77576D01*
X22829Y77549D01*
X22796Y77523D01*
X22766Y77494D01*
X22737Y77465D01*
X22712Y77434D01*
X22690Y77406D01*
X22669Y77375D01*
X22651Y77344D01*
X22635Y77316D01*
X22622Y77287D01*
X22600Y77229D01*
X22583Y77178D01*
X22571Y77131D01*
X22569Y77111D01*
X22565Y77092D01*
X22563Y77076D01*
Y77063D01*
X22561Y77051D01*
Y77037D01*
X22563Y76988D01*
X22569Y76940D01*
X22577Y76895D01*
X22587Y76854D01*
X22602Y76815D01*
X22616Y76779D01*
X22632Y76746D01*
X22649Y76715D01*
X22665Y76688D01*
X22682Y76664D01*
X22696Y76643D01*
X22710Y76627D01*
X22721Y76612D01*
X22729Y76604D01*
X22735Y76598D01*
X22737Y76596D01*
X22770Y76565D01*
X22805Y76539D01*
X22841Y76516D01*
X22878Y76496D01*
X22915Y76479D01*
X22950Y76465D01*
X22985Y76455D01*
X23018Y76444D01*
X23051Y76438D01*
X23079Y76432D01*
X23104Y76430D01*
X23126Y76426D01*
X23145D01*
X23157Y76424D01*
X23167D01*
X23169D01*
X23211Y76426D01*
X23252Y76432D01*
X23292Y76440D01*
X23334Y76451D01*
X23411Y76479D01*
X23448Y76494D01*
X23483Y76510D01*
X23516Y76526D01*
X23547Y76541D01*
X23573Y76555D01*
X23596Y76569D01*
X23614Y76580D01*
X23627Y76588D01*
X23637Y76594D01*
X23639Y76596D01*
X23688Y76631D01*
X23737Y76674D01*
X23787Y76721D01*
X23838Y76772D01*
X23887Y76826D01*
X23936Y76881D01*
X23981Y76936D01*
X24026Y76992D01*
X24067Y77045D01*
X24104Y77094D01*
X24139Y77141D01*
X24168Y77180D01*
X24190Y77213D01*
X24201Y77227D01*
X24209Y77238D01*
X24215Y77248D01*
X24219Y77254D01*
X24223Y77258D01*
Y77260D01*
X24930Y78324D01*
X25537D01*
Y75766D01*
D02*
G37*
G36*
X38170Y12549D02*
X37398D01*
Y13352D01*
X38170D01*
Y12549D01*
D02*
G37*
G36*
X53150Y8732D02*
X52800D01*
X52593Y9292D01*
X52557Y9235D01*
X52519Y9180D01*
X52478Y9131D01*
X52437Y9085D01*
X52396Y9041D01*
X52352Y9000D01*
X52311Y8962D01*
X52268Y8926D01*
X52221Y8896D01*
X52178Y8866D01*
X52090Y8814D01*
X52003Y8773D01*
X51918Y8741D01*
X51839Y8713D01*
X51766Y8694D01*
X51700Y8681D01*
X51643Y8672D01*
X51618Y8667D01*
X51596D01*
X51577Y8664D01*
X51561Y8661D01*
X51531D01*
X51468Y8664D01*
X51405Y8667D01*
X51348Y8675D01*
X51291Y8686D01*
X51181Y8711D01*
X51080Y8746D01*
X50985Y8787D01*
X50900Y8833D01*
X50821Y8883D01*
X50753Y8932D01*
X50690Y8981D01*
X50635Y9030D01*
X50589Y9076D01*
X50553Y9117D01*
X50523Y9153D01*
X50502Y9180D01*
X50493Y9188D01*
X50491Y9196D01*
X50485Y9199D01*
Y9202D01*
X50422Y9306D01*
X50365Y9412D01*
X50316Y9524D01*
X50275Y9633D01*
X50239Y9745D01*
X50209Y9854D01*
X50188Y9958D01*
X50169Y10059D01*
X50152Y10152D01*
X50141Y10239D01*
X50133Y10316D01*
X50130Y10349D01*
X50128Y10381D01*
X50125Y10411D01*
Y10436D01*
X50122Y10458D01*
Y10477D01*
Y10491D01*
Y10501D01*
Y10507D01*
Y10510D01*
X50125Y10665D01*
X50138Y10810D01*
X50155Y10946D01*
X50179Y11072D01*
X50207Y11192D01*
X50239Y11299D01*
X50272Y11400D01*
X50305Y11487D01*
X50340Y11566D01*
X50373Y11637D01*
X50406Y11694D01*
X50433Y11744D01*
X50458Y11782D01*
X50474Y11809D01*
X50482Y11817D01*
X50485Y11825D01*
X50491Y11831D01*
X50526Y11875D01*
X50562Y11916D01*
X50635Y11989D01*
X50714Y12052D01*
X50791Y12107D01*
X50870Y12153D01*
X50946Y12191D01*
X51023Y12224D01*
X51094Y12249D01*
X51162Y12268D01*
X51225Y12284D01*
X51280Y12295D01*
X51329Y12301D01*
X51367Y12306D01*
X51383D01*
X51397Y12309D01*
X51476D01*
X51528Y12303D01*
X51626Y12290D01*
X51673Y12281D01*
X51714Y12270D01*
X51755Y12260D01*
X51790Y12249D01*
X51823Y12235D01*
X51853Y12224D01*
X51877Y12213D01*
X51899Y12205D01*
X51916Y12197D01*
X51927Y12191D01*
X51935Y12189D01*
X51938Y12186D01*
X51978Y12161D01*
X52019Y12128D01*
X52060Y12096D01*
X52099Y12058D01*
X52172Y11973D01*
X52238Y11891D01*
X52268Y11850D01*
X52295Y11812D01*
X52320Y11776D01*
X52339Y11746D01*
X52355Y11719D01*
X52366Y11700D01*
X52374Y11689D01*
X52377Y11683D01*
Y13352D01*
X53150D01*
Y8732D01*
D02*
G37*
G36*
X49415Y9756D02*
X49412Y9663D01*
X49404Y9573D01*
X49390Y9491D01*
X49371Y9412D01*
X49352Y9341D01*
X49328Y9276D01*
X49303Y9216D01*
X49279Y9161D01*
X49254Y9112D01*
X49229Y9071D01*
X49205Y9033D01*
X49186Y9005D01*
X49167Y8981D01*
X49153Y8964D01*
X49145Y8953D01*
X49142Y8951D01*
X49087Y8899D01*
X49030Y8855D01*
X48970Y8817D01*
X48910Y8784D01*
X48847Y8754D01*
X48787Y8732D01*
X48724Y8713D01*
X48667Y8697D01*
X48612Y8686D01*
X48561Y8678D01*
X48517Y8670D01*
X48476Y8667D01*
X48443Y8664D01*
X48421Y8661D01*
X48399D01*
X48326Y8664D01*
X48257Y8670D01*
X48189Y8681D01*
X48126Y8697D01*
X48066Y8713D01*
X48006Y8735D01*
X47952Y8760D01*
X47897Y8787D01*
X47799Y8850D01*
X47712Y8918D01*
X47632Y8989D01*
X47564Y9065D01*
X47504Y9142D01*
X47452Y9213D01*
X47411Y9281D01*
X47376Y9344D01*
X47362Y9371D01*
X47351Y9396D01*
X47340Y9418D01*
X47332Y9434D01*
X47326Y9450D01*
X47321Y9461D01*
X47318Y9467D01*
Y8732D01*
X46600D01*
Y12150D01*
X47373D01*
Y10510D01*
Y10441D01*
X47376Y10379D01*
X47378Y10316D01*
X47384Y10259D01*
X47389Y10201D01*
X47398Y10149D01*
X47414Y10051D01*
X47433Y9961D01*
X47455Y9882D01*
X47479Y9814D01*
X47504Y9753D01*
X47528Y9702D01*
X47553Y9658D01*
X47575Y9622D01*
X47594Y9595D01*
X47610Y9573D01*
X47624Y9560D01*
X47632Y9551D01*
X47635Y9549D01*
X47684Y9510D01*
X47731Y9475D01*
X47777Y9445D01*
X47823Y9420D01*
X47867Y9398D01*
X47911Y9379D01*
X47949Y9366D01*
X47987Y9352D01*
X48020Y9344D01*
X48050Y9336D01*
X48077Y9333D01*
X48099Y9328D01*
X48118D01*
X48132Y9325D01*
X48143D01*
X48203Y9330D01*
X48260Y9344D01*
X48315Y9360D01*
X48364Y9382D01*
X48405Y9404D01*
X48421Y9412D01*
X48438Y9420D01*
X48449Y9428D01*
X48457Y9434D01*
X48462Y9439D01*
X48465D01*
X48492Y9464D01*
X48517Y9494D01*
X48539Y9527D01*
X48558Y9562D01*
X48574Y9603D01*
X48588Y9641D01*
X48607Y9723D01*
X48612Y9764D01*
X48618Y9800D01*
X48621Y9833D01*
X48623Y9863D01*
X48626Y9887D01*
Y9906D01*
Y9920D01*
Y9923D01*
Y12150D01*
X49415D01*
Y9756D01*
D02*
G37*
G36*
X35137Y12219D02*
X35205Y12216D01*
X35334Y12200D01*
X35456Y12175D01*
X35568Y12142D01*
X35675Y12104D01*
X35773Y12060D01*
X35860Y12014D01*
X35942Y11967D01*
X36013Y11921D01*
X36076Y11875D01*
X36128Y11831D01*
X36174Y11793D01*
X36207Y11760D01*
X36235Y11735D01*
X36248Y11719D01*
X36254Y11716D01*
Y11714D01*
X36330Y11615D01*
X36398Y11512D01*
X36456Y11408D01*
X36505Y11299D01*
X36549Y11192D01*
X36584Y11086D01*
X36611Y10982D01*
X36636Y10881D01*
X36655Y10788D01*
X36669Y10704D01*
X36677Y10627D01*
X36680Y10592D01*
X36682Y10559D01*
X36685Y10531D01*
X36688Y10504D01*
Y10482D01*
X36690Y10466D01*
Y10450D01*
Y10439D01*
Y10433D01*
Y10430D01*
X36685Y10280D01*
X36671Y10141D01*
X36650Y10007D01*
X36622Y9884D01*
X36589Y9770D01*
X36554Y9663D01*
X36516Y9565D01*
X36475Y9478D01*
X36434Y9398D01*
X36396Y9330D01*
X36360Y9273D01*
X36327Y9224D01*
X36300Y9186D01*
X36278Y9158D01*
X36270Y9150D01*
X36265Y9142D01*
X36259Y9139D01*
Y9136D01*
X36218Y9093D01*
X36174Y9052D01*
X36084Y8981D01*
X35992Y8915D01*
X35896Y8861D01*
X35800Y8817D01*
X35705Y8779D01*
X35612Y8746D01*
X35522Y8721D01*
X35437Y8702D01*
X35361Y8686D01*
X35290Y8675D01*
X35230Y8670D01*
X35205Y8667D01*
X35181Y8664D01*
X35162D01*
X35142Y8661D01*
X35113D01*
X35003Y8664D01*
X34900Y8675D01*
X34801Y8689D01*
X34708Y8708D01*
X34621Y8732D01*
X34539Y8757D01*
X34466Y8784D01*
X34397Y8812D01*
X34337Y8839D01*
X34283Y8866D01*
X34236Y8894D01*
X34198Y8915D01*
X34168Y8934D01*
X34146Y8948D01*
X34132Y8959D01*
X34127Y8962D01*
X34056Y9019D01*
X33990Y9082D01*
X33933Y9145D01*
X33878Y9207D01*
X33829Y9273D01*
X33788Y9336D01*
X33750Y9398D01*
X33715Y9456D01*
X33687Y9513D01*
X33663Y9562D01*
X33644Y9609D01*
X33627Y9650D01*
X33614Y9682D01*
X33606Y9707D01*
X33603Y9721D01*
X33600Y9726D01*
X34296Y9822D01*
X34315Y9770D01*
X34337Y9723D01*
X34362Y9680D01*
X34386Y9639D01*
X34414Y9601D01*
X34444Y9562D01*
X34501Y9499D01*
X34564Y9445D01*
X34629Y9401D01*
X34695Y9363D01*
X34758Y9336D01*
X34820Y9311D01*
X34878Y9295D01*
X34930Y9281D01*
X34976Y9273D01*
X35014Y9268D01*
X35044Y9265D01*
X35069D01*
X35123Y9268D01*
X35175Y9270D01*
X35224Y9278D01*
X35271Y9289D01*
X35315Y9300D01*
X35353Y9314D01*
X35391Y9328D01*
X35424Y9344D01*
X35456Y9358D01*
X35481Y9371D01*
X35506Y9385D01*
X35525Y9396D01*
X35541Y9407D01*
X35552Y9415D01*
X35557Y9418D01*
X35560Y9420D01*
X35596Y9450D01*
X35629Y9480D01*
X35658Y9513D01*
X35683Y9543D01*
X35730Y9606D01*
X35765Y9663D01*
X35792Y9713D01*
X35800Y9734D01*
X35809Y9751D01*
X35814Y9767D01*
X35820Y9778D01*
X35822Y9783D01*
Y9786D01*
X35833Y9827D01*
X35844Y9871D01*
X35860Y9964D01*
X35871Y10056D01*
X35880Y10144D01*
X35882Y10187D01*
X35885Y10223D01*
Y10259D01*
X35888Y10289D01*
Y10313D01*
Y10329D01*
Y10343D01*
Y10346D01*
X33543D01*
X33540Y10433D01*
X33546Y10578D01*
X33556Y10714D01*
X33575Y10843D01*
X33603Y10966D01*
X33633Y11080D01*
X33666Y11187D01*
X33701Y11282D01*
X33739Y11372D01*
X33777Y11449D01*
X33813Y11520D01*
X33846Y11580D01*
X33876Y11629D01*
X33900Y11667D01*
X33911Y11683D01*
X33922Y11697D01*
X33928Y11705D01*
X33933Y11714D01*
X33939Y11716D01*
Y11719D01*
X33977Y11765D01*
X34018Y11806D01*
X34059Y11847D01*
X34102Y11886D01*
X34190Y11951D01*
X34283Y12008D01*
X34378Y12058D01*
X34471Y12099D01*
X34564Y12131D01*
X34654Y12158D01*
X34738Y12180D01*
X34815Y12194D01*
X34886Y12205D01*
X34949Y12213D01*
X34976Y12216D01*
X34998Y12219D01*
X35020D01*
X35036Y12221D01*
X35069D01*
X35137Y12219D01*
D02*
G37*
G36*
X43996D02*
X44053Y12210D01*
X44113Y12200D01*
X44168Y12183D01*
X44223Y12164D01*
X44277Y12142D01*
X44326Y12115D01*
X44375Y12088D01*
X44468Y12022D01*
X44553Y11948D01*
X44632Y11872D01*
X44700Y11790D01*
X44763Y11711D01*
X44818Y11632D01*
X44864Y11558D01*
X44902Y11492D01*
X44919Y11465D01*
X44932Y11438D01*
X44943Y11416D01*
X44954Y11397D01*
X44960Y11381D01*
X44965Y11370D01*
X44971Y11361D01*
Y12150D01*
X45675D01*
Y8732D01*
X44902D01*
Y10488D01*
X44899Y10583D01*
X44891Y10676D01*
X44880Y10758D01*
X44867Y10837D01*
X44850Y10908D01*
X44831Y10974D01*
X44809Y11031D01*
X44788Y11086D01*
X44769Y11132D01*
X44747Y11170D01*
X44728Y11206D01*
X44711Y11233D01*
X44697Y11255D01*
X44687Y11271D01*
X44678Y11280D01*
X44676Y11282D01*
X44632Y11329D01*
X44588Y11370D01*
X44542Y11405D01*
X44498Y11435D01*
X44452Y11462D01*
X44408Y11481D01*
X44367Y11501D01*
X44326Y11514D01*
X44288Y11525D01*
X44252Y11533D01*
X44223Y11539D01*
X44198Y11544D01*
X44176D01*
X44160Y11547D01*
X44146D01*
X44105Y11544D01*
X44067Y11539D01*
X44031Y11531D01*
X43996Y11520D01*
X43930Y11492D01*
X43876Y11462D01*
X43854Y11446D01*
X43832Y11430D01*
X43816Y11416D01*
X43799Y11402D01*
X43788Y11391D01*
X43780Y11383D01*
X43775Y11378D01*
X43772Y11375D01*
X43745Y11342D01*
X43720Y11304D01*
X43701Y11266D01*
X43682Y11225D01*
X43666Y11181D01*
X43655Y11140D01*
X43636Y11058D01*
X43630Y11020D01*
X43625Y10985D01*
X43622Y10952D01*
X43619Y10922D01*
X43616Y10900D01*
Y10881D01*
Y10870D01*
Y10867D01*
Y8732D01*
X42844D01*
Y10938D01*
X42847Y11067D01*
X42858Y11187D01*
X42874Y11296D01*
X42893Y11397D01*
X42918Y11487D01*
X42945Y11569D01*
X42975Y11643D01*
X43002Y11705D01*
X43032Y11763D01*
X43062Y11809D01*
X43090Y11850D01*
X43114Y11883D01*
X43133Y11907D01*
X43150Y11924D01*
X43161Y11935D01*
X43163Y11937D01*
X43223Y11987D01*
X43289Y12030D01*
X43352Y12069D01*
X43417Y12101D01*
X43483Y12128D01*
X43548Y12153D01*
X43608Y12172D01*
X43668Y12186D01*
X43723Y12197D01*
X43775Y12208D01*
X43819Y12213D01*
X43857Y12216D01*
X43889Y12219D01*
X43914Y12221D01*
X43933D01*
X43996Y12219D01*
D02*
G37*
G36*
X40242D02*
X40299Y12210D01*
X40360Y12200D01*
X40414Y12183D01*
X40469Y12164D01*
X40523Y12142D01*
X40573Y12115D01*
X40622Y12088D01*
X40714Y12022D01*
X40799Y11948D01*
X40878Y11872D01*
X40946Y11790D01*
X41009Y11711D01*
X41064Y11632D01*
X41110Y11558D01*
X41148Y11492D01*
X41165Y11465D01*
X41179Y11438D01*
X41190Y11416D01*
X41200Y11397D01*
X41206Y11381D01*
X41211Y11370D01*
X41217Y11361D01*
Y12150D01*
X41921D01*
Y8732D01*
X41148D01*
Y10488D01*
X41146Y10583D01*
X41138Y10676D01*
X41127Y10758D01*
X41113Y10837D01*
X41097Y10908D01*
X41078Y10974D01*
X41056Y11031D01*
X41034Y11086D01*
X41015Y11132D01*
X40993Y11170D01*
X40974Y11206D01*
X40957Y11233D01*
X40944Y11255D01*
X40933Y11271D01*
X40925Y11280D01*
X40922Y11282D01*
X40878Y11329D01*
X40835Y11370D01*
X40788Y11405D01*
X40745Y11435D01*
X40698Y11462D01*
X40654Y11481D01*
X40613Y11501D01*
X40573Y11514D01*
X40534Y11525D01*
X40499Y11533D01*
X40469Y11539D01*
X40444Y11544D01*
X40422D01*
X40406Y11547D01*
X40392D01*
X40351Y11544D01*
X40313Y11539D01*
X40278Y11531D01*
X40242Y11520D01*
X40177Y11492D01*
X40122Y11462D01*
X40100Y11446D01*
X40078Y11430D01*
X40062Y11416D01*
X40046Y11402D01*
X40035Y11391D01*
X40027Y11383D01*
X40021Y11378D01*
X40018Y11375D01*
X39991Y11342D01*
X39966Y11304D01*
X39947Y11266D01*
X39928Y11225D01*
X39912Y11181D01*
X39901Y11140D01*
X39882Y11058D01*
X39876Y11020D01*
X39871Y10985D01*
X39868Y10952D01*
X39865Y10922D01*
X39863Y10900D01*
Y10881D01*
Y10870D01*
Y10867D01*
Y8732D01*
X39090D01*
Y10938D01*
X39093Y11067D01*
X39104Y11187D01*
X39120Y11296D01*
X39139Y11397D01*
X39164Y11487D01*
X39191Y11569D01*
X39221Y11643D01*
X39248Y11705D01*
X39279Y11763D01*
X39309Y11809D01*
X39336Y11850D01*
X39360Y11883D01*
X39380Y11907D01*
X39396Y11924D01*
X39407Y11935D01*
X39410Y11937D01*
X39470Y11987D01*
X39535Y12030D01*
X39598Y12069D01*
X39663Y12101D01*
X39729Y12128D01*
X39794Y12153D01*
X39854Y12172D01*
X39915Y12186D01*
X39969Y12197D01*
X40021Y12208D01*
X40065Y12213D01*
X40103Y12216D01*
X40136Y12219D01*
X40160Y12221D01*
X40179D01*
X40242Y12219D01*
D02*
G37*
G36*
X38170Y8732D02*
X37398D01*
Y12150D01*
X38170D01*
Y8732D01*
D02*
G37*
G36*
X40417Y6353D02*
X40505Y6345D01*
X40587Y6333D01*
X40665Y6317D01*
X40741Y6298D01*
X40809Y6276D01*
X40874Y6253D01*
X40932Y6230D01*
X40985Y6206D01*
X41032Y6183D01*
X41073Y6163D01*
X41106Y6142D01*
X41135Y6126D01*
X41153Y6114D01*
X41165Y6105D01*
X41167Y6103D01*
X41169D01*
X41233Y6054D01*
X41288Y6003D01*
X41342Y5952D01*
X41387Y5896D01*
X41428Y5843D01*
X41465Y5788D01*
X41497Y5736D01*
X41524Y5685D01*
X41549Y5638D01*
X41567Y5595D01*
X41583Y5556D01*
X41596Y5521D01*
X41606Y5494D01*
X41612Y5474D01*
X41614Y5466D01*
Y5460D01*
X41616Y5458D01*
Y5456D01*
X41044Y5357D01*
X41026Y5402D01*
X41005Y5445D01*
X40985Y5486D01*
X40960Y5523D01*
X40936Y5558D01*
X40911Y5591D01*
X40885Y5622D01*
X40856Y5648D01*
X40829Y5675D01*
X40800Y5697D01*
X40741Y5739D01*
X40681Y5771D01*
X40624Y5798D01*
X40569Y5818D01*
X40518Y5835D01*
X40470Y5847D01*
X40427Y5853D01*
X40411Y5855D01*
X40394Y5857D01*
X40380Y5859D01*
X40368Y5861D01*
X40345D01*
X40298Y5859D01*
X40253Y5855D01*
X40212Y5849D01*
X40173Y5843D01*
X40134Y5833D01*
X40101Y5822D01*
X40069Y5810D01*
X40042Y5800D01*
X40015Y5788D01*
X39993Y5775D01*
X39974Y5765D01*
X39958Y5757D01*
X39946Y5749D01*
X39937Y5742D01*
X39931Y5739D01*
X39929Y5736D01*
X39900Y5712D01*
X39876Y5685D01*
X39853Y5657D01*
X39835Y5626D01*
X39821Y5595D01*
X39806Y5564D01*
X39796Y5533D01*
X39788Y5505D01*
X39782Y5476D01*
X39775Y5449D01*
X39771Y5427D01*
X39769Y5406D01*
X39767Y5390D01*
Y5376D01*
Y5367D01*
Y5365D01*
X39769Y5320D01*
X39775Y5277D01*
X39786Y5236D01*
X39796Y5199D01*
X39812Y5167D01*
X39827Y5134D01*
X39845Y5107D01*
X39862Y5080D01*
X39880Y5060D01*
X39898Y5039D01*
X39913Y5023D01*
X39927Y5011D01*
X39939Y5001D01*
X39950Y4992D01*
X39956Y4988D01*
X39958Y4986D01*
X39995Y4964D01*
X40034Y4945D01*
X40073Y4927D01*
X40112Y4912D01*
X40153Y4900D01*
X40192Y4890D01*
X40231Y4882D01*
X40267Y4875D01*
X40302Y4869D01*
X40333Y4865D01*
X40362Y4863D01*
X40386Y4861D01*
X40407Y4859D01*
X40751D01*
Y4365D01*
X40327D01*
X40267Y4363D01*
X40212Y4357D01*
X40161Y4349D01*
X40114Y4338D01*
X40071Y4326D01*
X40030Y4312D01*
X39995Y4295D01*
X39962Y4281D01*
X39933Y4264D01*
X39909Y4248D01*
X39888Y4234D01*
X39872Y4222D01*
X39857Y4211D01*
X39849Y4203D01*
X39843Y4197D01*
X39841Y4195D01*
X39812Y4162D01*
X39788Y4129D01*
X39765Y4096D01*
X39747Y4064D01*
X39732Y4029D01*
X39718Y3998D01*
X39708Y3965D01*
X39700Y3937D01*
X39693Y3908D01*
X39687Y3883D01*
X39683Y3861D01*
X39681Y3840D01*
X39679Y3826D01*
Y3813D01*
Y3805D01*
Y3803D01*
X39681Y3762D01*
X39687Y3723D01*
X39696Y3686D01*
X39708Y3652D01*
X39722Y3617D01*
X39739Y3586D01*
X39755Y3557D01*
X39771Y3533D01*
X39790Y3508D01*
X39806Y3488D01*
X39823Y3469D01*
X39837Y3455D01*
X39849Y3443D01*
X39857Y3434D01*
X39864Y3428D01*
X39866Y3426D01*
X39902Y3399D01*
X39939Y3375D01*
X39980Y3354D01*
X40021Y3336D01*
X40062Y3322D01*
X40103Y3309D01*
X40142Y3299D01*
X40181Y3291D01*
X40218Y3283D01*
X40251Y3278D01*
X40282Y3274D01*
X40306Y3272D01*
X40329D01*
X40343Y3270D01*
X40358D01*
X40411Y3272D01*
X40462Y3276D01*
X40513Y3285D01*
X40558Y3295D01*
X40604Y3309D01*
X40647Y3324D01*
X40688Y3342D01*
X40725Y3360D01*
X40762Y3383D01*
X40796Y3406D01*
X40858Y3455D01*
X40913Y3506D01*
X40962Y3561D01*
X41003Y3615D01*
X41036Y3666D01*
X41065Y3715D01*
X41087Y3760D01*
X41096Y3779D01*
X41104Y3797D01*
X41110Y3811D01*
X41116Y3826D01*
X41120Y3836D01*
X41122Y3844D01*
X41124Y3848D01*
Y3850D01*
X41717Y3705D01*
X41696Y3637D01*
X41670Y3574D01*
X41639Y3510D01*
X41606Y3451D01*
X41569Y3395D01*
X41532Y3342D01*
X41493Y3293D01*
X41454Y3248D01*
X41418Y3207D01*
X41383Y3170D01*
X41350Y3137D01*
X41321Y3110D01*
X41296Y3090D01*
X41280Y3073D01*
X41268Y3065D01*
X41264Y3061D01*
X41194Y3012D01*
X41120Y2969D01*
X41046Y2932D01*
X40968Y2899D01*
X40893Y2873D01*
X40817Y2848D01*
X40743Y2829D01*
X40671Y2815D01*
X40606Y2805D01*
X40544Y2795D01*
X40491Y2788D01*
X40466Y2786D01*
X40444Y2784D01*
X40423Y2782D01*
X40388D01*
X40376Y2780D01*
X40352D01*
X40243Y2784D01*
X40138Y2793D01*
X40042Y2807D01*
X39950Y2825D01*
X39866Y2848D01*
X39788Y2871D01*
X39716Y2897D01*
X39650Y2924D01*
X39593Y2950D01*
X39542Y2977D01*
X39497Y3002D01*
X39462Y3022D01*
X39433Y3041D01*
X39413Y3055D01*
X39406Y3061D01*
X39400Y3063D01*
X39396Y3067D01*
X39363Y3094D01*
X39333Y3123D01*
X39277Y3182D01*
X39228Y3244D01*
X39187Y3305D01*
X39152Y3367D01*
X39123Y3428D01*
X39099Y3488D01*
X39081Y3543D01*
X39066Y3598D01*
X39054Y3647D01*
X39046Y3691D01*
X39042Y3729D01*
X39037Y3760D01*
Y3773D01*
X39035Y3783D01*
Y3793D01*
Y3799D01*
Y3801D01*
Y3803D01*
X39037Y3863D01*
X39044Y3920D01*
X39054Y3976D01*
X39068Y4029D01*
X39083Y4078D01*
X39101Y4123D01*
X39119Y4166D01*
X39138Y4205D01*
X39158Y4240D01*
X39177Y4271D01*
X39195Y4297D01*
X39210Y4320D01*
X39224Y4338D01*
X39234Y4351D01*
X39240Y4359D01*
X39242Y4361D01*
X39283Y4402D01*
X39324Y4439D01*
X39369Y4474D01*
X39415Y4502D01*
X39462Y4529D01*
X39507Y4552D01*
X39552Y4572D01*
X39593Y4588D01*
X39634Y4603D01*
X39671Y4615D01*
X39704Y4625D01*
X39732Y4631D01*
X39757Y4638D01*
X39775Y4642D01*
X39786Y4644D01*
X39790D01*
X39739Y4650D01*
X39691Y4660D01*
X39644Y4672D01*
X39601Y4689D01*
X39560Y4707D01*
X39523Y4728D01*
X39488Y4750D01*
X39456Y4771D01*
X39427Y4793D01*
X39402Y4814D01*
X39380Y4832D01*
X39361Y4851D01*
X39347Y4865D01*
X39337Y4875D01*
X39331Y4884D01*
X39329Y4886D01*
X39296Y4929D01*
X39267Y4974D01*
X39242Y5019D01*
X39220Y5066D01*
X39204Y5111D01*
X39187Y5156D01*
X39175Y5199D01*
X39165Y5240D01*
X39158Y5279D01*
X39152Y5316D01*
X39148Y5347D01*
X39144Y5374D01*
Y5396D01*
X39142Y5412D01*
Y5423D01*
Y5427D01*
X39146Y5505D01*
X39156Y5579D01*
X39175Y5646D01*
X39195Y5712D01*
X39222Y5771D01*
X39251Y5827D01*
X39283Y5878D01*
X39314Y5925D01*
X39347Y5966D01*
X39378Y6001D01*
X39408Y6032D01*
X39435Y6058D01*
X39456Y6077D01*
X39474Y6091D01*
X39484Y6101D01*
X39488Y6103D01*
X39554Y6148D01*
X39624Y6187D01*
X39693Y6220D01*
X39765Y6249D01*
X39837Y6273D01*
X39907Y6294D01*
X39974Y6310D01*
X40038Y6325D01*
X40097Y6335D01*
X40153Y6343D01*
X40202Y6347D01*
X40245Y6351D01*
X40263Y6353D01*
X40280D01*
X40294Y6356D01*
X40327D01*
X40417Y6353D01*
D02*
G37*
G36*
X43478Y6351D02*
X43574Y6341D01*
X43664Y6325D01*
X43750Y6304D01*
X43830Y6280D01*
X43904Y6251D01*
X43972Y6222D01*
X44033Y6191D01*
X44087Y6161D01*
X44136Y6130D01*
X44177Y6101D01*
X44212Y6077D01*
X44238Y6056D01*
X44257Y6040D01*
X44269Y6030D01*
X44273Y6025D01*
X44335Y5962D01*
X44388Y5898D01*
X44437Y5831D01*
X44480Y5763D01*
X44519Y5697D01*
X44552Y5632D01*
X44581Y5568D01*
X44605Y5509D01*
X44626Y5451D01*
X44642Y5400D01*
X44657Y5353D01*
X44667Y5314D01*
X44671Y5296D01*
X44675Y5281D01*
X44677Y5267D01*
X44679Y5257D01*
X44681Y5249D01*
X44683Y5242D01*
Y5238D01*
Y5236D01*
X44080Y5085D01*
X44070Y5150D01*
X44058Y5212D01*
X44043Y5271D01*
X44025Y5324D01*
X44005Y5374D01*
X43984Y5421D01*
X43960Y5464D01*
X43935Y5505D01*
X43908Y5542D01*
X43882Y5574D01*
X43853Y5605D01*
X43824Y5634D01*
X43793Y5658D01*
X43765Y5681D01*
X43734Y5702D01*
X43703Y5720D01*
X43674Y5736D01*
X43646Y5749D01*
X43588Y5771D01*
X43537Y5788D01*
X43490Y5800D01*
X43470Y5802D01*
X43451Y5806D01*
X43435Y5808D01*
X43422D01*
X43410Y5810D01*
X43396D01*
X43347Y5808D01*
X43299Y5802D01*
X43254Y5794D01*
X43213Y5784D01*
X43174Y5769D01*
X43137Y5755D01*
X43105Y5739D01*
X43074Y5722D01*
X43047Y5706D01*
X43023Y5689D01*
X43002Y5675D01*
X42986Y5661D01*
X42971Y5650D01*
X42963Y5642D01*
X42957Y5636D01*
X42955Y5634D01*
X42924Y5601D01*
X42898Y5566D01*
X42875Y5529D01*
X42854Y5492D01*
X42838Y5456D01*
X42824Y5421D01*
X42814Y5386D01*
X42803Y5353D01*
X42797Y5320D01*
X42791Y5292D01*
X42789Y5267D01*
X42785Y5244D01*
Y5226D01*
X42783Y5214D01*
Y5203D01*
Y5201D01*
X42785Y5160D01*
X42791Y5119D01*
X42799Y5078D01*
X42809Y5037D01*
X42838Y4959D01*
X42853Y4922D01*
X42869Y4888D01*
X42885Y4855D01*
X42900Y4824D01*
X42914Y4797D01*
X42928Y4775D01*
X42939Y4756D01*
X42947Y4744D01*
X42953Y4734D01*
X42955Y4732D01*
X42990Y4683D01*
X43033Y4634D01*
X43080Y4584D01*
X43131Y4533D01*
X43185Y4484D01*
X43240Y4435D01*
X43295Y4389D01*
X43351Y4344D01*
X43404Y4304D01*
X43453Y4267D01*
X43500Y4232D01*
X43539Y4203D01*
X43572Y4180D01*
X43586Y4170D01*
X43597Y4162D01*
X43607Y4156D01*
X43613Y4152D01*
X43617Y4148D01*
X43619D01*
X44683Y3440D01*
Y2834D01*
X42125D01*
Y3375D01*
X43933D01*
X43822Y3438D01*
X43718Y3498D01*
X43617Y3557D01*
X43521Y3615D01*
X43431Y3670D01*
X43345Y3723D01*
X43264Y3774D01*
X43187Y3824D01*
X43115Y3871D01*
X43047Y3916D01*
X42984Y3959D01*
X42924Y4000D01*
X42867Y4039D01*
X42816Y4076D01*
X42768Y4111D01*
X42723Y4146D01*
X42682Y4176D01*
X42645Y4205D01*
X42611Y4232D01*
X42580Y4258D01*
X42553Y4281D01*
X42529Y4301D01*
X42506Y4322D01*
X42485Y4338D01*
X42469Y4355D01*
X42457Y4367D01*
X42445Y4379D01*
X42436Y4388D01*
X42428Y4396D01*
X42424Y4400D01*
X42420Y4404D01*
X42367Y4471D01*
X42320Y4539D01*
X42279Y4607D01*
X42244Y4677D01*
X42213Y4744D01*
X42188Y4810D01*
X42168Y4873D01*
X42153Y4933D01*
X42139Y4988D01*
X42131Y5039D01*
X42125Y5085D01*
X42119Y5123D01*
X42116Y5156D01*
Y5169D01*
X42114Y5179D01*
Y5189D01*
Y5195D01*
Y5197D01*
Y5199D01*
X42119Y5292D01*
X42129Y5380D01*
X42145Y5464D01*
X42168Y5542D01*
X42194Y5615D01*
X42223Y5683D01*
X42254Y5747D01*
X42287Y5804D01*
X42320Y5855D01*
X42350Y5900D01*
X42379Y5939D01*
X42406Y5970D01*
X42426Y5997D01*
X42445Y6015D01*
X42455Y6025D01*
X42459Y6030D01*
X42527Y6087D01*
X42596Y6138D01*
X42670Y6181D01*
X42746Y6218D01*
X42824Y6249D01*
X42900Y6276D01*
X42973Y6298D01*
X43045Y6314D01*
X43113Y6329D01*
X43176Y6339D01*
X43232Y6345D01*
X43256Y6347D01*
X43281Y6351D01*
X43301D01*
X43320Y6353D01*
X43336D01*
X43351Y6356D01*
X43375D01*
X43478Y6351D01*
D02*
G37*
G36*
X51909Y6345D02*
X51928Y6314D01*
X51973Y6255D01*
X52022Y6198D01*
X52071Y6144D01*
X52096Y6120D01*
X52116Y6097D01*
X52137Y6079D01*
X52153Y6062D01*
X52168Y6048D01*
X52178Y6038D01*
X52186Y6032D01*
X52188Y6030D01*
X52227Y5995D01*
X52262Y5964D01*
X52297Y5935D01*
X52328Y5909D01*
X52356Y5886D01*
X52383Y5864D01*
X52407Y5845D01*
X52428Y5829D01*
X52447Y5814D01*
X52463Y5802D01*
X52477Y5792D01*
X52490Y5784D01*
X52498Y5777D01*
X52504Y5773D01*
X52508Y5769D01*
X52510D01*
X52535Y5755D01*
X52565Y5739D01*
X52600Y5722D01*
X52641Y5704D01*
X52684Y5685D01*
X52729Y5665D01*
X52822Y5626D01*
X52867Y5607D01*
X52910Y5591D01*
X52949Y5576D01*
X52984Y5562D01*
X53012Y5552D01*
X53035Y5544D01*
X53043Y5540D01*
X53049Y5538D01*
X53051Y5536D01*
X53053D01*
Y4910D01*
X52971Y4945D01*
X52889Y4986D01*
X52807Y5031D01*
X52723Y5080D01*
X52643Y5132D01*
X52565Y5183D01*
X52490Y5236D01*
X52418Y5287D01*
X52352Y5337D01*
X52291Y5382D01*
X52237Y5425D01*
X52215Y5443D01*
X52192Y5462D01*
X52172Y5478D01*
X52155Y5492D01*
X52139Y5505D01*
X52127Y5515D01*
X52116Y5523D01*
X52110Y5531D01*
X52106Y5533D01*
X52104Y5536D01*
Y3344D01*
X53150D01*
Y2834D01*
X50493D01*
Y3344D01*
X51475D01*
Y6374D01*
X51891D01*
X51909Y6345D01*
D02*
G37*
G36*
X48855D02*
X48873Y6314D01*
X48918Y6255D01*
X48968Y6198D01*
X49017Y6144D01*
X49041Y6120D01*
X49062Y6097D01*
X49082Y6079D01*
X49099Y6062D01*
X49113Y6048D01*
X49123Y6038D01*
X49132Y6032D01*
X49134Y6030D01*
X49173Y5995D01*
X49207Y5964D01*
X49242Y5935D01*
X49273Y5909D01*
X49302Y5886D01*
X49328Y5864D01*
X49353Y5845D01*
X49373Y5829D01*
X49392Y5814D01*
X49408Y5802D01*
X49423Y5792D01*
X49435Y5784D01*
X49443Y5777D01*
X49449Y5773D01*
X49453Y5769D01*
X49455D01*
X49480Y5755D01*
X49511Y5739D01*
X49546Y5722D01*
X49587Y5704D01*
X49630Y5685D01*
X49675Y5665D01*
X49767Y5626D01*
X49812Y5607D01*
X49855Y5591D01*
X49894Y5576D01*
X49929Y5562D01*
X49958Y5552D01*
X49980Y5544D01*
X49988Y5540D01*
X49995Y5538D01*
X49997Y5536D01*
X49999D01*
Y4910D01*
X49917Y4945D01*
X49835Y4986D01*
X49753Y5031D01*
X49669Y5080D01*
X49589Y5132D01*
X49511Y5183D01*
X49435Y5236D01*
X49363Y5287D01*
X49298Y5337D01*
X49236Y5382D01*
X49183Y5425D01*
X49160Y5443D01*
X49138Y5462D01*
X49117Y5478D01*
X49101Y5492D01*
X49084Y5505D01*
X49072Y5515D01*
X49062Y5523D01*
X49056Y5531D01*
X49052Y5533D01*
X49050Y5536D01*
Y3344D01*
X50095D01*
Y2834D01*
X47438D01*
Y3344D01*
X48420D01*
Y6374D01*
X48836D01*
X48855Y6345D01*
D02*
G37*
G36*
X47688Y1969D02*
X47330D01*
X45060Y6302D01*
X45431D01*
X47688Y1969D01*
D02*
G37*
G36*
X-13300Y-30638D02*
X-14132D01*
Y-28631D01*
X-15896D01*
Y-30638D01*
X-16729D01*
Y-26019D01*
X-15896D01*
Y-27916D01*
X-14132D01*
Y-26019D01*
X-13300D01*
Y-30638D01*
D02*
G37*
G36*
X-20676Y-29196D02*
X-22374D01*
Y-28563D01*
X-20676D01*
Y-29196D01*
D02*
G37*
G36*
X-2595Y-30638D02*
X-3264D01*
Y-27253D01*
X-3294Y-27304D01*
X-3319Y-27348D01*
X-3341Y-27384D01*
X-3360Y-27413D01*
X-3373Y-27438D01*
X-3382Y-27452D01*
X-3387Y-27463D01*
X-3390Y-27465D01*
X-3422Y-27520D01*
X-3447Y-27564D01*
X-3472Y-27602D01*
X-3488Y-27632D01*
X-3504Y-27656D01*
X-3513Y-27673D01*
X-3518Y-27684D01*
X-3521Y-27687D01*
X-5276Y-30638D01*
X-6084D01*
Y-26019D01*
X-5429D01*
Y-29237D01*
X-5380Y-29155D01*
X-5336Y-29082D01*
X-5301Y-29019D01*
X-5268Y-28964D01*
X-5238Y-28915D01*
X-5213Y-28877D01*
X-5194Y-28841D01*
X-5178Y-28814D01*
X-5164Y-28792D01*
X-5156Y-28776D01*
X-5148Y-28762D01*
X-5142Y-28751D01*
X-5137Y-28746D01*
Y-28743D01*
X-5134Y-28740D01*
X-3515Y-26019D01*
X-2595D01*
Y-30638D01*
D02*
G37*
G36*
X8043Y-25950D02*
X8123Y-25956D01*
X8199Y-25964D01*
X8273Y-25975D01*
X8347Y-25991D01*
X8415Y-26008D01*
X8548Y-26051D01*
X8671Y-26100D01*
X8786Y-26158D01*
X8887Y-26215D01*
X8983Y-26278D01*
X9065Y-26341D01*
X9138Y-26398D01*
X9198Y-26455D01*
X9225Y-26480D01*
X9250Y-26504D01*
X9272Y-26526D01*
X9291Y-26548D01*
X9307Y-26564D01*
X9318Y-26581D01*
X9329Y-26592D01*
X9337Y-26600D01*
X9340Y-26605D01*
X9343Y-26608D01*
X9389Y-26671D01*
X9430Y-26737D01*
X9471Y-26802D01*
X9507Y-26870D01*
X9575Y-27012D01*
X9632Y-27154D01*
X9681Y-27299D01*
X9720Y-27441D01*
X9752Y-27580D01*
X9780Y-27714D01*
X9802Y-27839D01*
X9810Y-27900D01*
X9815Y-27957D01*
X9823Y-28009D01*
X9826Y-28061D01*
X9832Y-28107D01*
X9834Y-28151D01*
X9837Y-28189D01*
X9840Y-28224D01*
Y-28254D01*
X9843Y-28279D01*
Y-28298D01*
Y-28314D01*
Y-28323D01*
Y-28325D01*
X9840Y-28448D01*
X9834Y-28566D01*
X9823Y-28680D01*
X9810Y-28792D01*
X9793Y-28896D01*
X9774Y-28994D01*
X9755Y-29087D01*
X9736Y-29174D01*
X9717Y-29251D01*
X9698Y-29322D01*
X9679Y-29382D01*
X9662Y-29434D01*
X9649Y-29475D01*
X9643Y-29491D01*
X9638Y-29505D01*
X9635Y-29516D01*
X9632Y-29524D01*
X9630Y-29527D01*
Y-29529D01*
X9586Y-29628D01*
X9542Y-29723D01*
X9493Y-29811D01*
X9444Y-29892D01*
X9392Y-29969D01*
X9343Y-30040D01*
X9291Y-30105D01*
X9245Y-30165D01*
X9198Y-30217D01*
X9157Y-30261D01*
X9119Y-30302D01*
X9086Y-30335D01*
X9059Y-30359D01*
X9037Y-30378D01*
X9026Y-30389D01*
X9021Y-30392D01*
X8944Y-30447D01*
X8862Y-30496D01*
X8781Y-30539D01*
X8693Y-30575D01*
X8609Y-30605D01*
X8524Y-30632D01*
X8439Y-30651D01*
X8360Y-30668D01*
X8284Y-30681D01*
X8215Y-30692D01*
X8153Y-30698D01*
X8098Y-30703D01*
X8076Y-30706D01*
X8054D01*
X8038Y-30709D01*
X7994D01*
X7855Y-30703D01*
X7727Y-30690D01*
X7601Y-30668D01*
X7486Y-30638D01*
X7377Y-30605D01*
X7279Y-30567D01*
X7186Y-30526D01*
X7104Y-30485D01*
X7031Y-30444D01*
X6965Y-30403D01*
X6910Y-30365D01*
X6864Y-30332D01*
X6826Y-30302D01*
X6801Y-30280D01*
X6785Y-30266D01*
X6780Y-30261D01*
X6698Y-30174D01*
X6624Y-30084D01*
X6558Y-29988D01*
X6501Y-29892D01*
X6449Y-29797D01*
X6406Y-29704D01*
X6370Y-29611D01*
X6337Y-29521D01*
X6313Y-29439D01*
X6291Y-29363D01*
X6274Y-29294D01*
X6261Y-29234D01*
X6255Y-29210D01*
X6253Y-29185D01*
X6247Y-29166D01*
Y-29150D01*
X6244Y-29136D01*
X6242Y-29128D01*
Y-29122D01*
Y-29120D01*
X7014Y-29035D01*
X7022Y-29109D01*
X7036Y-29180D01*
X7055Y-29245D01*
X7074Y-29311D01*
X7099Y-29371D01*
X7123Y-29428D01*
X7148Y-29480D01*
X7173Y-29529D01*
X7200Y-29573D01*
X7225Y-29611D01*
X7246Y-29644D01*
X7265Y-29671D01*
X7282Y-29693D01*
X7295Y-29710D01*
X7304Y-29720D01*
X7306Y-29723D01*
X7356Y-29772D01*
X7407Y-29819D01*
X7459Y-29857D01*
X7511Y-29890D01*
X7566Y-29917D01*
X7615Y-29939D01*
X7667Y-29958D01*
X7713Y-29974D01*
X7760Y-29985D01*
X7801Y-29993D01*
X7836Y-30002D01*
X7869Y-30004D01*
X7893Y-30007D01*
X7912Y-30010D01*
X7929D01*
X8013Y-30004D01*
X8090Y-29991D01*
X8166Y-29969D01*
X8235Y-29941D01*
X8300Y-29912D01*
X8360Y-29873D01*
X8417Y-29835D01*
X8467Y-29794D01*
X8510Y-29756D01*
X8551Y-29718D01*
X8584Y-29680D01*
X8611Y-29647D01*
X8633Y-29619D01*
X8649Y-29600D01*
X8660Y-29587D01*
X8663Y-29581D01*
X8712Y-29496D01*
X8756Y-29404D01*
X8792Y-29305D01*
X8824Y-29202D01*
X8851Y-29098D01*
X8873Y-28991D01*
X8892Y-28888D01*
X8906Y-28787D01*
X8917Y-28688D01*
X8928Y-28601D01*
X8933Y-28519D01*
X8936Y-28484D01*
Y-28451D01*
X8939Y-28418D01*
Y-28391D01*
X8942Y-28369D01*
Y-28350D01*
Y-28334D01*
Y-28320D01*
Y-28314D01*
Y-28312D01*
X8939Y-28162D01*
X8931Y-28020D01*
X8917Y-27889D01*
X8901Y-27768D01*
X8882Y-27654D01*
X8860Y-27550D01*
X8835Y-27457D01*
X8811Y-27373D01*
X8789Y-27299D01*
X8764Y-27233D01*
X8742Y-27179D01*
X8723Y-27135D01*
X8707Y-27100D01*
X8693Y-27072D01*
X8685Y-27059D01*
X8682Y-27053D01*
X8630Y-26977D01*
X8576Y-26908D01*
X8518Y-26851D01*
X8458Y-26799D01*
X8398Y-26758D01*
X8338Y-26723D01*
X8278Y-26693D01*
X8221Y-26671D01*
X8166Y-26652D01*
X8117Y-26638D01*
X8073Y-26630D01*
X8032Y-26622D01*
X8000Y-26619D01*
X7978Y-26616D01*
X7956D01*
X7888Y-26619D01*
X7825Y-26627D01*
X7765Y-26641D01*
X7705Y-26660D01*
X7650Y-26685D01*
X7598Y-26712D01*
X7549Y-26745D01*
X7500Y-26780D01*
X7457Y-26818D01*
X7416Y-26859D01*
X7336Y-26947D01*
X7271Y-27042D01*
X7211Y-27138D01*
X7162Y-27236D01*
X7121Y-27332D01*
X7085Y-27419D01*
X7072Y-27460D01*
X7058Y-27498D01*
X7047Y-27534D01*
X7039Y-27566D01*
X7031Y-27594D01*
X7025Y-27618D01*
X7020Y-27637D01*
X7017Y-27651D01*
X7014Y-27659D01*
Y-27662D01*
X6242Y-27583D01*
X6269Y-27438D01*
X6302Y-27304D01*
X6340Y-27179D01*
X6384Y-27061D01*
X6430Y-26952D01*
X6476Y-26851D01*
X6526Y-26761D01*
X6575Y-26682D01*
X6624Y-26608D01*
X6667Y-26545D01*
X6711Y-26493D01*
X6747Y-26450D01*
X6777Y-26414D01*
X6801Y-26390D01*
X6815Y-26376D01*
X6820Y-26371D01*
X6908Y-26297D01*
X7001Y-26232D01*
X7096Y-26174D01*
X7192Y-26125D01*
X7287Y-26084D01*
X7383Y-26051D01*
X7473Y-26024D01*
X7563Y-25999D01*
X7645Y-25983D01*
X7721Y-25969D01*
X7790Y-25961D01*
X7847Y-25953D01*
X7871D01*
X7896Y-25950D01*
X7915D01*
X7931Y-25947D01*
X7961D01*
X8043Y-25950D01*
D02*
G37*
G36*
X5581Y-30638D02*
X2578D01*
Y-29922D01*
X4748D01*
Y-28628D01*
X3028D01*
Y-27957D01*
X4748D01*
Y-26704D01*
X2611D01*
Y-26019D01*
X5581D01*
Y-30638D01*
D02*
G37*
G36*
X1860D02*
X1027D01*
Y-28740D01*
X-144D01*
X-862Y-30638D01*
X-1741D01*
X-933Y-28598D01*
X-1009Y-28566D01*
X-1080Y-28530D01*
X-1146Y-28489D01*
X-1209Y-28448D01*
X-1266Y-28405D01*
X-1318Y-28361D01*
X-1370Y-28314D01*
X-1413Y-28265D01*
X-1457Y-28216D01*
X-1495Y-28164D01*
X-1531Y-28115D01*
X-1563Y-28063D01*
X-1591Y-28011D01*
X-1618Y-27960D01*
X-1640Y-27910D01*
X-1662Y-27858D01*
X-1695Y-27763D01*
X-1722Y-27673D01*
X-1741Y-27588D01*
X-1746Y-27553D01*
X-1752Y-27517D01*
X-1757Y-27485D01*
X-1760Y-27457D01*
X-1763Y-27433D01*
Y-27411D01*
X-1765Y-27394D01*
Y-27384D01*
Y-27375D01*
Y-27373D01*
X-1760Y-27263D01*
X-1749Y-27157D01*
X-1730Y-27059D01*
X-1705Y-26966D01*
X-1675Y-26878D01*
X-1640Y-26799D01*
X-1604Y-26726D01*
X-1569Y-26657D01*
X-1533Y-26600D01*
X-1498Y-26545D01*
X-1462Y-26502D01*
X-1435Y-26463D01*
X-1408Y-26434D01*
X-1389Y-26412D01*
X-1378Y-26401D01*
X-1372Y-26395D01*
X-1293Y-26330D01*
X-1206Y-26270D01*
X-1113Y-26221D01*
X-1015Y-26177D01*
X-914Y-26141D01*
X-810Y-26111D01*
X-709Y-26087D01*
X-611Y-26065D01*
X-518Y-26051D01*
X-428Y-26038D01*
X-349Y-26029D01*
X-313Y-26027D01*
X-280Y-26024D01*
X-250Y-26021D01*
X-223D01*
X-201Y-26019D01*
X1860D01*
Y-30638D01*
D02*
G37*
G36*
X-17744D02*
X-20586Y-30638D01*
Y-29884D01*
X-18620Y-29884D01*
Y-26019D01*
X-17744D01*
Y-30638D01*
D02*
G37*
G36*
X-10493Y-25950D02*
X-10411Y-25956D01*
X-10332Y-25964D01*
X-10259Y-25978D01*
X-10182Y-25991D01*
X-10111Y-26010D01*
X-9975Y-26054D01*
X-9846Y-26106D01*
X-9729Y-26163D01*
X-9620Y-26223D01*
X-9521Y-26286D01*
X-9434Y-26352D01*
X-9393Y-26382D01*
X-9358Y-26412D01*
X-9322Y-26442D01*
X-9289Y-26469D01*
X-9262Y-26496D01*
X-9235Y-26521D01*
X-9213Y-26543D01*
X-9194Y-26564D01*
X-9175Y-26584D01*
X-9161Y-26597D01*
X-9150Y-26611D01*
X-9142Y-26619D01*
X-9139Y-26625D01*
X-9136Y-26627D01*
X-9087Y-26693D01*
X-9041Y-26758D01*
X-8997Y-26827D01*
X-8956Y-26895D01*
X-8918Y-26963D01*
X-8883Y-27034D01*
X-8820Y-27176D01*
X-8768Y-27318D01*
X-8724Y-27457D01*
X-8689Y-27594D01*
X-8659Y-27722D01*
X-8637Y-27845D01*
X-8626Y-27902D01*
X-8620Y-27957D01*
X-8612Y-28009D01*
X-8607Y-28058D01*
X-8601Y-28102D01*
X-8599Y-28142D01*
X-8596Y-28181D01*
X-8593Y-28213D01*
Y-28243D01*
X-8590Y-28268D01*
Y-28287D01*
Y-28301D01*
Y-28309D01*
Y-28312D01*
X-8593Y-28407D01*
X-8596Y-28497D01*
X-8612Y-28677D01*
X-8637Y-28847D01*
X-8670Y-29008D01*
X-8711Y-29158D01*
X-8754Y-29300D01*
X-8776Y-29366D01*
X-8798Y-29428D01*
X-8822Y-29491D01*
X-8847Y-29548D01*
X-8872Y-29603D01*
X-8896Y-29655D01*
X-8918Y-29704D01*
X-8943Y-29748D01*
X-8964Y-29791D01*
X-8984Y-29830D01*
X-9005Y-29865D01*
X-9025Y-29898D01*
X-9041Y-29925D01*
X-9057Y-29950D01*
X-9071Y-29972D01*
X-9082Y-29988D01*
X-9090Y-30002D01*
X-9098Y-30013D01*
X-9101Y-30018D01*
X-9104Y-30021D01*
X-9153Y-30084D01*
X-9205Y-30141D01*
X-9257Y-30195D01*
X-9314Y-30247D01*
X-9369Y-30296D01*
X-9426Y-30340D01*
X-9486Y-30381D01*
X-9543Y-30419D01*
X-9603Y-30452D01*
X-9663Y-30485D01*
X-9723Y-30515D01*
X-9783Y-30539D01*
X-9901Y-30586D01*
X-10013Y-30621D01*
X-10119Y-30651D01*
X-10217Y-30673D01*
X-10264Y-30681D01*
X-10308Y-30687D01*
X-10349Y-30692D01*
X-10384Y-30698D01*
X-10419Y-30700D01*
X-10450Y-30703D01*
X-10474Y-30706D01*
X-10496D01*
X-10515Y-30709D01*
X-10537D01*
X-10619Y-30706D01*
X-10701Y-30700D01*
X-10780Y-30692D01*
X-10856Y-30681D01*
X-10930Y-30665D01*
X-11004Y-30649D01*
X-11140Y-30605D01*
X-11269Y-30556D01*
X-11389Y-30501D01*
X-11495Y-30441D01*
X-11593Y-30378D01*
X-11683Y-30318D01*
X-11722Y-30288D01*
X-11760Y-30258D01*
X-11793Y-30231D01*
X-11825Y-30204D01*
X-11853Y-30176D01*
X-11880Y-30154D01*
X-11902Y-30133D01*
X-11921Y-30111D01*
X-11940Y-30094D01*
X-11954Y-30078D01*
X-11965Y-30067D01*
X-11973Y-30059D01*
X-11976Y-30053D01*
X-11978Y-30051D01*
X-12027Y-29988D01*
X-12074Y-29922D01*
X-12118Y-29857D01*
X-12158Y-29789D01*
X-12194Y-29718D01*
X-12229Y-29647D01*
X-12292Y-29502D01*
X-12344Y-29357D01*
X-12388Y-29215D01*
X-12426Y-29073D01*
X-12453Y-28940D01*
X-12475Y-28814D01*
X-12486Y-28754D01*
X-12494Y-28697D01*
X-12500Y-28642D01*
X-12505Y-28590D01*
X-12511Y-28544D01*
X-12514Y-28500D01*
X-12516Y-28462D01*
X-12519Y-28426D01*
Y-28396D01*
X-12522Y-28369D01*
Y-28350D01*
Y-28334D01*
Y-28325D01*
Y-28323D01*
X-12519Y-28227D01*
X-12516Y-28137D01*
X-12500Y-27957D01*
X-12472Y-27788D01*
X-12440Y-27629D01*
X-12402Y-27479D01*
X-12380Y-27408D01*
X-12355Y-27340D01*
X-12333Y-27274D01*
X-12309Y-27209D01*
X-12284Y-27152D01*
X-12260Y-27094D01*
X-12235Y-27040D01*
X-12210Y-26988D01*
X-12186Y-26941D01*
X-12164Y-26895D01*
X-12139Y-26854D01*
X-12120Y-26816D01*
X-12099Y-26780D01*
X-12079Y-26750D01*
X-12063Y-26720D01*
X-12047Y-26696D01*
X-12033Y-26676D01*
X-12019Y-26657D01*
X-12011Y-26644D01*
X-12003Y-26636D01*
X-12000Y-26630D01*
X-11998Y-26627D01*
X-11948Y-26564D01*
X-11896Y-26507D01*
X-11842Y-26453D01*
X-11787Y-26403D01*
X-11730Y-26357D01*
X-11673Y-26313D01*
X-11615Y-26272D01*
X-11555Y-26234D01*
X-11495Y-26199D01*
X-11438Y-26169D01*
X-11378Y-26139D01*
X-11318Y-26114D01*
X-11203Y-26068D01*
X-11091Y-26032D01*
X-10985Y-26005D01*
X-10889Y-25983D01*
X-10843Y-25975D01*
X-10799Y-25969D01*
X-10761Y-25964D01*
X-10725Y-25958D01*
X-10690Y-25956D01*
X-10662Y-25953D01*
X-10635Y-25950D01*
X-10616Y-25947D01*
X-10575D01*
X-10493Y-25950D01*
D02*
G37*
G36*
X-24135Y-25953D02*
X-24010Y-25964D01*
X-23892Y-25983D01*
X-23780Y-26005D01*
X-23674Y-26035D01*
X-23578Y-26065D01*
X-23488Y-26100D01*
X-23406Y-26133D01*
X-23335Y-26169D01*
X-23270Y-26204D01*
X-23215Y-26234D01*
X-23171Y-26264D01*
X-23133Y-26286D01*
X-23109Y-26305D01*
X-23092Y-26316D01*
X-23087Y-26322D01*
X-23005Y-26395D01*
X-22934Y-26472D01*
X-22874Y-26551D01*
X-22819Y-26636D01*
X-22775Y-26717D01*
X-22737Y-26799D01*
X-22707Y-26881D01*
X-22683Y-26958D01*
X-22664Y-27031D01*
X-22650Y-27100D01*
X-22639Y-27160D01*
X-22634Y-27211D01*
X-22628Y-27255D01*
Y-27274D01*
X-22625Y-27288D01*
Y-27299D01*
Y-27307D01*
Y-27312D01*
Y-27315D01*
X-22628Y-27373D01*
X-22631Y-27430D01*
X-22647Y-27539D01*
X-22655Y-27588D01*
X-22666Y-27637D01*
X-22680Y-27684D01*
X-22691Y-27725D01*
X-22704Y-27763D01*
X-22715Y-27799D01*
X-22726Y-27828D01*
X-22737Y-27853D01*
X-22746Y-27875D01*
X-22751Y-27889D01*
X-22754Y-27900D01*
X-22756Y-27902D01*
X-22781Y-27951D01*
X-22808Y-27998D01*
X-22838Y-28041D01*
X-22866Y-28082D01*
X-22896Y-28121D01*
X-22923Y-28156D01*
X-22953Y-28189D01*
X-22980Y-28216D01*
X-23005Y-28241D01*
X-23029Y-28263D01*
X-23049Y-28282D01*
X-23068Y-28298D01*
X-23081Y-28309D01*
X-23095Y-28317D01*
X-23100Y-28323D01*
X-23103Y-28325D01*
X-23147Y-28353D01*
X-23196Y-28380D01*
X-23245Y-28405D01*
X-23300Y-28429D01*
X-23412Y-28475D01*
X-23521Y-28517D01*
X-23573Y-28533D01*
X-23619Y-28547D01*
X-23663Y-28560D01*
X-23701Y-28571D01*
X-23731Y-28582D01*
X-23756Y-28587D01*
X-23769Y-28590D01*
X-23775Y-28593D01*
X-24659Y-28825D01*
X-24722Y-28841D01*
X-24782Y-28861D01*
X-24834Y-28882D01*
X-24880Y-28901D01*
X-24924Y-28923D01*
X-24962Y-28945D01*
X-24995Y-28964D01*
X-25022Y-28983D01*
X-25047Y-29002D01*
X-25069Y-29021D01*
X-25085Y-29035D01*
X-25099Y-29049D01*
X-25110Y-29060D01*
X-25115Y-29068D01*
X-25121Y-29073D01*
Y-29076D01*
X-25156Y-29136D01*
X-25183Y-29199D01*
X-25203Y-29256D01*
X-25216Y-29311D01*
X-25224Y-29357D01*
X-25227Y-29376D01*
Y-29393D01*
X-25230Y-29406D01*
Y-29417D01*
Y-29423D01*
Y-29426D01*
X-25227Y-29475D01*
X-25219Y-29518D01*
X-25208Y-29562D01*
X-25192Y-29606D01*
X-25175Y-29644D01*
X-25153Y-29680D01*
X-25131Y-29712D01*
X-25110Y-29742D01*
X-25088Y-29770D01*
X-25066Y-29794D01*
X-25044Y-29816D01*
X-25028Y-29832D01*
X-25011Y-29846D01*
X-25001Y-29857D01*
X-24992Y-29862D01*
X-24990Y-29865D01*
X-24943Y-29895D01*
X-24891Y-29922D01*
X-24839Y-29947D01*
X-24782Y-29966D01*
X-24727Y-29983D01*
X-24670Y-29996D01*
X-24615Y-30010D01*
X-24561Y-30018D01*
X-24509Y-30026D01*
X-24463Y-30032D01*
X-24419Y-30034D01*
X-24384Y-30037D01*
X-24353Y-30040D01*
X-24310D01*
X-24222Y-30037D01*
X-24138Y-30032D01*
X-24059Y-30023D01*
X-23982Y-30010D01*
X-23911Y-29993D01*
X-23846Y-29977D01*
X-23783Y-29955D01*
X-23726Y-29933D01*
X-23671Y-29906D01*
X-23619Y-29882D01*
X-23573Y-29851D01*
X-23529Y-29821D01*
X-23488Y-29791D01*
X-23453Y-29759D01*
X-23417Y-29729D01*
X-23387Y-29696D01*
X-23360Y-29663D01*
X-23332Y-29630D01*
X-23291Y-29570D01*
X-23256Y-29510D01*
X-23231Y-29458D01*
X-23212Y-29415D01*
X-23207Y-29398D01*
X-23201Y-29382D01*
X-23199Y-29368D01*
X-23196Y-29360D01*
X-23193Y-29355D01*
Y-29352D01*
X-22382Y-29524D01*
X-22418Y-29636D01*
X-22462Y-29737D01*
X-22508Y-29835D01*
X-22560Y-29922D01*
X-22617Y-30004D01*
X-22674Y-30078D01*
X-22732Y-30144D01*
X-22789Y-30201D01*
X-22844Y-30255D01*
X-22896Y-30299D01*
X-22942Y-30337D01*
X-22986Y-30367D01*
X-23019Y-30392D01*
X-23046Y-30408D01*
X-23062Y-30419D01*
X-23065Y-30422D01*
X-23068D01*
X-23166Y-30471D01*
X-23267Y-30518D01*
X-23371Y-30556D01*
X-23474Y-30588D01*
X-23575Y-30616D01*
X-23676Y-30638D01*
X-23772Y-30657D01*
X-23862Y-30673D01*
X-23949Y-30684D01*
X-24026Y-30692D01*
X-24097Y-30700D01*
X-24127Y-30703D01*
X-24157D01*
X-24182Y-30706D01*
X-24206D01*
X-24225Y-30709D01*
X-24272D01*
X-24422Y-30703D01*
X-24564Y-30692D01*
X-24697Y-30673D01*
X-24823Y-30649D01*
X-24940Y-30619D01*
X-25052Y-30586D01*
X-25151Y-30550D01*
X-25243Y-30512D01*
X-25325Y-30477D01*
X-25396Y-30441D01*
X-25456Y-30408D01*
X-25508Y-30378D01*
X-25530Y-30367D01*
X-25549Y-30354D01*
X-25566Y-30343D01*
X-25576Y-30335D01*
X-25587Y-30329D01*
X-25596Y-30324D01*
X-25598Y-30318D01*
X-25601D01*
X-25648Y-30280D01*
X-25691Y-30242D01*
X-25732Y-30201D01*
X-25770Y-30160D01*
X-25839Y-30075D01*
X-25899Y-29985D01*
X-25948Y-29898D01*
X-25989Y-29808D01*
X-26024Y-29720D01*
X-26052Y-29636D01*
X-26071Y-29557D01*
X-26087Y-29483D01*
X-26098Y-29417D01*
X-26106Y-29360D01*
X-26109Y-29335D01*
X-26112Y-29314D01*
Y-29294D01*
X-26114Y-29278D01*
Y-29265D01*
Y-29256D01*
Y-29251D01*
Y-29248D01*
X-26112Y-29169D01*
X-26103Y-29092D01*
X-26092Y-29019D01*
X-26076Y-28948D01*
X-26057Y-28882D01*
X-26038Y-28817D01*
X-26013Y-28757D01*
X-25991Y-28702D01*
X-25970Y-28653D01*
X-25948Y-28609D01*
X-25926Y-28568D01*
X-25907Y-28536D01*
X-25890Y-28511D01*
X-25879Y-28492D01*
X-25871Y-28478D01*
X-25869Y-28475D01*
X-25844Y-28443D01*
X-25817Y-28413D01*
X-25757Y-28353D01*
X-25691Y-28295D01*
X-25618Y-28243D01*
X-25538Y-28197D01*
X-25459Y-28153D01*
X-25380Y-28112D01*
X-25301Y-28077D01*
X-25224Y-28047D01*
X-25151Y-28020D01*
X-25085Y-27995D01*
X-25028Y-27976D01*
X-25003Y-27968D01*
X-24981Y-27962D01*
X-24960Y-27957D01*
X-24943Y-27951D01*
X-24932Y-27949D01*
X-24921Y-27946D01*
X-24916Y-27943D01*
X-24913D01*
X-24127Y-27747D01*
X-24069Y-27730D01*
X-24012Y-27714D01*
X-23963Y-27698D01*
X-23914Y-27678D01*
X-23870Y-27656D01*
X-23829Y-27637D01*
X-23791Y-27616D01*
X-23756Y-27594D01*
X-23723Y-27572D01*
X-23693Y-27547D01*
X-23641Y-27501D01*
X-23597Y-27455D01*
X-23564Y-27411D01*
X-23537Y-27367D01*
X-23515Y-27326D01*
X-23502Y-27288D01*
X-23494Y-27258D01*
X-23488Y-27231D01*
X-23483Y-27209D01*
Y-27198D01*
Y-27192D01*
X-23485Y-27146D01*
X-23491Y-27102D01*
X-23502Y-27061D01*
X-23515Y-27023D01*
X-23529Y-26985D01*
X-23548Y-26952D01*
X-23567Y-26919D01*
X-23586Y-26892D01*
X-23605Y-26868D01*
X-23622Y-26843D01*
X-23641Y-26824D01*
X-23655Y-26810D01*
X-23668Y-26797D01*
X-23679Y-26788D01*
X-23685Y-26783D01*
X-23687Y-26780D01*
X-23728Y-26750D01*
X-23772Y-26726D01*
X-23818Y-26704D01*
X-23867Y-26685D01*
X-23917Y-26668D01*
X-23966Y-26657D01*
X-24061Y-26636D01*
X-24108Y-26630D01*
X-24149Y-26625D01*
X-24187Y-26622D01*
X-24220Y-26619D01*
X-24244Y-26616D01*
X-24283D01*
X-24345Y-26619D01*
X-24403Y-26622D01*
X-24460Y-26630D01*
X-24512Y-26638D01*
X-24610Y-26665D01*
X-24700Y-26698D01*
X-24779Y-26737D01*
X-24848Y-26783D01*
X-24910Y-26829D01*
X-24962Y-26878D01*
X-25006Y-26928D01*
X-25044Y-26974D01*
X-25074Y-27018D01*
X-25099Y-27059D01*
X-25115Y-27091D01*
X-25129Y-27119D01*
X-25134Y-27135D01*
X-25137Y-27138D01*
Y-27141D01*
X-25929Y-26944D01*
X-25901Y-26857D01*
X-25866Y-26775D01*
X-25825Y-26701D01*
X-25781Y-26630D01*
X-25732Y-26562D01*
X-25683Y-26502D01*
X-25631Y-26447D01*
X-25582Y-26398D01*
X-25533Y-26354D01*
X-25486Y-26316D01*
X-25443Y-26283D01*
X-25407Y-26259D01*
X-25374Y-26237D01*
X-25353Y-26221D01*
X-25336Y-26212D01*
X-25333Y-26210D01*
X-25331D01*
X-25241Y-26163D01*
X-25151Y-26122D01*
X-25058Y-26087D01*
X-24968Y-26057D01*
X-24875Y-26032D01*
X-24788Y-26010D01*
X-24703Y-25994D01*
X-24624Y-25980D01*
X-24547Y-25969D01*
X-24479Y-25961D01*
X-24419Y-25956D01*
X-24367Y-25950D01*
X-24323D01*
X-24307Y-25948D01*
X-24266D01*
X-24135Y-25953D01*
D02*
G37*
G36*
X49762Y88120D02*
X49824Y88116D01*
X49885Y88110D01*
X49945Y88100D01*
X50002Y88088D01*
X50060Y88075D01*
X50164Y88040D01*
X50263Y88002D01*
X50353Y87958D01*
X50435Y87911D01*
X50472Y87887D01*
X50509Y87862D01*
X50542Y87837D01*
X50574Y87813D01*
X50603Y87790D01*
X50630Y87766D01*
X50656Y87743D01*
X50679Y87723D01*
X50701Y87702D01*
X50720Y87684D01*
X50736Y87665D01*
X50751Y87649D01*
X50763Y87637D01*
X50773Y87624D01*
X50781Y87614D01*
X50788Y87608D01*
X50790Y87604D01*
X50792Y87602D01*
X50826Y87552D01*
X50859Y87501D01*
X50892Y87450D01*
X50921Y87399D01*
X50972Y87292D01*
X51017Y87186D01*
X51054Y87077D01*
X51087Y86972D01*
X51111Y86870D01*
X51132Y86774D01*
X51148Y86681D01*
X51155Y86638D01*
X51161Y86597D01*
X51165Y86558D01*
X51169Y86523D01*
X51173Y86489D01*
X51175Y86458D01*
X51177Y86431D01*
X51179Y86405D01*
Y86384D01*
X51181Y86366D01*
Y86351D01*
Y86341D01*
Y86335D01*
Y86333D01*
X51179Y86267D01*
X51177Y86202D01*
X51167Y86076D01*
X51148Y85953D01*
X51126Y85839D01*
X51099Y85728D01*
X51070Y85625D01*
X51038Y85531D01*
X51021Y85486D01*
X51005Y85443D01*
X50988Y85402D01*
X50974Y85363D01*
X50958Y85326D01*
X50941Y85291D01*
X50927Y85261D01*
X50912Y85232D01*
X50898Y85203D01*
X50886Y85181D01*
X50874Y85158D01*
X50863Y85140D01*
X50853Y85123D01*
X50845Y85109D01*
X50839Y85099D01*
X50835Y85091D01*
X50831Y85086D01*
Y85084D01*
X50796Y85035D01*
X50761Y84990D01*
X50724Y84947D01*
X50685Y84908D01*
X50644Y84869D01*
X50603Y84836D01*
X50560Y84803D01*
X50517Y84775D01*
X50474Y84746D01*
X50429Y84721D01*
X50386Y84699D01*
X50341Y84678D01*
X50254Y84644D01*
X50168Y84615D01*
X50089Y84592D01*
X50013Y84576D01*
X49978Y84570D01*
X49945Y84564D01*
X49914Y84560D01*
X49887Y84555D01*
X49861Y84553D01*
X49838Y84551D01*
X49818Y84549D01*
X49801D01*
X49789Y84547D01*
X49771D01*
X49711Y84549D01*
X49656Y84553D01*
X49600Y84560D01*
X49547Y84570D01*
X49498Y84582D01*
X49449Y84594D01*
X49357Y84629D01*
X49273Y84668D01*
X49195Y84711D01*
X49125Y84758D01*
X49064Y84808D01*
X49010Y84857D01*
X48963Y84904D01*
X48924Y84947D01*
X48891Y84986D01*
X48867Y85021D01*
X48856Y85033D01*
X48848Y85045D01*
X48842Y85056D01*
X48838Y85062D01*
X48834Y85066D01*
Y85068D01*
X48643Y84601D01*
X48366D01*
Y86374D01*
X49670D01*
Y85871D01*
X48953D01*
X48955Y85804D01*
X48961Y85742D01*
X48971Y85683D01*
X48986Y85625D01*
X49002Y85574D01*
X49020Y85525D01*
X49039Y85482D01*
X49057Y85441D01*
X49078Y85406D01*
X49096Y85375D01*
X49115Y85349D01*
X49131Y85326D01*
X49143Y85308D01*
X49156Y85295D01*
X49162Y85287D01*
X49164Y85285D01*
X49205Y85246D01*
X49246Y85211D01*
X49291Y85183D01*
X49334Y85158D01*
X49379Y85136D01*
X49422Y85117D01*
X49465Y85103D01*
X49506Y85093D01*
X49545Y85082D01*
X49580Y85076D01*
X49613Y85070D01*
X49639Y85068D01*
X49662Y85066D01*
X49678Y85064D01*
X49693D01*
X49767Y85068D01*
X49838Y85078D01*
X49904Y85097D01*
X49965Y85121D01*
X50021Y85150D01*
X50074Y85185D01*
X50123Y85226D01*
X50168Y85269D01*
X50212Y85318D01*
X50248Y85369D01*
X50283Y85423D01*
X50316Y85480D01*
X50345Y85539D01*
X50369Y85599D01*
X50394Y85660D01*
X50414Y85722D01*
X50433Y85783D01*
X50447Y85845D01*
X50462Y85904D01*
X50474Y85964D01*
X50484Y86021D01*
X50492Y86075D01*
X50498Y86126D01*
X50505Y86175D01*
X50509Y86218D01*
X50511Y86259D01*
X50513Y86294D01*
X50515Y86322D01*
X50517Y86347D01*
Y86366D01*
Y86376D01*
Y86380D01*
X50515Y86493D01*
X50507Y86599D01*
X50496Y86696D01*
X50480Y86788D01*
X50464Y86870D01*
X50443Y86946D01*
X50423Y87013D01*
X50400Y87075D01*
X50380Y87128D01*
X50359Y87175D01*
X50339Y87214D01*
X50322Y87245D01*
X50306Y87272D01*
X50296Y87288D01*
X50287Y87298D01*
X50285Y87302D01*
X50240Y87356D01*
X50193Y87401D01*
X50144Y87442D01*
X50093Y87475D01*
X50041Y87505D01*
X49992Y87528D01*
X49943Y87548D01*
X49896Y87565D01*
X49853Y87577D01*
X49812Y87585D01*
X49775Y87594D01*
X49744Y87598D01*
X49717Y87600D01*
X49699Y87602D01*
X49683D01*
X49629Y87600D01*
X49578Y87596D01*
X49531Y87585D01*
X49486Y87575D01*
X49443Y87561D01*
X49400Y87542D01*
X49361Y87524D01*
X49324Y87503D01*
X49289Y87479D01*
X49256Y87454D01*
X49197Y87401D01*
X49145Y87343D01*
X49100Y87284D01*
X49064Y87225D01*
X49031Y87167D01*
X49006Y87114D01*
X48986Y87065D01*
X48977Y87044D01*
X48971Y87026D01*
X48965Y87007D01*
X48961Y86993D01*
X48957Y86983D01*
X48955Y86974D01*
X48953Y86968D01*
Y86966D01*
X48410Y87063D01*
X48428Y87147D01*
X48453Y87225D01*
X48481Y87300D01*
X48514Y87372D01*
X48547Y87440D01*
X48584Y87501D01*
X48619Y87559D01*
X48656Y87610D01*
X48690Y87657D01*
X48723Y87700D01*
X48754Y87735D01*
X48783Y87764D01*
X48803Y87788D01*
X48822Y87805D01*
X48832Y87815D01*
X48836Y87819D01*
X48902Y87872D01*
X48969Y87919D01*
X49041Y87960D01*
X49113Y87995D01*
X49184Y88024D01*
X49256Y88049D01*
X49326Y88069D01*
X49393Y88086D01*
X49455Y88098D01*
X49514Y88106D01*
X49566Y88114D01*
X49611Y88118D01*
X49629D01*
X49646Y88120D01*
X49662D01*
X49674Y88122D01*
X49697D01*
X49762Y88120D01*
D02*
G37*
%LPC*%
G36*
X-19263Y-19911D02*
X-19293D01*
X-19353Y-19914D01*
X-19408Y-19922D01*
X-19462Y-19933D01*
X-19514Y-19947D01*
X-19560Y-19966D01*
X-19607Y-19985D01*
X-19648Y-20007D01*
X-19683Y-20028D01*
X-19719Y-20050D01*
X-19746Y-20072D01*
X-19773Y-20091D01*
X-19795Y-20110D01*
X-19812Y-20124D01*
X-19823Y-20135D01*
X-19831Y-20143D01*
X-19833Y-20146D01*
X-19872Y-20189D01*
X-19904Y-20239D01*
X-19934Y-20288D01*
X-19959Y-20337D01*
X-19981Y-20389D01*
X-20000Y-20438D01*
X-20014Y-20487D01*
X-20027Y-20533D01*
X-20035Y-20580D01*
X-20041Y-20618D01*
X-20046Y-20656D01*
X-20052Y-20686D01*
Y-20714D01*
X-20055Y-20733D01*
Y-20744D01*
Y-20749D01*
X-18512D01*
X-18520Y-20675D01*
X-18534Y-20607D01*
X-18548Y-20542D01*
X-18567Y-20482D01*
X-18586Y-20427D01*
X-18608Y-20378D01*
X-18627Y-20331D01*
X-18649Y-20288D01*
X-18670Y-20252D01*
X-18692Y-20220D01*
X-18711Y-20192D01*
X-18728Y-20170D01*
X-18742Y-20151D01*
X-18752Y-20140D01*
X-18758Y-20132D01*
X-18761Y-20129D01*
X-18801Y-20091D01*
X-18845Y-20058D01*
X-18889Y-20028D01*
X-18935Y-20004D01*
X-18979Y-19982D01*
X-19023Y-19963D01*
X-19066Y-19949D01*
X-19107Y-19938D01*
X-19146Y-19930D01*
X-19181Y-19922D01*
X-19214Y-19916D01*
X-19241Y-19914D01*
X-19263Y-19911D01*
D02*
G37*
G36*
X10494Y-18895D02*
X9651D01*
X9601Y-18901D01*
X9503Y-18914D01*
X9413Y-18939D01*
X9326Y-18969D01*
X9246Y-19005D01*
X9173Y-19043D01*
X9105Y-19086D01*
X9044Y-19130D01*
X8990Y-19174D01*
X8941Y-19218D01*
X8900Y-19256D01*
X8867Y-19291D01*
X8840Y-19321D01*
X8821Y-19346D01*
X8807Y-19360D01*
X8804Y-19362D01*
Y-19365D01*
X8744Y-19455D01*
X8692Y-19548D01*
X8646Y-19646D01*
X8608Y-19742D01*
X8575Y-19840D01*
X8545Y-19933D01*
X8523Y-20026D01*
X8507Y-20113D01*
X8490Y-20198D01*
X8482Y-20271D01*
X8474Y-20340D01*
X8468Y-20400D01*
X8466Y-20424D01*
Y-20446D01*
X8463Y-20465D01*
Y-20482D01*
Y-20495D01*
Y-20503D01*
Y-20509D01*
Y-20512D01*
X8468Y-20662D01*
X8479Y-20804D01*
X8499Y-20935D01*
X8523Y-21058D01*
X8553Y-21170D01*
X8586Y-21271D01*
X8621Y-21366D01*
X8657Y-21448D01*
X8695Y-21522D01*
X8731Y-21585D01*
X8763Y-21639D01*
X8793Y-21683D01*
X8818Y-21718D01*
X8837Y-21743D01*
X8848Y-21756D01*
X8853Y-21762D01*
X8927Y-21836D01*
X9006Y-21898D01*
X9085Y-21956D01*
X9165Y-22002D01*
X9244Y-22043D01*
X9323Y-22079D01*
X9399Y-22106D01*
X9473Y-22128D01*
X9541Y-22144D01*
X9604Y-22158D01*
X9659Y-22166D01*
X9708Y-22174D01*
X9746Y-22177D01*
X9763D01*
X9776Y-22180D01*
X10494D01*
Y-18895D01*
D02*
G37*
G36*
X-287Y-20004D02*
X-303D01*
X-374Y-20007D01*
X-437Y-20017D01*
X-500Y-20031D01*
X-554Y-20050D01*
X-606Y-20075D01*
X-653Y-20099D01*
X-696Y-20127D01*
X-732Y-20154D01*
X-767Y-20184D01*
X-794Y-20211D01*
X-819Y-20236D01*
X-838Y-20260D01*
X-855Y-20279D01*
X-865Y-20293D01*
X-871Y-20304D01*
X-874Y-20307D01*
X-906Y-20367D01*
X-934Y-20430D01*
X-961Y-20495D01*
X-980Y-20563D01*
X-999Y-20632D01*
X-1013Y-20703D01*
X-1027Y-20768D01*
X-1037Y-20834D01*
X-1043Y-20897D01*
X-1048Y-20951D01*
X-1054Y-21003D01*
X-1056Y-21047D01*
X-1059Y-21085D01*
Y-21112D01*
Y-21120D01*
Y-21128D01*
Y-21131D01*
Y-21134D01*
X-1056Y-21240D01*
X-1051Y-21339D01*
X-1040Y-21432D01*
X-1027Y-21516D01*
X-1007Y-21598D01*
X-988Y-21672D01*
X-964Y-21740D01*
X-939Y-21806D01*
X-909Y-21863D01*
X-879Y-21917D01*
X-846Y-21967D01*
X-814Y-22010D01*
X-778Y-22051D01*
X-743Y-22087D01*
X-707Y-22119D01*
X-672Y-22150D01*
X-633Y-22174D01*
X-598Y-22196D01*
X-562Y-22215D01*
X-527Y-22234D01*
X-461Y-22259D01*
X-404Y-22275D01*
X-377Y-22283D01*
X-352Y-22286D01*
X-333Y-22289D01*
X-314Y-22291D01*
X-300Y-22294D01*
X-281D01*
X-216Y-22291D01*
X-156Y-22281D01*
X-98Y-22267D01*
X-44Y-22248D01*
X6Y-22226D01*
X52Y-22201D01*
X93Y-22174D01*
X131Y-22147D01*
X166Y-22119D01*
X194Y-22095D01*
X221Y-22070D01*
X240Y-22049D01*
X257Y-22029D01*
X268Y-22016D01*
X276Y-22005D01*
X279Y-22002D01*
X314Y-21945D01*
X347Y-21882D01*
X374Y-21814D01*
X396Y-21743D01*
X418Y-21675D01*
X434Y-21601D01*
X448Y-21533D01*
X459Y-21464D01*
X467Y-21399D01*
X472Y-21341D01*
X478Y-21287D01*
X481Y-21240D01*
Y-21202D01*
X483Y-21172D01*
Y-21161D01*
Y-21153D01*
Y-21150D01*
Y-21148D01*
X481Y-21052D01*
X475Y-20962D01*
X467Y-20877D01*
X453Y-20798D01*
X440Y-20725D01*
X423Y-20656D01*
X404Y-20594D01*
X388Y-20539D01*
X369Y-20487D01*
X352Y-20443D01*
X336Y-20405D01*
X322Y-20375D01*
X308Y-20350D01*
X300Y-20331D01*
X295Y-20321D01*
X292Y-20318D01*
X254Y-20263D01*
X210Y-20214D01*
X164Y-20173D01*
X117Y-20135D01*
X68Y-20105D01*
X19Y-20080D01*
X-30Y-20058D01*
X-79Y-20042D01*
X-123Y-20031D01*
X-166Y-20020D01*
X-205Y-20012D01*
X-237Y-20009D01*
X-265Y-20007D01*
X-287Y-20004D01*
D02*
G37*
G36*
X-12241Y-20004D02*
X-12258D01*
X-12329Y-20007D01*
X-12392Y-20017D01*
X-12454Y-20031D01*
X-12509Y-20050D01*
X-12561Y-20075D01*
X-12607Y-20099D01*
X-12651Y-20127D01*
X-12686Y-20154D01*
X-12722Y-20184D01*
X-12749Y-20211D01*
X-12774Y-20236D01*
X-12793Y-20260D01*
X-12809Y-20279D01*
X-12820Y-20293D01*
X-12825Y-20304D01*
X-12828Y-20307D01*
X-12861Y-20367D01*
X-12888Y-20430D01*
X-12916Y-20495D01*
X-12935Y-20563D01*
X-12954Y-20632D01*
X-12968Y-20703D01*
X-12981Y-20768D01*
X-12992Y-20834D01*
X-12998Y-20897D01*
X-13003Y-20951D01*
X-13008Y-21003D01*
X-13011Y-21047D01*
X-13014Y-21085D01*
Y-21112D01*
Y-21120D01*
Y-21129D01*
Y-21131D01*
Y-21134D01*
X-13011Y-21240D01*
X-13006Y-21339D01*
X-12995Y-21432D01*
X-12981Y-21516D01*
X-12962Y-21598D01*
X-12943Y-21672D01*
X-12918Y-21740D01*
X-12894Y-21806D01*
X-12864Y-21863D01*
X-12834Y-21917D01*
X-12801Y-21967D01*
X-12768Y-22010D01*
X-12733Y-22051D01*
X-12697Y-22087D01*
X-12662Y-22119D01*
X-12626Y-22150D01*
X-12588Y-22174D01*
X-12552Y-22196D01*
X-12517Y-22215D01*
X-12482Y-22234D01*
X-12416Y-22259D01*
X-12359Y-22275D01*
X-12331Y-22283D01*
X-12307Y-22286D01*
X-12288Y-22289D01*
X-12269Y-22291D01*
X-12255Y-22294D01*
X-12236D01*
X-12170Y-22291D01*
X-12110Y-22281D01*
X-12053Y-22267D01*
X-11998Y-22248D01*
X-11949Y-22226D01*
X-11903Y-22201D01*
X-11862Y-22174D01*
X-11824Y-22147D01*
X-11788Y-22119D01*
X-11761Y-22095D01*
X-11733Y-22070D01*
X-11714Y-22049D01*
X-11698Y-22029D01*
X-11687Y-22016D01*
X-11679Y-22005D01*
X-11676Y-22002D01*
X-11641Y-21945D01*
X-11608Y-21882D01*
X-11581Y-21814D01*
X-11559Y-21743D01*
X-11537Y-21675D01*
X-11521Y-21601D01*
X-11507Y-21533D01*
X-11496Y-21464D01*
X-11488Y-21399D01*
X-11482Y-21341D01*
X-11477Y-21287D01*
X-11474Y-21240D01*
Y-21202D01*
X-11472Y-21172D01*
Y-21161D01*
Y-21153D01*
Y-21150D01*
Y-21148D01*
X-11474Y-21052D01*
X-11480Y-20962D01*
X-11488Y-20877D01*
X-11502Y-20798D01*
X-11515Y-20725D01*
X-11531Y-20656D01*
X-11551Y-20594D01*
X-11567Y-20539D01*
X-11586Y-20487D01*
X-11603Y-20443D01*
X-11619Y-20405D01*
X-11632Y-20375D01*
X-11646Y-20350D01*
X-11654Y-20331D01*
X-11660Y-20321D01*
X-11663Y-20318D01*
X-11701Y-20263D01*
X-11744Y-20214D01*
X-11791Y-20173D01*
X-11837Y-20135D01*
X-11886Y-20105D01*
X-11936Y-20080D01*
X-11985Y-20058D01*
X-12034Y-20042D01*
X-12077Y-20031D01*
X-12121Y-20020D01*
X-12159Y-20012D01*
X-12192Y-20009D01*
X-12219Y-20007D01*
X-12241Y-20004D01*
D02*
G37*
G36*
X51659Y11643D02*
X51645D01*
X51583Y11640D01*
X51525Y11629D01*
X51471Y11615D01*
X51421Y11596D01*
X51372Y11574D01*
X51331Y11550D01*
X51291Y11525D01*
X51255Y11498D01*
X51225Y11471D01*
X51198Y11446D01*
X51176Y11422D01*
X51157Y11400D01*
X51140Y11381D01*
X51129Y11367D01*
X51124Y11356D01*
X51121Y11353D01*
X51089Y11296D01*
X51058Y11236D01*
X51034Y11170D01*
X51012Y11102D01*
X50993Y11034D01*
X50979Y10966D01*
X50966Y10897D01*
X50957Y10832D01*
X50949Y10772D01*
X50944Y10714D01*
X50938Y10662D01*
X50936Y10616D01*
X50933Y10581D01*
Y10553D01*
Y10542D01*
Y10534D01*
Y10531D01*
Y10529D01*
X50936Y10460D01*
X50938Y10398D01*
X50941Y10335D01*
X50946Y10278D01*
X50957Y10166D01*
X50974Y10067D01*
X50990Y9977D01*
X51009Y9895D01*
X51028Y9824D01*
X51047Y9764D01*
X51069Y9710D01*
X51089Y9663D01*
X51105Y9628D01*
X51121Y9598D01*
X51135Y9573D01*
X51146Y9560D01*
X51151Y9549D01*
X51154Y9546D01*
X51195Y9502D01*
X51236Y9464D01*
X51277Y9431D01*
X51320Y9401D01*
X51364Y9379D01*
X51408Y9358D01*
X51449Y9341D01*
X51487Y9328D01*
X51522Y9319D01*
X51558Y9311D01*
X51588Y9306D01*
X51613Y9300D01*
X51635D01*
X51651Y9297D01*
X51665D01*
X51722Y9300D01*
X51776Y9306D01*
X51828Y9317D01*
X51877Y9333D01*
X51924Y9349D01*
X51968Y9366D01*
X52006Y9388D01*
X52041Y9407D01*
X52074Y9426D01*
X52101Y9448D01*
X52123Y9464D01*
X52145Y9483D01*
X52159Y9497D01*
X52172Y9508D01*
X52178Y9513D01*
X52180Y9516D01*
X52216Y9560D01*
X52246Y9609D01*
X52271Y9661D01*
X52295Y9713D01*
X52314Y9770D01*
X52328Y9824D01*
X52342Y9882D01*
X52352Y9936D01*
X52361Y9985D01*
X52366Y10035D01*
X52372Y10078D01*
X52374Y10116D01*
Y10147D01*
X52377Y10171D01*
Y10185D01*
Y10190D01*
Y10698D01*
X52374Y10780D01*
X52369Y10856D01*
X52358Y10930D01*
X52344Y10996D01*
X52328Y11058D01*
X52311Y11116D01*
X52292Y11168D01*
X52273Y11214D01*
X52254Y11258D01*
X52235Y11293D01*
X52219Y11323D01*
X52202Y11348D01*
X52189Y11370D01*
X52178Y11383D01*
X52172Y11391D01*
X52170Y11394D01*
X52129Y11438D01*
X52088Y11476D01*
X52044Y11509D01*
X52000Y11539D01*
X51957Y11561D01*
X51913Y11582D01*
X51869Y11599D01*
X51828Y11613D01*
X51793Y11621D01*
X51757Y11629D01*
X51724Y11634D01*
X51697Y11640D01*
X51675D01*
X51659Y11643D01*
D02*
G37*
G36*
X35137Y11681D02*
X35107D01*
X35047Y11678D01*
X34992Y11670D01*
X34938Y11659D01*
X34886Y11645D01*
X34839Y11626D01*
X34793Y11607D01*
X34752Y11585D01*
X34717Y11563D01*
X34681Y11542D01*
X34654Y11520D01*
X34627Y11501D01*
X34605Y11481D01*
X34588Y11468D01*
X34577Y11457D01*
X34569Y11449D01*
X34567Y11446D01*
X34528Y11402D01*
X34495Y11353D01*
X34466Y11304D01*
X34441Y11255D01*
X34419Y11203D01*
X34400Y11154D01*
X34386Y11105D01*
X34373Y11058D01*
X34365Y11012D01*
X34359Y10974D01*
X34354Y10936D01*
X34348Y10905D01*
Y10878D01*
X34345Y10859D01*
Y10848D01*
Y10843D01*
X35888D01*
X35880Y10916D01*
X35866Y10985D01*
X35852Y11050D01*
X35833Y11110D01*
X35814Y11165D01*
X35792Y11214D01*
X35773Y11260D01*
X35751Y11304D01*
X35730Y11339D01*
X35708Y11372D01*
X35688Y11400D01*
X35672Y11422D01*
X35658Y11441D01*
X35648Y11451D01*
X35642Y11460D01*
X35639Y11462D01*
X35598Y11501D01*
X35555Y11533D01*
X35511Y11563D01*
X35465Y11588D01*
X35421Y11610D01*
X35377Y11629D01*
X35334Y11643D01*
X35293Y11654D01*
X35254Y11662D01*
X35219Y11670D01*
X35186Y11675D01*
X35159Y11678D01*
X35137Y11681D01*
D02*
G37*
G36*
X1027Y-26682D02*
X-76D01*
X-147Y-26685D01*
X-215Y-26690D01*
X-278Y-26698D01*
X-335Y-26712D01*
X-390Y-26726D01*
X-439Y-26742D01*
X-485Y-26758D01*
X-526Y-26775D01*
X-562Y-26794D01*
X-592Y-26810D01*
X-619Y-26827D01*
X-641Y-26840D01*
X-660Y-26854D01*
X-671Y-26862D01*
X-679Y-26867D01*
X-682Y-26870D01*
X-720Y-26906D01*
X-753Y-26944D01*
X-783Y-26985D01*
X-807Y-27026D01*
X-826Y-27067D01*
X-845Y-27108D01*
X-859Y-27146D01*
X-870Y-27184D01*
X-878Y-27222D01*
X-886Y-27255D01*
X-892Y-27285D01*
X-895Y-27310D01*
X-897Y-27332D01*
Y-27348D01*
Y-27359D01*
Y-27362D01*
X-895Y-27422D01*
X-889Y-27479D01*
X-878Y-27534D01*
X-862Y-27583D01*
X-845Y-27629D01*
X-826Y-27673D01*
X-807Y-27711D01*
X-788Y-27747D01*
X-766Y-27777D01*
X-747Y-27804D01*
X-728Y-27828D01*
X-712Y-27848D01*
X-698Y-27864D01*
X-687Y-27875D01*
X-679Y-27880D01*
X-676Y-27883D01*
X-632Y-27916D01*
X-586Y-27946D01*
X-534Y-27970D01*
X-480Y-27992D01*
X-425Y-28011D01*
X-368Y-28025D01*
X-313Y-28039D01*
X-261Y-28047D01*
X-209Y-28055D01*
X-160Y-28061D01*
X-119Y-28066D01*
X-81Y-28069D01*
X-51Y-28071D01*
X1027D01*
Y-26682D01*
D02*
G37*
G36*
X-10534Y-26616D02*
X-10561D01*
X-10660Y-26622D01*
X-10753Y-26636D01*
X-10837Y-26657D01*
X-10916Y-26687D01*
X-10987Y-26720D01*
X-11053Y-26758D01*
X-11113Y-26799D01*
X-11165Y-26843D01*
X-11211Y-26884D01*
X-11252Y-26925D01*
X-11285Y-26963D01*
X-11312Y-26999D01*
X-11334Y-27029D01*
X-11350Y-27051D01*
X-11359Y-27064D01*
X-11361Y-27070D01*
X-11408Y-27157D01*
X-11446Y-27253D01*
X-11481Y-27351D01*
X-11509Y-27455D01*
X-11533Y-27558D01*
X-11555Y-27662D01*
X-11572Y-27763D01*
X-11585Y-27861D01*
X-11596Y-27954D01*
X-11604Y-28041D01*
X-11610Y-28118D01*
X-11613Y-28153D01*
X-11615Y-28186D01*
Y-28213D01*
Y-28241D01*
X-11618Y-28263D01*
Y-28282D01*
Y-28298D01*
Y-28309D01*
Y-28314D01*
Y-28317D01*
Y-28407D01*
X-11615Y-28495D01*
X-11610Y-28576D01*
X-11604Y-28656D01*
X-11599Y-28732D01*
X-11591Y-28806D01*
X-11580Y-28874D01*
X-11569Y-28940D01*
X-11558Y-29002D01*
X-11547Y-29063D01*
X-11533Y-29120D01*
X-11520Y-29174D01*
X-11506Y-29223D01*
X-11492Y-29273D01*
X-11476Y-29316D01*
X-11462Y-29360D01*
X-11449Y-29398D01*
X-11432Y-29434D01*
X-11419Y-29469D01*
X-11405Y-29499D01*
X-11378Y-29551D01*
X-11356Y-29595D01*
X-11337Y-29628D01*
X-11320Y-29649D01*
X-11310Y-29663D01*
X-11307Y-29669D01*
X-11247Y-29734D01*
X-11184Y-29791D01*
X-11121Y-29840D01*
X-11056Y-29884D01*
X-10993Y-29920D01*
X-10930Y-29950D01*
X-10867Y-29974D01*
X-10810Y-29993D01*
X-10755Y-30010D01*
X-10704Y-30021D01*
X-10660Y-30029D01*
X-10622Y-30034D01*
X-10589Y-30037D01*
X-10564Y-30040D01*
X-10545D01*
X-10452Y-30034D01*
X-10365Y-30021D01*
X-10286Y-29999D01*
X-10209Y-29972D01*
X-10138Y-29939D01*
X-10076Y-29903D01*
X-10016Y-29865D01*
X-9964Y-29824D01*
X-9917Y-29783D01*
X-9876Y-29745D01*
X-9843Y-29710D01*
X-9816Y-29677D01*
X-9792Y-29649D01*
X-9778Y-29628D01*
X-9767Y-29614D01*
X-9764Y-29609D01*
X-9715Y-29524D01*
X-9674Y-29431D01*
X-9639Y-29330D01*
X-9606Y-29229D01*
X-9581Y-29122D01*
X-9557Y-29016D01*
X-9540Y-28912D01*
X-9527Y-28811D01*
X-9513Y-28716D01*
X-9505Y-28626D01*
X-9499Y-28547D01*
X-9497Y-28511D01*
Y-28475D01*
X-9494Y-28446D01*
Y-28418D01*
X-9491Y-28396D01*
Y-28374D01*
Y-28361D01*
Y-28347D01*
Y-28342D01*
Y-28339D01*
X-9494Y-28183D01*
X-9502Y-28036D01*
X-9519Y-27900D01*
X-9538Y-27771D01*
X-9562Y-27651D01*
X-9590Y-27539D01*
X-9622Y-27438D01*
X-9658Y-27343D01*
X-9699Y-27255D01*
X-9740Y-27176D01*
X-9783Y-27102D01*
X-9830Y-27037D01*
X-9879Y-26977D01*
X-9925Y-26922D01*
X-9977Y-26876D01*
X-10026Y-26832D01*
X-10076Y-26794D01*
X-10127Y-26761D01*
X-10177Y-26731D01*
X-10223Y-26706D01*
X-10269Y-26687D01*
X-10313Y-26668D01*
X-10354Y-26655D01*
X-10395Y-26644D01*
X-10430Y-26636D01*
X-10463Y-26627D01*
X-10491Y-26622D01*
X-10515Y-26619D01*
X-10534Y-26616D01*
D02*
G37*
%LPD*%
D11*
X-60384Y90945D02*
X-38681D01*
X-38681Y81988D01*
X-38681Y73130D02*
X-38681Y64173D01*
X-60384D02*
X-38681D01*
X-65453Y85876D02*
X-65453Y81988D01*
X-65453Y85876D02*
X-60384Y90945D01*
X-65453Y69242D02*
X-60384Y64173D01*
X-65453Y69242D02*
Y73130D01*
X30217Y89468D02*
X44193D01*
X28346Y74508D02*
X46063D01*
X27362Y78051D02*
Y84941D01*
X28346Y74508D02*
Y76575D01*
X47047Y78051D02*
Y84941D01*
X46063Y74508D02*
Y76575D01*
Y78051D02*
X47047D01*
X46063Y76575D02*
Y78051D01*
X27362D02*
X28346D01*
Y76575D02*
Y78051D01*
D14*
X-69291Y85629D02*
X-69685Y86023D01*
Y86810D01*
X-69291Y87204D01*
X-67717D01*
X-67323Y86810D01*
Y86023D01*
X-67717Y85629D01*
X-67323Y84842D02*
Y84055D01*
Y84449D01*
X-69685D01*
X-69291Y84842D01*
Y82875D02*
X-69685Y82481D01*
Y81694D01*
X-69291Y81300D01*
X-67717D01*
X-67323Y81694D01*
Y82481D01*
X-67717Y82875D01*
X-69291D01*
X28739Y63386D02*
Y65748D01*
X27558D01*
X27165Y65354D01*
Y64567D01*
X27558Y64173D01*
X28739D01*
X27952D02*
X27165Y63386D01*
X26378D02*
X25591D01*
X25984D01*
Y65748D01*
X26378Y65354D01*
X24410D02*
X24016Y65748D01*
X23229D01*
X22836Y65354D01*
Y64960D01*
X23229Y64567D01*
X23623D01*
X23229D01*
X22836Y64173D01*
Y63780D01*
X23229Y63386D01*
X24016D01*
X24410Y63780D01*
X25590Y68701D02*
Y71063D01*
X24409D01*
X24015Y70669D01*
Y69882D01*
X24409Y69488D01*
X25590D01*
X24802D02*
X24015Y68701D01*
X23228D02*
X22441D01*
X22835D01*
Y71063D01*
X23228Y70669D01*
X19686Y68701D02*
X21260D01*
X19686Y70275D01*
Y70669D01*
X20080Y71063D01*
X20867D01*
X21260Y70669D01*
X38582Y82678D02*
Y85039D01*
X37401D01*
X37008Y84645D01*
Y83858D01*
X37401Y83465D01*
X38582D01*
X36221Y85039D02*
X34646D01*
Y84645D01*
X36221Y83071D01*
Y82678D01*
M02*
