G04*
G04 #@! TF.GenerationSoftware,Altium Limited,Altium Designer,23.10.1 (27)*
G04*
G04 Layer_Color=8388736*
%FSLAX25Y25*%
%MOIN*%
G70*
G04*
G04 #@! TF.SameCoordinates,13E47035-5D8A-42FE-96CF-1707A3A9F588*
G04*
G04*
G04 #@! TF.FilePolarity,Negative*
G04*
G01*
G75*
%ADD32R,0.01732X0.03701*%
%ADD33R,0.02126X0.03701*%
%ADD34P,0.05234X4X270.0*%
%ADD35R,0.03701X0.03701*%
%ADD36R,0.03701X0.03701*%
%ADD37R,0.05276X0.05276*%
%ADD38R,0.07244X0.03701*%
%ADD39R,0.03701X0.07244*%
%ADD40R,0.01535X0.04095*%
%ADD41R,0.06850X0.01339*%
%ADD42R,0.04567X0.04606*%
%ADD43C,0.01043*%
%ADD44R,0.03032X0.02717*%
G04:AMPARAMS|DCode=45|XSize=13.39mil|YSize=38.58mil|CornerRadius=3.74mil|HoleSize=0mil|Usage=FLASHONLY|Rotation=180.000|XOffset=0mil|YOffset=0mil|HoleType=Round|Shape=RoundedRectangle|*
%AMROUNDEDRECTD45*
21,1,0.01339,0.03110,0,0,180.0*
21,1,0.00591,0.03858,0,0,180.0*
1,1,0.00748,-0.00295,0.01555*
1,1,0.00748,0.00295,0.01555*
1,1,0.00748,0.00295,-0.01555*
1,1,0.00748,-0.00295,-0.01555*
%
%ADD45ROUNDEDRECTD45*%
G04:AMPARAMS|DCode=46|XSize=38.58mil|YSize=13.39mil|CornerRadius=3.74mil|HoleSize=0mil|Usage=FLASHONLY|Rotation=180.000|XOffset=0mil|YOffset=0mil|HoleType=Round|Shape=RoundedRectangle|*
%AMROUNDEDRECTD46*
21,1,0.03858,0.00591,0,0,180.0*
21,1,0.03110,0.01339,0,0,180.0*
1,1,0.00748,-0.01555,0.00295*
1,1,0.00748,0.01555,0.00295*
1,1,0.00748,0.01555,-0.00295*
1,1,0.00748,-0.01555,-0.00295*
%
%ADD46ROUNDEDRECTD46*%
%ADD47R,0.12756X0.12756*%
%ADD48R,0.10000X0.08425*%
%ADD49O,0.07638X0.10000*%
%ADD50C,0.03110*%
%ADD51R,0.06457X0.06457*%
%ADD52C,0.06457*%
%ADD53O,0.07244X0.04095*%
%ADD54O,0.10000X0.04095*%
%ADD55R,0.06457X0.06457*%
%ADD56C,0.19685*%
D32*
X-57480Y79921D02*
D03*
X-59449D02*
D03*
X-67323D02*
D03*
X-61417D02*
D03*
X-63386D02*
D03*
X-65354D02*
D03*
X-21654Y-21260D02*
D03*
X-23622D02*
D03*
X-25591D02*
D03*
X-19685D02*
D03*
X-27559D02*
D03*
X-29528D02*
D03*
X24213Y77559D02*
D03*
X22244D02*
D03*
X14370D02*
D03*
X20276D02*
D03*
X18307D02*
D03*
X16339D02*
D03*
X3150Y-21260D02*
D03*
X1181D02*
D03*
X-787D02*
D03*
X5118D02*
D03*
X-2756D02*
D03*
X-4724D02*
D03*
D33*
X-71260Y89764D02*
D03*
X-53543D02*
D03*
X-33465Y-31102D02*
D03*
X-15748D02*
D03*
X10433Y87402D02*
D03*
X28150D02*
D03*
X-8661Y-31102D02*
D03*
X9055D02*
D03*
D34*
X-13422Y-13448D02*
D03*
X-17877Y-8993D02*
D03*
D35*
X-31988Y-9941D02*
D03*
X-25689D02*
D03*
X-32087Y-5118D02*
D03*
X-25787D02*
D03*
X-14173Y42913D02*
D03*
X-7874D02*
D03*
X-7874Y78740D02*
D03*
X-1575D02*
D03*
X-2362Y37205D02*
D03*
X3937D02*
D03*
X-7874Y48031D02*
D03*
X-14173D02*
D03*
X15354Y-2362D02*
D03*
X21654D02*
D03*
X20571Y3051D02*
D03*
X26870D02*
D03*
X591Y32087D02*
D03*
X6890D02*
D03*
X1575Y27067D02*
D03*
X-4724D02*
D03*
Y22047D02*
D03*
X1575D02*
D03*
X-4724Y16929D02*
D03*
X1575D02*
D03*
X3051Y46358D02*
D03*
X9350D02*
D03*
X38189Y61417D02*
D03*
X44488D02*
D03*
D36*
X43504Y14075D02*
D03*
Y20374D02*
D03*
X38386Y-1575D02*
D03*
Y4724D02*
D03*
X43504Y-1575D02*
D03*
Y4724D02*
D03*
X33858Y67421D02*
D03*
Y73721D02*
D03*
X46850Y54724D02*
D03*
Y48425D02*
D03*
Y38189D02*
D03*
Y31890D02*
D03*
X26280Y14961D02*
D03*
Y21260D02*
D03*
X31201Y14075D02*
D03*
Y20374D02*
D03*
X36122Y14075D02*
D03*
Y20374D02*
D03*
X21358Y14961D02*
D03*
Y21260D02*
D03*
X16437Y14961D02*
D03*
Y21260D02*
D03*
X11319Y14961D02*
D03*
Y21260D02*
D03*
X14370Y69291D02*
D03*
Y62992D02*
D03*
X23917Y70669D02*
D03*
Y64370D02*
D03*
X28839Y70669D02*
D03*
Y64370D02*
D03*
X33858Y79528D02*
D03*
Y85827D02*
D03*
X8169Y53248D02*
D03*
Y59547D02*
D03*
D37*
X-29331Y42126D02*
D03*
X-21063D02*
D03*
D38*
X-4724Y53347D02*
D03*
Y69882D02*
D03*
D39*
X35827Y-21260D02*
D03*
X19291D02*
D03*
D40*
X48130Y7008D02*
D03*
X50098D02*
D03*
X52067D02*
D03*
X54035D02*
D03*
X48130Y17992D02*
D03*
X50098D02*
D03*
X52067Y17992D02*
D03*
X54035Y17992D02*
D03*
D41*
X51083Y12500D02*
D03*
D42*
X32480Y-925D02*
D03*
Y4862D02*
D03*
D43*
X27559Y-4134D02*
D03*
X26181D02*
D03*
X27559Y-2756D02*
D03*
X26181D02*
D03*
X27559Y-1378D02*
D03*
X26181D02*
D03*
D44*
X22047Y-7874D02*
D03*
X25984D02*
D03*
D45*
X38583Y56437D02*
D03*
X37008D02*
D03*
X35433D02*
D03*
X33858D02*
D03*
X32283D02*
D03*
X30709D02*
D03*
X29134D02*
D03*
X27559D02*
D03*
X25984D02*
D03*
X24409D02*
D03*
X22835D02*
D03*
X21260D02*
D03*
X19685D02*
D03*
X18110D02*
D03*
Y29390D02*
D03*
X19685D02*
D03*
X21260D02*
D03*
X22835Y29390D02*
D03*
X24409D02*
D03*
X25984D02*
D03*
X27559D02*
D03*
X29134D02*
D03*
X30709D02*
D03*
X32283D02*
D03*
X33858D02*
D03*
X35433Y29390D02*
D03*
X37008D02*
D03*
X38583D02*
D03*
D46*
X41870Y32677D02*
D03*
Y34252D02*
D03*
Y35827D02*
D03*
Y37402D02*
D03*
Y38976D02*
D03*
Y40551D02*
D03*
Y42126D02*
D03*
Y43701D02*
D03*
Y45276D02*
D03*
Y46850D02*
D03*
Y48425D02*
D03*
Y50000D02*
D03*
Y51575D02*
D03*
Y53150D02*
D03*
X14823D02*
D03*
Y51575D02*
D03*
Y50000D02*
D03*
Y48425D02*
D03*
Y46850D02*
D03*
Y45276D02*
D03*
Y43701D02*
D03*
Y42126D02*
D03*
Y40551D02*
D03*
Y38976D02*
D03*
Y37402D02*
D03*
Y35827D02*
D03*
Y34252D02*
D03*
Y32677D02*
D03*
D47*
X28346Y42913D02*
D03*
D48*
X42913Y68898D02*
D03*
Y84646D02*
D03*
D49*
X-24094Y57874D02*
D03*
X-34095D02*
D03*
X-44094D02*
D03*
D50*
X-18858Y13091D02*
D03*
X-13543Y29823D02*
D03*
Y26476D02*
D03*
Y23130D02*
D03*
Y19783D02*
D03*
Y16437D02*
D03*
Y13091D02*
D03*
Y9744D02*
D03*
Y6398D02*
D03*
X-18858Y6398D02*
D03*
X-18858Y9744D02*
D03*
X-18858Y16437D02*
D03*
Y19783D02*
D03*
Y23130D02*
D03*
X-18858Y26476D02*
D03*
X-18858Y29823D02*
D03*
D51*
X55118Y86378D02*
D03*
D52*
Y76378D02*
D03*
Y66378D02*
D03*
Y56378D02*
D03*
Y46378D02*
D03*
Y36378D02*
D03*
X-31417Y86614D02*
D03*
X-21417D02*
D03*
X-11417D02*
D03*
D53*
X-30709Y35138D02*
D03*
Y1083D02*
D03*
D54*
X-17402Y35138D02*
D03*
Y1083D02*
D03*
D55*
X-1417Y86614D02*
D03*
D56*
X0Y0D02*
D03*
X48425Y-15748D02*
D03*
M02*
