G04*
G04 #@! TF.GenerationSoftware,Altium Limited,Altium Designer,23.10.1 (27)*
G04*
G04 Layer_Color=16711935*
%FSLAX25Y25*%
%MOIN*%
G70*
G04*
G04 #@! TF.SameCoordinates,13E47035-5D8A-42FE-96CF-1707A3A9F588*
G04*
G04*
G04 #@! TF.FilePolarity,Negative*
G04*
G01*
G75*
%ADD32R,0.01732X0.03701*%
%ADD33R,0.02126X0.03701*%
%ADD35R,0.03701X0.03701*%
%ADD49O,0.07638X0.10000*%
%ADD50C,0.03110*%
%ADD51R,0.06457X0.06457*%
%ADD52C,0.06457*%
%ADD53O,0.07244X0.04095*%
%ADD54O,0.10000X0.04095*%
%ADD55R,0.06457X0.06457*%
%ADD56C,0.19685*%
%ADD79R,0.13346X0.07047*%
%ADD80C,0.03162*%
D32*
X40157Y77559D02*
D03*
X38189D02*
D03*
X36220D02*
D03*
X42126D02*
D03*
X34252D02*
D03*
X32283D02*
D03*
D33*
X28346Y87402D02*
D03*
X46063D02*
D03*
D35*
X32283Y64567D02*
D03*
X38583D02*
D03*
X29528Y69685D02*
D03*
X35827D02*
D03*
D49*
X-24094Y57874D02*
D03*
X-34095D02*
D03*
X-44094D02*
D03*
D50*
X-18858Y13091D02*
D03*
X-13543Y29823D02*
D03*
Y26476D02*
D03*
Y23130D02*
D03*
Y19783D02*
D03*
Y16437D02*
D03*
Y13091D02*
D03*
Y9744D02*
D03*
Y6398D02*
D03*
X-18858Y6398D02*
D03*
X-18858Y9744D02*
D03*
X-18858Y16437D02*
D03*
Y19783D02*
D03*
Y23130D02*
D03*
X-18858Y26476D02*
D03*
X-18858Y29823D02*
D03*
D51*
X55118Y86378D02*
D03*
D52*
Y76378D02*
D03*
Y66378D02*
D03*
Y56378D02*
D03*
Y46378D02*
D03*
Y36378D02*
D03*
X-31417Y86614D02*
D03*
X-21417D02*
D03*
X-11417D02*
D03*
D53*
X-30709Y35138D02*
D03*
Y1083D02*
D03*
D54*
X-17402Y35138D02*
D03*
Y1083D02*
D03*
D55*
X-1417Y86614D02*
D03*
D56*
X0Y0D02*
D03*
X48425Y-15748D02*
D03*
D79*
X-41929Y77559D02*
D03*
X-62205D02*
D03*
D80*
X23622Y38189D02*
D03*
X33071D02*
D03*
Y47638D02*
D03*
X23622D02*
D03*
Y42913D02*
D03*
X33071D02*
D03*
X28346Y38189D02*
D03*
Y47638D02*
D03*
X28346Y42913D02*
D03*
M02*
