G04*
G04 #@! TF.GenerationSoftware,Altium Limited,Altium Designer,23.10.1 (27)*
G04*
G04 Layer_Color=65535*
%FSLAX25Y25*%
%MOIN*%
G70*
G04*
G04 #@! TF.SameCoordinates,13E47035-5D8A-42FE-96CF-1707A3A9F588*
G04*
G04*
G04 #@! TF.FilePolarity,Positive*
G04*
G01*
G75*
%ADD10C,0.00394*%
%ADD11C,0.00787*%
%ADD12C,0.00500*%
%ADD13C,0.00800*%
%ADD14C,0.00492*%
G36*
X-29251Y-13750D02*
X-29218D01*
X-29179Y-13754D01*
X-29134Y-13758D01*
X-29083Y-13764D01*
X-29026Y-13772D01*
X-28966Y-13782D01*
X-28903Y-13795D01*
X-28837Y-13811D01*
X-28767Y-13830D01*
X-28700Y-13852D01*
X-28630Y-13879D01*
X-28562Y-13910D01*
X-28495Y-13944D01*
X-28493D01*
X-28491Y-13947D01*
X-28478Y-13953D01*
X-28462Y-13965D01*
X-28437Y-13981D01*
X-28411Y-14000D01*
X-28378Y-14024D01*
X-28343Y-14053D01*
X-28306Y-14086D01*
X-28269Y-14123D01*
X-28230Y-14164D01*
X-28193Y-14209D01*
X-28156Y-14260D01*
X-28124Y-14313D01*
X-28093Y-14369D01*
X-28066Y-14430D01*
X-28046Y-14496D01*
X-28640Y-14643D01*
Y-14641D01*
X-28642Y-14639D01*
X-28646Y-14627D01*
X-28657Y-14607D01*
X-28669Y-14582D01*
X-28687Y-14551D01*
X-28710Y-14518D01*
X-28739Y-14484D01*
X-28771Y-14447D01*
X-28810Y-14410D01*
X-28857Y-14375D01*
X-28909Y-14340D01*
X-28968Y-14311D01*
X-29036Y-14287D01*
X-29110Y-14266D01*
X-29149Y-14260D01*
X-29192Y-14254D01*
X-29235Y-14252D01*
X-29282Y-14250D01*
X-29311D01*
X-29329Y-14252D01*
X-29354Y-14254D01*
X-29382Y-14256D01*
X-29413Y-14260D01*
X-29448Y-14264D01*
X-29520Y-14281D01*
X-29557Y-14289D01*
X-29594Y-14301D01*
X-29630Y-14315D01*
X-29665Y-14332D01*
X-29698Y-14350D01*
X-29729Y-14373D01*
X-29731Y-14375D01*
X-29735Y-14379D01*
X-29743Y-14385D01*
X-29753Y-14395D01*
X-29764Y-14406D01*
X-29778Y-14420D01*
X-29790Y-14438D01*
X-29805Y-14457D01*
X-29819Y-14477D01*
X-29833Y-14502D01*
X-29848Y-14527D01*
X-29858Y-14555D01*
X-29868Y-14584D01*
X-29876Y-14615D01*
X-29880Y-14648D01*
X-29882Y-14682D01*
Y-14686D01*
Y-14695D01*
X-29878Y-14711D01*
X-29874Y-14732D01*
X-29868Y-14754D01*
X-29858Y-14783D01*
X-29842Y-14814D01*
X-29821Y-14846D01*
X-29796Y-14879D01*
X-29764Y-14914D01*
X-29725Y-14949D01*
X-29702Y-14967D01*
X-29678Y-14984D01*
X-29651Y-15000D01*
X-29622Y-15017D01*
X-29591Y-15031D01*
X-29559Y-15047D01*
X-29522Y-15062D01*
X-29485Y-15074D01*
X-29442Y-15086D01*
X-29399Y-15099D01*
X-28808Y-15246D01*
X-28806D01*
X-28802Y-15248D01*
X-28794Y-15250D01*
X-28786Y-15252D01*
X-28773Y-15256D01*
X-28757Y-15260D01*
X-28741Y-15265D01*
X-28722Y-15271D01*
X-28679Y-15285D01*
X-28630Y-15304D01*
X-28575Y-15324D01*
X-28517Y-15347D01*
X-28458Y-15373D01*
X-28398Y-15404D01*
X-28339Y-15437D01*
X-28279Y-15472D01*
X-28224Y-15511D01*
X-28175Y-15554D01*
X-28130Y-15599D01*
X-28109Y-15621D01*
X-28091Y-15646D01*
X-28089Y-15648D01*
X-28083Y-15658D01*
X-28074Y-15673D01*
X-28062Y-15691D01*
X-28048Y-15716D01*
X-28031Y-15746D01*
X-28015Y-15779D01*
X-27999Y-15816D01*
X-27982Y-15857D01*
X-27964Y-15902D01*
X-27949Y-15951D01*
X-27935Y-16001D01*
X-27923Y-16054D01*
X-27915Y-16109D01*
X-27908Y-16167D01*
X-27906Y-16226D01*
Y-16228D01*
Y-16232D01*
Y-16238D01*
Y-16249D01*
X-27908Y-16261D01*
Y-16275D01*
X-27910Y-16292D01*
X-27913Y-16310D01*
X-27919Y-16353D01*
X-27927Y-16402D01*
X-27939Y-16458D01*
X-27953Y-16517D01*
X-27974Y-16581D01*
X-28001Y-16646D01*
X-28031Y-16714D01*
X-28068Y-16780D01*
X-28113Y-16847D01*
X-28165Y-16911D01*
X-28193Y-16941D01*
X-28224Y-16972D01*
X-28257Y-17001D01*
X-28292Y-17030D01*
X-28294D01*
X-28296Y-17034D01*
X-28302Y-17038D01*
X-28310Y-17042D01*
X-28318Y-17048D01*
X-28331Y-17056D01*
X-28345Y-17067D01*
X-28361Y-17075D01*
X-28400Y-17097D01*
X-28446Y-17122D01*
X-28499Y-17149D01*
X-28560Y-17175D01*
X-28630Y-17204D01*
X-28704Y-17231D01*
X-28788Y-17255D01*
X-28876Y-17278D01*
X-28970Y-17296D01*
X-29071Y-17311D01*
X-29177Y-17319D01*
X-29290Y-17323D01*
X-29325D01*
X-29339Y-17321D01*
X-29358D01*
X-29376Y-17319D01*
X-29399D01*
X-29421Y-17317D01*
X-29475Y-17311D01*
X-29532Y-17304D01*
X-29598Y-17296D01*
X-29665Y-17284D01*
X-29737Y-17269D01*
X-29813Y-17253D01*
X-29889Y-17233D01*
X-29967Y-17208D01*
X-30044Y-17179D01*
X-30120Y-17144D01*
X-30194Y-17108D01*
X-30196D01*
X-30198Y-17106D01*
X-30211Y-17097D01*
X-30231Y-17085D01*
X-30256Y-17067D01*
X-30288Y-17044D01*
X-30323Y-17015D01*
X-30362Y-16983D01*
X-30403Y-16941D01*
X-30446Y-16898D01*
X-30489Y-16849D01*
X-30532Y-16794D01*
X-30575Y-16732D01*
X-30614Y-16667D01*
X-30649Y-16593D01*
X-30682Y-16517D01*
X-30709Y-16433D01*
X-30100Y-16304D01*
Y-16306D01*
X-30098Y-16310D01*
X-30096Y-16316D01*
X-30094Y-16327D01*
X-30090Y-16339D01*
X-30086Y-16351D01*
X-30071Y-16384D01*
X-30053Y-16423D01*
X-30026Y-16468D01*
X-29995Y-16513D01*
X-29975Y-16538D01*
X-29954Y-16562D01*
X-29932Y-16587D01*
X-29905Y-16609D01*
X-29878Y-16634D01*
X-29848Y-16657D01*
X-29815Y-16679D01*
X-29780Y-16702D01*
X-29741Y-16720D01*
X-29700Y-16741D01*
X-29657Y-16757D01*
X-29610Y-16773D01*
X-29561Y-16786D01*
X-29507Y-16798D01*
X-29450Y-16808D01*
X-29390Y-16814D01*
X-29327Y-16818D01*
X-29261Y-16821D01*
X-29229D01*
X-29206Y-16818D01*
X-29179Y-16816D01*
X-29147Y-16814D01*
X-29112Y-16810D01*
X-29073Y-16804D01*
X-29032Y-16798D01*
X-28991Y-16788D01*
X-28948Y-16778D01*
X-28907Y-16765D01*
X-28864Y-16751D01*
X-28825Y-16732D01*
X-28786Y-16712D01*
X-28751Y-16689D01*
X-28749Y-16687D01*
X-28743Y-16683D01*
X-28734Y-16675D01*
X-28722Y-16665D01*
X-28710Y-16653D01*
X-28694Y-16636D01*
X-28677Y-16618D01*
X-28661Y-16597D01*
X-28644Y-16575D01*
X-28628Y-16550D01*
X-28611Y-16523D01*
X-28599Y-16495D01*
X-28587Y-16462D01*
X-28579Y-16429D01*
X-28573Y-16396D01*
X-28571Y-16359D01*
Y-16357D01*
Y-16353D01*
Y-16345D01*
X-28573Y-16335D01*
Y-16322D01*
X-28575Y-16308D01*
X-28581Y-16273D01*
X-28591Y-16232D01*
X-28605Y-16189D01*
X-28626Y-16142D01*
X-28653Y-16097D01*
Y-16095D01*
X-28657Y-16091D01*
X-28661Y-16085D01*
X-28669Y-16076D01*
X-28679Y-16066D01*
X-28692Y-16056D01*
X-28708Y-16042D01*
X-28726Y-16027D01*
X-28747Y-16013D01*
X-28771Y-15999D01*
X-28800Y-15982D01*
X-28833Y-15966D01*
X-28868Y-15951D01*
X-28907Y-15935D01*
X-28952Y-15921D01*
X-28999Y-15908D01*
X-29663Y-15734D01*
X-29667Y-15732D01*
X-29678Y-15730D01*
X-29696Y-15726D01*
X-29719Y-15718D01*
X-29747Y-15710D01*
X-29780Y-15699D01*
X-29815Y-15689D01*
X-29854Y-15677D01*
X-29936Y-15646D01*
X-30020Y-15611D01*
X-30061Y-15593D01*
X-30098Y-15574D01*
X-30135Y-15554D01*
X-30167Y-15533D01*
X-30169Y-15531D01*
X-30174Y-15527D01*
X-30184Y-15521D01*
X-30194Y-15513D01*
X-30209Y-15500D01*
X-30223Y-15486D01*
X-30241Y-15470D01*
X-30260Y-15451D01*
X-30280Y-15431D01*
X-30303Y-15406D01*
X-30323Y-15379D01*
X-30346Y-15351D01*
X-30366Y-15320D01*
X-30389Y-15287D01*
X-30409Y-15252D01*
X-30428Y-15215D01*
X-30430Y-15213D01*
X-30432Y-15205D01*
X-30436Y-15195D01*
X-30442Y-15179D01*
X-30450Y-15160D01*
X-30459Y-15137D01*
X-30467Y-15111D01*
X-30477Y-15082D01*
X-30485Y-15051D01*
X-30496Y-15017D01*
X-30504Y-14980D01*
X-30510Y-14943D01*
X-30522Y-14861D01*
X-30524Y-14818D01*
X-30526Y-14775D01*
Y-14773D01*
Y-14769D01*
Y-14762D01*
Y-14754D01*
X-30524Y-14744D01*
Y-14730D01*
X-30520Y-14697D01*
X-30516Y-14658D01*
X-30508Y-14613D01*
X-30498Y-14561D01*
X-30483Y-14506D01*
X-30465Y-14449D01*
X-30442Y-14387D01*
X-30413Y-14326D01*
X-30381Y-14264D01*
X-30340Y-14201D01*
X-30295Y-14141D01*
X-30241Y-14084D01*
X-30180Y-14029D01*
X-30176Y-14024D01*
X-30163Y-14016D01*
X-30145Y-14002D01*
X-30116Y-13985D01*
X-30083Y-13963D01*
X-30042Y-13940D01*
X-29993Y-13914D01*
X-29940Y-13887D01*
X-29878Y-13862D01*
X-29811Y-13836D01*
X-29739Y-13813D01*
X-29659Y-13791D01*
X-29575Y-13774D01*
X-29487Y-13760D01*
X-29393Y-13752D01*
X-29294Y-13748D01*
X-29263D01*
X-29251Y-13750D01*
D02*
G37*
G36*
X-24130Y-17269D02*
X-24786D01*
X-25479Y-14717D01*
X-26106Y-17269D01*
X-26750D01*
X-27697Y-13801D01*
X-27035D01*
X-26363Y-16331D01*
X-25737Y-13801D01*
X-25104D01*
X-24413Y-16331D01*
X-23755Y-13801D01*
X-23204D01*
X-24130Y-17269D01*
D02*
G37*
G36*
X-19819Y-16759D02*
X-18837D01*
Y-17269D01*
X-21494D01*
Y-16759D01*
X-20448D01*
Y-14568D01*
X-20450Y-14570D01*
X-20455Y-14572D01*
X-20461Y-14580D01*
X-20471Y-14588D01*
X-20483Y-14598D01*
X-20500Y-14611D01*
X-20516Y-14625D01*
X-20537Y-14641D01*
X-20559Y-14660D01*
X-20582Y-14678D01*
X-20635Y-14721D01*
X-20696Y-14766D01*
X-20762Y-14816D01*
X-20834Y-14867D01*
X-20910Y-14920D01*
X-20988Y-14972D01*
X-21068Y-15023D01*
X-21152Y-15072D01*
X-21234Y-15117D01*
X-21316Y-15158D01*
X-21398Y-15193D01*
Y-14568D01*
X-21396D01*
X-21394Y-14566D01*
X-21387Y-14563D01*
X-21379Y-14559D01*
X-21357Y-14551D01*
X-21328Y-14541D01*
X-21293Y-14527D01*
X-21254Y-14512D01*
X-21211Y-14496D01*
X-21166Y-14477D01*
X-21074Y-14438D01*
X-21029Y-14418D01*
X-20986Y-14400D01*
X-20944Y-14381D01*
X-20910Y-14365D01*
X-20879Y-14348D01*
X-20854Y-14334D01*
X-20852D01*
X-20848Y-14330D01*
X-20842Y-14326D01*
X-20834Y-14320D01*
X-20821Y-14311D01*
X-20807Y-14301D01*
X-20791Y-14289D01*
X-20772Y-14275D01*
X-20752Y-14258D01*
X-20727Y-14240D01*
X-20701Y-14217D01*
X-20672Y-14195D01*
X-20641Y-14168D01*
X-20606Y-14139D01*
X-20571Y-14108D01*
X-20533Y-14074D01*
X-20530Y-14072D01*
X-20522Y-14065D01*
X-20512Y-14055D01*
X-20498Y-14041D01*
X-20481Y-14024D01*
X-20461Y-14006D01*
X-20440Y-13983D01*
X-20416Y-13959D01*
X-20366Y-13905D01*
X-20317Y-13848D01*
X-20272Y-13789D01*
X-20254Y-13758D01*
X-20235Y-13729D01*
X-19819D01*
Y-16759D01*
D02*
G37*
G36*
X-29799Y79596D02*
X-29801Y79577D01*
X-29803Y79559D01*
X-29805Y79534D01*
X-29807Y79510D01*
X-29809Y79481D01*
X-29814Y79448D01*
X-29820Y79415D01*
X-29826Y79378D01*
X-29840Y79302D01*
X-29863Y79218D01*
X-29889Y79130D01*
X-29922Y79036D01*
X-29963Y78942D01*
X-29986Y78895D01*
X-30010Y78847D01*
X-30039Y78800D01*
X-30068Y78753D01*
X-30101Y78706D01*
X-30135Y78661D01*
X-30172Y78616D01*
X-30213Y78573D01*
X-30256Y78530D01*
X-30301Y78489D01*
X-30303Y78487D01*
X-30307Y78484D01*
X-30314Y78478D01*
X-30324Y78470D01*
X-30336Y78460D01*
X-30353Y78450D01*
X-30371Y78435D01*
X-30392Y78421D01*
X-30414Y78404D01*
X-30441Y78388D01*
X-30467Y78372D01*
X-30498Y78353D01*
X-30531Y78333D01*
X-30566Y78314D01*
X-30605Y78294D01*
X-30644Y78273D01*
X-30685Y78253D01*
X-30730Y78232D01*
X-30775Y78214D01*
X-30824Y78193D01*
X-30925Y78158D01*
X-31035Y78126D01*
X-31152Y78097D01*
X-31275Y78076D01*
X-31339Y78068D01*
X-31404Y78062D01*
X-31472Y78060D01*
X-31540Y78058D01*
X-31542D01*
X-31548D01*
X-31558D01*
X-31572D01*
X-31591Y78060D01*
X-31611D01*
X-31636Y78062D01*
X-31663Y78064D01*
X-31693Y78068D01*
X-31726Y78072D01*
X-31761Y78076D01*
X-31800Y78081D01*
X-31839Y78087D01*
X-31882Y78095D01*
X-31970Y78113D01*
X-32066Y78136D01*
X-32165Y78167D01*
X-32267Y78202D01*
X-32372Y78245D01*
X-32423Y78269D01*
X-32476Y78296D01*
X-32528Y78325D01*
X-32579Y78355D01*
X-32628Y78388D01*
X-32677Y78423D01*
X-32726Y78460D01*
X-32774Y78501D01*
X-32776Y78503D01*
X-32780Y78505D01*
X-32786Y78513D01*
X-32794Y78521D01*
X-32807Y78534D01*
X-32819Y78548D01*
X-32835Y78564D01*
X-32852Y78583D01*
X-32868Y78605D01*
X-32888Y78628D01*
X-32909Y78655D01*
X-32930Y78685D01*
X-32952Y78716D01*
X-32975Y78749D01*
X-32997Y78786D01*
X-33020Y78825D01*
X-33044Y78866D01*
X-33067Y78911D01*
X-33089Y78956D01*
X-33112Y79005D01*
X-33132Y79056D01*
X-33153Y79110D01*
X-33173Y79165D01*
X-33190Y79223D01*
X-33206Y79282D01*
X-33223Y79346D01*
X-33235Y79409D01*
X-33247Y79477D01*
X-33255Y79546D01*
X-33262Y79618D01*
X-33266Y79692D01*
X-33268Y79768D01*
Y80905D01*
X-29799D01*
Y79596D01*
D02*
G37*
G36*
X5933Y88094D02*
X5945D01*
X5978Y88091D01*
X6017Y88085D01*
X6062Y88079D01*
X6113Y88071D01*
X6168Y88057D01*
X6228Y88042D01*
X6291Y88022D01*
X6357Y87997D01*
X6425Y87966D01*
X6494Y87932D01*
X6562Y87890D01*
X6630Y87843D01*
X6697Y87790D01*
X6701Y87786D01*
X6706Y87782D01*
X6714Y87774D01*
X6722Y87766D01*
X6734Y87753D01*
X6747Y87741D01*
X6763Y87725D01*
X6779Y87704D01*
X6800Y87681D01*
X6820Y87657D01*
X6843Y87630D01*
X6870Y87599D01*
X6896Y87565D01*
X6925Y87528D01*
X6956Y87487D01*
X6991Y87442D01*
X7025Y87394D01*
X7062Y87343D01*
X7101Y87286D01*
X7142Y87226D01*
X7185Y87163D01*
X7230Y87095D01*
X7278Y87023D01*
X7327Y86945D01*
X7378Y86866D01*
X7431Y86779D01*
X7487Y86689D01*
X7544Y86593D01*
X7604Y86492D01*
X7663Y86388D01*
X7727Y86277D01*
Y88085D01*
X8268D01*
Y85527D01*
X7661D01*
X6954Y86591D01*
Y86593D01*
X6950Y86597D01*
X6945Y86603D01*
X6939Y86613D01*
X6931Y86624D01*
X6921Y86638D01*
X6898Y86671D01*
X6870Y86710D01*
X6835Y86757D01*
X6798Y86806D01*
X6757Y86859D01*
X6712Y86915D01*
X6667Y86970D01*
X6617Y87025D01*
X6568Y87079D01*
X6517Y87130D01*
X6468Y87177D01*
X6419Y87220D01*
X6369Y87255D01*
X6367Y87257D01*
X6357Y87263D01*
X6345Y87271D01*
X6326Y87282D01*
X6304Y87296D01*
X6277Y87310D01*
X6246Y87325D01*
X6214Y87341D01*
X6179Y87357D01*
X6142Y87372D01*
X6064Y87401D01*
X6023Y87411D01*
X5982Y87419D01*
X5941Y87425D01*
X5900Y87427D01*
X5898D01*
X5888D01*
X5875Y87425D01*
X5857D01*
X5834Y87421D01*
X5810Y87419D01*
X5781Y87413D01*
X5748Y87407D01*
X5715Y87397D01*
X5681Y87386D01*
X5646Y87372D01*
X5609Y87356D01*
X5572Y87335D01*
X5535Y87312D01*
X5500Y87286D01*
X5467Y87255D01*
X5465Y87253D01*
X5459Y87247D01*
X5451Y87239D01*
X5441Y87224D01*
X5426Y87208D01*
X5412Y87187D01*
X5396Y87163D01*
X5379Y87136D01*
X5363Y87105D01*
X5347Y87073D01*
X5332Y87036D01*
X5318Y86997D01*
X5308Y86956D01*
X5299Y86911D01*
X5293Y86863D01*
X5291Y86814D01*
Y86800D01*
X5293Y86788D01*
Y86775D01*
X5295Y86759D01*
X5299Y86740D01*
X5301Y86720D01*
X5314Y86673D01*
X5330Y86622D01*
X5353Y86564D01*
X5365Y86536D01*
X5381Y86507D01*
X5400Y86476D01*
X5420Y86445D01*
X5443Y86417D01*
X5467Y86386D01*
X5496Y86357D01*
X5527Y86328D01*
X5560Y86302D01*
X5597Y86275D01*
X5638Y86251D01*
X5681Y86226D01*
X5728Y86205D01*
X5777Y86185D01*
X5830Y86167D01*
X5890Y86152D01*
X5951Y86140D01*
X6017Y86130D01*
X5865Y85527D01*
X5863D01*
X5859D01*
X5853Y85529D01*
X5845Y85531D01*
X5834Y85533D01*
X5820Y85535D01*
X5806Y85539D01*
X5787Y85543D01*
X5748Y85553D01*
X5701Y85568D01*
X5650Y85584D01*
X5593Y85605D01*
X5533Y85629D01*
X5469Y85658D01*
X5404Y85691D01*
X5338Y85730D01*
X5271Y85773D01*
X5203Y85822D01*
X5139Y85875D01*
X5076Y85937D01*
X5072Y85941D01*
X5062Y85953D01*
X5045Y85972D01*
X5025Y85998D01*
X5000Y86033D01*
X4971Y86074D01*
X4941Y86123D01*
X4910Y86177D01*
X4879Y86238D01*
X4850Y86306D01*
X4822Y86380D01*
X4797Y86460D01*
X4777Y86546D01*
X4760Y86636D01*
X4750Y86732D01*
X4746Y86835D01*
Y86859D01*
X4748Y86874D01*
Y86890D01*
X4750Y86909D01*
Y86929D01*
X4754Y86954D01*
X4756Y86978D01*
X4762Y87034D01*
X4772Y87097D01*
X4787Y87165D01*
X4803Y87237D01*
X4826Y87310D01*
X4852Y87386D01*
X4883Y87464D01*
X4920Y87540D01*
X4963Y87614D01*
X5014Y87683D01*
X5072Y87751D01*
X5076Y87755D01*
X5086Y87766D01*
X5105Y87784D01*
X5131Y87804D01*
X5162Y87831D01*
X5201Y87860D01*
X5246Y87890D01*
X5297Y87923D01*
X5355Y87956D01*
X5418Y87987D01*
X5486Y88016D01*
X5560Y88042D01*
X5638Y88065D01*
X5722Y88081D01*
X5810Y88091D01*
X5902Y88095D01*
X5904D01*
X5906D01*
X5912D01*
X5923D01*
X5933Y88094D01*
D02*
G37*
G36*
X6591Y83807D02*
X6611D01*
X6636Y83805D01*
X6663Y83803D01*
X6693Y83799D01*
X6726Y83795D01*
X6761Y83790D01*
X6800Y83786D01*
X6839Y83780D01*
X6882Y83772D01*
X6970Y83754D01*
X7066Y83731D01*
X7165Y83700D01*
X7267Y83666D01*
X7372Y83622D01*
X7423Y83598D01*
X7476Y83571D01*
X7528Y83543D01*
X7579Y83512D01*
X7628Y83479D01*
X7677Y83444D01*
X7727Y83407D01*
X7774Y83366D01*
X7776Y83364D01*
X7780Y83362D01*
X7786Y83354D01*
X7794Y83346D01*
X7807Y83333D01*
X7819Y83319D01*
X7835Y83303D01*
X7852Y83284D01*
X7868Y83262D01*
X7888Y83239D01*
X7909Y83212D01*
X7930Y83182D01*
X7952Y83151D01*
X7975Y83118D01*
X7997Y83081D01*
X8020Y83042D01*
X8044Y83001D01*
X8067Y82956D01*
X8089Y82911D01*
X8112Y82862D01*
X8132Y82811D01*
X8153Y82757D01*
X8173Y82702D01*
X8190Y82645D01*
X8206Y82585D01*
X8223Y82522D01*
X8235Y82458D01*
X8247Y82390D01*
X8255Y82321D01*
X8262Y82249D01*
X8266Y82175D01*
X8268Y82099D01*
Y80962D01*
X4799D01*
Y82271D01*
X4801Y82290D01*
X4803Y82308D01*
X4805Y82333D01*
X4807Y82358D01*
X4809Y82386D01*
X4814Y82419D01*
X4820Y82452D01*
X4826Y82489D01*
X4840Y82565D01*
X4863Y82649D01*
X4889Y82737D01*
X4922Y82831D01*
X4963Y82925D01*
X4986Y82973D01*
X5010Y83020D01*
X5039Y83067D01*
X5068Y83114D01*
X5100Y83161D01*
X5135Y83206D01*
X5172Y83251D01*
X5213Y83294D01*
X5256Y83337D01*
X5301Y83378D01*
X5303Y83381D01*
X5308Y83383D01*
X5314Y83389D01*
X5324Y83397D01*
X5336Y83407D01*
X5353Y83417D01*
X5371Y83432D01*
X5392Y83446D01*
X5414Y83463D01*
X5441Y83479D01*
X5467Y83495D01*
X5498Y83514D01*
X5531Y83534D01*
X5566Y83553D01*
X5605Y83573D01*
X5644Y83594D01*
X5685Y83614D01*
X5730Y83635D01*
X5775Y83653D01*
X5824Y83674D01*
X5925Y83709D01*
X6035Y83741D01*
X6152Y83770D01*
X6275Y83790D01*
X6339Y83799D01*
X6404Y83805D01*
X6472Y83807D01*
X6540Y83809D01*
X6542D01*
X6548D01*
X6558D01*
X6572D01*
X6591Y83807D01*
D02*
G37*
G36*
X8268Y78186D02*
X4799D01*
Y80416D01*
X5314D01*
Y78811D01*
X6255D01*
Y80103D01*
X6759D01*
Y78811D01*
X7731D01*
Y80441D01*
X8268D01*
Y78186D01*
D02*
G37*
G36*
Y75590D02*
X4799D01*
Y76249D01*
X7702D01*
Y77725D01*
X8268D01*
Y75590D01*
D02*
G37*
G36*
X-47659Y90713D02*
X-51128D01*
Y91339D01*
X-47659D01*
Y90713D01*
D02*
G37*
G36*
Y89260D02*
X-49703Y88044D01*
X-49705Y88042D01*
X-49707D01*
X-49711Y88038D01*
X-49720Y88034D01*
X-49730Y88028D01*
X-49742Y88022D01*
X-49758Y88011D01*
X-49779Y87999D01*
X-49806Y87985D01*
X-49834Y87966D01*
X-49871Y87944D01*
X-49912Y87919D01*
X-49959Y87893D01*
X-50015Y87860D01*
X-50076Y87823D01*
X-47659D01*
Y87331D01*
X-51128D01*
Y87938D01*
X-48912Y89256D01*
X-48910Y89258D01*
X-48902Y89262D01*
X-48889Y89268D01*
X-48871Y89280D01*
X-48848Y89293D01*
X-48820Y89311D01*
X-48787Y89330D01*
X-48746Y89354D01*
X-48744Y89356D01*
X-48735Y89360D01*
X-48725Y89367D01*
X-48707Y89377D01*
X-48684Y89391D01*
X-48658Y89407D01*
X-48625Y89426D01*
X-48586Y89448D01*
X-51128D01*
Y89951D01*
X-47659D01*
Y89260D01*
D02*
G37*
G36*
Y85119D02*
X-47661Y85105D01*
Y85088D01*
X-47663Y85068D01*
Y85045D01*
X-47665Y85022D01*
X-47670Y84996D01*
X-47676Y84939D01*
X-47684Y84875D01*
X-47698Y84805D01*
X-47712Y84733D01*
X-47733Y84660D01*
X-47758Y84584D01*
X-47788Y84510D01*
X-47823Y84438D01*
X-47864Y84369D01*
X-47911Y84303D01*
X-47965Y84246D01*
X-47969Y84241D01*
X-47979Y84233D01*
X-47995Y84219D01*
X-48018Y84198D01*
X-48049Y84178D01*
X-48084Y84151D01*
X-48125Y84125D01*
X-48170Y84098D01*
X-48221Y84071D01*
X-48276Y84045D01*
X-48336Y84018D01*
X-48399Y83995D01*
X-48467Y83977D01*
X-48537Y83963D01*
X-48610Y83955D01*
X-48688Y83950D01*
X-48690D01*
X-48695D01*
X-48701D01*
X-48709D01*
X-48721Y83952D01*
X-48733D01*
X-48750Y83955D01*
X-48766D01*
X-48807Y83961D01*
X-48854Y83967D01*
X-48906Y83977D01*
X-48963Y83989D01*
X-49022Y84008D01*
X-49086Y84028D01*
X-49150Y84053D01*
X-49213Y84084D01*
X-49279Y84121D01*
X-49340Y84164D01*
X-49402Y84213D01*
X-49459Y84268D01*
X-49463Y84272D01*
X-49471Y84282D01*
X-49486Y84301D01*
X-49504Y84325D01*
X-49527Y84356D01*
X-49553Y84395D01*
X-49580Y84438D01*
X-49607Y84487D01*
X-49633Y84543D01*
X-49660Y84604D01*
X-49687Y84670D01*
X-49707Y84742D01*
X-49728Y84817D01*
X-49742Y84899D01*
X-49750Y84984D01*
X-49754Y85074D01*
Y85941D01*
X-51128D01*
Y86566D01*
X-47659D01*
Y85119D01*
D02*
G37*
G36*
Y82841D02*
X-49887D01*
X-49890D01*
X-49892D01*
X-49900D01*
X-49908D01*
X-49918D01*
X-49931Y82839D01*
X-49961D01*
X-49998Y82835D01*
X-50039Y82831D01*
X-50086Y82825D01*
X-50134Y82817D01*
X-50185Y82806D01*
X-50236Y82794D01*
X-50285Y82780D01*
X-50334Y82761D01*
X-50380Y82739D01*
X-50423Y82714D01*
X-50459Y82683D01*
X-50490Y82651D01*
X-50492Y82649D01*
X-50496Y82643D01*
X-50503Y82630D01*
X-50513Y82616D01*
X-50523Y82597D01*
X-50535Y82577D01*
X-50548Y82550D01*
X-50562Y82521D01*
X-50574Y82491D01*
X-50589Y82456D01*
X-50601Y82419D01*
X-50611Y82380D01*
X-50621Y82339D01*
X-50628Y82296D01*
X-50632Y82251D01*
X-50634Y82204D01*
Y82191D01*
X-50632Y82175D01*
Y82155D01*
X-50630Y82130D01*
X-50625Y82101D01*
X-50621Y82070D01*
X-50615Y82036D01*
X-50607Y81999D01*
X-50597Y81960D01*
X-50585Y81923D01*
X-50568Y81882D01*
X-50552Y81845D01*
X-50531Y81806D01*
X-50507Y81771D01*
X-50480Y81736D01*
X-50478Y81734D01*
X-50472Y81728D01*
X-50464Y81720D01*
X-50449Y81710D01*
X-50431Y81695D01*
X-50408Y81681D01*
X-50382Y81665D01*
X-50349Y81648D01*
X-50310Y81632D01*
X-50267Y81615D01*
X-50220Y81601D01*
X-50164Y81587D01*
X-50105Y81577D01*
X-50039Y81568D01*
X-49965Y81562D01*
X-49887Y81560D01*
X-47659D01*
Y81064D01*
X-49887D01*
X-49890D01*
X-49892D01*
X-49900D01*
X-49908D01*
X-49918D01*
X-49931D01*
X-49961Y81066D01*
X-50000D01*
X-50043Y81070D01*
X-50093Y81072D01*
X-50144Y81076D01*
X-50199Y81082D01*
X-50257Y81089D01*
X-50373Y81107D01*
X-50429Y81119D01*
X-50484Y81132D01*
X-50537Y81148D01*
X-50585Y81166D01*
X-50587Y81169D01*
X-50595Y81171D01*
X-50609Y81179D01*
X-50625Y81187D01*
X-50646Y81199D01*
X-50671Y81214D01*
X-50699Y81232D01*
X-50728Y81255D01*
X-50761Y81279D01*
X-50794Y81308D01*
X-50828Y81341D01*
X-50865Y81376D01*
X-50900Y81417D01*
X-50935Y81460D01*
X-50970Y81507D01*
X-51005Y81560D01*
X-51007Y81564D01*
X-51013Y81572D01*
X-51021Y81589D01*
X-51032Y81611D01*
X-51046Y81640D01*
X-51060Y81675D01*
X-51077Y81714D01*
X-51093Y81757D01*
X-51109Y81808D01*
X-51126Y81861D01*
X-51140Y81919D01*
X-51155Y81982D01*
X-51165Y82048D01*
X-51173Y82120D01*
X-51179Y82191D01*
X-51181Y82269D01*
Y82298D01*
X-51179Y82310D01*
Y82339D01*
X-51177Y82376D01*
X-51173Y82419D01*
X-51169Y82464D01*
X-51163Y82515D01*
X-51155Y82571D01*
X-51144Y82626D01*
X-51132Y82686D01*
X-51117Y82743D01*
X-51099Y82802D01*
X-51079Y82860D01*
X-51056Y82915D01*
X-51029Y82968D01*
X-51027Y82970D01*
X-51023Y82981D01*
X-51013Y82995D01*
X-51001Y83013D01*
X-50986Y83036D01*
X-50968Y83061D01*
X-50945Y83089D01*
X-50921Y83120D01*
X-50892Y83151D01*
X-50861Y83184D01*
X-50826Y83217D01*
X-50790Y83249D01*
X-50749Y83280D01*
X-50705Y83311D01*
X-50660Y83337D01*
X-50611Y83362D01*
X-50607Y83364D01*
X-50599Y83366D01*
X-50585Y83372D01*
X-50564Y83381D01*
X-50537Y83389D01*
X-50505Y83399D01*
X-50468Y83411D01*
X-50427Y83421D01*
X-50380Y83432D01*
X-50328Y83444D01*
X-50273Y83454D01*
X-50213Y83463D01*
X-50150Y83471D01*
X-50082Y83475D01*
X-50011Y83479D01*
X-49935Y83481D01*
X-47659D01*
Y82841D01*
D02*
G37*
G36*
Y78215D02*
X-48194D01*
Y79137D01*
X-51128D01*
Y79807D01*
X-48194D01*
Y80730D01*
X-47659D01*
Y78215D01*
D02*
G37*
G36*
X5449Y-16812D02*
X6431D01*
Y-17323D01*
X3774D01*
Y-16812D01*
X4820D01*
Y-14621D01*
X4818Y-14623D01*
X4814Y-14625D01*
X4808Y-14633D01*
X4797Y-14641D01*
X4785Y-14652D01*
X4769Y-14664D01*
X4752Y-14678D01*
X4732Y-14695D01*
X4709Y-14713D01*
X4687Y-14732D01*
X4633Y-14775D01*
X4572Y-14820D01*
X4506Y-14869D01*
X4435Y-14920D01*
X4359Y-14974D01*
X4281Y-15025D01*
X4201Y-15076D01*
X4117Y-15125D01*
X4035Y-15170D01*
X3953Y-15211D01*
X3871Y-15246D01*
Y-14621D01*
X3873D01*
X3875Y-14619D01*
X3881Y-14617D01*
X3889Y-14613D01*
X3912Y-14604D01*
X3940Y-14594D01*
X3975Y-14580D01*
X4014Y-14566D01*
X4057Y-14549D01*
X4103Y-14531D01*
X4195Y-14492D01*
X4240Y-14471D01*
X4283Y-14453D01*
X4324Y-14434D01*
X4359Y-14418D01*
X4389Y-14402D01*
X4414Y-14387D01*
X4416D01*
X4420Y-14383D01*
X4426Y-14379D01*
X4435Y-14373D01*
X4447Y-14365D01*
X4461Y-14354D01*
X4478Y-14342D01*
X4496Y-14328D01*
X4517Y-14311D01*
X4541Y-14293D01*
X4568Y-14270D01*
X4597Y-14248D01*
X4627Y-14221D01*
X4662Y-14193D01*
X4697Y-14162D01*
X4736Y-14127D01*
X4738Y-14125D01*
X4746Y-14119D01*
X4756Y-14108D01*
X4771Y-14094D01*
X4787Y-14078D01*
X4808Y-14059D01*
X4828Y-14037D01*
X4853Y-14012D01*
X4902Y-13959D01*
X4951Y-13901D01*
X4996Y-13842D01*
X5015Y-13811D01*
X5033Y-13782D01*
X5449D01*
Y-16812D01*
D02*
G37*
G36*
X400Y-13856D02*
X419Y-13858D01*
X443Y-13860D01*
X468Y-13862D01*
X496Y-13864D01*
X529Y-13869D01*
X562Y-13875D01*
X599Y-13881D01*
X675Y-13895D01*
X759Y-13918D01*
X847Y-13944D01*
X941Y-13977D01*
X1036Y-14018D01*
X1083Y-14041D01*
X1130Y-14065D01*
X1177Y-14094D01*
X1224Y-14123D01*
X1271Y-14156D01*
X1316Y-14190D01*
X1362Y-14227D01*
X1405Y-14268D01*
X1448Y-14311D01*
X1489Y-14356D01*
X1491Y-14358D01*
X1493Y-14363D01*
X1499Y-14369D01*
X1507Y-14379D01*
X1517Y-14391D01*
X1528Y-14408D01*
X1542Y-14426D01*
X1556Y-14447D01*
X1573Y-14469D01*
X1589Y-14496D01*
X1606Y-14523D01*
X1624Y-14553D01*
X1644Y-14586D01*
X1663Y-14621D01*
X1684Y-14660D01*
X1704Y-14699D01*
X1725Y-14740D01*
X1745Y-14785D01*
X1763Y-14830D01*
X1784Y-14879D01*
X1819Y-14980D01*
X1852Y-15090D01*
X1880Y-15207D01*
X1901Y-15330D01*
X1909Y-15394D01*
X1915Y-15459D01*
X1917Y-15527D01*
X1919Y-15595D01*
Y-15597D01*
Y-15603D01*
Y-15613D01*
Y-15628D01*
X1917Y-15646D01*
Y-15666D01*
X1915Y-15691D01*
X1913Y-15718D01*
X1909Y-15748D01*
X1905Y-15781D01*
X1901Y-15816D01*
X1897Y-15855D01*
X1891Y-15894D01*
X1882Y-15937D01*
X1864Y-16025D01*
X1841Y-16122D01*
X1811Y-16220D01*
X1776Y-16322D01*
X1733Y-16427D01*
X1708Y-16478D01*
X1681Y-16532D01*
X1653Y-16583D01*
X1622Y-16634D01*
X1589Y-16683D01*
X1554Y-16732D01*
X1517Y-16782D01*
X1476Y-16829D01*
X1474Y-16831D01*
X1472Y-16835D01*
X1464Y-16841D01*
X1456Y-16849D01*
X1444Y-16862D01*
X1429Y-16874D01*
X1413Y-16890D01*
X1394Y-16907D01*
X1372Y-16923D01*
X1349Y-16944D01*
X1323Y-16964D01*
X1292Y-16985D01*
X1261Y-17007D01*
X1228Y-17030D01*
X1192Y-17052D01*
X1153Y-17075D01*
X1111Y-17099D01*
X1066Y-17122D01*
X1021Y-17144D01*
X972Y-17167D01*
X921Y-17188D01*
X868Y-17208D01*
X812Y-17229D01*
X755Y-17245D01*
X695Y-17261D01*
X632Y-17278D01*
X568Y-17290D01*
X501Y-17302D01*
X431Y-17311D01*
X359Y-17317D01*
X285Y-17321D01*
X209Y-17323D01*
X-928D01*
Y-13854D01*
X382D01*
X400Y-13856D01*
D02*
G37*
G36*
X-1474Y-14369D02*
X-3079D01*
Y-15310D01*
X-1787D01*
Y-15814D01*
X-3079D01*
Y-16786D01*
X-1449D01*
Y-17323D01*
X-3704D01*
Y-13854D01*
X-1474D01*
Y-14369D01*
D02*
G37*
G36*
X-5641Y-16757D02*
X-4165D01*
Y-17323D01*
X-6299D01*
Y-13854D01*
X-5641D01*
Y-16757D01*
D02*
G37*
G36*
X13155Y-15694D02*
X16088D01*
Y-16364D01*
X13155D01*
Y-17286D01*
X12620D01*
Y-14771D01*
X13155D01*
Y-15694D01*
D02*
G37*
G36*
X14405Y-17491D02*
X14428D01*
X14455Y-17493D01*
X14483Y-17495D01*
X14516Y-17497D01*
X14551Y-17502D01*
X14590Y-17506D01*
X14631Y-17510D01*
X14674Y-17516D01*
X14719Y-17524D01*
X14813Y-17540D01*
X14914Y-17561D01*
X15020Y-17590D01*
X15127Y-17623D01*
X15236Y-17661D01*
X15344Y-17709D01*
X15398Y-17735D01*
X15451Y-17762D01*
X15502Y-17793D01*
X15551Y-17826D01*
X15600Y-17860D01*
X15648Y-17897D01*
X15650Y-17899D01*
X15654Y-17901D01*
X15660Y-17908D01*
X15668Y-17916D01*
X15680Y-17926D01*
X15693Y-17940D01*
X15709Y-17955D01*
X15726Y-17971D01*
X15742Y-17991D01*
X15763Y-18012D01*
X15783Y-18037D01*
X15803Y-18061D01*
X15826Y-18090D01*
X15849Y-18119D01*
X15894Y-18186D01*
X15941Y-18260D01*
X15986Y-18340D01*
X16027Y-18430D01*
X16064Y-18527D01*
X16097Y-18629D01*
X16109Y-18684D01*
X16121Y-18740D01*
X16129Y-18797D01*
X16136Y-18857D01*
X16140Y-18918D01*
X16142Y-18980D01*
Y-18996D01*
X16140Y-19010D01*
Y-19027D01*
X16138Y-19045D01*
X16136Y-19068D01*
X16134Y-19094D01*
X16129Y-19121D01*
X16125Y-19152D01*
X16121Y-19185D01*
X16115Y-19219D01*
X16099Y-19293D01*
X16076Y-19373D01*
X16049Y-19457D01*
X16015Y-19545D01*
X15996Y-19590D01*
X15974Y-19636D01*
X15949Y-19681D01*
X15924Y-19726D01*
X15896Y-19769D01*
X15865Y-19814D01*
X15832Y-19857D01*
X15795Y-19898D01*
X15756Y-19941D01*
X15715Y-19980D01*
X15672Y-20019D01*
X15625Y-20056D01*
X15623Y-20058D01*
X15619Y-20060D01*
X15611Y-20066D01*
X15600Y-20072D01*
X15588Y-20080D01*
X15572Y-20091D01*
X15553Y-20103D01*
X15533Y-20115D01*
X15508Y-20130D01*
X15482Y-20146D01*
X15453Y-20160D01*
X15420Y-20177D01*
X15387Y-20195D01*
X15350Y-20212D01*
X15312Y-20230D01*
X15270Y-20249D01*
X15227Y-20267D01*
X15180Y-20286D01*
X15133Y-20302D01*
X15084Y-20318D01*
X14977Y-20351D01*
X14865Y-20382D01*
X14744Y-20406D01*
X14616Y-20425D01*
X14481Y-20437D01*
X14414Y-20439D01*
X14342Y-20441D01*
X14340D01*
X14334D01*
X14323D01*
X14309D01*
X14291Y-20439D01*
X14268D01*
X14243Y-20437D01*
X14215Y-20435D01*
X14184Y-20433D01*
X14151Y-20429D01*
X14114Y-20425D01*
X14075Y-20419D01*
X14034Y-20415D01*
X13991Y-20406D01*
X13899Y-20390D01*
X13803Y-20367D01*
X13700Y-20341D01*
X13596Y-20308D01*
X13489Y-20269D01*
X13382Y-20222D01*
X13329Y-20195D01*
X13278Y-20167D01*
X13227Y-20136D01*
X13175Y-20103D01*
X13126Y-20068D01*
X13077Y-20031D01*
X13075Y-20029D01*
X13071Y-20027D01*
X13065Y-20021D01*
X13054Y-20013D01*
X13044Y-20003D01*
X13030Y-19988D01*
X13013Y-19974D01*
X12997Y-19958D01*
X12979Y-19937D01*
X12958Y-19917D01*
X12938Y-19892D01*
X12915Y-19865D01*
X12892Y-19839D01*
X12870Y-19808D01*
X12821Y-19742D01*
X12774Y-19668D01*
X12729Y-19586D01*
X12685Y-19498D01*
X12646Y-19402D01*
X12614Y-19299D01*
X12599Y-19246D01*
X12589Y-19189D01*
X12579Y-19133D01*
X12573Y-19074D01*
X12569Y-19012D01*
X12566Y-18951D01*
Y-18920D01*
X12569Y-18906D01*
X12571Y-18885D01*
X12573Y-18865D01*
X12575Y-18838D01*
X12579Y-18812D01*
X12583Y-18783D01*
X12587Y-18750D01*
X12593Y-18715D01*
X12610Y-18643D01*
X12630Y-18564D01*
X12657Y-18479D01*
X12692Y-18393D01*
X12710Y-18348D01*
X12733Y-18303D01*
X12755Y-18260D01*
X12782Y-18215D01*
X12810Y-18170D01*
X12841Y-18127D01*
X12874Y-18084D01*
X12909Y-18041D01*
X12946Y-18000D01*
X12987Y-17959D01*
X13030Y-17920D01*
X13077Y-17883D01*
X13079Y-17881D01*
X13083Y-17879D01*
X13089Y-17873D01*
X13100Y-17866D01*
X13114Y-17856D01*
X13128Y-17846D01*
X13147Y-17834D01*
X13169Y-17821D01*
X13192Y-17807D01*
X13218Y-17791D01*
X13247Y-17776D01*
X13278Y-17758D01*
X13313Y-17741D01*
X13348Y-17723D01*
X13386Y-17705D01*
X13428Y-17686D01*
X13471Y-17668D01*
X13514Y-17649D01*
X13563Y-17631D01*
X13612Y-17614D01*
X13663Y-17596D01*
X13717Y-17579D01*
X13829Y-17551D01*
X13948Y-17526D01*
X14075Y-17506D01*
X14211Y-17493D01*
X14278Y-17491D01*
X14350Y-17489D01*
X14352D01*
X14358D01*
X14370D01*
X14385D01*
X14405Y-17491D01*
D02*
G37*
G36*
Y-20843D02*
X14428D01*
X14455Y-20845D01*
X14483Y-20847D01*
X14516Y-20849D01*
X14551Y-20853D01*
X14590Y-20857D01*
X14631Y-20862D01*
X14674Y-20868D01*
X14719Y-20876D01*
X14813Y-20892D01*
X14914Y-20913D01*
X15020Y-20942D01*
X15127Y-20974D01*
X15236Y-21013D01*
X15344Y-21060D01*
X15398Y-21087D01*
X15451Y-21114D01*
X15502Y-21144D01*
X15551Y-21177D01*
X15600Y-21212D01*
X15648Y-21249D01*
X15650Y-21251D01*
X15654Y-21253D01*
X15660Y-21259D01*
X15668Y-21267D01*
X15680Y-21278D01*
X15693Y-21292D01*
X15709Y-21306D01*
X15726Y-21323D01*
X15742Y-21343D01*
X15763Y-21364D01*
X15783Y-21388D01*
X15803Y-21413D01*
X15826Y-21442D01*
X15849Y-21470D01*
X15894Y-21538D01*
X15941Y-21612D01*
X15986Y-21692D01*
X16027Y-21782D01*
X16064Y-21878D01*
X16097Y-21981D01*
X16109Y-22036D01*
X16121Y-22092D01*
X16129Y-22149D01*
X16136Y-22208D01*
X16140Y-22270D01*
X16142Y-22331D01*
Y-22348D01*
X16140Y-22362D01*
Y-22378D01*
X16138Y-22397D01*
X16136Y-22420D01*
X16134Y-22446D01*
X16129Y-22473D01*
X16125Y-22504D01*
X16121Y-22536D01*
X16115Y-22571D01*
X16099Y-22645D01*
X16076Y-22725D01*
X16049Y-22809D01*
X16015Y-22897D01*
X15996Y-22942D01*
X15974Y-22987D01*
X15949Y-23032D01*
X15924Y-23077D01*
X15896Y-23121D01*
X15865Y-23166D01*
X15832Y-23209D01*
X15795Y-23250D01*
X15756Y-23293D01*
X15715Y-23332D01*
X15672Y-23371D01*
X15625Y-23408D01*
X15623Y-23410D01*
X15619Y-23412D01*
X15611Y-23418D01*
X15600Y-23424D01*
X15588Y-23432D01*
X15572Y-23442D01*
X15553Y-23455D01*
X15533Y-23467D01*
X15508Y-23481D01*
X15482Y-23498D01*
X15453Y-23512D01*
X15420Y-23529D01*
X15387Y-23547D01*
X15350Y-23563D01*
X15312Y-23582D01*
X15270Y-23600D01*
X15227Y-23619D01*
X15180Y-23637D01*
X15133Y-23654D01*
X15084Y-23670D01*
X14977Y-23703D01*
X14865Y-23733D01*
X14744Y-23758D01*
X14616Y-23777D01*
X14481Y-23789D01*
X14414Y-23791D01*
X14342Y-23793D01*
X14340D01*
X14334D01*
X14323D01*
X14309D01*
X14291Y-23791D01*
X14268D01*
X14243Y-23789D01*
X14215Y-23787D01*
X14184Y-23785D01*
X14151Y-23781D01*
X14114Y-23777D01*
X14075Y-23770D01*
X14034Y-23766D01*
X13991Y-23758D01*
X13899Y-23742D01*
X13803Y-23719D01*
X13700Y-23693D01*
X13596Y-23660D01*
X13489Y-23621D01*
X13382Y-23574D01*
X13329Y-23547D01*
X13278Y-23518D01*
X13227Y-23487D01*
X13175Y-23455D01*
X13126Y-23420D01*
X13077Y-23383D01*
X13075Y-23381D01*
X13071Y-23379D01*
X13065Y-23373D01*
X13054Y-23365D01*
X13044Y-23354D01*
X13030Y-23340D01*
X13013Y-23326D01*
X12997Y-23309D01*
X12979Y-23289D01*
X12958Y-23268D01*
X12938Y-23244D01*
X12915Y-23217D01*
X12892Y-23190D01*
X12870Y-23159D01*
X12821Y-23094D01*
X12774Y-23020D01*
X12729Y-22938D01*
X12685Y-22850D01*
X12646Y-22754D01*
X12614Y-22651D01*
X12599Y-22598D01*
X12589Y-22540D01*
X12579Y-22485D01*
X12573Y-22426D01*
X12569Y-22364D01*
X12566Y-22303D01*
Y-22272D01*
X12569Y-22258D01*
X12571Y-22237D01*
X12573Y-22217D01*
X12575Y-22190D01*
X12579Y-22163D01*
X12583Y-22135D01*
X12587Y-22102D01*
X12593Y-22067D01*
X12610Y-21995D01*
X12630Y-21915D01*
X12657Y-21831D01*
X12692Y-21745D01*
X12710Y-21700D01*
X12733Y-21655D01*
X12755Y-21612D01*
X12782Y-21567D01*
X12810Y-21522D01*
X12841Y-21479D01*
X12874Y-21436D01*
X12909Y-21392D01*
X12946Y-21351D01*
X12987Y-21310D01*
X13030Y-21271D01*
X13077Y-21235D01*
X13079Y-21233D01*
X13083Y-21230D01*
X13089Y-21224D01*
X13100Y-21218D01*
X13114Y-21208D01*
X13128Y-21198D01*
X13147Y-21185D01*
X13169Y-21173D01*
X13192Y-21159D01*
X13218Y-21142D01*
X13247Y-21128D01*
X13278Y-21110D01*
X13313Y-21093D01*
X13348Y-21075D01*
X13386Y-21056D01*
X13428Y-21038D01*
X13471Y-21019D01*
X13514Y-21001D01*
X13563Y-20982D01*
X13612Y-20966D01*
X13663Y-20948D01*
X13717Y-20931D01*
X13829Y-20902D01*
X13948Y-20878D01*
X14075Y-20857D01*
X14211Y-20845D01*
X14278Y-20843D01*
X14350Y-20841D01*
X14352D01*
X14358D01*
X14370D01*
X14385D01*
X14405Y-20843D01*
D02*
G37*
G36*
X15180Y-24184D02*
X15209Y-24187D01*
X15242Y-24191D01*
X15283Y-24197D01*
X15328Y-24205D01*
X15377Y-24215D01*
X15428Y-24230D01*
X15482Y-24246D01*
X15539Y-24269D01*
X15594Y-24293D01*
X15652Y-24324D01*
X15709Y-24359D01*
X15763Y-24398D01*
X15816Y-24445D01*
X15818Y-24447D01*
X15828Y-24457D01*
X15840Y-24474D01*
X15859Y-24494D01*
X15879Y-24523D01*
X15902Y-24558D01*
X15926Y-24597D01*
X15951Y-24644D01*
X15978Y-24697D01*
X16002Y-24758D01*
X16025Y-24824D01*
X16045Y-24898D01*
X16064Y-24976D01*
X16076Y-25062D01*
X16084Y-25156D01*
X16088Y-25255D01*
Y-26772D01*
X12620D01*
Y-25388D01*
X12622Y-25363D01*
Y-25335D01*
X12624Y-25300D01*
X12626Y-25261D01*
X12628Y-25220D01*
X12632Y-25177D01*
X12638Y-25130D01*
X12651Y-25035D01*
X12667Y-24939D01*
X12679Y-24894D01*
X12692Y-24851D01*
Y-24849D01*
X12696Y-24840D01*
X12700Y-24828D01*
X12706Y-24812D01*
X12714Y-24793D01*
X12726Y-24771D01*
X12739Y-24744D01*
X12755Y-24715D01*
X12774Y-24687D01*
X12794Y-24656D01*
X12819Y-24623D01*
X12845Y-24590D01*
X12876Y-24556D01*
X12911Y-24523D01*
X12948Y-24490D01*
X12989Y-24459D01*
X12991Y-24457D01*
X12999Y-24451D01*
X13011Y-24443D01*
X13028Y-24433D01*
X13050Y-24420D01*
X13077Y-24406D01*
X13106Y-24392D01*
X13140Y-24375D01*
X13177Y-24361D01*
X13218Y-24347D01*
X13262Y-24332D01*
X13309Y-24320D01*
X13358Y-24308D01*
X13409Y-24299D01*
X13464Y-24295D01*
X13520Y-24293D01*
X13524D01*
X13532D01*
X13548Y-24295D01*
X13567D01*
X13594Y-24297D01*
X13622Y-24301D01*
X13655Y-24308D01*
X13690Y-24314D01*
X13729Y-24324D01*
X13768Y-24334D01*
X13809Y-24349D01*
X13852Y-24365D01*
X13895Y-24383D01*
X13938Y-24406D01*
X13979Y-24433D01*
X14020Y-24461D01*
X14022Y-24463D01*
X14028Y-24469D01*
X14040Y-24478D01*
X14053Y-24492D01*
X14071Y-24508D01*
X14090Y-24531D01*
X14110Y-24554D01*
X14133Y-24582D01*
X14155Y-24613D01*
X14178Y-24648D01*
X14200Y-24687D01*
X14223Y-24728D01*
X14241Y-24773D01*
X14260Y-24820D01*
X14276Y-24871D01*
X14288Y-24925D01*
Y-24920D01*
X14293Y-24908D01*
X14297Y-24890D01*
X14303Y-24865D01*
X14311Y-24834D01*
X14321Y-24800D01*
X14334Y-24761D01*
X14350Y-24717D01*
X14368Y-24675D01*
X14389Y-24627D01*
X14414Y-24582D01*
X14442Y-24537D01*
X14473Y-24492D01*
X14508Y-24449D01*
X14545Y-24408D01*
X14588Y-24371D01*
X14590Y-24369D01*
X14598Y-24363D01*
X14612Y-24353D01*
X14629Y-24342D01*
X14651Y-24328D01*
X14678Y-24312D01*
X14709Y-24295D01*
X14744Y-24277D01*
X14783Y-24258D01*
X14826Y-24242D01*
X14871Y-24226D01*
X14920Y-24211D01*
X14971Y-24199D01*
X15026Y-24191D01*
X15082Y-24184D01*
X15141Y-24182D01*
X15143D01*
X15145D01*
X15152D01*
X15160D01*
X15180Y-24184D01*
D02*
G37*
G36*
X5195Y66858D02*
X5193Y66841D01*
Y66821D01*
X5191Y66798D01*
X5189Y66774D01*
X5187Y66747D01*
X5181Y66688D01*
X5170Y66620D01*
X5160Y66550D01*
X5144Y66477D01*
X5125Y66401D01*
X5103Y66323D01*
X5076Y66247D01*
X5043Y66173D01*
X5006Y66103D01*
X4961Y66038D01*
X4912Y65978D01*
X4908Y65974D01*
X4900Y65966D01*
X4883Y65952D01*
X4861Y65931D01*
X4832Y65911D01*
X4800Y65884D01*
X4758Y65857D01*
X4715Y65831D01*
X4664Y65804D01*
X4609Y65777D01*
X4549Y65751D01*
X4484Y65728D01*
X4414Y65710D01*
X4340Y65695D01*
X4260Y65687D01*
X4178Y65683D01*
X4176D01*
X4170D01*
X4162D01*
X4150Y65685D01*
X4133D01*
X4115Y65687D01*
X4094Y65689D01*
X4070Y65693D01*
X4043Y65697D01*
X4016Y65702D01*
X3953Y65716D01*
X3885Y65736D01*
X3813Y65761D01*
X3774Y65777D01*
X3738Y65794D01*
X3699Y65814D01*
X3660Y65835D01*
X3621Y65859D01*
X3584Y65886D01*
X3545Y65915D01*
X3508Y65948D01*
X3471Y65980D01*
X3436Y66019D01*
X3403Y66058D01*
X3371Y66101D01*
X3340Y66149D01*
X3309Y66198D01*
X3283Y66251D01*
X3258Y66308D01*
X1726Y65702D01*
Y66362D01*
X3151Y66901D01*
Y67780D01*
X1726D01*
Y68405D01*
X5195D01*
Y66858D01*
D02*
G37*
G36*
Y62830D02*
X4681D01*
Y64435D01*
X3740D01*
Y63143D01*
X3235D01*
Y64435D01*
X2264D01*
Y62805D01*
X1726D01*
Y65060D01*
X5195D01*
Y62830D01*
D02*
G37*
G36*
X2692Y62022D02*
X2690D01*
X2686Y62020D01*
X2680Y62018D01*
X2670Y62016D01*
X2657Y62012D01*
X2645Y62007D01*
X2612Y61993D01*
X2573Y61975D01*
X2528Y61948D01*
X2483Y61917D01*
X2458Y61897D01*
X2434Y61876D01*
X2409Y61854D01*
X2387Y61827D01*
X2362Y61800D01*
X2340Y61770D01*
X2317Y61737D01*
X2294Y61702D01*
X2276Y61663D01*
X2255Y61622D01*
X2239Y61579D01*
X2223Y61532D01*
X2210Y61483D01*
X2198Y61429D01*
X2188Y61372D01*
X2182Y61313D01*
X2177Y61249D01*
X2176Y61183D01*
Y61151D01*
X2177Y61128D01*
X2180Y61101D01*
X2182Y61069D01*
X2186Y61034D01*
X2192Y60995D01*
X2198Y60954D01*
X2208Y60913D01*
X2218Y60870D01*
X2231Y60829D01*
X2245Y60786D01*
X2264Y60747D01*
X2284Y60708D01*
X2307Y60673D01*
X2309Y60671D01*
X2313Y60665D01*
X2321Y60656D01*
X2331Y60644D01*
X2344Y60632D01*
X2360Y60615D01*
X2378Y60599D01*
X2399Y60583D01*
X2421Y60566D01*
X2446Y60550D01*
X2473Y60533D01*
X2501Y60521D01*
X2534Y60509D01*
X2567Y60501D01*
X2600Y60495D01*
X2637Y60492D01*
X2639D01*
X2643D01*
X2651D01*
X2661Y60495D01*
X2674D01*
X2688Y60497D01*
X2723Y60503D01*
X2764Y60513D01*
X2807Y60527D01*
X2854Y60548D01*
X2899Y60575D01*
X2901D01*
X2905Y60579D01*
X2911Y60583D01*
X2920Y60591D01*
X2930Y60601D01*
X2940Y60614D01*
X2954Y60630D01*
X2969Y60648D01*
X2983Y60669D01*
X2998Y60693D01*
X3014Y60722D01*
X3030Y60755D01*
X3045Y60790D01*
X3061Y60829D01*
X3075Y60874D01*
X3088Y60921D01*
X3262Y61585D01*
X3264Y61589D01*
X3266Y61599D01*
X3270Y61618D01*
X3278Y61641D01*
X3287Y61669D01*
X3297Y61702D01*
X3307Y61737D01*
X3319Y61776D01*
X3350Y61858D01*
X3385Y61942D01*
X3403Y61983D01*
X3422Y62020D01*
X3442Y62057D01*
X3463Y62090D01*
X3465Y62091D01*
X3469Y62096D01*
X3475Y62106D01*
X3483Y62116D01*
X3496Y62130D01*
X3510Y62145D01*
X3526Y62163D01*
X3545Y62182D01*
X3565Y62202D01*
X3590Y62225D01*
X3617Y62245D01*
X3645Y62268D01*
X3676Y62288D01*
X3709Y62311D01*
X3744Y62331D01*
X3781Y62350D01*
X3783Y62352D01*
X3791Y62354D01*
X3801Y62358D01*
X3818Y62364D01*
X3836Y62372D01*
X3858Y62381D01*
X3885Y62389D01*
X3914Y62399D01*
X3945Y62407D01*
X3980Y62418D01*
X4016Y62426D01*
X4053Y62432D01*
X4135Y62444D01*
X4178Y62446D01*
X4221Y62448D01*
X4223D01*
X4228D01*
X4234D01*
X4242D01*
X4252Y62446D01*
X4267D01*
X4299Y62442D01*
X4338Y62438D01*
X4383Y62430D01*
X4435Y62419D01*
X4490Y62405D01*
X4547Y62387D01*
X4609Y62364D01*
X4670Y62335D01*
X4732Y62303D01*
X4795Y62262D01*
X4855Y62217D01*
X4912Y62163D01*
X4968Y62102D01*
X4972Y62098D01*
X4980Y62085D01*
X4994Y62067D01*
X5011Y62038D01*
X5033Y62005D01*
X5056Y61964D01*
X5082Y61915D01*
X5109Y61862D01*
X5134Y61800D01*
X5160Y61733D01*
X5183Y61661D01*
X5205Y61581D01*
X5222Y61497D01*
X5236Y61409D01*
X5244Y61315D01*
X5248Y61216D01*
Y61185D01*
X5246Y61173D01*
Y61140D01*
X5242Y61101D01*
X5238Y61056D01*
X5232Y61005D01*
X5224Y60948D01*
X5214Y60888D01*
X5201Y60825D01*
X5185Y60759D01*
X5166Y60689D01*
X5144Y60622D01*
X5117Y60552D01*
X5086Y60484D01*
X5052Y60417D01*
Y60415D01*
X5050Y60413D01*
X5043Y60400D01*
X5031Y60384D01*
X5015Y60359D01*
X4996Y60333D01*
X4972Y60300D01*
X4943Y60265D01*
X4910Y60228D01*
X4873Y60191D01*
X4832Y60152D01*
X4787Y60115D01*
X4736Y60078D01*
X4683Y60046D01*
X4627Y60015D01*
X4566Y59988D01*
X4500Y59968D01*
X4353Y60562D01*
X4355D01*
X4357Y60564D01*
X4369Y60568D01*
X4389Y60579D01*
X4414Y60591D01*
X4445Y60609D01*
X4478Y60632D01*
X4513Y60661D01*
X4549Y60693D01*
X4586Y60732D01*
X4621Y60780D01*
X4656Y60831D01*
X4685Y60890D01*
X4709Y60958D01*
X4730Y61032D01*
X4736Y61071D01*
X4742Y61114D01*
X4744Y61157D01*
X4746Y61204D01*
Y61233D01*
X4744Y61251D01*
X4742Y61276D01*
X4740Y61304D01*
X4736Y61335D01*
X4732Y61370D01*
X4715Y61442D01*
X4707Y61479D01*
X4695Y61515D01*
X4681Y61552D01*
X4664Y61587D01*
X4646Y61620D01*
X4623Y61651D01*
X4621Y61653D01*
X4617Y61657D01*
X4611Y61665D01*
X4601Y61675D01*
X4590Y61686D01*
X4576Y61700D01*
X4558Y61712D01*
X4539Y61727D01*
X4519Y61741D01*
X4494Y61755D01*
X4469Y61770D01*
X4441Y61780D01*
X4412Y61790D01*
X4381Y61798D01*
X4349Y61803D01*
X4314Y61804D01*
X4310D01*
X4301D01*
X4285Y61800D01*
X4264Y61796D01*
X4242Y61790D01*
X4213Y61780D01*
X4182Y61764D01*
X4150Y61743D01*
X4117Y61718D01*
X4082Y61686D01*
X4047Y61647D01*
X4029Y61624D01*
X4012Y61599D01*
X3996Y61573D01*
X3980Y61544D01*
X3965Y61513D01*
X3949Y61481D01*
X3934Y61444D01*
X3922Y61407D01*
X3910Y61364D01*
X3898Y61321D01*
X3750Y60730D01*
Y60728D01*
X3748Y60724D01*
X3746Y60716D01*
X3744Y60708D01*
X3740Y60695D01*
X3735Y60679D01*
X3731Y60663D01*
X3725Y60644D01*
X3711Y60601D01*
X3692Y60552D01*
X3672Y60497D01*
X3649Y60439D01*
X3623Y60380D01*
X3592Y60320D01*
X3559Y60261D01*
X3524Y60201D01*
X3485Y60146D01*
X3442Y60097D01*
X3397Y60052D01*
X3375Y60031D01*
X3350Y60013D01*
X3348Y60011D01*
X3338Y60005D01*
X3323Y59996D01*
X3305Y59984D01*
X3280Y59970D01*
X3250Y59953D01*
X3217Y59937D01*
X3180Y59921D01*
X3139Y59904D01*
X3094Y59886D01*
X3045Y59871D01*
X2995Y59857D01*
X2942Y59845D01*
X2887Y59837D01*
X2829Y59830D01*
X2770Y59828D01*
X2768D01*
X2764D01*
X2758D01*
X2747D01*
X2735Y59830D01*
X2721D01*
X2704Y59832D01*
X2686Y59834D01*
X2643Y59841D01*
X2594Y59849D01*
X2538Y59861D01*
X2479Y59876D01*
X2415Y59896D01*
X2350Y59923D01*
X2282Y59953D01*
X2217Y59990D01*
X2149Y60035D01*
X2085Y60087D01*
X2055Y60115D01*
X2024Y60146D01*
X1995Y60179D01*
X1966Y60214D01*
Y60216D01*
X1962Y60218D01*
X1958Y60224D01*
X1954Y60232D01*
X1948Y60240D01*
X1940Y60253D01*
X1929Y60267D01*
X1921Y60283D01*
X1899Y60322D01*
X1874Y60368D01*
X1847Y60421D01*
X1821Y60482D01*
X1792Y60552D01*
X1766Y60626D01*
X1741Y60710D01*
X1718Y60798D01*
X1700Y60892D01*
X1685Y60993D01*
X1677Y61099D01*
X1673Y61212D01*
Y61247D01*
X1675Y61261D01*
Y61280D01*
X1677Y61298D01*
Y61321D01*
X1679Y61343D01*
X1685Y61397D01*
X1692Y61454D01*
X1700Y61520D01*
X1712Y61587D01*
X1726Y61659D01*
X1743Y61735D01*
X1763Y61811D01*
X1788Y61889D01*
X1817Y61967D01*
X1852Y62042D01*
X1888Y62116D01*
Y62118D01*
X1891Y62120D01*
X1899Y62133D01*
X1911Y62153D01*
X1929Y62178D01*
X1952Y62210D01*
X1981Y62245D01*
X2014Y62284D01*
X2055Y62325D01*
X2098Y62368D01*
X2147Y62411D01*
X2202Y62454D01*
X2264Y62497D01*
X2329Y62536D01*
X2403Y62571D01*
X2479Y62604D01*
X2563Y62631D01*
X2692Y62022D01*
D02*
G37*
G36*
X5195Y57061D02*
X4681D01*
Y58666D01*
X3740D01*
Y57375D01*
X3235D01*
Y58666D01*
X2264D01*
Y57036D01*
X1726D01*
Y59291D01*
X5195D01*
Y57061D01*
D02*
G37*
G36*
Y54363D02*
X4660D01*
Y55286D01*
X1726D01*
Y55956D01*
X4660D01*
Y56878D01*
X5195D01*
Y54363D01*
D02*
G37*
G36*
X-21392Y80904D02*
X-21371D01*
X-21344Y80901D01*
X-21318Y80899D01*
X-21287Y80897D01*
X-21252Y80893D01*
X-21217Y80889D01*
X-21178Y80885D01*
X-21137Y80879D01*
X-21094Y80873D01*
X-21002Y80856D01*
X-20906Y80836D01*
X-20803Y80811D01*
X-20699Y80778D01*
X-20590Y80742D01*
X-20483Y80696D01*
X-20377Y80645D01*
X-20326Y80616D01*
X-20274Y80584D01*
X-20223Y80551D01*
X-20174Y80516D01*
X-20172Y80514D01*
X-20168Y80512D01*
X-20162Y80506D01*
X-20151Y80498D01*
X-20139Y80487D01*
X-20127Y80475D01*
X-20110Y80461D01*
X-20092Y80444D01*
X-20073Y80426D01*
X-20053Y80403D01*
X-20032Y80381D01*
X-20010Y80354D01*
X-19985Y80327D01*
X-19963Y80299D01*
X-19938Y80266D01*
X-19914Y80233D01*
X-19889Y80196D01*
X-19864Y80159D01*
X-19817Y80077D01*
X-19774Y79987D01*
X-19735Y79889D01*
X-19700Y79784D01*
X-19688Y79727D01*
X-19676Y79669D01*
X-19666Y79610D01*
X-19659Y79548D01*
X-19655Y79487D01*
X-19653Y79421D01*
Y79399D01*
X-19655Y79387D01*
Y79370D01*
X-19657Y79354D01*
Y79335D01*
X-19661Y79290D01*
X-19670Y79239D01*
X-19678Y79179D01*
X-19690Y79118D01*
X-19706Y79050D01*
X-19727Y78981D01*
X-19752Y78909D01*
X-19780Y78837D01*
X-19815Y78765D01*
X-19856Y78694D01*
X-19903Y78626D01*
X-19956Y78560D01*
X-19961Y78556D01*
X-19971Y78546D01*
X-19987Y78527D01*
X-20012Y78507D01*
X-20041Y78478D01*
X-20076Y78448D01*
X-20119Y78415D01*
X-20166Y78380D01*
X-20217Y78343D01*
X-20274Y78308D01*
X-20336Y78271D01*
X-20403Y78238D01*
X-20475Y78206D01*
X-20551Y78177D01*
X-20629Y78152D01*
X-20713Y78134D01*
X-20809Y78677D01*
X-20807D01*
X-20801Y78679D01*
X-20793Y78681D01*
X-20783Y78685D01*
X-20768Y78689D01*
X-20750Y78696D01*
X-20731Y78702D01*
X-20711Y78710D01*
X-20662Y78730D01*
X-20608Y78755D01*
X-20551Y78788D01*
X-20492Y78825D01*
X-20432Y78870D01*
X-20375Y78921D01*
X-20321Y78981D01*
X-20297Y79013D01*
X-20272Y79048D01*
X-20252Y79085D01*
X-20233Y79124D01*
X-20215Y79167D01*
X-20200Y79210D01*
X-20190Y79255D01*
X-20180Y79302D01*
X-20176Y79354D01*
X-20174Y79407D01*
Y79423D01*
X-20176Y79442D01*
X-20178Y79469D01*
X-20182Y79499D01*
X-20190Y79536D01*
X-20198Y79577D01*
X-20211Y79620D01*
X-20227Y79667D01*
X-20248Y79716D01*
X-20270Y79766D01*
X-20301Y79817D01*
X-20334Y79868D01*
X-20375Y79917D01*
X-20420Y79965D01*
X-20473Y80010D01*
X-20477Y80012D01*
X-20488Y80020D01*
X-20504Y80030D01*
X-20530Y80047D01*
X-20561Y80063D01*
X-20600Y80084D01*
X-20647Y80104D01*
X-20701Y80124D01*
X-20762Y80147D01*
X-20830Y80168D01*
X-20906Y80188D01*
X-20988Y80204D01*
X-21080Y80221D01*
X-21176Y80231D01*
X-21283Y80239D01*
X-21396Y80241D01*
X-21400D01*
X-21410D01*
X-21429D01*
X-21453Y80239D01*
X-21482Y80237D01*
X-21517Y80235D01*
X-21558Y80233D01*
X-21601Y80229D01*
X-21650Y80223D01*
X-21701Y80217D01*
X-21754Y80208D01*
X-21812Y80198D01*
X-21871Y80186D01*
X-21931Y80172D01*
X-21992Y80157D01*
X-22054Y80139D01*
X-22115Y80118D01*
X-22177Y80094D01*
X-22236Y80069D01*
X-22296Y80040D01*
X-22353Y80008D01*
X-22406Y79973D01*
X-22458Y79936D01*
X-22507Y79893D01*
X-22550Y79848D01*
X-22591Y79799D01*
X-22626Y79745D01*
X-22654Y79690D01*
X-22679Y79628D01*
X-22697Y79563D01*
X-22708Y79491D01*
X-22712Y79417D01*
Y79403D01*
X-22710Y79387D01*
X-22708Y79364D01*
X-22706Y79337D01*
X-22699Y79304D01*
X-22693Y79270D01*
X-22683Y79231D01*
X-22673Y79190D01*
X-22658Y79147D01*
X-22640Y79104D01*
X-22617Y79058D01*
X-22593Y79015D01*
X-22564Y78970D01*
X-22529Y78929D01*
X-22490Y78888D01*
X-22488Y78886D01*
X-22480Y78880D01*
X-22468Y78868D01*
X-22449Y78856D01*
X-22427Y78839D01*
X-22400Y78821D01*
X-22369Y78802D01*
X-22334Y78782D01*
X-22294Y78763D01*
X-22251Y78745D01*
X-22201Y78726D01*
X-22150Y78710D01*
X-22093Y78696D01*
X-22033Y78685D01*
X-21972Y78679D01*
X-21904Y78677D01*
Y79395D01*
X-21402D01*
Y78091D01*
X-23175D01*
Y78368D01*
X-22708Y78558D01*
X-22710D01*
X-22714Y78562D01*
X-22720Y78566D01*
X-22730Y78573D01*
X-22742Y78581D01*
X-22755Y78591D01*
X-22790Y78616D01*
X-22829Y78649D01*
X-22872Y78687D01*
X-22919Y78735D01*
X-22968Y78788D01*
X-23017Y78849D01*
X-23064Y78919D01*
X-23107Y78997D01*
X-23146Y79081D01*
X-23181Y79173D01*
X-23193Y79223D01*
X-23206Y79272D01*
X-23216Y79325D01*
X-23222Y79380D01*
X-23226Y79436D01*
X-23228Y79495D01*
Y79514D01*
X-23226Y79526D01*
Y79542D01*
X-23224Y79563D01*
X-23222Y79585D01*
X-23220Y79612D01*
X-23216Y79639D01*
X-23212Y79669D01*
X-23206Y79702D01*
X-23200Y79737D01*
X-23183Y79813D01*
X-23161Y79893D01*
X-23132Y79979D01*
X-23097Y80065D01*
X-23077Y80110D01*
X-23054Y80153D01*
X-23030Y80198D01*
X-23001Y80241D01*
X-22972Y80284D01*
X-22939Y80327D01*
X-22907Y80368D01*
X-22867Y80409D01*
X-22829Y80448D01*
X-22786Y80485D01*
X-22740Y80520D01*
X-22691Y80555D01*
X-22689D01*
X-22685Y80559D01*
X-22677Y80563D01*
X-22667Y80569D01*
X-22652Y80577D01*
X-22636Y80588D01*
X-22617Y80598D01*
X-22595Y80610D01*
X-22572Y80623D01*
X-22544Y80637D01*
X-22515Y80651D01*
X-22484Y80666D01*
X-22449Y80682D01*
X-22412Y80699D01*
X-22374Y80713D01*
X-22332Y80729D01*
X-22289Y80746D01*
X-22244Y80762D01*
X-22150Y80795D01*
X-22048Y80823D01*
X-21937Y80850D01*
X-21822Y80873D01*
X-21699Y80891D01*
X-21574Y80901D01*
X-21508Y80904D01*
X-21443Y80905D01*
X-21441D01*
X-21435D01*
X-21424D01*
X-21410D01*
X-21392Y80904D01*
D02*
G37*
G36*
X-1190Y74939D02*
X-107D01*
Y74455D01*
X-1190D01*
Y73412D01*
X-1676D01*
Y74455D01*
X-2756D01*
Y74939D01*
X-1676D01*
Y75984D01*
X-1190D01*
Y74939D01*
D02*
G37*
G36*
X-12133Y80903D02*
X-12111D01*
X-12084Y80901D01*
X-12055Y80899D01*
X-12023Y80897D01*
X-11988Y80893D01*
X-11949Y80891D01*
X-11910Y80885D01*
X-11867Y80881D01*
X-11822Y80875D01*
X-11727Y80858D01*
X-11627Y80838D01*
X-11523Y80813D01*
X-11416Y80785D01*
X-11307Y80748D01*
X-11201Y80705D01*
X-11094Y80653D01*
X-11043Y80627D01*
X-10994Y80596D01*
X-10944Y80565D01*
X-10897Y80530D01*
X-10895Y80528D01*
X-10891Y80526D01*
X-10885Y80520D01*
X-10877Y80512D01*
X-10864Y80504D01*
X-10852Y80491D01*
X-10836Y80477D01*
X-10819Y80461D01*
X-10801Y80442D01*
X-10783Y80422D01*
X-10739Y80377D01*
X-10696Y80321D01*
X-10649Y80260D01*
X-10602Y80188D01*
X-10559Y80112D01*
X-10516Y80026D01*
X-10479Y79934D01*
X-10446Y79833D01*
X-10434Y79782D01*
X-10422Y79727D01*
X-10413Y79671D01*
X-10407Y79614D01*
X-10403Y79554D01*
X-10401Y79493D01*
Y79470D01*
X-10403Y79458D01*
Y79444D01*
X-10405Y79425D01*
Y79407D01*
X-10411Y79364D01*
X-10418Y79313D01*
X-10428Y79255D01*
X-10440Y79194D01*
X-10459Y79126D01*
X-10479Y79058D01*
X-10504Y78987D01*
X-10534Y78915D01*
X-10571Y78843D01*
X-10614Y78772D01*
X-10664Y78702D01*
X-10719Y78636D01*
X-10723Y78632D01*
X-10733Y78622D01*
X-10752Y78603D01*
X-10778Y78581D01*
X-10811Y78554D01*
X-10850Y78521D01*
X-10897Y78488D01*
X-10953Y78452D01*
X-11012Y78415D01*
X-11080Y78378D01*
X-11156Y78343D01*
X-11238Y78308D01*
X-11326Y78275D01*
X-11420Y78247D01*
X-11520Y78222D01*
X-11629Y78202D01*
X-11689Y78782D01*
X-11687D01*
X-11680Y78784D01*
X-11670Y78786D01*
X-11656Y78790D01*
X-11637Y78794D01*
X-11617Y78800D01*
X-11592Y78806D01*
X-11566Y78815D01*
X-11537Y78825D01*
X-11506Y78835D01*
X-11440Y78862D01*
X-11369Y78892D01*
X-11295Y78929D01*
X-11223Y78974D01*
X-11152Y79024D01*
X-11086Y79083D01*
X-11055Y79114D01*
X-11026Y79147D01*
X-11000Y79184D01*
X-10975Y79220D01*
X-10955Y79259D01*
X-10936Y79300D01*
X-10922Y79346D01*
X-10912Y79391D01*
X-10905Y79438D01*
X-10903Y79489D01*
Y79505D01*
X-10905Y79522D01*
X-10908Y79546D01*
X-10914Y79577D01*
X-10920Y79610D01*
X-10930Y79647D01*
X-10944Y79688D01*
X-10961Y79731D01*
X-10983Y79776D01*
X-11010Y79821D01*
X-11041Y79866D01*
X-11080Y79911D01*
X-11123Y79954D01*
X-11174Y79995D01*
X-11231Y80034D01*
X-11236Y80036D01*
X-11246Y80042D01*
X-11266Y80053D01*
X-11293Y80065D01*
X-11326Y80079D01*
X-11367Y80096D01*
X-11416Y80114D01*
X-11471Y80131D01*
X-11535Y80149D01*
X-11604Y80168D01*
X-11682Y80184D01*
X-11768Y80198D01*
X-11859Y80211D01*
X-11957Y80221D01*
X-12064Y80227D01*
X-12177Y80229D01*
X-12178D01*
X-12183D01*
X-12193D01*
X-12205D01*
X-12219D01*
X-12236Y80227D01*
X-12256D01*
X-12281Y80225D01*
X-12306D01*
X-12332Y80223D01*
X-12394Y80219D01*
X-12459Y80211D01*
X-12533Y80202D01*
X-12609Y80192D01*
X-12687Y80178D01*
X-12767Y80161D01*
X-12845Y80141D01*
X-12923Y80116D01*
X-12997Y80090D01*
X-13066Y80057D01*
X-13130Y80020D01*
X-13134Y80018D01*
X-13144Y80010D01*
X-13158Y79997D01*
X-13179Y79981D01*
X-13204Y79961D01*
X-13232Y79936D01*
X-13261Y79905D01*
X-13290Y79872D01*
X-13320Y79835D01*
X-13349Y79792D01*
X-13378Y79747D01*
X-13400Y79698D01*
X-13421Y79647D01*
X-13437Y79589D01*
X-13447Y79532D01*
X-13452Y79468D01*
Y79456D01*
X-13450Y79442D01*
X-13447Y79423D01*
X-13445Y79399D01*
X-13439Y79372D01*
X-13433Y79341D01*
X-13425Y79307D01*
X-13413Y79272D01*
X-13398Y79233D01*
X-13382Y79196D01*
X-13361Y79155D01*
X-13337Y79116D01*
X-13308Y79077D01*
X-13273Y79038D01*
X-13236Y79001D01*
X-13234Y78999D01*
X-13226Y78993D01*
X-13214Y78983D01*
X-13197Y78970D01*
X-13177Y78956D01*
X-13152Y78939D01*
X-13124Y78921D01*
X-13091Y78901D01*
X-13054Y78882D01*
X-13015Y78864D01*
X-12972Y78845D01*
X-12927Y78827D01*
X-12878Y78812D01*
X-12828Y78798D01*
X-12775Y78788D01*
X-12720Y78782D01*
X-12783Y78202D01*
X-12785D01*
X-12789D01*
X-12796Y78204D01*
X-12806Y78206D01*
X-12818D01*
X-12833Y78210D01*
X-12851Y78212D01*
X-12869Y78216D01*
X-12914Y78226D01*
X-12966Y78238D01*
X-13023Y78255D01*
X-13085Y78273D01*
X-13152Y78298D01*
X-13222Y78325D01*
X-13292Y78357D01*
X-13363Y78396D01*
X-13435Y78439D01*
X-13507Y78488D01*
X-13575Y78544D01*
X-13640Y78605D01*
X-13644Y78610D01*
X-13655Y78622D01*
X-13671Y78640D01*
X-13693Y78669D01*
X-13718Y78704D01*
X-13747Y78745D01*
X-13778Y78794D01*
X-13808Y78849D01*
X-13839Y78911D01*
X-13870Y78981D01*
X-13898Y79054D01*
X-13923Y79136D01*
X-13946Y79223D01*
X-13962Y79317D01*
X-13972Y79413D01*
X-13976Y79518D01*
Y79550D01*
X-13974Y79563D01*
Y79579D01*
X-13972Y79596D01*
X-13968Y79637D01*
X-13964Y79684D01*
X-13956Y79735D01*
X-13946Y79792D01*
X-13933Y79852D01*
X-13919Y79915D01*
X-13898Y79979D01*
X-13876Y80042D01*
X-13849Y80108D01*
X-13816Y80170D01*
X-13780Y80231D01*
X-13739Y80288D01*
X-13736Y80293D01*
X-13728Y80301D01*
X-13714Y80317D01*
X-13695Y80338D01*
X-13671Y80362D01*
X-13640Y80391D01*
X-13607Y80422D01*
X-13568Y80457D01*
X-13523Y80491D01*
X-13474Y80530D01*
X-13421Y80567D01*
X-13363Y80606D01*
X-13302Y80643D01*
X-13236Y80680D01*
X-13165Y80713D01*
X-13091Y80746D01*
X-13089D01*
X-13087Y80748D01*
X-13081Y80750D01*
X-13072Y80752D01*
X-13062Y80756D01*
X-13050Y80760D01*
X-13019Y80770D01*
X-12980Y80783D01*
X-12935Y80797D01*
X-12882Y80811D01*
X-12824Y80826D01*
X-12759Y80840D01*
X-12689Y80854D01*
X-12615Y80869D01*
X-12537Y80881D01*
X-12453Y80891D01*
X-12367Y80899D01*
X-12279Y80903D01*
X-12187Y80905D01*
X-12185D01*
X-12178D01*
X-12166D01*
X-12152D01*
X-12133Y80903D01*
D02*
G37*
%LPC*%
G36*
X-30291Y80262D02*
X-32757D01*
Y79723D01*
X-32755Y79712D01*
Y79700D01*
X-32753Y79671D01*
X-32747Y79634D01*
X-32741Y79593D01*
X-32731Y79546D01*
X-32718Y79495D01*
X-32702Y79440D01*
X-32681Y79382D01*
X-32655Y79323D01*
X-32624Y79264D01*
X-32589Y79204D01*
X-32546Y79145D01*
X-32499Y79085D01*
X-32444Y79030D01*
X-32440Y79026D01*
X-32429Y79018D01*
X-32411Y79003D01*
X-32384Y78985D01*
X-32351Y78962D01*
X-32310Y78938D01*
X-32263Y78911D01*
X-32208Y78882D01*
X-32146Y78856D01*
X-32075Y78829D01*
X-31999Y78804D01*
X-31915Y78782D01*
X-31822Y78763D01*
X-31724Y78749D01*
X-31618Y78741D01*
X-31505Y78737D01*
X-31503D01*
X-31499D01*
X-31492D01*
X-31482D01*
X-31470D01*
X-31455Y78739D01*
X-31439D01*
X-31421Y78741D01*
X-31376Y78745D01*
X-31324Y78751D01*
X-31269Y78757D01*
X-31205Y78769D01*
X-31140Y78782D01*
X-31070Y78798D01*
X-31000Y78821D01*
X-30927Y78845D01*
X-30855Y78874D01*
X-30781Y78909D01*
X-30711Y78948D01*
X-30644Y78993D01*
X-30642D01*
X-30640Y78995D01*
X-30629Y79005D01*
X-30611Y79019D01*
X-30588Y79040D01*
X-30562Y79065D01*
X-30533Y79095D01*
X-30500Y79132D01*
X-30467Y79173D01*
X-30435Y79218D01*
X-30402Y79270D01*
X-30373Y79325D01*
X-30347Y79384D01*
X-30324Y79450D01*
X-30305Y79518D01*
X-30295Y79592D01*
X-30291Y79628D01*
Y80262D01*
D02*
G37*
G36*
X6505Y83130D02*
X6503D01*
X6499D01*
X6492D01*
X6482D01*
X6470D01*
X6455Y83128D01*
X6439D01*
X6421Y83126D01*
X6376Y83122D01*
X6324Y83116D01*
X6269Y83110D01*
X6205Y83098D01*
X6140Y83085D01*
X6070Y83069D01*
X6000Y83046D01*
X5927Y83022D01*
X5855Y82993D01*
X5781Y82958D01*
X5711Y82919D01*
X5644Y82874D01*
X5642D01*
X5640Y82872D01*
X5629Y82862D01*
X5611Y82847D01*
X5588Y82827D01*
X5562Y82802D01*
X5533Y82772D01*
X5500Y82735D01*
X5467Y82694D01*
X5435Y82649D01*
X5402Y82597D01*
X5373Y82542D01*
X5347Y82483D01*
X5324Y82417D01*
X5305Y82349D01*
X5295Y82276D01*
X5291Y82239D01*
Y81605D01*
X7757D01*
Y82144D01*
X7755Y82155D01*
Y82167D01*
X7753Y82196D01*
X7747Y82232D01*
X7741Y82274D01*
X7731Y82321D01*
X7718Y82372D01*
X7702Y82427D01*
X7681Y82485D01*
X7655Y82544D01*
X7624Y82604D01*
X7589Y82663D01*
X7546Y82723D01*
X7499Y82782D01*
X7444Y82837D01*
X7440Y82841D01*
X7429Y82850D01*
X7411Y82864D01*
X7384Y82882D01*
X7351Y82905D01*
X7310Y82929D01*
X7263Y82956D01*
X7208Y82985D01*
X7146Y83012D01*
X7075Y83038D01*
X6999Y83063D01*
X6915Y83085D01*
X6822Y83104D01*
X6724Y83118D01*
X6617Y83126D01*
X6505Y83130D01*
D02*
G37*
G36*
X-48178Y85941D02*
X-49217D01*
Y85172D01*
X-49215Y85154D01*
X-49213Y85129D01*
X-49209Y85100D01*
X-49205Y85070D01*
X-49199Y85037D01*
X-49193Y85002D01*
X-49182Y84967D01*
X-49172Y84930D01*
X-49158Y84893D01*
X-49141Y84856D01*
X-49123Y84822D01*
X-49100Y84791D01*
X-49076Y84760D01*
X-49074Y84758D01*
X-49070Y84754D01*
X-49061Y84746D01*
X-49049Y84736D01*
X-49035Y84725D01*
X-49018Y84711D01*
X-48998Y84697D01*
X-48975Y84682D01*
X-48949Y84668D01*
X-48920Y84656D01*
X-48889Y84641D01*
X-48854Y84631D01*
X-48820Y84621D01*
X-48781Y84613D01*
X-48740Y84608D01*
X-48697Y84606D01*
X-48695D01*
X-48686D01*
X-48676D01*
X-48660Y84608D01*
X-48641Y84610D01*
X-48621Y84615D01*
X-48596Y84619D01*
X-48569Y84625D01*
X-48543Y84631D01*
X-48512Y84641D01*
X-48481Y84651D01*
X-48450Y84666D01*
X-48420Y84682D01*
X-48389Y84701D01*
X-48358Y84723D01*
X-48330Y84748D01*
X-48327Y84750D01*
X-48323Y84754D01*
X-48315Y84764D01*
X-48305Y84777D01*
X-48295Y84791D01*
X-48282Y84811D01*
X-48268Y84836D01*
X-48254Y84865D01*
X-48239Y84898D01*
X-48225Y84934D01*
X-48213Y84975D01*
X-48202Y85022D01*
X-48192Y85074D01*
X-48184Y85131D01*
X-48180Y85193D01*
X-48178Y85258D01*
Y85941D01*
D02*
G37*
G36*
X349Y-14346D02*
X-285D01*
Y-16812D01*
X255D01*
X265Y-16810D01*
X277D01*
X306Y-16808D01*
X343Y-16802D01*
X384Y-16796D01*
X431Y-16786D01*
X482Y-16773D01*
X538Y-16757D01*
X595Y-16736D01*
X654Y-16710D01*
X714Y-16679D01*
X773Y-16644D01*
X833Y-16601D01*
X892Y-16554D01*
X948Y-16499D01*
X952Y-16495D01*
X960Y-16484D01*
X974Y-16466D01*
X993Y-16439D01*
X1015Y-16407D01*
X1040Y-16365D01*
X1066Y-16318D01*
X1095Y-16263D01*
X1122Y-16202D01*
X1148Y-16130D01*
X1173Y-16054D01*
X1196Y-15970D01*
X1214Y-15878D01*
X1228Y-15779D01*
X1237Y-15673D01*
X1241Y-15560D01*
Y-15558D01*
Y-15554D01*
Y-15548D01*
Y-15537D01*
Y-15525D01*
X1239Y-15511D01*
Y-15494D01*
X1237Y-15476D01*
X1233Y-15431D01*
X1226Y-15379D01*
X1220Y-15324D01*
X1208Y-15260D01*
X1196Y-15195D01*
X1179Y-15125D01*
X1157Y-15055D01*
X1132Y-14982D01*
X1103Y-14910D01*
X1068Y-14836D01*
X1029Y-14766D01*
X984Y-14699D01*
Y-14697D01*
X982Y-14695D01*
X972Y-14684D01*
X958Y-14666D01*
X937Y-14643D01*
X913Y-14617D01*
X882Y-14588D01*
X845Y-14555D01*
X804Y-14523D01*
X759Y-14490D01*
X708Y-14457D01*
X652Y-14428D01*
X593Y-14402D01*
X527Y-14379D01*
X460Y-14361D01*
X386Y-14350D01*
X349Y-14346D01*
D02*
G37*
G36*
X14414Y-18168D02*
X14346D01*
X14344D01*
X14340D01*
X14332D01*
X14319D01*
X14305D01*
X14288Y-18170D01*
X14268D01*
X14247D01*
X14223Y-18172D01*
X14196Y-18174D01*
X14139Y-18178D01*
X14073Y-18184D01*
X14004Y-18192D01*
X13930Y-18203D01*
X13854Y-18215D01*
X13776Y-18231D01*
X13698Y-18250D01*
X13620Y-18270D01*
X13546Y-18297D01*
X13475Y-18326D01*
X13409Y-18361D01*
X13405Y-18362D01*
X13395Y-18369D01*
X13378Y-18381D01*
X13356Y-18397D01*
X13329Y-18418D01*
X13300Y-18442D01*
X13270Y-18473D01*
X13239Y-18508D01*
X13206Y-18547D01*
X13175Y-18592D01*
X13147Y-18641D01*
X13122Y-18695D01*
X13100Y-18754D01*
X13083Y-18818D01*
X13073Y-18887D01*
X13069Y-18961D01*
Y-18982D01*
X13071Y-18996D01*
X13073Y-19014D01*
X13077Y-19035D01*
X13083Y-19060D01*
X13089Y-19086D01*
X13097Y-19117D01*
X13108Y-19148D01*
X13122Y-19181D01*
X13136Y-19215D01*
X13155Y-19250D01*
X13177Y-19287D01*
X13202Y-19326D01*
X13231Y-19363D01*
X13263Y-19400D01*
X13298Y-19439D01*
X13339Y-19474D01*
X13385Y-19511D01*
X13434Y-19545D01*
X13489Y-19578D01*
X13548Y-19609D01*
X13614Y-19640D01*
X13686Y-19666D01*
X13762Y-19691D01*
X13846Y-19711D01*
X13936Y-19730D01*
X14032Y-19744D01*
X14135Y-19757D01*
X14245Y-19763D01*
X14362Y-19765D01*
X14364D01*
X14368D01*
X14379D01*
X14389D01*
X14405D01*
X14422Y-19763D01*
X14442D01*
X14465Y-19761D01*
X14491D01*
X14518Y-19759D01*
X14578Y-19755D01*
X14645Y-19748D01*
X14717Y-19738D01*
X14793Y-19728D01*
X14871Y-19715D01*
X14951Y-19697D01*
X15031Y-19679D01*
X15107Y-19654D01*
X15182Y-19627D01*
X15252Y-19597D01*
X15316Y-19560D01*
X15320Y-19558D01*
X15330Y-19549D01*
X15346Y-19539D01*
X15367Y-19521D01*
X15391Y-19500D01*
X15418Y-19476D01*
X15447Y-19445D01*
X15477Y-19410D01*
X15508Y-19371D01*
X15537Y-19326D01*
X15564Y-19279D01*
X15588Y-19226D01*
X15609Y-19168D01*
X15625Y-19109D01*
X15635Y-19043D01*
X15640Y-18973D01*
Y-18959D01*
X15637Y-18941D01*
X15635Y-18916D01*
X15631Y-18887D01*
X15625Y-18855D01*
X15617Y-18816D01*
X15605Y-18775D01*
X15590Y-18732D01*
X15572Y-18684D01*
X15549Y-18637D01*
X15523Y-18590D01*
X15490Y-18541D01*
X15453Y-18494D01*
X15410Y-18447D01*
X15361Y-18402D01*
X15357Y-18399D01*
X15346Y-18391D01*
X15330Y-18379D01*
X15305Y-18365D01*
X15272Y-18348D01*
X15234Y-18328D01*
X15211Y-18317D01*
X15184Y-18307D01*
X15158Y-18295D01*
X15129Y-18285D01*
X15096Y-18274D01*
X15063Y-18262D01*
X15026Y-18252D01*
X14990Y-18242D01*
X14949Y-18231D01*
X14906Y-18221D01*
X14861Y-18213D01*
X14813Y-18205D01*
X14764Y-18196D01*
X14713Y-18188D01*
X14658Y-18182D01*
X14600Y-18178D01*
X14541Y-18174D01*
X14479Y-18170D01*
X14414Y-18168D01*
D02*
G37*
G36*
Y-21520D02*
X14346D01*
X14344D01*
X14340D01*
X14332D01*
X14319D01*
X14305D01*
X14288Y-21522D01*
X14268D01*
X14247D01*
X14223Y-21524D01*
X14196Y-21526D01*
X14139Y-21530D01*
X14073Y-21536D01*
X14004Y-21544D01*
X13930Y-21554D01*
X13854Y-21567D01*
X13776Y-21583D01*
X13698Y-21602D01*
X13620Y-21622D01*
X13546Y-21649D01*
X13475Y-21677D01*
X13409Y-21712D01*
X13405Y-21714D01*
X13395Y-21720D01*
X13378Y-21733D01*
X13356Y-21749D01*
X13329Y-21770D01*
X13300Y-21794D01*
X13270Y-21825D01*
X13239Y-21860D01*
X13206Y-21899D01*
X13175Y-21944D01*
X13147Y-21993D01*
X13122Y-22046D01*
X13100Y-22106D01*
X13083Y-22169D01*
X13073Y-22239D01*
X13069Y-22313D01*
Y-22333D01*
X13071Y-22348D01*
X13073Y-22366D01*
X13077Y-22387D01*
X13083Y-22411D01*
X13089Y-22438D01*
X13097Y-22469D01*
X13108Y-22499D01*
X13122Y-22532D01*
X13136Y-22567D01*
X13155Y-22602D01*
X13177Y-22639D01*
X13202Y-22678D01*
X13231Y-22715D01*
X13263Y-22752D01*
X13298Y-22791D01*
X13339Y-22825D01*
X13385Y-22862D01*
X13434Y-22897D01*
X13489Y-22930D01*
X13548Y-22961D01*
X13614Y-22991D01*
X13686Y-23018D01*
X13762Y-23043D01*
X13846Y-23063D01*
X13936Y-23082D01*
X14032Y-23096D01*
X14135Y-23108D01*
X14245Y-23114D01*
X14362Y-23117D01*
X14364D01*
X14368D01*
X14379D01*
X14389D01*
X14405D01*
X14422Y-23114D01*
X14442D01*
X14465Y-23112D01*
X14491D01*
X14518Y-23110D01*
X14578Y-23106D01*
X14645Y-23100D01*
X14717Y-23090D01*
X14793Y-23080D01*
X14871Y-23067D01*
X14951Y-23049D01*
X15031Y-23030D01*
X15107Y-23006D01*
X15182Y-22979D01*
X15252Y-22948D01*
X15316Y-22911D01*
X15320Y-22909D01*
X15330Y-22901D01*
X15346Y-22891D01*
X15367Y-22873D01*
X15391Y-22852D01*
X15418Y-22827D01*
X15447Y-22797D01*
X15477Y-22762D01*
X15508Y-22723D01*
X15537Y-22678D01*
X15564Y-22631D01*
X15588Y-22577D01*
X15609Y-22520D01*
X15625Y-22460D01*
X15635Y-22395D01*
X15640Y-22325D01*
Y-22311D01*
X15637Y-22292D01*
X15635Y-22268D01*
X15631Y-22239D01*
X15625Y-22206D01*
X15617Y-22167D01*
X15605Y-22126D01*
X15590Y-22083D01*
X15572Y-22036D01*
X15549Y-21989D01*
X15523Y-21942D01*
X15490Y-21893D01*
X15453Y-21846D01*
X15410Y-21798D01*
X15361Y-21753D01*
X15357Y-21751D01*
X15346Y-21743D01*
X15330Y-21731D01*
X15305Y-21716D01*
X15272Y-21700D01*
X15234Y-21679D01*
X15211Y-21669D01*
X15184Y-21659D01*
X15158Y-21647D01*
X15129Y-21636D01*
X15096Y-21626D01*
X15063Y-21614D01*
X15026Y-21604D01*
X14990Y-21593D01*
X14949Y-21583D01*
X14906Y-21573D01*
X14861Y-21565D01*
X14813Y-21556D01*
X14764Y-21548D01*
X14713Y-21540D01*
X14658Y-21534D01*
X14600Y-21530D01*
X14541Y-21526D01*
X14479Y-21522D01*
X14414Y-21520D01*
D02*
G37*
G36*
X15070Y-24818D02*
X15067D01*
X15059D01*
X15049D01*
X15033Y-24820D01*
X15014Y-24822D01*
X14994Y-24826D01*
X14969Y-24830D01*
X14942Y-24836D01*
X14914Y-24845D01*
X14885Y-24855D01*
X14856Y-24867D01*
X14826Y-24882D01*
X14795Y-24900D01*
X14766Y-24920D01*
X14738Y-24943D01*
X14711Y-24970D01*
X14709Y-24972D01*
X14705Y-24976D01*
X14698Y-24986D01*
X14688Y-24996D01*
X14678Y-25013D01*
X14666Y-25029D01*
X14653Y-25052D01*
X14641Y-25076D01*
X14629Y-25103D01*
X14615Y-25134D01*
X14604Y-25166D01*
X14594Y-25201D01*
X14584Y-25240D01*
X14578Y-25281D01*
X14573Y-25324D01*
X14571Y-25370D01*
Y-26179D01*
X15568D01*
Y-25347D01*
X15566Y-25328D01*
X15564Y-25308D01*
X15562Y-25283D01*
X15558Y-25255D01*
X15551Y-25224D01*
X15535Y-25160D01*
X15525Y-25128D01*
X15512Y-25093D01*
X15496Y-25060D01*
X15477Y-25027D01*
X15457Y-24996D01*
X15435Y-24968D01*
X15432Y-24966D01*
X15428Y-24961D01*
X15420Y-24953D01*
X15410Y-24945D01*
X15395Y-24933D01*
X15379Y-24920D01*
X15361Y-24906D01*
X15338Y-24892D01*
X15314Y-24880D01*
X15287Y-24865D01*
X15256Y-24853D01*
X15223Y-24840D01*
X15189Y-24832D01*
X15152Y-24824D01*
X15111Y-24820D01*
X15070Y-24818D01*
D02*
G37*
G36*
X13579Y-24912D02*
X13577D01*
X13569D01*
X13557D01*
X13540Y-24914D01*
X13520Y-24916D01*
X13497Y-24920D01*
X13473Y-24925D01*
X13446Y-24931D01*
X13417Y-24939D01*
X13389Y-24951D01*
X13360Y-24964D01*
X13331Y-24978D01*
X13303Y-24996D01*
X13276Y-25017D01*
X13251Y-25041D01*
X13229Y-25068D01*
X13227Y-25070D01*
X13225Y-25074D01*
X13218Y-25084D01*
X13210Y-25095D01*
X13202Y-25109D01*
X13192Y-25128D01*
X13182Y-25148D01*
X13171Y-25171D01*
X13161Y-25197D01*
X13151Y-25224D01*
X13140Y-25255D01*
X13132Y-25285D01*
X13118Y-25355D01*
X13116Y-25392D01*
X13114Y-25431D01*
Y-26179D01*
X14075D01*
Y-25394D01*
X14073Y-25378D01*
X14071Y-25359D01*
X14067Y-25335D01*
X14063Y-25310D01*
X14057Y-25283D01*
X14040Y-25224D01*
X14030Y-25193D01*
X14016Y-25162D01*
X13999Y-25132D01*
X13981Y-25103D01*
X13961Y-25074D01*
X13936Y-25048D01*
X13934Y-25046D01*
X13930Y-25041D01*
X13922Y-25035D01*
X13911Y-25027D01*
X13897Y-25017D01*
X13881Y-25005D01*
X13860Y-24992D01*
X13840Y-24980D01*
X13815Y-24968D01*
X13788Y-24955D01*
X13758Y-24943D01*
X13727Y-24933D01*
X13692Y-24925D01*
X13657Y-24918D01*
X13618Y-24914D01*
X13579Y-24912D01*
D02*
G37*
G36*
X4697Y67780D02*
X3653D01*
Y66970D01*
X3656Y66948D01*
X3658Y66919D01*
X3662Y66888D01*
X3666Y66852D01*
X3672Y66813D01*
X3678Y66774D01*
X3688Y66733D01*
X3699Y66690D01*
X3713Y66649D01*
X3729Y66608D01*
X3748Y66569D01*
X3770Y66534D01*
X3795Y66501D01*
X3797Y66499D01*
X3801Y66493D01*
X3809Y66485D01*
X3822Y66474D01*
X3836Y66462D01*
X3854Y66448D01*
X3875Y66433D01*
X3898Y66417D01*
X3924Y66403D01*
X3953Y66388D01*
X3986Y66374D01*
X4021Y66362D01*
X4057Y66349D01*
X4098Y66341D01*
X4141Y66337D01*
X4186Y66335D01*
X4189D01*
X4197D01*
X4209D01*
X4225Y66337D01*
X4244Y66339D01*
X4267Y66343D01*
X4291Y66349D01*
X4320Y66356D01*
X4349Y66364D01*
X4377Y66374D01*
X4408Y66388D01*
X4439Y66403D01*
X4469Y66421D01*
X4500Y66444D01*
X4529Y66468D01*
X4555Y66497D01*
X4558Y66499D01*
X4562Y66505D01*
X4568Y66513D01*
X4578Y66528D01*
X4588Y66544D01*
X4601Y66565D01*
X4613Y66587D01*
X4627Y66614D01*
X4640Y66645D01*
X4652Y66679D01*
X4664Y66716D01*
X4674Y66757D01*
X4685Y66800D01*
X4691Y66847D01*
X4695Y66899D01*
X4697Y66952D01*
Y67780D01*
D02*
G37*
%LPD*%
D10*
X-18799Y38681D02*
G03*
X-18799Y38681I-197J0D01*
G01*
X46555Y4823D02*
G03*
X46555Y4823I-197J0D01*
G01*
X25276Y-276D02*
G03*
X25276Y-276I-197J0D01*
G01*
X-17913Y39469D02*
X-17913Y44685D01*
D11*
X-7874Y29823D02*
G03*
X-7874Y29823I-394J0D01*
G01*
X46358Y32677D02*
G03*
X46358Y32677I-394J0D01*
G01*
X-13622Y46850D02*
X-13622Y77559D01*
X-54567Y77559D02*
X-13622Y77559D01*
X-54567Y46850D02*
X-54567Y77559D01*
X-54567Y46850D02*
X-13622Y46850D01*
X-53543Y80413D02*
X-53543Y78937D01*
X-53543Y80413D02*
X-52559D01*
X-71260Y78937D02*
X-71260Y80413D01*
X-72244D02*
X-71260D01*
X-71260Y76870D02*
Y78937D01*
X-72244Y80413D02*
Y87303D01*
X-53543Y76870D02*
Y78937D01*
X-52559Y87303D02*
X-52559Y80413D01*
X-71260Y76870D02*
X-53543D01*
X-69390Y91831D02*
X-55413D01*
X-31594Y-33169D02*
X-17618D01*
X-33465Y-18209D02*
X-15748D01*
X-34449Y-28642D02*
Y-21752D01*
X-33465Y-20276D02*
Y-18209D01*
X-14764Y-28642D02*
Y-21752D01*
X-15748Y-20276D02*
Y-18209D01*
Y-21752D02*
X-14764D01*
X-15748D02*
Y-20276D01*
X-34449Y-21752D02*
X-33465D01*
Y-20276D01*
X394Y55315D02*
Y67913D01*
X-9843Y55315D02*
Y67913D01*
X28150Y78051D02*
X28150Y76575D01*
X28150Y78051D02*
X29134D01*
X10433Y76575D02*
Y78051D01*
X9449D02*
X10433D01*
Y74508D02*
Y76575D01*
X9449Y78051D02*
X9449Y84941D01*
X28150Y74508D02*
Y76575D01*
X29134Y78051D02*
X29134Y84941D01*
X10433Y74508D02*
X28150D01*
X12303Y89468D02*
X26280D01*
X21260Y-16142D02*
X33858D01*
X21260Y-26378D02*
X33858D01*
X46358Y6398D02*
Y8386D01*
Y16614D02*
Y18602D01*
X55807Y6398D02*
Y8386D01*
Y16614D02*
Y18602D01*
X-6791Y-33169D02*
X7185D01*
X-8661Y-18209D02*
X9055D01*
X-9646Y-28642D02*
Y-21752D01*
X-8661Y-20276D02*
Y-18209D01*
X10039Y-28642D02*
Y-21752D01*
X9055Y-20276D02*
Y-18209D01*
Y-21752D02*
X10039D01*
X9055D02*
Y-20276D01*
X-9646Y-21752D02*
X-8661D01*
Y-20276D01*
X50118Y31378D02*
X60118D01*
X50118Y91378D02*
X60118D01*
X60118Y31378D02*
X60118Y91378D01*
X50118D02*
X50118Y31378D01*
X-37559Y35709D02*
X-36181D01*
X-37559Y512D02*
Y35709D01*
Y512D02*
X-36181D01*
X-26102Y35709D02*
X-23425D01*
X-26102Y512D02*
X-23425D01*
X3583Y81614D02*
Y91614D01*
X-36417Y81614D02*
X3583D01*
X-36417Y91614D02*
X3583D01*
X-36417Y81614D02*
Y91614D01*
X-66929Y74015D02*
X-64830D01*
X-65880Y75065D02*
Y72966D01*
X-60632Y74015D02*
X-58533D01*
D12*
X14567Y56693D02*
X16457D01*
X14567Y29134D02*
X16457Y29134D01*
X40236Y56693D02*
X42126D01*
X40236Y29134D02*
X42126Y29134D01*
X14567Y54803D02*
Y56693D01*
Y31024D02*
X14567Y29134D01*
X42126Y54803D02*
Y56693D01*
X42126Y29134D02*
X42126Y31024D01*
D13*
X49213Y66929D02*
Y86614D01*
X36614Y66929D02*
Y86614D01*
D14*
X-35433Y69291D02*
Y67323D01*
X-35039Y66930D01*
X-34252D01*
X-33858Y67323D01*
Y69291D01*
X-33071Y66930D02*
X-32284D01*
X-32678D01*
Y69291D01*
X-33071Y68897D01*
X-60237Y86220D02*
Y83859D01*
X-61418D01*
X-61811Y84252D01*
Y85039D01*
X-61418Y85433D01*
X-60237D01*
X-64173Y83859D02*
X-62598D01*
Y85039D01*
X-63385Y84646D01*
X-63779D01*
X-64173Y85039D01*
Y85826D01*
X-63779Y86220D01*
X-62992D01*
X-62598Y85826D01*
X-15734Y-7687D02*
X-14065Y-6018D01*
X-13230Y-6853D01*
X-13230Y-7409D01*
X-13786Y-7966D01*
X-14343D01*
X-15178Y-7131D01*
X-14621Y-7687D02*
X-14621Y-8801D01*
X-14065Y-9357D02*
X-13508Y-9914D01*
X-13786Y-9635D01*
X-12116Y-7966D01*
X-12673D01*
Y-10749D02*
X-12116Y-11305D01*
X-12395Y-11027D01*
X-10725Y-9357D01*
X-11282Y-9357D01*
X-23228Y-7875D02*
X-20866D01*
Y-9055D01*
X-21260Y-9449D01*
X-22047D01*
X-22441Y-9055D01*
Y-7875D01*
Y-8662D02*
X-23228Y-9449D01*
X-22834Y-10236D02*
X-23228Y-10630D01*
Y-11417D01*
X-22834Y-11810D01*
X-21260D01*
X-20866Y-11417D01*
Y-10630D01*
X-21260Y-10236D01*
X-21654D01*
X-22047Y-10630D01*
Y-11810D01*
X-26673Y-27657D02*
Y-25296D01*
X-25492D01*
X-25098Y-25689D01*
Y-26476D01*
X-25492Y-26870D01*
X-26673D01*
X-22737Y-25296D02*
X-23524Y-25689D01*
X-24311Y-26476D01*
Y-27264D01*
X-23918Y-27657D01*
X-23130D01*
X-22737Y-27264D01*
Y-26870D01*
X-23130Y-26476D01*
X-24311D01*
X17323Y80709D02*
Y83070D01*
X18504D01*
X18898Y82677D01*
Y81890D01*
X18504Y81496D01*
X17323D01*
X19685Y82677D02*
X20078Y83070D01*
X20866D01*
X21259Y82677D01*
Y82283D01*
X20866Y81890D01*
X20472D01*
X20866D01*
X21259Y81496D01*
Y81103D01*
X20866Y80709D01*
X20078D01*
X19685Y81103D01*
X-7480Y75590D02*
X-7874Y75984D01*
X-8661D01*
X-9054Y75590D01*
Y74016D01*
X-8661Y73622D01*
X-7874D01*
X-7480Y74016D01*
X-6693D02*
X-6300Y73622D01*
X-5512D01*
X-5119Y74016D01*
Y75590D01*
X-5512Y75984D01*
X-6300D01*
X-6693Y75590D01*
Y75197D01*
X-6300Y74803D01*
X-5119D01*
X-23031Y-6004D02*
Y-3642D01*
X-21850D01*
X-21456Y-4036D01*
Y-4823D01*
X-21850Y-5216D01*
X-23031D01*
X-22243D02*
X-21456Y-6004D01*
X-20669D02*
X-19882D01*
X-20276D01*
Y-3642D01*
X-20669Y-4036D01*
X-18701Y-5610D02*
X-18308Y-6004D01*
X-17521D01*
X-17127Y-5610D01*
Y-4036D01*
X-17521Y-3642D01*
X-18308D01*
X-18701Y-4036D01*
Y-4429D01*
X-18308Y-4823D01*
X-17127D01*
X-11318Y35827D02*
Y38189D01*
X-10137D01*
X-9744Y37795D01*
Y37008D01*
X-10137Y36614D01*
X-11318D01*
X-10531D02*
X-9744Y35827D01*
X-8957D02*
X-8169D01*
X-8563D01*
Y38189D01*
X-8957Y37795D01*
X-6989D02*
X-6595Y38189D01*
X-5808D01*
X-5414Y37795D01*
Y37401D01*
X-5808Y37008D01*
X-5414Y36614D01*
Y36221D01*
X-5808Y35827D01*
X-6595D01*
X-6989Y36221D01*
Y36614D01*
X-6595Y37008D01*
X-6989Y37401D01*
Y37795D01*
X-6595Y37008D02*
X-5808D01*
X-1968Y-27559D02*
Y-25197D01*
X-787D01*
X-394Y-25591D01*
Y-26378D01*
X-787Y-26772D01*
X-1968D01*
X1574Y-27559D02*
Y-25197D01*
X394Y-26378D01*
X1968D01*
X41044Y78444D02*
Y78051D01*
X41831Y77264D01*
X42618Y78051D01*
Y78444D01*
X41831Y77264D02*
Y76083D01*
X43405D02*
X44192D01*
X43799D01*
Y78444D01*
X43405Y78051D01*
X28741Y-5119D02*
Y-7086D01*
X29134Y-7480D01*
X29921D01*
X30315Y-7086D01*
Y-5119D01*
X31102D02*
X32677D01*
Y-5512D01*
X31102Y-7086D01*
Y-7480D01*
X51575Y23228D02*
Y21260D01*
X51969Y20866D01*
X52756D01*
X53150Y21260D01*
Y23228D01*
X55118Y20866D02*
Y23228D01*
X53937Y22047D01*
X55511D01*
X9843Y35434D02*
X11811D01*
X12204Y35827D01*
Y36614D01*
X11811Y37008D01*
X9843D01*
X12204Y39369D02*
Y37795D01*
X10630Y39369D01*
X10237D01*
X9843Y38976D01*
Y38189D01*
X10237Y37795D01*
X21064Y-12598D02*
Y-10237D01*
X22245D01*
X22638Y-10630D01*
Y-11417D01*
X22245Y-11811D01*
X21064D01*
X21851D02*
X22638Y-12598D01*
X23425D02*
X24213D01*
X23819D01*
Y-10237D01*
X23425Y-10630D01*
X26967Y-10237D02*
X25393D01*
Y-11417D01*
X26180Y-11024D01*
X26574D01*
X26967Y-11417D01*
Y-12205D01*
X26574Y-12598D01*
X25787D01*
X25393Y-12205D01*
X-4920Y42028D02*
Y44389D01*
X-3740D01*
X-3346Y43996D01*
Y43209D01*
X-3740Y42815D01*
X-4920D01*
X-4133D02*
X-3346Y42028D01*
X-2559D02*
X-1772D01*
X-2165D01*
Y44389D01*
X-2559Y43996D01*
X-591D02*
X-197Y44389D01*
X590D01*
X983Y43996D01*
Y42421D01*
X590Y42028D01*
X-197D01*
X-591Y42421D01*
Y43996D01*
X-10826Y25394D02*
Y27755D01*
X-9645D01*
X-9252Y27362D01*
Y26575D01*
X-9645Y26181D01*
X-10826D01*
X-10039D02*
X-9252Y25394D01*
X-8465Y27362D02*
X-8071Y27755D01*
X-7284D01*
X-6890Y27362D01*
Y26968D01*
X-7284Y26575D01*
X-6890Y26181D01*
Y25788D01*
X-7284Y25394D01*
X-8071D01*
X-8465Y25788D01*
Y26181D01*
X-8071Y26575D01*
X-8465Y26968D01*
Y27362D01*
X-8071Y26575D02*
X-7284D01*
X-10826Y20473D02*
Y22834D01*
X-9645D01*
X-9252Y22441D01*
Y21654D01*
X-9645Y21260D01*
X-10826D01*
X-10039D02*
X-9252Y20473D01*
X-8465Y22834D02*
X-6890D01*
Y22441D01*
X-8465Y20866D01*
Y20473D01*
X-10826Y15552D02*
Y17913D01*
X-9645D01*
X-9252Y17519D01*
Y16732D01*
X-9645Y16339D01*
X-10826D01*
X-10039D02*
X-9252Y15552D01*
X-6890Y17913D02*
X-7677Y17519D01*
X-8465Y16732D01*
Y15945D01*
X-8071Y15552D01*
X-7284D01*
X-6890Y15945D01*
Y16339D01*
X-7284Y16732D01*
X-8465D01*
X10630Y58759D02*
X12992D01*
Y57578D01*
X12598Y57185D01*
X11811D01*
X11417Y57578D01*
Y58759D01*
Y57972D02*
X10630Y57185D01*
X12992Y54823D02*
Y56398D01*
X11811D01*
X12205Y55611D01*
Y55217D01*
X11811Y54823D01*
X11024D01*
X10630Y55217D01*
Y56004D01*
X11024Y56398D01*
X31497Y62796D02*
Y65157D01*
X32677D01*
X33071Y64763D01*
Y63976D01*
X32677Y63583D01*
X31497D01*
X32284D02*
X33071Y62796D01*
X35039D02*
Y65157D01*
X33858Y63976D01*
X35432D01*
X36812Y7481D02*
Y9842D01*
X37992D01*
X38386Y9449D01*
Y8661D01*
X37992Y8268D01*
X36812D01*
X37599D02*
X38386Y7481D01*
X39173Y9449D02*
X39567Y9842D01*
X40354D01*
X40747Y9449D01*
Y9055D01*
X40354Y8661D01*
X39960D01*
X40354D01*
X40747Y8268D01*
Y7874D01*
X40354Y7481D01*
X39567D01*
X39173Y7874D01*
X46457Y-1968D02*
Y393D01*
X47638D01*
X48032Y-0D01*
Y-787D01*
X47638Y-1181D01*
X46457D01*
X47245D02*
X48032Y-1968D01*
X50393D02*
X48819D01*
X50393Y-394D01*
Y-0D01*
X49999Y393D01*
X49212D01*
X48819Y-0D01*
X12008Y64371D02*
X9646D01*
Y65551D01*
X10040Y65945D01*
X10827D01*
X11220Y65551D01*
Y64371D01*
Y65158D02*
X12008Y65945D01*
Y66732D02*
Y67519D01*
Y67126D01*
X9646D01*
X10040Y66732D01*
X24214Y-22244D02*
Y-19882D01*
X25394D01*
X25788Y-20276D01*
Y-21063D01*
X25394Y-21456D01*
X24214D01*
X26575Y-19882D02*
Y-22244D01*
X28149D01*
X30511D02*
X28936D01*
X30511Y-20669D01*
Y-20276D01*
X30117Y-19882D01*
X29330D01*
X28936Y-20276D01*
X-3544Y59056D02*
X-5905D01*
Y60237D01*
X-5512Y60630D01*
X-4724D01*
X-4331Y60237D01*
Y59056D01*
X-5905Y61417D02*
X-3544D01*
Y62992D01*
Y63779D02*
Y64566D01*
Y64173D01*
X-5905D01*
X-5512Y63779D01*
X53150Y27559D02*
Y29921D01*
X54331D01*
X54725Y29527D01*
Y28740D01*
X54331Y28347D01*
X53150D01*
X57086Y27559D02*
X55512D01*
X57086Y29134D01*
Y29527D01*
X56692Y29921D01*
X55905D01*
X55512Y29527D01*
X-17716Y88188D02*
X-15355D01*
Y87008D01*
X-15748Y86614D01*
X-16535D01*
X-16929Y87008D01*
Y88188D01*
X-17716Y85827D02*
Y85040D01*
Y85433D01*
X-15355D01*
X-15748Y85827D01*
X30906Y10039D02*
Y7677D01*
X32480D01*
X33268D02*
X34055D01*
X33661D01*
Y10039D01*
X33268Y9645D01*
X-31496Y30708D02*
X-32283D01*
X-31890D01*
Y28740D01*
X-32283Y28347D01*
X-32677D01*
X-33070Y28740D01*
X-30709Y28347D02*
X-29922D01*
X-30315D01*
Y30708D01*
X-30709Y30315D01*
X-35433Y40945D02*
X-33071D01*
Y42126D01*
X-33465Y42520D01*
X-35039D01*
X-35433Y42126D01*
Y40945D01*
X-33071Y43307D02*
Y44094D01*
Y43700D01*
X-35433D01*
X-35039Y43307D01*
X22048Y7677D02*
X21654Y8071D01*
X20867D01*
X20473Y7677D01*
Y6103D01*
X20867Y5709D01*
X21654D01*
X22048Y6103D01*
X24409Y5709D02*
X22835D01*
X24409Y7283D01*
Y7677D01*
X24016Y8071D01*
X23228D01*
X22835Y7677D01*
X25196Y8071D02*
X26771D01*
Y7677D01*
X25196Y6103D01*
Y5709D01*
X14174Y-5512D02*
X13780Y-5119D01*
X12993D01*
X12599Y-5512D01*
Y-7086D01*
X12993Y-7480D01*
X13780D01*
X14174Y-7086D01*
X16535Y-7480D02*
X14961D01*
X16535Y-5906D01*
Y-5512D01*
X16142Y-5119D01*
X15355D01*
X14961Y-5512D01*
X18897Y-5119D02*
X18110Y-5512D01*
X17322Y-6299D01*
Y-7086D01*
X17716Y-7480D01*
X18503D01*
X18897Y-7086D01*
Y-6693D01*
X18503Y-6299D01*
X17322D01*
X-20964Y48720D02*
X-21358Y49114D01*
X-22145D01*
X-22538Y48720D01*
Y47146D01*
X-22145Y46752D01*
X-21358D01*
X-20964Y47146D01*
X-18603Y46752D02*
X-20177D01*
X-18603Y48327D01*
Y48720D01*
X-18996Y49114D01*
X-19783D01*
X-20177Y48720D01*
X-17816Y46752D02*
X-17028D01*
X-17422D01*
Y49114D01*
X-17816Y48720D01*
X29921Y80906D02*
X29528Y80512D01*
Y79725D01*
X29921Y79332D01*
X31496D01*
X31889Y79725D01*
Y80512D01*
X31496Y80906D01*
X31889Y81693D02*
Y82480D01*
Y82087D01*
X29528D01*
X29921Y81693D01*
Y83661D02*
X29528Y84054D01*
Y84842D01*
X29921Y85235D01*
X30315D01*
X30709Y84842D01*
X31102Y85235D01*
X31496D01*
X31889Y84842D01*
Y84054D01*
X31496Y83661D01*
X31102D01*
X30709Y84054D01*
X30315Y83661D01*
X29921D01*
X30709Y84054D02*
Y84842D01*
X48819Y62401D02*
X49212Y62795D01*
Y63582D01*
X48819Y63975D01*
X47244D01*
X46851Y63582D01*
Y62795D01*
X47244Y62401D01*
X46851Y61614D02*
Y60827D01*
Y61220D01*
X49212D01*
X48819Y61614D01*
X49212Y59646D02*
Y58072D01*
X48819D01*
X47244Y59646D01*
X46851D01*
X43898Y24803D02*
X43505Y25196D01*
X42717D01*
X42324Y24803D01*
Y23229D01*
X42717Y22835D01*
X43505D01*
X43898Y23229D01*
X44685Y22835D02*
X45472D01*
X45079D01*
Y25196D01*
X44685Y24803D01*
X48227Y25196D02*
X46653D01*
Y24016D01*
X47440Y24409D01*
X47834D01*
X48227Y24016D01*
Y23229D01*
X47834Y22835D01*
X47047D01*
X46653Y23229D01*
X19685Y12205D02*
X19292Y12598D01*
X18505D01*
X18111Y12205D01*
Y10630D01*
X18505Y10237D01*
X19292D01*
X19685Y10630D01*
X20473Y10237D02*
X21260D01*
X20866D01*
Y12598D01*
X20473Y12205D01*
X23621Y10237D02*
Y12598D01*
X22441Y11417D01*
X24015D01*
X18898Y65552D02*
X18504Y65158D01*
Y64371D01*
X18898Y63977D01*
X20472D01*
X20866Y64371D01*
Y65158D01*
X20472Y65552D01*
X20866Y66339D02*
Y67126D01*
Y66732D01*
X18504D01*
X18898Y66339D01*
Y68307D02*
X18504Y68700D01*
Y69487D01*
X18898Y69881D01*
X19291D01*
X19685Y69487D01*
Y69094D01*
Y69487D01*
X20079Y69881D01*
X20472D01*
X20866Y69487D01*
Y68700D01*
X20472Y68307D01*
X36024Y24803D02*
X35631Y25196D01*
X34843D01*
X34450Y24803D01*
Y23229D01*
X34843Y22835D01*
X35631D01*
X36024Y23229D01*
X36811Y22835D02*
X37598D01*
X37205D01*
Y25196D01*
X36811Y24803D01*
X40353Y22835D02*
X38779D01*
X40353Y24409D01*
Y24803D01*
X39960Y25196D01*
X39173D01*
X38779Y24803D01*
X15552Y25984D02*
X15158Y26378D01*
X14371D01*
X13977Y25984D01*
Y24410D01*
X14371Y24016D01*
X15158D01*
X15552Y24410D01*
X16339Y24016D02*
X17126D01*
X16732D01*
Y26378D01*
X16339Y25984D01*
X18306Y24016D02*
X19094D01*
X18700D01*
Y26378D01*
X18306Y25984D01*
X26842Y12201D02*
X26448Y12594D01*
X25661D01*
X25267Y12201D01*
Y10626D01*
X25661Y10233D01*
X26448D01*
X26842Y10626D01*
X27629Y12201D02*
X28022Y12594D01*
X28809D01*
X29203Y12201D01*
Y11807D01*
X28809Y11413D01*
X29203Y11020D01*
Y10626D01*
X28809Y10233D01*
X28022D01*
X27629Y10626D01*
Y11020D01*
X28022Y11413D01*
X27629Y11807D01*
Y12201D01*
X28022Y11413D02*
X28809D01*
X46457Y45669D02*
X46063Y46063D01*
X45276D01*
X44883Y45669D01*
Y44095D01*
X45276Y43701D01*
X46063D01*
X46457Y44095D01*
X47244Y46063D02*
X48818D01*
Y45669D01*
X47244Y44095D01*
Y43701D01*
X46457Y29134D02*
X46063Y29527D01*
X45276D01*
X44883Y29134D01*
Y27559D01*
X45276Y27166D01*
X46063D01*
X46457Y27559D01*
X48818Y29527D02*
X48031Y29134D01*
X47244Y28346D01*
Y27559D01*
X47638Y27166D01*
X48425D01*
X48818Y27559D01*
Y27953D01*
X48425Y28346D01*
X47244D01*
X27953Y61417D02*
X27559Y61811D01*
X26772D01*
X26379Y61417D01*
Y59843D01*
X26772Y59449D01*
X27559D01*
X27953Y59843D01*
X30314Y61811D02*
X28740D01*
Y60630D01*
X29527Y61023D01*
X29921D01*
X30314Y60630D01*
Y59843D01*
X29921Y59449D01*
X29134D01*
X28740Y59843D01*
X-2362Y47244D02*
X-2756Y47637D01*
X-3543D01*
X-3936Y47244D01*
Y45669D01*
X-3543Y45276D01*
X-2756D01*
X-2362Y45669D01*
X-394Y45276D02*
Y47637D01*
X-1575Y46457D01*
X-1D01*
X-4331Y33268D02*
X-4724Y33661D01*
X-5511D01*
X-5905Y33268D01*
Y31693D01*
X-5511Y31300D01*
X-4724D01*
X-4331Y31693D01*
X-3543Y33268D02*
X-3150Y33661D01*
X-2363D01*
X-1969Y33268D01*
Y32874D01*
X-2363Y32480D01*
X-2756D01*
X-2363D01*
X-1969Y32087D01*
Y31693D01*
X-2363Y31300D01*
X-3150D01*
X-3543Y31693D01*
X30315Y24803D02*
X29921Y25196D01*
X29134D01*
X28741Y24803D01*
Y23229D01*
X29134Y22835D01*
X29921D01*
X30315Y23229D01*
X32677Y22835D02*
X31102D01*
X32677Y24409D01*
Y24803D01*
X32283Y25196D01*
X31496D01*
X31102Y24803D01*
X10040Y25591D02*
X9646Y25197D01*
Y24410D01*
X10040Y24016D01*
X11614D01*
X12008Y24410D01*
Y25197D01*
X11614Y25591D01*
X12008Y26378D02*
Y27165D01*
Y26771D01*
X9646D01*
X10040Y26378D01*
M02*
