G04*
G04 #@! TF.GenerationSoftware,Altium Limited,Altium Designer,23.10.1 (27)*
G04*
G04 Layer_Physical_Order=2*
G04 Layer_Color=16711680*
%FSLAX25Y25*%
%MOIN*%
G70*
G04*
G04 #@! TF.SameCoordinates,13E47035-5D8A-42FE-96CF-1707A3A9F588*
G04*
G04*
G04 #@! TF.FilePolarity,Positive*
G04*
G01*
G75*
%ADD11C,0.00787*%
%ADD15R,0.01181X0.03150*%
%ADD16R,0.01575X0.03150*%
%ADD18R,0.03150X0.03150*%
%ADD57C,0.00512*%
%ADD59C,0.01181*%
%ADD60C,0.02362*%
%ADD61C,0.00984*%
%ADD62C,0.03150*%
%ADD64C,0.03543*%
%ADD65C,0.03937*%
%ADD69O,0.07087X0.09449*%
%ADD70C,0.02559*%
%ADD71R,0.05906X0.05906*%
%ADD72C,0.05906*%
%ADD73O,0.06693X0.03543*%
%ADD74O,0.09449X0.03543*%
%ADD75R,0.05906X0.05906*%
%ADD76C,0.10236*%
%ADD77C,0.02362*%
%ADD78R,0.12795X0.06496*%
G36*
X-57311Y91637D02*
X-57120Y91175D01*
X-61288Y87006D01*
X-61482Y87087D01*
X-62140D01*
X-62748Y86835D01*
X-63213Y86370D01*
X-63465Y85762D01*
Y85104D01*
X-63213Y84496D01*
X-62748Y84031D01*
X-62140Y83780D01*
X-61482D01*
X-60874Y84031D01*
X-60409Y84496D01*
X-60158Y85104D01*
Y85762D01*
X-60238Y85956D01*
X-55598Y90596D01*
X-53233D01*
X-53042Y90134D01*
X-56170Y87006D01*
X-56364Y87087D01*
X-57022D01*
X-57630Y86835D01*
X-58095Y86370D01*
X-58346Y85762D01*
Y85104D01*
X-58095Y84496D01*
X-57630Y84031D01*
X-57022Y83780D01*
X-56364D01*
X-55756Y84031D01*
X-55291Y84496D01*
X-55039Y85104D01*
Y85762D01*
X-55120Y85956D01*
X-51523Y89553D01*
X-34030D01*
X-33823Y89053D01*
X-34158Y88717D01*
X-34609Y87936D01*
X-34843Y87065D01*
Y86163D01*
X-34609Y85292D01*
X-34158Y84511D01*
X-33520Y83873D01*
X-32739Y83422D01*
X-31868Y83189D01*
X-30966D01*
X-30095Y83422D01*
X-29314Y83873D01*
X-28677Y84511D01*
X-28226Y85292D01*
X-27992Y86163D01*
Y87065D01*
X-28226Y87936D01*
X-28677Y88717D01*
X-29012Y89053D01*
X-28805Y89553D01*
X-24421D01*
X-24230Y89091D01*
X-24410Y88911D01*
X-24903Y88058D01*
X-25131Y87205D01*
X-21417D01*
X-17704D01*
X-17932Y88058D01*
X-18425Y88911D01*
X-18605Y89091D01*
X-18413Y89553D01*
X-14030D01*
X-13823Y89053D01*
X-14158Y88717D01*
X-14609Y87936D01*
X-14842Y87065D01*
Y86163D01*
X-14609Y85292D01*
X-14158Y84511D01*
X-13520Y83873D01*
X-12739Y83422D01*
X-11868Y83189D01*
X-10966D01*
X-10095Y83422D01*
X-9314Y83873D01*
X-8676Y84511D01*
X-8225Y85292D01*
X-7992Y86163D01*
Y87065D01*
X-8225Y87936D01*
X-8676Y88717D01*
X-9012Y89053D01*
X-8805Y89553D01*
X-4843D01*
Y83189D01*
X2008D01*
Y89553D01*
X26630D01*
X27087Y89449D01*
X27087Y89053D01*
Y85388D01*
X25014D01*
X24730Y85332D01*
X24489Y85171D01*
X24243Y84925D01*
X23743Y85132D01*
Y85160D01*
X23492Y85768D01*
X23027Y86233D01*
X22419Y86484D01*
X21761D01*
X21153Y86233D01*
X20688Y85768D01*
X20436Y85160D01*
Y84502D01*
X20688Y83894D01*
X21153Y83429D01*
X21187Y83261D01*
X11595Y73669D01*
X11102Y73883D01*
Y74345D01*
X10851Y74952D01*
X10385Y75418D01*
X9778Y75669D01*
X9120D01*
X8512Y75418D01*
X8047Y74952D01*
X7795Y74345D01*
Y73687D01*
X7876Y73493D01*
X3215Y68832D01*
X3054Y68591D01*
X2998Y68307D01*
Y61029D01*
X2803Y60949D01*
X2338Y60484D01*
X2087Y59876D01*
Y59218D01*
X2338Y58611D01*
X2803Y58145D01*
X3411Y57894D01*
X4069D01*
X4677Y58145D01*
X5142Y58611D01*
X5394Y59218D01*
Y59876D01*
X5142Y60484D01*
X4677Y60949D01*
X4483Y61029D01*
Y68000D01*
X8926Y72443D01*
X9120Y72362D01*
X9778D01*
X10186Y72531D01*
X10259Y72518D01*
X10651Y72265D01*
X10675Y72234D01*
Y61725D01*
X5303Y56353D01*
X3445D01*
X3161Y56296D01*
X2920Y56135D01*
X1963Y55178D01*
X1462Y55385D01*
Y67390D01*
X1406Y67675D01*
X1245Y67915D01*
X-1050Y70210D01*
X-1291Y70371D01*
X-1575Y70428D01*
X-12297D01*
X-12378Y70622D01*
X-12843Y71087D01*
X-13451Y71339D01*
X-14108D01*
X-14716Y71087D01*
X-15043Y70760D01*
X-15354Y70671D01*
X-15665Y70760D01*
X-15992Y71087D01*
X-16600Y71339D01*
X-17258D01*
X-17866Y71087D01*
X-18331Y70622D01*
X-18583Y70014D01*
Y69356D01*
X-18331Y68748D01*
X-17866Y68283D01*
X-17258Y68032D01*
X-16600D01*
X-16406Y68112D01*
X-15545Y67251D01*
X-15304Y67089D01*
X-15020Y67033D01*
X-1548D01*
X-1136Y66622D01*
Y51575D01*
X-1080Y51291D01*
X-919Y51050D01*
X2526Y47605D01*
X2767Y47444D01*
X3051Y47387D01*
X7862D01*
X8532Y46717D01*
X8532Y46717D01*
X8727Y46522D01*
X8968Y46361D01*
X9252Y46305D01*
X12219D01*
X12503Y46361D01*
X12744Y46522D01*
X12754Y46532D01*
X12883Y46558D01*
X13124Y46719D01*
X14502Y48097D01*
X14662Y48338D01*
X14719Y48622D01*
Y51464D01*
X17454Y54199D01*
X17615Y54440D01*
X17672Y54724D01*
Y57874D01*
X17653Y57966D01*
X17942Y58429D01*
X17978Y58459D01*
X18006Y58474D01*
X18594Y58718D01*
X19059Y59183D01*
X19311Y59791D01*
Y60448D01*
X19059Y61056D01*
X18594Y61521D01*
X18297Y61644D01*
Y71311D01*
X26275Y79289D01*
X30906D01*
Y78150D01*
X32283D01*
Y77559D01*
X32874D01*
Y75197D01*
X33509D01*
Y71260D01*
X33566Y70976D01*
X33727Y70735D01*
X33779Y70682D01*
Y67638D01*
X37874D01*
Y71732D01*
X34995D01*
Y75512D01*
X39415D01*
Y66614D01*
X36535D01*
Y62520D01*
X40630D01*
Y65564D01*
X40683Y65617D01*
X40844Y65858D01*
X40900Y66142D01*
Y75197D01*
X41535D01*
Y77559D01*
Y79921D01*
X40900D01*
Y80709D01*
X40844Y80993D01*
X40683Y81234D01*
X38475Y83441D01*
X38667Y83903D01*
X41818D01*
X45025Y80696D01*
Y72453D01*
X43569Y70998D01*
X43408Y70757D01*
X43352Y70473D01*
Y59166D01*
X42255Y58069D01*
X42061Y58150D01*
X41403D01*
X40796Y57898D01*
X40330Y57433D01*
X40079Y56825D01*
Y56167D01*
X40330Y55559D01*
X40796Y55094D01*
X41403Y54843D01*
X42061D01*
X42669Y55094D01*
X43134Y55559D01*
X43386Y56167D01*
Y56825D01*
X43305Y57019D01*
X44620Y58333D01*
X44781Y58574D01*
X44837Y58858D01*
Y70165D01*
X46293Y71621D01*
X46454Y71861D01*
X46510Y72146D01*
Y81004D01*
X46454Y81288D01*
X46293Y81529D01*
X42651Y85171D01*
X42410Y85332D01*
X42126Y85388D01*
X29606D01*
X29606Y89449D01*
X30063Y89553D01*
X44346D01*
X44803Y89449D01*
Y85354D01*
X47289D01*
Y83858D01*
X47345Y83574D01*
X47506Y83333D01*
X49198Y81641D01*
Y62559D01*
X49255Y62275D01*
X49416Y62034D01*
X49651Y61799D01*
Y55897D01*
X49708Y55612D01*
X49869Y55371D01*
X54375Y50864D01*
Y49725D01*
X53796Y49570D01*
X53015Y49119D01*
X52377Y48481D01*
X51926Y47700D01*
X51693Y46829D01*
Y45927D01*
X51926Y45056D01*
X52377Y44275D01*
X53015Y43637D01*
X53796Y43186D01*
X54667Y42953D01*
X55569D01*
X56440Y43186D01*
X57221Y43637D01*
X57859Y44275D01*
X58066Y44633D01*
X58566Y44499D01*
Y38257D01*
X58066Y38123D01*
X57859Y38481D01*
X57221Y39119D01*
X56440Y39570D01*
X55569Y39803D01*
X54667D01*
X53796Y39570D01*
X53414Y39349D01*
X49837Y42926D01*
X49980Y43273D01*
Y43931D01*
X49729Y44539D01*
X49263Y45004D01*
X48656Y45256D01*
X47998D01*
X47390Y45004D01*
X46925Y44539D01*
X46673Y43931D01*
Y43273D01*
X46925Y42666D01*
X47390Y42201D01*
X47998Y41949D01*
X48656D01*
X48697Y41966D01*
X52306Y38357D01*
X51926Y37700D01*
X51693Y36829D01*
Y35927D01*
X51926Y35056D01*
X52377Y34275D01*
X53015Y33637D01*
X53796Y33186D01*
X54667Y32953D01*
X55569D01*
X56440Y33186D01*
X57221Y33637D01*
X57859Y34275D01*
X58066Y34633D01*
X58566Y34499D01*
Y30208D01*
X58539Y30180D01*
X58066Y29982D01*
X57953Y30093D01*
Y30644D01*
X57701Y31252D01*
X57236Y31717D01*
X56628Y31969D01*
X55970D01*
X55363Y31717D01*
X54897Y31252D01*
X54646Y30644D01*
Y30182D01*
X54153Y29968D01*
X53148Y30973D01*
X53228Y31167D01*
Y31825D01*
X52977Y32433D01*
X52512Y32898D01*
X51904Y33150D01*
X51246D01*
X50638Y32898D01*
X50173Y32433D01*
X49921Y31825D01*
Y31167D01*
X50173Y30559D01*
X50638Y30094D01*
X51246Y29842D01*
X51904D01*
X52098Y29923D01*
X55852Y26169D01*
Y12D01*
X53137Y-2702D01*
X43799D01*
X43515Y-2759D01*
X43274Y-2920D01*
X22250Y-23944D01*
X22072Y-23979D01*
X21831Y-24140D01*
X14568Y-31403D01*
X-15972D01*
X-20080Y-27295D01*
X-20000Y-27101D01*
Y-26443D01*
X-20252Y-25835D01*
X-20717Y-25370D01*
X-21325Y-25118D01*
X-21982D01*
X-22590Y-25370D01*
X-23055Y-25835D01*
X-23307Y-26443D01*
Y-27101D01*
X-23055Y-27708D01*
X-22590Y-28174D01*
X-21982Y-28425D01*
X-21325D01*
X-21131Y-28345D01*
X-17550Y-31925D01*
X-17741Y-32387D01*
X-23944D01*
X-26816Y-29515D01*
Y-28254D01*
X-26622Y-28174D01*
X-26157Y-27708D01*
X-25905Y-27101D01*
Y-26443D01*
X-26157Y-25835D01*
X-26622Y-25370D01*
X-27230Y-25118D01*
X-27888D01*
X-28496Y-25370D01*
X-28961Y-25835D01*
X-29213Y-26443D01*
Y-27101D01*
X-28961Y-27708D01*
X-28496Y-28174D01*
X-28302Y-28254D01*
Y-29823D01*
X-28245Y-30107D01*
X-28084Y-30348D01*
X-27051Y-31381D01*
X-27051Y-31381D01*
X-25525Y-32907D01*
X-25717Y-33369D01*
X-34550D01*
Y-989D01*
X-34286Y-841D01*
X-34050Y-788D01*
X-33574Y-1153D01*
X-32952Y-1410D01*
X-32283Y-1498D01*
X-31299D01*
Y1083D01*
Y3664D01*
X-32283D01*
X-32952Y3576D01*
X-33574Y3318D01*
X-34109Y2908D01*
X-34274Y2692D01*
X-34512Y2648D01*
X-34906Y2690D01*
X-36518Y4303D01*
Y30484D01*
X-36057Y30676D01*
X-27121Y21740D01*
Y3394D01*
X-27621Y3147D01*
X-27843Y3318D01*
X-28466Y3576D01*
X-29134Y3664D01*
X-30118D01*
Y1083D01*
Y-1498D01*
X-29134D01*
X-28466Y-1410D01*
X-27843Y-1153D01*
X-27621Y-982D01*
X-27121Y-1228D01*
Y-7874D01*
X-27064Y-8158D01*
X-26903Y-8399D01*
X-26333Y-8969D01*
Y-12691D01*
X-26527Y-12771D01*
X-26992Y-13237D01*
X-27244Y-13844D01*
Y-14502D01*
X-26992Y-15110D01*
X-26527Y-15575D01*
X-25919Y-15827D01*
X-25496D01*
X-25153Y-16263D01*
X-25147Y-16289D01*
X-25276Y-16600D01*
Y-17258D01*
X-25024Y-17866D01*
X-24559Y-18331D01*
X-23951Y-18583D01*
X-23293D01*
X-22685Y-18331D01*
X-22220Y-17866D01*
X-21969Y-17258D01*
Y-16600D01*
X-22220Y-15992D01*
X-22685Y-15527D01*
X-22879Y-15447D01*
Y-8268D01*
X-22936Y-7983D01*
X-23097Y-7743D01*
X-24257Y-6582D01*
Y-4996D01*
X-23795Y-4804D01*
X-22913Y-5686D01*
Y-6136D01*
X-22662Y-6744D01*
X-22197Y-7209D01*
X-21589Y-7461D01*
X-20931D01*
X-20323Y-7209D01*
X-19858Y-6744D01*
X-19606Y-6136D01*
Y-5478D01*
X-19858Y-4870D01*
X-20323Y-4405D01*
X-20931Y-4154D01*
X-21381D01*
X-22538Y-2996D01*
Y-1045D01*
X-22038Y-851D01*
X-21645Y-1153D01*
X-21022Y-1410D01*
X-20354Y-1498D01*
X-17992D01*
Y1083D01*
Y3664D01*
X-20354D01*
X-21022Y3576D01*
X-21645Y3318D01*
X-22038Y3016D01*
X-22538Y3210D01*
Y11067D01*
X-21598Y12007D01*
X-20252D01*
X-19967Y11722D01*
X-19895Y11417D01*
X-19967Y11112D01*
X-20344Y10736D01*
X-20610Y10093D01*
Y9396D01*
X-20344Y8752D01*
X-20209Y8617D01*
X-20029Y8150D01*
X-20212Y7967D01*
X-20610Y7568D01*
X-20851Y6988D01*
X-18858D01*
X-16866D01*
X-17106Y7568D01*
X-17504Y7967D01*
X-17687Y8150D01*
X-17508Y8617D01*
X-17373Y8752D01*
X-17106Y9396D01*
Y10093D01*
X-17373Y10736D01*
X-17749Y11112D01*
X-17821Y11417D01*
X-17749Y11722D01*
X-17373Y12098D01*
X-17106Y12742D01*
Y13439D01*
X-17373Y14083D01*
X-17749Y14459D01*
X-17821Y14764D01*
X-17749Y15069D01*
X-17373Y15445D01*
X-17106Y16089D01*
Y16259D01*
X-15683Y17155D01*
X-15282Y16817D01*
X-15295Y16785D01*
Y16089D01*
X-15029Y15445D01*
X-14653Y15069D01*
X-14580Y14764D01*
X-14653Y14459D01*
X-15029Y14083D01*
X-15295Y13439D01*
Y12742D01*
X-15029Y12098D01*
X-14653Y11722D01*
X-14580Y11417D01*
X-14653Y11112D01*
X-15029Y10736D01*
X-15295Y10093D01*
Y9396D01*
X-15029Y8752D01*
X-14894Y8617D01*
X-14714Y8150D01*
X-14897Y7967D01*
X-15296Y7569D01*
X-15536Y6988D01*
X-13543D01*
Y6398D01*
X-12953D01*
Y4301D01*
X-12641Y3993D01*
X-12652Y3937D01*
Y3495D01*
X-13101Y3274D01*
X-13158Y3318D01*
X-13781Y3576D01*
X-14449Y3664D01*
X-16811D01*
Y1083D01*
Y-1498D01*
X-14449D01*
X-13781Y-1410D01*
X-13158Y-1153D01*
X-13101Y-1108D01*
X-12652Y-1330D01*
Y-7972D01*
X-12596Y-8257D01*
X-12435Y-8497D01*
X242Y-21174D01*
Y-23511D01*
X-658Y-24411D01*
X-852Y-24331D01*
X-1510D01*
X-2118Y-24582D01*
X-2583Y-25048D01*
X-2835Y-25655D01*
Y-26313D01*
X-2583Y-26921D01*
X-2118Y-27386D01*
X-1510Y-27638D01*
X-852D01*
X-541Y-27509D01*
X-515Y-27515D01*
X-79Y-27859D01*
Y-28282D01*
X173Y-28889D01*
X638Y-29355D01*
X1246Y-29606D01*
X1904D01*
X2511Y-29355D01*
X2977Y-28889D01*
X3228Y-28282D01*
Y-27624D01*
X3148Y-27430D01*
X3281Y-27297D01*
X3442Y-27056D01*
X3498Y-26772D01*
Y-16043D01*
X3442Y-15759D01*
X3281Y-15518D01*
X33Y-12270D01*
X-208Y-12109D01*
X-492Y-12053D01*
X-4712D01*
X-9986Y-6779D01*
Y-4484D01*
X-9486Y-4364D01*
X-8923Y-5468D01*
X-7958Y-6797D01*
X-6797Y-7958D01*
X-5468Y-8923D01*
X-4005Y-9669D01*
X-2443Y-10176D01*
X-821Y-10433D01*
X821D01*
X2443Y-10176D01*
X4005Y-9669D01*
X5468Y-8923D01*
X6797Y-7958D01*
X7958Y-6797D01*
X8923Y-5468D01*
X9194Y-4937D01*
X9671Y-5102D01*
X9621Y-5351D01*
X9621Y-5351D01*
Y-9070D01*
X9610Y-9087D01*
X9421Y-10039D01*
X9610Y-10992D01*
X10150Y-11799D01*
X11626Y-13276D01*
X14992Y-16642D01*
X15800Y-17181D01*
X16752Y-17371D01*
X17704Y-17181D01*
X18512Y-16642D01*
X19051Y-15834D01*
X19241Y-14882D01*
X19051Y-13929D01*
X18512Y-13122D01*
X15146Y-9756D01*
X14198Y-8808D01*
Y-6112D01*
X14319Y-5931D01*
X14493Y-5055D01*
X14493Y-5055D01*
Y5055D01*
X14493Y5055D01*
X14319Y5931D01*
X13823Y6673D01*
X13823Y6673D01*
X8360Y12135D01*
X8059Y12587D01*
X6681Y13964D01*
X5874Y14504D01*
X4921Y14694D01*
X2854D01*
X1902Y14504D01*
X1094Y13964D01*
X555Y13157D01*
X366Y12205D01*
X555Y11252D01*
X768Y10933D01*
X501Y10433D01*
X-821D01*
X-2443Y10176D01*
X-4005Y9669D01*
X-5468Y8923D01*
X-6797Y7958D01*
X-7958Y6797D01*
X-8600Y5913D01*
X-9100Y6075D01*
Y7566D01*
X2494Y19160D01*
X2655Y19401D01*
X2711Y19685D01*
Y36405D01*
X5481Y39175D01*
X5675Y39094D01*
X6333D01*
X6941Y39346D01*
X7406Y39811D01*
X7658Y40419D01*
Y41077D01*
X7406Y41685D01*
X6941Y42150D01*
X6333Y42402D01*
X5675D01*
X5067Y42150D01*
X4602Y41685D01*
X4350Y41077D01*
Y40419D01*
X4431Y40225D01*
X1932Y37726D01*
X1432Y37933D01*
Y39069D01*
X1626Y39149D01*
X2091Y39614D01*
X2342Y40222D01*
Y40880D01*
X2091Y41488D01*
X1626Y41953D01*
X1018Y42205D01*
X360D01*
X-248Y41953D01*
X-713Y41488D01*
X-965Y40880D01*
Y40222D01*
X-713Y39614D01*
X-248Y39149D01*
X-54Y39069D01*
Y20189D01*
X-11535Y8708D01*
X-11959Y8991D01*
X-11791Y9396D01*
Y10093D01*
X-12058Y10736D01*
X-12434Y11112D01*
X-12506Y11417D01*
X-12434Y11722D01*
X-12058Y12098D01*
X-11791Y12742D01*
Y13439D01*
X-12058Y14083D01*
X-12434Y14459D01*
X-12506Y14764D01*
X-12434Y15069D01*
X-12058Y15445D01*
X-11791Y16089D01*
Y16785D01*
X-12058Y17429D01*
X-12434Y17805D01*
X-12506Y18110D01*
X-12434Y18415D01*
X-12058Y18791D01*
X-11791Y19435D01*
Y20132D01*
X-12058Y20776D01*
X-12434Y21152D01*
X-12506Y21457D01*
X-12434Y21761D01*
X-12058Y22138D01*
X-11791Y22781D01*
Y23478D01*
X-12058Y24122D01*
X-12434Y24498D01*
X-12506Y24803D01*
X-12434Y25108D01*
X-12058Y25484D01*
X-11791Y26128D01*
Y26825D01*
X-12058Y27469D01*
X-12193Y27604D01*
X-12372Y28071D01*
X-12190Y28253D01*
X-11791Y28652D01*
X-11551Y29232D01*
X-13543D01*
X-15536D01*
X-15296Y28652D01*
X-15268Y28624D01*
X-15459Y28162D01*
X-16942D01*
X-17134Y28624D01*
X-17106Y28652D01*
X-16866Y29232D01*
X-18858D01*
X-20851D01*
X-20660Y28771D01*
X-21084Y28488D01*
X-22133Y29537D01*
Y32712D01*
X-21685Y32933D01*
X-21645Y32903D01*
X-21022Y32645D01*
X-20354Y32557D01*
X-17992D01*
Y35138D01*
Y37719D01*
X-20354D01*
X-21022Y37631D01*
X-21645Y37373D01*
X-21685Y37343D01*
X-22133Y37564D01*
Y53159D01*
X-22069Y53185D01*
X-21230Y53829D01*
X-20587Y54668D01*
X-20182Y55645D01*
X-20044Y56693D01*
Y59055D01*
X-20182Y60103D01*
X-20587Y61080D01*
X-21230Y61919D01*
X-22069Y62563D01*
X-22409Y62703D01*
Y75772D01*
X-22012Y76168D01*
X5315D01*
X5960Y76297D01*
X6507Y76662D01*
X13224Y83379D01*
X13651D01*
X13780Y83353D01*
X13908Y83379D01*
X16880D01*
X17043Y83411D01*
X17209D01*
X17362Y83475D01*
X17525Y83507D01*
X17663Y83600D01*
X17817Y83663D01*
X17934Y83780D01*
X18072Y83873D01*
X18164Y84011D01*
X18282Y84128D01*
X18345Y84282D01*
X18438Y84420D01*
X18470Y84583D01*
X18533Y84736D01*
Y84902D01*
X18566Y85065D01*
X18533Y85228D01*
Y85394D01*
X18470Y85547D01*
X18438Y85710D01*
X18345Y85848D01*
X18282Y86001D01*
X18164Y86119D01*
X18072Y86257D01*
X17934Y86349D01*
X17817Y86467D01*
X17663Y86530D01*
X17525Y86623D01*
X17362Y86655D01*
X17209Y86718D01*
X17043D01*
X16880Y86751D01*
X13805D01*
X13792Y86748D01*
X13780Y86751D01*
X12526D01*
X11880Y86623D01*
X11333Y86257D01*
X4617Y79540D01*
X-22711D01*
X-23356Y79412D01*
X-23903Y79046D01*
X-25287Y77663D01*
X-25652Y77116D01*
X-25780Y76471D01*
Y62703D01*
X-26120Y62563D01*
X-26959Y61919D01*
X-27602Y61080D01*
X-28007Y60103D01*
X-28145Y59055D01*
Y56693D01*
X-28007Y55645D01*
X-27602Y54668D01*
X-26959Y53829D01*
X-26120Y53185D01*
X-25505Y52930D01*
Y28839D01*
X-25376Y28193D01*
X-25011Y27646D01*
X-22649Y25284D01*
X-22102Y24919D01*
X-21457Y24790D01*
X-20382D01*
X-20175Y24290D01*
X-20344Y24122D01*
X-20610Y23478D01*
Y22781D01*
X-20344Y22138D01*
X-19967Y21761D01*
X-19895Y21457D01*
X-19967Y21152D01*
X-20344Y20776D01*
X-20610Y20132D01*
Y19435D01*
X-20344Y18791D01*
X-19967Y18415D01*
X-19895Y18110D01*
X-19967Y17805D01*
X-20344Y17429D01*
X-20610Y16785D01*
Y16089D01*
X-20344Y15445D01*
X-19967Y15069D01*
X-19895Y14764D01*
X-19967Y14459D01*
X-20252Y14174D01*
X-22047D01*
X-22462Y14092D01*
X-22814Y13857D01*
X-22814Y13857D01*
X-23795Y12875D01*
X-24257Y13066D01*
Y23425D01*
X-24314Y23709D01*
X-24475Y23950D01*
X-32621Y32097D01*
X-32388Y32570D01*
X-32283Y32557D01*
X-31299D01*
Y35138D01*
Y37719D01*
X-32283D01*
X-32952Y37631D01*
X-33574Y37373D01*
X-33592Y37359D01*
X-34041Y37580D01*
Y47673D01*
X-33709Y47811D01*
X-33244Y48276D01*
X-32992Y48884D01*
Y49542D01*
X-33244Y50149D01*
X-33709Y50614D01*
X-34317Y50866D01*
X-34975D01*
X-35582Y50614D01*
X-36048Y50149D01*
X-36299Y49542D01*
Y48884D01*
X-36048Y48276D01*
X-35582Y47811D01*
X-35526Y47787D01*
Y45945D01*
X-36026Y45738D01*
X-38978Y48690D01*
X-38898Y48884D01*
Y49542D01*
X-39149Y50149D01*
X-39614Y50614D01*
X-40222Y50866D01*
X-40880D01*
X-41488Y50614D01*
X-41953Y50149D01*
X-42205Y49542D01*
Y48884D01*
X-41953Y48276D01*
X-41488Y47811D01*
X-40880Y47559D01*
X-40222D01*
X-40028Y47639D01*
X-36963Y44574D01*
Y42802D01*
X-37425Y42611D01*
X-68191Y73377D01*
X-67999Y73839D01*
X-59469D01*
Y72342D01*
X-59310Y71544D01*
X-58858Y70867D01*
X-48017Y60026D01*
X-48145Y59055D01*
Y56693D01*
X-48007Y55645D01*
X-47602Y54668D01*
X-46959Y53829D01*
X-46120Y53185D01*
X-45143Y52780D01*
X-44094Y52643D01*
X-43046Y52780D01*
X-42069Y53185D01*
X-41230Y53829D01*
X-40587Y54668D01*
X-40182Y55645D01*
X-40044Y56693D01*
Y59055D01*
X-40182Y60103D01*
X-40587Y61080D01*
X-41230Y61919D01*
X-42069Y62563D01*
X-43046Y62967D01*
X-44094Y63105D01*
X-45065Y62978D01*
X-55295Y73207D01*
Y75886D01*
X-55335Y76087D01*
Y81279D01*
X-69075D01*
Y74914D01*
X-69537Y74723D01*
X-72345Y77531D01*
Y91637D01*
X-57311D01*
D02*
G37*
%LPC*%
G36*
X-17704Y86024D02*
X-20827D01*
Y82900D01*
X-19974Y83129D01*
X-19121Y83621D01*
X-18425Y84318D01*
X-17932Y85171D01*
X-17704Y86024D01*
D02*
G37*
G36*
X-22008D02*
X-25131D01*
X-24903Y85171D01*
X-24410Y84318D01*
X-23714Y83621D01*
X-22861Y83129D01*
X-22008Y82900D01*
Y86024D01*
D02*
G37*
G36*
X43504Y79921D02*
X42717D01*
Y78150D01*
X43504D01*
Y79921D01*
D02*
G37*
G36*
X-34744Y81595D02*
X-41339D01*
Y78150D01*
X-34744D01*
Y81595D01*
D02*
G37*
G36*
X-42520D02*
X-49114D01*
Y78150D01*
X-42520D01*
Y81595D01*
D02*
G37*
G36*
X43504Y76968D02*
X42717D01*
Y75197D01*
X43504D01*
Y76968D01*
D02*
G37*
G36*
X31693D02*
X30906D01*
Y75197D01*
X31693D01*
Y76968D01*
D02*
G37*
G36*
X-34744D02*
X-41339D01*
Y73524D01*
X-34744D01*
Y76968D01*
D02*
G37*
G36*
X-42520D02*
X-49114D01*
Y73524D01*
X-42520D01*
Y76968D01*
D02*
G37*
G36*
X-33504Y63345D02*
Y58465D01*
X-29726D01*
Y59055D01*
X-29875Y60186D01*
X-30312Y61239D01*
X-31006Y62144D01*
X-31910Y62838D01*
X-32964Y63274D01*
X-33504Y63345D01*
D02*
G37*
G36*
X-34685D02*
X-35225Y63274D01*
X-36279Y62838D01*
X-37183Y62144D01*
X-37877Y61239D01*
X-38314Y60186D01*
X-38462Y59055D01*
Y58465D01*
X-34685D01*
Y63345D01*
D02*
G37*
G36*
X-29726Y57284D02*
X-33504D01*
Y52403D01*
X-32964Y52474D01*
X-31910Y52910D01*
X-31006Y53604D01*
X-30312Y54509D01*
X-29875Y55562D01*
X-29726Y56693D01*
Y57284D01*
D02*
G37*
G36*
X-34685D02*
X-38462D01*
Y56693D01*
X-38314Y55562D01*
X-37877Y54509D01*
X-37183Y53604D01*
X-36279Y52910D01*
X-35225Y52474D01*
X-34685Y52403D01*
Y57284D01*
D02*
G37*
G36*
X31575Y71732D02*
X27480D01*
Y67638D01*
X28825D01*
Y67042D01*
X28900Y66665D01*
X29113Y66346D01*
X30236Y65223D01*
Y63769D01*
X26738Y60270D01*
X26546Y59984D01*
X26479Y59646D01*
Y54603D01*
X26546Y54265D01*
X26738Y53979D01*
X28033Y52683D01*
X28011Y52630D01*
Y51972D01*
X28263Y51364D01*
X28728Y50899D01*
X29336Y50647D01*
X29994D01*
X30601Y50899D01*
X31066Y51364D01*
X31318Y51972D01*
Y52630D01*
X31066Y53237D01*
X30601Y53703D01*
X29994Y53954D01*
X29336D01*
X29282Y53932D01*
X28245Y54969D01*
Y59280D01*
X31485Y62520D01*
X34331D01*
Y66614D01*
X31627D01*
X31103Y67138D01*
X31310Y67638D01*
X31575D01*
Y71732D01*
D02*
G37*
G36*
X18459Y48701D02*
X17801D01*
X17193Y48449D01*
X16728Y47984D01*
X16476Y47376D01*
Y46718D01*
X16728Y46111D01*
X17193Y45645D01*
X17801Y45394D01*
X18459D01*
X19067Y45645D01*
X19532Y46111D01*
X19783Y46718D01*
Y47376D01*
X19532Y47984D01*
X19067Y48449D01*
X18459Y48701D01*
D02*
G37*
G36*
X37632Y48406D02*
X36974D01*
X36367Y48154D01*
X35901Y47689D01*
X35650Y47081D01*
Y46423D01*
X35901Y45815D01*
X36367Y45350D01*
X36974Y45098D01*
X37632D01*
X38240Y45350D01*
X38705Y45815D01*
X38957Y46423D01*
Y47081D01*
X38705Y47689D01*
X38240Y48154D01*
X37632Y48406D01*
D02*
G37*
G36*
X-14449Y37719D02*
X-16811D01*
Y35728D01*
X-11945D01*
X-11956Y35806D01*
X-12213Y36428D01*
X-12624Y36963D01*
X-13158Y37373D01*
X-13781Y37631D01*
X-14449Y37719D01*
D02*
G37*
G36*
X-29134D02*
X-30118D01*
Y35728D01*
X-26630D01*
X-26641Y35806D01*
X-26899Y36428D01*
X-27309Y36963D01*
X-27843Y37373D01*
X-28466Y37631D01*
X-29134Y37719D01*
D02*
G37*
G36*
X-11945Y34547D02*
X-16811D01*
Y32557D01*
X-14449D01*
X-13781Y32645D01*
X-13158Y32903D01*
X-12624Y33313D01*
X-12213Y33847D01*
X-11956Y34470D01*
X-11945Y34547D01*
D02*
G37*
G36*
X-26630D02*
X-30118D01*
Y32557D01*
X-29134D01*
X-28466Y32645D01*
X-27843Y32903D01*
X-27309Y33313D01*
X-26899Y33847D01*
X-26641Y34470D01*
X-26630Y34547D01*
D02*
G37*
G36*
X-18268Y31815D02*
Y30413D01*
X-16866D01*
X-17106Y30994D01*
X-17687Y31575D01*
X-18268Y31815D01*
D02*
G37*
G36*
X-19449D02*
X-20029Y31575D01*
X-20610Y30994D01*
X-20851Y30413D01*
X-19449D01*
Y31815D01*
D02*
G37*
G36*
X-12953Y31815D02*
Y30413D01*
X-11551D01*
X-11791Y30994D01*
X-12372Y31575D01*
X-12953Y31815D01*
D02*
G37*
G36*
X-14134Y31815D02*
X-14714Y31575D01*
X-15296Y30994D01*
X-15536Y30413D01*
X-14134D01*
Y31815D01*
D02*
G37*
G36*
X-14134Y5807D02*
X-15536D01*
X-15296Y5227D01*
X-14714Y4645D01*
X-14134Y4405D01*
Y5807D01*
D02*
G37*
G36*
X-16866Y5807D02*
X-18268D01*
Y4405D01*
X-17687Y4645D01*
X-17106Y5227D01*
X-16866Y5807D01*
D02*
G37*
G36*
X-19449D02*
X-20851D01*
X-20610Y5227D01*
X-20029Y4645D01*
X-19449Y4405D01*
Y5807D01*
D02*
G37*
G36*
X19094Y36437D02*
X10630D01*
X10268Y36287D01*
X7848Y33867D01*
X7512Y33728D01*
X7363Y33366D01*
Y28445D01*
X7512Y28083D01*
X9519Y26077D01*
X9519Y25370D01*
X6448Y22299D01*
X6427Y22320D01*
X5819Y22572D01*
X5161D01*
X4553Y22320D01*
X4088Y21855D01*
X3837Y21247D01*
Y20590D01*
X4088Y19982D01*
X4266Y19805D01*
X4523Y19478D01*
X4266Y19151D01*
X4088Y18974D01*
X3837Y18366D01*
Y17708D01*
X4088Y17101D01*
X4553Y16635D01*
X5161Y16384D01*
X5819D01*
X6427Y16635D01*
X6892Y17101D01*
X7144Y17708D01*
Y17838D01*
X7603Y18298D01*
X7974Y18372D01*
X8326Y18606D01*
X12304Y22584D01*
X12658Y22938D01*
X17205Y18391D01*
Y12476D01*
X17355Y12115D01*
X17405Y12064D01*
X17579Y11644D01*
Y11190D01*
X17405Y10770D01*
X17355Y10720D01*
X17205Y10358D01*
Y8760D01*
X17355Y8398D01*
X21686Y4067D01*
X22047Y3918D01*
X31693D01*
X32054Y4067D01*
X32645Y4658D01*
X32795Y5020D01*
Y6890D01*
X32645Y7251D01*
X29200Y10696D01*
X28839Y10846D01*
X27535D01*
X27174Y10696D01*
X26926Y10449D01*
X26507Y10275D01*
X26052D01*
X25633Y10449D01*
X25311Y10770D01*
X25137Y11190D01*
Y11644D01*
X25311Y12064D01*
X25633Y12386D01*
X25688Y12409D01*
X25760Y12480D01*
X25854Y12519D01*
X25893Y12613D01*
X25965Y12685D01*
Y12787D01*
X26004Y12881D01*
Y15930D01*
X27771Y17697D01*
X35728D01*
X36090Y17847D01*
X41208Y22965D01*
X41358Y23327D01*
Y33858D01*
X41208Y34220D01*
X41040Y34290D01*
X39239Y36090D01*
X38878Y36240D01*
X33169D01*
X32808Y36090D01*
X32302Y35584D01*
X32233Y35555D01*
X31767Y35090D01*
X31739Y35021D01*
X29513Y32795D01*
X27574D01*
X25362Y35007D01*
X25000Y35157D01*
X20586D01*
X19456Y36287D01*
X19094Y36437D01*
D02*
G37*
G36*
X37435Y10709D02*
X36777D01*
X36170Y10457D01*
X35704Y9992D01*
X35453Y9384D01*
Y8726D01*
X35704Y8118D01*
X36074Y7749D01*
Y-3715D01*
X36071Y-3716D01*
X35606Y-4182D01*
X35354Y-4789D01*
Y-5447D01*
X35606Y-6055D01*
X36071Y-6520D01*
X36679Y-6772D01*
X37337D01*
X37944Y-6520D01*
X38410Y-6055D01*
X38661Y-5447D01*
Y-4789D01*
X38410Y-4182D01*
X38041Y-3812D01*
Y7652D01*
X38043Y7653D01*
X38508Y8118D01*
X38760Y8726D01*
Y9384D01*
X38508Y9992D01*
X38043Y10457D01*
X37435Y10709D01*
D02*
G37*
%LPD*%
G36*
X20374Y34646D02*
X25000D01*
X27362Y32283D01*
X29724D01*
X33169Y35728D01*
X38878D01*
X40748Y33858D01*
X40846D01*
Y23327D01*
X35728Y18209D01*
X27559D01*
X25492Y16142D01*
Y12881D01*
X25343Y12819D01*
X24878Y12354D01*
X24626Y11746D01*
Y11088D01*
X24878Y10481D01*
X25343Y10016D01*
X25951Y9764D01*
X26608D01*
X27216Y10016D01*
X27535Y10335D01*
X28839D01*
X32283Y6890D01*
Y5020D01*
X31693Y4429D01*
X22047D01*
X17717Y8760D01*
Y10358D01*
X17839Y10481D01*
X18090Y11088D01*
Y11746D01*
X17839Y12354D01*
X17717Y12476D01*
Y18602D01*
X13019Y23300D01*
X13393Y23674D01*
X13393Y23674D01*
X13393Y23674D01*
X17671Y27952D01*
X21751D01*
Y26850D01*
X21718D01*
X21111Y26599D01*
X20645Y26133D01*
X20394Y25526D01*
Y24868D01*
X20645Y24260D01*
X21111Y23795D01*
X21718Y23543D01*
X22376D01*
X22984Y23795D01*
X23311Y24122D01*
X23622Y24211D01*
X23933Y24122D01*
X24260Y23795D01*
X24868Y23543D01*
X25526D01*
X26133Y23795D01*
X26599Y24260D01*
X26850Y24868D01*
Y25526D01*
X26599Y26133D01*
X26133Y26599D01*
X25690Y26782D01*
Y29376D01*
X25608Y29790D01*
X25373Y30142D01*
X23941Y31574D01*
X23589Y31808D01*
X23175Y31891D01*
X16488D01*
X16074Y31808D01*
X15722Y31574D01*
X15722Y31573D01*
X10234Y26085D01*
X7874Y28445D01*
Y33366D01*
X8071D01*
X10630Y35925D01*
X19094D01*
X20374Y34646D01*
D02*
G37*
D11*
X27362Y54603D02*
Y59646D01*
X32283Y64567D01*
X27362Y54603D02*
X29665Y52301D01*
D15*
X40157Y77559D02*
D03*
X38189D02*
D03*
X36220D02*
D03*
X42126D02*
D03*
X34252D02*
D03*
X32283D02*
D03*
D16*
X28346Y87402D02*
D03*
X46063D02*
D03*
D18*
X32283Y64567D02*
D03*
X38583D02*
D03*
X29528Y69685D02*
D03*
X35827D02*
D03*
D57*
X-21654Y-26772D02*
X-16280Y-32146D01*
X-24252Y-33130D02*
X15283D01*
X-26526Y-30856D02*
X-24252Y-33130D01*
X-16280Y-32146D02*
X14876D01*
X22356Y-24665D01*
X15283Y-33130D02*
X22764Y-25650D01*
X2756Y-26772D02*
Y-16043D01*
X1575Y-27953D02*
X2756Y-26772D01*
X-492Y-12795D02*
X2756Y-16043D01*
X-5020Y-12795D02*
X-492D01*
X984Y-23819D02*
Y-20866D01*
X-1181Y-25984D02*
X984Y-23819D01*
X22090Y84831D02*
X22215Y84706D01*
Y83238D02*
Y84706D01*
X25967Y80031D02*
X33945D01*
X14764Y71612D02*
X25436Y82284D01*
X36614D01*
X17555Y60222D02*
Y71619D01*
X14764Y58465D02*
Y71612D01*
X15748Y71204D02*
X25646Y81102D01*
X11417Y72441D02*
X22215Y83238D01*
X15748Y59055D02*
Y71204D01*
X12598Y60630D02*
Y72230D01*
X13780Y56693D02*
Y72019D01*
X25225Y83465D02*
X37402D01*
X25646Y81102D02*
X35433D01*
X12598Y72230D02*
X25014Y84646D01*
X11417Y61417D02*
Y72441D01*
X25014Y84646D02*
X42126D01*
X13780Y72019D02*
X25225Y83465D01*
X17555Y71619D02*
X25967Y80031D01*
X-1575Y69685D02*
X720Y67390D01*
X-13780Y69685D02*
X-1575D01*
X-1240Y67776D02*
X-394Y66929D01*
X-16929Y69685D02*
X-15020Y67776D01*
X-1240D01*
X720Y52036D02*
Y67390D01*
X-394Y51575D02*
Y66929D01*
Y51575D02*
X3051Y48130D01*
X8169D01*
X720Y52036D02*
X3642Y49114D01*
X8760D01*
X4049Y50098D02*
X11024D01*
X2264Y51884D02*
X4049Y50098D01*
X9057Y47242D02*
X9252Y47047D01*
X8169Y48130D02*
X9057Y47242D01*
X8760Y49114D02*
X9843Y48031D01*
X9252Y47047D02*
X12219D01*
X9843Y48031D02*
X11811D01*
X12992Y49213D01*
X12415Y47244D02*
X12598D01*
X12219Y47047D02*
X12415Y47244D01*
X12598D02*
X13976Y48622D01*
Y51772D01*
X16929Y54724D01*
X12992Y52362D02*
X15748Y55118D01*
Y57480D01*
Y59055D02*
X16929Y57874D01*
Y54724D02*
Y57874D01*
X14764Y58465D02*
X15748Y57480D01*
X17555Y60222D02*
X17658Y60120D01*
X2264Y51884D02*
Y54429D01*
X12992Y49213D02*
Y52362D01*
X5689Y53720D02*
X12598Y60630D01*
X5610Y55610D02*
X11417Y61417D01*
X36614Y82284D02*
X38189Y80709D01*
X35433Y81102D02*
X36220Y80315D01*
Y77559D02*
Y80315D01*
X38189Y77559D02*
Y80709D01*
X33945Y80031D02*
X34252Y79724D01*
Y77559D02*
Y79724D01*
X37402Y83465D02*
X40157Y80709D01*
X42126Y84646D02*
X45768Y81004D01*
X-61811Y85433D02*
X-55905Y91339D01*
X-51831Y90295D02*
X47106D01*
X-56693Y85433D02*
X-51831Y90295D01*
X-55905Y91339D02*
X47638D01*
X47106Y90295D02*
X48031Y89370D01*
Y83858D02*
Y89370D01*
X47638Y91339D02*
X49213Y89764D01*
Y84252D02*
Y89764D01*
X51378Y60118D02*
Y82087D01*
X49213Y84252D02*
X51378Y82087D01*
X49941Y62559D02*
Y81949D01*
X48031Y83858D02*
X49941Y81949D01*
X34252Y71260D02*
Y77559D01*
X-34784Y33209D02*
X-25000Y23425D01*
X-34784Y33209D02*
Y49075D01*
X-34646Y49213D01*
X-25000Y-6890D02*
Y23425D01*
X-40551Y49213D02*
X-36220Y44882D01*
Y31890D02*
Y44882D01*
X-26378Y-7874D02*
Y22047D01*
X-36220Y31890D02*
X-26378Y22047D01*
X-25000Y-6890D02*
X-23622Y-8268D01*
Y-16929D02*
Y-8268D01*
X-25591Y-14173D02*
Y-8661D01*
X-26378Y-7874D02*
X-25591Y-8661D01*
X22356Y-24665D02*
X22579D01*
X43799Y-3445D01*
X22764Y-25650D02*
X23169D01*
X43799Y-3445D02*
X53445D01*
X23169Y-25650D02*
X44191Y-4628D01*
X53935D01*
X-9843Y7874D02*
X1969Y19685D01*
Y36713D01*
X6004Y40748D01*
X689Y19882D02*
Y40551D01*
X-11122Y8071D02*
X689Y19882D01*
X-9843Y4612D02*
Y7874D01*
X44094Y58858D02*
Y70473D01*
X45768Y72146D01*
X41732Y56496D02*
X44094Y58858D01*
X45768Y72146D02*
Y81004D01*
X49941Y62559D02*
X50394Y62106D01*
Y55897D02*
Y62106D01*
Y55897D02*
X55118Y51172D01*
Y46378D02*
Y51172D01*
X51378Y60118D02*
X55118Y56378D01*
X40157Y66142D02*
Y77559D01*
X38583Y64567D02*
X40157Y66142D01*
X34252Y71260D02*
X35827Y69685D01*
X40157Y77559D02*
Y80709D01*
X4606Y53720D02*
X5689D01*
X3445Y55610D02*
X5610D01*
X4281Y53396D02*
X4606Y53720D01*
X-27559Y-29823D02*
Y-26772D01*
X51575Y31496D02*
X56595Y26476D01*
X56299Y30315D02*
X57778Y28837D01*
X-11909Y-7972D02*
Y3937D01*
X-11122Y4724D02*
Y8071D01*
X-11909Y3937D02*
X-11122Y4724D01*
X-10728Y-7087D02*
Y3726D01*
X-9843Y4612D01*
X-11909Y-7972D02*
X984Y-20866D01*
X-10728Y-7087D02*
X-5020Y-12795D01*
X2264Y54429D02*
X3445Y55610D01*
X3740Y68307D02*
X9449Y74016D01*
X3740Y59547D02*
Y68307D01*
X-26526Y-30856D02*
X-26526D01*
X-27559Y-29823D02*
X-26526Y-30856D01*
X53935Y-4628D02*
X57778Y-785D01*
X53445Y-3445D02*
X56595Y-295D01*
X57778Y-785D02*
Y28837D01*
X56595Y-295D02*
Y26476D01*
X48327Y43386D02*
Y43602D01*
X55118Y36378D02*
Y36595D01*
X48327Y43386D02*
X55118Y36595D01*
D59*
X-23622Y11516D02*
X-22047Y13091D01*
X-23622Y-3445D02*
Y11516D01*
Y-3445D02*
X-21260Y-5807D01*
X-22047Y13091D02*
X-18858D01*
X24606Y25787D02*
Y29376D01*
X23175Y30807D02*
X24606Y29376D01*
X10855Y25174D02*
X16488Y30807D01*
X22835Y25984D02*
Y28642D01*
X22441Y29035D02*
X22835Y28642D01*
X12627Y24440D02*
X17222Y29035D01*
X22441D01*
X16488Y30807D02*
X23175D01*
X5810Y18037D02*
X7145Y19373D01*
X5490Y18037D02*
X5810D01*
X5490Y20919D02*
X5716Y21145D01*
X10855Y25174D02*
Y25174D01*
X5716Y21145D02*
X6826D01*
X12627Y24440D02*
Y24440D01*
X7145Y19373D02*
X7560D01*
X12627Y24440D01*
X6826Y21145D02*
X10855Y25174D01*
X-18858Y16437D02*
X-13543Y19783D01*
X24606Y25787D02*
X25197Y25197D01*
X22047D02*
X22835Y25984D01*
D60*
X13805Y85065D02*
X16880D01*
X13780Y85039D02*
X13805Y85065D01*
X12526D02*
X13780D01*
X5315Y77854D02*
X12526Y85065D01*
X-23819Y28839D02*
Y54232D01*
Y28839D02*
X-21457Y26476D01*
X-18858D01*
X-24094Y76471D02*
X-22711Y77854D01*
X5315D01*
X-24094Y57874D02*
Y76471D01*
X-18858Y26476D02*
X-13543D01*
D61*
X37057Y9006D02*
X37106Y9055D01*
X37008Y-5118D02*
X37057Y-5069D01*
Y9006D01*
X29809Y67042D02*
Y69404D01*
X29528Y69685D02*
X29809Y69404D01*
Y67042D02*
X32283Y64567D01*
D62*
X-57382Y72342D02*
X-44094Y59055D01*
X-59055Y77559D02*
X-57382Y75886D01*
X-62205Y77559D02*
X-59055D01*
X-57382Y72342D02*
Y75886D01*
X-44094Y57874D02*
Y59055D01*
X-38780Y77559D02*
X-34095Y72874D01*
X-41929Y77559D02*
X-38780D01*
X-34095Y57874D02*
Y72874D01*
D64*
X6433Y10827D02*
X12205Y5055D01*
X6299Y10827D02*
X6433D01*
X12205Y-5055D02*
Y5055D01*
X11909Y-10039D02*
Y-5351D01*
X12205Y-5055D01*
D65*
X11909Y-10039D02*
X13386Y-11516D01*
X16752Y-14882D01*
X4921Y12205D02*
X6299Y10827D01*
X2854Y12205D02*
X4921D01*
D69*
X-24094Y57874D02*
D03*
X-34095D02*
D03*
X-44094D02*
D03*
D70*
X-18858Y13091D02*
D03*
X-13543Y29823D02*
D03*
Y26476D02*
D03*
Y23130D02*
D03*
Y19783D02*
D03*
Y16437D02*
D03*
Y13091D02*
D03*
Y9744D02*
D03*
Y6398D02*
D03*
X-18858Y6398D02*
D03*
X-18858Y9744D02*
D03*
X-18858Y16437D02*
D03*
Y19783D02*
D03*
Y23130D02*
D03*
X-18858Y26476D02*
D03*
X-18858Y29823D02*
D03*
D71*
X55118Y86378D02*
D03*
D72*
Y76378D02*
D03*
Y66378D02*
D03*
Y56378D02*
D03*
Y46378D02*
D03*
Y36378D02*
D03*
X-31417Y86614D02*
D03*
X-21417D02*
D03*
X-11417D02*
D03*
D73*
X-30709Y35138D02*
D03*
Y1083D02*
D03*
D74*
X-17402Y35138D02*
D03*
Y1083D02*
D03*
D75*
X-1417Y86614D02*
D03*
D76*
X0Y0D02*
D03*
X48425Y-15748D02*
D03*
D77*
X-8268Y-22047D02*
D03*
X4331Y-12598D02*
D03*
X7874D02*
D03*
X4724Y-25591D02*
D03*
X1575Y-27953D02*
D03*
X-1181Y-25984D02*
D03*
X9055Y-21260D02*
D03*
X16339Y80835D02*
D03*
X16880Y85065D02*
D03*
X13780D02*
D03*
X12205Y77559D02*
D03*
X22090Y84831D02*
D03*
X-28346Y48425D02*
D03*
X-19685D02*
D03*
X-17323Y73622D02*
D03*
X-28346Y78740D02*
D03*
Y74803D02*
D03*
Y70866D02*
D03*
X-20472Y72441D02*
D03*
X-13780Y69685D02*
D03*
X-16929D02*
D03*
X-55593Y71074D02*
D03*
X11024Y50098D02*
D03*
X17658Y60120D02*
D03*
X13780Y56693D02*
D03*
X-61811Y85433D02*
D03*
X-56693D02*
D03*
X-40551Y49213D02*
D03*
X-34646D02*
D03*
X-25591Y-14173D02*
D03*
X-23622Y-16929D02*
D03*
X-4331Y48031D02*
D03*
X-53543Y68898D02*
D03*
X37008Y-5118D02*
D03*
X-21260Y-5807D02*
D03*
X-32776Y-21260D02*
D03*
X-16437D02*
D03*
X-27559Y-26772D02*
D03*
X-21654D02*
D03*
X51575Y31496D02*
D03*
X56299Y30315D02*
D03*
X6004Y40748D02*
D03*
X689Y40551D02*
D03*
X-3347Y42815D02*
D03*
X9449Y74016D02*
D03*
X3740Y59547D02*
D03*
X4281Y53396D02*
D03*
X-6890Y82480D02*
D03*
X50197Y38189D02*
D03*
X41732Y56496D02*
D03*
X48031Y62303D02*
D03*
X47933Y58268D02*
D03*
X37106Y9055D02*
D03*
X48327Y43602D02*
D03*
X-4724Y56890D02*
D03*
X54035Y2992D02*
D03*
X40157Y13169D02*
D03*
X13386Y-11516D02*
D03*
X16831Y-14862D02*
D03*
X6299Y10827D02*
D03*
X2756Y12205D02*
D03*
X11319Y11417D02*
D03*
X17618Y3543D02*
D03*
X18130Y47047D02*
D03*
X18183Y33179D02*
D03*
X33169Y34154D02*
D03*
X27756Y7677D02*
D03*
X22982Y7726D02*
D03*
X17421Y25098D02*
D03*
X5490Y20919D02*
D03*
X26280Y11417D02*
D03*
X29665Y52301D02*
D03*
X37303Y46752D02*
D03*
Y34252D02*
D03*
X11152Y32677D02*
D03*
X16260Y-5896D02*
D03*
X19542Y-10379D02*
D03*
X18012Y295D02*
D03*
X21063Y11417D02*
D03*
X20374Y70669D02*
D03*
X33906Y60386D02*
D03*
X28839Y74213D02*
D03*
X-492Y46358D02*
D03*
X-2953Y32087D02*
D03*
X25197Y25197D02*
D03*
X22047D02*
D03*
X5490Y18037D02*
D03*
X23622Y38189D02*
D03*
X33071D02*
D03*
Y47638D02*
D03*
X23622D02*
D03*
Y42913D02*
D03*
X33071D02*
D03*
X28346Y38189D02*
D03*
Y47638D02*
D03*
X28346Y42913D02*
D03*
X16437Y11417D02*
D03*
X39415Y17269D02*
D03*
X28693Y24653D02*
D03*
D78*
X-41929Y77559D02*
D03*
X-62205D02*
D03*
M02*
