G04*
G04 #@! TF.GenerationSoftware,Altium Limited,Altium Designer,23.10.1 (27)*
G04*
G04 Layer_Color=8421504*
%FSLAX25Y25*%
%MOIN*%
G70*
G04*
G04 #@! TF.SameCoordinates,13E47035-5D8A-42FE-96CF-1707A3A9F588*
G04*
G04*
G04 #@! TF.FilePolarity,Positive*
G04*
G01*
G75*
%ADD15R,0.01181X0.03150*%
%ADD16R,0.01575X0.03150*%
%ADD17P,0.04454X4X270.0*%
%ADD18R,0.03150X0.03150*%
%ADD19R,0.03150X0.03150*%
%ADD20R,0.04724X0.04724*%
%ADD21R,0.06693X0.03150*%
%ADD22R,0.03150X0.06693*%
%ADD23R,0.00984X0.03543*%
%ADD24R,0.06299X0.00787*%
%ADD25R,0.04016X0.04055*%
%ADD26C,0.00787*%
%ADD27R,0.02480X0.02165*%
G04:AMPARAMS|DCode=28|XSize=7.87mil|YSize=33.07mil|CornerRadius=0.98mil|HoleSize=0mil|Usage=FLASHONLY|Rotation=180.000|XOffset=0mil|YOffset=0mil|HoleType=Round|Shape=RoundedRectangle|*
%AMROUNDEDRECTD28*
21,1,0.00787,0.03110,0,0,180.0*
21,1,0.00591,0.03307,0,0,180.0*
1,1,0.00197,-0.00295,0.01555*
1,1,0.00197,0.00295,0.01555*
1,1,0.00197,0.00295,-0.01555*
1,1,0.00197,-0.00295,-0.01555*
%
%ADD28ROUNDEDRECTD28*%
G04:AMPARAMS|DCode=29|XSize=33.07mil|YSize=7.87mil|CornerRadius=0.98mil|HoleSize=0mil|Usage=FLASHONLY|Rotation=180.000|XOffset=0mil|YOffset=0mil|HoleType=Round|Shape=RoundedRectangle|*
%AMROUNDEDRECTD29*
21,1,0.03307,0.00591,0,0,180.0*
21,1,0.03110,0.00787,0,0,180.0*
1,1,0.00197,-0.01555,0.00295*
1,1,0.00197,0.01555,0.00295*
1,1,0.00197,0.01555,-0.00295*
1,1,0.00197,-0.01555,-0.00295*
%
%ADD29ROUNDEDRECTD29*%
%ADD30R,0.07717X0.07717*%
%ADD31R,0.09449X0.07874*%
D15*
X-57480Y79921D02*
D03*
X-59449D02*
D03*
X-67323D02*
D03*
X-61417D02*
D03*
X-63386D02*
D03*
X-65354D02*
D03*
X-21654Y-21260D02*
D03*
X-23622D02*
D03*
X-25591D02*
D03*
X-19685D02*
D03*
X-27559D02*
D03*
X-29528D02*
D03*
X24213Y77559D02*
D03*
X22244D02*
D03*
X14370D02*
D03*
X20276D02*
D03*
X18307D02*
D03*
X16339D02*
D03*
X3150Y-21260D02*
D03*
X1181D02*
D03*
X-787D02*
D03*
X5118D02*
D03*
X-2756D02*
D03*
X-4724D02*
D03*
D16*
X-71260Y89764D02*
D03*
X-53543D02*
D03*
X-33465Y-31102D02*
D03*
X-15748D02*
D03*
X10433Y87402D02*
D03*
X28150D02*
D03*
X-8661Y-31102D02*
D03*
X9055D02*
D03*
D17*
X-13422Y-13448D02*
D03*
X-17877Y-8993D02*
D03*
D18*
X-31988Y-9941D02*
D03*
X-25689D02*
D03*
X-32087Y-5118D02*
D03*
X-25787D02*
D03*
X-14173Y42913D02*
D03*
X-7874D02*
D03*
X-7874Y78740D02*
D03*
X-1575D02*
D03*
X-2362Y37205D02*
D03*
X3937D02*
D03*
X-7874Y48031D02*
D03*
X-14173D02*
D03*
X15354Y-2362D02*
D03*
X21654D02*
D03*
X20571Y3051D02*
D03*
X26870D02*
D03*
X591Y32087D02*
D03*
X6890D02*
D03*
X1575Y27067D02*
D03*
X-4724D02*
D03*
Y22047D02*
D03*
X1575D02*
D03*
X-4724Y16929D02*
D03*
X1575D02*
D03*
X3051Y46358D02*
D03*
X9350D02*
D03*
X38189Y61417D02*
D03*
X44488D02*
D03*
D19*
X43504Y14075D02*
D03*
Y20374D02*
D03*
X38386Y-1575D02*
D03*
Y4724D02*
D03*
X43504Y-1575D02*
D03*
Y4724D02*
D03*
X33858Y67421D02*
D03*
Y73721D02*
D03*
X46850Y54724D02*
D03*
Y48425D02*
D03*
Y38189D02*
D03*
Y31890D02*
D03*
X26280Y14961D02*
D03*
Y21260D02*
D03*
X31201Y14075D02*
D03*
Y20374D02*
D03*
X36122Y14075D02*
D03*
Y20374D02*
D03*
X21358Y14961D02*
D03*
Y21260D02*
D03*
X16437Y14961D02*
D03*
Y21260D02*
D03*
X11319Y14961D02*
D03*
Y21260D02*
D03*
X14370Y69291D02*
D03*
Y62992D02*
D03*
X23917Y70669D02*
D03*
Y64370D02*
D03*
X28839Y70669D02*
D03*
Y64370D02*
D03*
X33858Y79528D02*
D03*
Y85827D02*
D03*
X8169Y53248D02*
D03*
Y59547D02*
D03*
D20*
X-29331Y42126D02*
D03*
X-21063D02*
D03*
D21*
X-4724Y53347D02*
D03*
Y69882D02*
D03*
D22*
X35827Y-21260D02*
D03*
X19291D02*
D03*
D23*
X48130Y7008D02*
D03*
X50098D02*
D03*
X52067D02*
D03*
X54035D02*
D03*
X48130Y17992D02*
D03*
X50098D02*
D03*
X52067Y17992D02*
D03*
X54035Y17992D02*
D03*
D24*
X51083Y12500D02*
D03*
D25*
X32480Y-925D02*
D03*
Y4862D02*
D03*
D26*
X27559Y-4134D02*
D03*
X26181D02*
D03*
X27559Y-2756D02*
D03*
X26181D02*
D03*
X27559Y-1378D02*
D03*
X26181D02*
D03*
D27*
X22047Y-7874D02*
D03*
X25984D02*
D03*
D28*
X38583Y56437D02*
D03*
X37008D02*
D03*
X35433D02*
D03*
X33858D02*
D03*
X32283D02*
D03*
X30709D02*
D03*
X29134D02*
D03*
X27559D02*
D03*
X25984D02*
D03*
X24409D02*
D03*
X22835D02*
D03*
X21260D02*
D03*
X19685D02*
D03*
X18110D02*
D03*
Y29390D02*
D03*
X19685D02*
D03*
X21260D02*
D03*
X22835Y29390D02*
D03*
X24409D02*
D03*
X25984D02*
D03*
X27559D02*
D03*
X29134D02*
D03*
X30709D02*
D03*
X32283D02*
D03*
X33858D02*
D03*
X35433Y29390D02*
D03*
X37008D02*
D03*
X38583D02*
D03*
D29*
X41870Y32677D02*
D03*
Y34252D02*
D03*
Y35827D02*
D03*
Y37402D02*
D03*
Y38976D02*
D03*
Y40551D02*
D03*
Y42126D02*
D03*
Y43701D02*
D03*
Y45276D02*
D03*
Y46850D02*
D03*
Y48425D02*
D03*
Y50000D02*
D03*
Y51575D02*
D03*
Y53150D02*
D03*
X14823D02*
D03*
Y51575D02*
D03*
Y50000D02*
D03*
Y48425D02*
D03*
Y46850D02*
D03*
Y45276D02*
D03*
Y43701D02*
D03*
Y42126D02*
D03*
Y40551D02*
D03*
Y38976D02*
D03*
Y37402D02*
D03*
Y35827D02*
D03*
Y34252D02*
D03*
Y32677D02*
D03*
D30*
X28346Y42913D02*
D03*
D31*
X42913Y68898D02*
D03*
Y84646D02*
D03*
M02*
