G04*
G04 #@! TF.GenerationSoftware,Altium Limited,Altium Designer,23.10.1 (27)*
G04*
G04 Layer_Color=32768*
%FSLAX25Y25*%
%MOIN*%
G70*
G04*
G04 #@! TF.SameCoordinates,13E47035-5D8A-42FE-96CF-1707A3A9F588*
G04*
G04*
G04 #@! TF.FilePolarity,Positive*
G04*
G01*
G75*
%ADD10C,0.00394*%
%ADD59C,0.01181*%
%ADD81C,0.00197*%
%ADD82C,0.01500*%
%ADD83C,0.01000*%
D10*
X-52067Y75591D02*
Y79528D01*
X-54035Y77559D02*
X-50098D01*
D59*
X-27363Y214762D02*
X-31299D01*
Y211810D01*
X-29331D01*
X-31299D01*
Y208858D01*
X-25396D02*
X-23428D01*
X-24412D01*
Y212794D01*
X-25396D01*
X-20476Y208858D02*
Y212794D01*
X-17524D01*
X-16540Y211810D01*
Y208858D01*
X-14572D02*
X-12605D01*
X-13588D01*
Y212794D01*
X-14572D01*
X-9653Y208858D02*
X-6701D01*
X-5717Y209842D01*
X-6701Y210826D01*
X-8669D01*
X-9653Y211810D01*
X-8669Y212794D01*
X-5717D01*
X-3749Y214762D02*
Y208858D01*
Y211810D01*
X-2765Y212794D01*
X-797D01*
X187Y211810D01*
Y208858D01*
X2155Y212794D02*
X3139D01*
Y211810D01*
X2155D01*
Y212794D01*
Y209842D02*
X3139D01*
Y208858D01*
X2155D01*
Y209842D01*
X12978Y214762D02*
Y208858D01*
Y211810D01*
X16914D01*
Y214762D01*
Y208858D01*
X18881D02*
Y212794D01*
X20849Y214762D01*
X22817Y212794D01*
Y208858D01*
Y211810D01*
X18881D01*
X28721Y213778D02*
X27737Y214762D01*
X25769D01*
X24785Y213778D01*
Y212794D01*
X25769Y211810D01*
X27737D01*
X28721Y210826D01*
Y209842D01*
X27737Y208858D01*
X25769D01*
X24785Y209842D01*
X30689Y214762D02*
Y208858D01*
X34624D01*
X-28348Y223621D02*
X-29332Y224604D01*
X-31299D01*
X-32283Y223621D01*
Y222637D01*
X-31299Y221653D01*
X-29332D01*
X-28348Y220669D01*
Y219685D01*
X-29332Y218701D01*
X-31299D01*
X-32283Y219685D01*
X-25396Y218701D02*
X-23428D01*
X-22444Y219685D01*
Y221653D01*
X-23428Y222637D01*
X-25396D01*
X-26380Y221653D01*
Y219685D01*
X-25396Y218701D01*
X-20476D02*
X-18508D01*
X-19492D01*
Y224604D01*
X-20476D01*
X-11621D02*
Y218701D01*
X-14573D01*
X-15557Y219685D01*
Y221653D01*
X-14573Y222637D01*
X-11621D01*
X-6701Y218701D02*
X-8669D01*
X-9653Y219685D01*
Y221653D01*
X-8669Y222637D01*
X-6701D01*
X-5717Y221653D01*
Y220669D01*
X-9653D01*
X-3749Y222637D02*
Y218701D01*
Y220669D01*
X-2765Y221653D01*
X-1781Y222637D01*
X-798D01*
X2154Y218701D02*
Y222637D01*
X3138D01*
X4122Y221653D01*
Y218701D01*
Y221653D01*
X5106Y222637D01*
X6090Y221653D01*
Y218701D01*
X9042Y222637D02*
X11010D01*
X11993Y221653D01*
Y218701D01*
X9042D01*
X8058Y219685D01*
X9042Y220669D01*
X11993D01*
X13961Y218701D02*
X16913D01*
X17897Y219685D01*
X16913Y220669D01*
X14945D01*
X13961Y221653D01*
X14945Y222637D01*
X17897D01*
X19865Y218701D02*
Y224604D01*
Y220669D02*
X22817Y222637D01*
X19865Y220669D02*
X22817Y218701D01*
X25769Y222637D02*
X26752D01*
Y221653D01*
X25769D01*
Y222637D01*
Y219685D02*
X26752D01*
Y218701D01*
X25769D01*
Y219685D01*
X40528Y223621D02*
X39544Y224604D01*
X37576D01*
X36592Y223621D01*
Y219685D01*
X37576Y218701D01*
X39544D01*
X40528Y219685D01*
Y221653D01*
X38560D01*
X42496Y222637D02*
Y218701D01*
Y220669D01*
X43479Y221653D01*
X44463Y222637D01*
X45447D01*
X51351Y218701D02*
X49383D01*
X48399Y219685D01*
Y221653D01*
X49383Y222637D01*
X51351D01*
X52335Y221653D01*
Y220669D01*
X48399D01*
X57254Y218701D02*
X55287D01*
X54303Y219685D01*
Y221653D01*
X55287Y222637D01*
X57254D01*
X58238Y221653D01*
Y220669D01*
X54303D01*
X60206Y218701D02*
Y222637D01*
X63158D01*
X64142Y221653D01*
Y218701D01*
X72013D02*
X75949Y222637D01*
X87756Y223621D02*
X86773Y224604D01*
X84805D01*
X83821Y223621D01*
Y222637D01*
X84805Y221653D01*
X86773D01*
X87756Y220669D01*
Y219685D01*
X86773Y218701D01*
X84805D01*
X83821Y219685D01*
X89724Y218701D02*
X91692D01*
X90708D01*
Y222637D01*
X89724D01*
X94644Y218701D02*
X96612D01*
X95628D01*
Y224604D01*
X94644D01*
X99564Y218701D02*
Y224604D01*
Y220669D02*
X102515Y222637D01*
X99564Y220669D02*
X102515Y218701D01*
X105467D02*
X108419D01*
X109403Y219685D01*
X108419Y220669D01*
X106451D01*
X105467Y221653D01*
X106451Y222637D01*
X109403D01*
X115306D02*
X112355D01*
X111371Y221653D01*
Y219685D01*
X112355Y218701D01*
X115306D01*
X117274Y222637D02*
Y218701D01*
Y220669D01*
X118258Y221653D01*
X119242Y222637D01*
X120226D01*
X126130Y218701D02*
X124162D01*
X123178Y219685D01*
Y221653D01*
X124162Y222637D01*
X126130D01*
X127114Y221653D01*
Y220669D01*
X123178D01*
X132033Y218701D02*
X130066D01*
X129082Y219685D01*
Y221653D01*
X130066Y222637D01*
X132033D01*
X133017Y221653D01*
Y220669D01*
X129082D01*
X134985Y218701D02*
Y222637D01*
X137937D01*
X138921Y221653D01*
Y218701D01*
X140889Y222637D02*
X141873D01*
Y221653D01*
X140889D01*
Y222637D01*
Y219685D02*
X141873D01*
Y218701D01*
X140889D01*
Y219685D01*
X151712Y224604D02*
Y218701D01*
X153680Y220669D01*
X155648Y218701D01*
Y224604D01*
X157616D02*
Y218701D01*
Y221653D01*
X158600Y222637D01*
X160567D01*
X161551Y221653D01*
Y218701D01*
X163519D02*
X165487D01*
X164503D01*
Y222637D01*
X163519D01*
X169423Y223621D02*
Y222637D01*
X168439D01*
X170407D01*
X169423D01*
Y219685D01*
X170407Y218701D01*
X176310D02*
X174343D01*
X173359Y219685D01*
Y221653D01*
X174343Y222637D01*
X176310D01*
X177294Y221653D01*
Y220669D01*
X173359D01*
D81*
X-70571Y92913D02*
X-33563Y92913D01*
X-70571Y62205D02*
X-33563Y62205D01*
Y92913D01*
X-70571Y62205D02*
Y92913D01*
X-10354Y-1673D02*
Y37894D01*
X-48425Y-1673D02*
X-10354D01*
X-48425D02*
Y37894D01*
X-10354D01*
X12185Y59075D02*
X44508D01*
X12185Y26752D02*
X44508D01*
Y59075D01*
X12185Y26752D02*
Y59075D01*
D82*
X-39117Y345402D02*
X316790D01*
X-39117Y357402D02*
X316790D01*
X-39117Y237402D02*
Y357402D01*
Y237402D02*
X1874D01*
X-39117Y249402D02*
X1874D01*
X-39117Y261402D02*
X1874D01*
X-39117Y273402D02*
X1874D01*
X-39117Y285402D02*
X1874D01*
X-39117Y297402D02*
X1874D01*
X-39117Y309402D02*
X1874D01*
X-39117Y321402D02*
X1874D01*
X-39117Y333402D02*
X1874D01*
Y237402D02*
Y357402D01*
Y237402D02*
X134836D01*
X1874Y249402D02*
X134836D01*
X1874Y261402D02*
X134836D01*
X1874Y273402D02*
X134836D01*
X1874Y285402D02*
X134836D01*
X1874Y297402D02*
X134836D01*
X1874Y309402D02*
X134836D01*
X1874Y321402D02*
X134836D01*
X1874Y333402D02*
X134836D01*
Y237402D02*
Y357402D01*
Y237402D02*
X194821D01*
X134836Y249402D02*
X194821D01*
X134836Y261402D02*
X194821D01*
X134836Y273402D02*
X194821D01*
X134836Y285402D02*
X194821D01*
X134836Y297402D02*
X194821D01*
X134836Y309402D02*
X194821D01*
X134836Y321402D02*
X194821D01*
X134836Y333402D02*
X194821D01*
Y237402D02*
Y357402D01*
Y237402D02*
X259804D01*
X194821Y249402D02*
X259804D01*
X194821Y261402D02*
X259804D01*
X194821Y273402D02*
X259804D01*
X194821Y285402D02*
X259804D01*
X194821Y297402D02*
X259804D01*
X194821Y309402D02*
X259804D01*
X194821Y321402D02*
X259804D01*
X194821Y333402D02*
X259804D01*
Y237402D02*
Y357402D01*
Y237402D02*
X316790D01*
X259804Y249402D02*
X316790D01*
X259804Y261402D02*
X316790D01*
X259804Y273402D02*
X316790D01*
X259804Y285402D02*
X316790D01*
X259804Y297402D02*
X316790D01*
X259804Y309402D02*
X316790D01*
X259804Y321402D02*
X316790D01*
X259804Y333402D02*
X316790D01*
Y237402D02*
Y357402D01*
D83*
X-32117Y354400D02*
Y348402D01*
X-28119D01*
X-25120Y352400D02*
X-23120D01*
X-22120Y351401D01*
Y348402D01*
X-25120D01*
X-26119Y349401D01*
X-25120Y350401D01*
X-22120D01*
X-20121Y352400D02*
Y349401D01*
X-19121Y348402D01*
X-16122D01*
Y347402D01*
X-17122Y346402D01*
X-18122D01*
X-16122Y348402D02*
Y352400D01*
X-11124Y348402D02*
X-13123D01*
X-14123Y349401D01*
Y351401D01*
X-13123Y352400D01*
X-11124D01*
X-10124Y351401D01*
Y350401D01*
X-14123D01*
X-8125Y352400D02*
Y348402D01*
Y350401D01*
X-7125Y351401D01*
X-6126Y352400D01*
X-5126D01*
X-28119Y276402D02*
X-32117D01*
X-28119Y280400D01*
Y281400D01*
X-29118Y282400D01*
X-31118D01*
X-32117Y281400D01*
Y300402D02*
X-30118D01*
X-31118D01*
Y306400D01*
X-32117Y305400D01*
X8874Y348402D02*
Y354400D01*
X12873Y348402D01*
Y354400D01*
X15872Y352400D02*
X17871D01*
X18871Y351401D01*
Y348402D01*
X15872D01*
X14872Y349401D01*
X15872Y350401D01*
X18871D01*
X20870Y348402D02*
Y352400D01*
X21870D01*
X22870Y351401D01*
Y348402D01*
Y351401D01*
X23869Y352400D01*
X24869Y351401D01*
Y348402D01*
X29867D02*
X27868D01*
X26868Y349401D01*
Y351401D01*
X27868Y352400D01*
X29867D01*
X30867Y351401D01*
Y350401D01*
X26868D01*
X8874Y246400D02*
Y240402D01*
X11873D01*
X12873Y241401D01*
Y242401D01*
X11873Y243401D01*
X8874D01*
X11873D01*
X12873Y244400D01*
Y245400D01*
X11873Y246400D01*
X8874D01*
X15872Y240402D02*
X17871D01*
X18871Y241401D01*
Y243401D01*
X17871Y244400D01*
X15872D01*
X14872Y243401D01*
Y241401D01*
X15872Y240402D01*
X21870Y245400D02*
Y244400D01*
X20870D01*
X22870D01*
X21870D01*
Y241401D01*
X22870Y240402D01*
X26868Y245400D02*
Y244400D01*
X25868D01*
X27868D01*
X26868D01*
Y241401D01*
X27868Y240402D01*
X31867D02*
X33866D01*
X34866Y241401D01*
Y243401D01*
X33866Y244400D01*
X31867D01*
X30867Y243401D01*
Y241401D01*
X31867Y240402D01*
X36865D02*
Y244400D01*
X37865D01*
X38864Y243401D01*
Y240402D01*
Y243401D01*
X39864Y244400D01*
X40864Y243401D01*
Y240402D01*
X51860Y246400D02*
X49861D01*
X48861Y245400D01*
Y241401D01*
X49861Y240402D01*
X51860D01*
X52860Y241401D01*
Y245400D01*
X51860Y246400D01*
X54859Y244400D02*
X56858Y240402D01*
X58858Y244400D01*
X63856Y240402D02*
X61857D01*
X60857Y241401D01*
Y243401D01*
X61857Y244400D01*
X63856D01*
X64856Y243401D01*
Y242401D01*
X60857D01*
X66855Y244400D02*
Y240402D01*
Y242401D01*
X67855Y243401D01*
X68855Y244400D01*
X69854D01*
X72853Y240402D02*
X74853D01*
X73853D01*
Y246400D01*
X72853D01*
X78851Y244400D02*
X80851D01*
X81850Y243401D01*
Y240402D01*
X78851D01*
X77852Y241401D01*
X78851Y242401D01*
X81850D01*
X83850Y244400D02*
Y241401D01*
X84849Y240402D01*
X87849D01*
Y239402D01*
X86849Y238402D01*
X85849D01*
X87849Y240402D02*
Y244400D01*
X8874Y258400D02*
Y252402D01*
X11873D01*
X12873Y253401D01*
Y254401D01*
X11873Y255401D01*
X8874D01*
X11873D01*
X12873Y256400D01*
Y257400D01*
X11873Y258400D01*
X8874D01*
X15872Y252402D02*
X17871D01*
X18871Y253401D01*
Y255401D01*
X17871Y256400D01*
X15872D01*
X14872Y255401D01*
Y253401D01*
X15872Y252402D01*
X21870Y257400D02*
Y256400D01*
X20870D01*
X22870D01*
X21870D01*
Y253401D01*
X22870Y252402D01*
X26868Y257400D02*
Y256400D01*
X25868D01*
X27868D01*
X26868D01*
Y253401D01*
X27868Y252402D01*
X31867D02*
X33866D01*
X34866Y253401D01*
Y255401D01*
X33866Y256400D01*
X31867D01*
X30867Y255401D01*
Y253401D01*
X31867Y252402D01*
X36865D02*
Y256400D01*
X37865D01*
X38864Y255401D01*
Y252402D01*
Y255401D01*
X39864Y256400D01*
X40864Y255401D01*
Y252402D01*
X52860Y257400D02*
X51860Y258400D01*
X49861D01*
X48861Y257400D01*
Y256400D01*
X49861Y255401D01*
X51860D01*
X52860Y254401D01*
Y253401D01*
X51860Y252402D01*
X49861D01*
X48861Y253401D01*
X55859Y252402D02*
X57858D01*
X58858Y253401D01*
Y255401D01*
X57858Y256400D01*
X55859D01*
X54859Y255401D01*
Y253401D01*
X55859Y252402D01*
X60857D02*
X62857D01*
X61857D01*
Y258400D01*
X60857D01*
X69854D02*
Y252402D01*
X66855D01*
X65856Y253401D01*
Y255401D01*
X66855Y256400D01*
X69854D01*
X74853Y252402D02*
X72853D01*
X71854Y253401D01*
Y255401D01*
X72853Y256400D01*
X74853D01*
X75852Y255401D01*
Y254401D01*
X71854D01*
X77852Y256400D02*
Y252402D01*
Y254401D01*
X78851Y255401D01*
X79851Y256400D01*
X80851D01*
X8874Y270400D02*
Y264402D01*
X11873D01*
X12873Y265401D01*
Y266401D01*
X11873Y267401D01*
X8874D01*
X11873D01*
X12873Y268400D01*
Y269400D01*
X11873Y270400D01*
X8874D01*
X15872Y264402D02*
X17871D01*
X18871Y265401D01*
Y267401D01*
X17871Y268400D01*
X15872D01*
X14872Y267401D01*
Y265401D01*
X15872Y264402D01*
X21870Y269400D02*
Y268400D01*
X20870D01*
X22870D01*
X21870D01*
Y265401D01*
X22870Y264402D01*
X26868Y269400D02*
Y268400D01*
X25868D01*
X27868D01*
X26868D01*
Y265401D01*
X27868Y264402D01*
X31867D02*
X33866D01*
X34866Y265401D01*
Y267401D01*
X33866Y268400D01*
X31867D01*
X30867Y267401D01*
Y265401D01*
X31867Y264402D01*
X36865D02*
Y268400D01*
X37865D01*
X38864Y267401D01*
Y264402D01*
Y267401D01*
X39864Y268400D01*
X40864Y267401D01*
Y264402D01*
X52860Y269400D02*
X51860Y270400D01*
X49861D01*
X48861Y269400D01*
Y268400D01*
X49861Y267401D01*
X51860D01*
X52860Y266401D01*
Y265401D01*
X51860Y264402D01*
X49861D01*
X48861Y265401D01*
X54859Y268400D02*
Y265401D01*
X55859Y264402D01*
X58858D01*
Y268400D01*
X60857D02*
Y264402D01*
Y266401D01*
X61857Y267401D01*
X62857Y268400D01*
X63856D01*
X67855Y264402D02*
Y269400D01*
Y267401D01*
X66855D01*
X68855D01*
X67855D01*
Y269400D01*
X68855Y270400D01*
X72853Y268400D02*
X74853D01*
X75852Y267401D01*
Y264402D01*
X72853D01*
X71854Y265401D01*
X72853Y266401D01*
X75852D01*
X81850Y268400D02*
X78851D01*
X77852Y267401D01*
Y265401D01*
X78851Y264402D01*
X81850D01*
X86849D02*
X84849D01*
X83850Y265401D01*
Y267401D01*
X84849Y268400D01*
X86849D01*
X87849Y267401D01*
Y266401D01*
X83850D01*
X99845Y270400D02*
X95846D01*
Y267401D01*
X97845D01*
X95846D01*
Y264402D01*
X101844D02*
X103843D01*
X102844D01*
Y268400D01*
X101844D01*
X106842Y264402D02*
Y268400D01*
X109841D01*
X110841Y267401D01*
Y264402D01*
X112840D02*
X114840D01*
X113840D01*
Y268400D01*
X112840D01*
X117839Y264402D02*
X120838D01*
X121837Y265401D01*
X120838Y266401D01*
X118838D01*
X117839Y267401D01*
X118838Y268400D01*
X121837D01*
X123837Y270400D02*
Y264402D01*
Y267401D01*
X124837Y268400D01*
X126836D01*
X127836Y267401D01*
Y264402D01*
X8874Y282400D02*
Y276402D01*
X11873D01*
X12873Y277401D01*
Y278401D01*
X11873Y279401D01*
X8874D01*
X11873D01*
X12873Y280400D01*
Y281400D01*
X11873Y282400D01*
X8874D01*
X15872Y276402D02*
X17871D01*
X18871Y277401D01*
Y279401D01*
X17871Y280400D01*
X15872D01*
X14872Y279401D01*
Y277401D01*
X15872Y276402D01*
X21870Y281400D02*
Y280400D01*
X20870D01*
X22870D01*
X21870D01*
Y277401D01*
X22870Y276402D01*
X26868Y281400D02*
Y280400D01*
X25868D01*
X27868D01*
X26868D01*
Y277401D01*
X27868Y276402D01*
X31867D02*
X33866D01*
X34866Y277401D01*
Y279401D01*
X33866Y280400D01*
X31867D01*
X30867Y279401D01*
Y277401D01*
X31867Y276402D01*
X36865D02*
Y280400D01*
X37865D01*
X38864Y279401D01*
Y276402D01*
Y279401D01*
X39864Y280400D01*
X40864Y279401D01*
Y276402D01*
X48861Y282400D02*
Y276402D01*
X52860D01*
X55859Y280400D02*
X57858D01*
X58858Y279401D01*
Y276402D01*
X55859D01*
X54859Y277401D01*
X55859Y278401D01*
X58858D01*
X60857Y280400D02*
Y277401D01*
X61857Y276402D01*
X64856D01*
Y275402D01*
X63856Y274402D01*
X62857D01*
X64856Y276402D02*
Y280400D01*
X69854Y276402D02*
X67855D01*
X66855Y277401D01*
Y279401D01*
X67855Y280400D01*
X69854D01*
X70854Y279401D01*
Y278401D01*
X66855D01*
X72853Y280400D02*
Y276402D01*
Y278401D01*
X73853Y279401D01*
X74853Y280400D01*
X75852D01*
X8874Y294400D02*
Y288402D01*
X11873D01*
X12873Y289401D01*
Y293400D01*
X11873Y294400D01*
X8874D01*
X14872Y288402D02*
X16871D01*
X15872D01*
Y292400D01*
X14872D01*
X22870Y288402D02*
X20870D01*
X19871Y289401D01*
Y291401D01*
X20870Y292400D01*
X22870D01*
X23869Y291401D01*
Y290401D01*
X19871D01*
X25868Y288402D02*
X27868D01*
X26868D01*
Y294400D01*
X25868D01*
X33866Y288402D02*
X31867D01*
X30867Y289401D01*
Y291401D01*
X31867Y292400D01*
X33866D01*
X34866Y291401D01*
Y290401D01*
X30867D01*
X40864Y292400D02*
X37865D01*
X36865Y291401D01*
Y289401D01*
X37865Y288402D01*
X40864D01*
X43863Y293400D02*
Y292400D01*
X42863D01*
X44862D01*
X43863D01*
Y289401D01*
X44862Y288402D01*
X47861Y292400D02*
Y288402D01*
Y290401D01*
X48861Y291401D01*
X49861Y292400D01*
X50860D01*
X53860Y288402D02*
X55859D01*
X54859D01*
Y292400D01*
X53860D01*
X62857D02*
X59857D01*
X58858Y291401D01*
Y289401D01*
X59857Y288402D01*
X62857D01*
X70854D02*
X72853D01*
X71854D01*
Y294400D01*
X70854Y293400D01*
X8874Y306400D02*
X12873D01*
X10873D01*
Y300402D01*
X15872D02*
X17871D01*
X18871Y301401D01*
Y303401D01*
X17871Y304400D01*
X15872D01*
X14872Y303401D01*
Y301401D01*
X15872Y300402D01*
X20870Y298402D02*
Y304400D01*
X23869D01*
X24869Y303401D01*
Y301401D01*
X23869Y300402D01*
X20870D01*
X32866Y306400D02*
Y300402D01*
X36865D01*
X39864Y304400D02*
X41863D01*
X42863Y303401D01*
Y300402D01*
X39864D01*
X38864Y301401D01*
X39864Y302401D01*
X42863D01*
X44862Y304400D02*
Y301401D01*
X45862Y300402D01*
X48861D01*
Y299402D01*
X47861Y298402D01*
X46862D01*
X48861Y300402D02*
Y304400D01*
X53860Y300402D02*
X51860D01*
X50860Y301401D01*
Y303401D01*
X51860Y304400D01*
X53860D01*
X54859Y303401D01*
Y302401D01*
X50860D01*
X56858Y304400D02*
Y300402D01*
Y302401D01*
X57858Y303401D01*
X58858Y304400D01*
X59857D01*
X8874Y318400D02*
X12873D01*
X10873D01*
Y312402D01*
X15872D02*
X17871D01*
X18871Y313401D01*
Y315401D01*
X17871Y316400D01*
X15872D01*
X14872Y315401D01*
Y313401D01*
X15872Y312402D01*
X20870Y310402D02*
Y316400D01*
X23869D01*
X24869Y315401D01*
Y313401D01*
X23869Y312402D01*
X20870D01*
X36865Y317400D02*
X35865Y318400D01*
X33866D01*
X32866Y317400D01*
Y316400D01*
X33866Y315401D01*
X35865D01*
X36865Y314401D01*
Y313401D01*
X35865Y312402D01*
X33866D01*
X32866Y313401D01*
X38864Y316400D02*
Y313401D01*
X39864Y312402D01*
X42863D01*
Y316400D01*
X44862D02*
Y312402D01*
Y314401D01*
X45862Y315401D01*
X46862Y316400D01*
X47861D01*
X51860Y312402D02*
Y317400D01*
Y315401D01*
X50860D01*
X52860D01*
X51860D01*
Y317400D01*
X52860Y318400D01*
X56858Y316400D02*
X58858D01*
X59857Y315401D01*
Y312402D01*
X56858D01*
X55859Y313401D01*
X56858Y314401D01*
X59857D01*
X65856Y316400D02*
X62857D01*
X61857Y315401D01*
Y313401D01*
X62857Y312402D01*
X65856D01*
X70854D02*
X68855D01*
X67855Y313401D01*
Y315401D01*
X68855Y316400D01*
X70854D01*
X71854Y315401D01*
Y314401D01*
X67855D01*
X83850Y318400D02*
X79851D01*
Y315401D01*
X81850D01*
X79851D01*
Y312402D01*
X85849D02*
X87849D01*
X86849D01*
Y316400D01*
X85849D01*
X90847Y312402D02*
Y316400D01*
X93846D01*
X94846Y315401D01*
Y312402D01*
X96846D02*
X98845D01*
X97845D01*
Y316400D01*
X96846D01*
X101844Y312402D02*
X104843D01*
X105843Y313401D01*
X104843Y314401D01*
X102844D01*
X101844Y315401D01*
X102844Y316400D01*
X105843D01*
X107842Y318400D02*
Y312402D01*
Y315401D01*
X108842Y316400D01*
X110841D01*
X111841Y315401D01*
Y312402D01*
X8874Y330400D02*
X12873D01*
X10873D01*
Y324402D01*
X15872D02*
X17871D01*
X18871Y325401D01*
Y327401D01*
X17871Y328400D01*
X15872D01*
X14872Y327401D01*
Y325401D01*
X15872Y324402D01*
X20870Y322402D02*
Y328400D01*
X23869D01*
X24869Y327401D01*
Y325401D01*
X23869Y324402D01*
X20870D01*
X36865Y329400D02*
X35865Y330400D01*
X33866D01*
X32866Y329400D01*
Y328400D01*
X33866Y327401D01*
X35865D01*
X36865Y326401D01*
Y325401D01*
X35865Y324402D01*
X33866D01*
X32866Y325401D01*
X39864Y324402D02*
X41863D01*
X42863Y325401D01*
Y327401D01*
X41863Y328400D01*
X39864D01*
X38864Y327401D01*
Y325401D01*
X39864Y324402D01*
X44862D02*
X46862D01*
X45862D01*
Y330400D01*
X44862D01*
X53860D02*
Y324402D01*
X50860D01*
X49861Y325401D01*
Y327401D01*
X50860Y328400D01*
X53860D01*
X58858Y324402D02*
X56858D01*
X55859Y325401D01*
Y327401D01*
X56858Y328400D01*
X58858D01*
X59857Y327401D01*
Y326401D01*
X55859D01*
X61857Y328400D02*
Y324402D01*
Y326401D01*
X62857Y327401D01*
X63856Y328400D01*
X64856D01*
X8874Y342400D02*
X12873D01*
X10873D01*
Y336402D01*
X15872D02*
X17871D01*
X18871Y337401D01*
Y339401D01*
X17871Y340400D01*
X15872D01*
X14872Y339401D01*
Y337401D01*
X15872Y336402D01*
X20870Y334402D02*
Y340400D01*
X23869D01*
X24869Y339401D01*
Y337401D01*
X23869Y336402D01*
X20870D01*
X35865Y342400D02*
X33866D01*
X32866Y341400D01*
Y337401D01*
X33866Y336402D01*
X35865D01*
X36865Y337401D01*
Y341400D01*
X35865Y342400D01*
X38864Y340400D02*
X40864Y336402D01*
X42863Y340400D01*
X47861Y336402D02*
X45862D01*
X44862Y337401D01*
Y339401D01*
X45862Y340400D01*
X47861D01*
X48861Y339401D01*
Y338401D01*
X44862D01*
X50860Y340400D02*
Y336402D01*
Y338401D01*
X51860Y339401D01*
X52860Y340400D01*
X53860D01*
X56858Y336402D02*
X58858D01*
X57858D01*
Y342400D01*
X56858D01*
X62857Y340400D02*
X64856D01*
X65856Y339401D01*
Y336402D01*
X62857D01*
X61857Y337401D01*
X62857Y338401D01*
X65856D01*
X67855Y340400D02*
Y337401D01*
X68855Y336402D01*
X71854D01*
Y335402D01*
X70854Y334402D01*
X69854D01*
X71854Y336402D02*
Y340400D01*
X141835Y348402D02*
Y354400D01*
X143835Y352400D01*
X145834Y354400D01*
Y348402D01*
X148833Y352400D02*
X150833D01*
X151832Y351401D01*
Y348402D01*
X148833D01*
X147834Y349401D01*
X148833Y350401D01*
X151832D01*
X154831Y353400D02*
Y352400D01*
X153832D01*
X155831D01*
X154831D01*
Y349401D01*
X155831Y348402D01*
X161829D02*
X159830D01*
X158830Y349401D01*
Y351401D01*
X159830Y352400D01*
X161829D01*
X162829Y351401D01*
Y350401D01*
X158830D01*
X164828Y352400D02*
Y348402D01*
Y350401D01*
X165828Y351401D01*
X166827Y352400D01*
X167827D01*
X170826Y348402D02*
X172826D01*
X171826D01*
Y352400D01*
X170826D01*
X176824D02*
X178824D01*
X179823Y351401D01*
Y348402D01*
X176824D01*
X175824Y349401D01*
X176824Y350401D01*
X179823D01*
X181823Y348402D02*
X183822D01*
X182822D01*
Y354400D01*
X181823D01*
X145834Y257400D02*
X144835Y258400D01*
X142835D01*
X141835Y257400D01*
Y256400D01*
X142835Y255401D01*
X144835D01*
X145834Y254401D01*
Y253401D01*
X144835Y252402D01*
X142835D01*
X141835Y253401D01*
X147834Y252402D02*
Y258400D01*
X149833Y256400D01*
X151832Y258400D01*
Y252402D01*
X153832Y255401D02*
X157830D01*
X159830Y257400D02*
X160829Y258400D01*
X162829D01*
X163828Y257400D01*
Y253401D01*
X162829Y252402D01*
X160829D01*
X159830Y253401D01*
Y257400D01*
X165828D02*
X166827Y258400D01*
X168827D01*
X169826Y257400D01*
Y253401D01*
X168827Y252402D01*
X166827D01*
X165828Y253401D01*
Y257400D01*
X171826Y252402D02*
X173825D01*
X172826D01*
Y258400D01*
X171826Y257400D01*
X141835Y264402D02*
Y270400D01*
X144835D01*
X145834Y269400D01*
Y267401D01*
X144835Y266401D01*
X141835D01*
X147834Y270400D02*
Y264402D01*
X150833D01*
X151832Y265401D01*
Y266401D01*
Y267401D01*
X150833Y268400D01*
X147834D01*
X157830Y269400D02*
X156831Y270400D01*
X154831D01*
X153832Y269400D01*
Y268400D01*
X154831Y267401D01*
X156831D01*
X157830Y266401D01*
Y265401D01*
X156831Y264402D01*
X154831D01*
X153832Y265401D01*
X159830Y264402D02*
Y268400D01*
X162829D01*
X163828Y267401D01*
Y264402D01*
X145834Y281400D02*
X144835Y282400D01*
X142835D01*
X141835Y281400D01*
Y277401D01*
X142835Y276402D01*
X144835D01*
X145834Y277401D01*
X151832Y282400D02*
X147834D01*
Y279401D01*
X149833D01*
X147834D01*
Y276402D01*
X153832Y279401D02*
X157830D01*
X159830Y281400D02*
X160829Y282400D01*
X162829D01*
X163828Y281400D01*
Y277401D01*
X162829Y276402D01*
X160829D01*
X159830Y277401D01*
Y281400D01*
X165828D02*
X166827Y282400D01*
X168827D01*
X169826Y281400D01*
Y277401D01*
X168827Y276402D01*
X166827D01*
X165828Y277401D01*
Y281400D01*
X174825Y276402D02*
Y282400D01*
X171826Y279401D01*
X175824D01*
X145834Y293400D02*
X144835Y294400D01*
X142835D01*
X141835Y293400D01*
Y289401D01*
X142835Y288402D01*
X144835D01*
X145834Y289401D01*
X148833Y288402D02*
X150833D01*
X151832Y289401D01*
Y291401D01*
X150833Y292400D01*
X148833D01*
X147834Y291401D01*
Y289401D01*
X148833Y288402D01*
X153832Y292400D02*
Y288402D01*
Y290401D01*
X154831Y291401D01*
X155831Y292400D01*
X156831D01*
X162829Y288402D02*
X160829D01*
X159830Y289401D01*
Y291401D01*
X160829Y292400D01*
X162829D01*
X163828Y291401D01*
Y290401D01*
X159830D01*
X165828Y291401D02*
X169826D01*
X171826Y293400D02*
X172826Y294400D01*
X174825D01*
X175824Y293400D01*
Y289401D01*
X174825Y288402D01*
X172826D01*
X171826Y289401D01*
Y293400D01*
X180823Y288402D02*
Y294400D01*
X177824Y291401D01*
X181823D01*
X183822Y293400D02*
X184822Y294400D01*
X186821D01*
X187821Y293400D01*
Y292400D01*
X186821Y291401D01*
X185821D01*
X186821D01*
X187821Y290401D01*
Y289401D01*
X186821Y288402D01*
X184822D01*
X183822Y289401D01*
X145834Y305400D02*
X144835Y306400D01*
X142835D01*
X141835Y305400D01*
Y301401D01*
X142835Y300402D01*
X144835D01*
X145834Y301401D01*
X151832Y306400D02*
X147834D01*
Y303401D01*
X149833D01*
X147834D01*
Y300402D01*
X153832Y303401D02*
X157830D01*
X159830Y305400D02*
X160829Y306400D01*
X162829D01*
X163828Y305400D01*
Y301401D01*
X162829Y300402D01*
X160829D01*
X159830Y301401D01*
Y305400D01*
X165828D02*
X166827Y306400D01*
X168827D01*
X169826Y305400D01*
Y301401D01*
X168827Y300402D01*
X166827D01*
X165828Y301401D01*
Y305400D01*
X174825Y300402D02*
Y306400D01*
X171826Y303401D01*
X175824D01*
X141835Y312402D02*
Y318400D01*
X144835D01*
X145834Y317400D01*
Y315401D01*
X144835Y314401D01*
X141835D01*
X147834Y318400D02*
Y312402D01*
X150833D01*
X151832Y313401D01*
Y314401D01*
Y315401D01*
X150833Y316400D01*
X147834D01*
X157830Y317400D02*
X156831Y318400D01*
X154831D01*
X153832Y317400D01*
Y316400D01*
X154831Y315401D01*
X156831D01*
X157830Y314401D01*
Y313401D01*
X156831Y312402D01*
X154831D01*
X153832Y313401D01*
X159830Y312402D02*
Y316400D01*
X162829D01*
X163828Y315401D01*
Y312402D01*
X145834Y329400D02*
X144835Y330400D01*
X142835D01*
X141835Y329400D01*
Y328400D01*
X142835Y327401D01*
X144835D01*
X145834Y326401D01*
Y325401D01*
X144835Y324402D01*
X142835D01*
X141835Y325401D01*
X147834Y324402D02*
Y330400D01*
X149833Y328400D01*
X151832Y330400D01*
Y324402D01*
X153832Y327401D02*
X157830D01*
X159830Y329400D02*
X160829Y330400D01*
X162829D01*
X163828Y329400D01*
Y325401D01*
X162829Y324402D01*
X160829D01*
X159830Y325401D01*
Y329400D01*
X165828D02*
X166827Y330400D01*
X168827D01*
X169826Y329400D01*
Y325401D01*
X168827Y324402D01*
X166827D01*
X165828Y325401D01*
Y329400D01*
X171826Y324402D02*
X173825D01*
X172826D01*
Y330400D01*
X171826Y329400D01*
X201821Y354400D02*
X205819D01*
X203820D01*
Y348402D01*
X207819Y354400D02*
Y348402D01*
Y351401D01*
X208818Y352400D01*
X210818D01*
X211817Y351401D01*
Y348402D01*
X213817D02*
X215816D01*
X214816D01*
Y352400D01*
X213817D01*
X222814D02*
X219815D01*
X218815Y351401D01*
Y349401D01*
X219815Y348402D01*
X222814D01*
X224813D02*
Y354400D01*
Y350401D02*
X227812Y352400D01*
X224813Y350401D02*
X227812Y348402D01*
X230811D02*
Y352400D01*
X233810D01*
X234810Y351401D01*
Y348402D01*
X239808D02*
X237809D01*
X236809Y349401D01*
Y351401D01*
X237809Y352400D01*
X239808D01*
X240808Y351401D01*
Y350401D01*
X236809D01*
X242807Y348402D02*
X245806D01*
X246806Y349401D01*
X245806Y350401D01*
X243807D01*
X242807Y351401D01*
X243807Y352400D01*
X246806D01*
X248805Y348402D02*
X251804D01*
X252804Y349401D01*
X251804Y350401D01*
X249805D01*
X248805Y351401D01*
X249805Y352400D01*
X252804D01*
X201821Y257400D02*
X202820Y258400D01*
X204820D01*
X205819Y257400D01*
Y253401D01*
X204820Y252402D01*
X202820D01*
X201821Y253401D01*
Y257400D01*
X207819Y252402D02*
Y253401D01*
X208818D01*
Y252402D01*
X207819D01*
X212817Y257400D02*
X213817Y258400D01*
X215816D01*
X216816Y257400D01*
Y253401D01*
X215816Y252402D01*
X213817D01*
X212817Y253401D01*
Y257400D01*
X222814Y252402D02*
X218815D01*
X222814Y256400D01*
Y257400D01*
X221814Y258400D01*
X219815D01*
X218815Y257400D01*
X228812Y258400D02*
X224813D01*
Y255401D01*
X226813Y256400D01*
X227812D01*
X228812Y255401D01*
Y253401D01*
X227812Y252402D01*
X225813D01*
X224813Y253401D01*
X230811Y252402D02*
Y256400D01*
X231811D01*
X232811Y255401D01*
Y252402D01*
Y255401D01*
X233810Y256400D01*
X234810Y255401D01*
Y252402D01*
X236809D02*
Y256400D01*
X237809D01*
X238809Y255401D01*
Y252402D01*
Y255401D01*
X239808Y256400D01*
X240808Y255401D01*
Y252402D01*
X201821Y269400D02*
X202820Y270400D01*
X204820D01*
X205819Y269400D01*
Y265401D01*
X204820Y264402D01*
X202820D01*
X201821Y265401D01*
Y269400D01*
X207819Y264402D02*
Y265401D01*
X208818D01*
Y264402D01*
X207819D01*
X212817Y269400D02*
X213817Y270400D01*
X215816D01*
X216816Y269400D01*
Y265401D01*
X215816Y264402D01*
X213817D01*
X212817Y265401D01*
Y269400D01*
X222814Y264402D02*
X218815D01*
X222814Y268400D01*
Y269400D01*
X221814Y270400D01*
X219815D01*
X218815Y269400D01*
X224813D02*
X225813Y270400D01*
X227812D01*
X228812Y269400D01*
Y265401D01*
X227812Y264402D01*
X225813D01*
X224813Y265401D01*
Y269400D01*
X230811Y264402D02*
Y268400D01*
X231811D01*
X232811Y267401D01*
Y264402D01*
Y267401D01*
X233810Y268400D01*
X234810Y267401D01*
Y264402D01*
X236809D02*
Y268400D01*
X237809D01*
X238809Y267401D01*
Y264402D01*
Y267401D01*
X239808Y268400D01*
X240808Y267401D01*
Y264402D01*
X201821Y281400D02*
X202820Y282400D01*
X204820D01*
X205819Y281400D01*
Y277401D01*
X204820Y276402D01*
X202820D01*
X201821Y277401D01*
Y281400D01*
X207819Y276402D02*
Y277401D01*
X208818D01*
Y276402D01*
X207819D01*
X212817Y281400D02*
X213817Y282400D01*
X215816D01*
X216816Y281400D01*
Y277401D01*
X215816Y276402D01*
X213817D01*
X212817Y277401D01*
Y281400D01*
X218815D02*
X219815Y282400D01*
X221814D01*
X222814Y281400D01*
Y280400D01*
X221814Y279401D01*
X220814D01*
X221814D01*
X222814Y278401D01*
Y277401D01*
X221814Y276402D01*
X219815D01*
X218815Y277401D01*
X228812Y282400D02*
X224813D01*
Y279401D01*
X226813Y280400D01*
X227812D01*
X228812Y279401D01*
Y277401D01*
X227812Y276402D01*
X225813D01*
X224813Y277401D01*
X230811Y276402D02*
Y280400D01*
X231811D01*
X232811Y279401D01*
Y276402D01*
Y279401D01*
X233810Y280400D01*
X234810Y279401D01*
Y276402D01*
X236809D02*
Y280400D01*
X237809D01*
X238809Y279401D01*
Y276402D01*
Y279401D01*
X239808Y280400D01*
X240808Y279401D01*
Y276402D01*
X201821Y288402D02*
X203820D01*
X202820D01*
Y294400D01*
X201821Y293400D01*
X206819Y288402D02*
Y289401D01*
X207819D01*
Y288402D01*
X206819D01*
X214816D02*
Y294400D01*
X211817Y291401D01*
X215816D01*
X217815Y289401D02*
X218815Y288402D01*
X220814D01*
X221814Y289401D01*
Y293400D01*
X220814Y294400D01*
X218815D01*
X217815Y293400D01*
Y292400D01*
X218815Y291401D01*
X221814D01*
X223814Y289401D02*
X224813Y288402D01*
X226813D01*
X227812Y289401D01*
Y293400D01*
X226813Y294400D01*
X224813D01*
X223814Y293400D01*
Y292400D01*
X224813Y291401D01*
X227812D01*
X229812Y288402D02*
Y292400D01*
X230811D01*
X231811Y291401D01*
Y288402D01*
Y291401D01*
X232811Y292400D01*
X233810Y291401D01*
Y288402D01*
X235810D02*
Y292400D01*
X236809D01*
X237809Y291401D01*
Y288402D01*
Y291401D01*
X238809Y292400D01*
X239808Y291401D01*
Y288402D01*
X201821Y305400D02*
X202820Y306400D01*
X204820D01*
X205819Y305400D01*
Y301401D01*
X204820Y300402D01*
X202820D01*
X201821Y301401D01*
Y305400D01*
X207819Y300402D02*
Y301401D01*
X208818D01*
Y300402D01*
X207819D01*
X212817Y305400D02*
X213817Y306400D01*
X215816D01*
X216816Y305400D01*
Y301401D01*
X215816Y300402D01*
X213817D01*
X212817Y301401D01*
Y305400D01*
X218815D02*
X219815Y306400D01*
X221814D01*
X222814Y305400D01*
Y304400D01*
X221814Y303401D01*
X220814D01*
X221814D01*
X222814Y302401D01*
Y301401D01*
X221814Y300402D01*
X219815D01*
X218815Y301401D01*
X228812Y306400D02*
X224813D01*
Y303401D01*
X226813Y304400D01*
X227812D01*
X228812Y303401D01*
Y301401D01*
X227812Y300402D01*
X225813D01*
X224813Y301401D01*
X230811Y300402D02*
Y304400D01*
X231811D01*
X232811Y303401D01*
Y300402D01*
Y303401D01*
X233810Y304400D01*
X234810Y303401D01*
Y300402D01*
X236809D02*
Y304400D01*
X237809D01*
X238809Y303401D01*
Y300402D01*
Y303401D01*
X239808Y304400D01*
X240808Y303401D01*
Y300402D01*
X201821Y317400D02*
X202820Y318400D01*
X204820D01*
X205819Y317400D01*
Y313401D01*
X204820Y312402D01*
X202820D01*
X201821Y313401D01*
Y317400D01*
X207819Y312402D02*
Y313401D01*
X208818D01*
Y312402D01*
X207819D01*
X212817Y317400D02*
X213817Y318400D01*
X215816D01*
X216816Y317400D01*
Y313401D01*
X215816Y312402D01*
X213817D01*
X212817Y313401D01*
Y317400D01*
X222814Y312402D02*
X218815D01*
X222814Y316400D01*
Y317400D01*
X221814Y318400D01*
X219815D01*
X218815Y317400D01*
X224813D02*
X225813Y318400D01*
X227812D01*
X228812Y317400D01*
Y313401D01*
X227812Y312402D01*
X225813D01*
X224813Y313401D01*
Y317400D01*
X230811Y312402D02*
Y316400D01*
X231811D01*
X232811Y315401D01*
Y312402D01*
Y315401D01*
X233810Y316400D01*
X234810Y315401D01*
Y312402D01*
X236809D02*
Y316400D01*
X237809D01*
X238809Y315401D01*
Y312402D01*
Y315401D01*
X239808Y316400D01*
X240808Y315401D01*
Y312402D01*
X201821Y329400D02*
X202820Y330400D01*
X204820D01*
X205819Y329400D01*
Y325401D01*
X204820Y324402D01*
X202820D01*
X201821Y325401D01*
Y329400D01*
X207819Y324402D02*
Y325401D01*
X208818D01*
Y324402D01*
X207819D01*
X212817Y329400D02*
X213817Y330400D01*
X215816D01*
X216816Y329400D01*
Y325401D01*
X215816Y324402D01*
X213817D01*
X212817Y325401D01*
Y329400D01*
X222814Y324402D02*
X218815D01*
X222814Y328400D01*
Y329400D01*
X221814Y330400D01*
X219815D01*
X218815Y329400D01*
X228812Y330400D02*
X224813D01*
Y327401D01*
X226813Y328400D01*
X227812D01*
X228812Y327401D01*
Y325401D01*
X227812Y324402D01*
X225813D01*
X224813Y325401D01*
X230811Y324402D02*
Y328400D01*
X231811D01*
X232811Y327401D01*
Y324402D01*
Y327401D01*
X233810Y328400D01*
X234810Y327401D01*
Y324402D01*
X236809D02*
Y328400D01*
X237809D01*
X238809Y327401D01*
Y324402D01*
Y327401D01*
X239808Y328400D01*
X240808Y327401D01*
Y324402D01*
X270803Y353400D02*
X269803Y354400D01*
X267804D01*
X266804Y353400D01*
Y349401D01*
X267804Y348402D01*
X269803D01*
X270803Y349401D01*
X273802Y348402D02*
X275801D01*
X276801Y349401D01*
Y351401D01*
X275801Y352400D01*
X273802D01*
X272802Y351401D01*
Y349401D01*
X273802Y348402D01*
X278800D02*
Y352400D01*
X281799D01*
X282799Y351401D01*
Y348402D01*
X284798D02*
X287797D01*
X288797Y349401D01*
X287797Y350401D01*
X285798D01*
X284798Y351401D01*
X285798Y352400D01*
X288797D01*
X291796Y353400D02*
Y352400D01*
X290796D01*
X292796D01*
X291796D01*
Y349401D01*
X292796Y348402D01*
X296795Y352400D02*
X298794D01*
X299794Y351401D01*
Y348402D01*
X296795D01*
X295795Y349401D01*
X296795Y350401D01*
X299794D01*
X301793Y348402D02*
Y352400D01*
X304792D01*
X305792Y351401D01*
Y348402D01*
X308791Y353400D02*
Y352400D01*
X307791D01*
X309790D01*
X308791D01*
Y349401D01*
X309790Y348402D01*
X269803Y252402D02*
Y258400D01*
X266804Y255401D01*
X270803D01*
X269803Y288402D02*
Y294400D01*
X266804Y291401D01*
X270803D01*
X272802Y288402D02*
Y289401D01*
X273802D01*
Y288402D01*
X272802D01*
X277801Y293400D02*
X278800Y294400D01*
X280800D01*
X281799Y293400D01*
Y292400D01*
X280800Y291401D01*
X279800D01*
X280800D01*
X281799Y290401D01*
Y289401D01*
X280800Y288402D01*
X278800D01*
X277801Y289401D01*
X269803Y324402D02*
Y330400D01*
X266804Y327401D01*
X270803D01*
X-32117Y234400D02*
X-28119D01*
X-30118D01*
Y228402D01*
X-25120D02*
X-23120D01*
X-22120Y229401D01*
Y231401D01*
X-23120Y232400D01*
X-25120D01*
X-26119Y231401D01*
Y229401D01*
X-25120Y228402D01*
X-19121Y233400D02*
Y232400D01*
X-20121D01*
X-18122D01*
X-19121D01*
Y229401D01*
X-18122Y228402D01*
X-14123Y232400D02*
X-12124D01*
X-11124Y231401D01*
Y228402D01*
X-14123D01*
X-15123Y229401D01*
X-14123Y230401D01*
X-11124D01*
X-9125Y228402D02*
X-7125D01*
X-8125D01*
Y234400D01*
X-9125D01*
X1872D02*
Y228402D01*
X4871D01*
X5870Y229401D01*
Y230401D01*
Y231401D01*
X4871Y232400D01*
X1872D01*
X8869Y228402D02*
X10869D01*
X11868Y229401D01*
Y231401D01*
X10869Y232400D01*
X8869D01*
X7870Y231401D01*
Y229401D01*
X8869Y228402D01*
X14867Y232400D02*
X16867D01*
X17867Y231401D01*
Y228402D01*
X14867D01*
X13868Y229401D01*
X14867Y230401D01*
X17867D01*
X19866Y232400D02*
Y228402D01*
Y230401D01*
X20866Y231401D01*
X21865Y232400D01*
X22865D01*
X29863Y234400D02*
Y228402D01*
X26864D01*
X25864Y229401D01*
Y231401D01*
X26864Y232400D01*
X29863D01*
X38860Y233400D02*
Y232400D01*
X37860D01*
X39860D01*
X38860D01*
Y229401D01*
X39860Y228402D01*
X42858Y234400D02*
Y228402D01*
Y231401D01*
X43858Y232400D01*
X45858D01*
X46857Y231401D01*
Y228402D01*
X48856D02*
X50856D01*
X49856D01*
Y232400D01*
X48856D01*
X57854D02*
X54855D01*
X53855Y231401D01*
Y229401D01*
X54855Y228402D01*
X57854D01*
X59853D02*
Y234400D01*
Y230401D02*
X62852Y232400D01*
X59853Y230401D02*
X62852Y228402D01*
X65851D02*
Y232400D01*
X68850D01*
X69850Y231401D01*
Y228402D01*
X74848D02*
X72849D01*
X71849Y229401D01*
Y231401D01*
X72849Y232400D01*
X74848D01*
X75848Y231401D01*
Y230401D01*
X71849D01*
X77847Y228402D02*
X80846D01*
X81846Y229401D01*
X80846Y230401D01*
X78847D01*
X77847Y231401D01*
X78847Y232400D01*
X81846D01*
X83845Y228402D02*
X86844D01*
X87844Y229401D01*
X86844Y230401D01*
X84845D01*
X83845Y231401D01*
X84845Y232400D01*
X87844D01*
X89843D02*
X90843D01*
Y231401D01*
X89843D01*
Y232400D01*
Y229401D02*
X90843D01*
Y228402D01*
X89843D01*
Y229401D01*
X201821Y228402D02*
X203820D01*
X202820D01*
Y234400D01*
X201821Y233400D01*
X206819Y228402D02*
Y229401D01*
X207819D01*
Y228402D01*
X206819D01*
X215816Y234400D02*
X213817Y233400D01*
X211817Y231401D01*
Y229401D01*
X212817Y228402D01*
X214816D01*
X215816Y229401D01*
Y230401D01*
X214816Y231401D01*
X211817D01*
X221814Y234400D02*
X217815D01*
Y231401D01*
X219815Y232400D01*
X220814D01*
X221814Y231401D01*
Y229401D01*
X220814Y228402D01*
X218815D01*
X217815Y229401D01*
X223814D02*
X224813Y228402D01*
X226813D01*
X227812Y229401D01*
Y233400D01*
X226813Y234400D01*
X224813D01*
X223814Y233400D01*
Y232400D01*
X224813Y231401D01*
X227812D01*
X229812Y228402D02*
Y232400D01*
X230811D01*
X231811Y231401D01*
Y228402D01*
Y231401D01*
X232811Y232400D01*
X233810Y231401D01*
Y228402D01*
X235810D02*
Y232400D01*
X236809D01*
X237809Y231401D01*
Y228402D01*
Y231401D01*
X238809Y232400D01*
X239808Y231401D01*
Y228402D01*
M02*
