G04*
G04 #@! TF.GenerationSoftware,Altium Limited,Altium Designer,23.10.1 (27)*
G04*
G04 Layer_Color=8421504*
%FSLAX25Y25*%
%MOIN*%
G70*
G04*
G04 #@! TF.SameCoordinates,C1A9210B-CA7C-4178-8FF3-1732785E61EF*
G04*
G04*
G04 #@! TF.FilePolarity,Positive*
G04*
G01*
G75*
%ADD12R,0.14173X0.07874*%
%ADD13R,0.01575X0.03150*%
%ADD14R,0.01181X0.03150*%
%ADD15R,0.03150X0.01181*%
%ADD16R,0.03150X0.01575*%
%ADD17R,0.05118X0.07874*%
D12*
X10630Y-6299D02*
D03*
X-10630D02*
D03*
D13*
X19783Y-31398D02*
D03*
X37500D02*
D03*
D14*
X31594Y-21555D02*
D03*
X29626D02*
D03*
X27657D02*
D03*
X33563D02*
D03*
X25689D02*
D03*
X23720D02*
D03*
D15*
X-30709Y22638D02*
D03*
Y20669D02*
D03*
Y18701D02*
D03*
Y14764D02*
D03*
Y12795D02*
D03*
Y10827D02*
D03*
Y6890D02*
D03*
Y4921D02*
D03*
Y2953D02*
D03*
Y984D02*
D03*
Y-984D02*
D03*
Y-2953D02*
D03*
Y-4921D02*
D03*
Y-6890D02*
D03*
Y-10827D02*
D03*
Y-12795D02*
D03*
Y-14764D02*
D03*
Y-18701D02*
D03*
Y-20669D02*
D03*
Y-22638D02*
D03*
Y24606D02*
D03*
Y16732D02*
D03*
Y8858D02*
D03*
Y-8858D02*
D03*
Y-16732D02*
D03*
Y-24606D02*
D03*
D16*
X-40551Y28543D02*
D03*
Y-28543D02*
D03*
D17*
X0Y6299D02*
D03*
X10236D02*
D03*
X-10236D02*
D03*
M02*
