G04*
G04 #@! TF.GenerationSoftware,Altium Limited,Altium Designer,23.10.1 (27)*
G04*
G04 Layer_Color=32896*
%FSLAX25Y25*%
%MOIN*%
G70*
G04*
G04 #@! TF.SameCoordinates,C1A9210B-CA7C-4178-8FF3-1732785E61EF*
G04*
G04*
G04 #@! TF.FilePolarity,Positive*
G04*
G01*
G75*
%ADD10C,0.00787*%
%ADD11C,0.00591*%
D10*
X-31201Y-28543D02*
X-29724D01*
X-31201Y-29528D02*
Y-28543D01*
Y28543D02*
X-29724D01*
X-31201D02*
Y29528D01*
X-29724Y28543D02*
X-27657D01*
X-38091Y29528D02*
X-31201D01*
X-29724Y-28543D02*
X-27657D01*
X-38091Y-29528D02*
X-31201D01*
X-27657Y-28543D02*
Y28543D01*
X-42618Y-26673D02*
Y26673D01*
X13189Y25754D02*
Y28903D01*
X11615D01*
X11090Y28378D01*
Y27329D01*
X11615Y26804D01*
X13189D01*
X9516Y25754D02*
X8466D01*
X7941Y26279D01*
Y27329D01*
X8466Y27853D01*
X9516D01*
X10040Y27329D01*
Y26279D01*
X9516Y25754D01*
X6892D02*
X5842D01*
X6367D01*
Y28903D01*
X6892D01*
X4268Y25754D02*
X2694D01*
X2169Y26279D01*
X2694Y26804D01*
X3743D01*
X4268Y27329D01*
X3743Y27853D01*
X2169D01*
X-2554Y25754D02*
Y28378D01*
Y27329D01*
X-2029D01*
X-3079D01*
X-2554D01*
Y28378D01*
X-3079Y28903D01*
X-4653Y25754D02*
X-5703D01*
X-5178D01*
Y28903D01*
X-4653D01*
X-7277Y25754D02*
X-8326D01*
X-7802D01*
Y27853D01*
X-7277D01*
X-9901Y24705D02*
Y27853D01*
X-11475D01*
X-12000Y27329D01*
Y26279D01*
X-11475Y25754D01*
X-9901D01*
X12107Y20177D02*
X13156D01*
X13681Y20702D01*
Y21752D01*
X13156Y22276D01*
X12107D01*
X11582Y21752D01*
Y21227D01*
X13681D01*
X10008Y22276D02*
X8958D01*
X8433Y21752D01*
Y20177D01*
X10008D01*
X10532Y20702D01*
X10008Y21227D01*
X8433D01*
X5285Y22276D02*
X6859D01*
X7384Y21752D01*
Y20702D01*
X6859Y20177D01*
X5285D01*
X4235Y23326D02*
Y20177D01*
Y21752D01*
X3711Y22276D01*
X2661D01*
X2136Y21752D01*
Y20177D01*
X-2062D02*
X-3636D01*
X-4161Y20702D01*
X-3636Y21227D01*
X-2587D01*
X-2062Y21752D01*
X-2587Y22276D01*
X-4161D01*
X-5210Y20177D02*
X-6260D01*
X-5735D01*
Y22276D01*
X-5210D01*
X-9933Y23326D02*
Y20177D01*
X-8359D01*
X-7834Y20702D01*
Y21752D01*
X-8359Y22276D01*
X-9933D01*
X-12557Y20177D02*
X-11508D01*
X-10983Y20702D01*
Y21752D01*
X-11508Y22276D01*
X-12557D01*
X-13082Y21752D01*
Y21227D01*
X-10983D01*
X-14131D02*
Y23851D01*
Y20702D02*
Y20177D01*
X-25197Y18602D02*
X-21261D01*
X-23229Y20570D02*
Y16634D01*
X-24508Y-14567D02*
X-20572D01*
X30316Y19685D02*
X34252D01*
Y17717D01*
X33596Y17061D01*
X32940D01*
X32284D01*
X31628Y17717D01*
Y19685D01*
Y15749D02*
X33596D01*
X34252Y15093D01*
Y13126D01*
X31628D01*
X34252Y11814D02*
X31628D01*
Y9846D01*
X32284Y9190D01*
X34252D01*
Y7878D02*
X31628D01*
Y5910D01*
X32284Y5254D01*
X34252D01*
Y3942D02*
Y2630D01*
Y3286D01*
X31628D01*
Y3942D01*
X34252Y-1306D02*
Y6D01*
X33596Y662D01*
X32284D01*
X31628Y6D01*
Y-1306D01*
X32284Y-1962D01*
X32940D01*
Y662D01*
X34252Y-9843D02*
Y-11154D01*
Y-10498D01*
X30316D01*
X30972Y-9843D01*
X34252Y-13122D02*
Y-14434D01*
Y-13778D01*
X30316D01*
X30972Y-13122D01*
X34252Y-16402D02*
X31628Y-19026D01*
X34252Y-22962D02*
Y-20338D01*
X31628Y-22962D01*
X30972D01*
X30316Y-22306D01*
Y-20994D01*
X30972Y-20338D01*
Y-24274D02*
X30316Y-24929D01*
Y-26241D01*
X30972Y-26897D01*
X31628D01*
X32284Y-26241D01*
Y-25585D01*
Y-26241D01*
X32940Y-26897D01*
X33596D01*
X34252Y-26241D01*
Y-24929D01*
X33596Y-24274D01*
X-8661Y-14567D02*
X-11810D01*
X12106Y-14567D02*
X8958D01*
X10532Y-12993D02*
Y-16142D01*
X-12007Y16436D02*
X-11220Y17223D01*
X-9645D01*
X-8858Y16436D01*
Y13287D01*
X-9645Y12500D01*
X-11220D01*
X-12007Y13287D01*
Y14861D01*
X-10433D01*
X1772Y17223D02*
X-1377D01*
X197D01*
Y12500D01*
X12008D02*
Y17223D01*
X9646D01*
X8859Y16436D01*
Y14861D01*
X9646Y14074D01*
X12008D01*
X10434D02*
X8859Y12500D01*
X-36221Y2624D02*
X-40157D01*
Y656D01*
X-39501Y-0D01*
X-38189D01*
X-37533Y656D01*
Y2624D01*
X-36221Y-1312D02*
Y-2624D01*
Y-1968D01*
X-40157D01*
X-39501Y-1312D01*
D11*
X4528Y-31299D02*
Y-28151D01*
X2953D01*
X2428Y-28675D01*
Y-29725D01*
X2953Y-30250D01*
X4528D01*
X3478D02*
X2428Y-31299D01*
X1379D02*
X-720Y-29200D01*
X-1770Y-31299D02*
Y-29200D01*
X-2819Y-28151D01*
X-3869Y-29200D01*
Y-31299D01*
Y-29725D01*
X-1770D01*
X-4918Y-30250D02*
Y-27626D01*
Y-30775D02*
Y-31299D01*
X11220Y-21063D02*
Y-17914D01*
X10171Y-18964D01*
X9121Y-17914D01*
Y-21063D01*
X7547D02*
X6498D01*
X5973Y-20538D01*
Y-19489D01*
X6498Y-18964D01*
X7547D01*
X8072Y-19489D01*
Y-20538D01*
X7547Y-21063D01*
X4923Y-18964D02*
Y-20538D01*
X4399Y-21063D01*
X2824D01*
Y-18964D01*
X1775Y-21063D02*
Y-18964D01*
X200D01*
X-324Y-19489D01*
Y-21063D01*
X-1899Y-18439D02*
Y-18964D01*
X-1374D01*
X-2423D01*
X-1899D01*
Y-20538D01*
X-2423Y-21063D01*
X-7671Y-18964D02*
X-8721D01*
X-9245Y-19489D01*
Y-21063D01*
X-7671D01*
X-7146Y-20538D01*
X-7671Y-20013D01*
X-9245D01*
X-10295Y-21063D02*
X-11869D01*
X-12394Y-20538D01*
X-11869Y-20013D01*
X-10820D01*
X-10295Y-19489D01*
X-10820Y-18964D01*
X-12394D01*
M02*
