G04*
G04 #@! TF.GenerationSoftware,Altium Limited,Altium Designer,23.10.1 (27)*
G04*
G04 Layer_Color=32768*
%FSLAX25Y25*%
%MOIN*%
G70*
G04*
G04 #@! TF.SameCoordinates,C1A9210B-CA7C-4178-8FF3-1732785E61EF*
G04*
G04*
G04 #@! TF.FilePolarity,Positive*
G04*
G01*
G75*
%ADD10C,0.00787*%
%ADD32C,0.01000*%
%ADD33C,0.01500*%
%ADD34C,0.00600*%
D10*
X39764Y-34252D02*
Y20472D01*
X-43307Y-34252D02*
X39764D01*
X29528Y30709D02*
X39764Y20472D01*
X21457Y2756D02*
X34055Y15354D01*
X59449D01*
X-43307Y-34252D02*
Y30709D01*
X-21654Y-2362D02*
Y2362D01*
Y-2362D02*
X21457D01*
Y2362D01*
X-21654D02*
X21457D01*
X-43307Y30709D02*
X29528D01*
X27559Y-43111D02*
X31495D01*
X29527Y-41143D02*
Y-45079D01*
X33463Y-46063D02*
X37398Y-42127D01*
X39366Y-43111D02*
X43302D01*
X45270Y-41143D02*
X46254Y-40159D01*
X48222D01*
X49206Y-41143D01*
Y-45079D01*
X48222Y-46063D01*
X46254D01*
X45270Y-45079D01*
Y-41143D01*
X51174Y-46063D02*
Y-45079D01*
X52157D01*
Y-46063D01*
X51174D01*
X56093D02*
X58061D01*
X57077D01*
Y-40159D01*
X56093Y-41143D01*
X61013Y-46063D02*
Y-42127D01*
X61997D01*
X62981Y-43111D01*
Y-46063D01*
Y-43111D01*
X63965Y-42127D01*
X64948Y-43111D01*
Y-46063D01*
X66916D02*
Y-42127D01*
X67900D01*
X68884Y-43111D01*
Y-46063D01*
Y-43111D01*
X69868Y-42127D01*
X70852Y-43111D01*
Y-46063D01*
X-67912Y14961D02*
Y18896D01*
X-69880Y20864D02*
X-70864Y21848D01*
Y23816D01*
X-69880Y24800D01*
X-65945D01*
X-64961Y23816D01*
Y21848D01*
X-65945Y20864D01*
X-69880D01*
X-64961Y26768D02*
X-68896Y30704D01*
X-67912Y32671D02*
Y36607D01*
X-69880Y34639D02*
X-65945D01*
X-69880Y38575D02*
X-70864Y39559D01*
Y41527D01*
X-69880Y42511D01*
X-65945D01*
X-64961Y41527D01*
Y39559D01*
X-65945Y38575D01*
X-69880D01*
X-64961Y44479D02*
X-65945D01*
Y45463D01*
X-64961D01*
Y44479D01*
Y49398D02*
Y51366D01*
Y50382D01*
X-70864D01*
X-69880Y49398D01*
X-64961Y54318D02*
X-68896D01*
Y55302D01*
X-67912Y56286D01*
X-64961D01*
X-67912D01*
X-68896Y57270D01*
X-67912Y58254D01*
X-64961D01*
Y60222D02*
X-68896D01*
Y61206D01*
X-67912Y62189D01*
X-64961D01*
X-67912D01*
X-68896Y63173D01*
X-67912Y64157D01*
X-64961D01*
X64567Y-1970D02*
Y-7874D01*
X67519D01*
X68503Y-6890D01*
Y-2954D01*
X67519Y-1970D01*
X64567D01*
X71455Y-7874D02*
X73422D01*
X74406Y-6890D01*
Y-4922D01*
X73422Y-3938D01*
X71455D01*
X70470Y-4922D01*
Y-6890D01*
X71455Y-7874D01*
X82278D02*
Y-3938D01*
X85229D01*
X86213Y-4922D01*
Y-7874D01*
X89165D02*
X91133D01*
X92117Y-6890D01*
Y-4922D01*
X91133Y-3938D01*
X89165D01*
X88181Y-4922D01*
Y-6890D01*
X89165Y-7874D01*
X95069Y-2954D02*
Y-3938D01*
X94085D01*
X96053D01*
X95069D01*
Y-6890D01*
X96053Y-7874D01*
X105892Y-3938D02*
X107860D01*
X108844Y-4922D01*
Y-7874D01*
X105892D01*
X104908Y-6890D01*
X105892Y-5906D01*
X108844D01*
X114748Y-1970D02*
Y-7874D01*
X111796D01*
X110812Y-6890D01*
Y-4922D01*
X111796Y-3938D01*
X114748D01*
X120651Y-1970D02*
Y-7874D01*
X117699D01*
X116715Y-6890D01*
Y-4922D01*
X117699Y-3938D01*
X120651D01*
X128523D02*
Y-7874D01*
Y-5906D01*
X129507Y-4922D01*
X130491Y-3938D01*
X131474D01*
X135410D02*
X137378D01*
X138362Y-4922D01*
Y-7874D01*
X135410D01*
X134426Y-6890D01*
X135410Y-5906D01*
X138362D01*
X144265Y-1970D02*
Y-7874D01*
X141314D01*
X140330Y-6890D01*
Y-4922D01*
X141314Y-3938D01*
X144265D01*
X146233Y-7874D02*
X148201D01*
X147217D01*
Y-3938D01*
X146233D01*
X151153D02*
Y-6890D01*
X152137Y-7874D01*
X155089D01*
Y-3938D01*
X157057Y-7874D02*
X160009D01*
X160992Y-6890D01*
X160009Y-5906D01*
X158041D01*
X157057Y-4922D01*
X158041Y-3938D01*
X160992D01*
X169848Y-7874D02*
X171816D01*
X172800Y-6890D01*
Y-4922D01*
X171816Y-3938D01*
X169848D01*
X168864Y-4922D01*
Y-6890D01*
X169848Y-7874D01*
X175751D02*
Y-2954D01*
Y-4922D01*
X174767D01*
X176735D01*
X175751D01*
Y-2954D01*
X176735Y-1970D01*
X185591Y-7874D02*
Y-3938D01*
X186575D01*
X187559Y-4922D01*
Y-7874D01*
Y-4922D01*
X188542Y-3938D01*
X189526Y-4922D01*
Y-7874D01*
X192478D02*
X194446D01*
X195430Y-6890D01*
Y-4922D01*
X194446Y-3938D01*
X192478D01*
X191494Y-4922D01*
Y-6890D01*
X192478Y-7874D01*
X197398Y-3938D02*
Y-7874D01*
Y-5906D01*
X198382Y-4922D01*
X199366Y-3938D01*
X200350D01*
X206253Y-7874D02*
X204286D01*
X203302Y-6890D01*
Y-4922D01*
X204286Y-3938D01*
X206253D01*
X207237Y-4922D01*
Y-5906D01*
X203302D01*
X216093Y-2954D02*
Y-3938D01*
X215109D01*
X217077D01*
X216093D01*
Y-6890D01*
X217077Y-7874D01*
X220028Y-1970D02*
Y-7874D01*
Y-4922D01*
X221012Y-3938D01*
X222980D01*
X223964Y-4922D01*
Y-7874D01*
X226916Y-3938D02*
X228884D01*
X229868Y-4922D01*
Y-7874D01*
X226916D01*
X225932Y-6890D01*
X226916Y-5906D01*
X229868D01*
X231836Y-7874D02*
Y-3938D01*
X234787D01*
X235771Y-4922D01*
Y-7874D01*
X243643D02*
X245611D01*
X244627D01*
Y-1970D01*
X243643Y-2954D01*
X248563Y-7874D02*
Y-3938D01*
X249546D01*
X250530Y-4922D01*
Y-7874D01*
Y-4922D01*
X251514Y-3938D01*
X252498Y-4922D01*
Y-7874D01*
X254466D02*
Y-3938D01*
X255450D01*
X256434Y-4922D01*
Y-7874D01*
Y-4922D01*
X257418Y-3938D01*
X258402Y-4922D01*
Y-7874D01*
X67715Y8069D02*
X66731Y9053D01*
X64763D01*
X63779Y8069D01*
Y4133D01*
X64763Y3149D01*
X66731D01*
X67715Y4133D01*
X69683Y7085D02*
Y4133D01*
X70667Y3149D01*
X73619D01*
Y7085D01*
X76571Y8069D02*
Y7085D01*
X75587D01*
X77555D01*
X76571D01*
Y4133D01*
X77555Y3149D01*
X87394Y7085D02*
X89362D01*
X90346Y6101D01*
Y3149D01*
X87394D01*
X86410Y4133D01*
X87394Y5117D01*
X90346D01*
X92314Y3149D02*
X94282D01*
X93297D01*
Y9053D01*
X92314D01*
X98217Y3149D02*
X100185D01*
X101169Y4133D01*
Y6101D01*
X100185Y7085D01*
X98217D01*
X97233Y6101D01*
Y4133D01*
X98217Y3149D01*
X103137D02*
Y7085D01*
X106089D01*
X107073Y6101D01*
Y3149D01*
X111008Y1181D02*
X111992D01*
X112976Y2165D01*
Y7085D01*
X110024D01*
X109040Y6101D01*
Y4133D01*
X110024Y3149D01*
X112976D01*
X124783Y7085D02*
X121832D01*
X120848Y6101D01*
Y4133D01*
X121832Y3149D01*
X124783D01*
X127735D02*
X129703D01*
X130687Y4133D01*
Y6101D01*
X129703Y7085D01*
X127735D01*
X126751Y6101D01*
Y4133D01*
X127735Y3149D01*
X132655Y1181D02*
Y7085D01*
X135607D01*
X136591Y6101D01*
Y4133D01*
X135607Y3149D01*
X132655D01*
X138558Y1181D02*
Y7085D01*
X141510D01*
X142494Y6101D01*
Y4133D01*
X141510Y3149D01*
X138558D01*
X147414D02*
X145446D01*
X144462Y4133D01*
Y6101D01*
X145446Y7085D01*
X147414D01*
X148398Y6101D01*
Y5117D01*
X144462D01*
X150366Y7085D02*
Y3149D01*
Y5117D01*
X151350Y6101D01*
X152333Y7085D01*
X153317D01*
X165125Y3149D02*
X163157D01*
X162173Y4133D01*
Y6101D01*
X163157Y7085D01*
X165125D01*
X166109Y6101D01*
Y5117D01*
X162173D01*
X172012Y9053D02*
Y3149D01*
X169060D01*
X168077Y4133D01*
Y6101D01*
X169060Y7085D01*
X172012D01*
X175948Y1181D02*
X176932D01*
X177916Y2165D01*
Y7085D01*
X174964D01*
X173980Y6101D01*
Y4133D01*
X174964Y3149D01*
X177916D01*
X182835D02*
X180868D01*
X179884Y4133D01*
Y6101D01*
X180868Y7085D01*
X182835D01*
X183819Y6101D01*
Y5117D01*
X179884D01*
X63386Y19683D02*
X65354D01*
X64370D01*
Y13780D01*
X63386D01*
X65354D01*
X68305D02*
Y17715D01*
X71257D01*
X72241Y16731D01*
Y13780D01*
X75193Y18699D02*
Y17715D01*
X74209D01*
X76177D01*
X75193D01*
Y14763D01*
X76177Y13780D01*
X82081D02*
X80113D01*
X79129Y14763D01*
Y16731D01*
X80113Y17715D01*
X82081D01*
X83065Y16731D01*
Y15747D01*
X79129D01*
X85032Y17715D02*
Y13780D01*
Y15747D01*
X86016Y16731D01*
X87000Y17715D01*
X87984D01*
X90936Y13780D02*
Y17715D01*
X93888D01*
X94872Y16731D01*
Y13780D01*
X97824Y17715D02*
X99791D01*
X100775Y16731D01*
Y13780D01*
X97824D01*
X96840Y14763D01*
X97824Y15747D01*
X100775D01*
X102743Y13780D02*
X104711D01*
X103727D01*
Y19683D01*
X102743D01*
X117502Y17715D02*
X114550D01*
X113566Y16731D01*
Y14763D01*
X114550Y13780D01*
X117502D01*
X119470Y17715D02*
Y14763D01*
X120454Y13780D01*
X123406D01*
Y17715D01*
X126358Y18699D02*
Y17715D01*
X125374D01*
X127341D01*
X126358D01*
Y14763D01*
X127341Y13780D01*
X130293Y16731D02*
X134229D01*
X137181Y13780D02*
X139149D01*
X140133Y14763D01*
Y16731D01*
X139149Y17715D01*
X137181D01*
X136197Y16731D01*
Y14763D01*
X137181Y13780D01*
X142101Y17715D02*
Y14763D01*
X143084Y13780D01*
X146036D01*
Y17715D01*
X148988Y18699D02*
Y17715D01*
X148004D01*
X149972D01*
X148988D01*
Y14763D01*
X149972Y13780D01*
X-10630Y48030D02*
Y42126D01*
Y45078D01*
X-6694D01*
Y48030D01*
Y42126D01*
X-4726D02*
Y46062D01*
X-2758Y48030D01*
X-791Y46062D01*
Y42126D01*
Y45078D01*
X-4726D01*
X5113Y47046D02*
X4129Y48030D01*
X2161D01*
X1177Y47046D01*
Y46062D01*
X2161Y45078D01*
X4129D01*
X5113Y44094D01*
Y43110D01*
X4129Y42126D01*
X2161D01*
X1177Y43110D01*
X7081Y48030D02*
Y42126D01*
X11017D01*
X19872D02*
Y47046D01*
Y45078D01*
X18888D01*
X20856D01*
X19872D01*
Y47046D01*
X20856Y48030D01*
X23808Y42126D02*
X25776D01*
X24792D01*
Y46062D01*
X23808D01*
X28727Y42126D02*
Y46062D01*
X31679D01*
X32663Y45078D01*
Y42126D01*
X34631D02*
X36599D01*
X35615D01*
Y46062D01*
X34631D01*
X39551Y42126D02*
X42502D01*
X43486Y43110D01*
X42502Y44094D01*
X40535D01*
X39551Y45078D01*
X40535Y46062D01*
X43486D01*
X45454Y48030D02*
Y42126D01*
Y45078D01*
X46438Y46062D01*
X48406D01*
X49390Y45078D01*
Y42126D01*
X-7088Y60825D02*
X-8072Y61809D01*
X-10040D01*
X-11024Y60825D01*
Y59841D01*
X-10040Y58857D01*
X-8072D01*
X-7088Y57873D01*
Y56889D01*
X-8072Y55905D01*
X-10040D01*
X-11024Y56889D01*
X-5120Y55905D02*
X-3152D01*
X-4136D01*
Y59841D01*
X-5120D01*
X-200Y55905D02*
X1767D01*
X784D01*
Y61809D01*
X-200D01*
X4719Y55905D02*
Y61809D01*
Y57873D02*
X7671Y59841D01*
X4719Y57873D02*
X7671Y55905D01*
X10623D02*
X13575D01*
X14559Y56889D01*
X13575Y57873D01*
X11607D01*
X10623Y58857D01*
X11607Y59841D01*
X14559D01*
X20462D02*
X17511D01*
X16526Y58857D01*
Y56889D01*
X17511Y55905D01*
X20462D01*
X22430Y59841D02*
Y55905D01*
Y57873D01*
X23414Y58857D01*
X24398Y59841D01*
X25382D01*
X31286Y55905D02*
X29318D01*
X28334Y56889D01*
Y58857D01*
X29318Y59841D01*
X31286D01*
X32269Y58857D01*
Y57873D01*
X28334D01*
X37189Y55905D02*
X35221D01*
X34237Y56889D01*
Y58857D01*
X35221Y59841D01*
X37189D01*
X38173Y58857D01*
Y57873D01*
X34237D01*
X40141Y55905D02*
Y59841D01*
X43093D01*
X44077Y58857D01*
Y55905D01*
X46044Y59841D02*
X47028D01*
Y58857D01*
X46044D01*
Y59841D01*
Y56889D02*
X47028D01*
Y55905D01*
X46044D01*
Y56889D01*
X56868Y59841D02*
Y56889D01*
X57852Y55905D01*
X58836Y56889D01*
X59820Y55905D01*
X60804Y56889D01*
Y59841D01*
X62771Y61809D02*
Y55905D01*
Y58857D01*
X63755Y59841D01*
X65723D01*
X66707Y58857D01*
Y55905D01*
X68675D02*
X70643D01*
X69659D01*
Y59841D01*
X68675D01*
X74579Y60825D02*
Y59841D01*
X73595D01*
X75563D01*
X74579D01*
Y56889D01*
X75563Y55905D01*
X81466D02*
X79498D01*
X78514Y56889D01*
Y58857D01*
X79498Y59841D01*
X81466D01*
X82450Y58857D01*
Y57873D01*
X78514D01*
X90321Y55905D02*
X94257Y59841D01*
X106064Y60825D02*
X105080Y61809D01*
X103113D01*
X102129Y60825D01*
Y59841D01*
X103113Y58857D01*
X105080D01*
X106064Y57873D01*
Y56889D01*
X105080Y55905D01*
X103113D01*
X102129Y56889D01*
X109016Y55905D02*
X110984D01*
X111968Y56889D01*
Y58857D01*
X110984Y59841D01*
X109016D01*
X108032Y58857D01*
Y56889D01*
X109016Y55905D01*
X113936D02*
X115904D01*
X114920D01*
Y61809D01*
X113936D01*
X122791D02*
Y55905D01*
X119840D01*
X118856Y56889D01*
Y58857D01*
X119840Y59841D01*
X122791D01*
X127711Y55905D02*
X125743D01*
X124759Y56889D01*
Y58857D01*
X125743Y59841D01*
X127711D01*
X128695Y58857D01*
Y57873D01*
X124759D01*
X130663Y59841D02*
Y55905D01*
Y57873D01*
X131647Y58857D01*
X132631Y59841D01*
X133615D01*
X136566Y55905D02*
Y59841D01*
X137550D01*
X138534Y58857D01*
Y55905D01*
Y58857D01*
X139518Y59841D01*
X140502Y58857D01*
Y55905D01*
X143454Y59841D02*
X145422D01*
X146406Y58857D01*
Y55905D01*
X143454D01*
X142470Y56889D01*
X143454Y57873D01*
X146406D01*
X148374Y55905D02*
X151325D01*
X152309Y56889D01*
X151325Y57873D01*
X149357D01*
X148374Y58857D01*
X149357Y59841D01*
X152309D01*
X154277Y55905D02*
Y61809D01*
Y57873D02*
X157229Y59841D01*
X154277Y57873D02*
X157229Y55905D01*
X160181Y59841D02*
X161165D01*
Y58857D01*
X160181D01*
Y59841D01*
Y56889D02*
X161165D01*
Y55905D01*
X160181D01*
Y56889D01*
X172972Y53937D02*
X173956D01*
X174940Y54921D01*
Y59841D01*
X171988D01*
X171004Y58857D01*
Y56889D01*
X171988Y55905D01*
X174940D01*
X176908Y59841D02*
Y55905D01*
Y57873D01*
X177892Y58857D01*
X178876Y59841D01*
X179859D01*
X185763Y55905D02*
X183795D01*
X182811Y56889D01*
Y58857D01*
X183795Y59841D01*
X185763D01*
X186747Y58857D01*
Y57873D01*
X182811D01*
X191667Y55905D02*
X189699D01*
X188715Y56889D01*
Y58857D01*
X189699Y59841D01*
X191667D01*
X192651Y58857D01*
Y57873D01*
X188715D01*
X194618Y55905D02*
Y59841D01*
X197570D01*
X198554Y58857D01*
Y55905D01*
D32*
X-56693Y-2362D02*
X-54693Y-8362D01*
X-58693D02*
X-56693Y-2362D01*
X-58693Y8362D02*
X-56693Y2362D01*
X-54693Y8362D01*
X-56693Y-12362D02*
Y-2362D01*
Y2362D02*
Y12362D01*
X-57693Y2362D02*
X-23047D01*
X-57693Y-2362D02*
X-23047D01*
X-21654Y-43307D02*
X-15653Y-41307D01*
X-21654Y-43307D02*
X-15653Y-45307D01*
X15653D02*
X21654Y-43307D01*
X15653Y-41307D02*
X21654Y-43307D01*
X-21654D02*
X-15696D01*
X12496D02*
X21654D01*
X-21654Y-44307D02*
Y-3756D01*
X21654Y-44307D02*
Y-3937D01*
X-53377Y160935D02*
Y154937D01*
X-49378D01*
X-46379Y158936D02*
X-44380D01*
X-43380Y157936D01*
Y154937D01*
X-46379D01*
X-47379Y155937D01*
X-46379Y156936D01*
X-43380D01*
X-41381Y158936D02*
Y155937D01*
X-40381Y154937D01*
X-37382D01*
Y153937D01*
X-38382Y152938D01*
X-39382D01*
X-37382Y154937D02*
Y158936D01*
X-32384Y154937D02*
X-34383D01*
X-35383Y155937D01*
Y157936D01*
X-34383Y158936D01*
X-32384D01*
X-31384Y157936D01*
Y156936D01*
X-35383D01*
X-29385Y158936D02*
Y154937D01*
Y156936D01*
X-28385Y157936D01*
X-27386Y158936D01*
X-26386D01*
X-49378Y94937D02*
X-53377D01*
X-49378Y98936D01*
Y99935D01*
X-50378Y100935D01*
X-52377D01*
X-53377Y99935D01*
Y118937D02*
X-51378D01*
X-52377D01*
Y124935D01*
X-53377Y123935D01*
X-12386Y154937D02*
Y160935D01*
X-8387Y154937D01*
Y160935D01*
X-5388Y158936D02*
X-3389D01*
X-2389Y157936D01*
Y154937D01*
X-5388D01*
X-6388Y155937D01*
X-5388Y156936D01*
X-2389D01*
X-390Y154937D02*
Y158936D01*
X610D01*
X1610Y157936D01*
Y154937D01*
Y157936D01*
X2609Y158936D01*
X3609Y157936D01*
Y154937D01*
X8607D02*
X6608D01*
X5608Y155937D01*
Y157936D01*
X6608Y158936D01*
X8607D01*
X9607Y157936D01*
Y156936D01*
X5608D01*
X-12386Y76935D02*
Y70937D01*
X-9387D01*
X-8387Y71937D01*
Y72936D01*
X-9387Y73936D01*
X-12386D01*
X-9387D01*
X-8387Y74936D01*
Y75935D01*
X-9387Y76935D01*
X-12386D01*
X-5388Y70937D02*
X-3389D01*
X-2389Y71937D01*
Y73936D01*
X-3389Y74936D01*
X-5388D01*
X-6388Y73936D01*
Y71937D01*
X-5388Y70937D01*
X610Y75935D02*
Y74936D01*
X-390D01*
X1610D01*
X610D01*
Y71937D01*
X1610Y70937D01*
X5608Y75935D02*
Y74936D01*
X4609D01*
X6608D01*
X5608D01*
Y71937D01*
X6608Y70937D01*
X10607D02*
X12606D01*
X13606Y71937D01*
Y73936D01*
X12606Y74936D01*
X10607D01*
X9607Y73936D01*
Y71937D01*
X10607Y70937D01*
X15605D02*
Y74936D01*
X16605D01*
X17605Y73936D01*
Y70937D01*
Y73936D01*
X18604Y74936D01*
X19604Y73936D01*
Y70937D01*
X30600Y76935D02*
X28601D01*
X27601Y75935D01*
Y71937D01*
X28601Y70937D01*
X30600D01*
X31600Y71937D01*
Y75935D01*
X30600Y76935D01*
X33599Y74936D02*
X35599Y70937D01*
X37598Y74936D01*
X42596Y70937D02*
X40597D01*
X39597Y71937D01*
Y73936D01*
X40597Y74936D01*
X42596D01*
X43596Y73936D01*
Y72936D01*
X39597D01*
X45595Y74936D02*
Y70937D01*
Y72936D01*
X46595Y73936D01*
X47595Y74936D01*
X48594D01*
X51594Y70937D02*
X53593D01*
X52593D01*
Y76935D01*
X51594D01*
X57591Y74936D02*
X59591D01*
X60591Y73936D01*
Y70937D01*
X57591D01*
X56592Y71937D01*
X57591Y72936D01*
X60591D01*
X62590Y74936D02*
Y71937D01*
X63590Y70937D01*
X66589D01*
Y69937D01*
X65589Y68938D01*
X64589D01*
X66589Y70937D02*
Y74936D01*
X-12386Y88935D02*
Y82937D01*
X-9387D01*
X-8387Y83937D01*
Y84936D01*
X-9387Y85936D01*
X-12386D01*
X-9387D01*
X-8387Y86936D01*
Y87935D01*
X-9387Y88935D01*
X-12386D01*
X-5388Y82937D02*
X-3389D01*
X-2389Y83937D01*
Y85936D01*
X-3389Y86936D01*
X-5388D01*
X-6388Y85936D01*
Y83937D01*
X-5388Y82937D01*
X610Y87935D02*
Y86936D01*
X-390D01*
X1610D01*
X610D01*
Y83937D01*
X1610Y82937D01*
X5608Y87935D02*
Y86936D01*
X4609D01*
X6608D01*
X5608D01*
Y83937D01*
X6608Y82937D01*
X10607D02*
X12606D01*
X13606Y83937D01*
Y85936D01*
X12606Y86936D01*
X10607D01*
X9607Y85936D01*
Y83937D01*
X10607Y82937D01*
X15605D02*
Y86936D01*
X16605D01*
X17605Y85936D01*
Y82937D01*
Y85936D01*
X18604Y86936D01*
X19604Y85936D01*
Y82937D01*
X31600Y87935D02*
X30600Y88935D01*
X28601D01*
X27601Y87935D01*
Y86936D01*
X28601Y85936D01*
X30600D01*
X31600Y84936D01*
Y83937D01*
X30600Y82937D01*
X28601D01*
X27601Y83937D01*
X34599Y82937D02*
X36598D01*
X37598Y83937D01*
Y85936D01*
X36598Y86936D01*
X34599D01*
X33599Y85936D01*
Y83937D01*
X34599Y82937D01*
X39597D02*
X41597D01*
X40597D01*
Y88935D01*
X39597D01*
X48594D02*
Y82937D01*
X45595D01*
X44596Y83937D01*
Y85936D01*
X45595Y86936D01*
X48594D01*
X53593Y82937D02*
X51594D01*
X50594Y83937D01*
Y85936D01*
X51594Y86936D01*
X53593D01*
X54593Y85936D01*
Y84936D01*
X50594D01*
X56592Y86936D02*
Y82937D01*
Y84936D01*
X57591Y85936D01*
X58591Y86936D01*
X59591D01*
X-12386Y100935D02*
Y94937D01*
X-9387D01*
X-8387Y95937D01*
Y96936D01*
X-9387Y97936D01*
X-12386D01*
X-9387D01*
X-8387Y98936D01*
Y99935D01*
X-9387Y100935D01*
X-12386D01*
X-5388Y94937D02*
X-3389D01*
X-2389Y95937D01*
Y97936D01*
X-3389Y98936D01*
X-5388D01*
X-6388Y97936D01*
Y95937D01*
X-5388Y94937D01*
X610Y99935D02*
Y98936D01*
X-390D01*
X1610D01*
X610D01*
Y95937D01*
X1610Y94937D01*
X5608Y99935D02*
Y98936D01*
X4609D01*
X6608D01*
X5608D01*
Y95937D01*
X6608Y94937D01*
X10607D02*
X12606D01*
X13606Y95937D01*
Y97936D01*
X12606Y98936D01*
X10607D01*
X9607Y97936D01*
Y95937D01*
X10607Y94937D01*
X15605D02*
Y98936D01*
X16605D01*
X17605Y97936D01*
Y94937D01*
Y97936D01*
X18604Y98936D01*
X19604Y97936D01*
Y94937D01*
X27601Y100935D02*
Y94937D01*
X31600D01*
X34599Y98936D02*
X36598D01*
X37598Y97936D01*
Y94937D01*
X34599D01*
X33599Y95937D01*
X34599Y96936D01*
X37598D01*
X39597Y98936D02*
Y95937D01*
X40597Y94937D01*
X43596D01*
Y93937D01*
X42596Y92938D01*
X41597D01*
X43596Y94937D02*
Y98936D01*
X48594Y94937D02*
X46595D01*
X45595Y95937D01*
Y97936D01*
X46595Y98936D01*
X48594D01*
X49594Y97936D01*
Y96936D01*
X45595D01*
X51594Y98936D02*
Y94937D01*
Y96936D01*
X52593Y97936D01*
X53593Y98936D01*
X54593D01*
X-12386Y112935D02*
Y106937D01*
X-9387D01*
X-8387Y107937D01*
Y111935D01*
X-9387Y112935D01*
X-12386D01*
X-6388Y106937D02*
X-4388D01*
X-5388D01*
Y110936D01*
X-6388D01*
X1610Y106937D02*
X-390D01*
X-1389Y107937D01*
Y109936D01*
X-390Y110936D01*
X1610D01*
X2609Y109936D01*
Y108936D01*
X-1389D01*
X4609Y106937D02*
X6608D01*
X5608D01*
Y112935D01*
X4609D01*
X12606Y106937D02*
X10607D01*
X9607Y107937D01*
Y109936D01*
X10607Y110936D01*
X12606D01*
X13606Y109936D01*
Y108936D01*
X9607D01*
X19604Y110936D02*
X16605D01*
X15605Y109936D01*
Y107937D01*
X16605Y106937D01*
X19604D01*
X22603Y111935D02*
Y110936D01*
X21603D01*
X23603D01*
X22603D01*
Y107937D01*
X23603Y106937D01*
X26601Y110936D02*
Y106937D01*
Y108936D01*
X27601Y109936D01*
X28601Y110936D01*
X29601D01*
X32600Y106937D02*
X34599D01*
X33599D01*
Y110936D01*
X32600D01*
X41597D02*
X38598D01*
X37598Y109936D01*
Y107937D01*
X38598Y106937D01*
X41597D01*
X49594D02*
X51594D01*
X50594D01*
Y112935D01*
X49594Y111935D01*
X-12386Y124935D02*
X-8387D01*
X-10386D01*
Y118937D01*
X-5388D02*
X-3389D01*
X-2389Y119937D01*
Y121936D01*
X-3389Y122936D01*
X-5388D01*
X-6388Y121936D01*
Y119937D01*
X-5388Y118937D01*
X-390Y116938D02*
Y122936D01*
X2609D01*
X3609Y121936D01*
Y119937D01*
X2609Y118937D01*
X-390D01*
X11606Y124935D02*
Y118937D01*
X15605D01*
X18604Y122936D02*
X20604D01*
X21603Y121936D01*
Y118937D01*
X18604D01*
X17605Y119937D01*
X18604Y120936D01*
X21603D01*
X23603Y122936D02*
Y119937D01*
X24602Y118937D01*
X27601D01*
Y117937D01*
X26602Y116938D01*
X25602D01*
X27601Y118937D02*
Y122936D01*
X32600Y118937D02*
X30600D01*
X29601Y119937D01*
Y121936D01*
X30600Y122936D01*
X32600D01*
X33599Y121936D01*
Y120936D01*
X29601D01*
X35599Y122936D02*
Y118937D01*
Y120936D01*
X36598Y121936D01*
X37598Y122936D01*
X38598D01*
X-12386Y136935D02*
X-8387D01*
X-10386D01*
Y130937D01*
X-5388D02*
X-3389D01*
X-2389Y131937D01*
Y133936D01*
X-3389Y134936D01*
X-5388D01*
X-6388Y133936D01*
Y131937D01*
X-5388Y130937D01*
X-390Y128938D02*
Y134936D01*
X2609D01*
X3609Y133936D01*
Y131937D01*
X2609Y130937D01*
X-390D01*
X15605Y135935D02*
X14605Y136935D01*
X12606D01*
X11606Y135935D01*
Y134936D01*
X12606Y133936D01*
X14605D01*
X15605Y132936D01*
Y131937D01*
X14605Y130937D01*
X12606D01*
X11606Y131937D01*
X18604Y130937D02*
X20604D01*
X21603Y131937D01*
Y133936D01*
X20604Y134936D01*
X18604D01*
X17605Y133936D01*
Y131937D01*
X18604Y130937D01*
X23603D02*
X25602D01*
X24602D01*
Y136935D01*
X23603D01*
X32600D02*
Y130937D01*
X29601D01*
X28601Y131937D01*
Y133936D01*
X29601Y134936D01*
X32600D01*
X37598Y130937D02*
X35599D01*
X34599Y131937D01*
Y133936D01*
X35599Y134936D01*
X37598D01*
X38598Y133936D01*
Y132936D01*
X34599D01*
X40597Y134936D02*
Y130937D01*
Y132936D01*
X41597Y133936D01*
X42596Y134936D01*
X43596D01*
X-12386Y148935D02*
X-8387D01*
X-10386D01*
Y142937D01*
X-5388D02*
X-3389D01*
X-2389Y143937D01*
Y145936D01*
X-3389Y146936D01*
X-5388D01*
X-6388Y145936D01*
Y143937D01*
X-5388Y142937D01*
X-390Y140938D02*
Y146936D01*
X2609D01*
X3609Y145936D01*
Y143937D01*
X2609Y142937D01*
X-390D01*
X14605Y148935D02*
X12606D01*
X11606Y147935D01*
Y143937D01*
X12606Y142937D01*
X14605D01*
X15605Y143937D01*
Y147935D01*
X14605Y148935D01*
X17605Y146936D02*
X19604Y142937D01*
X21603Y146936D01*
X26602Y142937D02*
X24602D01*
X23603Y143937D01*
Y145936D01*
X24602Y146936D01*
X26602D01*
X27601Y145936D01*
Y144936D01*
X23603D01*
X29601Y146936D02*
Y142937D01*
Y144936D01*
X30600Y145936D01*
X31600Y146936D01*
X32600D01*
X35599Y142937D02*
X37598D01*
X36598D01*
Y148935D01*
X35599D01*
X41597Y146936D02*
X43596D01*
X44596Y145936D01*
Y142937D01*
X41597D01*
X40597Y143937D01*
X41597Y144936D01*
X44596D01*
X46595Y146936D02*
Y143937D01*
X47595Y142937D01*
X50594D01*
Y141937D01*
X49594Y140938D01*
X48594D01*
X50594Y142937D02*
Y146936D01*
X80589Y154937D02*
Y160935D01*
X82588Y158936D01*
X84587Y160935D01*
Y154937D01*
X87586Y158936D02*
X89586D01*
X90585Y157936D01*
Y154937D01*
X87586D01*
X86587Y155937D01*
X87586Y156936D01*
X90585D01*
X93584Y159935D02*
Y158936D01*
X92585D01*
X94584D01*
X93584D01*
Y155937D01*
X94584Y154937D01*
X100582D02*
X98583D01*
X97583Y155937D01*
Y157936D01*
X98583Y158936D01*
X100582D01*
X101582Y157936D01*
Y156936D01*
X97583D01*
X103581Y158936D02*
Y154937D01*
Y156936D01*
X104581Y157936D01*
X105580Y158936D01*
X106580D01*
X109579Y154937D02*
X111579D01*
X110579D01*
Y158936D01*
X109579D01*
X115577D02*
X117577D01*
X118576Y157936D01*
Y154937D01*
X115577D01*
X114578Y155937D01*
X115577Y156936D01*
X118576D01*
X120576Y154937D02*
X122575D01*
X121575D01*
Y160935D01*
X120576D01*
X84587Y87935D02*
X83588Y88935D01*
X81588D01*
X80589Y87935D01*
Y86936D01*
X81588Y85936D01*
X83588D01*
X84587Y84936D01*
Y83937D01*
X83588Y82937D01*
X81588D01*
X80589Y83937D01*
X86587Y82937D02*
Y88935D01*
X88586Y86936D01*
X90585Y88935D01*
Y82937D01*
X92585Y85936D02*
X96583D01*
X98583Y87935D02*
X99582Y88935D01*
X101582D01*
X102582Y87935D01*
Y83937D01*
X101582Y82937D01*
X99582D01*
X98583Y83937D01*
Y87935D01*
X104581D02*
X105580Y88935D01*
X107580D01*
X108580Y87935D01*
Y83937D01*
X107580Y82937D01*
X105580D01*
X104581Y83937D01*
Y87935D01*
X110579Y82937D02*
X112578D01*
X111579D01*
Y88935D01*
X110579Y87935D01*
X84587Y99935D02*
X83588Y100935D01*
X81588D01*
X80589Y99935D01*
Y95937D01*
X81588Y94937D01*
X83588D01*
X84587Y95937D01*
X90585Y100935D02*
X86587D01*
Y97936D01*
X88586D01*
X86587D01*
Y94937D01*
X92585Y97936D02*
X96583D01*
X98583Y99935D02*
X99582Y100935D01*
X101582D01*
X102582Y99935D01*
Y95937D01*
X101582Y94937D01*
X99582D01*
X98583Y95937D01*
Y99935D01*
X104581D02*
X105580Y100935D01*
X107580D01*
X108580Y99935D01*
Y95937D01*
X107580Y94937D01*
X105580D01*
X104581Y95937D01*
Y99935D01*
X113578Y94937D02*
Y100935D01*
X110579Y97936D01*
X114578D01*
X84587Y111935D02*
X83588Y112935D01*
X81588D01*
X80589Y111935D01*
Y107937D01*
X81588Y106937D01*
X83588D01*
X84587Y107937D01*
X87586Y106937D02*
X89586D01*
X90585Y107937D01*
Y109936D01*
X89586Y110936D01*
X87586D01*
X86587Y109936D01*
Y107937D01*
X87586Y106937D01*
X92585Y110936D02*
Y106937D01*
Y108936D01*
X93584Y109936D01*
X94584Y110936D01*
X95584D01*
X101582Y106937D02*
X99582D01*
X98583Y107937D01*
Y109936D01*
X99582Y110936D01*
X101582D01*
X102582Y109936D01*
Y108936D01*
X98583D01*
X104581Y109936D02*
X108580D01*
X110579Y111935D02*
X111579Y112935D01*
X113578D01*
X114578Y111935D01*
Y107937D01*
X113578Y106937D01*
X111579D01*
X110579Y107937D01*
Y111935D01*
X119576Y106937D02*
Y112935D01*
X116577Y109936D01*
X120576D01*
X122575Y111935D02*
X123575Y112935D01*
X125574D01*
X126574Y111935D01*
Y110936D01*
X125574Y109936D01*
X124574D01*
X125574D01*
X126574Y108936D01*
Y107937D01*
X125574Y106937D01*
X123575D01*
X122575Y107937D01*
X84587Y123935D02*
X83588Y124935D01*
X81588D01*
X80589Y123935D01*
Y119937D01*
X81588Y118937D01*
X83588D01*
X84587Y119937D01*
X90585Y124935D02*
X86587D01*
Y121936D01*
X88586D01*
X86587D01*
Y118937D01*
X92585Y121936D02*
X96583D01*
X98583Y123935D02*
X99582Y124935D01*
X101582D01*
X102582Y123935D01*
Y119937D01*
X101582Y118937D01*
X99582D01*
X98583Y119937D01*
Y123935D01*
X104581D02*
X105580Y124935D01*
X107580D01*
X108580Y123935D01*
Y119937D01*
X107580Y118937D01*
X105580D01*
X104581Y119937D01*
Y123935D01*
X113578Y118937D02*
Y124935D01*
X110579Y121936D01*
X114578D01*
X84587Y135935D02*
X83588Y136935D01*
X81588D01*
X80589Y135935D01*
Y134936D01*
X81588Y133936D01*
X83588D01*
X84587Y132936D01*
Y131937D01*
X83588Y130937D01*
X81588D01*
X80589Y131937D01*
X86587Y130937D02*
Y136935D01*
X88586Y134936D01*
X90585Y136935D01*
Y130937D01*
X92585Y133936D02*
X96583D01*
X98583Y135935D02*
X99582Y136935D01*
X101582D01*
X102582Y135935D01*
Y131937D01*
X101582Y130937D01*
X99582D01*
X98583Y131937D01*
Y135935D01*
X104581D02*
X105580Y136935D01*
X107580D01*
X108580Y135935D01*
Y131937D01*
X107580Y130937D01*
X105580D01*
X104581Y131937D01*
Y135935D01*
X110579Y130937D02*
X112578D01*
X111579D01*
Y136935D01*
X110579Y135935D01*
X140574Y160935D02*
X144572D01*
X142573D01*
Y154937D01*
X146572Y160935D02*
Y154937D01*
Y157936D01*
X147572Y158936D01*
X149571D01*
X150570Y157936D01*
Y154937D01*
X152570D02*
X154569D01*
X153570D01*
Y158936D01*
X152570D01*
X161567D02*
X158568D01*
X157568Y157936D01*
Y155937D01*
X158568Y154937D01*
X161567D01*
X163566D02*
Y160935D01*
Y156936D02*
X166565Y158936D01*
X163566Y156936D02*
X166565Y154937D01*
X169564D02*
Y158936D01*
X172563D01*
X173563Y157936D01*
Y154937D01*
X178561D02*
X176562D01*
X175562Y155937D01*
Y157936D01*
X176562Y158936D01*
X178561D01*
X179561Y157936D01*
Y156936D01*
X175562D01*
X181561Y154937D02*
X184560D01*
X185559Y155937D01*
X184560Y156936D01*
X182560D01*
X181561Y157936D01*
X182560Y158936D01*
X185559D01*
X187558Y154937D02*
X190558D01*
X191557Y155937D01*
X190558Y156936D01*
X188558D01*
X187558Y157936D01*
X188558Y158936D01*
X191557D01*
X140574Y87935D02*
X141573Y88935D01*
X143573D01*
X144572Y87935D01*
Y83937D01*
X143573Y82937D01*
X141573D01*
X140574Y83937D01*
Y87935D01*
X146572Y82937D02*
Y83937D01*
X147572D01*
Y82937D01*
X146572D01*
X151570Y87935D02*
X152570Y88935D01*
X154569D01*
X155569Y87935D01*
Y83937D01*
X154569Y82937D01*
X152570D01*
X151570Y83937D01*
Y87935D01*
X161567Y82937D02*
X157568D01*
X161567Y86936D01*
Y87935D01*
X160567Y88935D01*
X158568D01*
X157568Y87935D01*
X167565Y88935D02*
X163566D01*
Y85936D01*
X165566Y86936D01*
X166565D01*
X167565Y85936D01*
Y83937D01*
X166565Y82937D01*
X164566D01*
X163566Y83937D01*
X169564Y82937D02*
Y86936D01*
X170564D01*
X171564Y85936D01*
Y82937D01*
Y85936D01*
X172563Y86936D01*
X173563Y85936D01*
Y82937D01*
X175562D02*
Y86936D01*
X176562D01*
X177562Y85936D01*
Y82937D01*
Y85936D01*
X178561Y86936D01*
X179561Y85936D01*
Y82937D01*
X140574Y99935D02*
X141573Y100935D01*
X143573D01*
X144572Y99935D01*
Y95937D01*
X143573Y94937D01*
X141573D01*
X140574Y95937D01*
Y99935D01*
X146572Y94937D02*
Y95937D01*
X147572D01*
Y94937D01*
X146572D01*
X151570Y99935D02*
X152570Y100935D01*
X154569D01*
X155569Y99935D01*
Y95937D01*
X154569Y94937D01*
X152570D01*
X151570Y95937D01*
Y99935D01*
X157568D02*
X158568Y100935D01*
X160567D01*
X161567Y99935D01*
Y98936D01*
X160567Y97936D01*
X159568D01*
X160567D01*
X161567Y96936D01*
Y95937D01*
X160567Y94937D01*
X158568D01*
X157568Y95937D01*
X167565Y100935D02*
X163566D01*
Y97936D01*
X165566Y98936D01*
X166565D01*
X167565Y97936D01*
Y95937D01*
X166565Y94937D01*
X164566D01*
X163566Y95937D01*
X169564Y94937D02*
Y98936D01*
X170564D01*
X171564Y97936D01*
Y94937D01*
Y97936D01*
X172563Y98936D01*
X173563Y97936D01*
Y94937D01*
X175562D02*
Y98936D01*
X176562D01*
X177562Y97936D01*
Y94937D01*
Y97936D01*
X178561Y98936D01*
X179561Y97936D01*
Y94937D01*
X140574Y106937D02*
X142573D01*
X141573D01*
Y112935D01*
X140574Y111935D01*
X145572Y106937D02*
Y107937D01*
X146572D01*
Y106937D01*
X145572D01*
X153569D02*
Y112935D01*
X150570Y109936D01*
X154569D01*
X156569Y107937D02*
X157568Y106937D01*
X159568D01*
X160567Y107937D01*
Y111935D01*
X159568Y112935D01*
X157568D01*
X156569Y111935D01*
Y110936D01*
X157568Y109936D01*
X160567D01*
X162567Y107937D02*
X163566Y106937D01*
X165566D01*
X166565Y107937D01*
Y111935D01*
X165566Y112935D01*
X163566D01*
X162567Y111935D01*
Y110936D01*
X163566Y109936D01*
X166565D01*
X168565Y106937D02*
Y110936D01*
X169564D01*
X170564Y109936D01*
Y106937D01*
Y109936D01*
X171564Y110936D01*
X172563Y109936D01*
Y106937D01*
X174563D02*
Y110936D01*
X175562D01*
X176562Y109936D01*
Y106937D01*
Y109936D01*
X177562Y110936D01*
X178561Y109936D01*
Y106937D01*
X140574Y123935D02*
X141573Y124935D01*
X143573D01*
X144572Y123935D01*
Y119937D01*
X143573Y118937D01*
X141573D01*
X140574Y119937D01*
Y123935D01*
X146572Y118937D02*
Y119937D01*
X147572D01*
Y118937D01*
X146572D01*
X151570Y123935D02*
X152570Y124935D01*
X154569D01*
X155569Y123935D01*
Y119937D01*
X154569Y118937D01*
X152570D01*
X151570Y119937D01*
Y123935D01*
X157568D02*
X158568Y124935D01*
X160567D01*
X161567Y123935D01*
Y122936D01*
X160567Y121936D01*
X159568D01*
X160567D01*
X161567Y120936D01*
Y119937D01*
X160567Y118937D01*
X158568D01*
X157568Y119937D01*
X167565Y124935D02*
X163566D01*
Y121936D01*
X165566Y122936D01*
X166565D01*
X167565Y121936D01*
Y119937D01*
X166565Y118937D01*
X164566D01*
X163566Y119937D01*
X169564Y118937D02*
Y122936D01*
X170564D01*
X171564Y121936D01*
Y118937D01*
Y121936D01*
X172563Y122936D01*
X173563Y121936D01*
Y118937D01*
X175562D02*
Y122936D01*
X176562D01*
X177562Y121936D01*
Y118937D01*
Y121936D01*
X178561Y122936D01*
X179561Y121936D01*
Y118937D01*
X140574Y135935D02*
X141573Y136935D01*
X143573D01*
X144572Y135935D01*
Y131937D01*
X143573Y130937D01*
X141573D01*
X140574Y131937D01*
Y135935D01*
X146572Y130937D02*
Y131937D01*
X147572D01*
Y130937D01*
X146572D01*
X151570Y135935D02*
X152570Y136935D01*
X154569D01*
X155569Y135935D01*
Y131937D01*
X154569Y130937D01*
X152570D01*
X151570Y131937D01*
Y135935D01*
X161567Y130937D02*
X157568D01*
X161567Y134936D01*
Y135935D01*
X160567Y136935D01*
X158568D01*
X157568Y135935D01*
X167565Y136935D02*
X163566D01*
Y133936D01*
X165566Y134936D01*
X166565D01*
X167565Y133936D01*
Y131937D01*
X166565Y130937D01*
X164566D01*
X163566Y131937D01*
X169564Y130937D02*
Y134936D01*
X170564D01*
X171564Y133936D01*
Y130937D01*
Y133936D01*
X172563Y134936D01*
X173563Y133936D01*
Y130937D01*
X175562D02*
Y134936D01*
X176562D01*
X177562Y133936D01*
Y130937D01*
Y133936D01*
X178561Y134936D01*
X179561Y133936D01*
Y130937D01*
X209556Y159935D02*
X208556Y160935D01*
X206557D01*
X205557Y159935D01*
Y155937D01*
X206557Y154937D01*
X208556D01*
X209556Y155937D01*
X212555Y154937D02*
X214554D01*
X215554Y155937D01*
Y157936D01*
X214554Y158936D01*
X212555D01*
X211555Y157936D01*
Y155937D01*
X212555Y154937D01*
X217553D02*
Y158936D01*
X220552D01*
X221552Y157936D01*
Y154937D01*
X223551D02*
X226551D01*
X227550Y155937D01*
X226551Y156936D01*
X224551D01*
X223551Y157936D01*
X224551Y158936D01*
X227550D01*
X230549Y159935D02*
Y158936D01*
X229550D01*
X231549D01*
X230549D01*
Y155937D01*
X231549Y154937D01*
X235548Y158936D02*
X237547D01*
X238547Y157936D01*
Y154937D01*
X235548D01*
X234548Y155937D01*
X235548Y156936D01*
X238547D01*
X240546Y154937D02*
Y158936D01*
X243545D01*
X244545Y157936D01*
Y154937D01*
X247544Y159935D02*
Y158936D01*
X246544D01*
X248543D01*
X247544D01*
Y155937D01*
X248543Y154937D01*
X208556Y82937D02*
Y88935D01*
X205557Y85936D01*
X209556D01*
X208556Y106937D02*
Y112935D01*
X205557Y109936D01*
X209556D01*
X211555Y106937D02*
Y107937D01*
X212555D01*
Y106937D01*
X211555D01*
X216554Y111935D02*
X217553Y112935D01*
X219553D01*
X220552Y111935D01*
Y110936D01*
X219553Y109936D01*
X218553D01*
X219553D01*
X220552Y108936D01*
Y107937D01*
X219553Y106937D01*
X217553D01*
X216554Y107937D01*
X208556Y130937D02*
Y136935D01*
X205557Y133936D01*
X209556D01*
D33*
X-60377Y151937D02*
X255543D01*
X-60377Y163937D02*
X255543D01*
X-60377Y67937D02*
Y163937D01*
Y67937D02*
X-19386D01*
X-60377Y79937D02*
X-19386D01*
X-60377Y91937D02*
X-19386D01*
X-60377Y103937D02*
X-19386D01*
X-60377Y115937D02*
X-19386D01*
X-60377Y127937D02*
X-19386D01*
X-60377Y139937D02*
X-19386D01*
Y67937D02*
Y163937D01*
Y67937D02*
X73589D01*
X-19386Y79937D02*
X73589D01*
X-19386Y91937D02*
X73589D01*
X-19386Y103937D02*
X73589D01*
X-19386Y115937D02*
X73589D01*
X-19386Y127937D02*
X73589D01*
X-19386Y139937D02*
X73589D01*
Y67937D02*
Y163937D01*
Y67937D02*
X133574D01*
X73589Y79937D02*
X133574D01*
X73589Y91937D02*
X133574D01*
X73589Y103937D02*
X133574D01*
X73589Y115937D02*
X133574D01*
X73589Y127937D02*
X133574D01*
X73589Y139937D02*
X133574D01*
Y67937D02*
Y163937D01*
Y67937D02*
X198557D01*
X133574Y79937D02*
X198557D01*
X133574Y91937D02*
X198557D01*
X133574Y103937D02*
X198557D01*
X133574Y115937D02*
X198557D01*
X133574Y127937D02*
X198557D01*
X133574Y139937D02*
X198557D01*
Y67937D02*
Y163937D01*
Y67937D02*
X255543D01*
X198557Y79937D02*
X255543D01*
X198557Y91937D02*
X255543D01*
X198557Y103937D02*
X255543D01*
X198557Y115937D02*
X255543D01*
X198557Y127937D02*
X255543D01*
X198557Y139937D02*
X255543D01*
Y67937D02*
Y163937D01*
D34*
X-63891Y-11597D02*
Y-9597D01*
Y-10597D01*
X-69889D01*
X-68889Y-11597D01*
X-63891Y-6598D02*
X-64891D01*
Y-5599D01*
X-63891D01*
Y-6598D01*
Y2399D02*
Y-1600D01*
X-67890Y2399D01*
X-68889D01*
X-69889Y1399D01*
Y-600D01*
X-68889Y-1600D01*
Y4398D02*
X-69889Y5398D01*
Y7397D01*
X-68889Y8397D01*
X-64891D01*
X-63891Y7397D01*
Y5398D01*
X-64891Y4398D01*
X-68889D01*
X-14096Y-46906D02*
X-12097D01*
X-13096D01*
Y-40908D01*
X-14096Y-41908D01*
X-9098Y-46906D02*
X-7098D01*
X-8098D01*
Y-40908D01*
X-9098Y-41908D01*
X-4099Y-46906D02*
Y-45906D01*
X-3100D01*
Y-46906D01*
X-4099D01*
X899Y-41908D02*
X1899Y-40908D01*
X3898D01*
X4898Y-41908D01*
Y-45906D01*
X3898Y-46906D01*
X1899D01*
X899Y-45906D01*
Y-41908D01*
X6897D02*
X7897Y-40908D01*
X9896D01*
X10896Y-41908D01*
Y-45906D01*
X9896Y-46906D01*
X7897D01*
X6897Y-45906D01*
Y-41908D01*
M02*
