G04*
G04 #@! TF.GenerationSoftware,Altium Limited,Altium Designer,23.10.1 (27)*
G04*
G04 Layer_Color=128*
%FSLAX25Y25*%
%MOIN*%
G70*
G04*
G04 #@! TF.SameCoordinates,C1A9210B-CA7C-4178-8FF3-1732785E61EF*
G04*
G04*
G04 #@! TF.FilePolarity,Positive*
G04*
G01*
G75*
%ADD12R,0.14173X0.07874*%
%ADD15R,0.03150X0.01181*%
%ADD16R,0.03150X0.01575*%
%ADD17R,0.05118X0.07874*%
D12*
X-10630Y-6299D02*
D03*
X10630D02*
D03*
D15*
X-30709Y-22638D02*
D03*
Y-20669D02*
D03*
Y-18701D02*
D03*
Y-14764D02*
D03*
Y-12795D02*
D03*
Y-10827D02*
D03*
Y-6890D02*
D03*
Y-4921D02*
D03*
Y-2953D02*
D03*
Y-984D02*
D03*
Y984D02*
D03*
Y2953D02*
D03*
Y4921D02*
D03*
Y6890D02*
D03*
Y10827D02*
D03*
Y12795D02*
D03*
Y14764D02*
D03*
Y18701D02*
D03*
Y20669D02*
D03*
Y22638D02*
D03*
Y-24606D02*
D03*
Y-16732D02*
D03*
Y-8858D02*
D03*
Y8858D02*
D03*
Y16732D02*
D03*
Y24606D02*
D03*
D16*
X-40551Y-28543D02*
D03*
Y28543D02*
D03*
D17*
X10236Y6299D02*
D03*
X-10236D02*
D03*
X0D02*
D03*
M02*
