G04*
G04 #@! TF.GenerationSoftware,Altium Limited,Altium Designer,23.10.1 (27)*
G04*
G04 Layer_Color=8388736*
%FSLAX25Y25*%
%MOIN*%
G70*
G04*
G04 #@! TF.SameCoordinates,C1A9210B-CA7C-4178-8FF3-1732785E61EF*
G04*
G04*
G04 #@! TF.FilePolarity,Negative*
G04*
G01*
G75*
%ADD18R,0.14724X0.08425*%
%ADD19R,0.02126X0.03701*%
%ADD20R,0.01732X0.03701*%
%ADD21R,0.03701X0.01732*%
%ADD22R,0.03701X0.02126*%
%ADD23R,0.05669X0.08425*%
%ADD24C,0.07638*%
D18*
X10630Y-6299D02*
D03*
X-10630D02*
D03*
D19*
X19783Y-31398D02*
D03*
X37500D02*
D03*
D20*
X31594Y-21555D02*
D03*
X29626D02*
D03*
X27657D02*
D03*
X33563D02*
D03*
X25689D02*
D03*
X23720D02*
D03*
D21*
X-30709Y22638D02*
D03*
Y20669D02*
D03*
Y18701D02*
D03*
Y14764D02*
D03*
Y12795D02*
D03*
Y10827D02*
D03*
Y6890D02*
D03*
Y4921D02*
D03*
Y2953D02*
D03*
Y984D02*
D03*
Y-984D02*
D03*
Y-2953D02*
D03*
Y-4921D02*
D03*
Y-6890D02*
D03*
Y-10827D02*
D03*
Y-12795D02*
D03*
Y-14764D02*
D03*
Y-18701D02*
D03*
Y-20669D02*
D03*
Y-22638D02*
D03*
Y24606D02*
D03*
Y16732D02*
D03*
Y8858D02*
D03*
Y-8858D02*
D03*
Y-16732D02*
D03*
Y-24606D02*
D03*
D22*
X-40551Y28543D02*
D03*
Y-28543D02*
D03*
D23*
X0Y6299D02*
D03*
X10236D02*
D03*
X-10236D02*
D03*
D24*
X9764Y-25984D02*
D03*
X-10236D02*
D03*
M02*
