G04*
G04 #@! TF.GenerationSoftware,Altium Limited,Altium Designer,23.10.1 (27)*
G04*
G04 Layer_Physical_Order=1*
G04 Layer_Color=255*
%FSLAX25Y25*%
%MOIN*%
G70*
G04*
G04 #@! TF.SameCoordinates,C1A9210B-CA7C-4178-8FF3-1732785E61EF*
G04*
G04*
G04 #@! TF.FilePolarity,Positive*
G04*
G01*
G75*
%ADD11C,0.00591*%
%ADD12R,0.14173X0.07874*%
%ADD13R,0.01575X0.03150*%
%ADD14R,0.01181X0.03150*%
%ADD15R,0.03150X0.01181*%
%ADD16R,0.03150X0.01575*%
%ADD17R,0.05118X0.07874*%
%ADD25C,0.03937*%
%ADD26C,0.01181*%
%ADD27C,0.03150*%
%ADD28R,0.16043X0.16339*%
%ADD29C,0.07087*%
%ADD30C,0.03543*%
G36*
X36400Y19079D02*
Y-13110D01*
X30956Y-18554D01*
X30760Y-18847D01*
X30734Y-18980D01*
X30126D01*
Y-21555D01*
Y-24130D01*
X31216D01*
Y-23720D01*
X34744D01*
Y-20667D01*
X38298Y-17113D01*
X38760Y-17304D01*
Y-29232D01*
X36122D01*
Y-33248D01*
X21161D01*
Y-29447D01*
X23031D01*
X23377Y-29378D01*
X23670Y-29182D01*
X26229Y-26623D01*
X26425Y-26330D01*
X26494Y-25984D01*
X26494Y-25984D01*
Y-23720D01*
X28035D01*
Y-24130D01*
X29126D01*
Y-21555D01*
Y-18980D01*
X28665D01*
Y-18400D01*
X28665Y-18400D01*
X28665Y-18400D01*
Y-15884D01*
X28573Y-15424D01*
X28312Y-15033D01*
X28312Y-15033D01*
X28203Y-14923D01*
X28081Y-14842D01*
X27841Y-14482D01*
X27124Y-14004D01*
X26280Y-13836D01*
X22539D01*
X21695Y-14004D01*
X20978Y-14482D01*
X17983Y-17477D01*
X3150D01*
X2305Y-17645D01*
X1588Y-18124D01*
X462Y-19250D01*
X0Y-19059D01*
Y-3395D01*
X2543D01*
Y-5799D01*
X18717D01*
Y-3395D01*
X21654D01*
X22106Y-3208D01*
X22160Y-3076D01*
X22166Y-3072D01*
X22384Y-2746D01*
X22460Y-2362D01*
Y2362D01*
X22384Y2746D01*
X22166Y3072D01*
X22160Y3076D01*
X22106Y3208D01*
X21654Y3395D01*
X13386D01*
Y10827D01*
X8364D01*
X5658Y13532D01*
X5365Y13728D01*
X5020Y13797D01*
X-16930D01*
X-16930Y13797D01*
X-17275Y13728D01*
X-17568Y13532D01*
X-26189Y4912D01*
X-26385Y4619D01*
X-26453Y4273D01*
Y2854D01*
X-27420Y1887D01*
X-28134D01*
Y2453D01*
X-30709D01*
Y3453D01*
X-28134D01*
Y4421D01*
X-30709D01*
Y5421D01*
X-28134D01*
Y6390D01*
X-30709D01*
Y7390D01*
X-28134D01*
Y8358D01*
X-30709D01*
Y9358D01*
X-28134D01*
Y10327D01*
X-30709D01*
Y11327D01*
X-28134D01*
Y12295D01*
X-30709D01*
Y13295D01*
X-28134D01*
Y14264D01*
X-30709D01*
Y15264D01*
X-28134D01*
Y16232D01*
X-30709D01*
Y17232D01*
X-28134D01*
Y18201D01*
X-30709D01*
Y19201D01*
X-28134D01*
Y20169D01*
X-30709D01*
Y21169D01*
X-28134D01*
Y21433D01*
X-26378D01*
X-25917Y21525D01*
X-25604Y21735D01*
X-25000D01*
X-24654Y21803D01*
X-24361Y21999D01*
X-19016Y27345D01*
X28134D01*
X36400Y19079D01*
D02*
G37*
G36*
X22539Y-19873D02*
Y-23720D01*
X22719D01*
Y-25216D01*
X21673Y-26262D01*
X18408D01*
X18063Y-26331D01*
X17770Y-26527D01*
X13408Y-30888D01*
X10948D01*
X10882Y-30388D01*
X11517Y-30218D01*
X12553Y-29620D01*
X13399Y-28774D01*
X13997Y-27738D01*
X14307Y-26582D01*
Y-26484D01*
X5221D01*
Y-26582D01*
X5530Y-27738D01*
X6128Y-28774D01*
X6974Y-29620D01*
X8010Y-30218D01*
X8646Y-30388D01*
X8580Y-30888D01*
X1065D01*
X0Y-29823D01*
Y-25957D01*
X4064Y-21893D01*
X6852D01*
X6881Y-22002D01*
X6930Y-22393D01*
X6128Y-23195D01*
X5530Y-24231D01*
X5221Y-25386D01*
Y-25484D01*
X14307D01*
Y-25386D01*
X13997Y-24231D01*
X13399Y-23195D01*
X12597Y-22393D01*
X12646Y-22002D01*
X12676Y-21893D01*
X18898D01*
X19742Y-21725D01*
X20459Y-21246D01*
X22039Y-19666D01*
X22539Y-19873D01*
D02*
G37*
%LPC*%
G36*
X18717Y-6799D02*
X2543D01*
Y-11236D01*
X4428D01*
X4442Y-11244D01*
X5012Y-11397D01*
Y-8661D01*
X6012D01*
Y-11397D01*
X6582Y-11244D01*
X6595Y-11236D01*
X9546D01*
X9560Y-11244D01*
X10130Y-11397D01*
Y-8661D01*
X11130D01*
Y-11397D01*
X11700Y-11244D01*
X11714Y-11236D01*
X14664D01*
X14678Y-11244D01*
X15248Y-11397D01*
Y-8661D01*
X16248D01*
Y-11397D01*
X16818Y-11244D01*
X16832Y-11236D01*
X18717D01*
Y-6799D01*
D02*
G37*
%LPD*%
D11*
X23622Y-21654D02*
X23720Y-21555D01*
X23622Y-25591D02*
Y-21654D01*
X22047Y-27165D02*
X23622Y-25591D01*
X14272Y-32972D02*
X18701Y-28543D01*
X23031D01*
X18408Y-27165D02*
X22047D01*
X13782Y-31791D02*
X18408Y-27165D01*
X23031Y-28543D02*
X25591Y-25984D01*
X-25197Y-32972D02*
X14272D01*
X-24708Y-31791D02*
X13782D01*
X-26378Y-30121D02*
X-24708Y-31791D01*
X-26378Y-30121D02*
Y-24409D01*
X-30709Y-22638D02*
X-28150D01*
X-26378Y-24409D01*
X25591Y-21654D02*
X25689Y-21555D01*
X25591Y-25984D02*
Y-21654D01*
X-30709Y-27461D02*
Y-24606D01*
Y-27461D02*
X-25197Y-32972D01*
X-26378Y22638D02*
X-25000D01*
X-19390Y28248D01*
X28508D01*
X-21555Y29429D02*
X28998D01*
X28508Y28248D02*
X37303Y19453D01*
X28998Y29429D02*
X38484Y19942D01*
Y-15650D02*
Y19942D01*
X31594Y-19193D02*
X37303Y-13484D01*
Y19453D01*
X31594Y-21555D02*
Y-19193D01*
X-26378Y24606D02*
X-21555Y29429D01*
X33563Y-20571D02*
X38484Y-15650D01*
X33563Y-21555D02*
Y-20571D01*
X5020Y12894D02*
X9941Y7972D01*
X-3839Y11516D02*
X-246Y7923D01*
X-20184Y6299D02*
X-10236D01*
X-23188Y3295D02*
X-20184Y6299D01*
X-25550Y4273D02*
X-16930Y12894D01*
X-24369Y3784D02*
X-16637Y11516D01*
X-27046Y984D02*
X-25550Y2480D01*
X-24902Y-2953D02*
X-23188Y-1239D01*
X-24369Y1991D02*
Y3784D01*
X-27344Y-984D02*
X-24369Y1991D01*
X-23188Y-1239D02*
Y3295D01*
X-25550Y2480D02*
Y4273D01*
X-16930Y12894D02*
X5020D01*
X-16637Y11516D02*
X-3839D01*
X-30709Y984D02*
X-27046D01*
X-30709Y-984D02*
X-27344D01*
X-30709Y-2953D02*
X-24902D01*
D12*
X10630Y-6299D02*
D03*
X-10630D02*
D03*
D13*
X19783Y-31398D02*
D03*
X37500D02*
D03*
D14*
X31594Y-21555D02*
D03*
X29626D02*
D03*
X27657D02*
D03*
X33563D02*
D03*
X25689D02*
D03*
X23720D02*
D03*
D15*
X-30709Y22638D02*
D03*
Y20669D02*
D03*
Y18701D02*
D03*
Y14764D02*
D03*
Y12795D02*
D03*
Y10827D02*
D03*
Y6890D02*
D03*
Y4921D02*
D03*
Y2953D02*
D03*
Y984D02*
D03*
Y-984D02*
D03*
Y-2953D02*
D03*
Y-4921D02*
D03*
Y-6890D02*
D03*
Y-10827D02*
D03*
Y-12795D02*
D03*
Y-14764D02*
D03*
Y-18701D02*
D03*
Y-20669D02*
D03*
Y-22638D02*
D03*
Y24606D02*
D03*
Y16732D02*
D03*
Y8858D02*
D03*
Y-8858D02*
D03*
Y-16732D02*
D03*
Y-24606D02*
D03*
D16*
X-40551Y28543D02*
D03*
Y-28543D02*
D03*
D17*
X0Y6299D02*
D03*
X10236D02*
D03*
X-10236D02*
D03*
D25*
X-18356Y-13238D02*
X-10839Y-20756D01*
Y-25382D02*
Y-20756D01*
X-18356Y-13238D02*
Y-13091D01*
X-10839Y-25382D02*
X-10236Y-25984D01*
X10130Y-7193D02*
X10630Y-6693D01*
Y-8661D02*
Y-6693D01*
X21161D01*
X2543Y-7193D02*
X10130D01*
X10630Y-13976D02*
Y-8661D01*
X21161Y-6693D02*
X21752Y-6102D01*
D26*
X-26181Y-4921D02*
X-25197Y-5906D01*
X27351Y-15775D02*
X27461Y-15884D01*
Y-17224D02*
Y-15884D01*
Y-18400D02*
Y-17224D01*
Y-20028D02*
Y-18400D01*
X26039Y-16978D02*
X27461Y-18400D01*
X26280Y-16043D02*
X27461Y-17224D01*
Y-20028D02*
X27657Y-20225D01*
Y-21555D02*
Y-20225D01*
X-27165Y2953D02*
Y4746D01*
X-26990Y4921D01*
X-30709D02*
X-26990D01*
X-30709Y2953D02*
X-27165D01*
X-30709Y24606D02*
X-26378D01*
X-30709Y22638D02*
X-26378D01*
X-30709Y20669D02*
X-26378D01*
X-30709Y18701D02*
X-26378D01*
X-30709Y16732D02*
X-26378D01*
X-30709Y14764D02*
X-26378D01*
X-30709Y12795D02*
X-26378D01*
X-30709Y10827D02*
X-26378D01*
X-30709Y8858D02*
X-26378D01*
X-30709Y6890D02*
X-26378D01*
X-30709Y-20669D02*
X-26378D01*
X-30709Y-18701D02*
X-26378D01*
X-30709Y-16732D02*
X-26378D01*
X-30709Y-14764D02*
X-26378D01*
X-30709Y-12795D02*
X-26378D01*
X-30709Y-10827D02*
X-26378D01*
X-30709Y-8858D02*
X-26378D01*
X-30709Y-6890D02*
X-26378D01*
X-30709Y-4921D02*
X-26181D01*
D27*
X18898Y-19685D02*
X22539Y-16043D01*
X3150Y-19685D02*
X18898D01*
X-3150Y-25984D02*
X3150Y-19685D01*
X22539Y-16043D02*
X26280D01*
X-10236Y-25984D02*
X-3150D01*
D28*
X-18356Y-13091D02*
D03*
D29*
X9764Y-25984D02*
D03*
X-10236D02*
D03*
D30*
X-12992Y-5118D02*
D03*
X-7874D02*
D03*
X8268D02*
D03*
X12992D02*
D03*
X15748Y-8661D02*
D03*
X10630D02*
D03*
X5512D02*
D03*
X-5118D02*
D03*
X-10236D02*
D03*
X-15748D02*
D03*
X-10236Y8366D02*
D03*
X10335D02*
D03*
X197D02*
D03*
M02*
