G04*
G04 #@! TF.GenerationSoftware,Altium Limited,Altium Designer,23.10.1 (27)*
G04*
G04 Layer_Color=65535*
%FSLAX25Y25*%
%MOIN*%
G70*
G04*
G04 #@! TF.SameCoordinates,C1A9210B-CA7C-4178-8FF3-1732785E61EF*
G04*
G04*
G04 #@! TF.FilePolarity,Positive*
G04*
G01*
G75*
%ADD10C,0.00787*%
%ADD11C,0.00591*%
D10*
X21654Y-33465D02*
X35630D01*
X19783Y-18504D02*
X37500D01*
X18799Y-28937D02*
Y-22047D01*
X19783Y-20571D02*
Y-18504D01*
X38484Y-28937D02*
Y-22047D01*
X37500Y-20571D02*
Y-18504D01*
Y-22047D02*
X38484D01*
X37500D02*
Y-20571D01*
X18799Y-22047D02*
X19783D01*
Y-20571D01*
X-31201Y28543D02*
X-29724Y28543D01*
X-31201Y28543D02*
Y29528D01*
Y-28543D02*
X-29724D01*
X-31201Y-29528D02*
Y-28543D01*
X-29724D02*
X-27657D01*
X-38091Y-29528D02*
X-31201Y-29528D01*
X-29724Y28543D02*
X-27657D01*
X-38091Y29528D02*
X-31201Y29528D01*
X-27657Y-28543D02*
Y28543D01*
X-42618Y-26673D02*
Y26673D01*
X-15256Y25951D02*
Y29100D01*
X-13682D01*
X-13157Y28575D01*
Y27525D01*
X-13682Y27001D01*
X-15256D01*
X-11583Y25951D02*
X-10533D01*
X-10008Y26476D01*
Y27525D01*
X-10533Y28050D01*
X-11583D01*
X-12107Y27525D01*
Y26476D01*
X-11583Y25951D01*
X-8959D02*
X-7909D01*
X-8434D01*
Y29100D01*
X-8959D01*
X-6335Y25951D02*
X-4761D01*
X-4236Y26476D01*
X-4761Y27001D01*
X-5810D01*
X-6335Y27525D01*
X-5810Y28050D01*
X-4236D01*
X487Y25951D02*
Y28575D01*
Y27525D01*
X-38D01*
X1012D01*
X487D01*
Y28575D01*
X1012Y29100D01*
X2586Y25951D02*
X3636D01*
X3111D01*
Y29100D01*
X2586D01*
X5210Y25951D02*
X6260D01*
X5735D01*
Y28050D01*
X5210D01*
X7834Y24902D02*
Y28050D01*
X9408D01*
X9933Y27525D01*
Y26476D01*
X9408Y25951D01*
X7834D01*
X25148Y-9843D02*
Y-8531D01*
Y-9187D01*
X29083D01*
Y-9843D01*
Y-8531D01*
X28427Y-3939D02*
X25804D01*
X25148Y-4595D01*
Y-5907D01*
X25804Y-6563D01*
X28427D01*
X29083Y-5907D01*
Y-4595D01*
X27771Y-5251D02*
X29083Y-3939D01*
Y-4595D02*
X28427Y-3939D01*
X29083Y1309D02*
X26460D01*
X25148Y2621D01*
X26460Y3932D01*
X29083D01*
X27115D01*
Y1309D01*
X25148Y7868D02*
X29083D01*
Y5900D01*
X28427Y5244D01*
X27115D01*
X26460Y5900D01*
Y7868D01*
Y9836D02*
Y11148D01*
X27115Y11804D01*
X29083D01*
Y9836D01*
X28427Y9180D01*
X27771Y9836D01*
Y11804D01*
X30395Y13116D02*
X26460D01*
Y15084D01*
X27115Y15740D01*
X28427D01*
X29083Y15084D01*
Y13116D01*
X25804Y17708D02*
X26460D01*
Y17052D01*
Y18364D01*
Y17708D01*
X28427D01*
X29083Y18364D01*
Y22299D02*
Y20987D01*
X28427Y20332D01*
X27115D01*
X26460Y20987D01*
Y22299D01*
X27115Y22955D01*
X27771D01*
Y20332D01*
X26460Y24267D02*
X29083D01*
X27771D01*
X27115Y24923D01*
X26460Y25579D01*
Y26235D01*
X34384Y-9843D02*
X37008Y-8531D01*
X34384Y-7219D01*
X37008Y-5907D02*
Y-4595D01*
Y-5251D01*
X33072D01*
X33728Y-5907D01*
X-14174Y20374D02*
X-15223D01*
X-15748Y20899D01*
Y21948D01*
X-15223Y22473D01*
X-14174D01*
X-13649Y21948D01*
Y21423D01*
X-15748D01*
X-12075Y22473D02*
X-11025D01*
X-10500Y21948D01*
Y20374D01*
X-12075D01*
X-12599Y20899D01*
X-12075Y21423D01*
X-10500D01*
X-7352Y22473D02*
X-8926D01*
X-9451Y21948D01*
Y20899D01*
X-8926Y20374D01*
X-7352D01*
X-6302Y23523D02*
Y20374D01*
Y21948D01*
X-5777Y22473D01*
X-4728D01*
X-4203Y21948D01*
Y20374D01*
X-5D02*
X1569D01*
X2094Y20899D01*
X1569Y21423D01*
X520D01*
X-5Y21948D01*
X520Y22473D01*
X2094D01*
X3144Y20374D02*
X4193D01*
X3668D01*
Y22473D01*
X3144D01*
X7866Y23523D02*
Y20374D01*
X6292D01*
X5767Y20899D01*
Y21948D01*
X6292Y22473D01*
X7866D01*
X10490Y20374D02*
X9441D01*
X8916Y20899D01*
Y21948D01*
X9441Y22473D01*
X10490D01*
X11015Y21948D01*
Y21423D01*
X8916D01*
X12065D02*
Y24047D01*
Y20899D02*
Y20374D01*
X24803Y-14961D02*
X26902D01*
X25853Y-13912D02*
Y-16011D01*
X31100Y-14961D02*
X33199D01*
X25460Y-30708D02*
Y-26772D01*
X27428D01*
X28084Y-27428D01*
Y-28740D01*
X27428Y-29396D01*
X25460D01*
X29396Y-27428D02*
X30052Y-26772D01*
X31364D01*
X32020Y-27428D01*
Y-28084D01*
X31364Y-28740D01*
X30708D01*
X31364D01*
X32020Y-29396D01*
Y-30052D01*
X31364Y-30708D01*
X30052D01*
X29396Y-30052D01*
X-23228Y20079D02*
Y16930D01*
X-21260Y-14567D02*
X-24408D01*
X-22834Y-12993D02*
Y-16142D01*
X12007Y16534D02*
X11220Y17321D01*
X9645D01*
X8858Y16534D01*
Y13386D01*
X9645Y12598D01*
X11220D01*
X12007Y13386D01*
Y14960D01*
X10433D01*
X-12008Y12598D02*
Y17321D01*
X-9646D01*
X-8859Y16534D01*
Y14960D01*
X-9646Y14173D01*
X-12008D01*
X-10434D02*
X-8859Y12598D01*
X-1476Y17321D02*
X1672D01*
X98D01*
Y12598D01*
X9055Y-14567D02*
X12204D01*
X-11811Y-14567D02*
X-8662D01*
X-10237Y-12993D02*
Y-16142D01*
X-36221Y-3280D02*
X-40157D01*
Y-1312D01*
X-39501Y-656D01*
X-38189D01*
X-37533Y-1312D01*
Y-3280D01*
X-36221Y3280D02*
Y656D01*
X-38845Y3280D01*
X-39501D01*
X-40157Y2624D01*
Y1312D01*
X-39501Y656D01*
D11*
X-12008Y-21457D02*
Y-18308D01*
X-10958Y-19358D01*
X-9909Y-18308D01*
Y-21457D01*
X-8335D02*
X-7285D01*
X-6760Y-20932D01*
Y-19882D01*
X-7285Y-19358D01*
X-8335D01*
X-8859Y-19882D01*
Y-20932D01*
X-8335Y-21457D01*
X-5711Y-19358D02*
Y-20932D01*
X-5186Y-21457D01*
X-3612D01*
Y-19358D01*
X-2562Y-21457D02*
Y-19358D01*
X-988D01*
X-463Y-19882D01*
Y-21457D01*
X1111Y-18833D02*
Y-19358D01*
X587D01*
X1636D01*
X1111D01*
Y-20932D01*
X1636Y-21457D01*
X6884Y-19358D02*
X7933D01*
X8458Y-19882D01*
Y-21457D01*
X6884D01*
X6359Y-20932D01*
X6884Y-20407D01*
X8458D01*
X9507Y-21457D02*
X11082D01*
X11607Y-20932D01*
X11082Y-20407D01*
X10032D01*
X9507Y-19882D01*
X10032Y-19358D01*
X11607D01*
X-4921Y-31693D02*
Y-28544D01*
X-3347D01*
X-2822Y-29069D01*
Y-30119D01*
X-3347Y-30643D01*
X-4921D01*
X-3872D02*
X-2822Y-31693D01*
X-1773D02*
X326Y-29594D01*
X1376Y-31693D02*
Y-29594D01*
X2425Y-28544D01*
X3475Y-29594D01*
Y-31693D01*
Y-30119D01*
X1376D01*
X4524Y-30643D02*
Y-28020D01*
Y-31168D02*
Y-31693D01*
M02*
