M48
;Layer_Color=9474304
;FILE_FORMAT=2:5
INCH,LZ
;TYPE=PLATED
T01F00S00C0.01968
T02F00S00C0.03543
T03F00S00C0.04016
T04F00S00C0.05000
;TYPE=NON_PLATED
T05F00S00C0.10236
%
T01
X0038583Y-0014961
X0037008Y0005118
Y001063
Y0015748
X0025492Y0015551
Y0020669
X0025591Y0010335
X0025506Y0005243
T02
X-0016929Y-0093701
X-0016929Y-0083701
Y-0073701
X-0016929Y-0063701
X-0016929Y-0053701
X-0016929Y-0043701
X0Y-0043701
Y-0053701
Y-0063701
Y-0073701
Y-0083701
Y-0093701
X0016929
Y-0083701
X0016929Y-0073701
X0016929Y-0063701
X0016929Y-0053701
Y-0043701
T03
X-0005906Y-0017323
X0005906
X0005906Y0014961
X-0005906
T04
X-0017717Y-0009606
X0017717
X0017717Y0022677
X-0017717
T05
X-0032677Y-0088583
Y-0041339
X0032677
Y-0088583
M30
