G04*
G04 #@! TF.GenerationSoftware,Altium Limited,Altium Designer,23.10.1 (27)*
G04*
G04 Layer_Color=65535*
%FSLAX25Y25*%
%MOIN*%
G70*
G04*
G04 #@! TF.SameCoordinates,772BFEA8-91BE-421E-ADD9-B03B6B11456D*
G04*
G04*
G04 #@! TF.FilePolarity,Positive*
G04*
G01*
G75*
%ADD10C,0.00787*%
%ADD11C,0.00492*%
D10*
X-165847Y125886D02*
X-151870D01*
X-167717Y140847D02*
X-150000D01*
X-168701Y130413D02*
Y137303D01*
X-167717Y138779D02*
Y140847D01*
X-149016Y130413D02*
Y137303D01*
X-150000Y138779D02*
Y140847D01*
Y137303D02*
X-149016D01*
X-150000D02*
Y138779D01*
X-168701Y137303D02*
X-167717D01*
Y138779D01*
X-116970Y113796D02*
X-115300Y113855D01*
X-115242Y112185D01*
X-117985Y110975D02*
X-115300Y113855D01*
X-136358Y134568D02*
X-133674Y137448D01*
X-120607Y138182D02*
X-108514Y126905D01*
X-136180Y121482D02*
X-124087Y110205D01*
X-108514Y126905D01*
X-110393Y124890D02*
X-107109Y118598D01*
X-111942Y113415D02*
X-107109Y118598D01*
X-117250Y117537D02*
X-111942Y113415D01*
X-167717Y122439D02*
Y120078D01*
X-166929Y119291D01*
X-164568D01*
Y122439D01*
X-162994Y117717D02*
Y122439D01*
X-160632D01*
X-159845Y121652D01*
Y120078D01*
X-160632Y119291D01*
X-162994D01*
X-158271Y117717D02*
Y122439D01*
X-155909D01*
X-155122Y121652D01*
Y120078D01*
X-155909Y119291D01*
X-158271D01*
X-151187D02*
X-152761D01*
X-153548Y120078D01*
Y121652D01*
X-152761Y122439D01*
X-151187D01*
X-150399Y121652D01*
Y120865D01*
X-153548D01*
X-148825Y122439D02*
Y119291D01*
Y120865D01*
X-148038Y121652D01*
X-147251Y122439D01*
X-146464D01*
X-146850Y138975D02*
X-145276Y135827D01*
X-143702Y138975D01*
X-142128Y135827D02*
X-140553D01*
X-141340D01*
Y140550D01*
X-142128Y139762D01*
D11*
X-118527Y131428D02*
Y132170D01*
X-119269Y132912D01*
X-120011Y132912D01*
X-120382Y132541D01*
X-120382Y131799D01*
X-119640Y131057D01*
X-119640Y130315D01*
X-120011Y129944D01*
X-120753Y129944D01*
X-121495Y130686D01*
Y131428D01*
X-118156Y127346D02*
X-119640Y128831D01*
X-116671D01*
X-116300Y129202D01*
Y129944D01*
X-117042Y130686D01*
X-117784Y130686D01*
X-156921Y132688D02*
Y129540D01*
X-158495D01*
X-159020Y130064D01*
Y131114D01*
X-158495Y131639D01*
X-156921D01*
X-160069Y130064D02*
X-160594Y129540D01*
X-161643D01*
X-162168Y130064D01*
Y130589D01*
X-161643Y131114D01*
X-161119D01*
X-161643D01*
X-162168Y131639D01*
Y132164D01*
X-161643Y132688D01*
X-160594D01*
X-160069Y132164D01*
M02*
