G04*
G04 #@! TF.GenerationSoftware,Altium Limited,Altium Designer,23.10.1 (27)*
G04*
G04 Layer_Color=32768*
%FSLAX25Y25*%
%MOIN*%
G70*
G04*
G04 #@! TF.SameCoordinates,772BFEA8-91BE-421E-ADD9-B03B6B11456D*
G04*
G04*
G04 #@! TF.FilePolarity,Positive*
G04*
G01*
G75*
%ADD10C,0.00787*%
%ADD23C,0.01500*%
%ADD24C,0.01000*%
D10*
X-136221Y149606D02*
X-131102Y144488D01*
X-136221Y149606D02*
Y156693D01*
X-222835Y164171D02*
X-224410D01*
X-225197Y163384D01*
Y160235D01*
X-224410Y159448D01*
X-222835D01*
X-222048Y160235D01*
Y163384D01*
X-222835Y164171D01*
X-220474D02*
Y159448D01*
Y161023D01*
X-217325Y164171D01*
X-219687Y161810D01*
X-217325Y159448D01*
X-210241D02*
Y163384D01*
Y161810D01*
X-211028D01*
X-209454D01*
X-210241D01*
Y163384D01*
X-209454Y164171D01*
X-206305Y159448D02*
X-204731D01*
X-203944Y160235D01*
Y161810D01*
X-204731Y162597D01*
X-206305D01*
X-207092Y161810D01*
Y160235D01*
X-206305Y159448D01*
X-202370Y162597D02*
Y159448D01*
Y161023D01*
X-201582Y161810D01*
X-200795Y162597D01*
X-200008D01*
X-192924Y157874D02*
Y162597D01*
X-190562D01*
X-189775Y161810D01*
Y160235D01*
X-190562Y159448D01*
X-192924D01*
X-187414Y162597D02*
X-185839D01*
X-185052Y161810D01*
Y159448D01*
X-187414D01*
X-188201Y160235D01*
X-187414Y161023D01*
X-185052D01*
X-180330Y164171D02*
Y159448D01*
X-182691D01*
X-183478Y160235D01*
Y161810D01*
X-182691Y162597D01*
X-180330D01*
X-170884D02*
X-173245D01*
X-174032Y161810D01*
Y160235D01*
X-173245Y159448D01*
X-170884D01*
X-169309Y162597D02*
Y160235D01*
X-168522Y159448D01*
X-166161D01*
Y162597D01*
X-163799Y163384D02*
Y162597D01*
X-164587D01*
X-163012D01*
X-163799D01*
Y160235D01*
X-163012Y159448D01*
X-152779Y164171D02*
Y159448D01*
X-155141D01*
X-155928Y160235D01*
Y161810D01*
X-155141Y162597D01*
X-152779D01*
X-151205D02*
Y160235D01*
X-150418Y159448D01*
X-148056D01*
Y162597D01*
X-146482D02*
Y159448D01*
Y161023D01*
X-145695Y161810D01*
X-144908Y162597D01*
X-144121D01*
X-141759Y159448D02*
X-140185D01*
X-140972D01*
Y162597D01*
X-141759D01*
X-137824Y159448D02*
Y162597D01*
X-135462D01*
X-134675Y161810D01*
Y159448D01*
X-131526Y157874D02*
X-130739D01*
X-129952Y158661D01*
Y162597D01*
X-132314D01*
X-133101Y161810D01*
Y160235D01*
X-132314Y159448D01*
X-129952D01*
X-122868D02*
Y163384D01*
Y161810D01*
X-123655D01*
X-122081D01*
X-122868D01*
Y163384D01*
X-122081Y164171D01*
X-119719Y159448D02*
X-118145D01*
X-118932D01*
Y162597D01*
X-119719D01*
X-115783Y159448D02*
Y162597D01*
X-113422D01*
X-112635Y161810D01*
Y159448D01*
X-110273Y162597D02*
X-108699D01*
X-107912Y161810D01*
Y159448D01*
X-110273D01*
X-111061Y160235D01*
X-110273Y161023D01*
X-107912D01*
X-106338Y159448D02*
X-104763D01*
X-105551D01*
Y164171D01*
X-106338D01*
X-97679Y162597D02*
Y159448D01*
Y161023D01*
X-96892Y161810D01*
X-96105Y162597D01*
X-95318D01*
X-92169Y159448D02*
X-90595D01*
X-89808Y160235D01*
Y161810D01*
X-90595Y162597D01*
X-92169D01*
X-92956Y161810D01*
Y160235D01*
X-92169Y159448D01*
X-88233Y162597D02*
Y160235D01*
X-87446Y159448D01*
X-85085D01*
Y162597D01*
X-82723Y163384D02*
Y162597D01*
X-83510D01*
X-81936D01*
X-82723D01*
Y160235D01*
X-81936Y159448D01*
X-77213D02*
X-78787D01*
X-79575Y160235D01*
Y161810D01*
X-78787Y162597D01*
X-77213D01*
X-76426Y161810D01*
Y161023D01*
X-79575D01*
X-74852Y161810D02*
X-71703D01*
X-69342Y159448D02*
X-67768D01*
X-66980Y160235D01*
Y161810D01*
X-67768Y162597D01*
X-69342D01*
X-70129Y161810D01*
Y160235D01*
X-69342Y159448D01*
X-65406Y162597D02*
Y160235D01*
X-64619Y159448D01*
X-62257D01*
Y162597D01*
X-59896Y163384D02*
Y162597D01*
X-60683D01*
X-59109D01*
X-59896D01*
Y160235D01*
X-59109Y159448D01*
X-151970Y181691D02*
X-152954Y182675D01*
X-154922D01*
X-155905Y181691D01*
Y180707D01*
X-154922Y179724D01*
X-152954D01*
X-151970Y178740D01*
Y177756D01*
X-152954Y176772D01*
X-154922D01*
X-155905Y177756D01*
X-149018Y176772D02*
X-147050D01*
X-146066Y177756D01*
Y179724D01*
X-147050Y180707D01*
X-149018D01*
X-150002Y179724D01*
Y177756D01*
X-149018Y176772D01*
X-144098D02*
X-142130D01*
X-143114D01*
Y182675D01*
X-144098D01*
X-135243D02*
Y176772D01*
X-138195D01*
X-139179Y177756D01*
Y179724D01*
X-138195Y180707D01*
X-135243D01*
X-130323Y176772D02*
X-132291D01*
X-133275Y177756D01*
Y179724D01*
X-132291Y180707D01*
X-130323D01*
X-129339Y179724D01*
Y178740D01*
X-133275D01*
X-127371Y180707D02*
Y176772D01*
Y178740D01*
X-126388Y179724D01*
X-125404Y180707D01*
X-124420D01*
X-115564Y176772D02*
Y180707D01*
X-114580D01*
X-113596Y179724D01*
Y176772D01*
Y179724D01*
X-112612Y180707D01*
X-111628Y179724D01*
Y176772D01*
X-108677Y180707D02*
X-106709D01*
X-105725Y179724D01*
Y176772D01*
X-108677D01*
X-109661Y177756D01*
X-108677Y178740D01*
X-105725D01*
X-103757Y176772D02*
X-100805D01*
X-99821Y177756D01*
X-100805Y178740D01*
X-102773D01*
X-103757Y179724D01*
X-102773Y180707D01*
X-99821D01*
X-97853Y176772D02*
Y182675D01*
Y178740D02*
X-94902Y180707D01*
X-97853Y178740D02*
X-94902Y176772D01*
X-91950Y180707D02*
X-90966D01*
Y179724D01*
X-91950D01*
Y180707D01*
Y177756D02*
X-90966D01*
Y176772D01*
X-91950D01*
Y177756D01*
X-77191Y181691D02*
X-78175Y182675D01*
X-80143D01*
X-81127Y181691D01*
Y177756D01*
X-80143Y176772D01*
X-78175D01*
X-77191Y177756D01*
Y179724D01*
X-79159D01*
X-75223Y180707D02*
Y176772D01*
Y178740D01*
X-74239Y179724D01*
X-73255Y180707D01*
X-72271D01*
X-66368Y176772D02*
X-68335D01*
X-69319Y177756D01*
Y179724D01*
X-68335Y180707D01*
X-66368D01*
X-65384Y179724D01*
Y178740D01*
X-69319D01*
X-60464Y176772D02*
X-62432D01*
X-63416Y177756D01*
Y179724D01*
X-62432Y180707D01*
X-60464D01*
X-59480Y179724D01*
Y178740D01*
X-63416D01*
X-57512Y176772D02*
Y180707D01*
X-54560D01*
X-53576Y179724D01*
Y176772D01*
X-45705D02*
X-41769Y180707D01*
X-29962Y181691D02*
X-30946Y182675D01*
X-32914D01*
X-33898Y181691D01*
Y180707D01*
X-32914Y179724D01*
X-30946D01*
X-29962Y178740D01*
Y177756D01*
X-30946Y176772D01*
X-32914D01*
X-33898Y177756D01*
X-27994Y176772D02*
X-26026D01*
X-27010D01*
Y180707D01*
X-27994D01*
X-23075Y176772D02*
X-21107D01*
X-22091D01*
Y182675D01*
X-23075D01*
X-18155Y176772D02*
Y182675D01*
Y178740D02*
X-15203Y180707D01*
X-18155Y178740D02*
X-15203Y176772D01*
X-12251Y180707D02*
X-11267D01*
Y179724D01*
X-12251D01*
Y180707D01*
Y177756D02*
X-11267D01*
Y176772D01*
X-12251D01*
Y177756D01*
X-1428Y182675D02*
Y176772D01*
X540Y178740D01*
X2508Y176772D01*
Y182675D01*
X4476D02*
Y176772D01*
Y179724D01*
X5460Y180707D01*
X7427D01*
X8411Y179724D01*
Y176772D01*
X10379D02*
X12347D01*
X11363D01*
Y180707D01*
X10379D01*
X16283Y181691D02*
Y180707D01*
X15299D01*
X17267D01*
X16283D01*
Y177756D01*
X17267Y176772D01*
X23170D02*
X21203D01*
X20219Y177756D01*
Y179724D01*
X21203Y180707D01*
X23170D01*
X24154Y179724D01*
Y178740D01*
X20219D01*
X-151970Y192715D02*
X-152954Y193699D01*
X-154922D01*
X-155905Y192715D01*
Y191731D01*
X-154922Y190747D01*
X-152954D01*
X-151970Y189763D01*
Y188779D01*
X-152954Y187795D01*
X-154922D01*
X-155905Y188779D01*
X-150002Y191731D02*
Y188779D01*
X-149018Y187795D01*
X-146066D01*
Y191731D01*
X-144098D02*
Y187795D01*
Y189763D01*
X-143114Y190747D01*
X-142130Y191731D01*
X-141147D01*
X-137211Y187795D02*
Y192715D01*
Y190747D01*
X-138195D01*
X-136227D01*
X-137211D01*
Y192715D01*
X-136227Y193699D01*
X-132291Y191731D02*
X-130323D01*
X-129339Y190747D01*
Y187795D01*
X-132291D01*
X-133275Y188779D01*
X-132291Y189763D01*
X-129339D01*
X-123436Y191731D02*
X-126388D01*
X-127371Y190747D01*
Y188779D01*
X-126388Y187795D01*
X-123436D01*
X-118516D02*
X-120484D01*
X-121468Y188779D01*
Y190747D01*
X-120484Y191731D01*
X-118516D01*
X-117532Y190747D01*
Y189763D01*
X-121468D01*
X-105725Y193699D02*
X-109661D01*
Y190747D01*
X-107693D01*
X-109661D01*
Y187795D01*
X-103757D02*
X-101789D01*
X-102773D01*
Y191731D01*
X-103757D01*
X-98837Y187795D02*
Y191731D01*
X-95886D01*
X-94902Y190747D01*
Y187795D01*
X-92934D02*
X-90966D01*
X-91950D01*
Y191731D01*
X-92934D01*
X-88014Y187795D02*
X-85062D01*
X-84078Y188779D01*
X-85062Y189763D01*
X-87030D01*
X-88014Y190747D01*
X-87030Y191731D01*
X-84078D01*
X-82111Y193699D02*
Y187795D01*
Y190747D01*
X-81127Y191731D01*
X-79159D01*
X-78175Y190747D01*
Y187795D01*
X-76207Y191731D02*
X-75223D01*
Y190747D01*
X-76207D01*
Y191731D01*
Y188779D02*
X-75223D01*
Y187795D01*
X-76207D01*
Y188779D01*
X-65384Y193699D02*
Y187795D01*
Y190747D01*
X-61448D01*
Y193699D01*
Y187795D01*
X-59480D02*
Y191731D01*
X-57512Y193699D01*
X-55544Y191731D01*
Y187795D01*
Y190747D01*
X-59480D01*
X-49641Y192715D02*
X-50625Y193699D01*
X-52592D01*
X-53576Y192715D01*
Y191731D01*
X-52592Y190747D01*
X-50625D01*
X-49641Y189763D01*
Y188779D01*
X-50625Y187795D01*
X-52592D01*
X-53576Y188779D01*
X-47673Y193699D02*
Y187795D01*
X-43737D01*
D23*
X-202015Y283039D02*
X113906D01*
X-202015Y295039D02*
X113906D01*
X-202015Y199039D02*
Y295039D01*
Y199039D02*
X-161024D01*
X-202015Y211039D02*
X-161024D01*
X-202015Y223039D02*
X-161024D01*
X-202015Y235039D02*
X-161024D01*
X-202015Y247039D02*
X-161024D01*
X-202015Y259039D02*
X-161024D01*
X-202015Y271039D02*
X-161024D01*
Y199039D02*
Y295039D01*
Y199039D02*
X-68049D01*
X-161024Y211039D02*
X-68049D01*
X-161024Y223039D02*
X-68049D01*
X-161024Y235039D02*
X-68049D01*
X-161024Y247039D02*
X-68049D01*
X-161024Y259039D02*
X-68049D01*
X-161024Y271039D02*
X-68049D01*
Y199039D02*
Y295039D01*
Y199039D02*
X-8064D01*
X-68049Y211039D02*
X-8064D01*
X-68049Y223039D02*
X-8064D01*
X-68049Y235039D02*
X-8064D01*
X-68049Y247039D02*
X-8064D01*
X-68049Y259039D02*
X-8064D01*
X-68049Y271039D02*
X-8064D01*
Y199039D02*
Y295039D01*
Y199039D02*
X56919D01*
X-8064Y211039D02*
X56919D01*
X-8064Y223039D02*
X56919D01*
X-8064Y235039D02*
X56919D01*
X-8064Y247039D02*
X56919D01*
X-8064Y259039D02*
X56919D01*
X-8064Y271039D02*
X56919D01*
Y199039D02*
Y295039D01*
Y199039D02*
X113906D01*
X56919Y211039D02*
X113906D01*
X56919Y223039D02*
X113906D01*
X56919Y235039D02*
X113906D01*
X56919Y247039D02*
X113906D01*
X56919Y259039D02*
X113906D01*
X56919Y271039D02*
X113906D01*
Y199039D02*
Y295039D01*
D24*
X-195015Y292037D02*
Y286039D01*
X-191016D01*
X-188017Y290038D02*
X-186018D01*
X-185018Y289038D01*
Y286039D01*
X-188017D01*
X-189017Y287039D01*
X-188017Y288039D01*
X-185018D01*
X-183019Y290038D02*
Y287039D01*
X-182019Y286039D01*
X-179020D01*
Y285040D01*
X-180020Y284040D01*
X-181019D01*
X-179020Y286039D02*
Y290038D01*
X-174022Y286039D02*
X-176021D01*
X-177021Y287039D01*
Y289038D01*
X-176021Y290038D01*
X-174022D01*
X-173022Y289038D01*
Y288039D01*
X-177021D01*
X-171023Y290038D02*
Y286039D01*
Y288039D01*
X-170023Y289038D01*
X-169023Y290038D01*
X-168024D01*
X-191016Y226039D02*
X-195015D01*
X-191016Y230038D01*
Y231038D01*
X-192016Y232037D01*
X-194015D01*
X-195015Y231038D01*
Y250039D02*
X-193016D01*
X-194015D01*
Y256037D01*
X-195015Y255038D01*
X-154024Y286039D02*
Y292037D01*
X-150025Y286039D01*
Y292037D01*
X-147026Y290038D02*
X-145027D01*
X-144027Y289038D01*
Y286039D01*
X-147026D01*
X-148026Y287039D01*
X-147026Y288039D01*
X-144027D01*
X-142027Y286039D02*
Y290038D01*
X-141028D01*
X-140028Y289038D01*
Y286039D01*
Y289038D01*
X-139029Y290038D01*
X-138029Y289038D01*
Y286039D01*
X-133030D02*
X-135030D01*
X-136029Y287039D01*
Y289038D01*
X-135030Y290038D01*
X-133030D01*
X-132031Y289038D01*
Y288039D01*
X-136029D01*
X-154024Y208037D02*
Y202039D01*
X-151025D01*
X-150025Y203039D01*
Y204039D01*
X-151025Y205038D01*
X-154024D01*
X-151025D01*
X-150025Y206038D01*
Y207038D01*
X-151025Y208037D01*
X-154024D01*
X-147026Y202039D02*
X-145027D01*
X-144027Y203039D01*
Y205038D01*
X-145027Y206038D01*
X-147026D01*
X-148026Y205038D01*
Y203039D01*
X-147026Y202039D01*
X-141028Y207038D02*
Y206038D01*
X-142027D01*
X-140028D01*
X-141028D01*
Y203039D01*
X-140028Y202039D01*
X-136029Y207038D02*
Y206038D01*
X-137029D01*
X-135030D01*
X-136029D01*
Y203039D01*
X-135030Y202039D01*
X-131031D02*
X-129032D01*
X-128032Y203039D01*
Y205038D01*
X-129032Y206038D01*
X-131031D01*
X-132031Y205038D01*
Y203039D01*
X-131031Y202039D01*
X-126033D02*
Y206038D01*
X-125033D01*
X-124033Y205038D01*
Y202039D01*
Y205038D01*
X-123034Y206038D01*
X-122034Y205038D01*
Y202039D01*
X-111038Y208037D02*
X-113037D01*
X-114037Y207038D01*
Y203039D01*
X-113037Y202039D01*
X-111038D01*
X-110038Y203039D01*
Y207038D01*
X-111038Y208037D01*
X-108038Y206038D02*
X-106039Y202039D01*
X-104040Y206038D01*
X-99041Y202039D02*
X-101041D01*
X-102040Y203039D01*
Y205038D01*
X-101041Y206038D01*
X-99041D01*
X-98042Y205038D01*
Y204039D01*
X-102040D01*
X-96042Y206038D02*
Y202039D01*
Y204039D01*
X-95043Y205038D01*
X-94043Y206038D01*
X-93043D01*
X-90044Y202039D02*
X-88045D01*
X-89045D01*
Y208037D01*
X-90044D01*
X-84046Y206038D02*
X-82047D01*
X-81047Y205038D01*
Y202039D01*
X-84046D01*
X-85046Y203039D01*
X-84046Y204039D01*
X-81047D01*
X-79048Y206038D02*
Y203039D01*
X-78048Y202039D01*
X-75049D01*
Y201040D01*
X-76049Y200040D01*
X-77048D01*
X-75049Y202039D02*
Y206038D01*
X-154024Y220037D02*
Y214039D01*
X-151025D01*
X-150025Y215039D01*
Y216039D01*
X-151025Y217038D01*
X-154024D01*
X-151025D01*
X-150025Y218038D01*
Y219038D01*
X-151025Y220037D01*
X-154024D01*
X-147026Y214039D02*
X-145027D01*
X-144027Y215039D01*
Y217038D01*
X-145027Y218038D01*
X-147026D01*
X-148026Y217038D01*
Y215039D01*
X-147026Y214039D01*
X-141028Y219038D02*
Y218038D01*
X-142027D01*
X-140028D01*
X-141028D01*
Y215039D01*
X-140028Y214039D01*
X-136029Y219038D02*
Y218038D01*
X-137029D01*
X-135030D01*
X-136029D01*
Y215039D01*
X-135030Y214039D01*
X-131031D02*
X-129032D01*
X-128032Y215039D01*
Y217038D01*
X-129032Y218038D01*
X-131031D01*
X-132031Y217038D01*
Y215039D01*
X-131031Y214039D01*
X-126033D02*
Y218038D01*
X-125033D01*
X-124033Y217038D01*
Y214039D01*
Y217038D01*
X-123034Y218038D01*
X-122034Y217038D01*
Y214039D01*
X-110038Y219038D02*
X-111038Y220037D01*
X-113037D01*
X-114037Y219038D01*
Y218038D01*
X-113037Y217038D01*
X-111038D01*
X-110038Y216039D01*
Y215039D01*
X-111038Y214039D01*
X-113037D01*
X-114037Y215039D01*
X-107039Y214039D02*
X-105040D01*
X-104040Y215039D01*
Y217038D01*
X-105040Y218038D01*
X-107039D01*
X-108038Y217038D01*
Y215039D01*
X-107039Y214039D01*
X-102040D02*
X-100041D01*
X-101041D01*
Y220037D01*
X-102040D01*
X-93043D02*
Y214039D01*
X-96042D01*
X-97042Y215039D01*
Y217038D01*
X-96042Y218038D01*
X-93043D01*
X-88045Y214039D02*
X-90044D01*
X-91044Y215039D01*
Y217038D01*
X-90044Y218038D01*
X-88045D01*
X-87045Y217038D01*
Y216039D01*
X-91044D01*
X-85046Y218038D02*
Y214039D01*
Y216039D01*
X-84046Y217038D01*
X-83047Y218038D01*
X-82047D01*
X-154024Y232037D02*
Y226039D01*
X-151025D01*
X-150025Y227039D01*
Y228039D01*
X-151025Y229038D01*
X-154024D01*
X-151025D01*
X-150025Y230038D01*
Y231038D01*
X-151025Y232037D01*
X-154024D01*
X-147026Y226039D02*
X-145027D01*
X-144027Y227039D01*
Y229038D01*
X-145027Y230038D01*
X-147026D01*
X-148026Y229038D01*
Y227039D01*
X-147026Y226039D01*
X-141028Y231038D02*
Y230038D01*
X-142027D01*
X-140028D01*
X-141028D01*
Y227039D01*
X-140028Y226039D01*
X-136029Y231038D02*
Y230038D01*
X-137029D01*
X-135030D01*
X-136029D01*
Y227039D01*
X-135030Y226039D01*
X-131031D02*
X-129032D01*
X-128032Y227039D01*
Y229038D01*
X-129032Y230038D01*
X-131031D01*
X-132031Y229038D01*
Y227039D01*
X-131031Y226039D01*
X-126033D02*
Y230038D01*
X-125033D01*
X-124033Y229038D01*
Y226039D01*
Y229038D01*
X-123034Y230038D01*
X-122034Y229038D01*
Y226039D01*
X-114037Y232037D02*
Y226039D01*
X-110038D01*
X-107039Y230038D02*
X-105040D01*
X-104040Y229038D01*
Y226039D01*
X-107039D01*
X-108038Y227039D01*
X-107039Y228039D01*
X-104040D01*
X-102040Y230038D02*
Y227039D01*
X-101041Y226039D01*
X-98042D01*
Y225040D01*
X-99041Y224040D01*
X-100041D01*
X-98042Y226039D02*
Y230038D01*
X-93043Y226039D02*
X-95043D01*
X-96042Y227039D01*
Y229038D01*
X-95043Y230038D01*
X-93043D01*
X-92044Y229038D01*
Y228039D01*
X-96042D01*
X-90044Y230038D02*
Y226039D01*
Y228039D01*
X-89045Y229038D01*
X-88045Y230038D01*
X-87045D01*
X-154024Y244037D02*
Y238039D01*
X-151025D01*
X-150025Y239039D01*
Y243038D01*
X-151025Y244037D01*
X-154024D01*
X-148026Y238039D02*
X-146026D01*
X-147026D01*
Y242038D01*
X-148026D01*
X-140028Y238039D02*
X-142027D01*
X-143027Y239039D01*
Y241038D01*
X-142027Y242038D01*
X-140028D01*
X-139029Y241038D01*
Y240039D01*
X-143027D01*
X-137029Y238039D02*
X-135030D01*
X-136029D01*
Y244037D01*
X-137029D01*
X-129032Y238039D02*
X-131031D01*
X-132031Y239039D01*
Y241038D01*
X-131031Y242038D01*
X-129032D01*
X-128032Y241038D01*
Y240039D01*
X-132031D01*
X-122034Y242038D02*
X-125033D01*
X-126033Y241038D01*
Y239039D01*
X-125033Y238039D01*
X-122034D01*
X-119035Y243038D02*
Y242038D01*
X-120035D01*
X-118035D01*
X-119035D01*
Y239039D01*
X-118035Y238039D01*
X-115036Y242038D02*
Y238039D01*
Y240039D01*
X-114037Y241038D01*
X-113037Y242038D01*
X-112037D01*
X-109038Y238039D02*
X-107039D01*
X-108038D01*
Y242038D01*
X-109038D01*
X-100041D02*
X-103040D01*
X-104040Y241038D01*
Y239039D01*
X-103040Y238039D01*
X-100041D01*
X-92044D02*
X-90044D01*
X-91044D01*
Y244037D01*
X-92044Y243038D01*
X-154024Y256037D02*
X-150025D01*
X-152024D01*
Y250039D01*
X-147026D02*
X-145027D01*
X-144027Y251039D01*
Y253038D01*
X-145027Y254038D01*
X-147026D01*
X-148026Y253038D01*
Y251039D01*
X-147026Y250039D01*
X-142027Y248040D02*
Y254038D01*
X-139029D01*
X-138029Y253038D01*
Y251039D01*
X-139029Y250039D01*
X-142027D01*
X-130031Y256037D02*
Y250039D01*
X-126033D01*
X-123034Y254038D02*
X-121034D01*
X-120035Y253038D01*
Y250039D01*
X-123034D01*
X-124033Y251039D01*
X-123034Y252039D01*
X-120035D01*
X-118035Y254038D02*
Y251039D01*
X-117036Y250039D01*
X-114037D01*
Y249040D01*
X-115036Y248040D01*
X-116036D01*
X-114037Y250039D02*
Y254038D01*
X-109038Y250039D02*
X-111038D01*
X-112037Y251039D01*
Y253038D01*
X-111038Y254038D01*
X-109038D01*
X-108038Y253038D01*
Y252039D01*
X-112037D01*
X-106039Y254038D02*
Y250039D01*
Y252039D01*
X-105040Y253038D01*
X-104040Y254038D01*
X-103040D01*
X-154024Y268037D02*
X-150025D01*
X-152024D01*
Y262039D01*
X-147026D02*
X-145027D01*
X-144027Y263039D01*
Y265038D01*
X-145027Y266038D01*
X-147026D01*
X-148026Y265038D01*
Y263039D01*
X-147026Y262039D01*
X-142027Y260040D02*
Y266038D01*
X-139029D01*
X-138029Y265038D01*
Y263039D01*
X-139029Y262039D01*
X-142027D01*
X-126033Y267038D02*
X-127032Y268037D01*
X-129032D01*
X-130031Y267038D01*
Y266038D01*
X-129032Y265038D01*
X-127032D01*
X-126033Y264039D01*
Y263039D01*
X-127032Y262039D01*
X-129032D01*
X-130031Y263039D01*
X-123034Y262039D02*
X-121034D01*
X-120035Y263039D01*
Y265038D01*
X-121034Y266038D01*
X-123034D01*
X-124033Y265038D01*
Y263039D01*
X-123034Y262039D01*
X-118035D02*
X-116036D01*
X-117036D01*
Y268037D01*
X-118035D01*
X-109038D02*
Y262039D01*
X-112037D01*
X-113037Y263039D01*
Y265038D01*
X-112037Y266038D01*
X-109038D01*
X-104040Y262039D02*
X-106039D01*
X-107039Y263039D01*
Y265038D01*
X-106039Y266038D01*
X-104040D01*
X-103040Y265038D01*
Y264039D01*
X-107039D01*
X-101041Y266038D02*
Y262039D01*
Y264039D01*
X-100041Y265038D01*
X-99041Y266038D01*
X-98042D01*
X-154024Y280037D02*
X-150025D01*
X-152024D01*
Y274039D01*
X-147026D02*
X-145027D01*
X-144027Y275039D01*
Y277038D01*
X-145027Y278038D01*
X-147026D01*
X-148026Y277038D01*
Y275039D01*
X-147026Y274039D01*
X-142027Y272040D02*
Y278038D01*
X-139029D01*
X-138029Y277038D01*
Y275039D01*
X-139029Y274039D01*
X-142027D01*
X-127032Y280037D02*
X-129032D01*
X-130031Y279038D01*
Y275039D01*
X-129032Y274039D01*
X-127032D01*
X-126033Y275039D01*
Y279038D01*
X-127032Y280037D01*
X-124033Y278038D02*
X-122034Y274039D01*
X-120035Y278038D01*
X-115036Y274039D02*
X-117036D01*
X-118035Y275039D01*
Y277038D01*
X-117036Y278038D01*
X-115036D01*
X-114037Y277038D01*
Y276039D01*
X-118035D01*
X-112037Y278038D02*
Y274039D01*
Y276039D01*
X-111038Y277038D01*
X-110038Y278038D01*
X-109038D01*
X-106039Y274039D02*
X-104040D01*
X-105040D01*
Y280037D01*
X-106039D01*
X-100041Y278038D02*
X-98042D01*
X-97042Y277038D01*
Y274039D01*
X-100041D01*
X-101041Y275039D01*
X-100041Y276039D01*
X-97042D01*
X-95043Y278038D02*
Y275039D01*
X-94043Y274039D01*
X-91044D01*
Y273040D01*
X-92044Y272040D01*
X-93043D01*
X-91044Y274039D02*
Y278038D01*
X-61049Y286039D02*
Y292037D01*
X-59050Y290038D01*
X-57051Y292037D01*
Y286039D01*
X-54051Y290038D02*
X-52052D01*
X-51052Y289038D01*
Y286039D01*
X-54051D01*
X-55051Y287039D01*
X-54051Y288039D01*
X-51052D01*
X-48053Y291038D02*
Y290038D01*
X-49053D01*
X-47054D01*
X-48053D01*
Y287039D01*
X-47054Y286039D01*
X-41056D02*
X-43055D01*
X-44055Y287039D01*
Y289038D01*
X-43055Y290038D01*
X-41056D01*
X-40056Y289038D01*
Y288039D01*
X-44055D01*
X-38057Y290038D02*
Y286039D01*
Y288039D01*
X-37057Y289038D01*
X-36057Y290038D01*
X-35058D01*
X-32059Y286039D02*
X-30059D01*
X-31059D01*
Y290038D01*
X-32059D01*
X-26061D02*
X-24061D01*
X-23062Y289038D01*
Y286039D01*
X-26061D01*
X-27060Y287039D01*
X-26061Y288039D01*
X-23062D01*
X-21062Y286039D02*
X-19063D01*
X-20062D01*
Y292037D01*
X-21062D01*
X-57051Y219038D02*
X-58050Y220037D01*
X-60049D01*
X-61049Y219038D01*
Y218038D01*
X-60049Y217038D01*
X-58050D01*
X-57051Y216039D01*
Y215039D01*
X-58050Y214039D01*
X-60049D01*
X-61049Y215039D01*
X-55051Y214039D02*
Y220037D01*
X-53052Y218038D01*
X-51052Y220037D01*
Y214039D01*
X-49053Y217038D02*
X-45054D01*
X-43055Y219038D02*
X-42055Y220037D01*
X-40056D01*
X-39056Y219038D01*
Y215039D01*
X-40056Y214039D01*
X-42055D01*
X-43055Y215039D01*
Y219038D01*
X-37057D02*
X-36057Y220037D01*
X-34058D01*
X-33058Y219038D01*
Y215039D01*
X-34058Y214039D01*
X-36057D01*
X-37057Y215039D01*
Y219038D01*
X-31059Y214039D02*
X-29059D01*
X-30059D01*
Y220037D01*
X-31059Y219038D01*
X-57051Y231038D02*
X-58050Y232037D01*
X-60049D01*
X-61049Y231038D01*
Y227039D01*
X-60049Y226039D01*
X-58050D01*
X-57051Y227039D01*
X-51052Y232037D02*
X-55051D01*
Y229038D01*
X-53052D01*
X-55051D01*
Y226039D01*
X-49053Y229038D02*
X-45054D01*
X-43055Y231038D02*
X-42055Y232037D01*
X-40056D01*
X-39056Y231038D01*
Y227039D01*
X-40056Y226039D01*
X-42055D01*
X-43055Y227039D01*
Y231038D01*
X-37057D02*
X-36057Y232037D01*
X-34058D01*
X-33058Y231038D01*
Y227039D01*
X-34058Y226039D01*
X-36057D01*
X-37057Y227039D01*
Y231038D01*
X-28060Y226039D02*
Y232037D01*
X-31059Y229038D01*
X-27060D01*
X-57051Y243038D02*
X-58050Y244037D01*
X-60049D01*
X-61049Y243038D01*
Y239039D01*
X-60049Y238039D01*
X-58050D01*
X-57051Y239039D01*
X-54051Y238039D02*
X-52052D01*
X-51052Y239039D01*
Y241038D01*
X-52052Y242038D01*
X-54051D01*
X-55051Y241038D01*
Y239039D01*
X-54051Y238039D01*
X-49053Y242038D02*
Y238039D01*
Y240039D01*
X-48053Y241038D01*
X-47054Y242038D01*
X-46054D01*
X-40056Y238039D02*
X-42055D01*
X-43055Y239039D01*
Y241038D01*
X-42055Y242038D01*
X-40056D01*
X-39056Y241038D01*
Y240039D01*
X-43055D01*
X-37057Y241038D02*
X-33058D01*
X-31059Y243038D02*
X-30059Y244037D01*
X-28060D01*
X-27060Y243038D01*
Y239039D01*
X-28060Y238039D01*
X-30059D01*
X-31059Y239039D01*
Y243038D01*
X-22062Y238039D02*
Y244037D01*
X-25061Y241038D01*
X-21062D01*
X-19063Y243038D02*
X-18063Y244037D01*
X-16064D01*
X-15064Y243038D01*
Y242038D01*
X-16064Y241038D01*
X-17063D01*
X-16064D01*
X-15064Y240039D01*
Y239039D01*
X-16064Y238039D01*
X-18063D01*
X-19063Y239039D01*
X-57051Y255038D02*
X-58050Y256037D01*
X-60049D01*
X-61049Y255038D01*
Y251039D01*
X-60049Y250039D01*
X-58050D01*
X-57051Y251039D01*
X-51052Y256037D02*
X-55051D01*
Y253038D01*
X-53052D01*
X-55051D01*
Y250039D01*
X-49053Y253038D02*
X-45054D01*
X-43055Y255038D02*
X-42055Y256037D01*
X-40056D01*
X-39056Y255038D01*
Y251039D01*
X-40056Y250039D01*
X-42055D01*
X-43055Y251039D01*
Y255038D01*
X-37057D02*
X-36057Y256037D01*
X-34058D01*
X-33058Y255038D01*
Y251039D01*
X-34058Y250039D01*
X-36057D01*
X-37057Y251039D01*
Y255038D01*
X-28060Y250039D02*
Y256037D01*
X-31059Y253038D01*
X-27060D01*
X-57051Y267038D02*
X-58050Y268037D01*
X-60049D01*
X-61049Y267038D01*
Y266038D01*
X-60049Y265038D01*
X-58050D01*
X-57051Y264039D01*
Y263039D01*
X-58050Y262039D01*
X-60049D01*
X-61049Y263039D01*
X-55051Y262039D02*
Y268037D01*
X-53052Y266038D01*
X-51052Y268037D01*
Y262039D01*
X-49053Y265038D02*
X-45054D01*
X-43055Y267038D02*
X-42055Y268037D01*
X-40056D01*
X-39056Y267038D01*
Y263039D01*
X-40056Y262039D01*
X-42055D01*
X-43055Y263039D01*
Y267038D01*
X-37057D02*
X-36057Y268037D01*
X-34058D01*
X-33058Y267038D01*
Y263039D01*
X-34058Y262039D01*
X-36057D01*
X-37057Y263039D01*
Y267038D01*
X-31059Y262039D02*
X-29059D01*
X-30059D01*
Y268037D01*
X-31059Y267038D01*
X-1064Y292037D02*
X2935D01*
X935D01*
Y286039D01*
X4934Y292037D02*
Y286039D01*
Y289038D01*
X5934Y290038D01*
X7933D01*
X8933Y289038D01*
Y286039D01*
X10932D02*
X12931D01*
X11932D01*
Y290038D01*
X10932D01*
X19929D02*
X16930D01*
X15931Y289038D01*
Y287039D01*
X16930Y286039D01*
X19929D01*
X21928D02*
Y292037D01*
Y288039D02*
X24927Y290038D01*
X21928Y288039D02*
X24927Y286039D01*
X27927D02*
Y290038D01*
X30926D01*
X31925Y289038D01*
Y286039D01*
X36924D02*
X34924D01*
X33925Y287039D01*
Y289038D01*
X34924Y290038D01*
X36924D01*
X37923Y289038D01*
Y288039D01*
X33925D01*
X39923Y286039D02*
X42922D01*
X43921Y287039D01*
X42922Y288039D01*
X40922D01*
X39923Y289038D01*
X40922Y290038D01*
X43921D01*
X45921Y286039D02*
X48920D01*
X49920Y287039D01*
X48920Y288039D01*
X46920D01*
X45921Y289038D01*
X46920Y290038D01*
X49920D01*
X-1064Y219038D02*
X-64Y220037D01*
X1935D01*
X2935Y219038D01*
Y215039D01*
X1935Y214039D01*
X-64D01*
X-1064Y215039D01*
Y219038D01*
X4934Y214039D02*
Y215039D01*
X5934D01*
Y214039D01*
X4934D01*
X9932Y219038D02*
X10932Y220037D01*
X12931D01*
X13931Y219038D01*
Y215039D01*
X12931Y214039D01*
X10932D01*
X9932Y215039D01*
Y219038D01*
X19929Y214039D02*
X15931D01*
X19929Y218038D01*
Y219038D01*
X18929Y220037D01*
X16930D01*
X15931Y219038D01*
X25927Y220037D02*
X21928D01*
Y217038D01*
X23928Y218038D01*
X24927D01*
X25927Y217038D01*
Y215039D01*
X24927Y214039D01*
X22928D01*
X21928Y215039D01*
X27927Y214039D02*
Y218038D01*
X28926D01*
X29926Y217038D01*
Y214039D01*
Y217038D01*
X30926Y218038D01*
X31925Y217038D01*
Y214039D01*
X33925D02*
Y218038D01*
X34924D01*
X35924Y217038D01*
Y214039D01*
Y217038D01*
X36924Y218038D01*
X37923Y217038D01*
Y214039D01*
X-1064Y231038D02*
X-64Y232037D01*
X1935D01*
X2935Y231038D01*
Y227039D01*
X1935Y226039D01*
X-64D01*
X-1064Y227039D01*
Y231038D01*
X4934Y226039D02*
Y227039D01*
X5934D01*
Y226039D01*
X4934D01*
X9932Y231038D02*
X10932Y232037D01*
X12931D01*
X13931Y231038D01*
Y227039D01*
X12931Y226039D01*
X10932D01*
X9932Y227039D01*
Y231038D01*
X15931D02*
X16930Y232037D01*
X18929D01*
X19929Y231038D01*
Y230038D01*
X18929Y229038D01*
X17930D01*
X18929D01*
X19929Y228039D01*
Y227039D01*
X18929Y226039D01*
X16930D01*
X15931Y227039D01*
X25927Y232037D02*
X21928D01*
Y229038D01*
X23928Y230038D01*
X24927D01*
X25927Y229038D01*
Y227039D01*
X24927Y226039D01*
X22928D01*
X21928Y227039D01*
X27927Y226039D02*
Y230038D01*
X28926D01*
X29926Y229038D01*
Y226039D01*
Y229038D01*
X30926Y230038D01*
X31925Y229038D01*
Y226039D01*
X33925D02*
Y230038D01*
X34924D01*
X35924Y229038D01*
Y226039D01*
Y229038D01*
X36924Y230038D01*
X37923Y229038D01*
Y226039D01*
X-1064Y238039D02*
X935D01*
X-64D01*
Y244037D01*
X-1064Y243038D01*
X3934Y238039D02*
Y239039D01*
X4934D01*
Y238039D01*
X3934D01*
X8933Y243038D02*
X9932Y244037D01*
X11932D01*
X12931Y243038D01*
Y239039D01*
X11932Y238039D01*
X9932D01*
X8933Y239039D01*
Y243038D01*
X14931D02*
X15931Y244037D01*
X17930D01*
X18929Y243038D01*
Y239039D01*
X17930Y238039D01*
X15931D01*
X14931Y239039D01*
Y243038D01*
X20929D02*
X21928Y244037D01*
X23928D01*
X24927Y243038D01*
Y239039D01*
X23928Y238039D01*
X21928D01*
X20929Y239039D01*
Y243038D01*
X26927Y238039D02*
Y242038D01*
X27927D01*
X28926Y241038D01*
Y238039D01*
Y241038D01*
X29926Y242038D01*
X30926Y241038D01*
Y238039D01*
X32925D02*
Y242038D01*
X33925D01*
X34924Y241038D01*
Y238039D01*
Y241038D01*
X35924Y242038D01*
X36924Y241038D01*
Y238039D01*
X-1064Y255038D02*
X-64Y256037D01*
X1935D01*
X2935Y255038D01*
Y251039D01*
X1935Y250039D01*
X-64D01*
X-1064Y251039D01*
Y255038D01*
X4934Y250039D02*
Y251039D01*
X5934D01*
Y250039D01*
X4934D01*
X9932Y255038D02*
X10932Y256037D01*
X12931D01*
X13931Y255038D01*
Y251039D01*
X12931Y250039D01*
X10932D01*
X9932Y251039D01*
Y255038D01*
X15931D02*
X16930Y256037D01*
X18929D01*
X19929Y255038D01*
Y254038D01*
X18929Y253038D01*
X17930D01*
X18929D01*
X19929Y252039D01*
Y251039D01*
X18929Y250039D01*
X16930D01*
X15931Y251039D01*
X25927Y256037D02*
X21928D01*
Y253038D01*
X23928Y254038D01*
X24927D01*
X25927Y253038D01*
Y251039D01*
X24927Y250039D01*
X22928D01*
X21928Y251039D01*
X27927Y250039D02*
Y254038D01*
X28926D01*
X29926Y253038D01*
Y250039D01*
Y253038D01*
X30926Y254038D01*
X31925Y253038D01*
Y250039D01*
X33925D02*
Y254038D01*
X34924D01*
X35924Y253038D01*
Y250039D01*
Y253038D01*
X36924Y254038D01*
X37923Y253038D01*
Y250039D01*
X-1064Y267038D02*
X-64Y268037D01*
X1935D01*
X2935Y267038D01*
Y263039D01*
X1935Y262039D01*
X-64D01*
X-1064Y263039D01*
Y267038D01*
X4934Y262039D02*
Y263039D01*
X5934D01*
Y262039D01*
X4934D01*
X9932Y267038D02*
X10932Y268037D01*
X12931D01*
X13931Y267038D01*
Y263039D01*
X12931Y262039D01*
X10932D01*
X9932Y263039D01*
Y267038D01*
X19929Y262039D02*
X15931D01*
X19929Y266038D01*
Y267038D01*
X18929Y268037D01*
X16930D01*
X15931Y267038D01*
X25927Y268037D02*
X21928D01*
Y265038D01*
X23928Y266038D01*
X24927D01*
X25927Y265038D01*
Y263039D01*
X24927Y262039D01*
X22928D01*
X21928Y263039D01*
X27927Y262039D02*
Y266038D01*
X28926D01*
X29926Y265038D01*
Y262039D01*
Y265038D01*
X30926Y266038D01*
X31925Y265038D01*
Y262039D01*
X33925D02*
Y266038D01*
X34924D01*
X35924Y265038D01*
Y262039D01*
Y265038D01*
X36924Y266038D01*
X37923Y265038D01*
Y262039D01*
X67918Y291038D02*
X66918Y292037D01*
X64919D01*
X63920Y291038D01*
Y287039D01*
X64919Y286039D01*
X66918D01*
X67918Y287039D01*
X70917Y286039D02*
X72917D01*
X73916Y287039D01*
Y289038D01*
X72917Y290038D01*
X70917D01*
X69918Y289038D01*
Y287039D01*
X70917Y286039D01*
X75916D02*
Y290038D01*
X78915D01*
X79914Y289038D01*
Y286039D01*
X81914D02*
X84913D01*
X85912Y287039D01*
X84913Y288039D01*
X82913D01*
X81914Y289038D01*
X82913Y290038D01*
X85912D01*
X88911Y291038D02*
Y290038D01*
X87912D01*
X89911D01*
X88911D01*
Y287039D01*
X89911Y286039D01*
X93910Y290038D02*
X95909D01*
X96909Y289038D01*
Y286039D01*
X93910D01*
X92910Y287039D01*
X93910Y288039D01*
X96909D01*
X98908Y286039D02*
Y290038D01*
X101907D01*
X102907Y289038D01*
Y286039D01*
X105906Y291038D02*
Y290038D01*
X104906D01*
X106906D01*
X105906D01*
Y287039D01*
X106906Y286039D01*
X66918Y214039D02*
Y220037D01*
X63920Y217038D01*
X67918D01*
X66918Y238039D02*
Y244037D01*
X63920Y241038D01*
X67918D01*
X69918Y238039D02*
Y239039D01*
X70917D01*
Y238039D01*
X69918D01*
X74916Y243038D02*
X75916Y244037D01*
X77915D01*
X78915Y243038D01*
Y242038D01*
X77915Y241038D01*
X76915D01*
X77915D01*
X78915Y240039D01*
Y239039D01*
X77915Y238039D01*
X75916D01*
X74916Y239039D01*
X66918Y262039D02*
Y268037D01*
X63920Y265038D01*
X67918D01*
M02*
